G75*
%MOIN*%
%OFA0B0*%
%FSLAX25Y25*%
%IPPOS*%
%LPD*%
%AMOC8*
5,1,8,0,0,1.08239X$1,22.5*
%
%ADD10C,0.00000*%
%ADD11C,0.01000*%
%ADD12C,0.00800*%
%ADD13C,0.00100*%
D10*
X0060569Y0023167D02*
X0060571Y0023325D01*
X0060577Y0023483D01*
X0060587Y0023641D01*
X0060601Y0023799D01*
X0060619Y0023956D01*
X0060640Y0024113D01*
X0060666Y0024269D01*
X0060696Y0024425D01*
X0060729Y0024580D01*
X0060767Y0024733D01*
X0060808Y0024886D01*
X0060853Y0025038D01*
X0060902Y0025189D01*
X0060955Y0025338D01*
X0061011Y0025486D01*
X0061071Y0025632D01*
X0061135Y0025777D01*
X0061203Y0025920D01*
X0061274Y0026062D01*
X0061348Y0026202D01*
X0061426Y0026339D01*
X0061508Y0026475D01*
X0061592Y0026609D01*
X0061681Y0026740D01*
X0061772Y0026869D01*
X0061867Y0026996D01*
X0061964Y0027121D01*
X0062065Y0027243D01*
X0062169Y0027362D01*
X0062276Y0027479D01*
X0062386Y0027593D01*
X0062499Y0027704D01*
X0062614Y0027813D01*
X0062732Y0027918D01*
X0062853Y0028020D01*
X0062976Y0028120D01*
X0063102Y0028216D01*
X0063230Y0028309D01*
X0063360Y0028399D01*
X0063493Y0028485D01*
X0063628Y0028569D01*
X0063764Y0028648D01*
X0063903Y0028725D01*
X0064044Y0028797D01*
X0064186Y0028867D01*
X0064330Y0028932D01*
X0064476Y0028994D01*
X0064623Y0029052D01*
X0064772Y0029107D01*
X0064922Y0029158D01*
X0065073Y0029205D01*
X0065225Y0029248D01*
X0065378Y0029287D01*
X0065533Y0029323D01*
X0065688Y0029354D01*
X0065844Y0029382D01*
X0066000Y0029406D01*
X0066157Y0029426D01*
X0066315Y0029442D01*
X0066472Y0029454D01*
X0066631Y0029462D01*
X0066789Y0029466D01*
X0066947Y0029466D01*
X0067105Y0029462D01*
X0067264Y0029454D01*
X0067421Y0029442D01*
X0067579Y0029426D01*
X0067736Y0029406D01*
X0067892Y0029382D01*
X0068048Y0029354D01*
X0068203Y0029323D01*
X0068358Y0029287D01*
X0068511Y0029248D01*
X0068663Y0029205D01*
X0068814Y0029158D01*
X0068964Y0029107D01*
X0069113Y0029052D01*
X0069260Y0028994D01*
X0069406Y0028932D01*
X0069550Y0028867D01*
X0069692Y0028797D01*
X0069833Y0028725D01*
X0069972Y0028648D01*
X0070108Y0028569D01*
X0070243Y0028485D01*
X0070376Y0028399D01*
X0070506Y0028309D01*
X0070634Y0028216D01*
X0070760Y0028120D01*
X0070883Y0028020D01*
X0071004Y0027918D01*
X0071122Y0027813D01*
X0071237Y0027704D01*
X0071350Y0027593D01*
X0071460Y0027479D01*
X0071567Y0027362D01*
X0071671Y0027243D01*
X0071772Y0027121D01*
X0071869Y0026996D01*
X0071964Y0026869D01*
X0072055Y0026740D01*
X0072144Y0026609D01*
X0072228Y0026475D01*
X0072310Y0026339D01*
X0072388Y0026202D01*
X0072462Y0026062D01*
X0072533Y0025920D01*
X0072601Y0025777D01*
X0072665Y0025632D01*
X0072725Y0025486D01*
X0072781Y0025338D01*
X0072834Y0025189D01*
X0072883Y0025038D01*
X0072928Y0024886D01*
X0072969Y0024733D01*
X0073007Y0024580D01*
X0073040Y0024425D01*
X0073070Y0024269D01*
X0073096Y0024113D01*
X0073117Y0023956D01*
X0073135Y0023799D01*
X0073149Y0023641D01*
X0073159Y0023483D01*
X0073165Y0023325D01*
X0073167Y0023167D01*
X0073165Y0023009D01*
X0073159Y0022851D01*
X0073149Y0022693D01*
X0073135Y0022535D01*
X0073117Y0022378D01*
X0073096Y0022221D01*
X0073070Y0022065D01*
X0073040Y0021909D01*
X0073007Y0021754D01*
X0072969Y0021601D01*
X0072928Y0021448D01*
X0072883Y0021296D01*
X0072834Y0021145D01*
X0072781Y0020996D01*
X0072725Y0020848D01*
X0072665Y0020702D01*
X0072601Y0020557D01*
X0072533Y0020414D01*
X0072462Y0020272D01*
X0072388Y0020132D01*
X0072310Y0019995D01*
X0072228Y0019859D01*
X0072144Y0019725D01*
X0072055Y0019594D01*
X0071964Y0019465D01*
X0071869Y0019338D01*
X0071772Y0019213D01*
X0071671Y0019091D01*
X0071567Y0018972D01*
X0071460Y0018855D01*
X0071350Y0018741D01*
X0071237Y0018630D01*
X0071122Y0018521D01*
X0071004Y0018416D01*
X0070883Y0018314D01*
X0070760Y0018214D01*
X0070634Y0018118D01*
X0070506Y0018025D01*
X0070376Y0017935D01*
X0070243Y0017849D01*
X0070108Y0017765D01*
X0069972Y0017686D01*
X0069833Y0017609D01*
X0069692Y0017537D01*
X0069550Y0017467D01*
X0069406Y0017402D01*
X0069260Y0017340D01*
X0069113Y0017282D01*
X0068964Y0017227D01*
X0068814Y0017176D01*
X0068663Y0017129D01*
X0068511Y0017086D01*
X0068358Y0017047D01*
X0068203Y0017011D01*
X0068048Y0016980D01*
X0067892Y0016952D01*
X0067736Y0016928D01*
X0067579Y0016908D01*
X0067421Y0016892D01*
X0067264Y0016880D01*
X0067105Y0016872D01*
X0066947Y0016868D01*
X0066789Y0016868D01*
X0066631Y0016872D01*
X0066472Y0016880D01*
X0066315Y0016892D01*
X0066157Y0016908D01*
X0066000Y0016928D01*
X0065844Y0016952D01*
X0065688Y0016980D01*
X0065533Y0017011D01*
X0065378Y0017047D01*
X0065225Y0017086D01*
X0065073Y0017129D01*
X0064922Y0017176D01*
X0064772Y0017227D01*
X0064623Y0017282D01*
X0064476Y0017340D01*
X0064330Y0017402D01*
X0064186Y0017467D01*
X0064044Y0017537D01*
X0063903Y0017609D01*
X0063764Y0017686D01*
X0063628Y0017765D01*
X0063493Y0017849D01*
X0063360Y0017935D01*
X0063230Y0018025D01*
X0063102Y0018118D01*
X0062976Y0018214D01*
X0062853Y0018314D01*
X0062732Y0018416D01*
X0062614Y0018521D01*
X0062499Y0018630D01*
X0062386Y0018741D01*
X0062276Y0018855D01*
X0062169Y0018972D01*
X0062065Y0019091D01*
X0061964Y0019213D01*
X0061867Y0019338D01*
X0061772Y0019465D01*
X0061681Y0019594D01*
X0061592Y0019725D01*
X0061508Y0019859D01*
X0061426Y0019995D01*
X0061348Y0020132D01*
X0061274Y0020272D01*
X0061203Y0020414D01*
X0061135Y0020557D01*
X0061071Y0020702D01*
X0061011Y0020848D01*
X0060955Y0020996D01*
X0060902Y0021145D01*
X0060853Y0021296D01*
X0060808Y0021448D01*
X0060767Y0021601D01*
X0060729Y0021754D01*
X0060696Y0021909D01*
X0060666Y0022065D01*
X0060640Y0022221D01*
X0060619Y0022378D01*
X0060601Y0022535D01*
X0060587Y0022693D01*
X0060577Y0022851D01*
X0060571Y0023009D01*
X0060569Y0023167D01*
X0060569Y0208994D02*
X0060571Y0209152D01*
X0060577Y0209310D01*
X0060587Y0209468D01*
X0060601Y0209626D01*
X0060619Y0209783D01*
X0060640Y0209940D01*
X0060666Y0210096D01*
X0060696Y0210252D01*
X0060729Y0210407D01*
X0060767Y0210560D01*
X0060808Y0210713D01*
X0060853Y0210865D01*
X0060902Y0211016D01*
X0060955Y0211165D01*
X0061011Y0211313D01*
X0061071Y0211459D01*
X0061135Y0211604D01*
X0061203Y0211747D01*
X0061274Y0211889D01*
X0061348Y0212029D01*
X0061426Y0212166D01*
X0061508Y0212302D01*
X0061592Y0212436D01*
X0061681Y0212567D01*
X0061772Y0212696D01*
X0061867Y0212823D01*
X0061964Y0212948D01*
X0062065Y0213070D01*
X0062169Y0213189D01*
X0062276Y0213306D01*
X0062386Y0213420D01*
X0062499Y0213531D01*
X0062614Y0213640D01*
X0062732Y0213745D01*
X0062853Y0213847D01*
X0062976Y0213947D01*
X0063102Y0214043D01*
X0063230Y0214136D01*
X0063360Y0214226D01*
X0063493Y0214312D01*
X0063628Y0214396D01*
X0063764Y0214475D01*
X0063903Y0214552D01*
X0064044Y0214624D01*
X0064186Y0214694D01*
X0064330Y0214759D01*
X0064476Y0214821D01*
X0064623Y0214879D01*
X0064772Y0214934D01*
X0064922Y0214985D01*
X0065073Y0215032D01*
X0065225Y0215075D01*
X0065378Y0215114D01*
X0065533Y0215150D01*
X0065688Y0215181D01*
X0065844Y0215209D01*
X0066000Y0215233D01*
X0066157Y0215253D01*
X0066315Y0215269D01*
X0066472Y0215281D01*
X0066631Y0215289D01*
X0066789Y0215293D01*
X0066947Y0215293D01*
X0067105Y0215289D01*
X0067264Y0215281D01*
X0067421Y0215269D01*
X0067579Y0215253D01*
X0067736Y0215233D01*
X0067892Y0215209D01*
X0068048Y0215181D01*
X0068203Y0215150D01*
X0068358Y0215114D01*
X0068511Y0215075D01*
X0068663Y0215032D01*
X0068814Y0214985D01*
X0068964Y0214934D01*
X0069113Y0214879D01*
X0069260Y0214821D01*
X0069406Y0214759D01*
X0069550Y0214694D01*
X0069692Y0214624D01*
X0069833Y0214552D01*
X0069972Y0214475D01*
X0070108Y0214396D01*
X0070243Y0214312D01*
X0070376Y0214226D01*
X0070506Y0214136D01*
X0070634Y0214043D01*
X0070760Y0213947D01*
X0070883Y0213847D01*
X0071004Y0213745D01*
X0071122Y0213640D01*
X0071237Y0213531D01*
X0071350Y0213420D01*
X0071460Y0213306D01*
X0071567Y0213189D01*
X0071671Y0213070D01*
X0071772Y0212948D01*
X0071869Y0212823D01*
X0071964Y0212696D01*
X0072055Y0212567D01*
X0072144Y0212436D01*
X0072228Y0212302D01*
X0072310Y0212166D01*
X0072388Y0212029D01*
X0072462Y0211889D01*
X0072533Y0211747D01*
X0072601Y0211604D01*
X0072665Y0211459D01*
X0072725Y0211313D01*
X0072781Y0211165D01*
X0072834Y0211016D01*
X0072883Y0210865D01*
X0072928Y0210713D01*
X0072969Y0210560D01*
X0073007Y0210407D01*
X0073040Y0210252D01*
X0073070Y0210096D01*
X0073096Y0209940D01*
X0073117Y0209783D01*
X0073135Y0209626D01*
X0073149Y0209468D01*
X0073159Y0209310D01*
X0073165Y0209152D01*
X0073167Y0208994D01*
X0073165Y0208836D01*
X0073159Y0208678D01*
X0073149Y0208520D01*
X0073135Y0208362D01*
X0073117Y0208205D01*
X0073096Y0208048D01*
X0073070Y0207892D01*
X0073040Y0207736D01*
X0073007Y0207581D01*
X0072969Y0207428D01*
X0072928Y0207275D01*
X0072883Y0207123D01*
X0072834Y0206972D01*
X0072781Y0206823D01*
X0072725Y0206675D01*
X0072665Y0206529D01*
X0072601Y0206384D01*
X0072533Y0206241D01*
X0072462Y0206099D01*
X0072388Y0205959D01*
X0072310Y0205822D01*
X0072228Y0205686D01*
X0072144Y0205552D01*
X0072055Y0205421D01*
X0071964Y0205292D01*
X0071869Y0205165D01*
X0071772Y0205040D01*
X0071671Y0204918D01*
X0071567Y0204799D01*
X0071460Y0204682D01*
X0071350Y0204568D01*
X0071237Y0204457D01*
X0071122Y0204348D01*
X0071004Y0204243D01*
X0070883Y0204141D01*
X0070760Y0204041D01*
X0070634Y0203945D01*
X0070506Y0203852D01*
X0070376Y0203762D01*
X0070243Y0203676D01*
X0070108Y0203592D01*
X0069972Y0203513D01*
X0069833Y0203436D01*
X0069692Y0203364D01*
X0069550Y0203294D01*
X0069406Y0203229D01*
X0069260Y0203167D01*
X0069113Y0203109D01*
X0068964Y0203054D01*
X0068814Y0203003D01*
X0068663Y0202956D01*
X0068511Y0202913D01*
X0068358Y0202874D01*
X0068203Y0202838D01*
X0068048Y0202807D01*
X0067892Y0202779D01*
X0067736Y0202755D01*
X0067579Y0202735D01*
X0067421Y0202719D01*
X0067264Y0202707D01*
X0067105Y0202699D01*
X0066947Y0202695D01*
X0066789Y0202695D01*
X0066631Y0202699D01*
X0066472Y0202707D01*
X0066315Y0202719D01*
X0066157Y0202735D01*
X0066000Y0202755D01*
X0065844Y0202779D01*
X0065688Y0202807D01*
X0065533Y0202838D01*
X0065378Y0202874D01*
X0065225Y0202913D01*
X0065073Y0202956D01*
X0064922Y0203003D01*
X0064772Y0203054D01*
X0064623Y0203109D01*
X0064476Y0203167D01*
X0064330Y0203229D01*
X0064186Y0203294D01*
X0064044Y0203364D01*
X0063903Y0203436D01*
X0063764Y0203513D01*
X0063628Y0203592D01*
X0063493Y0203676D01*
X0063360Y0203762D01*
X0063230Y0203852D01*
X0063102Y0203945D01*
X0062976Y0204041D01*
X0062853Y0204141D01*
X0062732Y0204243D01*
X0062614Y0204348D01*
X0062499Y0204457D01*
X0062386Y0204568D01*
X0062276Y0204682D01*
X0062169Y0204799D01*
X0062065Y0204918D01*
X0061964Y0205040D01*
X0061867Y0205165D01*
X0061772Y0205292D01*
X0061681Y0205421D01*
X0061592Y0205552D01*
X0061508Y0205686D01*
X0061426Y0205822D01*
X0061348Y0205959D01*
X0061274Y0206099D01*
X0061203Y0206241D01*
X0061135Y0206384D01*
X0061071Y0206529D01*
X0061011Y0206675D01*
X0060955Y0206823D01*
X0060902Y0206972D01*
X0060853Y0207123D01*
X0060808Y0207275D01*
X0060767Y0207428D01*
X0060729Y0207581D01*
X0060696Y0207736D01*
X0060666Y0207892D01*
X0060640Y0208048D01*
X0060619Y0208205D01*
X0060601Y0208362D01*
X0060587Y0208520D01*
X0060577Y0208678D01*
X0060571Y0208836D01*
X0060569Y0208994D01*
D11*
X0011750Y0212537D02*
X0011750Y0019624D01*
X0011752Y0019434D01*
X0011759Y0019244D01*
X0011771Y0019054D01*
X0011787Y0018864D01*
X0011807Y0018675D01*
X0011833Y0018486D01*
X0011862Y0018298D01*
X0011897Y0018111D01*
X0011936Y0017925D01*
X0011979Y0017740D01*
X0012027Y0017555D01*
X0012079Y0017372D01*
X0012135Y0017191D01*
X0012196Y0017011D01*
X0012262Y0016832D01*
X0012331Y0016655D01*
X0012405Y0016479D01*
X0012483Y0016306D01*
X0012566Y0016134D01*
X0012652Y0015965D01*
X0012742Y0015797D01*
X0012837Y0015632D01*
X0012935Y0015469D01*
X0013038Y0015309D01*
X0013144Y0015151D01*
X0013254Y0014996D01*
X0013367Y0014843D01*
X0013485Y0014693D01*
X0013606Y0014547D01*
X0013730Y0014403D01*
X0013858Y0014262D01*
X0013989Y0014124D01*
X0014124Y0013989D01*
X0014262Y0013858D01*
X0014403Y0013730D01*
X0014547Y0013606D01*
X0014693Y0013485D01*
X0014843Y0013367D01*
X0014996Y0013254D01*
X0015151Y0013144D01*
X0015309Y0013038D01*
X0015469Y0012935D01*
X0015632Y0012837D01*
X0015797Y0012742D01*
X0015965Y0012652D01*
X0016134Y0012566D01*
X0016306Y0012483D01*
X0016479Y0012405D01*
X0016655Y0012331D01*
X0016832Y0012262D01*
X0017011Y0012196D01*
X0017191Y0012135D01*
X0017372Y0012079D01*
X0017555Y0012027D01*
X0017740Y0011979D01*
X0017925Y0011936D01*
X0018111Y0011897D01*
X0018298Y0011862D01*
X0018486Y0011833D01*
X0018675Y0011807D01*
X0018864Y0011787D01*
X0019054Y0011771D01*
X0019244Y0011759D01*
X0019434Y0011752D01*
X0019624Y0011750D01*
X0082990Y0011750D01*
X0083180Y0011752D01*
X0083370Y0011759D01*
X0083560Y0011771D01*
X0083750Y0011787D01*
X0083939Y0011807D01*
X0084128Y0011833D01*
X0084316Y0011862D01*
X0084503Y0011897D01*
X0084689Y0011936D01*
X0084874Y0011979D01*
X0085059Y0012027D01*
X0085242Y0012079D01*
X0085423Y0012135D01*
X0085603Y0012196D01*
X0085782Y0012262D01*
X0085959Y0012331D01*
X0086135Y0012405D01*
X0086308Y0012483D01*
X0086480Y0012566D01*
X0086649Y0012652D01*
X0086817Y0012742D01*
X0086982Y0012837D01*
X0087145Y0012935D01*
X0087305Y0013038D01*
X0087463Y0013144D01*
X0087618Y0013254D01*
X0087771Y0013367D01*
X0087921Y0013485D01*
X0088067Y0013606D01*
X0088211Y0013730D01*
X0088352Y0013858D01*
X0088490Y0013989D01*
X0088625Y0014124D01*
X0088756Y0014262D01*
X0088884Y0014403D01*
X0089008Y0014547D01*
X0089129Y0014693D01*
X0089247Y0014843D01*
X0089360Y0014996D01*
X0089470Y0015151D01*
X0089576Y0015309D01*
X0089679Y0015469D01*
X0089777Y0015632D01*
X0089872Y0015797D01*
X0089962Y0015965D01*
X0090048Y0016134D01*
X0090131Y0016306D01*
X0090209Y0016479D01*
X0090283Y0016655D01*
X0090352Y0016832D01*
X0090418Y0017011D01*
X0090479Y0017191D01*
X0090535Y0017372D01*
X0090587Y0017555D01*
X0090635Y0017740D01*
X0090678Y0017925D01*
X0090717Y0018111D01*
X0090752Y0018298D01*
X0090781Y0018486D01*
X0090807Y0018675D01*
X0090827Y0018864D01*
X0090843Y0019054D01*
X0090855Y0019244D01*
X0090862Y0019434D01*
X0090864Y0019624D01*
X0090864Y0212537D01*
X0090862Y0212727D01*
X0090855Y0212917D01*
X0090843Y0213107D01*
X0090827Y0213297D01*
X0090807Y0213486D01*
X0090781Y0213675D01*
X0090752Y0213863D01*
X0090717Y0214050D01*
X0090678Y0214236D01*
X0090635Y0214421D01*
X0090587Y0214606D01*
X0090535Y0214789D01*
X0090479Y0214970D01*
X0090418Y0215150D01*
X0090352Y0215329D01*
X0090283Y0215506D01*
X0090209Y0215682D01*
X0090131Y0215855D01*
X0090048Y0216027D01*
X0089962Y0216196D01*
X0089872Y0216364D01*
X0089777Y0216529D01*
X0089679Y0216692D01*
X0089576Y0216852D01*
X0089470Y0217010D01*
X0089360Y0217165D01*
X0089247Y0217318D01*
X0089129Y0217468D01*
X0089008Y0217614D01*
X0088884Y0217758D01*
X0088756Y0217899D01*
X0088625Y0218037D01*
X0088490Y0218172D01*
X0088352Y0218303D01*
X0088211Y0218431D01*
X0088067Y0218555D01*
X0087921Y0218676D01*
X0087771Y0218794D01*
X0087618Y0218907D01*
X0087463Y0219017D01*
X0087305Y0219123D01*
X0087145Y0219226D01*
X0086982Y0219324D01*
X0086817Y0219419D01*
X0086649Y0219509D01*
X0086480Y0219595D01*
X0086308Y0219678D01*
X0086135Y0219756D01*
X0085959Y0219830D01*
X0085782Y0219899D01*
X0085603Y0219965D01*
X0085423Y0220026D01*
X0085242Y0220082D01*
X0085059Y0220134D01*
X0084874Y0220182D01*
X0084689Y0220225D01*
X0084503Y0220264D01*
X0084316Y0220299D01*
X0084128Y0220328D01*
X0083939Y0220354D01*
X0083750Y0220374D01*
X0083560Y0220390D01*
X0083370Y0220402D01*
X0083180Y0220409D01*
X0082990Y0220411D01*
X0019624Y0220411D01*
X0019434Y0220409D01*
X0019244Y0220402D01*
X0019054Y0220390D01*
X0018864Y0220374D01*
X0018675Y0220354D01*
X0018486Y0220328D01*
X0018298Y0220299D01*
X0018111Y0220264D01*
X0017925Y0220225D01*
X0017740Y0220182D01*
X0017555Y0220134D01*
X0017372Y0220082D01*
X0017191Y0220026D01*
X0017011Y0219965D01*
X0016832Y0219899D01*
X0016655Y0219830D01*
X0016479Y0219756D01*
X0016306Y0219678D01*
X0016134Y0219595D01*
X0015965Y0219509D01*
X0015797Y0219419D01*
X0015632Y0219324D01*
X0015469Y0219226D01*
X0015309Y0219123D01*
X0015151Y0219017D01*
X0014996Y0218907D01*
X0014843Y0218794D01*
X0014693Y0218676D01*
X0014547Y0218555D01*
X0014403Y0218431D01*
X0014262Y0218303D01*
X0014124Y0218172D01*
X0013989Y0218037D01*
X0013858Y0217899D01*
X0013730Y0217758D01*
X0013606Y0217614D01*
X0013485Y0217468D01*
X0013367Y0217318D01*
X0013254Y0217165D01*
X0013144Y0217010D01*
X0013038Y0216852D01*
X0012935Y0216692D01*
X0012837Y0216529D01*
X0012742Y0216364D01*
X0012652Y0216196D01*
X0012566Y0216027D01*
X0012483Y0215855D01*
X0012405Y0215682D01*
X0012331Y0215506D01*
X0012262Y0215329D01*
X0012196Y0215150D01*
X0012135Y0214970D01*
X0012079Y0214789D01*
X0012027Y0214606D01*
X0011979Y0214421D01*
X0011936Y0214236D01*
X0011897Y0214050D01*
X0011862Y0213863D01*
X0011833Y0213675D01*
X0011807Y0213486D01*
X0011787Y0213297D01*
X0011771Y0213107D01*
X0011759Y0212917D01*
X0011752Y0212727D01*
X0011750Y0212537D01*
X0062950Y0196850D02*
X0062950Y0194850D01*
X0062950Y0188450D02*
X0062950Y0186650D01*
D12*
X0077612Y0096069D02*
X0077612Y0091069D01*
D13*
X0056700Y0200199D02*
X0056700Y0199299D01*
X0056700Y0199300D02*
X0056517Y0199296D01*
X0056334Y0199289D01*
X0056151Y0199276D01*
X0055968Y0199259D01*
X0055786Y0199238D01*
X0055605Y0199213D01*
X0055424Y0199183D01*
X0055244Y0199148D01*
X0055065Y0199110D01*
X0054887Y0199067D01*
X0054710Y0199019D01*
X0054535Y0198968D01*
X0054360Y0198912D01*
X0054187Y0198852D01*
X0054016Y0198787D01*
X0053846Y0198719D01*
X0053677Y0198647D01*
X0053511Y0198570D01*
X0053347Y0198489D01*
X0053184Y0198405D01*
X0053024Y0198316D01*
X0052865Y0198224D01*
X0052709Y0198128D01*
X0052556Y0198028D01*
X0052405Y0197924D01*
X0052256Y0197817D01*
X0052110Y0197706D01*
X0051967Y0197592D01*
X0051827Y0197474D01*
X0051690Y0197353D01*
X0051555Y0197229D01*
X0051424Y0197101D01*
X0051295Y0196970D01*
X0051170Y0196836D01*
X0051049Y0196700D01*
X0050930Y0196560D01*
X0050815Y0196417D01*
X0050704Y0196272D01*
X0050596Y0196124D01*
X0050492Y0195973D01*
X0050391Y0195820D01*
X0050294Y0195665D01*
X0050201Y0195507D01*
X0050112Y0195347D01*
X0049318Y0195770D01*
X0049418Y0195950D01*
X0049522Y0196127D01*
X0049630Y0196301D01*
X0049743Y0196473D01*
X0049860Y0196641D01*
X0049981Y0196807D01*
X0050105Y0196970D01*
X0050234Y0197130D01*
X0050367Y0197287D01*
X0050503Y0197440D01*
X0050643Y0197590D01*
X0050787Y0197737D01*
X0050934Y0197880D01*
X0051085Y0198020D01*
X0051239Y0198155D01*
X0051396Y0198287D01*
X0051556Y0198415D01*
X0051720Y0198540D01*
X0051886Y0198660D01*
X0052056Y0198776D01*
X0052228Y0198888D01*
X0052402Y0198996D01*
X0052580Y0199099D01*
X0052759Y0199198D01*
X0052942Y0199293D01*
X0053126Y0199383D01*
X0053312Y0199469D01*
X0053501Y0199550D01*
X0053691Y0199627D01*
X0053884Y0199699D01*
X0054078Y0199766D01*
X0054273Y0199829D01*
X0054470Y0199887D01*
X0054668Y0199940D01*
X0054868Y0199988D01*
X0055069Y0200031D01*
X0055270Y0200069D01*
X0055473Y0200103D01*
X0055676Y0200131D01*
X0055880Y0200155D01*
X0056085Y0200174D01*
X0056289Y0200187D01*
X0056494Y0200196D01*
X0056700Y0200200D01*
X0056700Y0200106D01*
X0056497Y0200102D01*
X0056294Y0200094D01*
X0056091Y0200080D01*
X0055889Y0200062D01*
X0055688Y0200038D01*
X0055487Y0200010D01*
X0055286Y0199977D01*
X0055087Y0199939D01*
X0054889Y0199896D01*
X0054691Y0199848D01*
X0054495Y0199796D01*
X0054300Y0199739D01*
X0054107Y0199677D01*
X0053915Y0199610D01*
X0053725Y0199539D01*
X0053537Y0199464D01*
X0053351Y0199383D01*
X0053166Y0199298D01*
X0052984Y0199209D01*
X0052804Y0199115D01*
X0052626Y0199017D01*
X0052451Y0198915D01*
X0052278Y0198809D01*
X0052108Y0198698D01*
X0051940Y0198583D01*
X0051776Y0198464D01*
X0051614Y0198341D01*
X0051456Y0198215D01*
X0051300Y0198084D01*
X0051148Y0197950D01*
X0050999Y0197812D01*
X0050853Y0197671D01*
X0050711Y0197526D01*
X0050573Y0197377D01*
X0050438Y0197226D01*
X0050307Y0197071D01*
X0050180Y0196913D01*
X0050056Y0196751D01*
X0049937Y0196587D01*
X0049821Y0196420D01*
X0049710Y0196251D01*
X0049602Y0196078D01*
X0049499Y0195903D01*
X0049401Y0195726D01*
X0049484Y0195682D01*
X0049581Y0195857D01*
X0049683Y0196030D01*
X0049789Y0196200D01*
X0049899Y0196368D01*
X0050013Y0196533D01*
X0050132Y0196695D01*
X0050254Y0196855D01*
X0050380Y0197011D01*
X0050509Y0197164D01*
X0050643Y0197314D01*
X0050779Y0197461D01*
X0050920Y0197604D01*
X0051064Y0197744D01*
X0051211Y0197880D01*
X0051362Y0198013D01*
X0051515Y0198142D01*
X0051672Y0198267D01*
X0051832Y0198389D01*
X0051995Y0198506D01*
X0052160Y0198620D01*
X0052328Y0198729D01*
X0052499Y0198835D01*
X0052672Y0198936D01*
X0052848Y0199033D01*
X0053026Y0199125D01*
X0053206Y0199213D01*
X0053389Y0199297D01*
X0053573Y0199377D01*
X0053759Y0199452D01*
X0053947Y0199522D01*
X0054137Y0199588D01*
X0054328Y0199649D01*
X0054520Y0199705D01*
X0054714Y0199757D01*
X0054909Y0199804D01*
X0055105Y0199847D01*
X0055303Y0199884D01*
X0055501Y0199917D01*
X0055699Y0199945D01*
X0055899Y0199968D01*
X0056098Y0199986D01*
X0056299Y0200000D01*
X0056499Y0200008D01*
X0056700Y0200012D01*
X0056700Y0199918D01*
X0056501Y0199914D01*
X0056303Y0199906D01*
X0056105Y0199893D01*
X0055908Y0199874D01*
X0055711Y0199852D01*
X0055514Y0199824D01*
X0055319Y0199792D01*
X0055124Y0199754D01*
X0054930Y0199713D01*
X0054737Y0199666D01*
X0054545Y0199615D01*
X0054355Y0199559D01*
X0054166Y0199499D01*
X0053979Y0199434D01*
X0053793Y0199364D01*
X0053609Y0199290D01*
X0053427Y0199211D01*
X0053247Y0199128D01*
X0053068Y0199041D01*
X0052892Y0198950D01*
X0052719Y0198854D01*
X0052547Y0198754D01*
X0052379Y0198650D01*
X0052212Y0198542D01*
X0052049Y0198429D01*
X0051888Y0198313D01*
X0051730Y0198193D01*
X0051575Y0198069D01*
X0051423Y0197942D01*
X0051274Y0197811D01*
X0051129Y0197676D01*
X0050986Y0197538D01*
X0050848Y0197396D01*
X0050712Y0197251D01*
X0050580Y0197103D01*
X0050452Y0196951D01*
X0050328Y0196797D01*
X0050207Y0196640D01*
X0050090Y0196479D01*
X0049977Y0196316D01*
X0049869Y0196150D01*
X0049764Y0195982D01*
X0049663Y0195811D01*
X0049567Y0195638D01*
X0049649Y0195593D01*
X0049745Y0195765D01*
X0049844Y0195934D01*
X0049948Y0196100D01*
X0050056Y0196264D01*
X0050167Y0196425D01*
X0050283Y0196584D01*
X0050402Y0196739D01*
X0050525Y0196892D01*
X0050652Y0197041D01*
X0050782Y0197188D01*
X0050916Y0197331D01*
X0051053Y0197471D01*
X0051194Y0197608D01*
X0051337Y0197741D01*
X0051484Y0197871D01*
X0051635Y0197997D01*
X0051788Y0198119D01*
X0051944Y0198238D01*
X0052103Y0198353D01*
X0052265Y0198463D01*
X0052429Y0198570D01*
X0052596Y0198673D01*
X0052765Y0198772D01*
X0052937Y0198867D01*
X0053111Y0198957D01*
X0053287Y0199044D01*
X0053465Y0199125D01*
X0053645Y0199203D01*
X0053827Y0199276D01*
X0054010Y0199345D01*
X0054196Y0199409D01*
X0054382Y0199469D01*
X0054570Y0199524D01*
X0054760Y0199575D01*
X0054950Y0199621D01*
X0055142Y0199662D01*
X0055335Y0199699D01*
X0055528Y0199731D01*
X0055722Y0199758D01*
X0055917Y0199781D01*
X0056112Y0199799D01*
X0056308Y0199812D01*
X0056504Y0199820D01*
X0056700Y0199824D01*
X0056700Y0199730D01*
X0056506Y0199726D01*
X0056312Y0199718D01*
X0056119Y0199705D01*
X0055926Y0199687D01*
X0055734Y0199665D01*
X0055542Y0199638D01*
X0055351Y0199606D01*
X0055160Y0199570D01*
X0054971Y0199529D01*
X0054783Y0199484D01*
X0054596Y0199434D01*
X0054410Y0199379D01*
X0054225Y0199320D01*
X0054042Y0199257D01*
X0053861Y0199189D01*
X0053681Y0199116D01*
X0053503Y0199040D01*
X0053327Y0198959D01*
X0053153Y0198873D01*
X0052981Y0198784D01*
X0052811Y0198690D01*
X0052644Y0198593D01*
X0052479Y0198491D01*
X0052317Y0198385D01*
X0052157Y0198276D01*
X0052000Y0198162D01*
X0051846Y0198045D01*
X0051694Y0197924D01*
X0051546Y0197800D01*
X0051401Y0197672D01*
X0051258Y0197540D01*
X0051119Y0197405D01*
X0050984Y0197267D01*
X0050852Y0197125D01*
X0050723Y0196980D01*
X0050598Y0196832D01*
X0050476Y0196681D01*
X0050358Y0196528D01*
X0050244Y0196371D01*
X0050134Y0196212D01*
X0050028Y0196050D01*
X0049925Y0195885D01*
X0049827Y0195718D01*
X0049732Y0195549D01*
X0049815Y0195505D01*
X0049909Y0195672D01*
X0050006Y0195837D01*
X0050107Y0196000D01*
X0050212Y0196160D01*
X0050321Y0196317D01*
X0050434Y0196472D01*
X0050550Y0196624D01*
X0050670Y0196773D01*
X0050794Y0196919D01*
X0050921Y0197062D01*
X0051052Y0197202D01*
X0051186Y0197338D01*
X0051323Y0197472D01*
X0051464Y0197602D01*
X0051607Y0197729D01*
X0051754Y0197852D01*
X0051904Y0197971D01*
X0052056Y0198087D01*
X0052211Y0198199D01*
X0052369Y0198307D01*
X0052530Y0198412D01*
X0052693Y0198512D01*
X0052858Y0198609D01*
X0053025Y0198701D01*
X0053195Y0198789D01*
X0053367Y0198874D01*
X0053541Y0198954D01*
X0053717Y0199029D01*
X0053895Y0199101D01*
X0054074Y0199168D01*
X0054255Y0199231D01*
X0054437Y0199289D01*
X0054621Y0199343D01*
X0054806Y0199393D01*
X0054992Y0199437D01*
X0055179Y0199478D01*
X0055367Y0199514D01*
X0055556Y0199545D01*
X0055745Y0199572D01*
X0055935Y0199594D01*
X0056126Y0199611D01*
X0056317Y0199624D01*
X0056508Y0199632D01*
X0056700Y0199636D01*
X0056700Y0199542D01*
X0056511Y0199538D01*
X0056322Y0199530D01*
X0056133Y0199518D01*
X0055945Y0199500D01*
X0055757Y0199478D01*
X0055570Y0199452D01*
X0055383Y0199421D01*
X0055197Y0199386D01*
X0055012Y0199346D01*
X0054828Y0199301D01*
X0054646Y0199252D01*
X0054464Y0199199D01*
X0054284Y0199142D01*
X0054106Y0199080D01*
X0053928Y0199013D01*
X0053753Y0198943D01*
X0053579Y0198868D01*
X0053407Y0198789D01*
X0053238Y0198705D01*
X0053070Y0198618D01*
X0052904Y0198527D01*
X0052741Y0198431D01*
X0052580Y0198332D01*
X0052421Y0198229D01*
X0052265Y0198122D01*
X0052112Y0198011D01*
X0051961Y0197897D01*
X0051814Y0197779D01*
X0051669Y0197657D01*
X0051527Y0197532D01*
X0051388Y0197404D01*
X0051253Y0197272D01*
X0051120Y0197137D01*
X0050991Y0196999D01*
X0050865Y0196857D01*
X0050743Y0196713D01*
X0050624Y0196566D01*
X0050509Y0196416D01*
X0050398Y0196263D01*
X0050290Y0196107D01*
X0050186Y0195949D01*
X0050086Y0195789D01*
X0049990Y0195626D01*
X0049898Y0195461D01*
X0049981Y0195416D01*
X0050072Y0195580D01*
X0050167Y0195741D01*
X0050266Y0195899D01*
X0050368Y0196055D01*
X0050475Y0196209D01*
X0050585Y0196360D01*
X0050699Y0196508D01*
X0050816Y0196654D01*
X0050937Y0196796D01*
X0051061Y0196936D01*
X0051188Y0197072D01*
X0051319Y0197206D01*
X0051453Y0197336D01*
X0051590Y0197463D01*
X0051730Y0197586D01*
X0051873Y0197706D01*
X0052019Y0197823D01*
X0052168Y0197936D01*
X0052320Y0198045D01*
X0052474Y0198151D01*
X0052630Y0198253D01*
X0052789Y0198351D01*
X0052951Y0198445D01*
X0053114Y0198535D01*
X0053280Y0198622D01*
X0053448Y0198704D01*
X0053617Y0198782D01*
X0053789Y0198856D01*
X0053962Y0198925D01*
X0054137Y0198991D01*
X0054314Y0199052D01*
X0054492Y0199109D01*
X0054671Y0199162D01*
X0054851Y0199210D01*
X0055033Y0199254D01*
X0055216Y0199294D01*
X0055399Y0199329D01*
X0055583Y0199359D01*
X0055768Y0199385D01*
X0055954Y0199407D01*
X0056140Y0199424D01*
X0056326Y0199436D01*
X0056513Y0199444D01*
X0056700Y0199448D01*
X0056700Y0199354D01*
X0056515Y0199350D01*
X0056331Y0199342D01*
X0056147Y0199330D01*
X0055963Y0199313D01*
X0055780Y0199292D01*
X0055597Y0199266D01*
X0055415Y0199236D01*
X0055234Y0199201D01*
X0055054Y0199162D01*
X0054874Y0199119D01*
X0054696Y0199071D01*
X0054519Y0199019D01*
X0054343Y0198963D01*
X0054169Y0198903D01*
X0053996Y0198838D01*
X0053825Y0198769D01*
X0053656Y0198696D01*
X0053488Y0198619D01*
X0053322Y0198538D01*
X0053159Y0198452D01*
X0052997Y0198363D01*
X0052838Y0198270D01*
X0052681Y0198173D01*
X0052526Y0198073D01*
X0052374Y0197968D01*
X0052224Y0197860D01*
X0052077Y0197749D01*
X0051933Y0197634D01*
X0051792Y0197515D01*
X0051653Y0197393D01*
X0051518Y0197268D01*
X0051386Y0197139D01*
X0051256Y0197007D01*
X0051130Y0196873D01*
X0051008Y0196735D01*
X0050889Y0196594D01*
X0050773Y0196450D01*
X0050660Y0196304D01*
X0050552Y0196155D01*
X0050447Y0196003D01*
X0050345Y0195849D01*
X0050248Y0195692D01*
X0050154Y0195533D01*
X0050064Y0195372D01*
X0049439Y0187515D02*
X0050220Y0187961D01*
X0050313Y0187804D01*
X0050410Y0187650D01*
X0050511Y0187498D01*
X0050616Y0187349D01*
X0050724Y0187202D01*
X0050835Y0187057D01*
X0050950Y0186916D01*
X0051069Y0186777D01*
X0051191Y0186642D01*
X0051316Y0186509D01*
X0051444Y0186379D01*
X0051575Y0186253D01*
X0051709Y0186129D01*
X0051846Y0186009D01*
X0051986Y0185892D01*
X0052129Y0185779D01*
X0052275Y0185669D01*
X0052423Y0185563D01*
X0052574Y0185460D01*
X0052727Y0185361D01*
X0052882Y0185266D01*
X0053040Y0185175D01*
X0053200Y0185087D01*
X0053362Y0185003D01*
X0053525Y0184923D01*
X0053691Y0184847D01*
X0053859Y0184776D01*
X0054028Y0184708D01*
X0054199Y0184644D01*
X0054371Y0184585D01*
X0054545Y0184529D01*
X0054720Y0184478D01*
X0054896Y0184431D01*
X0055073Y0184389D01*
X0055252Y0184350D01*
X0055431Y0184316D01*
X0055611Y0184286D01*
X0055791Y0184261D01*
X0055972Y0184240D01*
X0056154Y0184224D01*
X0056336Y0184211D01*
X0056518Y0184204D01*
X0056700Y0184200D01*
X0056701Y0183301D01*
X0056700Y0183300D01*
X0056496Y0183304D01*
X0056292Y0183312D01*
X0056088Y0183326D01*
X0055884Y0183344D01*
X0055681Y0183368D01*
X0055479Y0183396D01*
X0055277Y0183429D01*
X0055077Y0183467D01*
X0054877Y0183510D01*
X0054678Y0183558D01*
X0054481Y0183610D01*
X0054285Y0183668D01*
X0054090Y0183730D01*
X0053897Y0183796D01*
X0053705Y0183868D01*
X0053516Y0183944D01*
X0053328Y0184024D01*
X0053142Y0184109D01*
X0052958Y0184199D01*
X0052777Y0184292D01*
X0052598Y0184391D01*
X0052421Y0184493D01*
X0052247Y0184600D01*
X0052075Y0184711D01*
X0051906Y0184826D01*
X0051740Y0184945D01*
X0051577Y0185068D01*
X0051417Y0185195D01*
X0051260Y0185326D01*
X0051106Y0185461D01*
X0050956Y0185599D01*
X0050809Y0185741D01*
X0050665Y0185886D01*
X0050525Y0186035D01*
X0050389Y0186187D01*
X0050256Y0186343D01*
X0050128Y0186501D01*
X0050003Y0186663D01*
X0049882Y0186828D01*
X0049765Y0186995D01*
X0049652Y0187166D01*
X0049543Y0187339D01*
X0049438Y0187514D01*
X0049520Y0187561D01*
X0049623Y0187387D01*
X0049731Y0187216D01*
X0049843Y0187048D01*
X0049958Y0186882D01*
X0050078Y0186719D01*
X0050202Y0186560D01*
X0050329Y0186403D01*
X0050460Y0186249D01*
X0050595Y0186099D01*
X0050733Y0185951D01*
X0050875Y0185808D01*
X0051021Y0185667D01*
X0051169Y0185531D01*
X0051321Y0185398D01*
X0051477Y0185268D01*
X0051635Y0185143D01*
X0051796Y0185021D01*
X0051960Y0184903D01*
X0052127Y0184789D01*
X0052297Y0184680D01*
X0052469Y0184574D01*
X0052644Y0184473D01*
X0052821Y0184375D01*
X0053000Y0184283D01*
X0053182Y0184194D01*
X0053366Y0184110D01*
X0053551Y0184030D01*
X0053739Y0183955D01*
X0053928Y0183885D01*
X0054119Y0183819D01*
X0054312Y0183758D01*
X0054506Y0183701D01*
X0054701Y0183649D01*
X0054897Y0183602D01*
X0055095Y0183560D01*
X0055293Y0183522D01*
X0055493Y0183489D01*
X0055693Y0183461D01*
X0055894Y0183438D01*
X0056095Y0183420D01*
X0056296Y0183406D01*
X0056498Y0183398D01*
X0056700Y0183394D01*
X0056700Y0183488D01*
X0056501Y0183492D01*
X0056301Y0183500D01*
X0056102Y0183513D01*
X0055903Y0183532D01*
X0055704Y0183554D01*
X0055507Y0183582D01*
X0055309Y0183615D01*
X0055113Y0183652D01*
X0054918Y0183694D01*
X0054724Y0183740D01*
X0054531Y0183792D01*
X0054339Y0183848D01*
X0054149Y0183908D01*
X0053960Y0183973D01*
X0053773Y0184043D01*
X0053587Y0184117D01*
X0053404Y0184196D01*
X0053222Y0184279D01*
X0053042Y0184367D01*
X0052865Y0184458D01*
X0052690Y0184554D01*
X0052517Y0184655D01*
X0052347Y0184759D01*
X0052179Y0184868D01*
X0052014Y0184980D01*
X0051852Y0185096D01*
X0051693Y0185217D01*
X0051536Y0185341D01*
X0051383Y0185469D01*
X0051232Y0185600D01*
X0051085Y0185736D01*
X0050942Y0185874D01*
X0050801Y0186016D01*
X0050664Y0186162D01*
X0050531Y0186311D01*
X0050401Y0186463D01*
X0050275Y0186618D01*
X0050153Y0186776D01*
X0050035Y0186937D01*
X0049921Y0187100D01*
X0049810Y0187267D01*
X0049704Y0187436D01*
X0049602Y0187607D01*
X0049683Y0187654D01*
X0049784Y0187484D01*
X0049889Y0187317D01*
X0049999Y0187153D01*
X0050112Y0186991D01*
X0050229Y0186832D01*
X0050349Y0186676D01*
X0050474Y0186522D01*
X0050602Y0186372D01*
X0050734Y0186225D01*
X0050869Y0186081D01*
X0051008Y0185941D01*
X0051150Y0185804D01*
X0051295Y0185670D01*
X0051444Y0185540D01*
X0051596Y0185414D01*
X0051750Y0185291D01*
X0051908Y0185172D01*
X0052068Y0185057D01*
X0052231Y0184946D01*
X0052397Y0184839D01*
X0052565Y0184735D01*
X0052736Y0184636D01*
X0052909Y0184541D01*
X0053085Y0184451D01*
X0053262Y0184364D01*
X0053442Y0184282D01*
X0053623Y0184204D01*
X0053806Y0184131D01*
X0053991Y0184062D01*
X0054178Y0183998D01*
X0054366Y0183938D01*
X0054556Y0183882D01*
X0054746Y0183832D01*
X0054938Y0183785D01*
X0055131Y0183744D01*
X0055325Y0183707D01*
X0055520Y0183675D01*
X0055716Y0183648D01*
X0055912Y0183625D01*
X0056109Y0183607D01*
X0056306Y0183594D01*
X0056503Y0183586D01*
X0056700Y0183582D01*
X0056700Y0183676D01*
X0056505Y0183680D01*
X0056310Y0183688D01*
X0056115Y0183701D01*
X0055921Y0183719D01*
X0055727Y0183741D01*
X0055534Y0183768D01*
X0055341Y0183800D01*
X0055150Y0183836D01*
X0054959Y0183877D01*
X0054769Y0183923D01*
X0054581Y0183973D01*
X0054393Y0184028D01*
X0054207Y0184087D01*
X0054023Y0184150D01*
X0053840Y0184219D01*
X0053659Y0184291D01*
X0053480Y0184368D01*
X0053302Y0184449D01*
X0053127Y0184535D01*
X0052953Y0184624D01*
X0052782Y0184718D01*
X0052614Y0184816D01*
X0052447Y0184918D01*
X0052283Y0185024D01*
X0052122Y0185134D01*
X0051964Y0185248D01*
X0051808Y0185365D01*
X0051655Y0185487D01*
X0051505Y0185612D01*
X0051358Y0185740D01*
X0051215Y0185872D01*
X0051074Y0186008D01*
X0050937Y0186147D01*
X0050803Y0186289D01*
X0050673Y0186434D01*
X0050546Y0186582D01*
X0050423Y0186734D01*
X0050304Y0186888D01*
X0050188Y0187045D01*
X0050077Y0187205D01*
X0049969Y0187368D01*
X0049865Y0187533D01*
X0049765Y0187701D01*
X0049846Y0187747D01*
X0049945Y0187582D01*
X0050048Y0187418D01*
X0050155Y0187258D01*
X0050265Y0187100D01*
X0050379Y0186944D01*
X0050497Y0186792D01*
X0050619Y0186642D01*
X0050744Y0186496D01*
X0050873Y0186352D01*
X0051005Y0186212D01*
X0051140Y0186074D01*
X0051279Y0185940D01*
X0051421Y0185810D01*
X0051566Y0185683D01*
X0051714Y0185559D01*
X0051865Y0185440D01*
X0052019Y0185323D01*
X0052176Y0185211D01*
X0052335Y0185102D01*
X0052497Y0184998D01*
X0052662Y0184897D01*
X0052828Y0184800D01*
X0052998Y0184707D01*
X0053169Y0184619D01*
X0053342Y0184534D01*
X0053518Y0184454D01*
X0053695Y0184378D01*
X0053874Y0184306D01*
X0054055Y0184239D01*
X0054237Y0184176D01*
X0054421Y0184118D01*
X0054606Y0184064D01*
X0054792Y0184014D01*
X0054980Y0183969D01*
X0055168Y0183928D01*
X0055357Y0183892D01*
X0055548Y0183861D01*
X0055739Y0183834D01*
X0055930Y0183812D01*
X0056122Y0183795D01*
X0056315Y0183782D01*
X0056507Y0183774D01*
X0056700Y0183770D01*
X0056700Y0183864D01*
X0056510Y0183868D01*
X0056319Y0183876D01*
X0056129Y0183888D01*
X0055939Y0183906D01*
X0055750Y0183928D01*
X0055562Y0183954D01*
X0055374Y0183985D01*
X0055186Y0184021D01*
X0055000Y0184061D01*
X0054815Y0184105D01*
X0054631Y0184154D01*
X0054448Y0184208D01*
X0054266Y0184265D01*
X0054086Y0184328D01*
X0053908Y0184394D01*
X0053731Y0184465D01*
X0053556Y0184540D01*
X0053382Y0184619D01*
X0053211Y0184703D01*
X0053042Y0184790D01*
X0052875Y0184882D01*
X0052710Y0184978D01*
X0052547Y0185077D01*
X0052387Y0185181D01*
X0052230Y0185288D01*
X0052075Y0185399D01*
X0051923Y0185514D01*
X0051774Y0185632D01*
X0051628Y0185754D01*
X0051484Y0185880D01*
X0051344Y0186009D01*
X0051207Y0186141D01*
X0051073Y0186277D01*
X0050942Y0186415D01*
X0050815Y0186557D01*
X0050691Y0186702D01*
X0050571Y0186850D01*
X0050455Y0187001D01*
X0050342Y0187154D01*
X0050233Y0187310D01*
X0050127Y0187469D01*
X0050026Y0187630D01*
X0049928Y0187794D01*
X0050010Y0187841D01*
X0050106Y0187679D01*
X0050206Y0187520D01*
X0050310Y0187363D01*
X0050418Y0187208D01*
X0050530Y0187057D01*
X0050645Y0186908D01*
X0050764Y0186762D01*
X0050886Y0186619D01*
X0051012Y0186479D01*
X0051141Y0186342D01*
X0051273Y0186208D01*
X0051409Y0186077D01*
X0051547Y0185950D01*
X0051689Y0185826D01*
X0051833Y0185705D01*
X0051981Y0185588D01*
X0052131Y0185475D01*
X0052284Y0185365D01*
X0052440Y0185259D01*
X0052598Y0185157D01*
X0052758Y0185058D01*
X0052921Y0184964D01*
X0053086Y0184873D01*
X0053253Y0184787D01*
X0053422Y0184704D01*
X0053593Y0184626D01*
X0053766Y0184552D01*
X0053941Y0184482D01*
X0054118Y0184416D01*
X0054296Y0184355D01*
X0054475Y0184298D01*
X0054656Y0184245D01*
X0054838Y0184196D01*
X0055021Y0184152D01*
X0055205Y0184113D01*
X0055390Y0184078D01*
X0055575Y0184047D01*
X0055762Y0184021D01*
X0055949Y0183999D01*
X0056136Y0183982D01*
X0056324Y0183970D01*
X0056512Y0183962D01*
X0056700Y0183958D01*
X0056700Y0184052D01*
X0056514Y0184056D01*
X0056329Y0184064D01*
X0056143Y0184076D01*
X0055958Y0184093D01*
X0055773Y0184114D01*
X0055589Y0184140D01*
X0055406Y0184170D01*
X0055223Y0184205D01*
X0055041Y0184244D01*
X0054860Y0184288D01*
X0054681Y0184335D01*
X0054502Y0184388D01*
X0054325Y0184444D01*
X0054149Y0184505D01*
X0053975Y0184570D01*
X0053802Y0184639D01*
X0053631Y0184712D01*
X0053462Y0184789D01*
X0053295Y0184871D01*
X0053130Y0184956D01*
X0052967Y0185046D01*
X0052806Y0185139D01*
X0052648Y0185236D01*
X0052492Y0185337D01*
X0052338Y0185442D01*
X0052187Y0185550D01*
X0052038Y0185662D01*
X0051893Y0185778D01*
X0051750Y0185897D01*
X0051610Y0186019D01*
X0051473Y0186145D01*
X0051339Y0186274D01*
X0051209Y0186407D01*
X0051081Y0186542D01*
X0050957Y0186680D01*
X0050836Y0186822D01*
X0050719Y0186966D01*
X0050605Y0187113D01*
X0050495Y0187263D01*
X0050388Y0187415D01*
X0050286Y0187570D01*
X0050187Y0187728D01*
X0050091Y0187887D01*
X0050173Y0187934D01*
X0050267Y0187776D01*
X0050365Y0187621D01*
X0050466Y0187468D01*
X0050572Y0187317D01*
X0050681Y0187169D01*
X0050793Y0187024D01*
X0050909Y0186882D01*
X0051028Y0186742D01*
X0051151Y0186605D01*
X0051277Y0186472D01*
X0051406Y0186341D01*
X0051538Y0186213D01*
X0051673Y0186089D01*
X0051811Y0185968D01*
X0051952Y0185851D01*
X0052096Y0185737D01*
X0052243Y0185626D01*
X0052392Y0185519D01*
X0052544Y0185415D01*
X0052698Y0185316D01*
X0052854Y0185220D01*
X0053013Y0185128D01*
X0053174Y0185039D01*
X0053337Y0184955D01*
X0053502Y0184874D01*
X0053669Y0184798D01*
X0053838Y0184726D01*
X0054009Y0184657D01*
X0054181Y0184593D01*
X0054354Y0184533D01*
X0054529Y0184477D01*
X0054706Y0184426D01*
X0054883Y0184379D01*
X0055062Y0184336D01*
X0055241Y0184297D01*
X0055422Y0184263D01*
X0055603Y0184233D01*
X0055785Y0184208D01*
X0055967Y0184186D01*
X0056150Y0184170D01*
X0056333Y0184157D01*
X0056517Y0184150D01*
X0056700Y0184146D01*
X0056799Y0183301D02*
X0056799Y0184201D01*
X0056800Y0184200D02*
X0056984Y0184204D01*
X0057169Y0184212D01*
X0057353Y0184224D01*
X0057536Y0184241D01*
X0057720Y0184263D01*
X0057902Y0184288D01*
X0058084Y0184319D01*
X0058265Y0184354D01*
X0058446Y0184393D01*
X0058625Y0184437D01*
X0058803Y0184485D01*
X0058980Y0184537D01*
X0059156Y0184594D01*
X0059330Y0184654D01*
X0059502Y0184720D01*
X0059673Y0184789D01*
X0059843Y0184862D01*
X0060010Y0184940D01*
X0060175Y0185022D01*
X0060339Y0185107D01*
X0060500Y0185197D01*
X0060659Y0185291D01*
X0060816Y0185388D01*
X0060970Y0185489D01*
X0061122Y0185594D01*
X0061271Y0185703D01*
X0061417Y0185815D01*
X0061561Y0185931D01*
X0061701Y0186050D01*
X0061839Y0186173D01*
X0061974Y0186299D01*
X0062106Y0186428D01*
X0062234Y0186561D01*
X0062359Y0186696D01*
X0062481Y0186835D01*
X0063168Y0186254D01*
X0063032Y0186098D01*
X0062891Y0185946D01*
X0062747Y0185797D01*
X0062600Y0185652D01*
X0062449Y0185511D01*
X0062295Y0185374D01*
X0062137Y0185240D01*
X0061976Y0185110D01*
X0061812Y0184984D01*
X0061645Y0184862D01*
X0061475Y0184744D01*
X0061302Y0184631D01*
X0061126Y0184522D01*
X0060948Y0184417D01*
X0060767Y0184316D01*
X0060584Y0184220D01*
X0060399Y0184128D01*
X0060211Y0184041D01*
X0060021Y0183959D01*
X0059830Y0183881D01*
X0059636Y0183808D01*
X0059441Y0183740D01*
X0059244Y0183676D01*
X0059046Y0183618D01*
X0058846Y0183564D01*
X0058645Y0183515D01*
X0058443Y0183471D01*
X0058240Y0183432D01*
X0058036Y0183398D01*
X0057831Y0183369D01*
X0057626Y0183345D01*
X0057420Y0183327D01*
X0057213Y0183313D01*
X0057007Y0183304D01*
X0056800Y0183300D01*
X0056800Y0183394D01*
X0057004Y0183398D01*
X0057209Y0183407D01*
X0057413Y0183420D01*
X0057616Y0183439D01*
X0057819Y0183463D01*
X0058022Y0183491D01*
X0058224Y0183525D01*
X0058424Y0183563D01*
X0058624Y0183607D01*
X0058823Y0183655D01*
X0059020Y0183708D01*
X0059217Y0183766D01*
X0059411Y0183829D01*
X0059604Y0183897D01*
X0059796Y0183969D01*
X0059985Y0184046D01*
X0060173Y0184127D01*
X0060358Y0184213D01*
X0060541Y0184304D01*
X0060723Y0184399D01*
X0060901Y0184498D01*
X0061077Y0184602D01*
X0061251Y0184710D01*
X0061422Y0184822D01*
X0061590Y0184939D01*
X0061755Y0185059D01*
X0061918Y0185184D01*
X0062077Y0185312D01*
X0062233Y0185444D01*
X0062385Y0185580D01*
X0062535Y0185720D01*
X0062680Y0185863D01*
X0062823Y0186010D01*
X0062961Y0186161D01*
X0063096Y0186314D01*
X0063025Y0186375D01*
X0062891Y0186223D01*
X0062754Y0186074D01*
X0062613Y0185929D01*
X0062469Y0185788D01*
X0062322Y0185649D01*
X0062171Y0185515D01*
X0062017Y0185384D01*
X0061859Y0185257D01*
X0061699Y0185134D01*
X0061535Y0185015D01*
X0061369Y0184900D01*
X0061200Y0184789D01*
X0061029Y0184682D01*
X0060854Y0184580D01*
X0060678Y0184481D01*
X0060499Y0184387D01*
X0060317Y0184298D01*
X0060134Y0184213D01*
X0059949Y0184132D01*
X0059761Y0184056D01*
X0059572Y0183985D01*
X0059381Y0183918D01*
X0059189Y0183856D01*
X0058995Y0183799D01*
X0058800Y0183746D01*
X0058603Y0183699D01*
X0058406Y0183656D01*
X0058207Y0183618D01*
X0058008Y0183584D01*
X0057808Y0183556D01*
X0057607Y0183533D01*
X0057406Y0183514D01*
X0057204Y0183500D01*
X0057002Y0183492D01*
X0056800Y0183488D01*
X0056800Y0183582D01*
X0057000Y0183586D01*
X0057199Y0183594D01*
X0057399Y0183608D01*
X0057598Y0183626D01*
X0057796Y0183649D01*
X0057994Y0183677D01*
X0058191Y0183710D01*
X0058387Y0183748D01*
X0058583Y0183790D01*
X0058777Y0183837D01*
X0058970Y0183889D01*
X0059161Y0183946D01*
X0059352Y0184007D01*
X0059540Y0184073D01*
X0059727Y0184144D01*
X0059912Y0184219D01*
X0060096Y0184299D01*
X0060277Y0184383D01*
X0060456Y0184471D01*
X0060633Y0184564D01*
X0060808Y0184661D01*
X0060980Y0184763D01*
X0061149Y0184868D01*
X0061317Y0184978D01*
X0061481Y0185092D01*
X0061642Y0185209D01*
X0061801Y0185331D01*
X0061956Y0185456D01*
X0062109Y0185586D01*
X0062258Y0185719D01*
X0062404Y0185855D01*
X0062546Y0185995D01*
X0062685Y0186139D01*
X0062821Y0186286D01*
X0062953Y0186436D01*
X0062881Y0186496D01*
X0062751Y0186348D01*
X0062617Y0186203D01*
X0062479Y0186061D01*
X0062338Y0185923D01*
X0062194Y0185788D01*
X0062047Y0185656D01*
X0061896Y0185529D01*
X0061742Y0185405D01*
X0061586Y0185284D01*
X0061426Y0185168D01*
X0061264Y0185056D01*
X0061099Y0184947D01*
X0060931Y0184843D01*
X0060761Y0184743D01*
X0060588Y0184647D01*
X0060413Y0184555D01*
X0060236Y0184467D01*
X0060057Y0184384D01*
X0059876Y0184306D01*
X0059693Y0184231D01*
X0059508Y0184162D01*
X0059322Y0184097D01*
X0059134Y0184036D01*
X0058944Y0183980D01*
X0058754Y0183929D01*
X0058562Y0183882D01*
X0058369Y0183840D01*
X0058175Y0183803D01*
X0057980Y0183770D01*
X0057784Y0183743D01*
X0057588Y0183720D01*
X0057392Y0183702D01*
X0057195Y0183688D01*
X0056997Y0183680D01*
X0056800Y0183676D01*
X0056800Y0183770D01*
X0056995Y0183774D01*
X0057190Y0183782D01*
X0057385Y0183795D01*
X0057579Y0183813D01*
X0057773Y0183836D01*
X0057966Y0183863D01*
X0058159Y0183895D01*
X0058350Y0183932D01*
X0058541Y0183974D01*
X0058731Y0184020D01*
X0058919Y0184070D01*
X0059106Y0184126D01*
X0059292Y0184186D01*
X0059476Y0184250D01*
X0059659Y0184319D01*
X0059840Y0184392D01*
X0060019Y0184470D01*
X0060196Y0184552D01*
X0060371Y0184639D01*
X0060543Y0184729D01*
X0060714Y0184824D01*
X0060882Y0184923D01*
X0061048Y0185026D01*
X0061211Y0185133D01*
X0061372Y0185244D01*
X0061529Y0185359D01*
X0061684Y0185478D01*
X0061836Y0185601D01*
X0061985Y0185727D01*
X0062131Y0185857D01*
X0062273Y0185990D01*
X0062412Y0186127D01*
X0062548Y0186267D01*
X0062680Y0186411D01*
X0062809Y0186557D01*
X0062737Y0186618D01*
X0062610Y0186473D01*
X0062479Y0186331D01*
X0062345Y0186193D01*
X0062208Y0186058D01*
X0062067Y0185926D01*
X0061923Y0185798D01*
X0061776Y0185673D01*
X0061626Y0185552D01*
X0061473Y0185435D01*
X0061317Y0185321D01*
X0061158Y0185211D01*
X0060997Y0185105D01*
X0060833Y0185004D01*
X0060667Y0184906D01*
X0060499Y0184812D01*
X0060328Y0184722D01*
X0060155Y0184637D01*
X0059980Y0184556D01*
X0059803Y0184479D01*
X0059625Y0184407D01*
X0059444Y0184338D01*
X0059262Y0184275D01*
X0059079Y0184216D01*
X0058894Y0184161D01*
X0058708Y0184111D01*
X0058520Y0184065D01*
X0058332Y0184024D01*
X0058142Y0183988D01*
X0057952Y0183956D01*
X0057761Y0183929D01*
X0057570Y0183907D01*
X0057378Y0183889D01*
X0057185Y0183876D01*
X0056993Y0183868D01*
X0056800Y0183864D01*
X0056800Y0183958D01*
X0056990Y0183962D01*
X0057181Y0183970D01*
X0057371Y0183983D01*
X0057560Y0184000D01*
X0057750Y0184022D01*
X0057938Y0184049D01*
X0058126Y0184080D01*
X0058313Y0184116D01*
X0058499Y0184157D01*
X0058684Y0184202D01*
X0058868Y0184251D01*
X0059051Y0184306D01*
X0059232Y0184364D01*
X0059412Y0184427D01*
X0059590Y0184494D01*
X0059767Y0184566D01*
X0059942Y0184642D01*
X0060114Y0184722D01*
X0060285Y0184806D01*
X0060454Y0184895D01*
X0060620Y0184987D01*
X0060785Y0185084D01*
X0060946Y0185184D01*
X0061106Y0185289D01*
X0061262Y0185397D01*
X0061416Y0185510D01*
X0061567Y0185626D01*
X0061716Y0185745D01*
X0061861Y0185868D01*
X0062003Y0185995D01*
X0062142Y0186125D01*
X0062278Y0186259D01*
X0062411Y0186395D01*
X0062540Y0186535D01*
X0062666Y0186679D01*
X0062594Y0186739D01*
X0062470Y0186598D01*
X0062342Y0186460D01*
X0062211Y0186325D01*
X0062077Y0186193D01*
X0061940Y0186064D01*
X0061799Y0185939D01*
X0061655Y0185817D01*
X0061509Y0185699D01*
X0061360Y0185585D01*
X0061208Y0185474D01*
X0061053Y0185367D01*
X0060896Y0185264D01*
X0060736Y0185164D01*
X0060574Y0185069D01*
X0060409Y0184977D01*
X0060243Y0184890D01*
X0060074Y0184807D01*
X0059903Y0184727D01*
X0059731Y0184652D01*
X0059556Y0184582D01*
X0059380Y0184515D01*
X0059203Y0184453D01*
X0059023Y0184395D01*
X0058843Y0184342D01*
X0058661Y0184293D01*
X0058479Y0184249D01*
X0058295Y0184209D01*
X0058110Y0184173D01*
X0057924Y0184142D01*
X0057738Y0184116D01*
X0057551Y0184094D01*
X0057364Y0184077D01*
X0057176Y0184064D01*
X0056988Y0184056D01*
X0056800Y0184052D01*
X0056800Y0184146D01*
X0056986Y0184150D01*
X0057171Y0184158D01*
X0057357Y0184170D01*
X0057542Y0184187D01*
X0057726Y0184209D01*
X0057910Y0184235D01*
X0058094Y0184266D01*
X0058276Y0184301D01*
X0058458Y0184340D01*
X0058638Y0184384D01*
X0058818Y0184433D01*
X0058996Y0184485D01*
X0059173Y0184542D01*
X0059348Y0184604D01*
X0059522Y0184669D01*
X0059694Y0184739D01*
X0059865Y0184813D01*
X0060033Y0184891D01*
X0060200Y0184974D01*
X0060364Y0185060D01*
X0060527Y0185150D01*
X0060687Y0185245D01*
X0060845Y0185343D01*
X0061000Y0185445D01*
X0061153Y0185550D01*
X0061303Y0185660D01*
X0061451Y0185773D01*
X0061595Y0185890D01*
X0061737Y0186010D01*
X0061876Y0186133D01*
X0062012Y0186260D01*
X0062144Y0186390D01*
X0062273Y0186524D01*
X0062400Y0186660D01*
X0062522Y0186800D01*
X0063209Y0197198D02*
X0062517Y0196621D01*
X0062518Y0196622D02*
X0062399Y0196759D01*
X0062278Y0196893D01*
X0062153Y0197024D01*
X0062025Y0197152D01*
X0061894Y0197276D01*
X0061760Y0197398D01*
X0061623Y0197517D01*
X0061484Y0197632D01*
X0061341Y0197743D01*
X0061196Y0197852D01*
X0061049Y0197957D01*
X0060899Y0198058D01*
X0060747Y0198155D01*
X0060592Y0198249D01*
X0060435Y0198340D01*
X0060276Y0198426D01*
X0060115Y0198509D01*
X0059952Y0198587D01*
X0059787Y0198662D01*
X0059621Y0198733D01*
X0059453Y0198800D01*
X0059283Y0198862D01*
X0059112Y0198921D01*
X0058939Y0198976D01*
X0058766Y0199026D01*
X0058591Y0199072D01*
X0058415Y0199114D01*
X0058238Y0199152D01*
X0058060Y0199185D01*
X0057881Y0199215D01*
X0057702Y0199240D01*
X0057522Y0199260D01*
X0057342Y0199277D01*
X0057162Y0199289D01*
X0056981Y0199296D01*
X0056800Y0199300D01*
X0056799Y0200199D01*
X0056800Y0200200D01*
X0057003Y0200196D01*
X0057205Y0200188D01*
X0057408Y0200174D01*
X0057610Y0200156D01*
X0057811Y0200133D01*
X0058012Y0200105D01*
X0058212Y0200072D01*
X0058412Y0200035D01*
X0058610Y0199993D01*
X0058808Y0199946D01*
X0059004Y0199894D01*
X0059198Y0199837D01*
X0059392Y0199776D01*
X0059584Y0199711D01*
X0059774Y0199640D01*
X0059963Y0199565D01*
X0060149Y0199486D01*
X0060334Y0199402D01*
X0060517Y0199314D01*
X0060697Y0199221D01*
X0060875Y0199125D01*
X0061051Y0199023D01*
X0061224Y0198918D01*
X0061395Y0198809D01*
X0061563Y0198695D01*
X0061729Y0198578D01*
X0061891Y0198456D01*
X0062051Y0198331D01*
X0062207Y0198202D01*
X0062360Y0198069D01*
X0062510Y0197932D01*
X0062657Y0197792D01*
X0062800Y0197649D01*
X0062940Y0197502D01*
X0063077Y0197352D01*
X0063209Y0197198D01*
X0063137Y0197138D01*
X0063006Y0197290D01*
X0062871Y0197438D01*
X0062733Y0197583D01*
X0062591Y0197725D01*
X0062446Y0197864D01*
X0062298Y0197999D01*
X0062146Y0198130D01*
X0061991Y0198258D01*
X0061834Y0198382D01*
X0061673Y0198502D01*
X0061510Y0198618D01*
X0061343Y0198730D01*
X0061175Y0198838D01*
X0061003Y0198943D01*
X0060829Y0199043D01*
X0060653Y0199138D01*
X0060475Y0199230D01*
X0060294Y0199317D01*
X0060111Y0199400D01*
X0059927Y0199479D01*
X0059741Y0199553D01*
X0059552Y0199622D01*
X0059363Y0199687D01*
X0059171Y0199747D01*
X0058979Y0199803D01*
X0058785Y0199854D01*
X0058590Y0199901D01*
X0058394Y0199943D01*
X0058197Y0199980D01*
X0057999Y0200012D01*
X0057800Y0200040D01*
X0057601Y0200063D01*
X0057401Y0200081D01*
X0057201Y0200094D01*
X0057000Y0200102D01*
X0056800Y0200106D01*
X0056800Y0200012D01*
X0056998Y0200008D01*
X0057196Y0200000D01*
X0057394Y0199987D01*
X0057592Y0199969D01*
X0057789Y0199946D01*
X0057985Y0199919D01*
X0058181Y0199887D01*
X0058375Y0199851D01*
X0058569Y0199809D01*
X0058762Y0199763D01*
X0058954Y0199713D01*
X0059144Y0199657D01*
X0059333Y0199598D01*
X0059521Y0199533D01*
X0059707Y0199465D01*
X0059891Y0199392D01*
X0060074Y0199314D01*
X0060254Y0199232D01*
X0060433Y0199146D01*
X0060609Y0199055D01*
X0060783Y0198961D01*
X0060955Y0198862D01*
X0061125Y0198759D01*
X0061292Y0198652D01*
X0061456Y0198541D01*
X0061617Y0198426D01*
X0061776Y0198307D01*
X0061932Y0198185D01*
X0062085Y0198059D01*
X0062235Y0197929D01*
X0062382Y0197795D01*
X0062525Y0197658D01*
X0062665Y0197518D01*
X0062802Y0197375D01*
X0062935Y0197228D01*
X0063065Y0197078D01*
X0062993Y0197018D01*
X0062864Y0197166D01*
X0062733Y0197311D01*
X0062598Y0197453D01*
X0062459Y0197591D01*
X0062317Y0197727D01*
X0062172Y0197859D01*
X0062024Y0197987D01*
X0061873Y0198112D01*
X0061719Y0198233D01*
X0061562Y0198350D01*
X0061402Y0198464D01*
X0061240Y0198573D01*
X0061075Y0198679D01*
X0060907Y0198781D01*
X0060737Y0198879D01*
X0060565Y0198972D01*
X0060391Y0199062D01*
X0060214Y0199147D01*
X0060036Y0199228D01*
X0059856Y0199305D01*
X0059673Y0199377D01*
X0059490Y0199445D01*
X0059304Y0199508D01*
X0059117Y0199567D01*
X0058929Y0199622D01*
X0058740Y0199672D01*
X0058549Y0199717D01*
X0058357Y0199758D01*
X0058165Y0199795D01*
X0057971Y0199826D01*
X0057777Y0199853D01*
X0057582Y0199875D01*
X0057387Y0199893D01*
X0057192Y0199906D01*
X0056996Y0199914D01*
X0056800Y0199918D01*
X0056800Y0199824D01*
X0056994Y0199820D01*
X0057187Y0199812D01*
X0057380Y0199799D01*
X0057573Y0199782D01*
X0057766Y0199760D01*
X0057958Y0199733D01*
X0058149Y0199702D01*
X0058339Y0199666D01*
X0058529Y0199626D01*
X0058717Y0199581D01*
X0058904Y0199531D01*
X0059090Y0199477D01*
X0059275Y0199419D01*
X0059458Y0199356D01*
X0059640Y0199289D01*
X0059820Y0199218D01*
X0059998Y0199142D01*
X0060175Y0199062D01*
X0060349Y0198978D01*
X0060521Y0198889D01*
X0060691Y0198797D01*
X0060859Y0198700D01*
X0061025Y0198599D01*
X0061188Y0198495D01*
X0061348Y0198387D01*
X0061506Y0198274D01*
X0061661Y0198158D01*
X0061814Y0198039D01*
X0061963Y0197915D01*
X0062110Y0197789D01*
X0062253Y0197658D01*
X0062393Y0197525D01*
X0062530Y0197388D01*
X0062663Y0197247D01*
X0062794Y0197104D01*
X0062920Y0196957D01*
X0062848Y0196897D01*
X0062723Y0197042D01*
X0062594Y0197184D01*
X0062462Y0197322D01*
X0062327Y0197458D01*
X0062188Y0197590D01*
X0062047Y0197719D01*
X0061902Y0197844D01*
X0061755Y0197966D01*
X0061604Y0198084D01*
X0061451Y0198199D01*
X0061295Y0198309D01*
X0061136Y0198417D01*
X0060975Y0198520D01*
X0060811Y0198619D01*
X0060645Y0198715D01*
X0060477Y0198806D01*
X0060307Y0198893D01*
X0060135Y0198977D01*
X0059960Y0199056D01*
X0059784Y0199131D01*
X0059606Y0199201D01*
X0059427Y0199268D01*
X0059246Y0199330D01*
X0059063Y0199387D01*
X0058879Y0199441D01*
X0058694Y0199490D01*
X0058508Y0199534D01*
X0058321Y0199574D01*
X0058133Y0199609D01*
X0057944Y0199640D01*
X0057754Y0199667D01*
X0057564Y0199688D01*
X0057374Y0199706D01*
X0057183Y0199718D01*
X0056991Y0199726D01*
X0056800Y0199730D01*
X0056800Y0199636D01*
X0056989Y0199632D01*
X0057178Y0199624D01*
X0057367Y0199612D01*
X0057555Y0199595D01*
X0057743Y0199573D01*
X0057930Y0199547D01*
X0058117Y0199517D01*
X0058303Y0199482D01*
X0058488Y0199442D01*
X0058672Y0199398D01*
X0058854Y0199350D01*
X0059036Y0199297D01*
X0059216Y0199240D01*
X0059395Y0199179D01*
X0059573Y0199113D01*
X0059749Y0199044D01*
X0059923Y0198970D01*
X0060095Y0198892D01*
X0060265Y0198809D01*
X0060433Y0198723D01*
X0060599Y0198633D01*
X0060763Y0198538D01*
X0060925Y0198440D01*
X0061084Y0198338D01*
X0061241Y0198232D01*
X0061395Y0198123D01*
X0061547Y0198009D01*
X0061695Y0197893D01*
X0061841Y0197772D01*
X0061984Y0197649D01*
X0062124Y0197521D01*
X0062261Y0197391D01*
X0062395Y0197257D01*
X0062525Y0197120D01*
X0062652Y0196980D01*
X0062776Y0196837D01*
X0062704Y0196777D01*
X0062581Y0196918D01*
X0062456Y0197056D01*
X0062327Y0197192D01*
X0062195Y0197324D01*
X0062060Y0197453D01*
X0061921Y0197578D01*
X0061780Y0197701D01*
X0061636Y0197820D01*
X0061489Y0197935D01*
X0061340Y0198047D01*
X0061187Y0198155D01*
X0061032Y0198260D01*
X0060875Y0198360D01*
X0060715Y0198457D01*
X0060554Y0198551D01*
X0060389Y0198640D01*
X0060223Y0198725D01*
X0060055Y0198806D01*
X0059885Y0198884D01*
X0059713Y0198957D01*
X0059539Y0199026D01*
X0059364Y0199090D01*
X0059187Y0199151D01*
X0059009Y0199207D01*
X0058830Y0199259D01*
X0058649Y0199307D01*
X0058467Y0199350D01*
X0058285Y0199389D01*
X0058101Y0199424D01*
X0057917Y0199454D01*
X0057732Y0199480D01*
X0057546Y0199501D01*
X0057360Y0199518D01*
X0057173Y0199530D01*
X0056987Y0199538D01*
X0056800Y0199542D01*
X0056800Y0199448D01*
X0056984Y0199444D01*
X0057169Y0199437D01*
X0057353Y0199424D01*
X0057537Y0199408D01*
X0057720Y0199387D01*
X0057903Y0199361D01*
X0058085Y0199331D01*
X0058266Y0199297D01*
X0058447Y0199259D01*
X0058626Y0199216D01*
X0058805Y0199169D01*
X0058982Y0199117D01*
X0059158Y0199062D01*
X0059333Y0199002D01*
X0059506Y0198938D01*
X0059677Y0198870D01*
X0059847Y0198798D01*
X0060015Y0198721D01*
X0060181Y0198641D01*
X0060345Y0198557D01*
X0060508Y0198469D01*
X0060668Y0198377D01*
X0060825Y0198281D01*
X0060981Y0198181D01*
X0061134Y0198078D01*
X0061284Y0197971D01*
X0061432Y0197861D01*
X0061577Y0197747D01*
X0061719Y0197629D01*
X0061859Y0197508D01*
X0061995Y0197384D01*
X0062129Y0197257D01*
X0062259Y0197126D01*
X0062387Y0196993D01*
X0062511Y0196856D01*
X0062631Y0196717D01*
X0062559Y0196656D01*
X0062440Y0196794D01*
X0062317Y0196929D01*
X0062192Y0197061D01*
X0062063Y0197190D01*
X0061931Y0197316D01*
X0061796Y0197438D01*
X0061658Y0197558D01*
X0061518Y0197674D01*
X0061374Y0197786D01*
X0061228Y0197895D01*
X0061080Y0198001D01*
X0060929Y0198103D01*
X0060775Y0198201D01*
X0060620Y0198296D01*
X0060462Y0198387D01*
X0060301Y0198474D01*
X0060139Y0198557D01*
X0059975Y0198636D01*
X0059809Y0198711D01*
X0059641Y0198783D01*
X0059472Y0198850D01*
X0059301Y0198913D01*
X0059129Y0198972D01*
X0058955Y0199027D01*
X0058780Y0199078D01*
X0058604Y0199125D01*
X0058426Y0199167D01*
X0058248Y0199205D01*
X0058069Y0199239D01*
X0057889Y0199268D01*
X0057709Y0199293D01*
X0057528Y0199314D01*
X0057346Y0199331D01*
X0057164Y0199343D01*
X0056982Y0199350D01*
X0056800Y0199354D01*
M02*
