%
M48
M72
T01C0.03200
T02C0.04000
T03C0.12598
%
T01
X55248Y40500
X63248Y40500
X56748Y160250
X56748Y168250
X53000Y179250
X51750Y191750
X61750Y191750
X77998Y168250
X77998Y160250
X83000Y179250
T02
X19250Y24252
X29250Y24252
X39250Y24252
X39250Y48002
X29250Y48002
X19250Y48002
X19250Y71752
X29250Y71752
X39250Y71752
X39250Y95502
X29250Y95502
X19250Y95502
X19250Y131752
X29250Y131752
X39250Y131752
X39250Y155502
X29250Y155502
X19250Y155502
X19250Y179252
X29250Y179252
X39250Y179252
X39250Y203002
X29250Y203002
X19250Y203002
X61537Y133569
X61537Y123569
X61537Y113569
X61537Y103569
X61537Y93569
X71537Y93569
X71537Y103569
X71537Y113569
X71537Y123569
X71537Y133569
X74250Y65500
X74250Y55500
T03
X66868Y23167
X66868Y208994
M30
