G75*
%MOIN*%
%OFA0B0*%
%FSLAX25Y25*%
%IPPOS*%
%LPD*%
%AMOC8*
5,1,8,0,0,1.08239X$1,22.5*
%
%ADD10C,0.00000*%
%ADD11C,0.01000*%
%ADD12R,0.07400X0.07400*%
%ADD13C,0.07400*%
%ADD14OC8,0.05200*%
%ADD15C,0.05200*%
%ADD16C,0.04000*%
D10*
X0060569Y0023167D02*
X0060571Y0023325D01*
X0060577Y0023483D01*
X0060587Y0023641D01*
X0060601Y0023799D01*
X0060619Y0023956D01*
X0060640Y0024113D01*
X0060666Y0024269D01*
X0060696Y0024425D01*
X0060729Y0024580D01*
X0060767Y0024733D01*
X0060808Y0024886D01*
X0060853Y0025038D01*
X0060902Y0025189D01*
X0060955Y0025338D01*
X0061011Y0025486D01*
X0061071Y0025632D01*
X0061135Y0025777D01*
X0061203Y0025920D01*
X0061274Y0026062D01*
X0061348Y0026202D01*
X0061426Y0026339D01*
X0061508Y0026475D01*
X0061592Y0026609D01*
X0061681Y0026740D01*
X0061772Y0026869D01*
X0061867Y0026996D01*
X0061964Y0027121D01*
X0062065Y0027243D01*
X0062169Y0027362D01*
X0062276Y0027479D01*
X0062386Y0027593D01*
X0062499Y0027704D01*
X0062614Y0027813D01*
X0062732Y0027918D01*
X0062853Y0028020D01*
X0062976Y0028120D01*
X0063102Y0028216D01*
X0063230Y0028309D01*
X0063360Y0028399D01*
X0063493Y0028485D01*
X0063628Y0028569D01*
X0063764Y0028648D01*
X0063903Y0028725D01*
X0064044Y0028797D01*
X0064186Y0028867D01*
X0064330Y0028932D01*
X0064476Y0028994D01*
X0064623Y0029052D01*
X0064772Y0029107D01*
X0064922Y0029158D01*
X0065073Y0029205D01*
X0065225Y0029248D01*
X0065378Y0029287D01*
X0065533Y0029323D01*
X0065688Y0029354D01*
X0065844Y0029382D01*
X0066000Y0029406D01*
X0066157Y0029426D01*
X0066315Y0029442D01*
X0066472Y0029454D01*
X0066631Y0029462D01*
X0066789Y0029466D01*
X0066947Y0029466D01*
X0067105Y0029462D01*
X0067264Y0029454D01*
X0067421Y0029442D01*
X0067579Y0029426D01*
X0067736Y0029406D01*
X0067892Y0029382D01*
X0068048Y0029354D01*
X0068203Y0029323D01*
X0068358Y0029287D01*
X0068511Y0029248D01*
X0068663Y0029205D01*
X0068814Y0029158D01*
X0068964Y0029107D01*
X0069113Y0029052D01*
X0069260Y0028994D01*
X0069406Y0028932D01*
X0069550Y0028867D01*
X0069692Y0028797D01*
X0069833Y0028725D01*
X0069972Y0028648D01*
X0070108Y0028569D01*
X0070243Y0028485D01*
X0070376Y0028399D01*
X0070506Y0028309D01*
X0070634Y0028216D01*
X0070760Y0028120D01*
X0070883Y0028020D01*
X0071004Y0027918D01*
X0071122Y0027813D01*
X0071237Y0027704D01*
X0071350Y0027593D01*
X0071460Y0027479D01*
X0071567Y0027362D01*
X0071671Y0027243D01*
X0071772Y0027121D01*
X0071869Y0026996D01*
X0071964Y0026869D01*
X0072055Y0026740D01*
X0072144Y0026609D01*
X0072228Y0026475D01*
X0072310Y0026339D01*
X0072388Y0026202D01*
X0072462Y0026062D01*
X0072533Y0025920D01*
X0072601Y0025777D01*
X0072665Y0025632D01*
X0072725Y0025486D01*
X0072781Y0025338D01*
X0072834Y0025189D01*
X0072883Y0025038D01*
X0072928Y0024886D01*
X0072969Y0024733D01*
X0073007Y0024580D01*
X0073040Y0024425D01*
X0073070Y0024269D01*
X0073096Y0024113D01*
X0073117Y0023956D01*
X0073135Y0023799D01*
X0073149Y0023641D01*
X0073159Y0023483D01*
X0073165Y0023325D01*
X0073167Y0023167D01*
X0073165Y0023009D01*
X0073159Y0022851D01*
X0073149Y0022693D01*
X0073135Y0022535D01*
X0073117Y0022378D01*
X0073096Y0022221D01*
X0073070Y0022065D01*
X0073040Y0021909D01*
X0073007Y0021754D01*
X0072969Y0021601D01*
X0072928Y0021448D01*
X0072883Y0021296D01*
X0072834Y0021145D01*
X0072781Y0020996D01*
X0072725Y0020848D01*
X0072665Y0020702D01*
X0072601Y0020557D01*
X0072533Y0020414D01*
X0072462Y0020272D01*
X0072388Y0020132D01*
X0072310Y0019995D01*
X0072228Y0019859D01*
X0072144Y0019725D01*
X0072055Y0019594D01*
X0071964Y0019465D01*
X0071869Y0019338D01*
X0071772Y0019213D01*
X0071671Y0019091D01*
X0071567Y0018972D01*
X0071460Y0018855D01*
X0071350Y0018741D01*
X0071237Y0018630D01*
X0071122Y0018521D01*
X0071004Y0018416D01*
X0070883Y0018314D01*
X0070760Y0018214D01*
X0070634Y0018118D01*
X0070506Y0018025D01*
X0070376Y0017935D01*
X0070243Y0017849D01*
X0070108Y0017765D01*
X0069972Y0017686D01*
X0069833Y0017609D01*
X0069692Y0017537D01*
X0069550Y0017467D01*
X0069406Y0017402D01*
X0069260Y0017340D01*
X0069113Y0017282D01*
X0068964Y0017227D01*
X0068814Y0017176D01*
X0068663Y0017129D01*
X0068511Y0017086D01*
X0068358Y0017047D01*
X0068203Y0017011D01*
X0068048Y0016980D01*
X0067892Y0016952D01*
X0067736Y0016928D01*
X0067579Y0016908D01*
X0067421Y0016892D01*
X0067264Y0016880D01*
X0067105Y0016872D01*
X0066947Y0016868D01*
X0066789Y0016868D01*
X0066631Y0016872D01*
X0066472Y0016880D01*
X0066315Y0016892D01*
X0066157Y0016908D01*
X0066000Y0016928D01*
X0065844Y0016952D01*
X0065688Y0016980D01*
X0065533Y0017011D01*
X0065378Y0017047D01*
X0065225Y0017086D01*
X0065073Y0017129D01*
X0064922Y0017176D01*
X0064772Y0017227D01*
X0064623Y0017282D01*
X0064476Y0017340D01*
X0064330Y0017402D01*
X0064186Y0017467D01*
X0064044Y0017537D01*
X0063903Y0017609D01*
X0063764Y0017686D01*
X0063628Y0017765D01*
X0063493Y0017849D01*
X0063360Y0017935D01*
X0063230Y0018025D01*
X0063102Y0018118D01*
X0062976Y0018214D01*
X0062853Y0018314D01*
X0062732Y0018416D01*
X0062614Y0018521D01*
X0062499Y0018630D01*
X0062386Y0018741D01*
X0062276Y0018855D01*
X0062169Y0018972D01*
X0062065Y0019091D01*
X0061964Y0019213D01*
X0061867Y0019338D01*
X0061772Y0019465D01*
X0061681Y0019594D01*
X0061592Y0019725D01*
X0061508Y0019859D01*
X0061426Y0019995D01*
X0061348Y0020132D01*
X0061274Y0020272D01*
X0061203Y0020414D01*
X0061135Y0020557D01*
X0061071Y0020702D01*
X0061011Y0020848D01*
X0060955Y0020996D01*
X0060902Y0021145D01*
X0060853Y0021296D01*
X0060808Y0021448D01*
X0060767Y0021601D01*
X0060729Y0021754D01*
X0060696Y0021909D01*
X0060666Y0022065D01*
X0060640Y0022221D01*
X0060619Y0022378D01*
X0060601Y0022535D01*
X0060587Y0022693D01*
X0060577Y0022851D01*
X0060571Y0023009D01*
X0060569Y0023167D01*
X0060569Y0208994D02*
X0060571Y0209152D01*
X0060577Y0209310D01*
X0060587Y0209468D01*
X0060601Y0209626D01*
X0060619Y0209783D01*
X0060640Y0209940D01*
X0060666Y0210096D01*
X0060696Y0210252D01*
X0060729Y0210407D01*
X0060767Y0210560D01*
X0060808Y0210713D01*
X0060853Y0210865D01*
X0060902Y0211016D01*
X0060955Y0211165D01*
X0061011Y0211313D01*
X0061071Y0211459D01*
X0061135Y0211604D01*
X0061203Y0211747D01*
X0061274Y0211889D01*
X0061348Y0212029D01*
X0061426Y0212166D01*
X0061508Y0212302D01*
X0061592Y0212436D01*
X0061681Y0212567D01*
X0061772Y0212696D01*
X0061867Y0212823D01*
X0061964Y0212948D01*
X0062065Y0213070D01*
X0062169Y0213189D01*
X0062276Y0213306D01*
X0062386Y0213420D01*
X0062499Y0213531D01*
X0062614Y0213640D01*
X0062732Y0213745D01*
X0062853Y0213847D01*
X0062976Y0213947D01*
X0063102Y0214043D01*
X0063230Y0214136D01*
X0063360Y0214226D01*
X0063493Y0214312D01*
X0063628Y0214396D01*
X0063764Y0214475D01*
X0063903Y0214552D01*
X0064044Y0214624D01*
X0064186Y0214694D01*
X0064330Y0214759D01*
X0064476Y0214821D01*
X0064623Y0214879D01*
X0064772Y0214934D01*
X0064922Y0214985D01*
X0065073Y0215032D01*
X0065225Y0215075D01*
X0065378Y0215114D01*
X0065533Y0215150D01*
X0065688Y0215181D01*
X0065844Y0215209D01*
X0066000Y0215233D01*
X0066157Y0215253D01*
X0066315Y0215269D01*
X0066472Y0215281D01*
X0066631Y0215289D01*
X0066789Y0215293D01*
X0066947Y0215293D01*
X0067105Y0215289D01*
X0067264Y0215281D01*
X0067421Y0215269D01*
X0067579Y0215253D01*
X0067736Y0215233D01*
X0067892Y0215209D01*
X0068048Y0215181D01*
X0068203Y0215150D01*
X0068358Y0215114D01*
X0068511Y0215075D01*
X0068663Y0215032D01*
X0068814Y0214985D01*
X0068964Y0214934D01*
X0069113Y0214879D01*
X0069260Y0214821D01*
X0069406Y0214759D01*
X0069550Y0214694D01*
X0069692Y0214624D01*
X0069833Y0214552D01*
X0069972Y0214475D01*
X0070108Y0214396D01*
X0070243Y0214312D01*
X0070376Y0214226D01*
X0070506Y0214136D01*
X0070634Y0214043D01*
X0070760Y0213947D01*
X0070883Y0213847D01*
X0071004Y0213745D01*
X0071122Y0213640D01*
X0071237Y0213531D01*
X0071350Y0213420D01*
X0071460Y0213306D01*
X0071567Y0213189D01*
X0071671Y0213070D01*
X0071772Y0212948D01*
X0071869Y0212823D01*
X0071964Y0212696D01*
X0072055Y0212567D01*
X0072144Y0212436D01*
X0072228Y0212302D01*
X0072310Y0212166D01*
X0072388Y0212029D01*
X0072462Y0211889D01*
X0072533Y0211747D01*
X0072601Y0211604D01*
X0072665Y0211459D01*
X0072725Y0211313D01*
X0072781Y0211165D01*
X0072834Y0211016D01*
X0072883Y0210865D01*
X0072928Y0210713D01*
X0072969Y0210560D01*
X0073007Y0210407D01*
X0073040Y0210252D01*
X0073070Y0210096D01*
X0073096Y0209940D01*
X0073117Y0209783D01*
X0073135Y0209626D01*
X0073149Y0209468D01*
X0073159Y0209310D01*
X0073165Y0209152D01*
X0073167Y0208994D01*
X0073165Y0208836D01*
X0073159Y0208678D01*
X0073149Y0208520D01*
X0073135Y0208362D01*
X0073117Y0208205D01*
X0073096Y0208048D01*
X0073070Y0207892D01*
X0073040Y0207736D01*
X0073007Y0207581D01*
X0072969Y0207428D01*
X0072928Y0207275D01*
X0072883Y0207123D01*
X0072834Y0206972D01*
X0072781Y0206823D01*
X0072725Y0206675D01*
X0072665Y0206529D01*
X0072601Y0206384D01*
X0072533Y0206241D01*
X0072462Y0206099D01*
X0072388Y0205959D01*
X0072310Y0205822D01*
X0072228Y0205686D01*
X0072144Y0205552D01*
X0072055Y0205421D01*
X0071964Y0205292D01*
X0071869Y0205165D01*
X0071772Y0205040D01*
X0071671Y0204918D01*
X0071567Y0204799D01*
X0071460Y0204682D01*
X0071350Y0204568D01*
X0071237Y0204457D01*
X0071122Y0204348D01*
X0071004Y0204243D01*
X0070883Y0204141D01*
X0070760Y0204041D01*
X0070634Y0203945D01*
X0070506Y0203852D01*
X0070376Y0203762D01*
X0070243Y0203676D01*
X0070108Y0203592D01*
X0069972Y0203513D01*
X0069833Y0203436D01*
X0069692Y0203364D01*
X0069550Y0203294D01*
X0069406Y0203229D01*
X0069260Y0203167D01*
X0069113Y0203109D01*
X0068964Y0203054D01*
X0068814Y0203003D01*
X0068663Y0202956D01*
X0068511Y0202913D01*
X0068358Y0202874D01*
X0068203Y0202838D01*
X0068048Y0202807D01*
X0067892Y0202779D01*
X0067736Y0202755D01*
X0067579Y0202735D01*
X0067421Y0202719D01*
X0067264Y0202707D01*
X0067105Y0202699D01*
X0066947Y0202695D01*
X0066789Y0202695D01*
X0066631Y0202699D01*
X0066472Y0202707D01*
X0066315Y0202719D01*
X0066157Y0202735D01*
X0066000Y0202755D01*
X0065844Y0202779D01*
X0065688Y0202807D01*
X0065533Y0202838D01*
X0065378Y0202874D01*
X0065225Y0202913D01*
X0065073Y0202956D01*
X0064922Y0203003D01*
X0064772Y0203054D01*
X0064623Y0203109D01*
X0064476Y0203167D01*
X0064330Y0203229D01*
X0064186Y0203294D01*
X0064044Y0203364D01*
X0063903Y0203436D01*
X0063764Y0203513D01*
X0063628Y0203592D01*
X0063493Y0203676D01*
X0063360Y0203762D01*
X0063230Y0203852D01*
X0063102Y0203945D01*
X0062976Y0204041D01*
X0062853Y0204141D01*
X0062732Y0204243D01*
X0062614Y0204348D01*
X0062499Y0204457D01*
X0062386Y0204568D01*
X0062276Y0204682D01*
X0062169Y0204799D01*
X0062065Y0204918D01*
X0061964Y0205040D01*
X0061867Y0205165D01*
X0061772Y0205292D01*
X0061681Y0205421D01*
X0061592Y0205552D01*
X0061508Y0205686D01*
X0061426Y0205822D01*
X0061348Y0205959D01*
X0061274Y0206099D01*
X0061203Y0206241D01*
X0061135Y0206384D01*
X0061071Y0206529D01*
X0061011Y0206675D01*
X0060955Y0206823D01*
X0060902Y0206972D01*
X0060853Y0207123D01*
X0060808Y0207275D01*
X0060767Y0207428D01*
X0060729Y0207581D01*
X0060696Y0207736D01*
X0060666Y0207892D01*
X0060640Y0208048D01*
X0060619Y0208205D01*
X0060601Y0208362D01*
X0060587Y0208520D01*
X0060577Y0208678D01*
X0060571Y0208836D01*
X0060569Y0208994D01*
D11*
X0011750Y0212537D02*
X0011750Y0019624D01*
X0011752Y0019434D01*
X0011759Y0019244D01*
X0011771Y0019054D01*
X0011787Y0018864D01*
X0011807Y0018675D01*
X0011833Y0018486D01*
X0011862Y0018298D01*
X0011897Y0018111D01*
X0011936Y0017925D01*
X0011979Y0017740D01*
X0012027Y0017555D01*
X0012079Y0017372D01*
X0012135Y0017191D01*
X0012196Y0017011D01*
X0012262Y0016832D01*
X0012331Y0016655D01*
X0012405Y0016479D01*
X0012483Y0016306D01*
X0012566Y0016134D01*
X0012652Y0015965D01*
X0012742Y0015797D01*
X0012837Y0015632D01*
X0012935Y0015469D01*
X0013038Y0015309D01*
X0013144Y0015151D01*
X0013254Y0014996D01*
X0013367Y0014843D01*
X0013485Y0014693D01*
X0013606Y0014547D01*
X0013730Y0014403D01*
X0013858Y0014262D01*
X0013989Y0014124D01*
X0014124Y0013989D01*
X0014262Y0013858D01*
X0014403Y0013730D01*
X0014547Y0013606D01*
X0014693Y0013485D01*
X0014843Y0013367D01*
X0014996Y0013254D01*
X0015151Y0013144D01*
X0015309Y0013038D01*
X0015469Y0012935D01*
X0015632Y0012837D01*
X0015797Y0012742D01*
X0015965Y0012652D01*
X0016134Y0012566D01*
X0016306Y0012483D01*
X0016479Y0012405D01*
X0016655Y0012331D01*
X0016832Y0012262D01*
X0017011Y0012196D01*
X0017191Y0012135D01*
X0017372Y0012079D01*
X0017555Y0012027D01*
X0017740Y0011979D01*
X0017925Y0011936D01*
X0018111Y0011897D01*
X0018298Y0011862D01*
X0018486Y0011833D01*
X0018675Y0011807D01*
X0018864Y0011787D01*
X0019054Y0011771D01*
X0019244Y0011759D01*
X0019434Y0011752D01*
X0019624Y0011750D01*
X0082990Y0011750D01*
X0083180Y0011752D01*
X0083370Y0011759D01*
X0083560Y0011771D01*
X0083750Y0011787D01*
X0083939Y0011807D01*
X0084128Y0011833D01*
X0084316Y0011862D01*
X0084503Y0011897D01*
X0084689Y0011936D01*
X0084874Y0011979D01*
X0085059Y0012027D01*
X0085242Y0012079D01*
X0085423Y0012135D01*
X0085603Y0012196D01*
X0085782Y0012262D01*
X0085959Y0012331D01*
X0086135Y0012405D01*
X0086308Y0012483D01*
X0086480Y0012566D01*
X0086649Y0012652D01*
X0086817Y0012742D01*
X0086982Y0012837D01*
X0087145Y0012935D01*
X0087305Y0013038D01*
X0087463Y0013144D01*
X0087618Y0013254D01*
X0087771Y0013367D01*
X0087921Y0013485D01*
X0088067Y0013606D01*
X0088211Y0013730D01*
X0088352Y0013858D01*
X0088490Y0013989D01*
X0088625Y0014124D01*
X0088756Y0014262D01*
X0088884Y0014403D01*
X0089008Y0014547D01*
X0089129Y0014693D01*
X0089247Y0014843D01*
X0089360Y0014996D01*
X0089470Y0015151D01*
X0089576Y0015309D01*
X0089679Y0015469D01*
X0089777Y0015632D01*
X0089872Y0015797D01*
X0089962Y0015965D01*
X0090048Y0016134D01*
X0090131Y0016306D01*
X0090209Y0016479D01*
X0090283Y0016655D01*
X0090352Y0016832D01*
X0090418Y0017011D01*
X0090479Y0017191D01*
X0090535Y0017372D01*
X0090587Y0017555D01*
X0090635Y0017740D01*
X0090678Y0017925D01*
X0090717Y0018111D01*
X0090752Y0018298D01*
X0090781Y0018486D01*
X0090807Y0018675D01*
X0090827Y0018864D01*
X0090843Y0019054D01*
X0090855Y0019244D01*
X0090862Y0019434D01*
X0090864Y0019624D01*
X0090864Y0212537D01*
X0090862Y0212727D01*
X0090855Y0212917D01*
X0090843Y0213107D01*
X0090827Y0213297D01*
X0090807Y0213486D01*
X0090781Y0213675D01*
X0090752Y0213863D01*
X0090717Y0214050D01*
X0090678Y0214236D01*
X0090635Y0214421D01*
X0090587Y0214606D01*
X0090535Y0214789D01*
X0090479Y0214970D01*
X0090418Y0215150D01*
X0090352Y0215329D01*
X0090283Y0215506D01*
X0090209Y0215682D01*
X0090131Y0215855D01*
X0090048Y0216027D01*
X0089962Y0216196D01*
X0089872Y0216364D01*
X0089777Y0216529D01*
X0089679Y0216692D01*
X0089576Y0216852D01*
X0089470Y0217010D01*
X0089360Y0217165D01*
X0089247Y0217318D01*
X0089129Y0217468D01*
X0089008Y0217614D01*
X0088884Y0217758D01*
X0088756Y0217899D01*
X0088625Y0218037D01*
X0088490Y0218172D01*
X0088352Y0218303D01*
X0088211Y0218431D01*
X0088067Y0218555D01*
X0087921Y0218676D01*
X0087771Y0218794D01*
X0087618Y0218907D01*
X0087463Y0219017D01*
X0087305Y0219123D01*
X0087145Y0219226D01*
X0086982Y0219324D01*
X0086817Y0219419D01*
X0086649Y0219509D01*
X0086480Y0219595D01*
X0086308Y0219678D01*
X0086135Y0219756D01*
X0085959Y0219830D01*
X0085782Y0219899D01*
X0085603Y0219965D01*
X0085423Y0220026D01*
X0085242Y0220082D01*
X0085059Y0220134D01*
X0084874Y0220182D01*
X0084689Y0220225D01*
X0084503Y0220264D01*
X0084316Y0220299D01*
X0084128Y0220328D01*
X0083939Y0220354D01*
X0083750Y0220374D01*
X0083560Y0220390D01*
X0083370Y0220402D01*
X0083180Y0220409D01*
X0082990Y0220411D01*
X0019624Y0220411D01*
X0019434Y0220409D01*
X0019244Y0220402D01*
X0019054Y0220390D01*
X0018864Y0220374D01*
X0018675Y0220354D01*
X0018486Y0220328D01*
X0018298Y0220299D01*
X0018111Y0220264D01*
X0017925Y0220225D01*
X0017740Y0220182D01*
X0017555Y0220134D01*
X0017372Y0220082D01*
X0017191Y0220026D01*
X0017011Y0219965D01*
X0016832Y0219899D01*
X0016655Y0219830D01*
X0016479Y0219756D01*
X0016306Y0219678D01*
X0016134Y0219595D01*
X0015965Y0219509D01*
X0015797Y0219419D01*
X0015632Y0219324D01*
X0015469Y0219226D01*
X0015309Y0219123D01*
X0015151Y0219017D01*
X0014996Y0218907D01*
X0014843Y0218794D01*
X0014693Y0218676D01*
X0014547Y0218555D01*
X0014403Y0218431D01*
X0014262Y0218303D01*
X0014124Y0218172D01*
X0013989Y0218037D01*
X0013858Y0217899D01*
X0013730Y0217758D01*
X0013606Y0217614D01*
X0013485Y0217468D01*
X0013367Y0217318D01*
X0013254Y0217165D01*
X0013144Y0217010D01*
X0013038Y0216852D01*
X0012935Y0216692D01*
X0012837Y0216529D01*
X0012742Y0216364D01*
X0012652Y0216196D01*
X0012566Y0216027D01*
X0012483Y0215855D01*
X0012405Y0215682D01*
X0012331Y0215506D01*
X0012262Y0215329D01*
X0012196Y0215150D01*
X0012135Y0214970D01*
X0012079Y0214789D01*
X0012027Y0214606D01*
X0011979Y0214421D01*
X0011936Y0214236D01*
X0011897Y0214050D01*
X0011862Y0213863D01*
X0011833Y0213675D01*
X0011807Y0213486D01*
X0011787Y0213297D01*
X0011771Y0213107D01*
X0011759Y0212917D01*
X0011752Y0212727D01*
X0011750Y0212537D01*
D12*
X0019250Y0203002D03*
X0019250Y0179252D03*
X0019250Y0155502D03*
X0019250Y0131752D03*
X0019250Y0095502D03*
X0019250Y0071752D03*
X0019250Y0048002D03*
X0019250Y0024252D03*
X0074250Y0055500D03*
D13*
X0074250Y0065500D03*
X0071537Y0093569D03*
X0071537Y0103569D03*
X0071537Y0113569D03*
X0071537Y0123569D03*
X0071537Y0133569D03*
X0061537Y0133569D03*
X0061537Y0123569D03*
X0061537Y0113569D03*
X0061537Y0103569D03*
X0061537Y0093569D03*
X0039250Y0095502D03*
X0029250Y0095502D03*
X0029250Y0071752D03*
X0039250Y0071752D03*
X0039250Y0048002D03*
X0029250Y0048002D03*
X0029250Y0024252D03*
X0039250Y0024252D03*
X0039250Y0131752D03*
X0029250Y0131752D03*
X0029250Y0155502D03*
X0039250Y0155502D03*
X0039250Y0179252D03*
X0029250Y0179252D03*
X0029250Y0203002D03*
X0039250Y0203002D03*
X0051750Y0191750D03*
X0061750Y0191750D03*
D14*
X0053000Y0179250D03*
X0056748Y0168250D03*
X0077998Y0168250D03*
X0083000Y0179250D03*
X0055248Y0040500D03*
D15*
X0063248Y0040500D03*
X0056748Y0160250D03*
X0077998Y0160250D03*
D16*
X0077998Y0160250D01*
X0072398Y0160250D01*
X0072398Y0160691D01*
X0072536Y0161561D01*
X0072808Y0162400D01*
X0073208Y0163185D01*
X0073727Y0163898D01*
X0074350Y0164521D01*
X0074363Y0164531D01*
X0072798Y0166096D01*
X0072798Y0170404D01*
X0075844Y0173450D01*
X0080152Y0173450D01*
X0083198Y0170404D01*
X0083198Y0166096D01*
X0081633Y0164531D01*
X0081646Y0164521D01*
X0082269Y0163898D01*
X0082788Y0163185D01*
X0083188Y0162400D01*
X0083460Y0161561D01*
X0083598Y0160691D01*
X0083598Y0160250D01*
X0077998Y0160250D01*
X0072398Y0160250D01*
X0072398Y0159809D01*
X0072536Y0158939D01*
X0072808Y0158100D01*
X0073208Y0157315D01*
X0073727Y0156602D01*
X0074350Y0155979D01*
X0075063Y0155460D01*
X0075848Y0155060D01*
X0076687Y0154788D01*
X0077557Y0154650D01*
X0077998Y0154650D01*
X0077998Y0160250D01*
X0077998Y0160250D01*
X0077998Y0160250D01*
X0077998Y0154650D01*
X0078439Y0154650D01*
X0079309Y0154788D01*
X0080148Y0155060D01*
X0080933Y0155460D01*
X0081646Y0155979D01*
X0082269Y0156602D01*
X0082788Y0157315D01*
X0083188Y0158100D01*
X0083460Y0158939D01*
X0083598Y0159809D01*
X0083598Y0160250D01*
X0077998Y0160250D01*
X0077998Y0159695D02*
X0077998Y0159695D01*
X0077998Y0155696D02*
X0077998Y0155696D01*
X0074738Y0155696D02*
X0060008Y0155696D01*
X0059683Y0155460D02*
X0060396Y0155979D01*
X0061019Y0156602D01*
X0061538Y0157315D01*
X0061938Y0158100D01*
X0062210Y0158939D01*
X0062348Y0159809D01*
X0062348Y0160250D01*
X0062348Y0160691D01*
X0062210Y0161561D01*
X0061938Y0162400D01*
X0061538Y0163185D01*
X0061019Y0163898D01*
X0060396Y0164521D01*
X0060383Y0164531D01*
X0061948Y0166096D01*
X0061948Y0170404D01*
X0058902Y0173450D01*
X0054594Y0173450D01*
X0051548Y0170404D01*
X0051548Y0166096D01*
X0053113Y0164531D01*
X0053100Y0164521D01*
X0052477Y0163898D01*
X0051958Y0163185D01*
X0051558Y0162400D01*
X0051286Y0161561D01*
X0051148Y0160691D01*
X0051148Y0160250D01*
X0056748Y0160250D01*
X0056748Y0160250D01*
X0051148Y0160250D01*
X0051148Y0159809D01*
X0051286Y0158939D01*
X0051558Y0158100D01*
X0051958Y0157315D01*
X0052477Y0156602D01*
X0053100Y0155979D01*
X0053813Y0155460D01*
X0054598Y0155060D01*
X0055437Y0154788D01*
X0056307Y0154650D01*
X0056748Y0154650D01*
X0056748Y0160250D01*
X0056748Y0160250D01*
X0062348Y0160250D01*
X0056748Y0160250D01*
X0056748Y0160250D01*
X0056748Y0154650D01*
X0057189Y0154650D01*
X0058059Y0154788D01*
X0058898Y0155060D01*
X0059683Y0155460D01*
X0056748Y0155696D02*
X0056748Y0155696D01*
X0056748Y0159695D02*
X0056748Y0159695D01*
X0053488Y0155696D02*
X0045550Y0155696D01*
X0045550Y0156755D02*
X0045550Y0154249D01*
X0044591Y0151933D01*
X0042819Y0150161D01*
X0040503Y0149202D01*
X0037997Y0149202D01*
X0035681Y0150161D01*
X0034502Y0151340D01*
X0034298Y0151075D01*
X0033677Y0150454D01*
X0032980Y0149919D01*
X0032220Y0149480D01*
X0031408Y0149144D01*
X0030560Y0148917D01*
X0029689Y0148802D01*
X0029250Y0148802D01*
X0029250Y0155502D01*
X0029250Y0155502D01*
X0029250Y0162202D01*
X0029689Y0162202D01*
X0030560Y0162087D01*
X0031408Y0161860D01*
X0032220Y0161524D01*
X0032980Y0161085D01*
X0033677Y0160550D01*
X0034298Y0159929D01*
X0034502Y0159663D01*
X0035681Y0160843D01*
X0037997Y0161802D01*
X0040503Y0161802D01*
X0042819Y0160843D01*
X0044591Y0159071D01*
X0045550Y0156755D01*
X0043967Y0159695D02*
X0051166Y0159695D01*
X0052328Y0163693D02*
X0018250Y0163693D01*
X0018250Y0161802D02*
X0018250Y0172952D01*
X0023467Y0172952D01*
X0024423Y0173348D01*
X0025081Y0174006D01*
X0025520Y0173669D01*
X0026280Y0173230D01*
X0027092Y0172894D01*
X0027940Y0172667D01*
X0028811Y0172552D01*
X0029250Y0172552D01*
X0029689Y0172552D01*
X0030560Y0172667D01*
X0031408Y0172894D01*
X0032220Y0173230D01*
X0032980Y0173669D01*
X0033677Y0174204D01*
X0034298Y0174825D01*
X0034502Y0175090D01*
X0035681Y0173911D01*
X0037997Y0172952D01*
X0040503Y0172952D01*
X0042819Y0173911D01*
X0044591Y0175683D01*
X0045550Y0177999D01*
X0045550Y0180505D01*
X0044591Y0182821D01*
X0042819Y0184593D01*
X0040503Y0185552D01*
X0037997Y0185552D01*
X0035681Y0184593D01*
X0034502Y0183413D01*
X0034298Y0183679D01*
X0033677Y0184300D01*
X0032980Y0184835D01*
X0032220Y0185274D01*
X0031408Y0185610D01*
X0030560Y0185837D01*
X0029689Y0185952D01*
X0029250Y0185952D01*
X0029250Y0179252D01*
X0029250Y0179252D01*
X0029250Y0185952D01*
X0028811Y0185952D01*
X0027940Y0185837D01*
X0027092Y0185610D01*
X0026280Y0185274D01*
X0025520Y0184835D01*
X0025081Y0184498D01*
X0024423Y0185156D01*
X0023467Y0185552D01*
X0018250Y0185552D01*
X0018250Y0196702D01*
X0023467Y0196702D01*
X0024423Y0197098D01*
X0025081Y0197756D01*
X0025520Y0197419D01*
X0026280Y0196980D01*
X0027092Y0196644D01*
X0027940Y0196417D01*
X0028811Y0196302D01*
X0029250Y0196302D01*
X0029689Y0196302D01*
X0030560Y0196417D01*
X0031408Y0196644D01*
X0032220Y0196980D01*
X0032980Y0197419D01*
X0033677Y0197954D01*
X0034298Y0198575D01*
X0034502Y0198840D01*
X0035681Y0197661D01*
X0037997Y0196702D01*
X0040503Y0196702D01*
X0042819Y0197661D01*
X0044591Y0199433D01*
X0045550Y0201749D01*
X0045550Y0204255D01*
X0044591Y0206571D01*
X0042819Y0208343D01*
X0040503Y0209302D01*
X0037997Y0209302D01*
X0035681Y0208343D01*
X0034502Y0207163D01*
X0034298Y0207429D01*
X0033677Y0208050D01*
X0032980Y0208585D01*
X0032220Y0209024D01*
X0031408Y0209360D01*
X0030560Y0209587D01*
X0029689Y0209702D01*
X0029250Y0209702D01*
X0029250Y0203002D01*
X0029250Y0203002D01*
X0029250Y0209702D01*
X0028811Y0209702D01*
X0027940Y0209587D01*
X0027092Y0209360D01*
X0026280Y0209024D01*
X0025520Y0208585D01*
X0025081Y0208248D01*
X0024423Y0208906D01*
X0023467Y0209302D01*
X0018250Y0209302D01*
X0018250Y0212537D01*
X0018262Y0212717D01*
X0018355Y0213063D01*
X0018534Y0213374D01*
X0018788Y0213627D01*
X0019098Y0213807D01*
X0019445Y0213900D01*
X0019624Y0213911D01*
X0055505Y0213911D01*
X0055407Y0213741D01*
X0054569Y0210613D01*
X0054569Y0207375D01*
X0055407Y0204247D01*
X0057026Y0201442D01*
X0059316Y0199152D01*
X0061225Y0198050D01*
X0060497Y0198050D01*
X0058181Y0197091D01*
X0056750Y0195660D01*
X0055319Y0197091D01*
X0053003Y0198050D01*
X0050497Y0198050D01*
X0048181Y0197091D01*
X0046409Y0195319D01*
X0045450Y0193003D01*
X0045450Y0190497D01*
X0046409Y0188181D01*
X0048181Y0186409D01*
X0050497Y0185450D01*
X0053003Y0185450D01*
X0055319Y0186409D01*
X0056750Y0187840D01*
X0058181Y0186409D01*
X0060497Y0185450D01*
X0063003Y0185450D01*
X0065319Y0186409D01*
X0067091Y0188181D01*
X0068050Y0190497D01*
X0068050Y0193003D01*
X0067091Y0195319D01*
X0065715Y0196695D01*
X0068487Y0196695D01*
X0071615Y0197533D01*
X0074420Y0199152D01*
X0076710Y0201442D01*
X0078329Y0204247D01*
X0079167Y0207375D01*
X0079167Y0210613D01*
X0078329Y0213741D01*
X0078231Y0213911D01*
X0082990Y0213911D01*
X0083169Y0213900D01*
X0083516Y0213807D01*
X0083827Y0213627D01*
X0084080Y0213374D01*
X0084260Y0213063D01*
X0084352Y0212717D01*
X0084364Y0212537D01*
X0084364Y0184850D01*
X0083000Y0184850D01*
X0083000Y0179250D01*
X0083000Y0179250D01*
X0083000Y0173650D01*
X0084364Y0173650D01*
X0084364Y0019624D01*
X0084352Y0019445D01*
X0084260Y0019098D01*
X0084080Y0018788D01*
X0083827Y0018534D01*
X0083516Y0018355D01*
X0083169Y0018262D01*
X0082990Y0018250D01*
X0078231Y0018250D01*
X0078329Y0018420D01*
X0079167Y0021548D01*
X0079167Y0024787D01*
X0078329Y0027915D01*
X0076710Y0030719D01*
X0074420Y0033009D01*
X0071615Y0034628D01*
X0068487Y0035467D01*
X0065704Y0035467D01*
X0066183Y0035710D01*
X0066896Y0036229D01*
X0067519Y0036852D01*
X0068038Y0037565D01*
X0068438Y0038350D01*
X0068710Y0039189D01*
X0068848Y0040059D01*
X0068848Y0040500D01*
X0068848Y0040941D01*
X0068710Y0041811D01*
X0068438Y0042650D01*
X0068038Y0043435D01*
X0067519Y0044148D01*
X0066896Y0044771D01*
X0066183Y0045290D01*
X0065398Y0045690D01*
X0064559Y0045962D01*
X0063689Y0046100D01*
X0063248Y0046100D01*
X0062807Y0046100D01*
X0061937Y0045962D01*
X0061098Y0045690D01*
X0060313Y0045290D01*
X0059600Y0044771D01*
X0058977Y0044148D01*
X0058967Y0044135D01*
X0057402Y0045700D01*
X0053094Y0045700D01*
X0050048Y0042654D01*
X0050048Y0038346D01*
X0053094Y0035300D01*
X0057402Y0035300D01*
X0058967Y0036865D01*
X0058977Y0036852D01*
X0059600Y0036229D01*
X0060313Y0035710D01*
X0061098Y0035310D01*
X0061937Y0035038D01*
X0062807Y0034900D01*
X0063135Y0034900D01*
X0062121Y0034628D01*
X0059316Y0033009D01*
X0057026Y0030719D01*
X0055407Y0027915D01*
X0054569Y0024787D01*
X0054569Y0021548D01*
X0055407Y0018420D01*
X0055505Y0018250D01*
X0041223Y0018250D01*
X0042819Y0018911D01*
X0044591Y0020683D01*
X0045550Y0022999D01*
X0045550Y0025505D01*
X0044591Y0027821D01*
X0042819Y0029593D01*
X0040503Y0030552D01*
X0037997Y0030552D01*
X0035681Y0029593D01*
X0034502Y0028413D01*
X0034298Y0028679D01*
X0033677Y0029300D01*
X0032980Y0029835D01*
X0032220Y0030274D01*
X0031408Y0030610D01*
X0030560Y0030837D01*
X0029689Y0030952D01*
X0029250Y0030952D01*
X0029250Y0024252D01*
X0029250Y0024252D01*
X0029250Y0030952D01*
X0028811Y0030952D01*
X0027940Y0030837D01*
X0027092Y0030610D01*
X0026280Y0030274D01*
X0025520Y0029835D01*
X0025081Y0029498D01*
X0024423Y0030156D01*
X0023467Y0030552D01*
X0018250Y0030552D01*
X0018250Y0041702D01*
X0023467Y0041702D01*
X0024423Y0042098D01*
X0025081Y0042756D01*
X0025520Y0042419D01*
X0026280Y0041980D01*
X0027092Y0041644D01*
X0027940Y0041417D01*
X0028811Y0041302D01*
X0029250Y0041302D01*
X0029689Y0041302D01*
X0030560Y0041417D01*
X0031408Y0041644D01*
X0032220Y0041980D01*
X0032980Y0042419D01*
X0033677Y0042954D01*
X0034298Y0043575D01*
X0034502Y0043840D01*
X0035681Y0042661D01*
X0037997Y0041702D01*
X0040503Y0041702D01*
X0042819Y0042661D01*
X0044591Y0044433D01*
X0045550Y0046749D01*
X0045550Y0049255D01*
X0044591Y0051571D01*
X0042819Y0053343D01*
X0040503Y0054302D01*
X0037997Y0054302D01*
X0035681Y0053343D01*
X0034502Y0052163D01*
X0034298Y0052429D01*
X0033677Y0053050D01*
X0032980Y0053585D01*
X0032220Y0054024D01*
X0031408Y0054360D01*
X0030560Y0054587D01*
X0029689Y0054702D01*
X0029250Y0054702D01*
X0029250Y0048002D01*
X0029250Y0048002D01*
X0029250Y0054702D01*
X0028811Y0054702D01*
X0027940Y0054587D01*
X0027092Y0054360D01*
X0026280Y0054024D01*
X0025520Y0053585D01*
X0025081Y0053248D01*
X0024423Y0053906D01*
X0023467Y0054302D01*
X0018250Y0054302D01*
X0018250Y0065452D01*
X0023467Y0065452D01*
X0024423Y0065848D01*
X0025081Y0066506D01*
X0025520Y0066169D01*
X0026280Y0065730D01*
X0027092Y0065394D01*
X0027940Y0065167D01*
X0028811Y0065052D01*
X0029250Y0065052D01*
X0029689Y0065052D01*
X0030560Y0065167D01*
X0031408Y0065394D01*
X0032220Y0065730D01*
X0032980Y0066169D01*
X0033677Y0066704D01*
X0034298Y0067325D01*
X0034502Y0067590D01*
X0035681Y0066411D01*
X0037997Y0065452D01*
X0040503Y0065452D01*
X0042819Y0066411D01*
X0044591Y0068183D01*
X0045550Y0070499D01*
X0045550Y0073005D01*
X0044591Y0075321D01*
X0042819Y0077093D01*
X0040503Y0078052D01*
X0037997Y0078052D01*
X0035681Y0077093D01*
X0034502Y0075913D01*
X0034298Y0076179D01*
X0033677Y0076800D01*
X0032980Y0077335D01*
X0032220Y0077774D01*
X0031408Y0078110D01*
X0030560Y0078337D01*
X0029689Y0078452D01*
X0029250Y0078452D01*
X0029250Y0071752D01*
X0029250Y0071752D01*
X0029250Y0078452D01*
X0028811Y0078452D01*
X0027940Y0078337D01*
X0027092Y0078110D01*
X0026280Y0077774D01*
X0025520Y0077335D01*
X0025081Y0076998D01*
X0024423Y0077656D01*
X0023467Y0078052D01*
X0018250Y0078052D01*
X0018250Y0089202D01*
X0023467Y0089202D01*
X0024423Y0089598D01*
X0025081Y0090256D01*
X0025520Y0089919D01*
X0026280Y0089480D01*
X0027092Y0089144D01*
X0027940Y0088917D01*
X0028811Y0088802D01*
X0029250Y0088802D01*
X0029689Y0088802D01*
X0030560Y0088917D01*
X0031408Y0089144D01*
X0032220Y0089480D01*
X0032980Y0089919D01*
X0033677Y0090454D01*
X0034298Y0091075D01*
X0034502Y0091340D01*
X0035681Y0090161D01*
X0037997Y0089202D01*
X0040503Y0089202D01*
X0042819Y0090161D01*
X0044591Y0091933D01*
X0045550Y0094249D01*
X0045550Y0096755D01*
X0044591Y0099071D01*
X0042819Y0100843D01*
X0040503Y0101802D01*
X0037997Y0101802D01*
X0035681Y0100843D01*
X0034502Y0099663D01*
X0034298Y0099929D01*
X0033677Y0100550D01*
X0032980Y0101085D01*
X0032220Y0101524D01*
X0031408Y0101860D01*
X0030560Y0102087D01*
X0029689Y0102202D01*
X0029250Y0102202D01*
X0029250Y0095502D01*
X0029250Y0095502D01*
X0029250Y0102202D01*
X0028811Y0102202D01*
X0027940Y0102087D01*
X0027092Y0101860D01*
X0026280Y0101524D01*
X0025520Y0101085D01*
X0025081Y0100748D01*
X0024423Y0101406D01*
X0023467Y0101802D01*
X0018250Y0101802D01*
X0018250Y0125452D01*
X0023467Y0125452D01*
X0024423Y0125848D01*
X0025081Y0126506D01*
X0025520Y0126169D01*
X0026280Y0125730D01*
X0027092Y0125394D01*
X0027940Y0125167D01*
X0028811Y0125052D01*
X0029250Y0125052D01*
X0029689Y0125052D01*
X0030560Y0125167D01*
X0031408Y0125394D01*
X0032220Y0125730D01*
X0032980Y0126169D01*
X0033677Y0126704D01*
X0034298Y0127325D01*
X0034502Y0127590D01*
X0035681Y0126411D01*
X0037997Y0125452D01*
X0040503Y0125452D01*
X0042819Y0126411D01*
X0044591Y0128183D01*
X0045550Y0130499D01*
X0045550Y0133005D01*
X0044591Y0135321D01*
X0042819Y0137093D01*
X0040503Y0138052D01*
X0037997Y0138052D01*
X0035681Y0137093D01*
X0034502Y0135913D01*
X0034298Y0136179D01*
X0033677Y0136800D01*
X0032980Y0137335D01*
X0032220Y0137774D01*
X0031408Y0138110D01*
X0030560Y0138337D01*
X0029689Y0138452D01*
X0029250Y0138452D01*
X0029250Y0131752D01*
X0029250Y0131752D01*
X0029250Y0138452D01*
X0028811Y0138452D01*
X0027940Y0138337D01*
X0027092Y0138110D01*
X0026280Y0137774D01*
X0025520Y0137335D01*
X0025081Y0136998D01*
X0024423Y0137656D01*
X0023467Y0138052D01*
X0018250Y0138052D01*
X0018250Y0149202D01*
X0023467Y0149202D01*
X0024423Y0149598D01*
X0025081Y0150256D01*
X0025520Y0149919D01*
X0026280Y0149480D01*
X0027092Y0149144D01*
X0027940Y0148917D01*
X0028811Y0148802D01*
X0029250Y0148802D01*
X0029250Y0155502D01*
X0029250Y0162202D01*
X0028811Y0162202D01*
X0027940Y0162087D01*
X0027092Y0161860D01*
X0026280Y0161524D01*
X0025520Y0161085D01*
X0025081Y0160748D01*
X0024423Y0161406D01*
X0023467Y0161802D01*
X0018250Y0161802D01*
X0018250Y0167692D02*
X0051548Y0167692D01*
X0052835Y0171690D02*
X0018250Y0171690D01*
X0018250Y0187684D02*
X0046906Y0187684D01*
X0045450Y0191683D02*
X0018250Y0191683D01*
X0018250Y0195682D02*
X0046772Y0195682D01*
X0044693Y0199680D02*
X0058788Y0199680D01*
X0056772Y0195682D02*
X0056728Y0195682D01*
X0056594Y0187684D02*
X0056906Y0187684D01*
X0055154Y0184450D02*
X0050846Y0184450D01*
X0047800Y0181404D01*
X0047800Y0177096D01*
X0050846Y0174050D01*
X0055154Y0174050D01*
X0058200Y0177096D01*
X0058200Y0181404D01*
X0055154Y0184450D01*
X0055918Y0183686D02*
X0079516Y0183686D01*
X0080680Y0184850D02*
X0077400Y0181570D01*
X0077400Y0179250D01*
X0083000Y0179250D01*
X0083000Y0179250D01*
X0083000Y0179250D01*
X0083000Y0184850D01*
X0080680Y0184850D01*
X0083000Y0183686D02*
X0083000Y0183686D01*
X0083000Y0179687D02*
X0083000Y0179687D01*
X0083000Y0179250D02*
X0077400Y0179250D01*
X0077400Y0176930D01*
X0080680Y0173650D01*
X0083000Y0173650D01*
X0083000Y0179250D01*
X0083000Y0175689D02*
X0083000Y0175689D01*
X0081911Y0171690D02*
X0084364Y0171690D01*
X0084364Y0167692D02*
X0083198Y0167692D01*
X0082418Y0163693D02*
X0084364Y0163693D01*
X0084364Y0159695D02*
X0083580Y0159695D01*
X0084364Y0155696D02*
X0081258Y0155696D01*
X0084364Y0151698D02*
X0044355Y0151698D01*
X0044208Y0135704D02*
X0055603Y0135704D01*
X0055237Y0134822D02*
X0056197Y0137138D01*
X0057969Y0138910D01*
X0060284Y0139869D01*
X0062791Y0139869D01*
X0065106Y0138910D01*
X0066537Y0137478D01*
X0067969Y0138910D01*
X0070284Y0139869D01*
X0072791Y0139869D01*
X0075106Y0138910D01*
X0076878Y0137138D01*
X0077837Y0134822D01*
X0077837Y0132316D01*
X0076878Y0130000D01*
X0075447Y0128569D01*
X0076878Y0127138D01*
X0077837Y0124822D01*
X0077837Y0122316D01*
X0076878Y0120000D01*
X0075447Y0118569D01*
X0076878Y0117138D01*
X0077837Y0114822D01*
X0077837Y0112316D01*
X0076878Y0110000D01*
X0075447Y0108569D01*
X0076878Y0107138D01*
X0077837Y0104822D01*
X0077837Y0102316D01*
X0076878Y0100000D01*
X0075447Y0098569D01*
X0076878Y0097138D01*
X0077837Y0094822D01*
X0077837Y0092316D01*
X0076878Y0090000D01*
X0075106Y0088228D01*
X0072791Y0087269D01*
X0070284Y0087269D01*
X0067969Y0088228D01*
X0066537Y0089659D01*
X0065106Y0088228D01*
X0062791Y0087269D01*
X0060284Y0087269D01*
X0057969Y0088228D01*
X0056197Y0090000D01*
X0055237Y0092316D01*
X0055237Y0094822D01*
X0056197Y0097138D01*
X0057628Y0098569D01*
X0056197Y0100000D01*
X0055237Y0102316D01*
X0055237Y0104822D01*
X0056197Y0107138D01*
X0057628Y0108569D01*
X0056197Y0110000D01*
X0055237Y0112316D01*
X0055237Y0114822D01*
X0056197Y0117138D01*
X0057628Y0118569D01*
X0056197Y0120000D01*
X0055237Y0122316D01*
X0055237Y0124822D01*
X0056197Y0127138D01*
X0057628Y0128569D01*
X0056197Y0130000D01*
X0055237Y0132316D01*
X0055237Y0134822D01*
X0055490Y0131705D02*
X0045550Y0131705D01*
X0044114Y0127707D02*
X0056766Y0127707D01*
X0055237Y0123708D02*
X0018250Y0123708D01*
X0018250Y0119710D02*
X0056487Y0119710D01*
X0055606Y0115711D02*
X0018250Y0115711D01*
X0018250Y0111713D02*
X0055487Y0111713D01*
X0056773Y0107714D02*
X0018250Y0107714D01*
X0018250Y0103716D02*
X0055237Y0103716D01*
X0056480Y0099717D02*
X0043944Y0099717D01*
X0045550Y0095719D02*
X0055609Y0095719D01*
X0055484Y0091720D02*
X0044378Y0091720D01*
X0044185Y0075726D02*
X0084364Y0075726D01*
X0084364Y0071728D02*
X0076723Y0071728D01*
X0076408Y0071858D02*
X0077220Y0071522D01*
X0077980Y0071083D01*
X0078677Y0070548D01*
X0079298Y0069927D01*
X0079833Y0069230D01*
X0080272Y0068470D01*
X0080608Y0067658D01*
X0080835Y0066810D01*
X0080950Y0065939D01*
X0080950Y0065500D01*
X0074250Y0065500D01*
X0074250Y0065500D01*
X0074250Y0065500D01*
X0074250Y0072200D01*
X0074689Y0072200D01*
X0075560Y0072085D01*
X0076408Y0071858D01*
X0074250Y0071728D02*
X0074250Y0071728D01*
X0074250Y0072200D02*
X0073811Y0072200D01*
X0072940Y0072085D01*
X0072092Y0071858D01*
X0071280Y0071522D01*
X0070520Y0071083D01*
X0069823Y0070548D01*
X0069202Y0069927D01*
X0068667Y0069230D01*
X0068228Y0068470D01*
X0067892Y0067658D01*
X0067665Y0066810D01*
X0067550Y0065939D01*
X0067550Y0065500D01*
X0074250Y0065500D01*
X0080950Y0065500D01*
X0080950Y0065061D01*
X0080835Y0064190D01*
X0080608Y0063342D01*
X0080272Y0062530D01*
X0079833Y0061770D01*
X0079496Y0061331D01*
X0080154Y0060673D01*
X0080550Y0059717D01*
X0080550Y0051283D01*
X0080154Y0050327D01*
X0079423Y0049596D01*
X0078467Y0049200D01*
X0070033Y0049200D01*
X0069077Y0049596D01*
X0068346Y0050327D01*
X0067950Y0051283D01*
X0067950Y0059717D01*
X0068346Y0060673D01*
X0069004Y0061331D01*
X0068667Y0061770D01*
X0068228Y0062530D01*
X0067892Y0063342D01*
X0067665Y0064190D01*
X0067550Y0065061D01*
X0067550Y0065500D01*
X0074250Y0065500D01*
X0074250Y0065500D01*
X0074250Y0072200D01*
X0071777Y0071728D02*
X0045550Y0071728D01*
X0044137Y0067729D02*
X0067921Y0067729D01*
X0067788Y0063731D02*
X0018250Y0063731D01*
X0018250Y0059732D02*
X0067956Y0059732D01*
X0067950Y0055734D02*
X0018250Y0055734D01*
X0018250Y0039740D02*
X0050048Y0039740D01*
X0051132Y0043738D02*
X0043896Y0043738D01*
X0045550Y0047737D02*
X0084364Y0047737D01*
X0084364Y0051735D02*
X0080550Y0051735D01*
X0080550Y0055734D02*
X0084364Y0055734D01*
X0084364Y0059732D02*
X0080544Y0059732D01*
X0080712Y0063731D02*
X0084364Y0063731D01*
X0084364Y0067729D02*
X0080579Y0067729D01*
X0074250Y0067729D02*
X0074250Y0067729D01*
X0067950Y0051735D02*
X0044426Y0051735D01*
X0052653Y0035741D02*
X0018250Y0035741D01*
X0018250Y0031743D02*
X0058050Y0031743D01*
X0057843Y0035741D02*
X0060271Y0035741D01*
X0063248Y0040500D02*
X0063248Y0040500D01*
X0063248Y0046100D01*
X0063248Y0040500D01*
X0063248Y0040500D01*
X0068848Y0040500D01*
X0063248Y0040500D01*
X0063248Y0043738D02*
X0063248Y0043738D01*
X0066225Y0035741D02*
X0084364Y0035741D01*
X0084364Y0031743D02*
X0075687Y0031743D01*
X0078375Y0027744D02*
X0084364Y0027744D01*
X0084364Y0023746D02*
X0079167Y0023746D01*
X0078685Y0019747D02*
X0084364Y0019747D01*
X0084364Y0039740D02*
X0068797Y0039740D01*
X0067817Y0043738D02*
X0084364Y0043738D01*
X0084364Y0079725D02*
X0018250Y0079725D01*
X0018250Y0083723D02*
X0084364Y0083723D01*
X0084364Y0087722D02*
X0073884Y0087722D01*
X0077591Y0091720D02*
X0084364Y0091720D01*
X0084364Y0095719D02*
X0077466Y0095719D01*
X0076595Y0099717D02*
X0084364Y0099717D01*
X0084364Y0103716D02*
X0077837Y0103716D01*
X0076302Y0107714D02*
X0084364Y0107714D01*
X0084364Y0111713D02*
X0077588Y0111713D01*
X0077469Y0115711D02*
X0084364Y0115711D01*
X0084364Y0119710D02*
X0076588Y0119710D01*
X0077837Y0123708D02*
X0084364Y0123708D01*
X0084364Y0127707D02*
X0076309Y0127707D01*
X0077585Y0131705D02*
X0084364Y0131705D01*
X0084364Y0135704D02*
X0077472Y0135704D01*
X0073193Y0139702D02*
X0084364Y0139702D01*
X0084364Y0143701D02*
X0018250Y0143701D01*
X0018250Y0147699D02*
X0084364Y0147699D01*
X0073578Y0163693D02*
X0061168Y0163693D01*
X0061948Y0167692D02*
X0072798Y0167692D01*
X0074085Y0171690D02*
X0060661Y0171690D01*
X0056793Y0175689D02*
X0078641Y0175689D01*
X0077400Y0179687D02*
X0058200Y0179687D01*
X0050082Y0183686D02*
X0043726Y0183686D01*
X0045550Y0179687D02*
X0047800Y0179687D01*
X0049207Y0175689D02*
X0044593Y0175689D01*
X0034774Y0183686D02*
X0034291Y0183686D01*
X0029250Y0183686D02*
X0029250Y0183686D01*
X0029250Y0179687D02*
X0029250Y0179687D01*
X0029250Y0179252D02*
X0029250Y0172552D01*
X0029250Y0179252D01*
X0029250Y0179252D01*
X0029250Y0175689D02*
X0029250Y0175689D01*
X0029250Y0159695D02*
X0029250Y0159695D01*
X0029250Y0155696D02*
X0029250Y0155696D01*
X0029250Y0155502D02*
X0029250Y0155502D01*
X0029250Y0151698D02*
X0029250Y0151698D01*
X0034478Y0159695D02*
X0034533Y0159695D01*
X0029250Y0135704D02*
X0029250Y0135704D01*
X0029250Y0131752D02*
X0029250Y0125052D01*
X0029250Y0131752D01*
X0029250Y0131752D01*
X0029250Y0131705D02*
X0029250Y0131705D01*
X0029250Y0127707D02*
X0029250Y0127707D01*
X0018250Y0139702D02*
X0059882Y0139702D01*
X0063193Y0139702D02*
X0069882Y0139702D01*
X0072416Y0159695D02*
X0062330Y0159695D01*
X0066594Y0187684D02*
X0084364Y0187684D01*
X0084364Y0191683D02*
X0068050Y0191683D01*
X0066728Y0195682D02*
X0084364Y0195682D01*
X0084364Y0199680D02*
X0074948Y0199680D01*
X0078001Y0203679D02*
X0084364Y0203679D01*
X0084364Y0207677D02*
X0079167Y0207677D01*
X0078883Y0211676D02*
X0084364Y0211676D01*
X0055735Y0203679D02*
X0045550Y0203679D01*
X0043484Y0207677D02*
X0054569Y0207677D01*
X0054854Y0211676D02*
X0018250Y0211676D01*
X0018534Y0213374D02*
X0018534Y0213374D01*
X0029250Y0207677D02*
X0029250Y0207677D01*
X0029250Y0203679D02*
X0029250Y0203679D01*
X0029250Y0203002D02*
X0029250Y0196302D01*
X0029250Y0203002D01*
X0029250Y0203002D01*
X0029250Y0199680D02*
X0029250Y0199680D01*
X0034050Y0207677D02*
X0035016Y0207677D01*
X0034556Y0099717D02*
X0034461Y0099717D01*
X0029250Y0099717D02*
X0029250Y0099717D01*
X0029250Y0095719D02*
X0029250Y0095719D01*
X0029250Y0095502D02*
X0029250Y0088802D01*
X0029250Y0095502D01*
X0029250Y0095502D01*
X0029250Y0091720D02*
X0029250Y0091720D01*
X0029250Y0075726D02*
X0029250Y0075726D01*
X0029250Y0071752D02*
X0029250Y0065052D01*
X0029250Y0071752D01*
X0029250Y0071752D01*
X0029250Y0071728D02*
X0029250Y0071728D01*
X0029250Y0067729D02*
X0029250Y0067729D01*
X0029250Y0051735D02*
X0029250Y0051735D01*
X0029250Y0048002D02*
X0029250Y0041302D01*
X0029250Y0048002D01*
X0029250Y0048002D01*
X0029250Y0047737D02*
X0029250Y0047737D01*
X0029250Y0043738D02*
X0029250Y0043738D01*
X0034423Y0043738D02*
X0034604Y0043738D01*
X0029250Y0027744D02*
X0029250Y0027744D01*
X0043655Y0019747D02*
X0055051Y0019747D01*
X0054569Y0023746D02*
X0045550Y0023746D01*
X0044623Y0027744D02*
X0055361Y0027744D01*
X0059191Y0087722D02*
X0018250Y0087722D01*
X0063884Y0087722D02*
X0069191Y0087722D01*
M02*
