G75*
%MOIN*%
%OFA0B0*%
%FSLAX25Y25*%
%IPPOS*%
%LPD*%
%AMOC8*
5,1,8,0,0,1.08239X$1,22.5*
%
%ADD10C,0.00000*%
%ADD11C,0.13792*%
%ADD12C,0.01000*%
%ADD13R,0.08200X0.08200*%
%ADD14C,0.08200*%
%ADD15C,0.06400*%
%ADD16OC8,0.06000*%
%ADD17C,0.06000*%
%ADD18C,0.07400*%
%ADD19C,0.08400*%
%ADD20C,0.24422*%
%ADD21C,0.10800*%
D10*
X0027057Y0029165D02*
X0027059Y0029326D01*
X0027065Y0029486D01*
X0027075Y0029647D01*
X0027089Y0029807D01*
X0027107Y0029966D01*
X0027128Y0030126D01*
X0027154Y0030284D01*
X0027184Y0030442D01*
X0027217Y0030599D01*
X0027255Y0030756D01*
X0027296Y0030911D01*
X0027341Y0031065D01*
X0027390Y0031218D01*
X0027443Y0031370D01*
X0027499Y0031520D01*
X0027559Y0031669D01*
X0027623Y0031817D01*
X0027690Y0031963D01*
X0027761Y0032107D01*
X0027836Y0032249D01*
X0027914Y0032390D01*
X0027995Y0032528D01*
X0028080Y0032665D01*
X0028169Y0032799D01*
X0028260Y0032931D01*
X0028355Y0033061D01*
X0028453Y0033188D01*
X0028554Y0033313D01*
X0028658Y0033436D01*
X0028765Y0033555D01*
X0028875Y0033672D01*
X0028988Y0033787D01*
X0029104Y0033898D01*
X0029222Y0034007D01*
X0029343Y0034112D01*
X0029467Y0034215D01*
X0029593Y0034315D01*
X0029722Y0034411D01*
X0029853Y0034504D01*
X0029986Y0034594D01*
X0030121Y0034681D01*
X0030259Y0034764D01*
X0030398Y0034843D01*
X0030540Y0034920D01*
X0030683Y0034993D01*
X0030828Y0035062D01*
X0030975Y0035127D01*
X0031123Y0035189D01*
X0031273Y0035248D01*
X0031424Y0035302D01*
X0031576Y0035353D01*
X0031730Y0035400D01*
X0031885Y0035443D01*
X0032040Y0035482D01*
X0032197Y0035518D01*
X0032355Y0035550D01*
X0032513Y0035577D01*
X0032672Y0035601D01*
X0032831Y0035621D01*
X0032991Y0035637D01*
X0033152Y0035649D01*
X0033312Y0035657D01*
X0033473Y0035661D01*
X0033633Y0035661D01*
X0033794Y0035657D01*
X0033954Y0035649D01*
X0034115Y0035637D01*
X0034275Y0035621D01*
X0034434Y0035601D01*
X0034593Y0035577D01*
X0034751Y0035550D01*
X0034909Y0035518D01*
X0035066Y0035482D01*
X0035221Y0035443D01*
X0035376Y0035400D01*
X0035530Y0035353D01*
X0035682Y0035302D01*
X0035833Y0035248D01*
X0035983Y0035189D01*
X0036131Y0035127D01*
X0036278Y0035062D01*
X0036423Y0034993D01*
X0036566Y0034920D01*
X0036708Y0034843D01*
X0036847Y0034764D01*
X0036985Y0034681D01*
X0037120Y0034594D01*
X0037253Y0034504D01*
X0037384Y0034411D01*
X0037513Y0034315D01*
X0037639Y0034215D01*
X0037763Y0034112D01*
X0037884Y0034007D01*
X0038002Y0033898D01*
X0038118Y0033787D01*
X0038231Y0033672D01*
X0038341Y0033555D01*
X0038448Y0033436D01*
X0038552Y0033313D01*
X0038653Y0033188D01*
X0038751Y0033061D01*
X0038846Y0032931D01*
X0038937Y0032799D01*
X0039026Y0032665D01*
X0039111Y0032528D01*
X0039192Y0032390D01*
X0039270Y0032249D01*
X0039345Y0032107D01*
X0039416Y0031963D01*
X0039483Y0031817D01*
X0039547Y0031669D01*
X0039607Y0031520D01*
X0039663Y0031370D01*
X0039716Y0031218D01*
X0039765Y0031065D01*
X0039810Y0030911D01*
X0039851Y0030756D01*
X0039889Y0030599D01*
X0039922Y0030442D01*
X0039952Y0030284D01*
X0039978Y0030126D01*
X0039999Y0029966D01*
X0040017Y0029807D01*
X0040031Y0029647D01*
X0040041Y0029486D01*
X0040047Y0029326D01*
X0040049Y0029165D01*
X0040047Y0029004D01*
X0040041Y0028844D01*
X0040031Y0028683D01*
X0040017Y0028523D01*
X0039999Y0028364D01*
X0039978Y0028204D01*
X0039952Y0028046D01*
X0039922Y0027888D01*
X0039889Y0027731D01*
X0039851Y0027574D01*
X0039810Y0027419D01*
X0039765Y0027265D01*
X0039716Y0027112D01*
X0039663Y0026960D01*
X0039607Y0026810D01*
X0039547Y0026661D01*
X0039483Y0026513D01*
X0039416Y0026367D01*
X0039345Y0026223D01*
X0039270Y0026081D01*
X0039192Y0025940D01*
X0039111Y0025802D01*
X0039026Y0025665D01*
X0038937Y0025531D01*
X0038846Y0025399D01*
X0038751Y0025269D01*
X0038653Y0025142D01*
X0038552Y0025017D01*
X0038448Y0024894D01*
X0038341Y0024775D01*
X0038231Y0024658D01*
X0038118Y0024543D01*
X0038002Y0024432D01*
X0037884Y0024323D01*
X0037763Y0024218D01*
X0037639Y0024115D01*
X0037513Y0024015D01*
X0037384Y0023919D01*
X0037253Y0023826D01*
X0037120Y0023736D01*
X0036985Y0023649D01*
X0036847Y0023566D01*
X0036708Y0023487D01*
X0036566Y0023410D01*
X0036423Y0023337D01*
X0036278Y0023268D01*
X0036131Y0023203D01*
X0035983Y0023141D01*
X0035833Y0023082D01*
X0035682Y0023028D01*
X0035530Y0022977D01*
X0035376Y0022930D01*
X0035221Y0022887D01*
X0035066Y0022848D01*
X0034909Y0022812D01*
X0034751Y0022780D01*
X0034593Y0022753D01*
X0034434Y0022729D01*
X0034275Y0022709D01*
X0034115Y0022693D01*
X0033954Y0022681D01*
X0033794Y0022673D01*
X0033633Y0022669D01*
X0033473Y0022669D01*
X0033312Y0022673D01*
X0033152Y0022681D01*
X0032991Y0022693D01*
X0032831Y0022709D01*
X0032672Y0022729D01*
X0032513Y0022753D01*
X0032355Y0022780D01*
X0032197Y0022812D01*
X0032040Y0022848D01*
X0031885Y0022887D01*
X0031730Y0022930D01*
X0031576Y0022977D01*
X0031424Y0023028D01*
X0031273Y0023082D01*
X0031123Y0023141D01*
X0030975Y0023203D01*
X0030828Y0023268D01*
X0030683Y0023337D01*
X0030540Y0023410D01*
X0030398Y0023487D01*
X0030259Y0023566D01*
X0030121Y0023649D01*
X0029986Y0023736D01*
X0029853Y0023826D01*
X0029722Y0023919D01*
X0029593Y0024015D01*
X0029467Y0024115D01*
X0029343Y0024218D01*
X0029222Y0024323D01*
X0029104Y0024432D01*
X0028988Y0024543D01*
X0028875Y0024658D01*
X0028765Y0024775D01*
X0028658Y0024894D01*
X0028554Y0025017D01*
X0028453Y0025142D01*
X0028355Y0025269D01*
X0028260Y0025399D01*
X0028169Y0025531D01*
X0028080Y0025665D01*
X0027995Y0025802D01*
X0027914Y0025940D01*
X0027836Y0026081D01*
X0027761Y0026223D01*
X0027690Y0026367D01*
X0027623Y0026513D01*
X0027559Y0026661D01*
X0027499Y0026810D01*
X0027443Y0026960D01*
X0027390Y0027112D01*
X0027341Y0027265D01*
X0027296Y0027419D01*
X0027255Y0027574D01*
X0027217Y0027731D01*
X0027184Y0027888D01*
X0027154Y0028046D01*
X0027128Y0028204D01*
X0027107Y0028364D01*
X0027089Y0028523D01*
X0027075Y0028683D01*
X0027065Y0028844D01*
X0027059Y0029004D01*
X0027057Y0029165D01*
X0182959Y0029165D02*
X0182961Y0029326D01*
X0182967Y0029486D01*
X0182977Y0029647D01*
X0182991Y0029807D01*
X0183009Y0029966D01*
X0183030Y0030126D01*
X0183056Y0030284D01*
X0183086Y0030442D01*
X0183119Y0030599D01*
X0183157Y0030756D01*
X0183198Y0030911D01*
X0183243Y0031065D01*
X0183292Y0031218D01*
X0183345Y0031370D01*
X0183401Y0031520D01*
X0183461Y0031669D01*
X0183525Y0031817D01*
X0183592Y0031963D01*
X0183663Y0032107D01*
X0183738Y0032249D01*
X0183816Y0032390D01*
X0183897Y0032528D01*
X0183982Y0032665D01*
X0184071Y0032799D01*
X0184162Y0032931D01*
X0184257Y0033061D01*
X0184355Y0033188D01*
X0184456Y0033313D01*
X0184560Y0033436D01*
X0184667Y0033555D01*
X0184777Y0033672D01*
X0184890Y0033787D01*
X0185006Y0033898D01*
X0185124Y0034007D01*
X0185245Y0034112D01*
X0185369Y0034215D01*
X0185495Y0034315D01*
X0185624Y0034411D01*
X0185755Y0034504D01*
X0185888Y0034594D01*
X0186023Y0034681D01*
X0186161Y0034764D01*
X0186300Y0034843D01*
X0186442Y0034920D01*
X0186585Y0034993D01*
X0186730Y0035062D01*
X0186877Y0035127D01*
X0187025Y0035189D01*
X0187175Y0035248D01*
X0187326Y0035302D01*
X0187478Y0035353D01*
X0187632Y0035400D01*
X0187787Y0035443D01*
X0187942Y0035482D01*
X0188099Y0035518D01*
X0188257Y0035550D01*
X0188415Y0035577D01*
X0188574Y0035601D01*
X0188733Y0035621D01*
X0188893Y0035637D01*
X0189054Y0035649D01*
X0189214Y0035657D01*
X0189375Y0035661D01*
X0189535Y0035661D01*
X0189696Y0035657D01*
X0189856Y0035649D01*
X0190017Y0035637D01*
X0190177Y0035621D01*
X0190336Y0035601D01*
X0190495Y0035577D01*
X0190653Y0035550D01*
X0190811Y0035518D01*
X0190968Y0035482D01*
X0191123Y0035443D01*
X0191278Y0035400D01*
X0191432Y0035353D01*
X0191584Y0035302D01*
X0191735Y0035248D01*
X0191885Y0035189D01*
X0192033Y0035127D01*
X0192180Y0035062D01*
X0192325Y0034993D01*
X0192468Y0034920D01*
X0192610Y0034843D01*
X0192749Y0034764D01*
X0192887Y0034681D01*
X0193022Y0034594D01*
X0193155Y0034504D01*
X0193286Y0034411D01*
X0193415Y0034315D01*
X0193541Y0034215D01*
X0193665Y0034112D01*
X0193786Y0034007D01*
X0193904Y0033898D01*
X0194020Y0033787D01*
X0194133Y0033672D01*
X0194243Y0033555D01*
X0194350Y0033436D01*
X0194454Y0033313D01*
X0194555Y0033188D01*
X0194653Y0033061D01*
X0194748Y0032931D01*
X0194839Y0032799D01*
X0194928Y0032665D01*
X0195013Y0032528D01*
X0195094Y0032390D01*
X0195172Y0032249D01*
X0195247Y0032107D01*
X0195318Y0031963D01*
X0195385Y0031817D01*
X0195449Y0031669D01*
X0195509Y0031520D01*
X0195565Y0031370D01*
X0195618Y0031218D01*
X0195667Y0031065D01*
X0195712Y0030911D01*
X0195753Y0030756D01*
X0195791Y0030599D01*
X0195824Y0030442D01*
X0195854Y0030284D01*
X0195880Y0030126D01*
X0195901Y0029966D01*
X0195919Y0029807D01*
X0195933Y0029647D01*
X0195943Y0029486D01*
X0195949Y0029326D01*
X0195951Y0029165D01*
X0195949Y0029004D01*
X0195943Y0028844D01*
X0195933Y0028683D01*
X0195919Y0028523D01*
X0195901Y0028364D01*
X0195880Y0028204D01*
X0195854Y0028046D01*
X0195824Y0027888D01*
X0195791Y0027731D01*
X0195753Y0027574D01*
X0195712Y0027419D01*
X0195667Y0027265D01*
X0195618Y0027112D01*
X0195565Y0026960D01*
X0195509Y0026810D01*
X0195449Y0026661D01*
X0195385Y0026513D01*
X0195318Y0026367D01*
X0195247Y0026223D01*
X0195172Y0026081D01*
X0195094Y0025940D01*
X0195013Y0025802D01*
X0194928Y0025665D01*
X0194839Y0025531D01*
X0194748Y0025399D01*
X0194653Y0025269D01*
X0194555Y0025142D01*
X0194454Y0025017D01*
X0194350Y0024894D01*
X0194243Y0024775D01*
X0194133Y0024658D01*
X0194020Y0024543D01*
X0193904Y0024432D01*
X0193786Y0024323D01*
X0193665Y0024218D01*
X0193541Y0024115D01*
X0193415Y0024015D01*
X0193286Y0023919D01*
X0193155Y0023826D01*
X0193022Y0023736D01*
X0192887Y0023649D01*
X0192749Y0023566D01*
X0192610Y0023487D01*
X0192468Y0023410D01*
X0192325Y0023337D01*
X0192180Y0023268D01*
X0192033Y0023203D01*
X0191885Y0023141D01*
X0191735Y0023082D01*
X0191584Y0023028D01*
X0191432Y0022977D01*
X0191278Y0022930D01*
X0191123Y0022887D01*
X0190968Y0022848D01*
X0190811Y0022812D01*
X0190653Y0022780D01*
X0190495Y0022753D01*
X0190336Y0022729D01*
X0190177Y0022709D01*
X0190017Y0022693D01*
X0189856Y0022681D01*
X0189696Y0022673D01*
X0189535Y0022669D01*
X0189375Y0022669D01*
X0189214Y0022673D01*
X0189054Y0022681D01*
X0188893Y0022693D01*
X0188733Y0022709D01*
X0188574Y0022729D01*
X0188415Y0022753D01*
X0188257Y0022780D01*
X0188099Y0022812D01*
X0187942Y0022848D01*
X0187787Y0022887D01*
X0187632Y0022930D01*
X0187478Y0022977D01*
X0187326Y0023028D01*
X0187175Y0023082D01*
X0187025Y0023141D01*
X0186877Y0023203D01*
X0186730Y0023268D01*
X0186585Y0023337D01*
X0186442Y0023410D01*
X0186300Y0023487D01*
X0186161Y0023566D01*
X0186023Y0023649D01*
X0185888Y0023736D01*
X0185755Y0023826D01*
X0185624Y0023919D01*
X0185495Y0024015D01*
X0185369Y0024115D01*
X0185245Y0024218D01*
X0185124Y0024323D01*
X0185006Y0024432D01*
X0184890Y0024543D01*
X0184777Y0024658D01*
X0184667Y0024775D01*
X0184560Y0024894D01*
X0184456Y0025017D01*
X0184355Y0025142D01*
X0184257Y0025269D01*
X0184162Y0025399D01*
X0184071Y0025531D01*
X0183982Y0025665D01*
X0183897Y0025802D01*
X0183816Y0025940D01*
X0183738Y0026081D01*
X0183663Y0026223D01*
X0183592Y0026367D01*
X0183525Y0026513D01*
X0183461Y0026661D01*
X0183401Y0026810D01*
X0183345Y0026960D01*
X0183292Y0027112D01*
X0183243Y0027265D01*
X0183198Y0027419D01*
X0183157Y0027574D01*
X0183119Y0027731D01*
X0183086Y0027888D01*
X0183056Y0028046D01*
X0183030Y0028204D01*
X0183009Y0028364D01*
X0182991Y0028523D01*
X0182977Y0028683D01*
X0182967Y0028844D01*
X0182961Y0029004D01*
X0182959Y0029165D01*
X0338860Y0029165D02*
X0338862Y0029326D01*
X0338868Y0029486D01*
X0338878Y0029647D01*
X0338892Y0029807D01*
X0338910Y0029966D01*
X0338931Y0030126D01*
X0338957Y0030284D01*
X0338987Y0030442D01*
X0339020Y0030599D01*
X0339058Y0030756D01*
X0339099Y0030911D01*
X0339144Y0031065D01*
X0339193Y0031218D01*
X0339246Y0031370D01*
X0339302Y0031520D01*
X0339362Y0031669D01*
X0339426Y0031817D01*
X0339493Y0031963D01*
X0339564Y0032107D01*
X0339639Y0032249D01*
X0339717Y0032390D01*
X0339798Y0032528D01*
X0339883Y0032665D01*
X0339972Y0032799D01*
X0340063Y0032931D01*
X0340158Y0033061D01*
X0340256Y0033188D01*
X0340357Y0033313D01*
X0340461Y0033436D01*
X0340568Y0033555D01*
X0340678Y0033672D01*
X0340791Y0033787D01*
X0340907Y0033898D01*
X0341025Y0034007D01*
X0341146Y0034112D01*
X0341270Y0034215D01*
X0341396Y0034315D01*
X0341525Y0034411D01*
X0341656Y0034504D01*
X0341789Y0034594D01*
X0341924Y0034681D01*
X0342062Y0034764D01*
X0342201Y0034843D01*
X0342343Y0034920D01*
X0342486Y0034993D01*
X0342631Y0035062D01*
X0342778Y0035127D01*
X0342926Y0035189D01*
X0343076Y0035248D01*
X0343227Y0035302D01*
X0343379Y0035353D01*
X0343533Y0035400D01*
X0343688Y0035443D01*
X0343843Y0035482D01*
X0344000Y0035518D01*
X0344158Y0035550D01*
X0344316Y0035577D01*
X0344475Y0035601D01*
X0344634Y0035621D01*
X0344794Y0035637D01*
X0344955Y0035649D01*
X0345115Y0035657D01*
X0345276Y0035661D01*
X0345436Y0035661D01*
X0345597Y0035657D01*
X0345757Y0035649D01*
X0345918Y0035637D01*
X0346078Y0035621D01*
X0346237Y0035601D01*
X0346396Y0035577D01*
X0346554Y0035550D01*
X0346712Y0035518D01*
X0346869Y0035482D01*
X0347024Y0035443D01*
X0347179Y0035400D01*
X0347333Y0035353D01*
X0347485Y0035302D01*
X0347636Y0035248D01*
X0347786Y0035189D01*
X0347934Y0035127D01*
X0348081Y0035062D01*
X0348226Y0034993D01*
X0348369Y0034920D01*
X0348511Y0034843D01*
X0348650Y0034764D01*
X0348788Y0034681D01*
X0348923Y0034594D01*
X0349056Y0034504D01*
X0349187Y0034411D01*
X0349316Y0034315D01*
X0349442Y0034215D01*
X0349566Y0034112D01*
X0349687Y0034007D01*
X0349805Y0033898D01*
X0349921Y0033787D01*
X0350034Y0033672D01*
X0350144Y0033555D01*
X0350251Y0033436D01*
X0350355Y0033313D01*
X0350456Y0033188D01*
X0350554Y0033061D01*
X0350649Y0032931D01*
X0350740Y0032799D01*
X0350829Y0032665D01*
X0350914Y0032528D01*
X0350995Y0032390D01*
X0351073Y0032249D01*
X0351148Y0032107D01*
X0351219Y0031963D01*
X0351286Y0031817D01*
X0351350Y0031669D01*
X0351410Y0031520D01*
X0351466Y0031370D01*
X0351519Y0031218D01*
X0351568Y0031065D01*
X0351613Y0030911D01*
X0351654Y0030756D01*
X0351692Y0030599D01*
X0351725Y0030442D01*
X0351755Y0030284D01*
X0351781Y0030126D01*
X0351802Y0029966D01*
X0351820Y0029807D01*
X0351834Y0029647D01*
X0351844Y0029486D01*
X0351850Y0029326D01*
X0351852Y0029165D01*
X0351850Y0029004D01*
X0351844Y0028844D01*
X0351834Y0028683D01*
X0351820Y0028523D01*
X0351802Y0028364D01*
X0351781Y0028204D01*
X0351755Y0028046D01*
X0351725Y0027888D01*
X0351692Y0027731D01*
X0351654Y0027574D01*
X0351613Y0027419D01*
X0351568Y0027265D01*
X0351519Y0027112D01*
X0351466Y0026960D01*
X0351410Y0026810D01*
X0351350Y0026661D01*
X0351286Y0026513D01*
X0351219Y0026367D01*
X0351148Y0026223D01*
X0351073Y0026081D01*
X0350995Y0025940D01*
X0350914Y0025802D01*
X0350829Y0025665D01*
X0350740Y0025531D01*
X0350649Y0025399D01*
X0350554Y0025269D01*
X0350456Y0025142D01*
X0350355Y0025017D01*
X0350251Y0024894D01*
X0350144Y0024775D01*
X0350034Y0024658D01*
X0349921Y0024543D01*
X0349805Y0024432D01*
X0349687Y0024323D01*
X0349566Y0024218D01*
X0349442Y0024115D01*
X0349316Y0024015D01*
X0349187Y0023919D01*
X0349056Y0023826D01*
X0348923Y0023736D01*
X0348788Y0023649D01*
X0348650Y0023566D01*
X0348511Y0023487D01*
X0348369Y0023410D01*
X0348226Y0023337D01*
X0348081Y0023268D01*
X0347934Y0023203D01*
X0347786Y0023141D01*
X0347636Y0023082D01*
X0347485Y0023028D01*
X0347333Y0022977D01*
X0347179Y0022930D01*
X0347024Y0022887D01*
X0346869Y0022848D01*
X0346712Y0022812D01*
X0346554Y0022780D01*
X0346396Y0022753D01*
X0346237Y0022729D01*
X0346078Y0022709D01*
X0345918Y0022693D01*
X0345757Y0022681D01*
X0345597Y0022673D01*
X0345436Y0022669D01*
X0345276Y0022669D01*
X0345115Y0022673D01*
X0344955Y0022681D01*
X0344794Y0022693D01*
X0344634Y0022709D01*
X0344475Y0022729D01*
X0344316Y0022753D01*
X0344158Y0022780D01*
X0344000Y0022812D01*
X0343843Y0022848D01*
X0343688Y0022887D01*
X0343533Y0022930D01*
X0343379Y0022977D01*
X0343227Y0023028D01*
X0343076Y0023082D01*
X0342926Y0023141D01*
X0342778Y0023203D01*
X0342631Y0023268D01*
X0342486Y0023337D01*
X0342343Y0023410D01*
X0342201Y0023487D01*
X0342062Y0023566D01*
X0341924Y0023649D01*
X0341789Y0023736D01*
X0341656Y0023826D01*
X0341525Y0023919D01*
X0341396Y0024015D01*
X0341270Y0024115D01*
X0341146Y0024218D01*
X0341025Y0024323D01*
X0340907Y0024432D01*
X0340791Y0024543D01*
X0340678Y0024658D01*
X0340568Y0024775D01*
X0340461Y0024894D01*
X0340357Y0025017D01*
X0340256Y0025142D01*
X0340158Y0025269D01*
X0340063Y0025399D01*
X0339972Y0025531D01*
X0339883Y0025665D01*
X0339798Y0025802D01*
X0339717Y0025940D01*
X0339639Y0026081D01*
X0339564Y0026223D01*
X0339493Y0026367D01*
X0339426Y0026513D01*
X0339362Y0026661D01*
X0339302Y0026810D01*
X0339246Y0026960D01*
X0339193Y0027112D01*
X0339144Y0027265D01*
X0339099Y0027419D01*
X0339058Y0027574D01*
X0339020Y0027731D01*
X0338987Y0027888D01*
X0338957Y0028046D01*
X0338931Y0028204D01*
X0338910Y0028364D01*
X0338892Y0028523D01*
X0338878Y0028683D01*
X0338868Y0028844D01*
X0338862Y0029004D01*
X0338860Y0029165D01*
X0338860Y0292236D02*
X0338862Y0292397D01*
X0338868Y0292557D01*
X0338878Y0292718D01*
X0338892Y0292878D01*
X0338910Y0293037D01*
X0338931Y0293197D01*
X0338957Y0293355D01*
X0338987Y0293513D01*
X0339020Y0293670D01*
X0339058Y0293827D01*
X0339099Y0293982D01*
X0339144Y0294136D01*
X0339193Y0294289D01*
X0339246Y0294441D01*
X0339302Y0294591D01*
X0339362Y0294740D01*
X0339426Y0294888D01*
X0339493Y0295034D01*
X0339564Y0295178D01*
X0339639Y0295320D01*
X0339717Y0295461D01*
X0339798Y0295599D01*
X0339883Y0295736D01*
X0339972Y0295870D01*
X0340063Y0296002D01*
X0340158Y0296132D01*
X0340256Y0296259D01*
X0340357Y0296384D01*
X0340461Y0296507D01*
X0340568Y0296626D01*
X0340678Y0296743D01*
X0340791Y0296858D01*
X0340907Y0296969D01*
X0341025Y0297078D01*
X0341146Y0297183D01*
X0341270Y0297286D01*
X0341396Y0297386D01*
X0341525Y0297482D01*
X0341656Y0297575D01*
X0341789Y0297665D01*
X0341924Y0297752D01*
X0342062Y0297835D01*
X0342201Y0297914D01*
X0342343Y0297991D01*
X0342486Y0298064D01*
X0342631Y0298133D01*
X0342778Y0298198D01*
X0342926Y0298260D01*
X0343076Y0298319D01*
X0343227Y0298373D01*
X0343379Y0298424D01*
X0343533Y0298471D01*
X0343688Y0298514D01*
X0343843Y0298553D01*
X0344000Y0298589D01*
X0344158Y0298621D01*
X0344316Y0298648D01*
X0344475Y0298672D01*
X0344634Y0298692D01*
X0344794Y0298708D01*
X0344955Y0298720D01*
X0345115Y0298728D01*
X0345276Y0298732D01*
X0345436Y0298732D01*
X0345597Y0298728D01*
X0345757Y0298720D01*
X0345918Y0298708D01*
X0346078Y0298692D01*
X0346237Y0298672D01*
X0346396Y0298648D01*
X0346554Y0298621D01*
X0346712Y0298589D01*
X0346869Y0298553D01*
X0347024Y0298514D01*
X0347179Y0298471D01*
X0347333Y0298424D01*
X0347485Y0298373D01*
X0347636Y0298319D01*
X0347786Y0298260D01*
X0347934Y0298198D01*
X0348081Y0298133D01*
X0348226Y0298064D01*
X0348369Y0297991D01*
X0348511Y0297914D01*
X0348650Y0297835D01*
X0348788Y0297752D01*
X0348923Y0297665D01*
X0349056Y0297575D01*
X0349187Y0297482D01*
X0349316Y0297386D01*
X0349442Y0297286D01*
X0349566Y0297183D01*
X0349687Y0297078D01*
X0349805Y0296969D01*
X0349921Y0296858D01*
X0350034Y0296743D01*
X0350144Y0296626D01*
X0350251Y0296507D01*
X0350355Y0296384D01*
X0350456Y0296259D01*
X0350554Y0296132D01*
X0350649Y0296002D01*
X0350740Y0295870D01*
X0350829Y0295736D01*
X0350914Y0295599D01*
X0350995Y0295461D01*
X0351073Y0295320D01*
X0351148Y0295178D01*
X0351219Y0295034D01*
X0351286Y0294888D01*
X0351350Y0294740D01*
X0351410Y0294591D01*
X0351466Y0294441D01*
X0351519Y0294289D01*
X0351568Y0294136D01*
X0351613Y0293982D01*
X0351654Y0293827D01*
X0351692Y0293670D01*
X0351725Y0293513D01*
X0351755Y0293355D01*
X0351781Y0293197D01*
X0351802Y0293037D01*
X0351820Y0292878D01*
X0351834Y0292718D01*
X0351844Y0292557D01*
X0351850Y0292397D01*
X0351852Y0292236D01*
X0351850Y0292075D01*
X0351844Y0291915D01*
X0351834Y0291754D01*
X0351820Y0291594D01*
X0351802Y0291435D01*
X0351781Y0291275D01*
X0351755Y0291117D01*
X0351725Y0290959D01*
X0351692Y0290802D01*
X0351654Y0290645D01*
X0351613Y0290490D01*
X0351568Y0290336D01*
X0351519Y0290183D01*
X0351466Y0290031D01*
X0351410Y0289881D01*
X0351350Y0289732D01*
X0351286Y0289584D01*
X0351219Y0289438D01*
X0351148Y0289294D01*
X0351073Y0289152D01*
X0350995Y0289011D01*
X0350914Y0288873D01*
X0350829Y0288736D01*
X0350740Y0288602D01*
X0350649Y0288470D01*
X0350554Y0288340D01*
X0350456Y0288213D01*
X0350355Y0288088D01*
X0350251Y0287965D01*
X0350144Y0287846D01*
X0350034Y0287729D01*
X0349921Y0287614D01*
X0349805Y0287503D01*
X0349687Y0287394D01*
X0349566Y0287289D01*
X0349442Y0287186D01*
X0349316Y0287086D01*
X0349187Y0286990D01*
X0349056Y0286897D01*
X0348923Y0286807D01*
X0348788Y0286720D01*
X0348650Y0286637D01*
X0348511Y0286558D01*
X0348369Y0286481D01*
X0348226Y0286408D01*
X0348081Y0286339D01*
X0347934Y0286274D01*
X0347786Y0286212D01*
X0347636Y0286153D01*
X0347485Y0286099D01*
X0347333Y0286048D01*
X0347179Y0286001D01*
X0347024Y0285958D01*
X0346869Y0285919D01*
X0346712Y0285883D01*
X0346554Y0285851D01*
X0346396Y0285824D01*
X0346237Y0285800D01*
X0346078Y0285780D01*
X0345918Y0285764D01*
X0345757Y0285752D01*
X0345597Y0285744D01*
X0345436Y0285740D01*
X0345276Y0285740D01*
X0345115Y0285744D01*
X0344955Y0285752D01*
X0344794Y0285764D01*
X0344634Y0285780D01*
X0344475Y0285800D01*
X0344316Y0285824D01*
X0344158Y0285851D01*
X0344000Y0285883D01*
X0343843Y0285919D01*
X0343688Y0285958D01*
X0343533Y0286001D01*
X0343379Y0286048D01*
X0343227Y0286099D01*
X0343076Y0286153D01*
X0342926Y0286212D01*
X0342778Y0286274D01*
X0342631Y0286339D01*
X0342486Y0286408D01*
X0342343Y0286481D01*
X0342201Y0286558D01*
X0342062Y0286637D01*
X0341924Y0286720D01*
X0341789Y0286807D01*
X0341656Y0286897D01*
X0341525Y0286990D01*
X0341396Y0287086D01*
X0341270Y0287186D01*
X0341146Y0287289D01*
X0341025Y0287394D01*
X0340907Y0287503D01*
X0340791Y0287614D01*
X0340678Y0287729D01*
X0340568Y0287846D01*
X0340461Y0287965D01*
X0340357Y0288088D01*
X0340256Y0288213D01*
X0340158Y0288340D01*
X0340063Y0288470D01*
X0339972Y0288602D01*
X0339883Y0288736D01*
X0339798Y0288873D01*
X0339717Y0289011D01*
X0339639Y0289152D01*
X0339564Y0289294D01*
X0339493Y0289438D01*
X0339426Y0289584D01*
X0339362Y0289732D01*
X0339302Y0289881D01*
X0339246Y0290031D01*
X0339193Y0290183D01*
X0339144Y0290336D01*
X0339099Y0290490D01*
X0339058Y0290645D01*
X0339020Y0290802D01*
X0338987Y0290959D01*
X0338957Y0291117D01*
X0338931Y0291275D01*
X0338910Y0291435D01*
X0338892Y0291594D01*
X0338878Y0291754D01*
X0338868Y0291915D01*
X0338862Y0292075D01*
X0338860Y0292236D01*
X0182959Y0292236D02*
X0182961Y0292397D01*
X0182967Y0292557D01*
X0182977Y0292718D01*
X0182991Y0292878D01*
X0183009Y0293037D01*
X0183030Y0293197D01*
X0183056Y0293355D01*
X0183086Y0293513D01*
X0183119Y0293670D01*
X0183157Y0293827D01*
X0183198Y0293982D01*
X0183243Y0294136D01*
X0183292Y0294289D01*
X0183345Y0294441D01*
X0183401Y0294591D01*
X0183461Y0294740D01*
X0183525Y0294888D01*
X0183592Y0295034D01*
X0183663Y0295178D01*
X0183738Y0295320D01*
X0183816Y0295461D01*
X0183897Y0295599D01*
X0183982Y0295736D01*
X0184071Y0295870D01*
X0184162Y0296002D01*
X0184257Y0296132D01*
X0184355Y0296259D01*
X0184456Y0296384D01*
X0184560Y0296507D01*
X0184667Y0296626D01*
X0184777Y0296743D01*
X0184890Y0296858D01*
X0185006Y0296969D01*
X0185124Y0297078D01*
X0185245Y0297183D01*
X0185369Y0297286D01*
X0185495Y0297386D01*
X0185624Y0297482D01*
X0185755Y0297575D01*
X0185888Y0297665D01*
X0186023Y0297752D01*
X0186161Y0297835D01*
X0186300Y0297914D01*
X0186442Y0297991D01*
X0186585Y0298064D01*
X0186730Y0298133D01*
X0186877Y0298198D01*
X0187025Y0298260D01*
X0187175Y0298319D01*
X0187326Y0298373D01*
X0187478Y0298424D01*
X0187632Y0298471D01*
X0187787Y0298514D01*
X0187942Y0298553D01*
X0188099Y0298589D01*
X0188257Y0298621D01*
X0188415Y0298648D01*
X0188574Y0298672D01*
X0188733Y0298692D01*
X0188893Y0298708D01*
X0189054Y0298720D01*
X0189214Y0298728D01*
X0189375Y0298732D01*
X0189535Y0298732D01*
X0189696Y0298728D01*
X0189856Y0298720D01*
X0190017Y0298708D01*
X0190177Y0298692D01*
X0190336Y0298672D01*
X0190495Y0298648D01*
X0190653Y0298621D01*
X0190811Y0298589D01*
X0190968Y0298553D01*
X0191123Y0298514D01*
X0191278Y0298471D01*
X0191432Y0298424D01*
X0191584Y0298373D01*
X0191735Y0298319D01*
X0191885Y0298260D01*
X0192033Y0298198D01*
X0192180Y0298133D01*
X0192325Y0298064D01*
X0192468Y0297991D01*
X0192610Y0297914D01*
X0192749Y0297835D01*
X0192887Y0297752D01*
X0193022Y0297665D01*
X0193155Y0297575D01*
X0193286Y0297482D01*
X0193415Y0297386D01*
X0193541Y0297286D01*
X0193665Y0297183D01*
X0193786Y0297078D01*
X0193904Y0296969D01*
X0194020Y0296858D01*
X0194133Y0296743D01*
X0194243Y0296626D01*
X0194350Y0296507D01*
X0194454Y0296384D01*
X0194555Y0296259D01*
X0194653Y0296132D01*
X0194748Y0296002D01*
X0194839Y0295870D01*
X0194928Y0295736D01*
X0195013Y0295599D01*
X0195094Y0295461D01*
X0195172Y0295320D01*
X0195247Y0295178D01*
X0195318Y0295034D01*
X0195385Y0294888D01*
X0195449Y0294740D01*
X0195509Y0294591D01*
X0195565Y0294441D01*
X0195618Y0294289D01*
X0195667Y0294136D01*
X0195712Y0293982D01*
X0195753Y0293827D01*
X0195791Y0293670D01*
X0195824Y0293513D01*
X0195854Y0293355D01*
X0195880Y0293197D01*
X0195901Y0293037D01*
X0195919Y0292878D01*
X0195933Y0292718D01*
X0195943Y0292557D01*
X0195949Y0292397D01*
X0195951Y0292236D01*
X0195949Y0292075D01*
X0195943Y0291915D01*
X0195933Y0291754D01*
X0195919Y0291594D01*
X0195901Y0291435D01*
X0195880Y0291275D01*
X0195854Y0291117D01*
X0195824Y0290959D01*
X0195791Y0290802D01*
X0195753Y0290645D01*
X0195712Y0290490D01*
X0195667Y0290336D01*
X0195618Y0290183D01*
X0195565Y0290031D01*
X0195509Y0289881D01*
X0195449Y0289732D01*
X0195385Y0289584D01*
X0195318Y0289438D01*
X0195247Y0289294D01*
X0195172Y0289152D01*
X0195094Y0289011D01*
X0195013Y0288873D01*
X0194928Y0288736D01*
X0194839Y0288602D01*
X0194748Y0288470D01*
X0194653Y0288340D01*
X0194555Y0288213D01*
X0194454Y0288088D01*
X0194350Y0287965D01*
X0194243Y0287846D01*
X0194133Y0287729D01*
X0194020Y0287614D01*
X0193904Y0287503D01*
X0193786Y0287394D01*
X0193665Y0287289D01*
X0193541Y0287186D01*
X0193415Y0287086D01*
X0193286Y0286990D01*
X0193155Y0286897D01*
X0193022Y0286807D01*
X0192887Y0286720D01*
X0192749Y0286637D01*
X0192610Y0286558D01*
X0192468Y0286481D01*
X0192325Y0286408D01*
X0192180Y0286339D01*
X0192033Y0286274D01*
X0191885Y0286212D01*
X0191735Y0286153D01*
X0191584Y0286099D01*
X0191432Y0286048D01*
X0191278Y0286001D01*
X0191123Y0285958D01*
X0190968Y0285919D01*
X0190811Y0285883D01*
X0190653Y0285851D01*
X0190495Y0285824D01*
X0190336Y0285800D01*
X0190177Y0285780D01*
X0190017Y0285764D01*
X0189856Y0285752D01*
X0189696Y0285744D01*
X0189535Y0285740D01*
X0189375Y0285740D01*
X0189214Y0285744D01*
X0189054Y0285752D01*
X0188893Y0285764D01*
X0188733Y0285780D01*
X0188574Y0285800D01*
X0188415Y0285824D01*
X0188257Y0285851D01*
X0188099Y0285883D01*
X0187942Y0285919D01*
X0187787Y0285958D01*
X0187632Y0286001D01*
X0187478Y0286048D01*
X0187326Y0286099D01*
X0187175Y0286153D01*
X0187025Y0286212D01*
X0186877Y0286274D01*
X0186730Y0286339D01*
X0186585Y0286408D01*
X0186442Y0286481D01*
X0186300Y0286558D01*
X0186161Y0286637D01*
X0186023Y0286720D01*
X0185888Y0286807D01*
X0185755Y0286897D01*
X0185624Y0286990D01*
X0185495Y0287086D01*
X0185369Y0287186D01*
X0185245Y0287289D01*
X0185124Y0287394D01*
X0185006Y0287503D01*
X0184890Y0287614D01*
X0184777Y0287729D01*
X0184667Y0287846D01*
X0184560Y0287965D01*
X0184456Y0288088D01*
X0184355Y0288213D01*
X0184257Y0288340D01*
X0184162Y0288470D01*
X0184071Y0288602D01*
X0183982Y0288736D01*
X0183897Y0288873D01*
X0183816Y0289011D01*
X0183738Y0289152D01*
X0183663Y0289294D01*
X0183592Y0289438D01*
X0183525Y0289584D01*
X0183461Y0289732D01*
X0183401Y0289881D01*
X0183345Y0290031D01*
X0183292Y0290183D01*
X0183243Y0290336D01*
X0183198Y0290490D01*
X0183157Y0290645D01*
X0183119Y0290802D01*
X0183086Y0290959D01*
X0183056Y0291117D01*
X0183030Y0291275D01*
X0183009Y0291435D01*
X0182991Y0291594D01*
X0182977Y0291754D01*
X0182967Y0291915D01*
X0182961Y0292075D01*
X0182959Y0292236D01*
X0027057Y0292236D02*
X0027059Y0292397D01*
X0027065Y0292557D01*
X0027075Y0292718D01*
X0027089Y0292878D01*
X0027107Y0293037D01*
X0027128Y0293197D01*
X0027154Y0293355D01*
X0027184Y0293513D01*
X0027217Y0293670D01*
X0027255Y0293827D01*
X0027296Y0293982D01*
X0027341Y0294136D01*
X0027390Y0294289D01*
X0027443Y0294441D01*
X0027499Y0294591D01*
X0027559Y0294740D01*
X0027623Y0294888D01*
X0027690Y0295034D01*
X0027761Y0295178D01*
X0027836Y0295320D01*
X0027914Y0295461D01*
X0027995Y0295599D01*
X0028080Y0295736D01*
X0028169Y0295870D01*
X0028260Y0296002D01*
X0028355Y0296132D01*
X0028453Y0296259D01*
X0028554Y0296384D01*
X0028658Y0296507D01*
X0028765Y0296626D01*
X0028875Y0296743D01*
X0028988Y0296858D01*
X0029104Y0296969D01*
X0029222Y0297078D01*
X0029343Y0297183D01*
X0029467Y0297286D01*
X0029593Y0297386D01*
X0029722Y0297482D01*
X0029853Y0297575D01*
X0029986Y0297665D01*
X0030121Y0297752D01*
X0030259Y0297835D01*
X0030398Y0297914D01*
X0030540Y0297991D01*
X0030683Y0298064D01*
X0030828Y0298133D01*
X0030975Y0298198D01*
X0031123Y0298260D01*
X0031273Y0298319D01*
X0031424Y0298373D01*
X0031576Y0298424D01*
X0031730Y0298471D01*
X0031885Y0298514D01*
X0032040Y0298553D01*
X0032197Y0298589D01*
X0032355Y0298621D01*
X0032513Y0298648D01*
X0032672Y0298672D01*
X0032831Y0298692D01*
X0032991Y0298708D01*
X0033152Y0298720D01*
X0033312Y0298728D01*
X0033473Y0298732D01*
X0033633Y0298732D01*
X0033794Y0298728D01*
X0033954Y0298720D01*
X0034115Y0298708D01*
X0034275Y0298692D01*
X0034434Y0298672D01*
X0034593Y0298648D01*
X0034751Y0298621D01*
X0034909Y0298589D01*
X0035066Y0298553D01*
X0035221Y0298514D01*
X0035376Y0298471D01*
X0035530Y0298424D01*
X0035682Y0298373D01*
X0035833Y0298319D01*
X0035983Y0298260D01*
X0036131Y0298198D01*
X0036278Y0298133D01*
X0036423Y0298064D01*
X0036566Y0297991D01*
X0036708Y0297914D01*
X0036847Y0297835D01*
X0036985Y0297752D01*
X0037120Y0297665D01*
X0037253Y0297575D01*
X0037384Y0297482D01*
X0037513Y0297386D01*
X0037639Y0297286D01*
X0037763Y0297183D01*
X0037884Y0297078D01*
X0038002Y0296969D01*
X0038118Y0296858D01*
X0038231Y0296743D01*
X0038341Y0296626D01*
X0038448Y0296507D01*
X0038552Y0296384D01*
X0038653Y0296259D01*
X0038751Y0296132D01*
X0038846Y0296002D01*
X0038937Y0295870D01*
X0039026Y0295736D01*
X0039111Y0295599D01*
X0039192Y0295461D01*
X0039270Y0295320D01*
X0039345Y0295178D01*
X0039416Y0295034D01*
X0039483Y0294888D01*
X0039547Y0294740D01*
X0039607Y0294591D01*
X0039663Y0294441D01*
X0039716Y0294289D01*
X0039765Y0294136D01*
X0039810Y0293982D01*
X0039851Y0293827D01*
X0039889Y0293670D01*
X0039922Y0293513D01*
X0039952Y0293355D01*
X0039978Y0293197D01*
X0039999Y0293037D01*
X0040017Y0292878D01*
X0040031Y0292718D01*
X0040041Y0292557D01*
X0040047Y0292397D01*
X0040049Y0292236D01*
X0040047Y0292075D01*
X0040041Y0291915D01*
X0040031Y0291754D01*
X0040017Y0291594D01*
X0039999Y0291435D01*
X0039978Y0291275D01*
X0039952Y0291117D01*
X0039922Y0290959D01*
X0039889Y0290802D01*
X0039851Y0290645D01*
X0039810Y0290490D01*
X0039765Y0290336D01*
X0039716Y0290183D01*
X0039663Y0290031D01*
X0039607Y0289881D01*
X0039547Y0289732D01*
X0039483Y0289584D01*
X0039416Y0289438D01*
X0039345Y0289294D01*
X0039270Y0289152D01*
X0039192Y0289011D01*
X0039111Y0288873D01*
X0039026Y0288736D01*
X0038937Y0288602D01*
X0038846Y0288470D01*
X0038751Y0288340D01*
X0038653Y0288213D01*
X0038552Y0288088D01*
X0038448Y0287965D01*
X0038341Y0287846D01*
X0038231Y0287729D01*
X0038118Y0287614D01*
X0038002Y0287503D01*
X0037884Y0287394D01*
X0037763Y0287289D01*
X0037639Y0287186D01*
X0037513Y0287086D01*
X0037384Y0286990D01*
X0037253Y0286897D01*
X0037120Y0286807D01*
X0036985Y0286720D01*
X0036847Y0286637D01*
X0036708Y0286558D01*
X0036566Y0286481D01*
X0036423Y0286408D01*
X0036278Y0286339D01*
X0036131Y0286274D01*
X0035983Y0286212D01*
X0035833Y0286153D01*
X0035682Y0286099D01*
X0035530Y0286048D01*
X0035376Y0286001D01*
X0035221Y0285958D01*
X0035066Y0285919D01*
X0034909Y0285883D01*
X0034751Y0285851D01*
X0034593Y0285824D01*
X0034434Y0285800D01*
X0034275Y0285780D01*
X0034115Y0285764D01*
X0033954Y0285752D01*
X0033794Y0285744D01*
X0033633Y0285740D01*
X0033473Y0285740D01*
X0033312Y0285744D01*
X0033152Y0285752D01*
X0032991Y0285764D01*
X0032831Y0285780D01*
X0032672Y0285800D01*
X0032513Y0285824D01*
X0032355Y0285851D01*
X0032197Y0285883D01*
X0032040Y0285919D01*
X0031885Y0285958D01*
X0031730Y0286001D01*
X0031576Y0286048D01*
X0031424Y0286099D01*
X0031273Y0286153D01*
X0031123Y0286212D01*
X0030975Y0286274D01*
X0030828Y0286339D01*
X0030683Y0286408D01*
X0030540Y0286481D01*
X0030398Y0286558D01*
X0030259Y0286637D01*
X0030121Y0286720D01*
X0029986Y0286807D01*
X0029853Y0286897D01*
X0029722Y0286990D01*
X0029593Y0287086D01*
X0029467Y0287186D01*
X0029343Y0287289D01*
X0029222Y0287394D01*
X0029104Y0287503D01*
X0028988Y0287614D01*
X0028875Y0287729D01*
X0028765Y0287846D01*
X0028658Y0287965D01*
X0028554Y0288088D01*
X0028453Y0288213D01*
X0028355Y0288340D01*
X0028260Y0288470D01*
X0028169Y0288602D01*
X0028080Y0288736D01*
X0027995Y0288873D01*
X0027914Y0289011D01*
X0027836Y0289152D01*
X0027761Y0289294D01*
X0027690Y0289438D01*
X0027623Y0289584D01*
X0027559Y0289732D01*
X0027499Y0289881D01*
X0027443Y0290031D01*
X0027390Y0290183D01*
X0027341Y0290336D01*
X0027296Y0290490D01*
X0027255Y0290645D01*
X0027217Y0290802D01*
X0027184Y0290959D01*
X0027154Y0291117D01*
X0027128Y0291275D01*
X0027107Y0291435D01*
X0027089Y0291594D01*
X0027075Y0291754D01*
X0027065Y0291915D01*
X0027059Y0292075D01*
X0027057Y0292236D01*
D11*
X0033553Y0292236D03*
X0189455Y0292236D03*
X0345356Y0292236D03*
X0345356Y0029165D03*
X0189455Y0029165D03*
X0033553Y0029165D03*
D12*
X0013868Y0029165D02*
X0013868Y0292236D01*
X0013874Y0292715D01*
X0013891Y0293194D01*
X0013921Y0293673D01*
X0013961Y0294151D01*
X0014014Y0294627D01*
X0014078Y0295102D01*
X0014153Y0295576D01*
X0014240Y0296047D01*
X0014339Y0296516D01*
X0014449Y0296983D01*
X0014570Y0297447D01*
X0014703Y0297907D01*
X0014846Y0298365D01*
X0015001Y0298818D01*
X0015167Y0299268D01*
X0015344Y0299714D01*
X0015531Y0300155D01*
X0015729Y0300591D01*
X0015938Y0301023D01*
X0016157Y0301449D01*
X0016387Y0301870D01*
X0016626Y0302285D01*
X0016876Y0302695D01*
X0017136Y0303098D01*
X0017405Y0303494D01*
X0017684Y0303884D01*
X0017972Y0304267D01*
X0018270Y0304643D01*
X0018577Y0305011D01*
X0018892Y0305372D01*
X0019216Y0305725D01*
X0019549Y0306070D01*
X0019890Y0306407D01*
X0020239Y0306736D01*
X0020596Y0307056D01*
X0020961Y0307367D01*
X0021333Y0307669D01*
X0021713Y0307962D01*
X0022099Y0308246D01*
X0022492Y0308520D01*
X0022892Y0308784D01*
X0023298Y0309039D01*
X0023711Y0309284D01*
X0024129Y0309518D01*
X0024552Y0309743D01*
X0024981Y0309957D01*
X0025415Y0310160D01*
X0025854Y0310353D01*
X0026298Y0310535D01*
X0026745Y0310706D01*
X0027197Y0310867D01*
X0027653Y0311016D01*
X0028112Y0311154D01*
X0028574Y0311281D01*
X0029039Y0311397D01*
X0029507Y0311501D01*
X0029977Y0311594D01*
X0030450Y0311675D01*
X0030924Y0311745D01*
X0031400Y0311803D01*
X0031877Y0311850D01*
X0032355Y0311885D01*
X0032834Y0311908D01*
X0033313Y0311920D01*
X0033793Y0311920D01*
X0034272Y0311908D01*
X0034751Y0311885D01*
X0035229Y0311850D01*
X0035706Y0311803D01*
X0036182Y0311745D01*
X0036656Y0311675D01*
X0037129Y0311594D01*
X0037599Y0311501D01*
X0038067Y0311397D01*
X0038532Y0311281D01*
X0038994Y0311154D01*
X0039453Y0311016D01*
X0039909Y0310867D01*
X0040361Y0310706D01*
X0040808Y0310535D01*
X0041252Y0310353D01*
X0041691Y0310160D01*
X0042125Y0309957D01*
X0042554Y0309743D01*
X0042977Y0309518D01*
X0043396Y0309284D01*
X0043808Y0309039D01*
X0044214Y0308784D01*
X0044614Y0308520D01*
X0045007Y0308246D01*
X0045393Y0307962D01*
X0045773Y0307669D01*
X0046145Y0307367D01*
X0046510Y0307056D01*
X0046867Y0306736D01*
X0047216Y0306407D01*
X0047557Y0306070D01*
X0047890Y0305725D01*
X0048214Y0305372D01*
X0048529Y0305011D01*
X0048836Y0304643D01*
X0049134Y0304267D01*
X0049422Y0303884D01*
X0049701Y0303494D01*
X0049970Y0303098D01*
X0050230Y0302695D01*
X0050480Y0302285D01*
X0050719Y0301870D01*
X0050949Y0301449D01*
X0051168Y0301023D01*
X0051377Y0300591D01*
X0051575Y0300155D01*
X0051762Y0299714D01*
X0051939Y0299268D01*
X0052105Y0298818D01*
X0052260Y0298365D01*
X0052403Y0297907D01*
X0052536Y0297447D01*
X0052657Y0296983D01*
X0052767Y0296516D01*
X0052866Y0296047D01*
X0052953Y0295576D01*
X0053028Y0295102D01*
X0053092Y0294627D01*
X0053145Y0294151D01*
X0053185Y0293673D01*
X0053215Y0293194D01*
X0053232Y0292715D01*
X0053238Y0292236D01*
X0053238Y0288299D01*
X0053243Y0287918D01*
X0053256Y0287538D01*
X0053279Y0287158D01*
X0053312Y0286779D01*
X0053353Y0286401D01*
X0053403Y0286024D01*
X0053463Y0285648D01*
X0053531Y0285273D01*
X0053609Y0284901D01*
X0053696Y0284530D01*
X0053791Y0284162D01*
X0053896Y0283796D01*
X0054009Y0283433D01*
X0054131Y0283072D01*
X0054261Y0282715D01*
X0054401Y0282361D01*
X0054548Y0282010D01*
X0054705Y0281663D01*
X0054869Y0281320D01*
X0055042Y0280981D01*
X0055223Y0280646D01*
X0055412Y0280315D01*
X0055609Y0279990D01*
X0055813Y0279669D01*
X0056026Y0279353D01*
X0056246Y0279043D01*
X0056473Y0278737D01*
X0056708Y0278438D01*
X0056950Y0278144D01*
X0057198Y0277856D01*
X0057454Y0277574D01*
X0057717Y0277299D01*
X0057986Y0277030D01*
X0058261Y0276767D01*
X0058543Y0276511D01*
X0058831Y0276263D01*
X0059125Y0276021D01*
X0059424Y0275786D01*
X0059730Y0275559D01*
X0060040Y0275339D01*
X0060356Y0275126D01*
X0060677Y0274922D01*
X0061002Y0274725D01*
X0061333Y0274536D01*
X0061668Y0274355D01*
X0062007Y0274182D01*
X0062350Y0274018D01*
X0062697Y0273861D01*
X0063048Y0273714D01*
X0063402Y0273574D01*
X0063759Y0273444D01*
X0064120Y0273322D01*
X0064483Y0273209D01*
X0064849Y0273104D01*
X0065217Y0273009D01*
X0065588Y0272922D01*
X0065960Y0272844D01*
X0066335Y0272776D01*
X0066711Y0272716D01*
X0067088Y0272666D01*
X0067466Y0272625D01*
X0067845Y0272592D01*
X0068225Y0272569D01*
X0068605Y0272556D01*
X0068986Y0272551D01*
X0154022Y0272551D01*
X0154403Y0272556D01*
X0154783Y0272569D01*
X0155163Y0272592D01*
X0155542Y0272625D01*
X0155920Y0272666D01*
X0156297Y0272716D01*
X0156673Y0272776D01*
X0157048Y0272844D01*
X0157420Y0272922D01*
X0157791Y0273009D01*
X0158159Y0273104D01*
X0158525Y0273209D01*
X0158888Y0273322D01*
X0159249Y0273444D01*
X0159606Y0273574D01*
X0159960Y0273714D01*
X0160311Y0273861D01*
X0160658Y0274018D01*
X0161001Y0274182D01*
X0161340Y0274355D01*
X0161675Y0274536D01*
X0162006Y0274725D01*
X0162331Y0274922D01*
X0162652Y0275126D01*
X0162968Y0275339D01*
X0163278Y0275559D01*
X0163584Y0275786D01*
X0163883Y0276021D01*
X0164177Y0276263D01*
X0164465Y0276511D01*
X0164747Y0276767D01*
X0165022Y0277030D01*
X0165291Y0277299D01*
X0165554Y0277574D01*
X0165810Y0277856D01*
X0166058Y0278144D01*
X0166300Y0278438D01*
X0166535Y0278737D01*
X0166762Y0279043D01*
X0166982Y0279353D01*
X0167195Y0279669D01*
X0167399Y0279990D01*
X0167596Y0280315D01*
X0167785Y0280646D01*
X0167966Y0280981D01*
X0168139Y0281320D01*
X0168303Y0281663D01*
X0168460Y0282010D01*
X0168607Y0282361D01*
X0168747Y0282715D01*
X0168877Y0283072D01*
X0168999Y0283433D01*
X0169112Y0283796D01*
X0169217Y0284162D01*
X0169312Y0284530D01*
X0169399Y0284901D01*
X0169477Y0285273D01*
X0169545Y0285648D01*
X0169605Y0286024D01*
X0169655Y0286401D01*
X0169696Y0286779D01*
X0169729Y0287158D01*
X0169752Y0287538D01*
X0169765Y0287918D01*
X0169770Y0288299D01*
X0169770Y0292236D01*
X0169776Y0292715D01*
X0169793Y0293194D01*
X0169823Y0293673D01*
X0169863Y0294151D01*
X0169916Y0294627D01*
X0169980Y0295102D01*
X0170055Y0295576D01*
X0170142Y0296047D01*
X0170241Y0296516D01*
X0170351Y0296983D01*
X0170472Y0297447D01*
X0170605Y0297907D01*
X0170748Y0298365D01*
X0170903Y0298818D01*
X0171069Y0299268D01*
X0171246Y0299714D01*
X0171433Y0300155D01*
X0171631Y0300591D01*
X0171840Y0301023D01*
X0172059Y0301449D01*
X0172289Y0301870D01*
X0172528Y0302285D01*
X0172778Y0302695D01*
X0173038Y0303098D01*
X0173307Y0303494D01*
X0173586Y0303884D01*
X0173874Y0304267D01*
X0174172Y0304643D01*
X0174479Y0305011D01*
X0174794Y0305372D01*
X0175118Y0305725D01*
X0175451Y0306070D01*
X0175792Y0306407D01*
X0176141Y0306736D01*
X0176498Y0307056D01*
X0176863Y0307367D01*
X0177235Y0307669D01*
X0177615Y0307962D01*
X0178001Y0308246D01*
X0178394Y0308520D01*
X0178794Y0308784D01*
X0179200Y0309039D01*
X0179613Y0309284D01*
X0180031Y0309518D01*
X0180454Y0309743D01*
X0180883Y0309957D01*
X0181317Y0310160D01*
X0181756Y0310353D01*
X0182200Y0310535D01*
X0182647Y0310706D01*
X0183099Y0310867D01*
X0183555Y0311016D01*
X0184014Y0311154D01*
X0184476Y0311281D01*
X0184941Y0311397D01*
X0185409Y0311501D01*
X0185879Y0311594D01*
X0186352Y0311675D01*
X0186826Y0311745D01*
X0187302Y0311803D01*
X0187779Y0311850D01*
X0188257Y0311885D01*
X0188736Y0311908D01*
X0189215Y0311920D01*
X0189695Y0311920D01*
X0190174Y0311908D01*
X0190653Y0311885D01*
X0191131Y0311850D01*
X0191608Y0311803D01*
X0192084Y0311745D01*
X0192558Y0311675D01*
X0193031Y0311594D01*
X0193501Y0311501D01*
X0193969Y0311397D01*
X0194434Y0311281D01*
X0194896Y0311154D01*
X0195355Y0311016D01*
X0195811Y0310867D01*
X0196263Y0310706D01*
X0196710Y0310535D01*
X0197154Y0310353D01*
X0197593Y0310160D01*
X0198027Y0309957D01*
X0198456Y0309743D01*
X0198879Y0309518D01*
X0199298Y0309284D01*
X0199710Y0309039D01*
X0200116Y0308784D01*
X0200516Y0308520D01*
X0200909Y0308246D01*
X0201295Y0307962D01*
X0201675Y0307669D01*
X0202047Y0307367D01*
X0202412Y0307056D01*
X0202769Y0306736D01*
X0203118Y0306407D01*
X0203459Y0306070D01*
X0203792Y0305725D01*
X0204116Y0305372D01*
X0204431Y0305011D01*
X0204738Y0304643D01*
X0205036Y0304267D01*
X0205324Y0303884D01*
X0205603Y0303494D01*
X0205872Y0303098D01*
X0206132Y0302695D01*
X0206382Y0302285D01*
X0206621Y0301870D01*
X0206851Y0301449D01*
X0207070Y0301023D01*
X0207279Y0300591D01*
X0207477Y0300155D01*
X0207664Y0299714D01*
X0207841Y0299268D01*
X0208007Y0298818D01*
X0208162Y0298365D01*
X0208305Y0297907D01*
X0208438Y0297447D01*
X0208559Y0296983D01*
X0208669Y0296516D01*
X0208768Y0296047D01*
X0208855Y0295576D01*
X0208930Y0295102D01*
X0208994Y0294627D01*
X0209047Y0294151D01*
X0209087Y0293673D01*
X0209117Y0293194D01*
X0209134Y0292715D01*
X0209140Y0292236D01*
X0209140Y0288299D01*
X0209145Y0287918D01*
X0209158Y0287538D01*
X0209181Y0287158D01*
X0209214Y0286779D01*
X0209255Y0286401D01*
X0209305Y0286024D01*
X0209365Y0285648D01*
X0209433Y0285273D01*
X0209511Y0284901D01*
X0209598Y0284530D01*
X0209693Y0284162D01*
X0209798Y0283796D01*
X0209911Y0283433D01*
X0210033Y0283072D01*
X0210163Y0282715D01*
X0210303Y0282361D01*
X0210450Y0282010D01*
X0210607Y0281663D01*
X0210771Y0281320D01*
X0210944Y0280981D01*
X0211125Y0280646D01*
X0211314Y0280315D01*
X0211511Y0279990D01*
X0211715Y0279669D01*
X0211928Y0279353D01*
X0212148Y0279043D01*
X0212375Y0278737D01*
X0212610Y0278438D01*
X0212852Y0278144D01*
X0213100Y0277856D01*
X0213356Y0277574D01*
X0213619Y0277299D01*
X0213888Y0277030D01*
X0214163Y0276767D01*
X0214445Y0276511D01*
X0214733Y0276263D01*
X0215027Y0276021D01*
X0215326Y0275786D01*
X0215632Y0275559D01*
X0215942Y0275339D01*
X0216258Y0275126D01*
X0216579Y0274922D01*
X0216904Y0274725D01*
X0217235Y0274536D01*
X0217570Y0274355D01*
X0217909Y0274182D01*
X0218252Y0274018D01*
X0218599Y0273861D01*
X0218950Y0273714D01*
X0219304Y0273574D01*
X0219661Y0273444D01*
X0220022Y0273322D01*
X0220385Y0273209D01*
X0220751Y0273104D01*
X0221119Y0273009D01*
X0221490Y0272922D01*
X0221862Y0272844D01*
X0222237Y0272776D01*
X0222613Y0272716D01*
X0222990Y0272666D01*
X0223368Y0272625D01*
X0223747Y0272592D01*
X0224127Y0272569D01*
X0224507Y0272556D01*
X0224888Y0272551D01*
X0309923Y0272551D01*
X0310304Y0272556D01*
X0310684Y0272569D01*
X0311064Y0272592D01*
X0311443Y0272625D01*
X0311821Y0272666D01*
X0312198Y0272716D01*
X0312574Y0272776D01*
X0312949Y0272844D01*
X0313321Y0272922D01*
X0313692Y0273009D01*
X0314060Y0273104D01*
X0314426Y0273209D01*
X0314789Y0273322D01*
X0315150Y0273444D01*
X0315507Y0273574D01*
X0315861Y0273714D01*
X0316212Y0273861D01*
X0316559Y0274018D01*
X0316902Y0274182D01*
X0317241Y0274355D01*
X0317576Y0274536D01*
X0317907Y0274725D01*
X0318232Y0274922D01*
X0318553Y0275126D01*
X0318869Y0275339D01*
X0319179Y0275559D01*
X0319485Y0275786D01*
X0319784Y0276021D01*
X0320078Y0276263D01*
X0320366Y0276511D01*
X0320648Y0276767D01*
X0320923Y0277030D01*
X0321192Y0277299D01*
X0321455Y0277574D01*
X0321711Y0277856D01*
X0321959Y0278144D01*
X0322201Y0278438D01*
X0322436Y0278737D01*
X0322663Y0279043D01*
X0322883Y0279353D01*
X0323096Y0279669D01*
X0323300Y0279990D01*
X0323497Y0280315D01*
X0323686Y0280646D01*
X0323867Y0280981D01*
X0324040Y0281320D01*
X0324204Y0281663D01*
X0324361Y0282010D01*
X0324508Y0282361D01*
X0324648Y0282715D01*
X0324778Y0283072D01*
X0324900Y0283433D01*
X0325013Y0283796D01*
X0325118Y0284162D01*
X0325213Y0284530D01*
X0325300Y0284901D01*
X0325378Y0285273D01*
X0325446Y0285648D01*
X0325506Y0286024D01*
X0325556Y0286401D01*
X0325597Y0286779D01*
X0325630Y0287158D01*
X0325653Y0287538D01*
X0325666Y0287918D01*
X0325671Y0288299D01*
X0325671Y0292236D01*
X0325677Y0292715D01*
X0325694Y0293194D01*
X0325724Y0293673D01*
X0325764Y0294151D01*
X0325817Y0294627D01*
X0325881Y0295102D01*
X0325956Y0295576D01*
X0326043Y0296047D01*
X0326142Y0296516D01*
X0326252Y0296983D01*
X0326373Y0297447D01*
X0326506Y0297907D01*
X0326649Y0298365D01*
X0326804Y0298818D01*
X0326970Y0299268D01*
X0327147Y0299714D01*
X0327334Y0300155D01*
X0327532Y0300591D01*
X0327741Y0301023D01*
X0327960Y0301449D01*
X0328190Y0301870D01*
X0328429Y0302285D01*
X0328679Y0302695D01*
X0328939Y0303098D01*
X0329208Y0303494D01*
X0329487Y0303884D01*
X0329775Y0304267D01*
X0330073Y0304643D01*
X0330380Y0305011D01*
X0330695Y0305372D01*
X0331019Y0305725D01*
X0331352Y0306070D01*
X0331693Y0306407D01*
X0332042Y0306736D01*
X0332399Y0307056D01*
X0332764Y0307367D01*
X0333136Y0307669D01*
X0333516Y0307962D01*
X0333902Y0308246D01*
X0334295Y0308520D01*
X0334695Y0308784D01*
X0335101Y0309039D01*
X0335514Y0309284D01*
X0335932Y0309518D01*
X0336355Y0309743D01*
X0336784Y0309957D01*
X0337218Y0310160D01*
X0337657Y0310353D01*
X0338101Y0310535D01*
X0338548Y0310706D01*
X0339000Y0310867D01*
X0339456Y0311016D01*
X0339915Y0311154D01*
X0340377Y0311281D01*
X0340842Y0311397D01*
X0341310Y0311501D01*
X0341780Y0311594D01*
X0342253Y0311675D01*
X0342727Y0311745D01*
X0343203Y0311803D01*
X0343680Y0311850D01*
X0344158Y0311885D01*
X0344637Y0311908D01*
X0345116Y0311920D01*
X0345596Y0311920D01*
X0346075Y0311908D01*
X0346554Y0311885D01*
X0347032Y0311850D01*
X0347509Y0311803D01*
X0347985Y0311745D01*
X0348459Y0311675D01*
X0348932Y0311594D01*
X0349402Y0311501D01*
X0349870Y0311397D01*
X0350335Y0311281D01*
X0350797Y0311154D01*
X0351256Y0311016D01*
X0351712Y0310867D01*
X0352164Y0310706D01*
X0352611Y0310535D01*
X0353055Y0310353D01*
X0353494Y0310160D01*
X0353928Y0309957D01*
X0354357Y0309743D01*
X0354780Y0309518D01*
X0355199Y0309284D01*
X0355611Y0309039D01*
X0356017Y0308784D01*
X0356417Y0308520D01*
X0356810Y0308246D01*
X0357196Y0307962D01*
X0357576Y0307669D01*
X0357948Y0307367D01*
X0358313Y0307056D01*
X0358670Y0306736D01*
X0359019Y0306407D01*
X0359360Y0306070D01*
X0359693Y0305725D01*
X0360017Y0305372D01*
X0360332Y0305011D01*
X0360639Y0304643D01*
X0360937Y0304267D01*
X0361225Y0303884D01*
X0361504Y0303494D01*
X0361773Y0303098D01*
X0362033Y0302695D01*
X0362283Y0302285D01*
X0362522Y0301870D01*
X0362752Y0301449D01*
X0362971Y0301023D01*
X0363180Y0300591D01*
X0363378Y0300155D01*
X0363565Y0299714D01*
X0363742Y0299268D01*
X0363908Y0298818D01*
X0364063Y0298365D01*
X0364206Y0297907D01*
X0364339Y0297447D01*
X0364460Y0296983D01*
X0364570Y0296516D01*
X0364669Y0296047D01*
X0364756Y0295576D01*
X0364831Y0295102D01*
X0364895Y0294627D01*
X0364948Y0294151D01*
X0364988Y0293673D01*
X0365018Y0293194D01*
X0365035Y0292715D01*
X0365041Y0292236D01*
X0365041Y0029165D01*
X0365035Y0028686D01*
X0365018Y0028207D01*
X0364988Y0027728D01*
X0364948Y0027250D01*
X0364895Y0026774D01*
X0364831Y0026299D01*
X0364756Y0025825D01*
X0364669Y0025354D01*
X0364570Y0024885D01*
X0364460Y0024418D01*
X0364339Y0023954D01*
X0364206Y0023494D01*
X0364063Y0023036D01*
X0363908Y0022583D01*
X0363742Y0022133D01*
X0363565Y0021687D01*
X0363378Y0021246D01*
X0363180Y0020810D01*
X0362971Y0020378D01*
X0362752Y0019952D01*
X0362522Y0019531D01*
X0362283Y0019116D01*
X0362033Y0018706D01*
X0361773Y0018303D01*
X0361504Y0017907D01*
X0361225Y0017517D01*
X0360937Y0017134D01*
X0360639Y0016758D01*
X0360332Y0016390D01*
X0360017Y0016029D01*
X0359693Y0015676D01*
X0359360Y0015331D01*
X0359019Y0014994D01*
X0358670Y0014665D01*
X0358313Y0014345D01*
X0357948Y0014034D01*
X0357576Y0013732D01*
X0357196Y0013439D01*
X0356810Y0013155D01*
X0356417Y0012881D01*
X0356017Y0012617D01*
X0355611Y0012362D01*
X0355199Y0012117D01*
X0354780Y0011883D01*
X0354357Y0011658D01*
X0353928Y0011444D01*
X0353494Y0011241D01*
X0353055Y0011048D01*
X0352611Y0010866D01*
X0352164Y0010695D01*
X0351712Y0010534D01*
X0351256Y0010385D01*
X0350797Y0010247D01*
X0350335Y0010120D01*
X0349870Y0010004D01*
X0349402Y0009900D01*
X0348932Y0009807D01*
X0348459Y0009726D01*
X0347985Y0009656D01*
X0347509Y0009598D01*
X0347032Y0009551D01*
X0346554Y0009516D01*
X0346075Y0009493D01*
X0345596Y0009481D01*
X0345116Y0009481D01*
X0344637Y0009493D01*
X0344158Y0009516D01*
X0343680Y0009551D01*
X0343203Y0009598D01*
X0342727Y0009656D01*
X0342253Y0009726D01*
X0341780Y0009807D01*
X0341310Y0009900D01*
X0340842Y0010004D01*
X0340377Y0010120D01*
X0339915Y0010247D01*
X0339456Y0010385D01*
X0339000Y0010534D01*
X0338548Y0010695D01*
X0338101Y0010866D01*
X0337657Y0011048D01*
X0337218Y0011241D01*
X0336784Y0011444D01*
X0336355Y0011658D01*
X0335932Y0011883D01*
X0335514Y0012117D01*
X0335101Y0012362D01*
X0334695Y0012617D01*
X0334295Y0012881D01*
X0333902Y0013155D01*
X0333516Y0013439D01*
X0333136Y0013732D01*
X0332764Y0014034D01*
X0332399Y0014345D01*
X0332042Y0014665D01*
X0331693Y0014994D01*
X0331352Y0015331D01*
X0331019Y0015676D01*
X0330695Y0016029D01*
X0330380Y0016390D01*
X0330073Y0016758D01*
X0329775Y0017134D01*
X0329487Y0017517D01*
X0329208Y0017907D01*
X0328939Y0018303D01*
X0328679Y0018706D01*
X0328429Y0019116D01*
X0328190Y0019531D01*
X0327960Y0019952D01*
X0327741Y0020378D01*
X0327532Y0020810D01*
X0327334Y0021246D01*
X0327147Y0021687D01*
X0326970Y0022133D01*
X0326804Y0022583D01*
X0326649Y0023036D01*
X0326506Y0023494D01*
X0326373Y0023954D01*
X0326252Y0024418D01*
X0326142Y0024885D01*
X0326043Y0025354D01*
X0325956Y0025825D01*
X0325881Y0026299D01*
X0325817Y0026774D01*
X0325764Y0027250D01*
X0325724Y0027728D01*
X0325694Y0028207D01*
X0325677Y0028686D01*
X0325671Y0029165D01*
X0325671Y0033102D01*
X0325666Y0033483D01*
X0325653Y0033863D01*
X0325630Y0034243D01*
X0325597Y0034622D01*
X0325556Y0035000D01*
X0325506Y0035377D01*
X0325446Y0035753D01*
X0325378Y0036128D01*
X0325300Y0036500D01*
X0325213Y0036871D01*
X0325118Y0037239D01*
X0325013Y0037605D01*
X0324900Y0037968D01*
X0324778Y0038329D01*
X0324648Y0038686D01*
X0324508Y0039040D01*
X0324361Y0039391D01*
X0324204Y0039738D01*
X0324040Y0040081D01*
X0323867Y0040420D01*
X0323686Y0040755D01*
X0323497Y0041086D01*
X0323300Y0041411D01*
X0323096Y0041732D01*
X0322883Y0042048D01*
X0322663Y0042358D01*
X0322436Y0042664D01*
X0322201Y0042963D01*
X0321959Y0043257D01*
X0321711Y0043545D01*
X0321455Y0043827D01*
X0321192Y0044102D01*
X0320923Y0044371D01*
X0320648Y0044634D01*
X0320366Y0044890D01*
X0320078Y0045138D01*
X0319784Y0045380D01*
X0319485Y0045615D01*
X0319179Y0045842D01*
X0318869Y0046062D01*
X0318553Y0046275D01*
X0318232Y0046479D01*
X0317907Y0046676D01*
X0317576Y0046865D01*
X0317241Y0047046D01*
X0316902Y0047219D01*
X0316559Y0047383D01*
X0316212Y0047540D01*
X0315861Y0047687D01*
X0315507Y0047827D01*
X0315150Y0047957D01*
X0314789Y0048079D01*
X0314426Y0048192D01*
X0314060Y0048297D01*
X0313692Y0048392D01*
X0313321Y0048479D01*
X0312949Y0048557D01*
X0312574Y0048625D01*
X0312198Y0048685D01*
X0311821Y0048735D01*
X0311443Y0048776D01*
X0311064Y0048809D01*
X0310684Y0048832D01*
X0310304Y0048845D01*
X0309923Y0048850D01*
X0224888Y0048850D01*
X0224507Y0048845D01*
X0224127Y0048832D01*
X0223747Y0048809D01*
X0223368Y0048776D01*
X0222990Y0048735D01*
X0222613Y0048685D01*
X0222237Y0048625D01*
X0221862Y0048557D01*
X0221490Y0048479D01*
X0221119Y0048392D01*
X0220751Y0048297D01*
X0220385Y0048192D01*
X0220022Y0048079D01*
X0219661Y0047957D01*
X0219304Y0047827D01*
X0218950Y0047687D01*
X0218599Y0047540D01*
X0218252Y0047383D01*
X0217909Y0047219D01*
X0217570Y0047046D01*
X0217235Y0046865D01*
X0216904Y0046676D01*
X0216579Y0046479D01*
X0216258Y0046275D01*
X0215942Y0046062D01*
X0215632Y0045842D01*
X0215326Y0045615D01*
X0215027Y0045380D01*
X0214733Y0045138D01*
X0214445Y0044890D01*
X0214163Y0044634D01*
X0213888Y0044371D01*
X0213619Y0044102D01*
X0213356Y0043827D01*
X0213100Y0043545D01*
X0212852Y0043257D01*
X0212610Y0042963D01*
X0212375Y0042664D01*
X0212148Y0042358D01*
X0211928Y0042048D01*
X0211715Y0041732D01*
X0211511Y0041411D01*
X0211314Y0041086D01*
X0211125Y0040755D01*
X0210944Y0040420D01*
X0210771Y0040081D01*
X0210607Y0039738D01*
X0210450Y0039391D01*
X0210303Y0039040D01*
X0210163Y0038686D01*
X0210033Y0038329D01*
X0209911Y0037968D01*
X0209798Y0037605D01*
X0209693Y0037239D01*
X0209598Y0036871D01*
X0209511Y0036500D01*
X0209433Y0036128D01*
X0209365Y0035753D01*
X0209305Y0035377D01*
X0209255Y0035000D01*
X0209214Y0034622D01*
X0209181Y0034243D01*
X0209158Y0033863D01*
X0209145Y0033483D01*
X0209140Y0033102D01*
X0209140Y0029165D01*
X0209134Y0028686D01*
X0209117Y0028207D01*
X0209087Y0027728D01*
X0209047Y0027250D01*
X0208994Y0026774D01*
X0208930Y0026299D01*
X0208855Y0025825D01*
X0208768Y0025354D01*
X0208669Y0024885D01*
X0208559Y0024418D01*
X0208438Y0023954D01*
X0208305Y0023494D01*
X0208162Y0023036D01*
X0208007Y0022583D01*
X0207841Y0022133D01*
X0207664Y0021687D01*
X0207477Y0021246D01*
X0207279Y0020810D01*
X0207070Y0020378D01*
X0206851Y0019952D01*
X0206621Y0019531D01*
X0206382Y0019116D01*
X0206132Y0018706D01*
X0205872Y0018303D01*
X0205603Y0017907D01*
X0205324Y0017517D01*
X0205036Y0017134D01*
X0204738Y0016758D01*
X0204431Y0016390D01*
X0204116Y0016029D01*
X0203792Y0015676D01*
X0203459Y0015331D01*
X0203118Y0014994D01*
X0202769Y0014665D01*
X0202412Y0014345D01*
X0202047Y0014034D01*
X0201675Y0013732D01*
X0201295Y0013439D01*
X0200909Y0013155D01*
X0200516Y0012881D01*
X0200116Y0012617D01*
X0199710Y0012362D01*
X0199298Y0012117D01*
X0198879Y0011883D01*
X0198456Y0011658D01*
X0198027Y0011444D01*
X0197593Y0011241D01*
X0197154Y0011048D01*
X0196710Y0010866D01*
X0196263Y0010695D01*
X0195811Y0010534D01*
X0195355Y0010385D01*
X0194896Y0010247D01*
X0194434Y0010120D01*
X0193969Y0010004D01*
X0193501Y0009900D01*
X0193031Y0009807D01*
X0192558Y0009726D01*
X0192084Y0009656D01*
X0191608Y0009598D01*
X0191131Y0009551D01*
X0190653Y0009516D01*
X0190174Y0009493D01*
X0189695Y0009481D01*
X0189215Y0009481D01*
X0188736Y0009493D01*
X0188257Y0009516D01*
X0187779Y0009551D01*
X0187302Y0009598D01*
X0186826Y0009656D01*
X0186352Y0009726D01*
X0185879Y0009807D01*
X0185409Y0009900D01*
X0184941Y0010004D01*
X0184476Y0010120D01*
X0184014Y0010247D01*
X0183555Y0010385D01*
X0183099Y0010534D01*
X0182647Y0010695D01*
X0182200Y0010866D01*
X0181756Y0011048D01*
X0181317Y0011241D01*
X0180883Y0011444D01*
X0180454Y0011658D01*
X0180031Y0011883D01*
X0179613Y0012117D01*
X0179200Y0012362D01*
X0178794Y0012617D01*
X0178394Y0012881D01*
X0178001Y0013155D01*
X0177615Y0013439D01*
X0177235Y0013732D01*
X0176863Y0014034D01*
X0176498Y0014345D01*
X0176141Y0014665D01*
X0175792Y0014994D01*
X0175451Y0015331D01*
X0175118Y0015676D01*
X0174794Y0016029D01*
X0174479Y0016390D01*
X0174172Y0016758D01*
X0173874Y0017134D01*
X0173586Y0017517D01*
X0173307Y0017907D01*
X0173038Y0018303D01*
X0172778Y0018706D01*
X0172528Y0019116D01*
X0172289Y0019531D01*
X0172059Y0019952D01*
X0171840Y0020378D01*
X0171631Y0020810D01*
X0171433Y0021246D01*
X0171246Y0021687D01*
X0171069Y0022133D01*
X0170903Y0022583D01*
X0170748Y0023036D01*
X0170605Y0023494D01*
X0170472Y0023954D01*
X0170351Y0024418D01*
X0170241Y0024885D01*
X0170142Y0025354D01*
X0170055Y0025825D01*
X0169980Y0026299D01*
X0169916Y0026774D01*
X0169863Y0027250D01*
X0169823Y0027728D01*
X0169793Y0028207D01*
X0169776Y0028686D01*
X0169770Y0029165D01*
X0169770Y0033102D01*
X0169765Y0033483D01*
X0169752Y0033863D01*
X0169729Y0034243D01*
X0169696Y0034622D01*
X0169655Y0035000D01*
X0169605Y0035377D01*
X0169545Y0035753D01*
X0169477Y0036128D01*
X0169399Y0036500D01*
X0169312Y0036871D01*
X0169217Y0037239D01*
X0169112Y0037605D01*
X0168999Y0037968D01*
X0168877Y0038329D01*
X0168747Y0038686D01*
X0168607Y0039040D01*
X0168460Y0039391D01*
X0168303Y0039738D01*
X0168139Y0040081D01*
X0167966Y0040420D01*
X0167785Y0040755D01*
X0167596Y0041086D01*
X0167399Y0041411D01*
X0167195Y0041732D01*
X0166982Y0042048D01*
X0166762Y0042358D01*
X0166535Y0042664D01*
X0166300Y0042963D01*
X0166058Y0043257D01*
X0165810Y0043545D01*
X0165554Y0043827D01*
X0165291Y0044102D01*
X0165022Y0044371D01*
X0164747Y0044634D01*
X0164465Y0044890D01*
X0164177Y0045138D01*
X0163883Y0045380D01*
X0163584Y0045615D01*
X0163278Y0045842D01*
X0162968Y0046062D01*
X0162652Y0046275D01*
X0162331Y0046479D01*
X0162006Y0046676D01*
X0161675Y0046865D01*
X0161340Y0047046D01*
X0161001Y0047219D01*
X0160658Y0047383D01*
X0160311Y0047540D01*
X0159960Y0047687D01*
X0159606Y0047827D01*
X0159249Y0047957D01*
X0158888Y0048079D01*
X0158525Y0048192D01*
X0158159Y0048297D01*
X0157791Y0048392D01*
X0157420Y0048479D01*
X0157048Y0048557D01*
X0156673Y0048625D01*
X0156297Y0048685D01*
X0155920Y0048735D01*
X0155542Y0048776D01*
X0155163Y0048809D01*
X0154783Y0048832D01*
X0154403Y0048845D01*
X0154022Y0048850D01*
X0068986Y0048850D01*
X0068605Y0048845D01*
X0068225Y0048832D01*
X0067845Y0048809D01*
X0067466Y0048776D01*
X0067088Y0048735D01*
X0066711Y0048685D01*
X0066335Y0048625D01*
X0065960Y0048557D01*
X0065588Y0048479D01*
X0065217Y0048392D01*
X0064849Y0048297D01*
X0064483Y0048192D01*
X0064120Y0048079D01*
X0063759Y0047957D01*
X0063402Y0047827D01*
X0063048Y0047687D01*
X0062697Y0047540D01*
X0062350Y0047383D01*
X0062007Y0047219D01*
X0061668Y0047046D01*
X0061333Y0046865D01*
X0061002Y0046676D01*
X0060677Y0046479D01*
X0060356Y0046275D01*
X0060040Y0046062D01*
X0059730Y0045842D01*
X0059424Y0045615D01*
X0059125Y0045380D01*
X0058831Y0045138D01*
X0058543Y0044890D01*
X0058261Y0044634D01*
X0057986Y0044371D01*
X0057717Y0044102D01*
X0057454Y0043827D01*
X0057198Y0043545D01*
X0056950Y0043257D01*
X0056708Y0042963D01*
X0056473Y0042664D01*
X0056246Y0042358D01*
X0056026Y0042048D01*
X0055813Y0041732D01*
X0055609Y0041411D01*
X0055412Y0041086D01*
X0055223Y0040755D01*
X0055042Y0040420D01*
X0054869Y0040081D01*
X0054705Y0039738D01*
X0054548Y0039391D01*
X0054401Y0039040D01*
X0054261Y0038686D01*
X0054131Y0038329D01*
X0054009Y0037968D01*
X0053896Y0037605D01*
X0053791Y0037239D01*
X0053696Y0036871D01*
X0053609Y0036500D01*
X0053531Y0036128D01*
X0053463Y0035753D01*
X0053403Y0035377D01*
X0053353Y0035000D01*
X0053312Y0034622D01*
X0053279Y0034243D01*
X0053256Y0033863D01*
X0053243Y0033483D01*
X0053238Y0033102D01*
X0053238Y0029165D01*
X0053232Y0028686D01*
X0053215Y0028207D01*
X0053185Y0027728D01*
X0053145Y0027250D01*
X0053092Y0026774D01*
X0053028Y0026299D01*
X0052953Y0025825D01*
X0052866Y0025354D01*
X0052767Y0024885D01*
X0052657Y0024418D01*
X0052536Y0023954D01*
X0052403Y0023494D01*
X0052260Y0023036D01*
X0052105Y0022583D01*
X0051939Y0022133D01*
X0051762Y0021687D01*
X0051575Y0021246D01*
X0051377Y0020810D01*
X0051168Y0020378D01*
X0050949Y0019952D01*
X0050719Y0019531D01*
X0050480Y0019116D01*
X0050230Y0018706D01*
X0049970Y0018303D01*
X0049701Y0017907D01*
X0049422Y0017517D01*
X0049134Y0017134D01*
X0048836Y0016758D01*
X0048529Y0016390D01*
X0048214Y0016029D01*
X0047890Y0015676D01*
X0047557Y0015331D01*
X0047216Y0014994D01*
X0046867Y0014665D01*
X0046510Y0014345D01*
X0046145Y0014034D01*
X0045773Y0013732D01*
X0045393Y0013439D01*
X0045007Y0013155D01*
X0044614Y0012881D01*
X0044214Y0012617D01*
X0043808Y0012362D01*
X0043396Y0012117D01*
X0042977Y0011883D01*
X0042554Y0011658D01*
X0042125Y0011444D01*
X0041691Y0011241D01*
X0041252Y0011048D01*
X0040808Y0010866D01*
X0040361Y0010695D01*
X0039909Y0010534D01*
X0039453Y0010385D01*
X0038994Y0010247D01*
X0038532Y0010120D01*
X0038067Y0010004D01*
X0037599Y0009900D01*
X0037129Y0009807D01*
X0036656Y0009726D01*
X0036182Y0009656D01*
X0035706Y0009598D01*
X0035229Y0009551D01*
X0034751Y0009516D01*
X0034272Y0009493D01*
X0033793Y0009481D01*
X0033313Y0009481D01*
X0032834Y0009493D01*
X0032355Y0009516D01*
X0031877Y0009551D01*
X0031400Y0009598D01*
X0030924Y0009656D01*
X0030450Y0009726D01*
X0029977Y0009807D01*
X0029507Y0009900D01*
X0029039Y0010004D01*
X0028574Y0010120D01*
X0028112Y0010247D01*
X0027653Y0010385D01*
X0027197Y0010534D01*
X0026745Y0010695D01*
X0026298Y0010866D01*
X0025854Y0011048D01*
X0025415Y0011241D01*
X0024981Y0011444D01*
X0024552Y0011658D01*
X0024129Y0011883D01*
X0023711Y0012117D01*
X0023298Y0012362D01*
X0022892Y0012617D01*
X0022492Y0012881D01*
X0022099Y0013155D01*
X0021713Y0013439D01*
X0021333Y0013732D01*
X0020961Y0014034D01*
X0020596Y0014345D01*
X0020239Y0014665D01*
X0019890Y0014994D01*
X0019549Y0015331D01*
X0019216Y0015676D01*
X0018892Y0016029D01*
X0018577Y0016390D01*
X0018270Y0016758D01*
X0017972Y0017134D01*
X0017684Y0017517D01*
X0017405Y0017907D01*
X0017136Y0018303D01*
X0016876Y0018706D01*
X0016626Y0019116D01*
X0016387Y0019531D01*
X0016157Y0019952D01*
X0015938Y0020378D01*
X0015729Y0020810D01*
X0015531Y0021246D01*
X0015344Y0021687D01*
X0015167Y0022133D01*
X0015001Y0022583D01*
X0014846Y0023036D01*
X0014703Y0023494D01*
X0014570Y0023954D01*
X0014449Y0024418D01*
X0014339Y0024885D01*
X0014240Y0025354D01*
X0014153Y0025825D01*
X0014078Y0026299D01*
X0014014Y0026774D01*
X0013961Y0027250D01*
X0013921Y0027728D01*
X0013891Y0028207D01*
X0013874Y0028686D01*
X0013868Y0029165D01*
D13*
X0096368Y0063850D03*
X0126368Y0063850D03*
X0156368Y0063850D03*
X0191368Y0063850D03*
X0221368Y0063850D03*
X0251368Y0063850D03*
X0348868Y0061350D03*
X0348868Y0168850D03*
X0246368Y0258850D03*
X0216368Y0258850D03*
X0186368Y0258850D03*
X0151368Y0258850D03*
X0121368Y0258850D03*
X0091368Y0258850D03*
D14*
X0091368Y0248850D03*
X0121368Y0248850D03*
X0151368Y0248850D03*
X0186368Y0248850D03*
X0216368Y0248850D03*
X0246368Y0248850D03*
X0281368Y0195102D03*
X0281368Y0185102D03*
X0348868Y0178850D03*
X0256368Y0118850D03*
X0256368Y0108850D03*
X0251368Y0073850D03*
X0221368Y0073850D03*
X0191368Y0073850D03*
X0156368Y0073850D03*
X0126368Y0073850D03*
X0096368Y0073850D03*
X0161368Y0108850D03*
X0161368Y0118850D03*
X0181368Y0203850D03*
X0181368Y0213850D03*
X0086368Y0213850D03*
X0086368Y0203850D03*
X0282616Y0072598D03*
X0292616Y0072598D03*
X0348868Y0071350D03*
D15*
X0216368Y0116050D02*
X0216368Y0121650D01*
X0206368Y0121650D02*
X0206368Y0116050D01*
X0196368Y0116050D02*
X0196368Y0121650D01*
X0121368Y0121650D02*
X0121368Y0116050D01*
X0111368Y0116050D02*
X0111368Y0121650D01*
X0101368Y0121650D02*
X0101368Y0116050D01*
X0126368Y0201050D02*
X0126368Y0206650D01*
X0136368Y0206650D02*
X0136368Y0201050D01*
X0146368Y0201050D02*
X0146368Y0206650D01*
X0221368Y0206650D02*
X0221368Y0201050D01*
X0231368Y0201050D02*
X0231368Y0206650D01*
X0241368Y0206650D02*
X0241368Y0201050D01*
D16*
X0242368Y0231350D03*
X0220368Y0231350D03*
X0188868Y0231350D03*
X0178868Y0231350D03*
X0147368Y0231350D03*
X0125368Y0231350D03*
X0093868Y0231350D03*
X0083868Y0231350D03*
X0100368Y0091350D03*
X0122368Y0091350D03*
X0153868Y0091350D03*
X0163868Y0091350D03*
X0195368Y0091350D03*
X0217368Y0091350D03*
X0248868Y0091350D03*
X0258868Y0091350D03*
X0303868Y0072598D03*
X0313868Y0072598D03*
X0291368Y0210102D03*
X0281368Y0210102D03*
D17*
X0250368Y0231350D03*
X0212368Y0231350D03*
X0155368Y0231350D03*
X0117368Y0231350D03*
X0130368Y0091350D03*
X0092368Y0091350D03*
X0187368Y0091350D03*
X0225368Y0091350D03*
D18*
X0221368Y0141350D03*
X0181368Y0141350D03*
X0161368Y0181350D03*
X0121368Y0181350D03*
X0126368Y0141350D03*
X0086368Y0141350D03*
X0216368Y0181350D03*
X0256368Y0181350D03*
D19*
X0238369Y0141350D02*
X0230769Y0141337D01*
X0250367Y0137350D02*
X0257967Y0137363D01*
X0206967Y0181363D02*
X0199367Y0181350D01*
X0187369Y0185350D02*
X0179769Y0185337D01*
X0143369Y0141350D02*
X0135769Y0141337D01*
X0155367Y0137350D02*
X0162967Y0137363D01*
X0111967Y0181363D02*
X0104367Y0181350D01*
X0092369Y0185350D02*
X0084769Y0185337D01*
D20*
X0312057Y0205102D02*
X0335679Y0205102D01*
X0335679Y0247598D02*
X0312057Y0247598D01*
X0312057Y0143850D02*
X0335679Y0143850D01*
X0335679Y0098850D02*
X0312057Y0098850D01*
D21*
X0061368Y0109803D02*
X0051368Y0109803D01*
X0051368Y0125393D02*
X0061368Y0125393D01*
X0061368Y0151055D02*
X0051368Y0151055D01*
X0051368Y0166645D02*
X0061368Y0166645D01*
X0061368Y0193555D02*
X0051368Y0193555D01*
X0051368Y0209145D02*
X0061368Y0209145D01*
X0061368Y0236055D02*
X0051368Y0236055D01*
X0051368Y0251645D02*
X0061368Y0251645D01*
X0061368Y0085393D02*
X0051368Y0085393D01*
X0051368Y0069803D02*
X0061368Y0069803D01*
M02*
