%
M48
M72
T01C0.02362
T02C0.03200
T03C0.03937
T04C0.04000
T05C0.04400
T06C0.11811
T07C0.12992
%
T01
X101368Y118850
X111368Y118850
X121368Y118850
X139569Y141344
X159167Y137356
X196368Y118850
X206368Y118850
X216368Y118850
X234569Y141344
X254167Y137356
X203167Y181356
X183569Y185344
X146368Y203850
X136368Y203850
X126368Y203850
X108167Y181356
X88569Y185344
X221368Y203850
X231368Y203850
X241368Y203850
T02
X92368Y91350
X100368Y91350
X122368Y91350
X130368Y91350
X153868Y91350
X163868Y91350
X161368Y108850
X161368Y118850
X187368Y91350
X195368Y91350
X217368Y91350
X225368Y91350
X248868Y91350
X258868Y91350
X256368Y108850
X256368Y118850
X282616Y72598
X292616Y72598
X303868Y72598
X313868Y72598
X281368Y185102
X281368Y195102
X281368Y210102
X291368Y210102
X250368Y231350
X242368Y231350
X220368Y231350
X212368Y231350
X188868Y231350
X178868Y231350
X181368Y213850
X181368Y203850
X155368Y231350
X147368Y231350
X125368Y231350
X117368Y231350
X93868Y231350
X83868Y231350
X86368Y213850
X86368Y203850
T03
X56368Y69803
X56368Y85393
X56368Y109803
X56368Y125393
X56368Y151055
X56368Y166645
X56368Y193555
X56368Y209145
X56368Y236055
X56368Y251645
T04
X151368Y258850
X151368Y248850
X121368Y248850
X121368Y258850
X91368Y258850
X91368Y248850
X221368Y63850
X221368Y73850
X191368Y73850
X191368Y63850
X251368Y63850
X251368Y73850
X96368Y63850
X96368Y73850
X126368Y73850
X126368Y63850
X156368Y63850
X156368Y73850
X348868Y61350
X348868Y71350
X348868Y168850
X348868Y178850
X246368Y248850
X246368Y258850
X216368Y258850
X216368Y248850
X186368Y248850
X186368Y258850
T05
X86368Y141350
X126368Y141350
X121368Y181350
X161368Y181350
X181368Y141350
X221368Y141350
X216368Y181350
X256368Y181350
T06
X323868Y98850
X323868Y143850
X323868Y205102
X323868Y247598
T07
X33553Y29165
X189455Y29165
X345356Y29165
X345356Y292236
X189455Y292236
X33553Y292236
M30
