G75*
%MOIN*%
%OFA0B0*%
%FSLAX25Y25*%
%IPPOS*%
%LPD*%
%AMOC8*
5,1,8,0,0,1.08239X$1,22.5*
%
%ADD10C,0.00000*%
%ADD11C,0.01000*%
%ADD12R,0.07400X0.07400*%
%ADD13C,0.07400*%
%ADD14C,0.05600*%
%ADD15OC8,0.05200*%
%ADD16C,0.05200*%
%ADD17C,0.06600*%
%ADD18C,0.07600*%
%ADD19C,0.23622*%
%ADD20C,0.10000*%
%ADD21C,0.02000*%
%ADD22C,0.02400*%
%ADD23C,0.06400*%
%ADD24C,0.01600*%
%ADD25C,0.03200*%
D10*
X0027057Y0029165D02*
X0027059Y0029326D01*
X0027065Y0029486D01*
X0027075Y0029647D01*
X0027089Y0029807D01*
X0027107Y0029966D01*
X0027128Y0030126D01*
X0027154Y0030284D01*
X0027184Y0030442D01*
X0027217Y0030599D01*
X0027255Y0030756D01*
X0027296Y0030911D01*
X0027341Y0031065D01*
X0027390Y0031218D01*
X0027443Y0031370D01*
X0027499Y0031520D01*
X0027559Y0031669D01*
X0027623Y0031817D01*
X0027690Y0031963D01*
X0027761Y0032107D01*
X0027836Y0032249D01*
X0027914Y0032390D01*
X0027995Y0032528D01*
X0028080Y0032665D01*
X0028169Y0032799D01*
X0028260Y0032931D01*
X0028355Y0033061D01*
X0028453Y0033188D01*
X0028554Y0033313D01*
X0028658Y0033436D01*
X0028765Y0033555D01*
X0028875Y0033672D01*
X0028988Y0033787D01*
X0029104Y0033898D01*
X0029222Y0034007D01*
X0029343Y0034112D01*
X0029467Y0034215D01*
X0029593Y0034315D01*
X0029722Y0034411D01*
X0029853Y0034504D01*
X0029986Y0034594D01*
X0030121Y0034681D01*
X0030259Y0034764D01*
X0030398Y0034843D01*
X0030540Y0034920D01*
X0030683Y0034993D01*
X0030828Y0035062D01*
X0030975Y0035127D01*
X0031123Y0035189D01*
X0031273Y0035248D01*
X0031424Y0035302D01*
X0031576Y0035353D01*
X0031730Y0035400D01*
X0031885Y0035443D01*
X0032040Y0035482D01*
X0032197Y0035518D01*
X0032355Y0035550D01*
X0032513Y0035577D01*
X0032672Y0035601D01*
X0032831Y0035621D01*
X0032991Y0035637D01*
X0033152Y0035649D01*
X0033312Y0035657D01*
X0033473Y0035661D01*
X0033633Y0035661D01*
X0033794Y0035657D01*
X0033954Y0035649D01*
X0034115Y0035637D01*
X0034275Y0035621D01*
X0034434Y0035601D01*
X0034593Y0035577D01*
X0034751Y0035550D01*
X0034909Y0035518D01*
X0035066Y0035482D01*
X0035221Y0035443D01*
X0035376Y0035400D01*
X0035530Y0035353D01*
X0035682Y0035302D01*
X0035833Y0035248D01*
X0035983Y0035189D01*
X0036131Y0035127D01*
X0036278Y0035062D01*
X0036423Y0034993D01*
X0036566Y0034920D01*
X0036708Y0034843D01*
X0036847Y0034764D01*
X0036985Y0034681D01*
X0037120Y0034594D01*
X0037253Y0034504D01*
X0037384Y0034411D01*
X0037513Y0034315D01*
X0037639Y0034215D01*
X0037763Y0034112D01*
X0037884Y0034007D01*
X0038002Y0033898D01*
X0038118Y0033787D01*
X0038231Y0033672D01*
X0038341Y0033555D01*
X0038448Y0033436D01*
X0038552Y0033313D01*
X0038653Y0033188D01*
X0038751Y0033061D01*
X0038846Y0032931D01*
X0038937Y0032799D01*
X0039026Y0032665D01*
X0039111Y0032528D01*
X0039192Y0032390D01*
X0039270Y0032249D01*
X0039345Y0032107D01*
X0039416Y0031963D01*
X0039483Y0031817D01*
X0039547Y0031669D01*
X0039607Y0031520D01*
X0039663Y0031370D01*
X0039716Y0031218D01*
X0039765Y0031065D01*
X0039810Y0030911D01*
X0039851Y0030756D01*
X0039889Y0030599D01*
X0039922Y0030442D01*
X0039952Y0030284D01*
X0039978Y0030126D01*
X0039999Y0029966D01*
X0040017Y0029807D01*
X0040031Y0029647D01*
X0040041Y0029486D01*
X0040047Y0029326D01*
X0040049Y0029165D01*
X0040047Y0029004D01*
X0040041Y0028844D01*
X0040031Y0028683D01*
X0040017Y0028523D01*
X0039999Y0028364D01*
X0039978Y0028204D01*
X0039952Y0028046D01*
X0039922Y0027888D01*
X0039889Y0027731D01*
X0039851Y0027574D01*
X0039810Y0027419D01*
X0039765Y0027265D01*
X0039716Y0027112D01*
X0039663Y0026960D01*
X0039607Y0026810D01*
X0039547Y0026661D01*
X0039483Y0026513D01*
X0039416Y0026367D01*
X0039345Y0026223D01*
X0039270Y0026081D01*
X0039192Y0025940D01*
X0039111Y0025802D01*
X0039026Y0025665D01*
X0038937Y0025531D01*
X0038846Y0025399D01*
X0038751Y0025269D01*
X0038653Y0025142D01*
X0038552Y0025017D01*
X0038448Y0024894D01*
X0038341Y0024775D01*
X0038231Y0024658D01*
X0038118Y0024543D01*
X0038002Y0024432D01*
X0037884Y0024323D01*
X0037763Y0024218D01*
X0037639Y0024115D01*
X0037513Y0024015D01*
X0037384Y0023919D01*
X0037253Y0023826D01*
X0037120Y0023736D01*
X0036985Y0023649D01*
X0036847Y0023566D01*
X0036708Y0023487D01*
X0036566Y0023410D01*
X0036423Y0023337D01*
X0036278Y0023268D01*
X0036131Y0023203D01*
X0035983Y0023141D01*
X0035833Y0023082D01*
X0035682Y0023028D01*
X0035530Y0022977D01*
X0035376Y0022930D01*
X0035221Y0022887D01*
X0035066Y0022848D01*
X0034909Y0022812D01*
X0034751Y0022780D01*
X0034593Y0022753D01*
X0034434Y0022729D01*
X0034275Y0022709D01*
X0034115Y0022693D01*
X0033954Y0022681D01*
X0033794Y0022673D01*
X0033633Y0022669D01*
X0033473Y0022669D01*
X0033312Y0022673D01*
X0033152Y0022681D01*
X0032991Y0022693D01*
X0032831Y0022709D01*
X0032672Y0022729D01*
X0032513Y0022753D01*
X0032355Y0022780D01*
X0032197Y0022812D01*
X0032040Y0022848D01*
X0031885Y0022887D01*
X0031730Y0022930D01*
X0031576Y0022977D01*
X0031424Y0023028D01*
X0031273Y0023082D01*
X0031123Y0023141D01*
X0030975Y0023203D01*
X0030828Y0023268D01*
X0030683Y0023337D01*
X0030540Y0023410D01*
X0030398Y0023487D01*
X0030259Y0023566D01*
X0030121Y0023649D01*
X0029986Y0023736D01*
X0029853Y0023826D01*
X0029722Y0023919D01*
X0029593Y0024015D01*
X0029467Y0024115D01*
X0029343Y0024218D01*
X0029222Y0024323D01*
X0029104Y0024432D01*
X0028988Y0024543D01*
X0028875Y0024658D01*
X0028765Y0024775D01*
X0028658Y0024894D01*
X0028554Y0025017D01*
X0028453Y0025142D01*
X0028355Y0025269D01*
X0028260Y0025399D01*
X0028169Y0025531D01*
X0028080Y0025665D01*
X0027995Y0025802D01*
X0027914Y0025940D01*
X0027836Y0026081D01*
X0027761Y0026223D01*
X0027690Y0026367D01*
X0027623Y0026513D01*
X0027559Y0026661D01*
X0027499Y0026810D01*
X0027443Y0026960D01*
X0027390Y0027112D01*
X0027341Y0027265D01*
X0027296Y0027419D01*
X0027255Y0027574D01*
X0027217Y0027731D01*
X0027184Y0027888D01*
X0027154Y0028046D01*
X0027128Y0028204D01*
X0027107Y0028364D01*
X0027089Y0028523D01*
X0027075Y0028683D01*
X0027065Y0028844D01*
X0027059Y0029004D01*
X0027057Y0029165D01*
X0182959Y0029165D02*
X0182961Y0029326D01*
X0182967Y0029486D01*
X0182977Y0029647D01*
X0182991Y0029807D01*
X0183009Y0029966D01*
X0183030Y0030126D01*
X0183056Y0030284D01*
X0183086Y0030442D01*
X0183119Y0030599D01*
X0183157Y0030756D01*
X0183198Y0030911D01*
X0183243Y0031065D01*
X0183292Y0031218D01*
X0183345Y0031370D01*
X0183401Y0031520D01*
X0183461Y0031669D01*
X0183525Y0031817D01*
X0183592Y0031963D01*
X0183663Y0032107D01*
X0183738Y0032249D01*
X0183816Y0032390D01*
X0183897Y0032528D01*
X0183982Y0032665D01*
X0184071Y0032799D01*
X0184162Y0032931D01*
X0184257Y0033061D01*
X0184355Y0033188D01*
X0184456Y0033313D01*
X0184560Y0033436D01*
X0184667Y0033555D01*
X0184777Y0033672D01*
X0184890Y0033787D01*
X0185006Y0033898D01*
X0185124Y0034007D01*
X0185245Y0034112D01*
X0185369Y0034215D01*
X0185495Y0034315D01*
X0185624Y0034411D01*
X0185755Y0034504D01*
X0185888Y0034594D01*
X0186023Y0034681D01*
X0186161Y0034764D01*
X0186300Y0034843D01*
X0186442Y0034920D01*
X0186585Y0034993D01*
X0186730Y0035062D01*
X0186877Y0035127D01*
X0187025Y0035189D01*
X0187175Y0035248D01*
X0187326Y0035302D01*
X0187478Y0035353D01*
X0187632Y0035400D01*
X0187787Y0035443D01*
X0187942Y0035482D01*
X0188099Y0035518D01*
X0188257Y0035550D01*
X0188415Y0035577D01*
X0188574Y0035601D01*
X0188733Y0035621D01*
X0188893Y0035637D01*
X0189054Y0035649D01*
X0189214Y0035657D01*
X0189375Y0035661D01*
X0189535Y0035661D01*
X0189696Y0035657D01*
X0189856Y0035649D01*
X0190017Y0035637D01*
X0190177Y0035621D01*
X0190336Y0035601D01*
X0190495Y0035577D01*
X0190653Y0035550D01*
X0190811Y0035518D01*
X0190968Y0035482D01*
X0191123Y0035443D01*
X0191278Y0035400D01*
X0191432Y0035353D01*
X0191584Y0035302D01*
X0191735Y0035248D01*
X0191885Y0035189D01*
X0192033Y0035127D01*
X0192180Y0035062D01*
X0192325Y0034993D01*
X0192468Y0034920D01*
X0192610Y0034843D01*
X0192749Y0034764D01*
X0192887Y0034681D01*
X0193022Y0034594D01*
X0193155Y0034504D01*
X0193286Y0034411D01*
X0193415Y0034315D01*
X0193541Y0034215D01*
X0193665Y0034112D01*
X0193786Y0034007D01*
X0193904Y0033898D01*
X0194020Y0033787D01*
X0194133Y0033672D01*
X0194243Y0033555D01*
X0194350Y0033436D01*
X0194454Y0033313D01*
X0194555Y0033188D01*
X0194653Y0033061D01*
X0194748Y0032931D01*
X0194839Y0032799D01*
X0194928Y0032665D01*
X0195013Y0032528D01*
X0195094Y0032390D01*
X0195172Y0032249D01*
X0195247Y0032107D01*
X0195318Y0031963D01*
X0195385Y0031817D01*
X0195449Y0031669D01*
X0195509Y0031520D01*
X0195565Y0031370D01*
X0195618Y0031218D01*
X0195667Y0031065D01*
X0195712Y0030911D01*
X0195753Y0030756D01*
X0195791Y0030599D01*
X0195824Y0030442D01*
X0195854Y0030284D01*
X0195880Y0030126D01*
X0195901Y0029966D01*
X0195919Y0029807D01*
X0195933Y0029647D01*
X0195943Y0029486D01*
X0195949Y0029326D01*
X0195951Y0029165D01*
X0195949Y0029004D01*
X0195943Y0028844D01*
X0195933Y0028683D01*
X0195919Y0028523D01*
X0195901Y0028364D01*
X0195880Y0028204D01*
X0195854Y0028046D01*
X0195824Y0027888D01*
X0195791Y0027731D01*
X0195753Y0027574D01*
X0195712Y0027419D01*
X0195667Y0027265D01*
X0195618Y0027112D01*
X0195565Y0026960D01*
X0195509Y0026810D01*
X0195449Y0026661D01*
X0195385Y0026513D01*
X0195318Y0026367D01*
X0195247Y0026223D01*
X0195172Y0026081D01*
X0195094Y0025940D01*
X0195013Y0025802D01*
X0194928Y0025665D01*
X0194839Y0025531D01*
X0194748Y0025399D01*
X0194653Y0025269D01*
X0194555Y0025142D01*
X0194454Y0025017D01*
X0194350Y0024894D01*
X0194243Y0024775D01*
X0194133Y0024658D01*
X0194020Y0024543D01*
X0193904Y0024432D01*
X0193786Y0024323D01*
X0193665Y0024218D01*
X0193541Y0024115D01*
X0193415Y0024015D01*
X0193286Y0023919D01*
X0193155Y0023826D01*
X0193022Y0023736D01*
X0192887Y0023649D01*
X0192749Y0023566D01*
X0192610Y0023487D01*
X0192468Y0023410D01*
X0192325Y0023337D01*
X0192180Y0023268D01*
X0192033Y0023203D01*
X0191885Y0023141D01*
X0191735Y0023082D01*
X0191584Y0023028D01*
X0191432Y0022977D01*
X0191278Y0022930D01*
X0191123Y0022887D01*
X0190968Y0022848D01*
X0190811Y0022812D01*
X0190653Y0022780D01*
X0190495Y0022753D01*
X0190336Y0022729D01*
X0190177Y0022709D01*
X0190017Y0022693D01*
X0189856Y0022681D01*
X0189696Y0022673D01*
X0189535Y0022669D01*
X0189375Y0022669D01*
X0189214Y0022673D01*
X0189054Y0022681D01*
X0188893Y0022693D01*
X0188733Y0022709D01*
X0188574Y0022729D01*
X0188415Y0022753D01*
X0188257Y0022780D01*
X0188099Y0022812D01*
X0187942Y0022848D01*
X0187787Y0022887D01*
X0187632Y0022930D01*
X0187478Y0022977D01*
X0187326Y0023028D01*
X0187175Y0023082D01*
X0187025Y0023141D01*
X0186877Y0023203D01*
X0186730Y0023268D01*
X0186585Y0023337D01*
X0186442Y0023410D01*
X0186300Y0023487D01*
X0186161Y0023566D01*
X0186023Y0023649D01*
X0185888Y0023736D01*
X0185755Y0023826D01*
X0185624Y0023919D01*
X0185495Y0024015D01*
X0185369Y0024115D01*
X0185245Y0024218D01*
X0185124Y0024323D01*
X0185006Y0024432D01*
X0184890Y0024543D01*
X0184777Y0024658D01*
X0184667Y0024775D01*
X0184560Y0024894D01*
X0184456Y0025017D01*
X0184355Y0025142D01*
X0184257Y0025269D01*
X0184162Y0025399D01*
X0184071Y0025531D01*
X0183982Y0025665D01*
X0183897Y0025802D01*
X0183816Y0025940D01*
X0183738Y0026081D01*
X0183663Y0026223D01*
X0183592Y0026367D01*
X0183525Y0026513D01*
X0183461Y0026661D01*
X0183401Y0026810D01*
X0183345Y0026960D01*
X0183292Y0027112D01*
X0183243Y0027265D01*
X0183198Y0027419D01*
X0183157Y0027574D01*
X0183119Y0027731D01*
X0183086Y0027888D01*
X0183056Y0028046D01*
X0183030Y0028204D01*
X0183009Y0028364D01*
X0182991Y0028523D01*
X0182977Y0028683D01*
X0182967Y0028844D01*
X0182961Y0029004D01*
X0182959Y0029165D01*
X0338860Y0029165D02*
X0338862Y0029326D01*
X0338868Y0029486D01*
X0338878Y0029647D01*
X0338892Y0029807D01*
X0338910Y0029966D01*
X0338931Y0030126D01*
X0338957Y0030284D01*
X0338987Y0030442D01*
X0339020Y0030599D01*
X0339058Y0030756D01*
X0339099Y0030911D01*
X0339144Y0031065D01*
X0339193Y0031218D01*
X0339246Y0031370D01*
X0339302Y0031520D01*
X0339362Y0031669D01*
X0339426Y0031817D01*
X0339493Y0031963D01*
X0339564Y0032107D01*
X0339639Y0032249D01*
X0339717Y0032390D01*
X0339798Y0032528D01*
X0339883Y0032665D01*
X0339972Y0032799D01*
X0340063Y0032931D01*
X0340158Y0033061D01*
X0340256Y0033188D01*
X0340357Y0033313D01*
X0340461Y0033436D01*
X0340568Y0033555D01*
X0340678Y0033672D01*
X0340791Y0033787D01*
X0340907Y0033898D01*
X0341025Y0034007D01*
X0341146Y0034112D01*
X0341270Y0034215D01*
X0341396Y0034315D01*
X0341525Y0034411D01*
X0341656Y0034504D01*
X0341789Y0034594D01*
X0341924Y0034681D01*
X0342062Y0034764D01*
X0342201Y0034843D01*
X0342343Y0034920D01*
X0342486Y0034993D01*
X0342631Y0035062D01*
X0342778Y0035127D01*
X0342926Y0035189D01*
X0343076Y0035248D01*
X0343227Y0035302D01*
X0343379Y0035353D01*
X0343533Y0035400D01*
X0343688Y0035443D01*
X0343843Y0035482D01*
X0344000Y0035518D01*
X0344158Y0035550D01*
X0344316Y0035577D01*
X0344475Y0035601D01*
X0344634Y0035621D01*
X0344794Y0035637D01*
X0344955Y0035649D01*
X0345115Y0035657D01*
X0345276Y0035661D01*
X0345436Y0035661D01*
X0345597Y0035657D01*
X0345757Y0035649D01*
X0345918Y0035637D01*
X0346078Y0035621D01*
X0346237Y0035601D01*
X0346396Y0035577D01*
X0346554Y0035550D01*
X0346712Y0035518D01*
X0346869Y0035482D01*
X0347024Y0035443D01*
X0347179Y0035400D01*
X0347333Y0035353D01*
X0347485Y0035302D01*
X0347636Y0035248D01*
X0347786Y0035189D01*
X0347934Y0035127D01*
X0348081Y0035062D01*
X0348226Y0034993D01*
X0348369Y0034920D01*
X0348511Y0034843D01*
X0348650Y0034764D01*
X0348788Y0034681D01*
X0348923Y0034594D01*
X0349056Y0034504D01*
X0349187Y0034411D01*
X0349316Y0034315D01*
X0349442Y0034215D01*
X0349566Y0034112D01*
X0349687Y0034007D01*
X0349805Y0033898D01*
X0349921Y0033787D01*
X0350034Y0033672D01*
X0350144Y0033555D01*
X0350251Y0033436D01*
X0350355Y0033313D01*
X0350456Y0033188D01*
X0350554Y0033061D01*
X0350649Y0032931D01*
X0350740Y0032799D01*
X0350829Y0032665D01*
X0350914Y0032528D01*
X0350995Y0032390D01*
X0351073Y0032249D01*
X0351148Y0032107D01*
X0351219Y0031963D01*
X0351286Y0031817D01*
X0351350Y0031669D01*
X0351410Y0031520D01*
X0351466Y0031370D01*
X0351519Y0031218D01*
X0351568Y0031065D01*
X0351613Y0030911D01*
X0351654Y0030756D01*
X0351692Y0030599D01*
X0351725Y0030442D01*
X0351755Y0030284D01*
X0351781Y0030126D01*
X0351802Y0029966D01*
X0351820Y0029807D01*
X0351834Y0029647D01*
X0351844Y0029486D01*
X0351850Y0029326D01*
X0351852Y0029165D01*
X0351850Y0029004D01*
X0351844Y0028844D01*
X0351834Y0028683D01*
X0351820Y0028523D01*
X0351802Y0028364D01*
X0351781Y0028204D01*
X0351755Y0028046D01*
X0351725Y0027888D01*
X0351692Y0027731D01*
X0351654Y0027574D01*
X0351613Y0027419D01*
X0351568Y0027265D01*
X0351519Y0027112D01*
X0351466Y0026960D01*
X0351410Y0026810D01*
X0351350Y0026661D01*
X0351286Y0026513D01*
X0351219Y0026367D01*
X0351148Y0026223D01*
X0351073Y0026081D01*
X0350995Y0025940D01*
X0350914Y0025802D01*
X0350829Y0025665D01*
X0350740Y0025531D01*
X0350649Y0025399D01*
X0350554Y0025269D01*
X0350456Y0025142D01*
X0350355Y0025017D01*
X0350251Y0024894D01*
X0350144Y0024775D01*
X0350034Y0024658D01*
X0349921Y0024543D01*
X0349805Y0024432D01*
X0349687Y0024323D01*
X0349566Y0024218D01*
X0349442Y0024115D01*
X0349316Y0024015D01*
X0349187Y0023919D01*
X0349056Y0023826D01*
X0348923Y0023736D01*
X0348788Y0023649D01*
X0348650Y0023566D01*
X0348511Y0023487D01*
X0348369Y0023410D01*
X0348226Y0023337D01*
X0348081Y0023268D01*
X0347934Y0023203D01*
X0347786Y0023141D01*
X0347636Y0023082D01*
X0347485Y0023028D01*
X0347333Y0022977D01*
X0347179Y0022930D01*
X0347024Y0022887D01*
X0346869Y0022848D01*
X0346712Y0022812D01*
X0346554Y0022780D01*
X0346396Y0022753D01*
X0346237Y0022729D01*
X0346078Y0022709D01*
X0345918Y0022693D01*
X0345757Y0022681D01*
X0345597Y0022673D01*
X0345436Y0022669D01*
X0345276Y0022669D01*
X0345115Y0022673D01*
X0344955Y0022681D01*
X0344794Y0022693D01*
X0344634Y0022709D01*
X0344475Y0022729D01*
X0344316Y0022753D01*
X0344158Y0022780D01*
X0344000Y0022812D01*
X0343843Y0022848D01*
X0343688Y0022887D01*
X0343533Y0022930D01*
X0343379Y0022977D01*
X0343227Y0023028D01*
X0343076Y0023082D01*
X0342926Y0023141D01*
X0342778Y0023203D01*
X0342631Y0023268D01*
X0342486Y0023337D01*
X0342343Y0023410D01*
X0342201Y0023487D01*
X0342062Y0023566D01*
X0341924Y0023649D01*
X0341789Y0023736D01*
X0341656Y0023826D01*
X0341525Y0023919D01*
X0341396Y0024015D01*
X0341270Y0024115D01*
X0341146Y0024218D01*
X0341025Y0024323D01*
X0340907Y0024432D01*
X0340791Y0024543D01*
X0340678Y0024658D01*
X0340568Y0024775D01*
X0340461Y0024894D01*
X0340357Y0025017D01*
X0340256Y0025142D01*
X0340158Y0025269D01*
X0340063Y0025399D01*
X0339972Y0025531D01*
X0339883Y0025665D01*
X0339798Y0025802D01*
X0339717Y0025940D01*
X0339639Y0026081D01*
X0339564Y0026223D01*
X0339493Y0026367D01*
X0339426Y0026513D01*
X0339362Y0026661D01*
X0339302Y0026810D01*
X0339246Y0026960D01*
X0339193Y0027112D01*
X0339144Y0027265D01*
X0339099Y0027419D01*
X0339058Y0027574D01*
X0339020Y0027731D01*
X0338987Y0027888D01*
X0338957Y0028046D01*
X0338931Y0028204D01*
X0338910Y0028364D01*
X0338892Y0028523D01*
X0338878Y0028683D01*
X0338868Y0028844D01*
X0338862Y0029004D01*
X0338860Y0029165D01*
X0338860Y0292236D02*
X0338862Y0292397D01*
X0338868Y0292557D01*
X0338878Y0292718D01*
X0338892Y0292878D01*
X0338910Y0293037D01*
X0338931Y0293197D01*
X0338957Y0293355D01*
X0338987Y0293513D01*
X0339020Y0293670D01*
X0339058Y0293827D01*
X0339099Y0293982D01*
X0339144Y0294136D01*
X0339193Y0294289D01*
X0339246Y0294441D01*
X0339302Y0294591D01*
X0339362Y0294740D01*
X0339426Y0294888D01*
X0339493Y0295034D01*
X0339564Y0295178D01*
X0339639Y0295320D01*
X0339717Y0295461D01*
X0339798Y0295599D01*
X0339883Y0295736D01*
X0339972Y0295870D01*
X0340063Y0296002D01*
X0340158Y0296132D01*
X0340256Y0296259D01*
X0340357Y0296384D01*
X0340461Y0296507D01*
X0340568Y0296626D01*
X0340678Y0296743D01*
X0340791Y0296858D01*
X0340907Y0296969D01*
X0341025Y0297078D01*
X0341146Y0297183D01*
X0341270Y0297286D01*
X0341396Y0297386D01*
X0341525Y0297482D01*
X0341656Y0297575D01*
X0341789Y0297665D01*
X0341924Y0297752D01*
X0342062Y0297835D01*
X0342201Y0297914D01*
X0342343Y0297991D01*
X0342486Y0298064D01*
X0342631Y0298133D01*
X0342778Y0298198D01*
X0342926Y0298260D01*
X0343076Y0298319D01*
X0343227Y0298373D01*
X0343379Y0298424D01*
X0343533Y0298471D01*
X0343688Y0298514D01*
X0343843Y0298553D01*
X0344000Y0298589D01*
X0344158Y0298621D01*
X0344316Y0298648D01*
X0344475Y0298672D01*
X0344634Y0298692D01*
X0344794Y0298708D01*
X0344955Y0298720D01*
X0345115Y0298728D01*
X0345276Y0298732D01*
X0345436Y0298732D01*
X0345597Y0298728D01*
X0345757Y0298720D01*
X0345918Y0298708D01*
X0346078Y0298692D01*
X0346237Y0298672D01*
X0346396Y0298648D01*
X0346554Y0298621D01*
X0346712Y0298589D01*
X0346869Y0298553D01*
X0347024Y0298514D01*
X0347179Y0298471D01*
X0347333Y0298424D01*
X0347485Y0298373D01*
X0347636Y0298319D01*
X0347786Y0298260D01*
X0347934Y0298198D01*
X0348081Y0298133D01*
X0348226Y0298064D01*
X0348369Y0297991D01*
X0348511Y0297914D01*
X0348650Y0297835D01*
X0348788Y0297752D01*
X0348923Y0297665D01*
X0349056Y0297575D01*
X0349187Y0297482D01*
X0349316Y0297386D01*
X0349442Y0297286D01*
X0349566Y0297183D01*
X0349687Y0297078D01*
X0349805Y0296969D01*
X0349921Y0296858D01*
X0350034Y0296743D01*
X0350144Y0296626D01*
X0350251Y0296507D01*
X0350355Y0296384D01*
X0350456Y0296259D01*
X0350554Y0296132D01*
X0350649Y0296002D01*
X0350740Y0295870D01*
X0350829Y0295736D01*
X0350914Y0295599D01*
X0350995Y0295461D01*
X0351073Y0295320D01*
X0351148Y0295178D01*
X0351219Y0295034D01*
X0351286Y0294888D01*
X0351350Y0294740D01*
X0351410Y0294591D01*
X0351466Y0294441D01*
X0351519Y0294289D01*
X0351568Y0294136D01*
X0351613Y0293982D01*
X0351654Y0293827D01*
X0351692Y0293670D01*
X0351725Y0293513D01*
X0351755Y0293355D01*
X0351781Y0293197D01*
X0351802Y0293037D01*
X0351820Y0292878D01*
X0351834Y0292718D01*
X0351844Y0292557D01*
X0351850Y0292397D01*
X0351852Y0292236D01*
X0351850Y0292075D01*
X0351844Y0291915D01*
X0351834Y0291754D01*
X0351820Y0291594D01*
X0351802Y0291435D01*
X0351781Y0291275D01*
X0351755Y0291117D01*
X0351725Y0290959D01*
X0351692Y0290802D01*
X0351654Y0290645D01*
X0351613Y0290490D01*
X0351568Y0290336D01*
X0351519Y0290183D01*
X0351466Y0290031D01*
X0351410Y0289881D01*
X0351350Y0289732D01*
X0351286Y0289584D01*
X0351219Y0289438D01*
X0351148Y0289294D01*
X0351073Y0289152D01*
X0350995Y0289011D01*
X0350914Y0288873D01*
X0350829Y0288736D01*
X0350740Y0288602D01*
X0350649Y0288470D01*
X0350554Y0288340D01*
X0350456Y0288213D01*
X0350355Y0288088D01*
X0350251Y0287965D01*
X0350144Y0287846D01*
X0350034Y0287729D01*
X0349921Y0287614D01*
X0349805Y0287503D01*
X0349687Y0287394D01*
X0349566Y0287289D01*
X0349442Y0287186D01*
X0349316Y0287086D01*
X0349187Y0286990D01*
X0349056Y0286897D01*
X0348923Y0286807D01*
X0348788Y0286720D01*
X0348650Y0286637D01*
X0348511Y0286558D01*
X0348369Y0286481D01*
X0348226Y0286408D01*
X0348081Y0286339D01*
X0347934Y0286274D01*
X0347786Y0286212D01*
X0347636Y0286153D01*
X0347485Y0286099D01*
X0347333Y0286048D01*
X0347179Y0286001D01*
X0347024Y0285958D01*
X0346869Y0285919D01*
X0346712Y0285883D01*
X0346554Y0285851D01*
X0346396Y0285824D01*
X0346237Y0285800D01*
X0346078Y0285780D01*
X0345918Y0285764D01*
X0345757Y0285752D01*
X0345597Y0285744D01*
X0345436Y0285740D01*
X0345276Y0285740D01*
X0345115Y0285744D01*
X0344955Y0285752D01*
X0344794Y0285764D01*
X0344634Y0285780D01*
X0344475Y0285800D01*
X0344316Y0285824D01*
X0344158Y0285851D01*
X0344000Y0285883D01*
X0343843Y0285919D01*
X0343688Y0285958D01*
X0343533Y0286001D01*
X0343379Y0286048D01*
X0343227Y0286099D01*
X0343076Y0286153D01*
X0342926Y0286212D01*
X0342778Y0286274D01*
X0342631Y0286339D01*
X0342486Y0286408D01*
X0342343Y0286481D01*
X0342201Y0286558D01*
X0342062Y0286637D01*
X0341924Y0286720D01*
X0341789Y0286807D01*
X0341656Y0286897D01*
X0341525Y0286990D01*
X0341396Y0287086D01*
X0341270Y0287186D01*
X0341146Y0287289D01*
X0341025Y0287394D01*
X0340907Y0287503D01*
X0340791Y0287614D01*
X0340678Y0287729D01*
X0340568Y0287846D01*
X0340461Y0287965D01*
X0340357Y0288088D01*
X0340256Y0288213D01*
X0340158Y0288340D01*
X0340063Y0288470D01*
X0339972Y0288602D01*
X0339883Y0288736D01*
X0339798Y0288873D01*
X0339717Y0289011D01*
X0339639Y0289152D01*
X0339564Y0289294D01*
X0339493Y0289438D01*
X0339426Y0289584D01*
X0339362Y0289732D01*
X0339302Y0289881D01*
X0339246Y0290031D01*
X0339193Y0290183D01*
X0339144Y0290336D01*
X0339099Y0290490D01*
X0339058Y0290645D01*
X0339020Y0290802D01*
X0338987Y0290959D01*
X0338957Y0291117D01*
X0338931Y0291275D01*
X0338910Y0291435D01*
X0338892Y0291594D01*
X0338878Y0291754D01*
X0338868Y0291915D01*
X0338862Y0292075D01*
X0338860Y0292236D01*
X0182959Y0292236D02*
X0182961Y0292397D01*
X0182967Y0292557D01*
X0182977Y0292718D01*
X0182991Y0292878D01*
X0183009Y0293037D01*
X0183030Y0293197D01*
X0183056Y0293355D01*
X0183086Y0293513D01*
X0183119Y0293670D01*
X0183157Y0293827D01*
X0183198Y0293982D01*
X0183243Y0294136D01*
X0183292Y0294289D01*
X0183345Y0294441D01*
X0183401Y0294591D01*
X0183461Y0294740D01*
X0183525Y0294888D01*
X0183592Y0295034D01*
X0183663Y0295178D01*
X0183738Y0295320D01*
X0183816Y0295461D01*
X0183897Y0295599D01*
X0183982Y0295736D01*
X0184071Y0295870D01*
X0184162Y0296002D01*
X0184257Y0296132D01*
X0184355Y0296259D01*
X0184456Y0296384D01*
X0184560Y0296507D01*
X0184667Y0296626D01*
X0184777Y0296743D01*
X0184890Y0296858D01*
X0185006Y0296969D01*
X0185124Y0297078D01*
X0185245Y0297183D01*
X0185369Y0297286D01*
X0185495Y0297386D01*
X0185624Y0297482D01*
X0185755Y0297575D01*
X0185888Y0297665D01*
X0186023Y0297752D01*
X0186161Y0297835D01*
X0186300Y0297914D01*
X0186442Y0297991D01*
X0186585Y0298064D01*
X0186730Y0298133D01*
X0186877Y0298198D01*
X0187025Y0298260D01*
X0187175Y0298319D01*
X0187326Y0298373D01*
X0187478Y0298424D01*
X0187632Y0298471D01*
X0187787Y0298514D01*
X0187942Y0298553D01*
X0188099Y0298589D01*
X0188257Y0298621D01*
X0188415Y0298648D01*
X0188574Y0298672D01*
X0188733Y0298692D01*
X0188893Y0298708D01*
X0189054Y0298720D01*
X0189214Y0298728D01*
X0189375Y0298732D01*
X0189535Y0298732D01*
X0189696Y0298728D01*
X0189856Y0298720D01*
X0190017Y0298708D01*
X0190177Y0298692D01*
X0190336Y0298672D01*
X0190495Y0298648D01*
X0190653Y0298621D01*
X0190811Y0298589D01*
X0190968Y0298553D01*
X0191123Y0298514D01*
X0191278Y0298471D01*
X0191432Y0298424D01*
X0191584Y0298373D01*
X0191735Y0298319D01*
X0191885Y0298260D01*
X0192033Y0298198D01*
X0192180Y0298133D01*
X0192325Y0298064D01*
X0192468Y0297991D01*
X0192610Y0297914D01*
X0192749Y0297835D01*
X0192887Y0297752D01*
X0193022Y0297665D01*
X0193155Y0297575D01*
X0193286Y0297482D01*
X0193415Y0297386D01*
X0193541Y0297286D01*
X0193665Y0297183D01*
X0193786Y0297078D01*
X0193904Y0296969D01*
X0194020Y0296858D01*
X0194133Y0296743D01*
X0194243Y0296626D01*
X0194350Y0296507D01*
X0194454Y0296384D01*
X0194555Y0296259D01*
X0194653Y0296132D01*
X0194748Y0296002D01*
X0194839Y0295870D01*
X0194928Y0295736D01*
X0195013Y0295599D01*
X0195094Y0295461D01*
X0195172Y0295320D01*
X0195247Y0295178D01*
X0195318Y0295034D01*
X0195385Y0294888D01*
X0195449Y0294740D01*
X0195509Y0294591D01*
X0195565Y0294441D01*
X0195618Y0294289D01*
X0195667Y0294136D01*
X0195712Y0293982D01*
X0195753Y0293827D01*
X0195791Y0293670D01*
X0195824Y0293513D01*
X0195854Y0293355D01*
X0195880Y0293197D01*
X0195901Y0293037D01*
X0195919Y0292878D01*
X0195933Y0292718D01*
X0195943Y0292557D01*
X0195949Y0292397D01*
X0195951Y0292236D01*
X0195949Y0292075D01*
X0195943Y0291915D01*
X0195933Y0291754D01*
X0195919Y0291594D01*
X0195901Y0291435D01*
X0195880Y0291275D01*
X0195854Y0291117D01*
X0195824Y0290959D01*
X0195791Y0290802D01*
X0195753Y0290645D01*
X0195712Y0290490D01*
X0195667Y0290336D01*
X0195618Y0290183D01*
X0195565Y0290031D01*
X0195509Y0289881D01*
X0195449Y0289732D01*
X0195385Y0289584D01*
X0195318Y0289438D01*
X0195247Y0289294D01*
X0195172Y0289152D01*
X0195094Y0289011D01*
X0195013Y0288873D01*
X0194928Y0288736D01*
X0194839Y0288602D01*
X0194748Y0288470D01*
X0194653Y0288340D01*
X0194555Y0288213D01*
X0194454Y0288088D01*
X0194350Y0287965D01*
X0194243Y0287846D01*
X0194133Y0287729D01*
X0194020Y0287614D01*
X0193904Y0287503D01*
X0193786Y0287394D01*
X0193665Y0287289D01*
X0193541Y0287186D01*
X0193415Y0287086D01*
X0193286Y0286990D01*
X0193155Y0286897D01*
X0193022Y0286807D01*
X0192887Y0286720D01*
X0192749Y0286637D01*
X0192610Y0286558D01*
X0192468Y0286481D01*
X0192325Y0286408D01*
X0192180Y0286339D01*
X0192033Y0286274D01*
X0191885Y0286212D01*
X0191735Y0286153D01*
X0191584Y0286099D01*
X0191432Y0286048D01*
X0191278Y0286001D01*
X0191123Y0285958D01*
X0190968Y0285919D01*
X0190811Y0285883D01*
X0190653Y0285851D01*
X0190495Y0285824D01*
X0190336Y0285800D01*
X0190177Y0285780D01*
X0190017Y0285764D01*
X0189856Y0285752D01*
X0189696Y0285744D01*
X0189535Y0285740D01*
X0189375Y0285740D01*
X0189214Y0285744D01*
X0189054Y0285752D01*
X0188893Y0285764D01*
X0188733Y0285780D01*
X0188574Y0285800D01*
X0188415Y0285824D01*
X0188257Y0285851D01*
X0188099Y0285883D01*
X0187942Y0285919D01*
X0187787Y0285958D01*
X0187632Y0286001D01*
X0187478Y0286048D01*
X0187326Y0286099D01*
X0187175Y0286153D01*
X0187025Y0286212D01*
X0186877Y0286274D01*
X0186730Y0286339D01*
X0186585Y0286408D01*
X0186442Y0286481D01*
X0186300Y0286558D01*
X0186161Y0286637D01*
X0186023Y0286720D01*
X0185888Y0286807D01*
X0185755Y0286897D01*
X0185624Y0286990D01*
X0185495Y0287086D01*
X0185369Y0287186D01*
X0185245Y0287289D01*
X0185124Y0287394D01*
X0185006Y0287503D01*
X0184890Y0287614D01*
X0184777Y0287729D01*
X0184667Y0287846D01*
X0184560Y0287965D01*
X0184456Y0288088D01*
X0184355Y0288213D01*
X0184257Y0288340D01*
X0184162Y0288470D01*
X0184071Y0288602D01*
X0183982Y0288736D01*
X0183897Y0288873D01*
X0183816Y0289011D01*
X0183738Y0289152D01*
X0183663Y0289294D01*
X0183592Y0289438D01*
X0183525Y0289584D01*
X0183461Y0289732D01*
X0183401Y0289881D01*
X0183345Y0290031D01*
X0183292Y0290183D01*
X0183243Y0290336D01*
X0183198Y0290490D01*
X0183157Y0290645D01*
X0183119Y0290802D01*
X0183086Y0290959D01*
X0183056Y0291117D01*
X0183030Y0291275D01*
X0183009Y0291435D01*
X0182991Y0291594D01*
X0182977Y0291754D01*
X0182967Y0291915D01*
X0182961Y0292075D01*
X0182959Y0292236D01*
X0027057Y0292236D02*
X0027059Y0292397D01*
X0027065Y0292557D01*
X0027075Y0292718D01*
X0027089Y0292878D01*
X0027107Y0293037D01*
X0027128Y0293197D01*
X0027154Y0293355D01*
X0027184Y0293513D01*
X0027217Y0293670D01*
X0027255Y0293827D01*
X0027296Y0293982D01*
X0027341Y0294136D01*
X0027390Y0294289D01*
X0027443Y0294441D01*
X0027499Y0294591D01*
X0027559Y0294740D01*
X0027623Y0294888D01*
X0027690Y0295034D01*
X0027761Y0295178D01*
X0027836Y0295320D01*
X0027914Y0295461D01*
X0027995Y0295599D01*
X0028080Y0295736D01*
X0028169Y0295870D01*
X0028260Y0296002D01*
X0028355Y0296132D01*
X0028453Y0296259D01*
X0028554Y0296384D01*
X0028658Y0296507D01*
X0028765Y0296626D01*
X0028875Y0296743D01*
X0028988Y0296858D01*
X0029104Y0296969D01*
X0029222Y0297078D01*
X0029343Y0297183D01*
X0029467Y0297286D01*
X0029593Y0297386D01*
X0029722Y0297482D01*
X0029853Y0297575D01*
X0029986Y0297665D01*
X0030121Y0297752D01*
X0030259Y0297835D01*
X0030398Y0297914D01*
X0030540Y0297991D01*
X0030683Y0298064D01*
X0030828Y0298133D01*
X0030975Y0298198D01*
X0031123Y0298260D01*
X0031273Y0298319D01*
X0031424Y0298373D01*
X0031576Y0298424D01*
X0031730Y0298471D01*
X0031885Y0298514D01*
X0032040Y0298553D01*
X0032197Y0298589D01*
X0032355Y0298621D01*
X0032513Y0298648D01*
X0032672Y0298672D01*
X0032831Y0298692D01*
X0032991Y0298708D01*
X0033152Y0298720D01*
X0033312Y0298728D01*
X0033473Y0298732D01*
X0033633Y0298732D01*
X0033794Y0298728D01*
X0033954Y0298720D01*
X0034115Y0298708D01*
X0034275Y0298692D01*
X0034434Y0298672D01*
X0034593Y0298648D01*
X0034751Y0298621D01*
X0034909Y0298589D01*
X0035066Y0298553D01*
X0035221Y0298514D01*
X0035376Y0298471D01*
X0035530Y0298424D01*
X0035682Y0298373D01*
X0035833Y0298319D01*
X0035983Y0298260D01*
X0036131Y0298198D01*
X0036278Y0298133D01*
X0036423Y0298064D01*
X0036566Y0297991D01*
X0036708Y0297914D01*
X0036847Y0297835D01*
X0036985Y0297752D01*
X0037120Y0297665D01*
X0037253Y0297575D01*
X0037384Y0297482D01*
X0037513Y0297386D01*
X0037639Y0297286D01*
X0037763Y0297183D01*
X0037884Y0297078D01*
X0038002Y0296969D01*
X0038118Y0296858D01*
X0038231Y0296743D01*
X0038341Y0296626D01*
X0038448Y0296507D01*
X0038552Y0296384D01*
X0038653Y0296259D01*
X0038751Y0296132D01*
X0038846Y0296002D01*
X0038937Y0295870D01*
X0039026Y0295736D01*
X0039111Y0295599D01*
X0039192Y0295461D01*
X0039270Y0295320D01*
X0039345Y0295178D01*
X0039416Y0295034D01*
X0039483Y0294888D01*
X0039547Y0294740D01*
X0039607Y0294591D01*
X0039663Y0294441D01*
X0039716Y0294289D01*
X0039765Y0294136D01*
X0039810Y0293982D01*
X0039851Y0293827D01*
X0039889Y0293670D01*
X0039922Y0293513D01*
X0039952Y0293355D01*
X0039978Y0293197D01*
X0039999Y0293037D01*
X0040017Y0292878D01*
X0040031Y0292718D01*
X0040041Y0292557D01*
X0040047Y0292397D01*
X0040049Y0292236D01*
X0040047Y0292075D01*
X0040041Y0291915D01*
X0040031Y0291754D01*
X0040017Y0291594D01*
X0039999Y0291435D01*
X0039978Y0291275D01*
X0039952Y0291117D01*
X0039922Y0290959D01*
X0039889Y0290802D01*
X0039851Y0290645D01*
X0039810Y0290490D01*
X0039765Y0290336D01*
X0039716Y0290183D01*
X0039663Y0290031D01*
X0039607Y0289881D01*
X0039547Y0289732D01*
X0039483Y0289584D01*
X0039416Y0289438D01*
X0039345Y0289294D01*
X0039270Y0289152D01*
X0039192Y0289011D01*
X0039111Y0288873D01*
X0039026Y0288736D01*
X0038937Y0288602D01*
X0038846Y0288470D01*
X0038751Y0288340D01*
X0038653Y0288213D01*
X0038552Y0288088D01*
X0038448Y0287965D01*
X0038341Y0287846D01*
X0038231Y0287729D01*
X0038118Y0287614D01*
X0038002Y0287503D01*
X0037884Y0287394D01*
X0037763Y0287289D01*
X0037639Y0287186D01*
X0037513Y0287086D01*
X0037384Y0286990D01*
X0037253Y0286897D01*
X0037120Y0286807D01*
X0036985Y0286720D01*
X0036847Y0286637D01*
X0036708Y0286558D01*
X0036566Y0286481D01*
X0036423Y0286408D01*
X0036278Y0286339D01*
X0036131Y0286274D01*
X0035983Y0286212D01*
X0035833Y0286153D01*
X0035682Y0286099D01*
X0035530Y0286048D01*
X0035376Y0286001D01*
X0035221Y0285958D01*
X0035066Y0285919D01*
X0034909Y0285883D01*
X0034751Y0285851D01*
X0034593Y0285824D01*
X0034434Y0285800D01*
X0034275Y0285780D01*
X0034115Y0285764D01*
X0033954Y0285752D01*
X0033794Y0285744D01*
X0033633Y0285740D01*
X0033473Y0285740D01*
X0033312Y0285744D01*
X0033152Y0285752D01*
X0032991Y0285764D01*
X0032831Y0285780D01*
X0032672Y0285800D01*
X0032513Y0285824D01*
X0032355Y0285851D01*
X0032197Y0285883D01*
X0032040Y0285919D01*
X0031885Y0285958D01*
X0031730Y0286001D01*
X0031576Y0286048D01*
X0031424Y0286099D01*
X0031273Y0286153D01*
X0031123Y0286212D01*
X0030975Y0286274D01*
X0030828Y0286339D01*
X0030683Y0286408D01*
X0030540Y0286481D01*
X0030398Y0286558D01*
X0030259Y0286637D01*
X0030121Y0286720D01*
X0029986Y0286807D01*
X0029853Y0286897D01*
X0029722Y0286990D01*
X0029593Y0287086D01*
X0029467Y0287186D01*
X0029343Y0287289D01*
X0029222Y0287394D01*
X0029104Y0287503D01*
X0028988Y0287614D01*
X0028875Y0287729D01*
X0028765Y0287846D01*
X0028658Y0287965D01*
X0028554Y0288088D01*
X0028453Y0288213D01*
X0028355Y0288340D01*
X0028260Y0288470D01*
X0028169Y0288602D01*
X0028080Y0288736D01*
X0027995Y0288873D01*
X0027914Y0289011D01*
X0027836Y0289152D01*
X0027761Y0289294D01*
X0027690Y0289438D01*
X0027623Y0289584D01*
X0027559Y0289732D01*
X0027499Y0289881D01*
X0027443Y0290031D01*
X0027390Y0290183D01*
X0027341Y0290336D01*
X0027296Y0290490D01*
X0027255Y0290645D01*
X0027217Y0290802D01*
X0027184Y0290959D01*
X0027154Y0291117D01*
X0027128Y0291275D01*
X0027107Y0291435D01*
X0027089Y0291594D01*
X0027075Y0291754D01*
X0027065Y0291915D01*
X0027059Y0292075D01*
X0027057Y0292236D01*
D11*
X0013868Y0292236D02*
X0013868Y0029165D01*
X0013874Y0028686D01*
X0013891Y0028207D01*
X0013921Y0027728D01*
X0013961Y0027250D01*
X0014014Y0026774D01*
X0014078Y0026299D01*
X0014153Y0025825D01*
X0014240Y0025354D01*
X0014339Y0024885D01*
X0014449Y0024418D01*
X0014570Y0023954D01*
X0014703Y0023494D01*
X0014846Y0023036D01*
X0015001Y0022583D01*
X0015167Y0022133D01*
X0015344Y0021687D01*
X0015531Y0021246D01*
X0015729Y0020810D01*
X0015938Y0020378D01*
X0016157Y0019952D01*
X0016387Y0019531D01*
X0016626Y0019116D01*
X0016876Y0018706D01*
X0017136Y0018303D01*
X0017405Y0017907D01*
X0017684Y0017517D01*
X0017972Y0017134D01*
X0018270Y0016758D01*
X0018577Y0016390D01*
X0018892Y0016029D01*
X0019216Y0015676D01*
X0019549Y0015331D01*
X0019890Y0014994D01*
X0020239Y0014665D01*
X0020596Y0014345D01*
X0020961Y0014034D01*
X0021333Y0013732D01*
X0021713Y0013439D01*
X0022099Y0013155D01*
X0022492Y0012881D01*
X0022892Y0012617D01*
X0023298Y0012362D01*
X0023711Y0012117D01*
X0024129Y0011883D01*
X0024552Y0011658D01*
X0024981Y0011444D01*
X0025415Y0011241D01*
X0025854Y0011048D01*
X0026298Y0010866D01*
X0026745Y0010695D01*
X0027197Y0010534D01*
X0027653Y0010385D01*
X0028112Y0010247D01*
X0028574Y0010120D01*
X0029039Y0010004D01*
X0029507Y0009900D01*
X0029977Y0009807D01*
X0030450Y0009726D01*
X0030924Y0009656D01*
X0031400Y0009598D01*
X0031877Y0009551D01*
X0032355Y0009516D01*
X0032834Y0009493D01*
X0033313Y0009481D01*
X0033793Y0009481D01*
X0034272Y0009493D01*
X0034751Y0009516D01*
X0035229Y0009551D01*
X0035706Y0009598D01*
X0036182Y0009656D01*
X0036656Y0009726D01*
X0037129Y0009807D01*
X0037599Y0009900D01*
X0038067Y0010004D01*
X0038532Y0010120D01*
X0038994Y0010247D01*
X0039453Y0010385D01*
X0039909Y0010534D01*
X0040361Y0010695D01*
X0040808Y0010866D01*
X0041252Y0011048D01*
X0041691Y0011241D01*
X0042125Y0011444D01*
X0042554Y0011658D01*
X0042977Y0011883D01*
X0043396Y0012117D01*
X0043808Y0012362D01*
X0044214Y0012617D01*
X0044614Y0012881D01*
X0045007Y0013155D01*
X0045393Y0013439D01*
X0045773Y0013732D01*
X0046145Y0014034D01*
X0046510Y0014345D01*
X0046867Y0014665D01*
X0047216Y0014994D01*
X0047557Y0015331D01*
X0047890Y0015676D01*
X0048214Y0016029D01*
X0048529Y0016390D01*
X0048836Y0016758D01*
X0049134Y0017134D01*
X0049422Y0017517D01*
X0049701Y0017907D01*
X0049970Y0018303D01*
X0050230Y0018706D01*
X0050480Y0019116D01*
X0050719Y0019531D01*
X0050949Y0019952D01*
X0051168Y0020378D01*
X0051377Y0020810D01*
X0051575Y0021246D01*
X0051762Y0021687D01*
X0051939Y0022133D01*
X0052105Y0022583D01*
X0052260Y0023036D01*
X0052403Y0023494D01*
X0052536Y0023954D01*
X0052657Y0024418D01*
X0052767Y0024885D01*
X0052866Y0025354D01*
X0052953Y0025825D01*
X0053028Y0026299D01*
X0053092Y0026774D01*
X0053145Y0027250D01*
X0053185Y0027728D01*
X0053215Y0028207D01*
X0053232Y0028686D01*
X0053238Y0029165D01*
X0053238Y0033102D01*
X0053243Y0033483D01*
X0053256Y0033863D01*
X0053279Y0034243D01*
X0053312Y0034622D01*
X0053353Y0035000D01*
X0053403Y0035377D01*
X0053463Y0035753D01*
X0053531Y0036128D01*
X0053609Y0036500D01*
X0053696Y0036871D01*
X0053791Y0037239D01*
X0053896Y0037605D01*
X0054009Y0037968D01*
X0054131Y0038329D01*
X0054261Y0038686D01*
X0054401Y0039040D01*
X0054548Y0039391D01*
X0054705Y0039738D01*
X0054869Y0040081D01*
X0055042Y0040420D01*
X0055223Y0040755D01*
X0055412Y0041086D01*
X0055609Y0041411D01*
X0055813Y0041732D01*
X0056026Y0042048D01*
X0056246Y0042358D01*
X0056473Y0042664D01*
X0056708Y0042963D01*
X0056950Y0043257D01*
X0057198Y0043545D01*
X0057454Y0043827D01*
X0057717Y0044102D01*
X0057986Y0044371D01*
X0058261Y0044634D01*
X0058543Y0044890D01*
X0058831Y0045138D01*
X0059125Y0045380D01*
X0059424Y0045615D01*
X0059730Y0045842D01*
X0060040Y0046062D01*
X0060356Y0046275D01*
X0060677Y0046479D01*
X0061002Y0046676D01*
X0061333Y0046865D01*
X0061668Y0047046D01*
X0062007Y0047219D01*
X0062350Y0047383D01*
X0062697Y0047540D01*
X0063048Y0047687D01*
X0063402Y0047827D01*
X0063759Y0047957D01*
X0064120Y0048079D01*
X0064483Y0048192D01*
X0064849Y0048297D01*
X0065217Y0048392D01*
X0065588Y0048479D01*
X0065960Y0048557D01*
X0066335Y0048625D01*
X0066711Y0048685D01*
X0067088Y0048735D01*
X0067466Y0048776D01*
X0067845Y0048809D01*
X0068225Y0048832D01*
X0068605Y0048845D01*
X0068986Y0048850D01*
X0154022Y0048850D01*
X0154403Y0048845D01*
X0154783Y0048832D01*
X0155163Y0048809D01*
X0155542Y0048776D01*
X0155920Y0048735D01*
X0156297Y0048685D01*
X0156673Y0048625D01*
X0157048Y0048557D01*
X0157420Y0048479D01*
X0157791Y0048392D01*
X0158159Y0048297D01*
X0158525Y0048192D01*
X0158888Y0048079D01*
X0159249Y0047957D01*
X0159606Y0047827D01*
X0159960Y0047687D01*
X0160311Y0047540D01*
X0160658Y0047383D01*
X0161001Y0047219D01*
X0161340Y0047046D01*
X0161675Y0046865D01*
X0162006Y0046676D01*
X0162331Y0046479D01*
X0162652Y0046275D01*
X0162968Y0046062D01*
X0163278Y0045842D01*
X0163584Y0045615D01*
X0163883Y0045380D01*
X0164177Y0045138D01*
X0164465Y0044890D01*
X0164747Y0044634D01*
X0165022Y0044371D01*
X0165291Y0044102D01*
X0165554Y0043827D01*
X0165810Y0043545D01*
X0166058Y0043257D01*
X0166300Y0042963D01*
X0166535Y0042664D01*
X0166762Y0042358D01*
X0166982Y0042048D01*
X0167195Y0041732D01*
X0167399Y0041411D01*
X0167596Y0041086D01*
X0167785Y0040755D01*
X0167966Y0040420D01*
X0168139Y0040081D01*
X0168303Y0039738D01*
X0168460Y0039391D01*
X0168607Y0039040D01*
X0168747Y0038686D01*
X0168877Y0038329D01*
X0168999Y0037968D01*
X0169112Y0037605D01*
X0169217Y0037239D01*
X0169312Y0036871D01*
X0169399Y0036500D01*
X0169477Y0036128D01*
X0169545Y0035753D01*
X0169605Y0035377D01*
X0169655Y0035000D01*
X0169696Y0034622D01*
X0169729Y0034243D01*
X0169752Y0033863D01*
X0169765Y0033483D01*
X0169770Y0033102D01*
X0169770Y0029165D01*
X0169776Y0028686D01*
X0169793Y0028207D01*
X0169823Y0027728D01*
X0169863Y0027250D01*
X0169916Y0026774D01*
X0169980Y0026299D01*
X0170055Y0025825D01*
X0170142Y0025354D01*
X0170241Y0024885D01*
X0170351Y0024418D01*
X0170472Y0023954D01*
X0170605Y0023494D01*
X0170748Y0023036D01*
X0170903Y0022583D01*
X0171069Y0022133D01*
X0171246Y0021687D01*
X0171433Y0021246D01*
X0171631Y0020810D01*
X0171840Y0020378D01*
X0172059Y0019952D01*
X0172289Y0019531D01*
X0172528Y0019116D01*
X0172778Y0018706D01*
X0173038Y0018303D01*
X0173307Y0017907D01*
X0173586Y0017517D01*
X0173874Y0017134D01*
X0174172Y0016758D01*
X0174479Y0016390D01*
X0174794Y0016029D01*
X0175118Y0015676D01*
X0175451Y0015331D01*
X0175792Y0014994D01*
X0176141Y0014665D01*
X0176498Y0014345D01*
X0176863Y0014034D01*
X0177235Y0013732D01*
X0177615Y0013439D01*
X0178001Y0013155D01*
X0178394Y0012881D01*
X0178794Y0012617D01*
X0179200Y0012362D01*
X0179613Y0012117D01*
X0180031Y0011883D01*
X0180454Y0011658D01*
X0180883Y0011444D01*
X0181317Y0011241D01*
X0181756Y0011048D01*
X0182200Y0010866D01*
X0182647Y0010695D01*
X0183099Y0010534D01*
X0183555Y0010385D01*
X0184014Y0010247D01*
X0184476Y0010120D01*
X0184941Y0010004D01*
X0185409Y0009900D01*
X0185879Y0009807D01*
X0186352Y0009726D01*
X0186826Y0009656D01*
X0187302Y0009598D01*
X0187779Y0009551D01*
X0188257Y0009516D01*
X0188736Y0009493D01*
X0189215Y0009481D01*
X0189695Y0009481D01*
X0190174Y0009493D01*
X0190653Y0009516D01*
X0191131Y0009551D01*
X0191608Y0009598D01*
X0192084Y0009656D01*
X0192558Y0009726D01*
X0193031Y0009807D01*
X0193501Y0009900D01*
X0193969Y0010004D01*
X0194434Y0010120D01*
X0194896Y0010247D01*
X0195355Y0010385D01*
X0195811Y0010534D01*
X0196263Y0010695D01*
X0196710Y0010866D01*
X0197154Y0011048D01*
X0197593Y0011241D01*
X0198027Y0011444D01*
X0198456Y0011658D01*
X0198879Y0011883D01*
X0199298Y0012117D01*
X0199710Y0012362D01*
X0200116Y0012617D01*
X0200516Y0012881D01*
X0200909Y0013155D01*
X0201295Y0013439D01*
X0201675Y0013732D01*
X0202047Y0014034D01*
X0202412Y0014345D01*
X0202769Y0014665D01*
X0203118Y0014994D01*
X0203459Y0015331D01*
X0203792Y0015676D01*
X0204116Y0016029D01*
X0204431Y0016390D01*
X0204738Y0016758D01*
X0205036Y0017134D01*
X0205324Y0017517D01*
X0205603Y0017907D01*
X0205872Y0018303D01*
X0206132Y0018706D01*
X0206382Y0019116D01*
X0206621Y0019531D01*
X0206851Y0019952D01*
X0207070Y0020378D01*
X0207279Y0020810D01*
X0207477Y0021246D01*
X0207664Y0021687D01*
X0207841Y0022133D01*
X0208007Y0022583D01*
X0208162Y0023036D01*
X0208305Y0023494D01*
X0208438Y0023954D01*
X0208559Y0024418D01*
X0208669Y0024885D01*
X0208768Y0025354D01*
X0208855Y0025825D01*
X0208930Y0026299D01*
X0208994Y0026774D01*
X0209047Y0027250D01*
X0209087Y0027728D01*
X0209117Y0028207D01*
X0209134Y0028686D01*
X0209140Y0029165D01*
X0209140Y0033102D01*
X0209145Y0033483D01*
X0209158Y0033863D01*
X0209181Y0034243D01*
X0209214Y0034622D01*
X0209255Y0035000D01*
X0209305Y0035377D01*
X0209365Y0035753D01*
X0209433Y0036128D01*
X0209511Y0036500D01*
X0209598Y0036871D01*
X0209693Y0037239D01*
X0209798Y0037605D01*
X0209911Y0037968D01*
X0210033Y0038329D01*
X0210163Y0038686D01*
X0210303Y0039040D01*
X0210450Y0039391D01*
X0210607Y0039738D01*
X0210771Y0040081D01*
X0210944Y0040420D01*
X0211125Y0040755D01*
X0211314Y0041086D01*
X0211511Y0041411D01*
X0211715Y0041732D01*
X0211928Y0042048D01*
X0212148Y0042358D01*
X0212375Y0042664D01*
X0212610Y0042963D01*
X0212852Y0043257D01*
X0213100Y0043545D01*
X0213356Y0043827D01*
X0213619Y0044102D01*
X0213888Y0044371D01*
X0214163Y0044634D01*
X0214445Y0044890D01*
X0214733Y0045138D01*
X0215027Y0045380D01*
X0215326Y0045615D01*
X0215632Y0045842D01*
X0215942Y0046062D01*
X0216258Y0046275D01*
X0216579Y0046479D01*
X0216904Y0046676D01*
X0217235Y0046865D01*
X0217570Y0047046D01*
X0217909Y0047219D01*
X0218252Y0047383D01*
X0218599Y0047540D01*
X0218950Y0047687D01*
X0219304Y0047827D01*
X0219661Y0047957D01*
X0220022Y0048079D01*
X0220385Y0048192D01*
X0220751Y0048297D01*
X0221119Y0048392D01*
X0221490Y0048479D01*
X0221862Y0048557D01*
X0222237Y0048625D01*
X0222613Y0048685D01*
X0222990Y0048735D01*
X0223368Y0048776D01*
X0223747Y0048809D01*
X0224127Y0048832D01*
X0224507Y0048845D01*
X0224888Y0048850D01*
X0309923Y0048850D01*
X0310304Y0048845D01*
X0310684Y0048832D01*
X0311064Y0048809D01*
X0311443Y0048776D01*
X0311821Y0048735D01*
X0312198Y0048685D01*
X0312574Y0048625D01*
X0312949Y0048557D01*
X0313321Y0048479D01*
X0313692Y0048392D01*
X0314060Y0048297D01*
X0314426Y0048192D01*
X0314789Y0048079D01*
X0315150Y0047957D01*
X0315507Y0047827D01*
X0315861Y0047687D01*
X0316212Y0047540D01*
X0316559Y0047383D01*
X0316902Y0047219D01*
X0317241Y0047046D01*
X0317576Y0046865D01*
X0317907Y0046676D01*
X0318232Y0046479D01*
X0318553Y0046275D01*
X0318869Y0046062D01*
X0319179Y0045842D01*
X0319485Y0045615D01*
X0319784Y0045380D01*
X0320078Y0045138D01*
X0320366Y0044890D01*
X0320648Y0044634D01*
X0320923Y0044371D01*
X0321192Y0044102D01*
X0321455Y0043827D01*
X0321711Y0043545D01*
X0321959Y0043257D01*
X0322201Y0042963D01*
X0322436Y0042664D01*
X0322663Y0042358D01*
X0322883Y0042048D01*
X0323096Y0041732D01*
X0323300Y0041411D01*
X0323497Y0041086D01*
X0323686Y0040755D01*
X0323867Y0040420D01*
X0324040Y0040081D01*
X0324204Y0039738D01*
X0324361Y0039391D01*
X0324508Y0039040D01*
X0324648Y0038686D01*
X0324778Y0038329D01*
X0324900Y0037968D01*
X0325013Y0037605D01*
X0325118Y0037239D01*
X0325213Y0036871D01*
X0325300Y0036500D01*
X0325378Y0036128D01*
X0325446Y0035753D01*
X0325506Y0035377D01*
X0325556Y0035000D01*
X0325597Y0034622D01*
X0325630Y0034243D01*
X0325653Y0033863D01*
X0325666Y0033483D01*
X0325671Y0033102D01*
X0325671Y0029165D01*
X0325677Y0028686D01*
X0325694Y0028207D01*
X0325724Y0027728D01*
X0325764Y0027250D01*
X0325817Y0026774D01*
X0325881Y0026299D01*
X0325956Y0025825D01*
X0326043Y0025354D01*
X0326142Y0024885D01*
X0326252Y0024418D01*
X0326373Y0023954D01*
X0326506Y0023494D01*
X0326649Y0023036D01*
X0326804Y0022583D01*
X0326970Y0022133D01*
X0327147Y0021687D01*
X0327334Y0021246D01*
X0327532Y0020810D01*
X0327741Y0020378D01*
X0327960Y0019952D01*
X0328190Y0019531D01*
X0328429Y0019116D01*
X0328679Y0018706D01*
X0328939Y0018303D01*
X0329208Y0017907D01*
X0329487Y0017517D01*
X0329775Y0017134D01*
X0330073Y0016758D01*
X0330380Y0016390D01*
X0330695Y0016029D01*
X0331019Y0015676D01*
X0331352Y0015331D01*
X0331693Y0014994D01*
X0332042Y0014665D01*
X0332399Y0014345D01*
X0332764Y0014034D01*
X0333136Y0013732D01*
X0333516Y0013439D01*
X0333902Y0013155D01*
X0334295Y0012881D01*
X0334695Y0012617D01*
X0335101Y0012362D01*
X0335514Y0012117D01*
X0335932Y0011883D01*
X0336355Y0011658D01*
X0336784Y0011444D01*
X0337218Y0011241D01*
X0337657Y0011048D01*
X0338101Y0010866D01*
X0338548Y0010695D01*
X0339000Y0010534D01*
X0339456Y0010385D01*
X0339915Y0010247D01*
X0340377Y0010120D01*
X0340842Y0010004D01*
X0341310Y0009900D01*
X0341780Y0009807D01*
X0342253Y0009726D01*
X0342727Y0009656D01*
X0343203Y0009598D01*
X0343680Y0009551D01*
X0344158Y0009516D01*
X0344637Y0009493D01*
X0345116Y0009481D01*
X0345596Y0009481D01*
X0346075Y0009493D01*
X0346554Y0009516D01*
X0347032Y0009551D01*
X0347509Y0009598D01*
X0347985Y0009656D01*
X0348459Y0009726D01*
X0348932Y0009807D01*
X0349402Y0009900D01*
X0349870Y0010004D01*
X0350335Y0010120D01*
X0350797Y0010247D01*
X0351256Y0010385D01*
X0351712Y0010534D01*
X0352164Y0010695D01*
X0352611Y0010866D01*
X0353055Y0011048D01*
X0353494Y0011241D01*
X0353928Y0011444D01*
X0354357Y0011658D01*
X0354780Y0011883D01*
X0355199Y0012117D01*
X0355611Y0012362D01*
X0356017Y0012617D01*
X0356417Y0012881D01*
X0356810Y0013155D01*
X0357196Y0013439D01*
X0357576Y0013732D01*
X0357948Y0014034D01*
X0358313Y0014345D01*
X0358670Y0014665D01*
X0359019Y0014994D01*
X0359360Y0015331D01*
X0359693Y0015676D01*
X0360017Y0016029D01*
X0360332Y0016390D01*
X0360639Y0016758D01*
X0360937Y0017134D01*
X0361225Y0017517D01*
X0361504Y0017907D01*
X0361773Y0018303D01*
X0362033Y0018706D01*
X0362283Y0019116D01*
X0362522Y0019531D01*
X0362752Y0019952D01*
X0362971Y0020378D01*
X0363180Y0020810D01*
X0363378Y0021246D01*
X0363565Y0021687D01*
X0363742Y0022133D01*
X0363908Y0022583D01*
X0364063Y0023036D01*
X0364206Y0023494D01*
X0364339Y0023954D01*
X0364460Y0024418D01*
X0364570Y0024885D01*
X0364669Y0025354D01*
X0364756Y0025825D01*
X0364831Y0026299D01*
X0364895Y0026774D01*
X0364948Y0027250D01*
X0364988Y0027728D01*
X0365018Y0028207D01*
X0365035Y0028686D01*
X0365041Y0029165D01*
X0365041Y0292236D01*
X0365035Y0292715D01*
X0365018Y0293194D01*
X0364988Y0293673D01*
X0364948Y0294151D01*
X0364895Y0294627D01*
X0364831Y0295102D01*
X0364756Y0295576D01*
X0364669Y0296047D01*
X0364570Y0296516D01*
X0364460Y0296983D01*
X0364339Y0297447D01*
X0364206Y0297907D01*
X0364063Y0298365D01*
X0363908Y0298818D01*
X0363742Y0299268D01*
X0363565Y0299714D01*
X0363378Y0300155D01*
X0363180Y0300591D01*
X0362971Y0301023D01*
X0362752Y0301449D01*
X0362522Y0301870D01*
X0362283Y0302285D01*
X0362033Y0302695D01*
X0361773Y0303098D01*
X0361504Y0303494D01*
X0361225Y0303884D01*
X0360937Y0304267D01*
X0360639Y0304643D01*
X0360332Y0305011D01*
X0360017Y0305372D01*
X0359693Y0305725D01*
X0359360Y0306070D01*
X0359019Y0306407D01*
X0358670Y0306736D01*
X0358313Y0307056D01*
X0357948Y0307367D01*
X0357576Y0307669D01*
X0357196Y0307962D01*
X0356810Y0308246D01*
X0356417Y0308520D01*
X0356017Y0308784D01*
X0355611Y0309039D01*
X0355199Y0309284D01*
X0354780Y0309518D01*
X0354357Y0309743D01*
X0353928Y0309957D01*
X0353494Y0310160D01*
X0353055Y0310353D01*
X0352611Y0310535D01*
X0352164Y0310706D01*
X0351712Y0310867D01*
X0351256Y0311016D01*
X0350797Y0311154D01*
X0350335Y0311281D01*
X0349870Y0311397D01*
X0349402Y0311501D01*
X0348932Y0311594D01*
X0348459Y0311675D01*
X0347985Y0311745D01*
X0347509Y0311803D01*
X0347032Y0311850D01*
X0346554Y0311885D01*
X0346075Y0311908D01*
X0345596Y0311920D01*
X0345116Y0311920D01*
X0344637Y0311908D01*
X0344158Y0311885D01*
X0343680Y0311850D01*
X0343203Y0311803D01*
X0342727Y0311745D01*
X0342253Y0311675D01*
X0341780Y0311594D01*
X0341310Y0311501D01*
X0340842Y0311397D01*
X0340377Y0311281D01*
X0339915Y0311154D01*
X0339456Y0311016D01*
X0339000Y0310867D01*
X0338548Y0310706D01*
X0338101Y0310535D01*
X0337657Y0310353D01*
X0337218Y0310160D01*
X0336784Y0309957D01*
X0336355Y0309743D01*
X0335932Y0309518D01*
X0335514Y0309284D01*
X0335101Y0309039D01*
X0334695Y0308784D01*
X0334295Y0308520D01*
X0333902Y0308246D01*
X0333516Y0307962D01*
X0333136Y0307669D01*
X0332764Y0307367D01*
X0332399Y0307056D01*
X0332042Y0306736D01*
X0331693Y0306407D01*
X0331352Y0306070D01*
X0331019Y0305725D01*
X0330695Y0305372D01*
X0330380Y0305011D01*
X0330073Y0304643D01*
X0329775Y0304267D01*
X0329487Y0303884D01*
X0329208Y0303494D01*
X0328939Y0303098D01*
X0328679Y0302695D01*
X0328429Y0302285D01*
X0328190Y0301870D01*
X0327960Y0301449D01*
X0327741Y0301023D01*
X0327532Y0300591D01*
X0327334Y0300155D01*
X0327147Y0299714D01*
X0326970Y0299268D01*
X0326804Y0298818D01*
X0326649Y0298365D01*
X0326506Y0297907D01*
X0326373Y0297447D01*
X0326252Y0296983D01*
X0326142Y0296516D01*
X0326043Y0296047D01*
X0325956Y0295576D01*
X0325881Y0295102D01*
X0325817Y0294627D01*
X0325764Y0294151D01*
X0325724Y0293673D01*
X0325694Y0293194D01*
X0325677Y0292715D01*
X0325671Y0292236D01*
X0325671Y0288299D01*
X0325666Y0287918D01*
X0325653Y0287538D01*
X0325630Y0287158D01*
X0325597Y0286779D01*
X0325556Y0286401D01*
X0325506Y0286024D01*
X0325446Y0285648D01*
X0325378Y0285273D01*
X0325300Y0284901D01*
X0325213Y0284530D01*
X0325118Y0284162D01*
X0325013Y0283796D01*
X0324900Y0283433D01*
X0324778Y0283072D01*
X0324648Y0282715D01*
X0324508Y0282361D01*
X0324361Y0282010D01*
X0324204Y0281663D01*
X0324040Y0281320D01*
X0323867Y0280981D01*
X0323686Y0280646D01*
X0323497Y0280315D01*
X0323300Y0279990D01*
X0323096Y0279669D01*
X0322883Y0279353D01*
X0322663Y0279043D01*
X0322436Y0278737D01*
X0322201Y0278438D01*
X0321959Y0278144D01*
X0321711Y0277856D01*
X0321455Y0277574D01*
X0321192Y0277299D01*
X0320923Y0277030D01*
X0320648Y0276767D01*
X0320366Y0276511D01*
X0320078Y0276263D01*
X0319784Y0276021D01*
X0319485Y0275786D01*
X0319179Y0275559D01*
X0318869Y0275339D01*
X0318553Y0275126D01*
X0318232Y0274922D01*
X0317907Y0274725D01*
X0317576Y0274536D01*
X0317241Y0274355D01*
X0316902Y0274182D01*
X0316559Y0274018D01*
X0316212Y0273861D01*
X0315861Y0273714D01*
X0315507Y0273574D01*
X0315150Y0273444D01*
X0314789Y0273322D01*
X0314426Y0273209D01*
X0314060Y0273104D01*
X0313692Y0273009D01*
X0313321Y0272922D01*
X0312949Y0272844D01*
X0312574Y0272776D01*
X0312198Y0272716D01*
X0311821Y0272666D01*
X0311443Y0272625D01*
X0311064Y0272592D01*
X0310684Y0272569D01*
X0310304Y0272556D01*
X0309923Y0272551D01*
X0224888Y0272551D01*
X0224507Y0272556D01*
X0224127Y0272569D01*
X0223747Y0272592D01*
X0223368Y0272625D01*
X0222990Y0272666D01*
X0222613Y0272716D01*
X0222237Y0272776D01*
X0221862Y0272844D01*
X0221490Y0272922D01*
X0221119Y0273009D01*
X0220751Y0273104D01*
X0220385Y0273209D01*
X0220022Y0273322D01*
X0219661Y0273444D01*
X0219304Y0273574D01*
X0218950Y0273714D01*
X0218599Y0273861D01*
X0218252Y0274018D01*
X0217909Y0274182D01*
X0217570Y0274355D01*
X0217235Y0274536D01*
X0216904Y0274725D01*
X0216579Y0274922D01*
X0216258Y0275126D01*
X0215942Y0275339D01*
X0215632Y0275559D01*
X0215326Y0275786D01*
X0215027Y0276021D01*
X0214733Y0276263D01*
X0214445Y0276511D01*
X0214163Y0276767D01*
X0213888Y0277030D01*
X0213619Y0277299D01*
X0213356Y0277574D01*
X0213100Y0277856D01*
X0212852Y0278144D01*
X0212610Y0278438D01*
X0212375Y0278737D01*
X0212148Y0279043D01*
X0211928Y0279353D01*
X0211715Y0279669D01*
X0211511Y0279990D01*
X0211314Y0280315D01*
X0211125Y0280646D01*
X0210944Y0280981D01*
X0210771Y0281320D01*
X0210607Y0281663D01*
X0210450Y0282010D01*
X0210303Y0282361D01*
X0210163Y0282715D01*
X0210033Y0283072D01*
X0209911Y0283433D01*
X0209798Y0283796D01*
X0209693Y0284162D01*
X0209598Y0284530D01*
X0209511Y0284901D01*
X0209433Y0285273D01*
X0209365Y0285648D01*
X0209305Y0286024D01*
X0209255Y0286401D01*
X0209214Y0286779D01*
X0209181Y0287158D01*
X0209158Y0287538D01*
X0209145Y0287918D01*
X0209140Y0288299D01*
X0209140Y0292236D01*
X0209134Y0292715D01*
X0209117Y0293194D01*
X0209087Y0293673D01*
X0209047Y0294151D01*
X0208994Y0294627D01*
X0208930Y0295102D01*
X0208855Y0295576D01*
X0208768Y0296047D01*
X0208669Y0296516D01*
X0208559Y0296983D01*
X0208438Y0297447D01*
X0208305Y0297907D01*
X0208162Y0298365D01*
X0208007Y0298818D01*
X0207841Y0299268D01*
X0207664Y0299714D01*
X0207477Y0300155D01*
X0207279Y0300591D01*
X0207070Y0301023D01*
X0206851Y0301449D01*
X0206621Y0301870D01*
X0206382Y0302285D01*
X0206132Y0302695D01*
X0205872Y0303098D01*
X0205603Y0303494D01*
X0205324Y0303884D01*
X0205036Y0304267D01*
X0204738Y0304643D01*
X0204431Y0305011D01*
X0204116Y0305372D01*
X0203792Y0305725D01*
X0203459Y0306070D01*
X0203118Y0306407D01*
X0202769Y0306736D01*
X0202412Y0307056D01*
X0202047Y0307367D01*
X0201675Y0307669D01*
X0201295Y0307962D01*
X0200909Y0308246D01*
X0200516Y0308520D01*
X0200116Y0308784D01*
X0199710Y0309039D01*
X0199298Y0309284D01*
X0198879Y0309518D01*
X0198456Y0309743D01*
X0198027Y0309957D01*
X0197593Y0310160D01*
X0197154Y0310353D01*
X0196710Y0310535D01*
X0196263Y0310706D01*
X0195811Y0310867D01*
X0195355Y0311016D01*
X0194896Y0311154D01*
X0194434Y0311281D01*
X0193969Y0311397D01*
X0193501Y0311501D01*
X0193031Y0311594D01*
X0192558Y0311675D01*
X0192084Y0311745D01*
X0191608Y0311803D01*
X0191131Y0311850D01*
X0190653Y0311885D01*
X0190174Y0311908D01*
X0189695Y0311920D01*
X0189215Y0311920D01*
X0188736Y0311908D01*
X0188257Y0311885D01*
X0187779Y0311850D01*
X0187302Y0311803D01*
X0186826Y0311745D01*
X0186352Y0311675D01*
X0185879Y0311594D01*
X0185409Y0311501D01*
X0184941Y0311397D01*
X0184476Y0311281D01*
X0184014Y0311154D01*
X0183555Y0311016D01*
X0183099Y0310867D01*
X0182647Y0310706D01*
X0182200Y0310535D01*
X0181756Y0310353D01*
X0181317Y0310160D01*
X0180883Y0309957D01*
X0180454Y0309743D01*
X0180031Y0309518D01*
X0179613Y0309284D01*
X0179200Y0309039D01*
X0178794Y0308784D01*
X0178394Y0308520D01*
X0178001Y0308246D01*
X0177615Y0307962D01*
X0177235Y0307669D01*
X0176863Y0307367D01*
X0176498Y0307056D01*
X0176141Y0306736D01*
X0175792Y0306407D01*
X0175451Y0306070D01*
X0175118Y0305725D01*
X0174794Y0305372D01*
X0174479Y0305011D01*
X0174172Y0304643D01*
X0173874Y0304267D01*
X0173586Y0303884D01*
X0173307Y0303494D01*
X0173038Y0303098D01*
X0172778Y0302695D01*
X0172528Y0302285D01*
X0172289Y0301870D01*
X0172059Y0301449D01*
X0171840Y0301023D01*
X0171631Y0300591D01*
X0171433Y0300155D01*
X0171246Y0299714D01*
X0171069Y0299268D01*
X0170903Y0298818D01*
X0170748Y0298365D01*
X0170605Y0297907D01*
X0170472Y0297447D01*
X0170351Y0296983D01*
X0170241Y0296516D01*
X0170142Y0296047D01*
X0170055Y0295576D01*
X0169980Y0295102D01*
X0169916Y0294627D01*
X0169863Y0294151D01*
X0169823Y0293673D01*
X0169793Y0293194D01*
X0169776Y0292715D01*
X0169770Y0292236D01*
X0169770Y0288299D01*
X0169765Y0287918D01*
X0169752Y0287538D01*
X0169729Y0287158D01*
X0169696Y0286779D01*
X0169655Y0286401D01*
X0169605Y0286024D01*
X0169545Y0285648D01*
X0169477Y0285273D01*
X0169399Y0284901D01*
X0169312Y0284530D01*
X0169217Y0284162D01*
X0169112Y0283796D01*
X0168999Y0283433D01*
X0168877Y0283072D01*
X0168747Y0282715D01*
X0168607Y0282361D01*
X0168460Y0282010D01*
X0168303Y0281663D01*
X0168139Y0281320D01*
X0167966Y0280981D01*
X0167785Y0280646D01*
X0167596Y0280315D01*
X0167399Y0279990D01*
X0167195Y0279669D01*
X0166982Y0279353D01*
X0166762Y0279043D01*
X0166535Y0278737D01*
X0166300Y0278438D01*
X0166058Y0278144D01*
X0165810Y0277856D01*
X0165554Y0277574D01*
X0165291Y0277299D01*
X0165022Y0277030D01*
X0164747Y0276767D01*
X0164465Y0276511D01*
X0164177Y0276263D01*
X0163883Y0276021D01*
X0163584Y0275786D01*
X0163278Y0275559D01*
X0162968Y0275339D01*
X0162652Y0275126D01*
X0162331Y0274922D01*
X0162006Y0274725D01*
X0161675Y0274536D01*
X0161340Y0274355D01*
X0161001Y0274182D01*
X0160658Y0274018D01*
X0160311Y0273861D01*
X0159960Y0273714D01*
X0159606Y0273574D01*
X0159249Y0273444D01*
X0158888Y0273322D01*
X0158525Y0273209D01*
X0158159Y0273104D01*
X0157791Y0273009D01*
X0157420Y0272922D01*
X0157048Y0272844D01*
X0156673Y0272776D01*
X0156297Y0272716D01*
X0155920Y0272666D01*
X0155542Y0272625D01*
X0155163Y0272592D01*
X0154783Y0272569D01*
X0154403Y0272556D01*
X0154022Y0272551D01*
X0068986Y0272551D01*
X0068605Y0272556D01*
X0068225Y0272569D01*
X0067845Y0272592D01*
X0067466Y0272625D01*
X0067088Y0272666D01*
X0066711Y0272716D01*
X0066335Y0272776D01*
X0065960Y0272844D01*
X0065588Y0272922D01*
X0065217Y0273009D01*
X0064849Y0273104D01*
X0064483Y0273209D01*
X0064120Y0273322D01*
X0063759Y0273444D01*
X0063402Y0273574D01*
X0063048Y0273714D01*
X0062697Y0273861D01*
X0062350Y0274018D01*
X0062007Y0274182D01*
X0061668Y0274355D01*
X0061333Y0274536D01*
X0061002Y0274725D01*
X0060677Y0274922D01*
X0060356Y0275126D01*
X0060040Y0275339D01*
X0059730Y0275559D01*
X0059424Y0275786D01*
X0059125Y0276021D01*
X0058831Y0276263D01*
X0058543Y0276511D01*
X0058261Y0276767D01*
X0057986Y0277030D01*
X0057717Y0277299D01*
X0057454Y0277574D01*
X0057198Y0277856D01*
X0056950Y0278144D01*
X0056708Y0278438D01*
X0056473Y0278737D01*
X0056246Y0279043D01*
X0056026Y0279353D01*
X0055813Y0279669D01*
X0055609Y0279990D01*
X0055412Y0280315D01*
X0055223Y0280646D01*
X0055042Y0280981D01*
X0054869Y0281320D01*
X0054705Y0281663D01*
X0054548Y0282010D01*
X0054401Y0282361D01*
X0054261Y0282715D01*
X0054131Y0283072D01*
X0054009Y0283433D01*
X0053896Y0283796D01*
X0053791Y0284162D01*
X0053696Y0284530D01*
X0053609Y0284901D01*
X0053531Y0285273D01*
X0053463Y0285648D01*
X0053403Y0286024D01*
X0053353Y0286401D01*
X0053312Y0286779D01*
X0053279Y0287158D01*
X0053256Y0287538D01*
X0053243Y0287918D01*
X0053238Y0288299D01*
X0053238Y0292236D01*
X0053232Y0292715D01*
X0053215Y0293194D01*
X0053185Y0293673D01*
X0053145Y0294151D01*
X0053092Y0294627D01*
X0053028Y0295102D01*
X0052953Y0295576D01*
X0052866Y0296047D01*
X0052767Y0296516D01*
X0052657Y0296983D01*
X0052536Y0297447D01*
X0052403Y0297907D01*
X0052260Y0298365D01*
X0052105Y0298818D01*
X0051939Y0299268D01*
X0051762Y0299714D01*
X0051575Y0300155D01*
X0051377Y0300591D01*
X0051168Y0301023D01*
X0050949Y0301449D01*
X0050719Y0301870D01*
X0050480Y0302285D01*
X0050230Y0302695D01*
X0049970Y0303098D01*
X0049701Y0303494D01*
X0049422Y0303884D01*
X0049134Y0304267D01*
X0048836Y0304643D01*
X0048529Y0305011D01*
X0048214Y0305372D01*
X0047890Y0305725D01*
X0047557Y0306070D01*
X0047216Y0306407D01*
X0046867Y0306736D01*
X0046510Y0307056D01*
X0046145Y0307367D01*
X0045773Y0307669D01*
X0045393Y0307962D01*
X0045007Y0308246D01*
X0044614Y0308520D01*
X0044214Y0308784D01*
X0043808Y0309039D01*
X0043396Y0309284D01*
X0042977Y0309518D01*
X0042554Y0309743D01*
X0042125Y0309957D01*
X0041691Y0310160D01*
X0041252Y0310353D01*
X0040808Y0310535D01*
X0040361Y0310706D01*
X0039909Y0310867D01*
X0039453Y0311016D01*
X0038994Y0311154D01*
X0038532Y0311281D01*
X0038067Y0311397D01*
X0037599Y0311501D01*
X0037129Y0311594D01*
X0036656Y0311675D01*
X0036182Y0311745D01*
X0035706Y0311803D01*
X0035229Y0311850D01*
X0034751Y0311885D01*
X0034272Y0311908D01*
X0033793Y0311920D01*
X0033313Y0311920D01*
X0032834Y0311908D01*
X0032355Y0311885D01*
X0031877Y0311850D01*
X0031400Y0311803D01*
X0030924Y0311745D01*
X0030450Y0311675D01*
X0029977Y0311594D01*
X0029507Y0311501D01*
X0029039Y0311397D01*
X0028574Y0311281D01*
X0028112Y0311154D01*
X0027653Y0311016D01*
X0027197Y0310867D01*
X0026745Y0310706D01*
X0026298Y0310535D01*
X0025854Y0310353D01*
X0025415Y0310160D01*
X0024981Y0309957D01*
X0024552Y0309743D01*
X0024129Y0309518D01*
X0023711Y0309284D01*
X0023298Y0309039D01*
X0022892Y0308784D01*
X0022492Y0308520D01*
X0022099Y0308246D01*
X0021713Y0307962D01*
X0021333Y0307669D01*
X0020961Y0307367D01*
X0020596Y0307056D01*
X0020239Y0306736D01*
X0019890Y0306407D01*
X0019549Y0306070D01*
X0019216Y0305725D01*
X0018892Y0305372D01*
X0018577Y0305011D01*
X0018270Y0304643D01*
X0017972Y0304267D01*
X0017684Y0303884D01*
X0017405Y0303494D01*
X0017136Y0303098D01*
X0016876Y0302695D01*
X0016626Y0302285D01*
X0016387Y0301870D01*
X0016157Y0301449D01*
X0015938Y0301023D01*
X0015729Y0300591D01*
X0015531Y0300155D01*
X0015344Y0299714D01*
X0015167Y0299268D01*
X0015001Y0298818D01*
X0014846Y0298365D01*
X0014703Y0297907D01*
X0014570Y0297447D01*
X0014449Y0296983D01*
X0014339Y0296516D01*
X0014240Y0296047D01*
X0014153Y0295576D01*
X0014078Y0295102D01*
X0014014Y0294627D01*
X0013961Y0294151D01*
X0013921Y0293673D01*
X0013891Y0293194D01*
X0013874Y0292715D01*
X0013868Y0292236D01*
D12*
X0091368Y0258850D03*
X0121368Y0258850D03*
X0151368Y0258850D03*
X0186368Y0258850D03*
X0216368Y0258850D03*
X0246368Y0258850D03*
X0348868Y0168850D03*
X0348868Y0061350D03*
X0251368Y0063850D03*
X0221368Y0063850D03*
X0191368Y0063850D03*
X0156368Y0063850D03*
X0126368Y0063850D03*
X0096368Y0063850D03*
D13*
X0096368Y0073850D03*
X0126368Y0073850D03*
X0156368Y0073850D03*
X0191368Y0073850D03*
X0221368Y0073850D03*
X0251368Y0073850D03*
X0282616Y0072598D03*
X0292616Y0072598D03*
X0256368Y0108850D03*
X0256368Y0118850D03*
X0281368Y0185102D03*
X0281368Y0195102D03*
X0246368Y0248850D03*
X0216368Y0248850D03*
X0186368Y0248850D03*
X0151368Y0248850D03*
X0121368Y0248850D03*
X0091368Y0248850D03*
X0086368Y0213850D03*
X0086368Y0203850D03*
X0181368Y0203850D03*
X0181368Y0213850D03*
X0161368Y0118850D03*
X0161368Y0108850D03*
X0348868Y0071350D03*
X0348868Y0178850D03*
D14*
X0241368Y0201050D02*
X0241368Y0206650D01*
X0231368Y0206650D02*
X0231368Y0201050D01*
X0221368Y0201050D02*
X0221368Y0206650D01*
X0146368Y0206650D02*
X0146368Y0201050D01*
X0136368Y0201050D02*
X0136368Y0206650D01*
X0126368Y0206650D02*
X0126368Y0201050D01*
X0121368Y0121650D02*
X0121368Y0116050D01*
X0111368Y0116050D02*
X0111368Y0121650D01*
X0101368Y0121650D02*
X0101368Y0116050D01*
X0196368Y0116050D02*
X0196368Y0121650D01*
X0206368Y0121650D02*
X0206368Y0116050D01*
X0216368Y0116050D02*
X0216368Y0121650D01*
D15*
X0217368Y0091350D03*
X0195368Y0091350D03*
X0163868Y0091350D03*
X0153868Y0091350D03*
X0122368Y0091350D03*
X0100368Y0091350D03*
X0248868Y0091350D03*
X0258868Y0091350D03*
X0303868Y0072598D03*
X0313868Y0072598D03*
X0291368Y0210102D03*
X0281368Y0210102D03*
X0242368Y0231350D03*
X0220368Y0231350D03*
X0188868Y0231350D03*
X0178868Y0231350D03*
X0147368Y0231350D03*
X0125368Y0231350D03*
X0093868Y0231350D03*
X0083868Y0231350D03*
D16*
X0117368Y0231350D03*
X0155368Y0231350D03*
X0212368Y0231350D03*
X0250368Y0231350D03*
X0225368Y0091350D03*
X0187368Y0091350D03*
X0130368Y0091350D03*
X0092368Y0091350D03*
D17*
X0086368Y0141350D03*
X0126368Y0141350D03*
X0121368Y0181350D03*
X0161368Y0181350D03*
X0181368Y0141350D03*
X0221368Y0141350D03*
X0216368Y0181350D03*
X0256368Y0181350D03*
D18*
X0238369Y0141350D02*
X0230769Y0141337D01*
X0250367Y0137350D02*
X0257967Y0137363D01*
X0206967Y0181363D02*
X0199367Y0181350D01*
X0187369Y0185350D02*
X0179769Y0185337D01*
X0143369Y0141350D02*
X0135769Y0141337D01*
X0155367Y0137350D02*
X0162967Y0137363D01*
X0111967Y0181363D02*
X0104367Y0181350D01*
X0092369Y0185350D02*
X0084769Y0185337D01*
D19*
X0312057Y0205102D02*
X0335679Y0205102D01*
X0335679Y0247598D02*
X0312057Y0247598D01*
X0312057Y0143850D02*
X0335679Y0143850D01*
X0335679Y0098850D02*
X0312057Y0098850D01*
D20*
X0061368Y0109803D02*
X0051368Y0109803D01*
X0051368Y0125393D02*
X0061368Y0125393D01*
X0061368Y0151055D02*
X0051368Y0151055D01*
X0051368Y0166645D02*
X0061368Y0166645D01*
X0061368Y0193555D02*
X0051368Y0193555D01*
X0051368Y0209145D02*
X0061368Y0209145D01*
X0061368Y0236055D02*
X0051368Y0236055D01*
X0051368Y0251645D02*
X0061368Y0251645D01*
X0061368Y0085393D02*
X0051368Y0085393D01*
X0051368Y0069803D02*
X0061368Y0069803D01*
D21*
X0078868Y0068835D02*
X0089953Y0068835D01*
X0090125Y0069249D02*
X0089668Y0068147D01*
X0089668Y0059553D01*
X0090125Y0058451D01*
X0090969Y0057607D01*
X0092071Y0057150D01*
X0100665Y0057150D01*
X0101767Y0057607D01*
X0102611Y0058451D01*
X0103068Y0059553D01*
X0103068Y0068147D01*
X0102611Y0069249D01*
X0101767Y0070093D01*
X0100665Y0070550D01*
X0100522Y0070550D01*
X0100901Y0071072D01*
X0101280Y0071816D01*
X0101538Y0072609D01*
X0101668Y0073433D01*
X0101668Y0073850D01*
X0101668Y0074267D01*
X0101538Y0075091D01*
X0101280Y0075884D01*
X0100901Y0076628D01*
X0100411Y0077303D01*
X0099821Y0077893D01*
X0099146Y0078383D01*
X0098403Y0078762D01*
X0097609Y0079019D01*
X0096785Y0079150D01*
X0096368Y0079150D01*
X0095951Y0079150D01*
X0095127Y0079019D01*
X0094334Y0078762D01*
X0093590Y0078383D01*
X0092915Y0077893D01*
X0092325Y0077303D01*
X0091835Y0076628D01*
X0091456Y0075884D01*
X0091199Y0075091D01*
X0091068Y0074267D01*
X0091068Y0073850D01*
X0096368Y0073850D01*
X0096368Y0073850D01*
X0091068Y0073850D01*
X0091068Y0073433D01*
X0091199Y0072609D01*
X0091456Y0071816D01*
X0091835Y0071072D01*
X0092215Y0070550D01*
X0092071Y0070550D01*
X0090969Y0070093D01*
X0090125Y0069249D01*
X0089668Y0066837D02*
X0078868Y0066837D01*
X0078868Y0064838D02*
X0089668Y0064838D01*
X0089668Y0062840D02*
X0078868Y0062840D01*
X0078868Y0060841D02*
X0089668Y0060841D01*
X0089962Y0058843D02*
X0078868Y0058843D01*
X0078868Y0056844D02*
X0168868Y0056844D01*
X0168868Y0056350D02*
X0078868Y0056350D01*
X0078868Y0076350D01*
X0091368Y0076350D01*
X0098868Y0083850D01*
X0098868Y0085750D01*
X0102688Y0085750D01*
X0105968Y0089030D01*
X0105968Y0093670D01*
X0102688Y0096950D01*
X0101968Y0096950D01*
X0108868Y0103850D01*
X0108868Y0110808D01*
X0110214Y0110250D01*
X0112522Y0110250D01*
X0114654Y0111133D01*
X0116285Y0112765D01*
X0117139Y0114827D01*
X0117290Y0114361D01*
X0117605Y0113744D01*
X0118012Y0113184D01*
X0118502Y0112694D01*
X0119062Y0112287D01*
X0119679Y0111972D01*
X0120338Y0111758D01*
X0121022Y0111650D01*
X0121368Y0111650D01*
X0121368Y0118850D01*
X0121368Y0126050D01*
X0121022Y0126050D01*
X0120338Y0125942D01*
X0119679Y0125728D01*
X0119062Y0125413D01*
X0118502Y0125006D01*
X0118012Y0124516D01*
X0117605Y0123956D01*
X0117290Y0123339D01*
X0117139Y0122873D01*
X0116285Y0124935D01*
X0114654Y0126567D01*
X0112522Y0127450D01*
X0110214Y0127450D01*
X0108868Y0126892D01*
X0108868Y0133850D01*
X0113868Y0136350D01*
X0122459Y0136350D01*
X0122799Y0136009D01*
X0125115Y0135050D01*
X0127621Y0135050D01*
X0127863Y0135150D01*
X0132935Y0135150D01*
X0134428Y0134535D01*
X0144733Y0134553D01*
X0145391Y0134827D01*
X0146368Y0133850D01*
X0146368Y0128850D01*
X0148868Y0126350D01*
X0166368Y0126350D01*
X0168868Y0123850D01*
X0168868Y0094270D01*
X0167498Y0095640D01*
X0166265Y0104271D01*
X0167048Y0105055D01*
X0168068Y0107517D01*
X0168068Y0110183D01*
X0167048Y0112645D01*
X0165843Y0113850D01*
X0167048Y0115055D01*
X0168068Y0117517D01*
X0168068Y0120183D01*
X0167048Y0122645D01*
X0165163Y0124530D01*
X0162701Y0125550D01*
X0160035Y0125550D01*
X0157573Y0124530D01*
X0155688Y0122645D01*
X0154668Y0120183D01*
X0154668Y0117517D01*
X0155688Y0115055D01*
X0156893Y0113850D01*
X0155688Y0112645D01*
X0154668Y0110183D01*
X0154668Y0107517D01*
X0155688Y0105055D01*
X0157573Y0103170D01*
X0157960Y0103010D01*
X0159166Y0094567D01*
X0158268Y0093670D01*
X0158268Y0089030D01*
X0161549Y0085750D01*
X0166188Y0085750D01*
X0168868Y0088430D01*
X0168868Y0056350D01*
X0168868Y0058843D02*
X0162774Y0058843D01*
X0162611Y0058451D02*
X0163068Y0059553D01*
X0163068Y0068147D01*
X0162611Y0069249D01*
X0161767Y0070093D01*
X0160665Y0070550D01*
X0160522Y0070550D01*
X0160901Y0071072D01*
X0161280Y0071816D01*
X0161538Y0072609D01*
X0161668Y0073433D01*
X0161668Y0073850D01*
X0161668Y0074267D01*
X0161538Y0075091D01*
X0161280Y0075884D01*
X0160901Y0076628D01*
X0160411Y0077303D01*
X0159821Y0077893D01*
X0159146Y0078383D01*
X0158403Y0078762D01*
X0157609Y0079019D01*
X0156785Y0079150D01*
X0156368Y0079150D01*
X0155951Y0079150D01*
X0155127Y0079019D01*
X0154334Y0078762D01*
X0153590Y0078383D01*
X0152915Y0077893D01*
X0152325Y0077303D01*
X0151835Y0076628D01*
X0151456Y0075884D01*
X0151199Y0075091D01*
X0151068Y0074267D01*
X0151068Y0073850D01*
X0156368Y0073850D01*
X0156368Y0073850D01*
X0151068Y0073850D01*
X0151068Y0073433D01*
X0151199Y0072609D01*
X0151456Y0071816D01*
X0151835Y0071072D01*
X0152215Y0070550D01*
X0152071Y0070550D01*
X0150969Y0070093D01*
X0150125Y0069249D01*
X0149668Y0068147D01*
X0149668Y0059553D01*
X0150125Y0058451D01*
X0150969Y0057607D01*
X0152071Y0057150D01*
X0160665Y0057150D01*
X0161767Y0057607D01*
X0162611Y0058451D01*
X0163068Y0060841D02*
X0168868Y0060841D01*
X0168868Y0062840D02*
X0163068Y0062840D01*
X0163068Y0064838D02*
X0168868Y0064838D01*
X0168868Y0066837D02*
X0163068Y0066837D01*
X0162783Y0068835D02*
X0168868Y0068835D01*
X0168868Y0070834D02*
X0160728Y0070834D01*
X0161573Y0072832D02*
X0168868Y0072832D01*
X0168868Y0074831D02*
X0161579Y0074831D01*
X0161668Y0073850D02*
X0156368Y0073850D01*
X0156368Y0079150D01*
X0156368Y0073850D01*
X0156368Y0073850D01*
X0156368Y0073850D01*
X0161668Y0073850D01*
X0160755Y0076829D02*
X0168868Y0076829D01*
X0168868Y0078828D02*
X0158200Y0078828D01*
X0156368Y0078828D02*
X0156368Y0078828D01*
X0154537Y0078828D02*
X0128200Y0078828D01*
X0128403Y0078762D02*
X0127609Y0079019D01*
X0126785Y0079150D01*
X0126368Y0079150D01*
X0125951Y0079150D01*
X0125127Y0079019D01*
X0124334Y0078762D01*
X0123590Y0078383D01*
X0122915Y0077893D01*
X0122325Y0077303D01*
X0121835Y0076628D01*
X0121456Y0075884D01*
X0121199Y0075091D01*
X0121068Y0074267D01*
X0121068Y0073850D01*
X0126368Y0073850D01*
X0126368Y0073850D01*
X0121068Y0073850D01*
X0121068Y0073433D01*
X0121199Y0072609D01*
X0121456Y0071816D01*
X0121835Y0071072D01*
X0122215Y0070550D01*
X0122071Y0070550D01*
X0120969Y0070093D01*
X0120125Y0069249D01*
X0119668Y0068147D01*
X0119668Y0059553D01*
X0120125Y0058451D01*
X0120969Y0057607D01*
X0122071Y0057150D01*
X0130665Y0057150D01*
X0131767Y0057607D01*
X0132611Y0058451D01*
X0133068Y0059553D01*
X0133068Y0068147D01*
X0132611Y0069249D01*
X0131767Y0070093D01*
X0130665Y0070550D01*
X0130522Y0070550D01*
X0130901Y0071072D01*
X0131280Y0071816D01*
X0131538Y0072609D01*
X0131668Y0073433D01*
X0131668Y0073850D01*
X0131668Y0074267D01*
X0131538Y0075091D01*
X0131280Y0075884D01*
X0130901Y0076628D01*
X0130411Y0077303D01*
X0129821Y0077893D01*
X0129146Y0078383D01*
X0128403Y0078762D01*
X0126368Y0078828D02*
X0126368Y0078828D01*
X0126368Y0079150D02*
X0126368Y0073850D01*
X0126368Y0079150D01*
X0124537Y0078828D02*
X0098200Y0078828D01*
X0096368Y0078828D02*
X0096368Y0078828D01*
X0096368Y0079150D02*
X0096368Y0073850D01*
X0096368Y0079150D01*
X0095844Y0080826D02*
X0168868Y0080826D01*
X0168868Y0082825D02*
X0097843Y0082825D01*
X0098868Y0084823D02*
X0168868Y0084823D01*
X0168868Y0086822D02*
X0167259Y0086822D01*
X0173868Y0086822D02*
X0188868Y0086822D01*
X0188868Y0086350D02*
X0188868Y0087421D01*
X0188352Y0087253D01*
X0187699Y0087150D01*
X0187368Y0087150D01*
X0187368Y0091350D01*
X0187368Y0091350D01*
X0183168Y0091350D01*
X0183168Y0091681D01*
X0183272Y0092334D01*
X0183476Y0092962D01*
X0183776Y0093551D01*
X0184165Y0094086D01*
X0184632Y0094554D01*
X0185167Y0094942D01*
X0185756Y0095242D01*
X0186385Y0095447D01*
X0187038Y0095550D01*
X0187368Y0095550D01*
X0187368Y0091350D01*
X0183168Y0091350D01*
X0183168Y0091019D01*
X0183272Y0090366D01*
X0183476Y0089738D01*
X0183776Y0089149D01*
X0184165Y0088614D01*
X0184632Y0088146D01*
X0185167Y0087758D01*
X0185756Y0087458D01*
X0186385Y0087253D01*
X0187038Y0087150D01*
X0187368Y0087150D01*
X0187368Y0091350D01*
X0187368Y0091350D01*
X0187368Y0091350D01*
X0187368Y0095550D01*
X0187699Y0095550D01*
X0188352Y0095447D01*
X0188868Y0095279D01*
X0188868Y0096350D01*
X0198868Y0106350D01*
X0198868Y0112428D01*
X0198674Y0112287D01*
X0198057Y0111972D01*
X0197398Y0111758D01*
X0196714Y0111650D01*
X0196368Y0111650D01*
X0196368Y0118850D01*
X0196368Y0118850D01*
X0191968Y0118850D01*
X0191968Y0121996D01*
X0192076Y0122680D01*
X0192290Y0123339D01*
X0192605Y0123956D01*
X0193012Y0124516D01*
X0193502Y0125006D01*
X0194062Y0125413D01*
X0194679Y0125728D01*
X0195338Y0125942D01*
X0196022Y0126050D01*
X0196368Y0126050D01*
X0196368Y0118850D01*
X0191968Y0118850D01*
X0191968Y0115704D01*
X0192076Y0115020D01*
X0192290Y0114361D01*
X0192605Y0113744D01*
X0193012Y0113184D01*
X0193502Y0112694D01*
X0194062Y0112287D01*
X0194679Y0111972D01*
X0195338Y0111758D01*
X0196022Y0111650D01*
X0196368Y0111650D01*
X0196368Y0118850D01*
X0196368Y0118850D01*
X0196368Y0118850D01*
X0196368Y0126050D01*
X0196714Y0126050D01*
X0197398Y0125942D01*
X0198057Y0125728D01*
X0198674Y0125413D01*
X0198868Y0125272D01*
X0198868Y0141350D01*
X0192368Y0151350D01*
X0173868Y0151350D01*
X0173868Y0081350D01*
X0183868Y0081350D01*
X0188868Y0086350D01*
X0187341Y0084823D02*
X0173868Y0084823D01*
X0173868Y0082825D02*
X0185343Y0082825D01*
X0188846Y0078828D02*
X0189537Y0078828D01*
X0189334Y0078762D02*
X0188590Y0078383D01*
X0187915Y0077893D01*
X0187325Y0077303D01*
X0186835Y0076628D01*
X0186456Y0075884D01*
X0186199Y0075091D01*
X0186068Y0074267D01*
X0186068Y0073850D01*
X0191368Y0073850D01*
X0191368Y0073850D01*
X0186068Y0073850D01*
X0186068Y0073433D01*
X0186199Y0072609D01*
X0186456Y0071816D01*
X0186835Y0071072D01*
X0187215Y0070550D01*
X0187071Y0070550D01*
X0185969Y0070093D01*
X0185125Y0069249D01*
X0184668Y0068147D01*
X0184668Y0059553D01*
X0185125Y0058451D01*
X0185969Y0057607D01*
X0187071Y0057150D01*
X0195665Y0057150D01*
X0196767Y0057607D01*
X0197611Y0058451D01*
X0198068Y0059553D01*
X0198068Y0068147D01*
X0197611Y0069249D01*
X0196767Y0070093D01*
X0195665Y0070550D01*
X0195522Y0070550D01*
X0195901Y0071072D01*
X0196280Y0071816D01*
X0196538Y0072609D01*
X0196668Y0073433D01*
X0196668Y0073850D01*
X0196668Y0074267D01*
X0196538Y0075091D01*
X0196280Y0075884D01*
X0195901Y0076628D01*
X0195411Y0077303D01*
X0194821Y0077893D01*
X0194146Y0078383D01*
X0193403Y0078762D01*
X0192609Y0079019D01*
X0191785Y0079150D01*
X0191368Y0079150D01*
X0190951Y0079150D01*
X0190127Y0079019D01*
X0189334Y0078762D01*
X0191368Y0078828D02*
X0191368Y0078828D01*
X0191368Y0079150D02*
X0191368Y0073850D01*
X0191368Y0079150D01*
X0190844Y0080826D02*
X0263868Y0080826D01*
X0263868Y0078828D02*
X0253200Y0078828D01*
X0253403Y0078762D02*
X0252609Y0079019D01*
X0251785Y0079150D01*
X0251368Y0079150D01*
X0250951Y0079150D01*
X0250127Y0079019D01*
X0249334Y0078762D01*
X0248590Y0078383D01*
X0247915Y0077893D01*
X0247325Y0077303D01*
X0246835Y0076628D01*
X0246456Y0075884D01*
X0246199Y0075091D01*
X0246068Y0074267D01*
X0246068Y0073850D01*
X0251368Y0073850D01*
X0251368Y0073850D01*
X0246068Y0073850D01*
X0246068Y0073433D01*
X0246199Y0072609D01*
X0246456Y0071816D01*
X0246835Y0071072D01*
X0247215Y0070550D01*
X0247071Y0070550D01*
X0245969Y0070093D01*
X0245125Y0069249D01*
X0244668Y0068147D01*
X0244668Y0059553D01*
X0245125Y0058451D01*
X0245969Y0057607D01*
X0247071Y0057150D01*
X0255665Y0057150D01*
X0256767Y0057607D01*
X0257611Y0058451D01*
X0258068Y0059553D01*
X0258068Y0068147D01*
X0257611Y0069249D01*
X0256767Y0070093D01*
X0255665Y0070550D01*
X0255522Y0070550D01*
X0255901Y0071072D01*
X0256280Y0071816D01*
X0256538Y0072609D01*
X0256668Y0073433D01*
X0256668Y0073850D01*
X0256668Y0074267D01*
X0256538Y0075091D01*
X0256280Y0075884D01*
X0255901Y0076628D01*
X0255411Y0077303D01*
X0254821Y0077893D01*
X0254146Y0078383D01*
X0253403Y0078762D01*
X0251368Y0078828D02*
X0251368Y0078828D01*
X0251368Y0079150D02*
X0251368Y0073850D01*
X0251368Y0079150D01*
X0249537Y0078828D02*
X0223200Y0078828D01*
X0223403Y0078762D02*
X0222609Y0079019D01*
X0221785Y0079150D01*
X0221368Y0079150D01*
X0220951Y0079150D01*
X0220127Y0079019D01*
X0219334Y0078762D01*
X0218590Y0078383D01*
X0217915Y0077893D01*
X0217325Y0077303D01*
X0216835Y0076628D01*
X0216456Y0075884D01*
X0216199Y0075091D01*
X0216068Y0074267D01*
X0216068Y0073850D01*
X0221368Y0073850D01*
X0221368Y0073850D01*
X0216068Y0073850D01*
X0216068Y0073433D01*
X0216199Y0072609D01*
X0216456Y0071816D01*
X0216835Y0071072D01*
X0217215Y0070550D01*
X0217071Y0070550D01*
X0215969Y0070093D01*
X0215125Y0069249D01*
X0214668Y0068147D01*
X0214668Y0059553D01*
X0215125Y0058451D01*
X0215969Y0057607D01*
X0217071Y0057150D01*
X0225665Y0057150D01*
X0226767Y0057607D01*
X0227611Y0058451D01*
X0228068Y0059553D01*
X0228068Y0068147D01*
X0227611Y0069249D01*
X0226767Y0070093D01*
X0225665Y0070550D01*
X0225522Y0070550D01*
X0225901Y0071072D01*
X0226280Y0071816D01*
X0226538Y0072609D01*
X0226668Y0073433D01*
X0226668Y0073850D01*
X0226668Y0074267D01*
X0226538Y0075091D01*
X0226280Y0075884D01*
X0225901Y0076628D01*
X0225411Y0077303D01*
X0224821Y0077893D01*
X0224146Y0078383D01*
X0223403Y0078762D01*
X0221368Y0078828D02*
X0221368Y0078828D01*
X0221368Y0079150D02*
X0221368Y0073850D01*
X0221368Y0079150D01*
X0219537Y0078828D02*
X0193200Y0078828D01*
X0191368Y0076829D02*
X0191368Y0076829D01*
X0191368Y0074831D02*
X0191368Y0074831D01*
X0191368Y0073850D02*
X0191368Y0073850D01*
X0196668Y0073850D01*
X0191368Y0073850D01*
X0191368Y0073850D01*
X0187008Y0070834D02*
X0173868Y0070834D01*
X0173868Y0072832D02*
X0186163Y0072832D01*
X0186157Y0074831D02*
X0173868Y0074831D01*
X0173868Y0076350D02*
X0186368Y0076350D01*
X0193868Y0083850D01*
X0193868Y0085750D01*
X0197688Y0085750D01*
X0200968Y0089030D01*
X0200968Y0093670D01*
X0197688Y0096950D01*
X0196968Y0096950D01*
X0203868Y0103850D01*
X0203868Y0110808D01*
X0205214Y0110250D01*
X0207522Y0110250D01*
X0209654Y0111133D01*
X0211285Y0112765D01*
X0212139Y0114827D01*
X0212290Y0114361D01*
X0212605Y0113744D01*
X0213012Y0113184D01*
X0213502Y0112694D01*
X0214062Y0112287D01*
X0214679Y0111972D01*
X0215338Y0111758D01*
X0216022Y0111650D01*
X0216368Y0111650D01*
X0216368Y0118850D01*
X0216368Y0126050D01*
X0216022Y0126050D01*
X0215338Y0125942D01*
X0214679Y0125728D01*
X0214062Y0125413D01*
X0213502Y0125006D01*
X0213012Y0124516D01*
X0212605Y0123956D01*
X0212290Y0123339D01*
X0212139Y0122873D01*
X0211285Y0124935D01*
X0209654Y0126567D01*
X0207522Y0127450D01*
X0205214Y0127450D01*
X0203868Y0126892D01*
X0203868Y0133850D01*
X0208868Y0136350D01*
X0217459Y0136350D01*
X0217799Y0136009D01*
X0220115Y0135050D01*
X0222621Y0135050D01*
X0222863Y0135150D01*
X0227935Y0135150D01*
X0229428Y0134535D01*
X0239733Y0134553D01*
X0240391Y0134827D01*
X0241368Y0133850D01*
X0241368Y0128850D01*
X0243868Y0126350D01*
X0261368Y0126350D01*
X0263868Y0123850D01*
X0263868Y0094270D01*
X0262498Y0095640D01*
X0261265Y0104271D01*
X0262048Y0105055D01*
X0263068Y0107517D01*
X0263068Y0110183D01*
X0262048Y0112645D01*
X0260843Y0113850D01*
X0262048Y0115055D01*
X0263068Y0117517D01*
X0263068Y0120183D01*
X0262048Y0122645D01*
X0260163Y0124530D01*
X0257701Y0125550D01*
X0255035Y0125550D01*
X0252573Y0124530D01*
X0250688Y0122645D01*
X0249668Y0120183D01*
X0249668Y0117517D01*
X0250688Y0115055D01*
X0251893Y0113850D01*
X0250688Y0112645D01*
X0249668Y0110183D01*
X0249668Y0107517D01*
X0250688Y0105055D01*
X0252573Y0103170D01*
X0252960Y0103010D01*
X0254166Y0094567D01*
X0253268Y0093670D01*
X0253268Y0089030D01*
X0256549Y0085750D01*
X0261188Y0085750D01*
X0263868Y0088430D01*
X0263868Y0056350D01*
X0173868Y0056350D01*
X0173868Y0076350D01*
X0173868Y0068835D02*
X0184953Y0068835D01*
X0184668Y0066837D02*
X0173868Y0066837D01*
X0173868Y0064838D02*
X0184668Y0064838D01*
X0184668Y0062840D02*
X0173868Y0062840D01*
X0173868Y0060841D02*
X0184668Y0060841D01*
X0184962Y0058843D02*
X0173868Y0058843D01*
X0173868Y0056844D02*
X0263868Y0056844D01*
X0263868Y0058843D02*
X0257774Y0058843D01*
X0258068Y0060841D02*
X0263868Y0060841D01*
X0263868Y0062840D02*
X0258068Y0062840D01*
X0258068Y0064838D02*
X0263868Y0064838D01*
X0263868Y0066837D02*
X0258068Y0066837D01*
X0257783Y0068835D02*
X0263868Y0068835D01*
X0263868Y0070834D02*
X0255728Y0070834D01*
X0256573Y0072832D02*
X0263868Y0072832D01*
X0263868Y0074831D02*
X0256579Y0074831D01*
X0256668Y0073850D02*
X0251368Y0073850D01*
X0251368Y0073850D01*
X0251368Y0073850D01*
X0256668Y0073850D01*
X0255755Y0076829D02*
X0263868Y0076829D01*
X0263868Y0082825D02*
X0192843Y0082825D01*
X0193868Y0084823D02*
X0263868Y0084823D01*
X0263868Y0086822D02*
X0262259Y0086822D01*
X0255477Y0086822D02*
X0220759Y0086822D01*
X0219688Y0085750D02*
X0222358Y0088420D01*
X0222632Y0088146D01*
X0223167Y0087758D01*
X0223756Y0087458D01*
X0224385Y0087253D01*
X0225038Y0087150D01*
X0225368Y0087150D01*
X0225368Y0091350D01*
X0225368Y0095550D01*
X0225038Y0095550D01*
X0224385Y0095447D01*
X0223756Y0095242D01*
X0223167Y0094942D01*
X0222632Y0094554D01*
X0222358Y0094280D01*
X0219688Y0096950D01*
X0215049Y0096950D01*
X0211768Y0093670D01*
X0211768Y0089030D01*
X0215049Y0085750D01*
X0219688Y0085750D01*
X0213977Y0086822D02*
X0198759Y0086822D01*
X0200758Y0088820D02*
X0211978Y0088820D01*
X0211768Y0090819D02*
X0200968Y0090819D01*
X0200968Y0092817D02*
X0211768Y0092817D01*
X0212914Y0094816D02*
X0199822Y0094816D01*
X0197823Y0096814D02*
X0214913Y0096814D01*
X0219823Y0096814D02*
X0253845Y0096814D01*
X0254130Y0094816D02*
X0251342Y0094816D01*
X0250608Y0095550D02*
X0248868Y0095550D01*
X0247128Y0095550D01*
X0244668Y0093090D01*
X0244668Y0091350D01*
X0248868Y0091350D01*
X0248868Y0091350D01*
X0244668Y0091350D01*
X0244668Y0089610D01*
X0247128Y0087150D01*
X0248868Y0087150D01*
X0248868Y0091350D01*
X0248868Y0095550D01*
X0248868Y0091350D01*
X0248868Y0091350D01*
X0248868Y0091350D01*
X0248868Y0087150D01*
X0250608Y0087150D01*
X0253068Y0089610D01*
X0253068Y0091350D01*
X0253068Y0093090D01*
X0250608Y0095550D01*
X0248868Y0094816D02*
X0248868Y0094816D01*
X0248868Y0092817D02*
X0248868Y0092817D01*
X0248868Y0091350D02*
X0253068Y0091350D01*
X0248868Y0091350D01*
X0248868Y0091350D01*
X0248868Y0090819D02*
X0248868Y0090819D01*
X0248868Y0088820D02*
X0248868Y0088820D01*
X0245458Y0088820D02*
X0228722Y0088820D01*
X0228572Y0088614D02*
X0228960Y0089149D01*
X0229260Y0089738D01*
X0229465Y0090366D01*
X0229568Y0091019D01*
X0229568Y0091350D01*
X0229568Y0091681D01*
X0229465Y0092334D01*
X0229260Y0092962D01*
X0228960Y0093551D01*
X0228572Y0094086D01*
X0228104Y0094554D01*
X0227569Y0094942D01*
X0226980Y0095242D01*
X0226352Y0095447D01*
X0225699Y0095550D01*
X0225368Y0095550D01*
X0225368Y0091350D01*
X0225368Y0091350D01*
X0225368Y0091350D01*
X0225368Y0087150D01*
X0225699Y0087150D01*
X0226352Y0087253D01*
X0226980Y0087458D01*
X0227569Y0087758D01*
X0228104Y0088146D01*
X0228572Y0088614D01*
X0229536Y0090819D02*
X0244668Y0090819D01*
X0244668Y0092817D02*
X0229308Y0092817D01*
X0229568Y0091350D02*
X0225368Y0091350D01*
X0225368Y0091350D01*
X0229568Y0091350D01*
X0227743Y0094816D02*
X0246394Y0094816D01*
X0253068Y0092817D02*
X0253268Y0092817D01*
X0253268Y0090819D02*
X0253068Y0090819D01*
X0253478Y0088820D02*
X0252278Y0088820D01*
X0253559Y0098813D02*
X0198831Y0098813D01*
X0200829Y0100811D02*
X0253274Y0100811D01*
X0252988Y0102810D02*
X0202828Y0102810D01*
X0203868Y0104808D02*
X0250935Y0104808D01*
X0249962Y0106807D02*
X0203868Y0106807D01*
X0203868Y0108805D02*
X0249668Y0108805D01*
X0249925Y0110804D02*
X0208859Y0110804D01*
X0211301Y0112802D02*
X0213393Y0112802D01*
X0212148Y0114801D02*
X0212129Y0114801D01*
X0216368Y0114801D02*
X0216368Y0114801D01*
X0216368Y0116799D02*
X0216368Y0116799D01*
X0216368Y0118798D02*
X0216368Y0118798D01*
X0216368Y0118850D02*
X0216368Y0111650D01*
X0216714Y0111650D01*
X0217398Y0111758D01*
X0218057Y0111972D01*
X0218674Y0112287D01*
X0219235Y0112694D01*
X0219724Y0113184D01*
X0220131Y0113744D01*
X0220446Y0114361D01*
X0220660Y0115020D01*
X0220768Y0115704D01*
X0220768Y0118850D01*
X0220768Y0121996D01*
X0220660Y0122680D01*
X0220446Y0123339D01*
X0220131Y0123956D01*
X0219724Y0124516D01*
X0219235Y0125006D01*
X0218674Y0125413D01*
X0218057Y0125728D01*
X0217398Y0125942D01*
X0216714Y0126050D01*
X0216368Y0126050D01*
X0216368Y0118850D01*
X0216368Y0118850D01*
X0216368Y0118850D01*
X0220768Y0118850D01*
X0216368Y0118850D01*
X0216368Y0118850D01*
X0216368Y0120796D02*
X0216368Y0120796D01*
X0216368Y0122795D02*
X0216368Y0122795D01*
X0216368Y0124793D02*
X0216368Y0124793D01*
X0213289Y0124793D02*
X0211344Y0124793D01*
X0209110Y0126792D02*
X0243426Y0126792D01*
X0241428Y0128790D02*
X0203868Y0128790D01*
X0203868Y0130789D02*
X0241368Y0130789D01*
X0241368Y0132787D02*
X0203868Y0132787D01*
X0205740Y0134786D02*
X0228818Y0134786D01*
X0240294Y0134786D02*
X0240432Y0134786D01*
X0250838Y0122795D02*
X0220623Y0122795D01*
X0220768Y0120796D02*
X0249922Y0120796D01*
X0249668Y0118798D02*
X0220768Y0118798D01*
X0220768Y0116799D02*
X0249965Y0116799D01*
X0250942Y0114801D02*
X0220589Y0114801D01*
X0219343Y0112802D02*
X0250845Y0112802D01*
X0261891Y0112802D02*
X0263868Y0112802D01*
X0263868Y0110804D02*
X0262811Y0110804D01*
X0263068Y0108805D02*
X0263868Y0108805D01*
X0263868Y0106807D02*
X0262774Y0106807D01*
X0261802Y0104808D02*
X0263868Y0104808D01*
X0263868Y0102810D02*
X0261474Y0102810D01*
X0261759Y0100811D02*
X0263868Y0100811D01*
X0263868Y0098813D02*
X0262045Y0098813D01*
X0262330Y0096814D02*
X0263868Y0096814D01*
X0263868Y0094816D02*
X0263322Y0094816D01*
X0263868Y0114801D02*
X0261794Y0114801D01*
X0262771Y0116799D02*
X0263868Y0116799D01*
X0263868Y0118798D02*
X0263068Y0118798D01*
X0262814Y0120796D02*
X0263868Y0120796D01*
X0263868Y0122795D02*
X0261898Y0122795D01*
X0262925Y0124793D02*
X0259527Y0124793D01*
X0253209Y0124793D02*
X0219447Y0124793D01*
X0216368Y0112802D02*
X0216368Y0112802D01*
X0203877Y0110804D02*
X0203868Y0110804D01*
X0198868Y0110804D02*
X0173868Y0110804D01*
X0173868Y0112802D02*
X0193393Y0112802D01*
X0192148Y0114801D02*
X0173868Y0114801D01*
X0173868Y0116799D02*
X0191968Y0116799D01*
X0191968Y0118798D02*
X0173868Y0118798D01*
X0173868Y0120796D02*
X0191968Y0120796D01*
X0192114Y0122795D02*
X0173868Y0122795D01*
X0173868Y0124793D02*
X0193289Y0124793D01*
X0196368Y0124793D02*
X0196368Y0124793D01*
X0196368Y0122795D02*
X0196368Y0122795D01*
X0196368Y0120796D02*
X0196368Y0120796D01*
X0196368Y0118798D02*
X0196368Y0118798D01*
X0196368Y0116799D02*
X0196368Y0116799D01*
X0196368Y0114801D02*
X0196368Y0114801D01*
X0196368Y0112802D02*
X0196368Y0112802D01*
X0198868Y0108805D02*
X0173868Y0108805D01*
X0173868Y0106807D02*
X0198868Y0106807D01*
X0197326Y0104808D02*
X0173868Y0104808D01*
X0173868Y0102810D02*
X0195328Y0102810D01*
X0193329Y0100811D02*
X0173868Y0100811D01*
X0173868Y0098813D02*
X0191331Y0098813D01*
X0189332Y0096814D02*
X0173868Y0096814D01*
X0173868Y0094816D02*
X0184993Y0094816D01*
X0187368Y0094816D02*
X0187368Y0094816D01*
X0187368Y0092817D02*
X0187368Y0092817D01*
X0187368Y0090819D02*
X0187368Y0090819D01*
X0187368Y0088820D02*
X0187368Y0088820D01*
X0184015Y0088820D02*
X0173868Y0088820D01*
X0173868Y0090819D02*
X0183200Y0090819D01*
X0183429Y0092817D02*
X0173868Y0092817D01*
X0168868Y0094816D02*
X0168322Y0094816D01*
X0168868Y0096814D02*
X0167330Y0096814D01*
X0167045Y0098813D02*
X0168868Y0098813D01*
X0168868Y0100811D02*
X0166759Y0100811D01*
X0166474Y0102810D02*
X0168868Y0102810D01*
X0168868Y0104808D02*
X0166802Y0104808D01*
X0167774Y0106807D02*
X0168868Y0106807D01*
X0168868Y0108805D02*
X0168068Y0108805D01*
X0167811Y0110804D02*
X0168868Y0110804D01*
X0168868Y0112802D02*
X0166891Y0112802D01*
X0166794Y0114801D02*
X0168868Y0114801D01*
X0168868Y0116799D02*
X0167771Y0116799D01*
X0168068Y0118798D02*
X0168868Y0118798D01*
X0168868Y0120796D02*
X0167814Y0120796D01*
X0166898Y0122795D02*
X0168868Y0122795D01*
X0167925Y0124793D02*
X0164527Y0124793D01*
X0158209Y0124793D02*
X0124447Y0124793D01*
X0124235Y0125006D02*
X0123674Y0125413D01*
X0123057Y0125728D01*
X0122398Y0125942D01*
X0121714Y0126050D01*
X0121368Y0126050D01*
X0121368Y0118850D01*
X0121368Y0118850D01*
X0121368Y0118850D01*
X0121368Y0111650D01*
X0121714Y0111650D01*
X0122398Y0111758D01*
X0123057Y0111972D01*
X0123674Y0112287D01*
X0124235Y0112694D01*
X0124724Y0113184D01*
X0125131Y0113744D01*
X0125446Y0114361D01*
X0125660Y0115020D01*
X0125768Y0115704D01*
X0125768Y0118850D01*
X0125768Y0121996D01*
X0125660Y0122680D01*
X0125446Y0123339D01*
X0125131Y0123956D01*
X0124724Y0124516D01*
X0124235Y0125006D01*
X0125623Y0122795D02*
X0155838Y0122795D01*
X0154922Y0120796D02*
X0125768Y0120796D01*
X0125768Y0118850D02*
X0121368Y0118850D01*
X0121368Y0118850D01*
X0125768Y0118850D01*
X0125768Y0118798D02*
X0154668Y0118798D01*
X0154965Y0116799D02*
X0125768Y0116799D01*
X0125589Y0114801D02*
X0155942Y0114801D01*
X0155845Y0112802D02*
X0124343Y0112802D01*
X0121368Y0112802D02*
X0121368Y0112802D01*
X0121368Y0114801D02*
X0121368Y0114801D01*
X0121368Y0116799D02*
X0121368Y0116799D01*
X0121368Y0118798D02*
X0121368Y0118798D01*
X0121368Y0120796D02*
X0121368Y0120796D01*
X0121368Y0122795D02*
X0121368Y0122795D01*
X0121368Y0124793D02*
X0121368Y0124793D01*
X0118289Y0124793D02*
X0116344Y0124793D01*
X0114110Y0126792D02*
X0148426Y0126792D01*
X0146428Y0128790D02*
X0108868Y0128790D01*
X0108868Y0130789D02*
X0146368Y0130789D01*
X0146368Y0132787D02*
X0108868Y0132787D01*
X0110740Y0134786D02*
X0133818Y0134786D01*
X0145294Y0134786D02*
X0145432Y0134786D01*
X0154925Y0110804D02*
X0113859Y0110804D01*
X0116301Y0112802D02*
X0118393Y0112802D01*
X0117148Y0114801D02*
X0117129Y0114801D01*
X0108877Y0110804D02*
X0108868Y0110804D01*
X0108868Y0108805D02*
X0154668Y0108805D01*
X0154962Y0106807D02*
X0108868Y0106807D01*
X0108868Y0104808D02*
X0155935Y0104808D01*
X0157988Y0102810D02*
X0107828Y0102810D01*
X0105829Y0100811D02*
X0158274Y0100811D01*
X0158559Y0098813D02*
X0103831Y0098813D01*
X0102823Y0096814D02*
X0119913Y0096814D01*
X0120049Y0096950D02*
X0116768Y0093670D01*
X0116768Y0089030D01*
X0120049Y0085750D01*
X0124688Y0085750D01*
X0127358Y0088420D01*
X0127632Y0088146D01*
X0128167Y0087758D01*
X0128756Y0087458D01*
X0129385Y0087253D01*
X0130038Y0087150D01*
X0130368Y0087150D01*
X0130368Y0091350D01*
X0130368Y0095550D01*
X0130038Y0095550D01*
X0129385Y0095447D01*
X0128756Y0095242D01*
X0128167Y0094942D01*
X0127632Y0094554D01*
X0127358Y0094280D01*
X0124688Y0096950D01*
X0120049Y0096950D01*
X0117914Y0094816D02*
X0104822Y0094816D01*
X0105968Y0092817D02*
X0116768Y0092817D01*
X0116768Y0090819D02*
X0105968Y0090819D01*
X0105758Y0088820D02*
X0116978Y0088820D01*
X0118977Y0086822D02*
X0103759Y0086822D01*
X0093868Y0086822D02*
X0078868Y0086822D01*
X0078868Y0088820D02*
X0089015Y0088820D01*
X0089165Y0088614D02*
X0089632Y0088146D01*
X0090167Y0087758D01*
X0090756Y0087458D01*
X0091385Y0087253D01*
X0092038Y0087150D01*
X0092368Y0087150D01*
X0092368Y0091350D01*
X0092368Y0091350D01*
X0088168Y0091350D01*
X0088168Y0091681D01*
X0088272Y0092334D01*
X0088476Y0092962D01*
X0088776Y0093551D01*
X0089165Y0094086D01*
X0089632Y0094554D01*
X0090167Y0094942D01*
X0090756Y0095242D01*
X0091385Y0095447D01*
X0092038Y0095550D01*
X0092368Y0095550D01*
X0092368Y0091350D01*
X0088168Y0091350D01*
X0088168Y0091019D01*
X0088272Y0090366D01*
X0088476Y0089738D01*
X0088776Y0089149D01*
X0089165Y0088614D01*
X0088200Y0090819D02*
X0078868Y0090819D01*
X0078868Y0092817D02*
X0088429Y0092817D01*
X0089993Y0094816D02*
X0078868Y0094816D01*
X0078868Y0096814D02*
X0094332Y0096814D01*
X0093868Y0096350D02*
X0093868Y0095279D01*
X0093352Y0095447D01*
X0092699Y0095550D01*
X0092368Y0095550D01*
X0092368Y0091350D01*
X0092368Y0091350D01*
X0092368Y0091350D01*
X0092368Y0087150D01*
X0092699Y0087150D01*
X0093352Y0087253D01*
X0093868Y0087421D01*
X0093868Y0086350D01*
X0088868Y0081350D01*
X0078868Y0081350D01*
X0078868Y0151350D01*
X0097368Y0151350D01*
X0103868Y0141350D01*
X0103868Y0125272D01*
X0103674Y0125413D01*
X0103057Y0125728D01*
X0102398Y0125942D01*
X0101714Y0126050D01*
X0101368Y0126050D01*
X0101022Y0126050D01*
X0100338Y0125942D01*
X0099679Y0125728D01*
X0099062Y0125413D01*
X0098502Y0125006D01*
X0098012Y0124516D01*
X0097605Y0123956D01*
X0097290Y0123339D01*
X0097076Y0122680D01*
X0096968Y0121996D01*
X0096968Y0118850D01*
X0101368Y0118850D01*
X0101368Y0118850D01*
X0096968Y0118850D01*
X0096968Y0115704D01*
X0097076Y0115020D01*
X0097290Y0114361D01*
X0097605Y0113744D01*
X0098012Y0113184D01*
X0098502Y0112694D01*
X0099062Y0112287D01*
X0099679Y0111972D01*
X0100338Y0111758D01*
X0101022Y0111650D01*
X0101368Y0111650D01*
X0101368Y0118850D01*
X0101368Y0126050D01*
X0101368Y0118850D01*
X0101368Y0118850D01*
X0101368Y0118850D01*
X0101368Y0111650D01*
X0101714Y0111650D01*
X0102398Y0111758D01*
X0103057Y0111972D01*
X0103674Y0112287D01*
X0103868Y0112428D01*
X0103868Y0106350D01*
X0093868Y0096350D01*
X0092368Y0094816D02*
X0092368Y0094816D01*
X0092368Y0092817D02*
X0092368Y0092817D01*
X0092368Y0090819D02*
X0092368Y0090819D01*
X0092368Y0088820D02*
X0092368Y0088820D01*
X0092341Y0084823D02*
X0078868Y0084823D01*
X0078868Y0082825D02*
X0090343Y0082825D01*
X0093846Y0078828D02*
X0094537Y0078828D01*
X0096368Y0076829D02*
X0096368Y0076829D01*
X0096368Y0074831D02*
X0096368Y0074831D01*
X0096368Y0073850D02*
X0096368Y0073850D01*
X0101668Y0073850D01*
X0096368Y0073850D01*
X0096368Y0073850D01*
X0092008Y0070834D02*
X0078868Y0070834D01*
X0078868Y0072832D02*
X0091163Y0072832D01*
X0091157Y0074831D02*
X0078868Y0074831D01*
X0091847Y0076829D02*
X0091981Y0076829D01*
X0100755Y0076829D02*
X0121981Y0076829D01*
X0121157Y0074831D02*
X0101579Y0074831D01*
X0101573Y0072832D02*
X0121163Y0072832D01*
X0122008Y0070834D02*
X0100728Y0070834D01*
X0102783Y0068835D02*
X0119953Y0068835D01*
X0119668Y0066837D02*
X0103068Y0066837D01*
X0103068Y0064838D02*
X0119668Y0064838D01*
X0119668Y0062840D02*
X0103068Y0062840D01*
X0103068Y0060841D02*
X0119668Y0060841D01*
X0119962Y0058843D02*
X0102774Y0058843D01*
X0126368Y0073850D02*
X0126368Y0073850D01*
X0131668Y0073850D01*
X0126368Y0073850D01*
X0126368Y0073850D01*
X0126368Y0074831D02*
X0126368Y0074831D01*
X0126368Y0076829D02*
X0126368Y0076829D01*
X0130755Y0076829D02*
X0151981Y0076829D01*
X0151157Y0074831D02*
X0131579Y0074831D01*
X0131573Y0072832D02*
X0151163Y0072832D01*
X0152008Y0070834D02*
X0130728Y0070834D01*
X0132783Y0068835D02*
X0149953Y0068835D01*
X0149668Y0066837D02*
X0133068Y0066837D01*
X0133068Y0064838D02*
X0149668Y0064838D01*
X0149668Y0062840D02*
X0133068Y0062840D01*
X0133068Y0060841D02*
X0149668Y0060841D01*
X0149962Y0058843D02*
X0132774Y0058843D01*
X0156368Y0074831D02*
X0156368Y0074831D01*
X0156368Y0076829D02*
X0156368Y0076829D01*
X0155608Y0087150D02*
X0158068Y0089610D01*
X0158068Y0091350D01*
X0158068Y0093090D01*
X0155608Y0095550D01*
X0153868Y0095550D01*
X0152128Y0095550D01*
X0149668Y0093090D01*
X0149668Y0091350D01*
X0153868Y0091350D01*
X0153868Y0091350D01*
X0149668Y0091350D01*
X0149668Y0089610D01*
X0152128Y0087150D01*
X0153868Y0087150D01*
X0153868Y0091350D01*
X0153868Y0095550D01*
X0153868Y0091350D01*
X0153868Y0091350D01*
X0153868Y0091350D01*
X0153868Y0087150D01*
X0155608Y0087150D01*
X0157278Y0088820D02*
X0158478Y0088820D01*
X0158268Y0090819D02*
X0158068Y0090819D01*
X0158068Y0091350D02*
X0153868Y0091350D01*
X0158068Y0091350D01*
X0158068Y0092817D02*
X0158268Y0092817D01*
X0159130Y0094816D02*
X0156342Y0094816D01*
X0153868Y0094816D02*
X0153868Y0094816D01*
X0153868Y0092817D02*
X0153868Y0092817D01*
X0153868Y0091350D02*
X0153868Y0091350D01*
X0153868Y0090819D02*
X0153868Y0090819D01*
X0153868Y0088820D02*
X0153868Y0088820D01*
X0150458Y0088820D02*
X0133722Y0088820D01*
X0133572Y0088614D02*
X0133960Y0089149D01*
X0134260Y0089738D01*
X0134465Y0090366D01*
X0134568Y0091019D01*
X0134568Y0091350D01*
X0134568Y0091681D01*
X0134465Y0092334D01*
X0134260Y0092962D01*
X0133960Y0093551D01*
X0133572Y0094086D01*
X0133104Y0094554D01*
X0132569Y0094942D01*
X0131980Y0095242D01*
X0131352Y0095447D01*
X0130699Y0095550D01*
X0130368Y0095550D01*
X0130368Y0091350D01*
X0130368Y0091350D01*
X0130368Y0091350D01*
X0130368Y0087150D01*
X0130699Y0087150D01*
X0131352Y0087253D01*
X0131980Y0087458D01*
X0132569Y0087758D01*
X0133104Y0088146D01*
X0133572Y0088614D01*
X0134536Y0090819D02*
X0149668Y0090819D01*
X0149668Y0092817D02*
X0134308Y0092817D01*
X0134568Y0091350D02*
X0130368Y0091350D01*
X0130368Y0091350D01*
X0134568Y0091350D01*
X0132743Y0094816D02*
X0151394Y0094816D01*
X0158845Y0096814D02*
X0124823Y0096814D01*
X0126822Y0094816D02*
X0127993Y0094816D01*
X0130368Y0094816D02*
X0130368Y0094816D01*
X0130368Y0092817D02*
X0130368Y0092817D01*
X0130368Y0090819D02*
X0130368Y0090819D01*
X0130368Y0088820D02*
X0130368Y0088820D01*
X0125759Y0086822D02*
X0160477Y0086822D01*
X0186847Y0076829D02*
X0186981Y0076829D01*
X0195755Y0076829D02*
X0216981Y0076829D01*
X0216157Y0074831D02*
X0196579Y0074831D01*
X0196573Y0072832D02*
X0216163Y0072832D01*
X0217008Y0070834D02*
X0195728Y0070834D01*
X0197783Y0068835D02*
X0214953Y0068835D01*
X0214668Y0066837D02*
X0198068Y0066837D01*
X0198068Y0064838D02*
X0214668Y0064838D01*
X0214668Y0062840D02*
X0198068Y0062840D01*
X0198068Y0060841D02*
X0214668Y0060841D01*
X0214962Y0058843D02*
X0197774Y0058843D01*
X0221368Y0073850D02*
X0221368Y0073850D01*
X0226668Y0073850D01*
X0221368Y0073850D01*
X0221368Y0073850D01*
X0221368Y0074831D02*
X0221368Y0074831D01*
X0221368Y0076829D02*
X0221368Y0076829D01*
X0225755Y0076829D02*
X0246981Y0076829D01*
X0246157Y0074831D02*
X0226579Y0074831D01*
X0226573Y0072832D02*
X0246163Y0072832D01*
X0247008Y0070834D02*
X0225728Y0070834D01*
X0227783Y0068835D02*
X0244953Y0068835D01*
X0244668Y0066837D02*
X0228068Y0066837D01*
X0228068Y0064838D02*
X0244668Y0064838D01*
X0244668Y0062840D02*
X0228068Y0062840D01*
X0228068Y0060841D02*
X0244668Y0060841D01*
X0244962Y0058843D02*
X0227774Y0058843D01*
X0251368Y0074831D02*
X0251368Y0074831D01*
X0251368Y0076829D02*
X0251368Y0076829D01*
X0225368Y0088820D02*
X0225368Y0088820D01*
X0225368Y0090819D02*
X0225368Y0090819D01*
X0225368Y0092817D02*
X0225368Y0092817D01*
X0225368Y0094816D02*
X0225368Y0094816D01*
X0222993Y0094816D02*
X0221822Y0094816D01*
X0198868Y0126792D02*
X0173868Y0126792D01*
X0173868Y0128790D02*
X0198868Y0128790D01*
X0198868Y0130789D02*
X0173868Y0130789D01*
X0173868Y0132787D02*
X0198868Y0132787D01*
X0198868Y0134786D02*
X0173868Y0134786D01*
X0173868Y0136784D02*
X0179563Y0136784D01*
X0179487Y0136809D02*
X0180221Y0136571D01*
X0180982Y0136450D01*
X0181268Y0136450D01*
X0181268Y0141250D01*
X0176468Y0141250D01*
X0176468Y0140964D01*
X0176589Y0140203D01*
X0176827Y0139469D01*
X0177177Y0138782D01*
X0177631Y0138158D01*
X0178176Y0137612D01*
X0178800Y0137159D01*
X0179487Y0136809D01*
X0181268Y0136784D02*
X0181468Y0136784D01*
X0181468Y0136450D02*
X0181754Y0136450D01*
X0182516Y0136571D01*
X0183249Y0136809D01*
X0183936Y0137159D01*
X0184560Y0137612D01*
X0185106Y0138158D01*
X0185559Y0138782D01*
X0185909Y0139469D01*
X0186147Y0140203D01*
X0186268Y0140964D01*
X0186268Y0141250D01*
X0181468Y0141250D01*
X0181468Y0136450D01*
X0183174Y0136784D02*
X0198868Y0136784D01*
X0198868Y0138783D02*
X0185560Y0138783D01*
X0186239Y0140782D02*
X0198868Y0140782D01*
X0197939Y0142780D02*
X0186056Y0142780D01*
X0186147Y0142497D02*
X0185909Y0143231D01*
X0185559Y0143918D01*
X0185106Y0144542D01*
X0184560Y0145088D01*
X0183936Y0145541D01*
X0183249Y0145891D01*
X0182516Y0146129D01*
X0181754Y0146250D01*
X0181468Y0146250D01*
X0181468Y0141450D01*
X0181268Y0141450D01*
X0181268Y0141250D01*
X0181468Y0141250D01*
X0181468Y0141450D01*
X0186268Y0141450D01*
X0186268Y0141736D01*
X0186147Y0142497D01*
X0184869Y0144779D02*
X0196640Y0144779D01*
X0195341Y0146777D02*
X0173868Y0146777D01*
X0173868Y0144779D02*
X0177867Y0144779D01*
X0177631Y0144542D02*
X0178176Y0145088D01*
X0178800Y0145541D01*
X0179487Y0145891D01*
X0180221Y0146129D01*
X0180982Y0146250D01*
X0181268Y0146250D01*
X0181268Y0141450D01*
X0176468Y0141450D01*
X0176468Y0141736D01*
X0176589Y0142497D01*
X0176827Y0143231D01*
X0177177Y0143918D01*
X0177631Y0144542D01*
X0176681Y0142780D02*
X0173868Y0142780D01*
X0173868Y0140782D02*
X0176497Y0140782D01*
X0177177Y0138783D02*
X0173868Y0138783D01*
X0181268Y0138783D02*
X0181468Y0138783D01*
X0181468Y0140782D02*
X0181268Y0140782D01*
X0181268Y0142780D02*
X0181468Y0142780D01*
X0181468Y0144779D02*
X0181268Y0144779D01*
X0173868Y0148776D02*
X0194041Y0148776D01*
X0192742Y0150774D02*
X0173868Y0150774D01*
X0168868Y0171350D02*
X0150368Y0171350D01*
X0143868Y0181350D01*
X0143868Y0197428D01*
X0144062Y0197287D01*
X0144679Y0196972D01*
X0145338Y0196758D01*
X0146022Y0196650D01*
X0146368Y0196650D01*
X0146368Y0203850D01*
X0146368Y0211050D01*
X0146022Y0211050D01*
X0145338Y0210942D01*
X0144679Y0210728D01*
X0144062Y0210413D01*
X0143868Y0210272D01*
X0143868Y0216350D01*
X0153868Y0226350D01*
X0153868Y0227421D01*
X0154385Y0227253D01*
X0155038Y0227150D01*
X0155368Y0227150D01*
X0155368Y0231350D01*
X0155368Y0235550D01*
X0155038Y0235550D01*
X0154385Y0235447D01*
X0153868Y0235279D01*
X0153868Y0236350D01*
X0158868Y0241350D01*
X0168868Y0241350D01*
X0168868Y0171350D01*
X0168868Y0172758D02*
X0149453Y0172758D01*
X0148154Y0174756D02*
X0168868Y0174756D01*
X0168868Y0176755D02*
X0163082Y0176755D01*
X0163249Y0176809D02*
X0162516Y0176571D01*
X0161754Y0176450D01*
X0161468Y0176450D01*
X0161468Y0181250D01*
X0161268Y0181250D01*
X0156468Y0181250D01*
X0156468Y0180964D01*
X0156589Y0180203D01*
X0156827Y0179469D01*
X0157177Y0178782D01*
X0157631Y0178158D01*
X0158176Y0177612D01*
X0158800Y0177159D01*
X0159487Y0176809D01*
X0160221Y0176571D01*
X0160982Y0176450D01*
X0161268Y0176450D01*
X0161268Y0181250D01*
X0161268Y0181450D01*
X0156468Y0181450D01*
X0156468Y0181736D01*
X0156589Y0182497D01*
X0156827Y0183231D01*
X0157177Y0183918D01*
X0157631Y0184542D01*
X0158176Y0185087D01*
X0158800Y0185541D01*
X0159487Y0185891D01*
X0160221Y0186129D01*
X0160982Y0186250D01*
X0161268Y0186250D01*
X0161268Y0181450D01*
X0161468Y0181450D01*
X0161468Y0186250D01*
X0161754Y0186250D01*
X0162516Y0186129D01*
X0163249Y0185891D01*
X0163936Y0185541D01*
X0164560Y0185087D01*
X0165106Y0184542D01*
X0165559Y0183918D01*
X0165909Y0183231D01*
X0166147Y0182497D01*
X0166268Y0181736D01*
X0166268Y0181450D01*
X0161468Y0181450D01*
X0161468Y0181250D01*
X0166268Y0181250D01*
X0166268Y0180964D01*
X0166147Y0180203D01*
X0165909Y0179469D01*
X0165559Y0178782D01*
X0165106Y0178158D01*
X0164560Y0177612D01*
X0163936Y0177159D01*
X0163249Y0176809D01*
X0161468Y0176755D02*
X0161268Y0176755D01*
X0159654Y0176755D02*
X0146855Y0176755D01*
X0145556Y0178753D02*
X0157198Y0178753D01*
X0156502Y0180752D02*
X0144257Y0180752D01*
X0143868Y0182750D02*
X0156671Y0182750D01*
X0157837Y0184749D02*
X0143868Y0184749D01*
X0143868Y0186747D02*
X0168868Y0186747D01*
X0168868Y0184749D02*
X0164899Y0184749D01*
X0166065Y0182750D02*
X0168868Y0182750D01*
X0168868Y0180752D02*
X0166234Y0180752D01*
X0165538Y0178753D02*
X0168868Y0178753D01*
X0161468Y0178753D02*
X0161268Y0178753D01*
X0161268Y0180752D02*
X0161468Y0180752D01*
X0161468Y0182750D02*
X0161268Y0182750D01*
X0161268Y0184749D02*
X0161468Y0184749D01*
X0168868Y0188746D02*
X0143868Y0188746D01*
X0143868Y0190744D02*
X0168868Y0190744D01*
X0168868Y0192743D02*
X0143868Y0192743D01*
X0143868Y0194741D02*
X0168868Y0194741D01*
X0168868Y0196740D02*
X0147282Y0196740D01*
X0147398Y0196758D02*
X0148057Y0196972D01*
X0148674Y0197287D01*
X0149235Y0197694D01*
X0149724Y0198184D01*
X0150131Y0198744D01*
X0150446Y0199361D01*
X0150660Y0200020D01*
X0150768Y0200704D01*
X0150768Y0203850D01*
X0150768Y0206996D01*
X0150660Y0207680D01*
X0150446Y0208339D01*
X0150131Y0208956D01*
X0149724Y0209516D01*
X0149235Y0210006D01*
X0148674Y0210413D01*
X0148057Y0210728D01*
X0147398Y0210942D01*
X0146714Y0211050D01*
X0146368Y0211050D01*
X0146368Y0203850D01*
X0146368Y0203850D01*
X0146368Y0203850D01*
X0146368Y0196650D01*
X0146714Y0196650D01*
X0147398Y0196758D01*
X0146368Y0196740D02*
X0146368Y0196740D01*
X0145455Y0196740D02*
X0143868Y0196740D01*
X0146368Y0198738D02*
X0146368Y0198738D01*
X0146368Y0200737D02*
X0146368Y0200737D01*
X0146368Y0202735D02*
X0146368Y0202735D01*
X0146368Y0203850D02*
X0146368Y0203850D01*
X0150768Y0203850D01*
X0146368Y0203850D01*
X0146368Y0204734D02*
X0146368Y0204734D01*
X0146368Y0206732D02*
X0146368Y0206732D01*
X0146368Y0208731D02*
X0146368Y0208731D01*
X0146368Y0210729D02*
X0146368Y0210729D01*
X0144685Y0210729D02*
X0143868Y0210729D01*
X0143868Y0212728D02*
X0168868Y0212728D01*
X0168868Y0214726D02*
X0143868Y0214726D01*
X0144243Y0216725D02*
X0168868Y0216725D01*
X0168868Y0218723D02*
X0146242Y0218723D01*
X0148240Y0220722D02*
X0168868Y0220722D01*
X0168868Y0222720D02*
X0150239Y0222720D01*
X0152237Y0224719D02*
X0168868Y0224719D01*
X0168868Y0226718D02*
X0153868Y0226718D01*
X0155368Y0227150D02*
X0155699Y0227150D01*
X0156352Y0227253D01*
X0156980Y0227458D01*
X0157569Y0227758D01*
X0158104Y0228146D01*
X0158572Y0228614D01*
X0158960Y0229149D01*
X0159260Y0229738D01*
X0159465Y0230366D01*
X0159568Y0231019D01*
X0159568Y0231350D01*
X0159568Y0231681D01*
X0159465Y0232334D01*
X0159260Y0232962D01*
X0158960Y0233551D01*
X0158572Y0234086D01*
X0158104Y0234554D01*
X0157569Y0234942D01*
X0156980Y0235242D01*
X0156352Y0235447D01*
X0155699Y0235550D01*
X0155368Y0235550D01*
X0155368Y0231350D01*
X0155368Y0231350D01*
X0155368Y0231350D01*
X0155368Y0227150D01*
X0155368Y0228716D02*
X0155368Y0228716D01*
X0155368Y0230715D02*
X0155368Y0230715D01*
X0155368Y0231350D02*
X0155368Y0231350D01*
X0159568Y0231350D01*
X0155368Y0231350D01*
X0155368Y0232713D02*
X0155368Y0232713D01*
X0155368Y0234712D02*
X0155368Y0234712D01*
X0154228Y0236710D02*
X0168868Y0236710D01*
X0168868Y0234712D02*
X0157887Y0234712D01*
X0159341Y0232713D02*
X0168868Y0232713D01*
X0168868Y0230715D02*
X0159520Y0230715D01*
X0158646Y0228716D02*
X0168868Y0228716D01*
X0173868Y0228430D02*
X0175238Y0227060D01*
X0176471Y0218428D01*
X0175688Y0217645D01*
X0174668Y0215183D01*
X0174668Y0212517D01*
X0175688Y0210055D01*
X0176893Y0208850D01*
X0175688Y0207645D01*
X0174668Y0205183D01*
X0174668Y0202517D01*
X0175688Y0200055D01*
X0177573Y0198170D01*
X0180035Y0197150D01*
X0182701Y0197150D01*
X0185163Y0198170D01*
X0187048Y0200055D01*
X0188068Y0202517D01*
X0188068Y0205183D01*
X0187048Y0207645D01*
X0185843Y0208850D01*
X0187048Y0210055D01*
X0188068Y0212517D01*
X0188068Y0215183D01*
X0187048Y0217645D01*
X0185163Y0219530D01*
X0184776Y0219690D01*
X0183570Y0228133D01*
X0184468Y0229030D01*
X0184468Y0233670D01*
X0181188Y0236950D01*
X0176549Y0236950D01*
X0173868Y0234270D01*
X0173868Y0266350D01*
X0263868Y0266350D01*
X0263868Y0246350D01*
X0251368Y0246350D01*
X0243868Y0238850D01*
X0243868Y0236950D01*
X0240049Y0236950D01*
X0236768Y0233670D01*
X0236768Y0229030D01*
X0240049Y0225750D01*
X0240768Y0225750D01*
X0233868Y0218850D01*
X0233868Y0211892D01*
X0232522Y0212450D01*
X0230214Y0212450D01*
X0228083Y0211567D01*
X0226451Y0209935D01*
X0225597Y0207873D01*
X0225446Y0208339D01*
X0225131Y0208956D01*
X0224724Y0209516D01*
X0224235Y0210006D01*
X0223674Y0210413D01*
X0223057Y0210728D01*
X0222398Y0210942D01*
X0221714Y0211050D01*
X0221368Y0211050D01*
X0221022Y0211050D01*
X0220338Y0210942D01*
X0219679Y0210728D01*
X0219062Y0210413D01*
X0218502Y0210006D01*
X0218012Y0209516D01*
X0217605Y0208956D01*
X0217290Y0208339D01*
X0217076Y0207680D01*
X0216968Y0206996D01*
X0216968Y0203850D01*
X0221368Y0203850D01*
X0221368Y0203850D01*
X0216968Y0203850D01*
X0216968Y0200704D01*
X0217076Y0200020D01*
X0217290Y0199361D01*
X0217605Y0198744D01*
X0218012Y0198184D01*
X0218502Y0197694D01*
X0219062Y0197287D01*
X0219679Y0196972D01*
X0220338Y0196758D01*
X0221022Y0196650D01*
X0221368Y0196650D01*
X0221368Y0203850D01*
X0221368Y0211050D01*
X0221368Y0203850D01*
X0221368Y0203850D01*
X0221368Y0203850D01*
X0221368Y0196650D01*
X0221714Y0196650D01*
X0222398Y0196758D01*
X0223057Y0196972D01*
X0223674Y0197287D01*
X0224235Y0197694D01*
X0224724Y0198184D01*
X0225131Y0198744D01*
X0225446Y0199361D01*
X0225597Y0199827D01*
X0226451Y0197765D01*
X0228083Y0196133D01*
X0230214Y0195250D01*
X0232522Y0195250D01*
X0233868Y0195808D01*
X0233868Y0188850D01*
X0228868Y0186350D01*
X0220278Y0186350D01*
X0219937Y0186691D01*
X0217621Y0187650D01*
X0215115Y0187650D01*
X0214874Y0187550D01*
X0209801Y0187550D01*
X0208308Y0188165D01*
X0198003Y0188147D01*
X0197345Y0187873D01*
X0196368Y0188850D01*
X0196368Y0193850D01*
X0193868Y0196350D01*
X0176368Y0196350D01*
X0173868Y0198850D01*
X0173868Y0228430D01*
X0173868Y0226718D02*
X0175287Y0226718D01*
X0175573Y0224719D02*
X0173868Y0224719D01*
X0173868Y0222720D02*
X0175858Y0222720D01*
X0176144Y0220722D02*
X0173868Y0220722D01*
X0173868Y0218723D02*
X0176429Y0218723D01*
X0175307Y0216725D02*
X0173868Y0216725D01*
X0173868Y0214726D02*
X0174668Y0214726D01*
X0174668Y0212728D02*
X0173868Y0212728D01*
X0173868Y0210729D02*
X0175409Y0210729D01*
X0176774Y0208731D02*
X0173868Y0208731D01*
X0173868Y0206732D02*
X0175310Y0206732D01*
X0174668Y0204734D02*
X0173868Y0204734D01*
X0173868Y0202735D02*
X0174668Y0202735D01*
X0175406Y0200737D02*
X0173868Y0200737D01*
X0173980Y0198738D02*
X0177005Y0198738D01*
X0175978Y0196740D02*
X0220455Y0196740D01*
X0221368Y0196740D02*
X0221368Y0196740D01*
X0222282Y0196740D02*
X0227476Y0196740D01*
X0226048Y0198738D02*
X0225127Y0198738D01*
X0221368Y0198738D02*
X0221368Y0198738D01*
X0221368Y0200737D02*
X0221368Y0200737D01*
X0221368Y0202735D02*
X0221368Y0202735D01*
X0221368Y0204734D02*
X0221368Y0204734D01*
X0221368Y0206732D02*
X0221368Y0206732D01*
X0221368Y0208731D02*
X0221368Y0208731D01*
X0221368Y0210729D02*
X0221368Y0210729D01*
X0219685Y0210729D02*
X0187328Y0210729D01*
X0188068Y0212728D02*
X0233868Y0212728D01*
X0233868Y0214726D02*
X0188068Y0214726D01*
X0187429Y0216725D02*
X0233868Y0216725D01*
X0233868Y0218723D02*
X0185970Y0218723D01*
X0184629Y0220722D02*
X0235740Y0220722D01*
X0237739Y0222720D02*
X0184344Y0222720D01*
X0184058Y0224719D02*
X0239737Y0224719D01*
X0239081Y0226718D02*
X0223655Y0226718D01*
X0222688Y0225750D02*
X0225968Y0229030D01*
X0225968Y0233670D01*
X0222688Y0236950D01*
X0218049Y0236950D01*
X0215378Y0234280D01*
X0215104Y0234554D01*
X0214569Y0234942D01*
X0213980Y0235242D01*
X0213352Y0235447D01*
X0212699Y0235550D01*
X0212368Y0235550D01*
X0212038Y0235550D01*
X0211385Y0235447D01*
X0210756Y0235242D01*
X0210167Y0234942D01*
X0209632Y0234554D01*
X0209165Y0234086D01*
X0208776Y0233551D01*
X0208476Y0232962D01*
X0208272Y0232334D01*
X0208168Y0231681D01*
X0208168Y0231350D01*
X0212368Y0231350D01*
X0212368Y0231350D01*
X0208168Y0231350D01*
X0208168Y0231019D01*
X0208272Y0230366D01*
X0208476Y0229738D01*
X0208776Y0229149D01*
X0209165Y0228614D01*
X0209632Y0228146D01*
X0210167Y0227758D01*
X0210756Y0227458D01*
X0211385Y0227253D01*
X0212038Y0227150D01*
X0212368Y0227150D01*
X0212368Y0231350D01*
X0212368Y0235550D01*
X0212368Y0231350D01*
X0212368Y0231350D01*
X0212368Y0231350D01*
X0212368Y0227150D01*
X0212699Y0227150D01*
X0213352Y0227253D01*
X0213980Y0227458D01*
X0214569Y0227758D01*
X0215104Y0228146D01*
X0215378Y0228420D01*
X0218049Y0225750D01*
X0222688Y0225750D01*
X0225654Y0228716D02*
X0237082Y0228716D01*
X0236768Y0230715D02*
X0225968Y0230715D01*
X0225968Y0232713D02*
X0236768Y0232713D01*
X0237810Y0234712D02*
X0224926Y0234712D01*
X0222928Y0236710D02*
X0239809Y0236710D01*
X0243868Y0238709D02*
X0173868Y0238709D01*
X0173868Y0240707D02*
X0245725Y0240707D01*
X0247724Y0242706D02*
X0173868Y0242706D01*
X0173868Y0244704D02*
X0183058Y0244704D01*
X0182915Y0244807D02*
X0183590Y0244317D01*
X0184334Y0243938D01*
X0185127Y0243680D01*
X0185951Y0243550D01*
X0186368Y0243550D01*
X0186368Y0248850D01*
X0186368Y0248850D01*
X0181068Y0248850D01*
X0181068Y0249267D01*
X0181199Y0250091D01*
X0181456Y0250884D01*
X0181835Y0251628D01*
X0182215Y0252150D01*
X0182071Y0252150D01*
X0180969Y0252607D01*
X0180125Y0253451D01*
X0179668Y0254553D01*
X0179668Y0263147D01*
X0180125Y0264249D01*
X0180969Y0265093D01*
X0182071Y0265550D01*
X0190665Y0265550D01*
X0191767Y0265093D01*
X0192611Y0264249D01*
X0193068Y0263147D01*
X0193068Y0254553D01*
X0192611Y0253451D01*
X0191767Y0252607D01*
X0190665Y0252150D01*
X0190522Y0252150D01*
X0190901Y0251628D01*
X0191280Y0250884D01*
X0191538Y0250091D01*
X0191668Y0249267D01*
X0191668Y0248850D01*
X0186368Y0248850D01*
X0181068Y0248850D01*
X0181068Y0248433D01*
X0181199Y0247609D01*
X0181456Y0246816D01*
X0181835Y0246072D01*
X0182325Y0245397D01*
X0182915Y0244807D01*
X0181514Y0246703D02*
X0173868Y0246703D01*
X0173868Y0248701D02*
X0181068Y0248701D01*
X0181396Y0250700D02*
X0173868Y0250700D01*
X0173868Y0252698D02*
X0180877Y0252698D01*
X0179668Y0254697D02*
X0173868Y0254697D01*
X0173868Y0256695D02*
X0179668Y0256695D01*
X0179668Y0258694D02*
X0173868Y0258694D01*
X0173868Y0260692D02*
X0179668Y0260692D01*
X0179668Y0262691D02*
X0173868Y0262691D01*
X0173868Y0264689D02*
X0180565Y0264689D01*
X0192172Y0264689D02*
X0210565Y0264689D01*
X0210969Y0265093D02*
X0210125Y0264249D01*
X0209668Y0263147D01*
X0209668Y0254553D01*
X0210125Y0253451D01*
X0210969Y0252607D01*
X0212071Y0252150D01*
X0212215Y0252150D01*
X0211835Y0251628D01*
X0211456Y0250884D01*
X0211199Y0250091D01*
X0211068Y0249267D01*
X0211068Y0248850D01*
X0216368Y0248850D01*
X0216368Y0248850D01*
X0211068Y0248850D01*
X0211068Y0248433D01*
X0211199Y0247609D01*
X0211456Y0246816D01*
X0211835Y0246072D01*
X0212325Y0245397D01*
X0212915Y0244807D01*
X0213590Y0244317D01*
X0214334Y0243938D01*
X0215127Y0243680D01*
X0215951Y0243550D01*
X0216368Y0243550D01*
X0216368Y0248850D01*
X0216368Y0248850D01*
X0216368Y0243550D01*
X0216785Y0243550D01*
X0217609Y0243680D01*
X0218403Y0243938D01*
X0219146Y0244317D01*
X0219821Y0244807D01*
X0220411Y0245397D01*
X0220901Y0246072D01*
X0221280Y0246816D01*
X0221538Y0247609D01*
X0221668Y0248433D01*
X0221668Y0248850D01*
X0221668Y0249267D01*
X0221538Y0250091D01*
X0221280Y0250884D01*
X0220901Y0251628D01*
X0220522Y0252150D01*
X0220665Y0252150D01*
X0221767Y0252607D01*
X0222611Y0253451D01*
X0223068Y0254553D01*
X0223068Y0263147D01*
X0222611Y0264249D01*
X0221767Y0265093D01*
X0220665Y0265550D01*
X0212071Y0265550D01*
X0210969Y0265093D01*
X0209668Y0262691D02*
X0193068Y0262691D01*
X0193068Y0260692D02*
X0209668Y0260692D01*
X0209668Y0258694D02*
X0193068Y0258694D01*
X0193068Y0256695D02*
X0209668Y0256695D01*
X0209668Y0254697D02*
X0193068Y0254697D01*
X0191859Y0252698D02*
X0210877Y0252698D01*
X0211396Y0250700D02*
X0191340Y0250700D01*
X0191668Y0248850D02*
X0186368Y0248850D01*
X0186368Y0248850D01*
X0186368Y0243550D01*
X0186785Y0243550D01*
X0187609Y0243680D01*
X0188403Y0243938D01*
X0189146Y0244317D01*
X0189821Y0244807D01*
X0190411Y0245397D01*
X0190901Y0246072D01*
X0191280Y0246816D01*
X0191538Y0247609D01*
X0191668Y0248433D01*
X0191668Y0248850D01*
X0191668Y0248701D02*
X0211068Y0248701D01*
X0211514Y0246703D02*
X0191222Y0246703D01*
X0189679Y0244704D02*
X0213058Y0244704D01*
X0216368Y0244704D02*
X0216368Y0244704D01*
X0216368Y0246703D02*
X0216368Y0246703D01*
X0216368Y0248701D02*
X0216368Y0248701D01*
X0216368Y0248850D02*
X0216368Y0248850D01*
X0221668Y0248850D01*
X0216368Y0248850D01*
X0219679Y0244704D02*
X0243058Y0244704D01*
X0242915Y0244807D02*
X0243590Y0244317D01*
X0244334Y0243938D01*
X0245127Y0243680D01*
X0245951Y0243550D01*
X0246368Y0243550D01*
X0246368Y0248850D01*
X0246368Y0248850D01*
X0241068Y0248850D01*
X0241068Y0249267D01*
X0241199Y0250091D01*
X0241456Y0250884D01*
X0241835Y0251628D01*
X0242215Y0252150D01*
X0242071Y0252150D01*
X0240969Y0252607D01*
X0240125Y0253451D01*
X0239668Y0254553D01*
X0239668Y0263147D01*
X0240125Y0264249D01*
X0240969Y0265093D01*
X0242071Y0265550D01*
X0250665Y0265550D01*
X0251767Y0265093D01*
X0252611Y0264249D01*
X0253068Y0263147D01*
X0253068Y0254553D01*
X0252611Y0253451D01*
X0251767Y0252607D01*
X0250665Y0252150D01*
X0250522Y0252150D01*
X0250901Y0251628D01*
X0251280Y0250884D01*
X0251538Y0250091D01*
X0251668Y0249267D01*
X0251668Y0248850D01*
X0246368Y0248850D01*
X0241068Y0248850D01*
X0241068Y0248433D01*
X0241199Y0247609D01*
X0241456Y0246816D01*
X0241835Y0246072D01*
X0242325Y0245397D01*
X0242915Y0244807D01*
X0241514Y0246703D02*
X0221222Y0246703D01*
X0221668Y0248701D02*
X0241068Y0248701D01*
X0241396Y0250700D02*
X0221340Y0250700D01*
X0221859Y0252698D02*
X0240877Y0252698D01*
X0239668Y0254697D02*
X0223068Y0254697D01*
X0223068Y0256695D02*
X0239668Y0256695D01*
X0239668Y0258694D02*
X0223068Y0258694D01*
X0223068Y0260692D02*
X0239668Y0260692D01*
X0239668Y0262691D02*
X0223068Y0262691D01*
X0222172Y0264689D02*
X0240565Y0264689D01*
X0252172Y0264689D02*
X0263868Y0264689D01*
X0263868Y0262691D02*
X0253068Y0262691D01*
X0253068Y0260692D02*
X0263868Y0260692D01*
X0263868Y0258694D02*
X0253068Y0258694D01*
X0253068Y0256695D02*
X0263868Y0256695D01*
X0263868Y0254697D02*
X0253068Y0254697D01*
X0251859Y0252698D02*
X0263868Y0252698D01*
X0263868Y0250700D02*
X0251340Y0250700D01*
X0251668Y0248850D02*
X0246368Y0248850D01*
X0246368Y0248850D01*
X0246368Y0243550D01*
X0246785Y0243550D01*
X0247609Y0243680D01*
X0248403Y0243938D01*
X0249146Y0244317D01*
X0249821Y0244807D01*
X0250411Y0245397D01*
X0250901Y0246072D01*
X0251280Y0246816D01*
X0251538Y0247609D01*
X0251668Y0248433D01*
X0251668Y0248850D01*
X0251668Y0248701D02*
X0263868Y0248701D01*
X0263868Y0246703D02*
X0251222Y0246703D01*
X0249722Y0244704D02*
X0249679Y0244704D01*
X0246368Y0244704D02*
X0246368Y0244704D01*
X0246368Y0246703D02*
X0246368Y0246703D01*
X0246368Y0248701D02*
X0246368Y0248701D01*
X0246368Y0248850D02*
X0246368Y0248850D01*
X0253868Y0241350D02*
X0263868Y0241350D01*
X0263868Y0171350D01*
X0245368Y0171350D01*
X0238868Y0181350D01*
X0238868Y0197428D01*
X0239062Y0197287D01*
X0239679Y0196972D01*
X0240338Y0196758D01*
X0241022Y0196650D01*
X0241368Y0196650D01*
X0241368Y0203850D01*
X0241368Y0211050D01*
X0241022Y0211050D01*
X0240338Y0210942D01*
X0239679Y0210728D01*
X0239062Y0210413D01*
X0238868Y0210272D01*
X0238868Y0216350D01*
X0248868Y0226350D01*
X0248868Y0227421D01*
X0249385Y0227253D01*
X0250038Y0227150D01*
X0250368Y0227150D01*
X0250368Y0231350D01*
X0250368Y0235550D01*
X0250038Y0235550D01*
X0249385Y0235447D01*
X0248868Y0235279D01*
X0248868Y0236350D01*
X0253868Y0241350D01*
X0253225Y0240707D02*
X0263868Y0240707D01*
X0263868Y0238709D02*
X0251227Y0238709D01*
X0249228Y0236710D02*
X0263868Y0236710D01*
X0263868Y0234712D02*
X0252887Y0234712D01*
X0253104Y0234554D02*
X0252569Y0234942D01*
X0251980Y0235242D01*
X0251352Y0235447D01*
X0250699Y0235550D01*
X0250368Y0235550D01*
X0250368Y0231350D01*
X0250368Y0231350D01*
X0250368Y0231350D01*
X0250368Y0227150D01*
X0250699Y0227150D01*
X0251352Y0227253D01*
X0251980Y0227458D01*
X0252569Y0227758D01*
X0253104Y0228146D01*
X0253572Y0228614D01*
X0253960Y0229149D01*
X0254260Y0229738D01*
X0254465Y0230366D01*
X0254568Y0231019D01*
X0254568Y0231350D01*
X0254568Y0231681D01*
X0254465Y0232334D01*
X0254260Y0232962D01*
X0253960Y0233551D01*
X0253572Y0234086D01*
X0253104Y0234554D01*
X0254341Y0232713D02*
X0263868Y0232713D01*
X0263868Y0230715D02*
X0254520Y0230715D01*
X0254568Y0231350D02*
X0250368Y0231350D01*
X0254568Y0231350D01*
X0253646Y0228716D02*
X0263868Y0228716D01*
X0263868Y0226718D02*
X0248868Y0226718D01*
X0250368Y0228716D02*
X0250368Y0228716D01*
X0250368Y0230715D02*
X0250368Y0230715D01*
X0250368Y0231350D02*
X0250368Y0231350D01*
X0250368Y0232713D02*
X0250368Y0232713D01*
X0250368Y0234712D02*
X0250368Y0234712D01*
X0247237Y0224719D02*
X0263868Y0224719D01*
X0263868Y0222720D02*
X0245239Y0222720D01*
X0243240Y0220722D02*
X0263868Y0220722D01*
X0263868Y0218723D02*
X0241242Y0218723D01*
X0239243Y0216725D02*
X0263868Y0216725D01*
X0263868Y0214726D02*
X0238868Y0214726D01*
X0238868Y0212728D02*
X0263868Y0212728D01*
X0263868Y0210729D02*
X0243052Y0210729D01*
X0243057Y0210728D02*
X0242398Y0210942D01*
X0241714Y0211050D01*
X0241368Y0211050D01*
X0241368Y0203850D01*
X0241368Y0203850D01*
X0241368Y0203850D01*
X0241368Y0196650D01*
X0241714Y0196650D01*
X0242398Y0196758D01*
X0243057Y0196972D01*
X0243674Y0197287D01*
X0244235Y0197694D01*
X0244724Y0198184D01*
X0245131Y0198744D01*
X0245446Y0199361D01*
X0245660Y0200020D01*
X0245768Y0200704D01*
X0245768Y0203850D01*
X0245768Y0206996D01*
X0245660Y0207680D01*
X0245446Y0208339D01*
X0245131Y0208956D01*
X0244724Y0209516D01*
X0244235Y0210006D01*
X0243674Y0210413D01*
X0243057Y0210728D01*
X0241368Y0210729D02*
X0241368Y0210729D01*
X0239685Y0210729D02*
X0238868Y0210729D01*
X0241368Y0208731D02*
X0241368Y0208731D01*
X0241368Y0206732D02*
X0241368Y0206732D01*
X0241368Y0204734D02*
X0241368Y0204734D01*
X0241368Y0203850D02*
X0245768Y0203850D01*
X0241368Y0203850D01*
X0241368Y0203850D01*
X0241368Y0202735D02*
X0241368Y0202735D01*
X0241368Y0200737D02*
X0241368Y0200737D01*
X0241368Y0198738D02*
X0241368Y0198738D01*
X0241368Y0196740D02*
X0241368Y0196740D01*
X0240455Y0196740D02*
X0238868Y0196740D01*
X0238868Y0194741D02*
X0263868Y0194741D01*
X0263868Y0192743D02*
X0238868Y0192743D01*
X0238868Y0190744D02*
X0263868Y0190744D01*
X0263868Y0188746D02*
X0238868Y0188746D01*
X0238868Y0186747D02*
X0263868Y0186747D01*
X0263868Y0184749D02*
X0259899Y0184749D01*
X0260106Y0184542D02*
X0259560Y0185087D01*
X0258936Y0185541D01*
X0258249Y0185891D01*
X0257516Y0186129D01*
X0256754Y0186250D01*
X0256468Y0186250D01*
X0256468Y0181450D01*
X0256268Y0181450D01*
X0256268Y0181250D01*
X0251468Y0181250D01*
X0251468Y0180964D01*
X0251589Y0180203D01*
X0251827Y0179469D01*
X0252177Y0178782D01*
X0252631Y0178158D01*
X0253176Y0177612D01*
X0253800Y0177159D01*
X0254487Y0176809D01*
X0255221Y0176571D01*
X0255982Y0176450D01*
X0256268Y0176450D01*
X0256268Y0181250D01*
X0256468Y0181250D01*
X0256468Y0176450D01*
X0256754Y0176450D01*
X0257516Y0176571D01*
X0258249Y0176809D01*
X0258936Y0177159D01*
X0259560Y0177612D01*
X0260106Y0178158D01*
X0260559Y0178782D01*
X0260909Y0179469D01*
X0261147Y0180203D01*
X0261268Y0180964D01*
X0261268Y0181250D01*
X0256468Y0181250D01*
X0256468Y0181450D01*
X0261268Y0181450D01*
X0261268Y0181736D01*
X0261147Y0182497D01*
X0260909Y0183231D01*
X0260559Y0183918D01*
X0260106Y0184542D01*
X0261065Y0182750D02*
X0263868Y0182750D01*
X0263868Y0180752D02*
X0261234Y0180752D01*
X0260538Y0178753D02*
X0263868Y0178753D01*
X0263868Y0176755D02*
X0258082Y0176755D01*
X0256468Y0176755D02*
X0256268Y0176755D01*
X0254654Y0176755D02*
X0241855Y0176755D01*
X0240556Y0178753D02*
X0252198Y0178753D01*
X0251502Y0180752D02*
X0239257Y0180752D01*
X0238868Y0182750D02*
X0251671Y0182750D01*
X0251589Y0182497D02*
X0251468Y0181736D01*
X0251468Y0181450D01*
X0256268Y0181450D01*
X0256268Y0186250D01*
X0255982Y0186250D01*
X0255221Y0186129D01*
X0254487Y0185891D01*
X0253800Y0185541D01*
X0253176Y0185087D01*
X0252631Y0184542D01*
X0252177Y0183918D01*
X0251827Y0183231D01*
X0251589Y0182497D01*
X0252837Y0184749D02*
X0238868Y0184749D01*
X0233660Y0188746D02*
X0196472Y0188746D01*
X0196368Y0190744D02*
X0233868Y0190744D01*
X0233868Y0192743D02*
X0196368Y0192743D01*
X0195477Y0194741D02*
X0233868Y0194741D01*
X0242282Y0196740D02*
X0263868Y0196740D01*
X0263868Y0198738D02*
X0245127Y0198738D01*
X0245768Y0200737D02*
X0263868Y0200737D01*
X0263868Y0202735D02*
X0245768Y0202735D01*
X0245768Y0204734D02*
X0263868Y0204734D01*
X0263868Y0206732D02*
X0245768Y0206732D01*
X0245246Y0208731D02*
X0263868Y0208731D01*
X0256468Y0184749D02*
X0256268Y0184749D01*
X0256268Y0182750D02*
X0256468Y0182750D01*
X0256468Y0180752D02*
X0256268Y0180752D01*
X0256268Y0178753D02*
X0256468Y0178753D01*
X0263868Y0174756D02*
X0243154Y0174756D01*
X0244453Y0172758D02*
X0263868Y0172758D01*
X0229663Y0186747D02*
X0219801Y0186747D01*
X0217609Y0198738D02*
X0185732Y0198738D01*
X0187331Y0200737D02*
X0216968Y0200737D01*
X0216968Y0202735D02*
X0188068Y0202735D01*
X0188068Y0204734D02*
X0216968Y0204734D01*
X0216968Y0206732D02*
X0187426Y0206732D01*
X0185962Y0208731D02*
X0217490Y0208731D01*
X0223052Y0210729D02*
X0227245Y0210729D01*
X0225952Y0208731D02*
X0225246Y0208731D01*
X0217081Y0226718D02*
X0183773Y0226718D01*
X0184154Y0228716D02*
X0185562Y0228716D01*
X0184668Y0229610D02*
X0187128Y0227150D01*
X0188868Y0227150D01*
X0188868Y0231350D01*
X0188868Y0231350D01*
X0184668Y0231350D01*
X0184668Y0233090D01*
X0187128Y0235550D01*
X0188868Y0235550D01*
X0188868Y0231350D01*
X0184668Y0231350D01*
X0184668Y0229610D01*
X0184668Y0230715D02*
X0184468Y0230715D01*
X0184468Y0232713D02*
X0184668Y0232713D01*
X0183426Y0234712D02*
X0186290Y0234712D01*
X0188868Y0234712D02*
X0188868Y0234712D01*
X0188868Y0235550D02*
X0190608Y0235550D01*
X0193068Y0233090D01*
X0193068Y0231350D01*
X0188868Y0231350D01*
X0188868Y0231350D01*
X0188868Y0231350D01*
X0188868Y0235550D01*
X0191446Y0234712D02*
X0209849Y0234712D01*
X0208395Y0232713D02*
X0193068Y0232713D01*
X0193068Y0231350D02*
X0188868Y0231350D01*
X0188868Y0227150D01*
X0190608Y0227150D01*
X0193068Y0229610D01*
X0193068Y0231350D01*
X0193068Y0230715D02*
X0208216Y0230715D01*
X0209090Y0228716D02*
X0192174Y0228716D01*
X0188868Y0228716D02*
X0188868Y0228716D01*
X0188868Y0230715D02*
X0188868Y0230715D01*
X0188868Y0231350D02*
X0188868Y0231350D01*
X0188868Y0232713D02*
X0188868Y0232713D01*
X0181428Y0236710D02*
X0217809Y0236710D01*
X0215810Y0234712D02*
X0214887Y0234712D01*
X0212368Y0234712D02*
X0212368Y0234712D01*
X0212368Y0232713D02*
X0212368Y0232713D01*
X0212368Y0230715D02*
X0212368Y0230715D01*
X0212368Y0228716D02*
X0212368Y0228716D01*
X0186368Y0244704D02*
X0186368Y0244704D01*
X0186368Y0246703D02*
X0186368Y0246703D01*
X0186368Y0248701D02*
X0186368Y0248701D01*
X0186368Y0248850D02*
X0186368Y0248850D01*
X0176309Y0236710D02*
X0173868Y0236710D01*
X0173868Y0234712D02*
X0174310Y0234712D01*
X0168868Y0238709D02*
X0156227Y0238709D01*
X0158225Y0240707D02*
X0168868Y0240707D01*
X0168868Y0246350D02*
X0156368Y0246350D01*
X0148868Y0238850D01*
X0148868Y0236950D01*
X0145049Y0236950D01*
X0141768Y0233670D01*
X0141768Y0229030D01*
X0145049Y0225750D01*
X0145768Y0225750D01*
X0138868Y0218850D01*
X0138868Y0211892D01*
X0137522Y0212450D01*
X0135214Y0212450D01*
X0133083Y0211567D01*
X0131451Y0209935D01*
X0130597Y0207873D01*
X0130446Y0208339D01*
X0130131Y0208956D01*
X0129724Y0209516D01*
X0129235Y0210006D01*
X0128674Y0210413D01*
X0128057Y0210728D01*
X0127398Y0210942D01*
X0126714Y0211050D01*
X0126368Y0211050D01*
X0126022Y0211050D01*
X0125338Y0210942D01*
X0124679Y0210728D01*
X0124062Y0210413D01*
X0123502Y0210006D01*
X0123012Y0209516D01*
X0122605Y0208956D01*
X0122290Y0208339D01*
X0122076Y0207680D01*
X0121968Y0206996D01*
X0121968Y0203850D01*
X0126368Y0203850D01*
X0126368Y0203850D01*
X0121968Y0203850D01*
X0121968Y0200704D01*
X0122076Y0200020D01*
X0122290Y0199361D01*
X0122605Y0198744D01*
X0123012Y0198184D01*
X0123502Y0197694D01*
X0124062Y0197287D01*
X0124679Y0196972D01*
X0125338Y0196758D01*
X0126022Y0196650D01*
X0126368Y0196650D01*
X0126368Y0203850D01*
X0126368Y0211050D01*
X0126368Y0203850D01*
X0126368Y0203850D01*
X0126368Y0203850D01*
X0126368Y0196650D01*
X0126714Y0196650D01*
X0127398Y0196758D01*
X0128057Y0196972D01*
X0128674Y0197287D01*
X0129235Y0197694D01*
X0129724Y0198184D01*
X0130131Y0198744D01*
X0130446Y0199361D01*
X0130597Y0199827D01*
X0131451Y0197765D01*
X0133083Y0196133D01*
X0135214Y0195250D01*
X0137522Y0195250D01*
X0138868Y0195808D01*
X0138868Y0188850D01*
X0133868Y0186350D01*
X0125278Y0186350D01*
X0124937Y0186691D01*
X0122621Y0187650D01*
X0120115Y0187650D01*
X0119874Y0187550D01*
X0114801Y0187550D01*
X0113308Y0188165D01*
X0103003Y0188147D01*
X0102345Y0187873D01*
X0101368Y0188850D01*
X0101368Y0193850D01*
X0098868Y0196350D01*
X0081368Y0196350D01*
X0078868Y0198850D01*
X0078868Y0228430D01*
X0080238Y0227060D01*
X0081471Y0218429D01*
X0080688Y0217645D01*
X0079668Y0215183D01*
X0079668Y0212517D01*
X0080688Y0210055D01*
X0081893Y0208850D01*
X0080688Y0207645D01*
X0079668Y0205183D01*
X0079668Y0202517D01*
X0080688Y0200055D01*
X0082573Y0198170D01*
X0085035Y0197150D01*
X0087701Y0197150D01*
X0090163Y0198170D01*
X0092048Y0200055D01*
X0093068Y0202517D01*
X0093068Y0205183D01*
X0092048Y0207645D01*
X0090843Y0208850D01*
X0092048Y0210055D01*
X0093068Y0212517D01*
X0093068Y0215183D01*
X0092048Y0217645D01*
X0090163Y0219530D01*
X0089776Y0219690D01*
X0088570Y0228133D01*
X0089468Y0229030D01*
X0089468Y0233670D01*
X0086188Y0236950D01*
X0081549Y0236950D01*
X0078868Y0234270D01*
X0078868Y0266350D01*
X0168868Y0266350D01*
X0168868Y0246350D01*
X0168868Y0246703D02*
X0156222Y0246703D01*
X0156280Y0246816D02*
X0156538Y0247609D01*
X0156668Y0248433D01*
X0156668Y0248850D01*
X0156668Y0249267D01*
X0156538Y0250091D01*
X0156280Y0250884D01*
X0155901Y0251628D01*
X0155522Y0252150D01*
X0155665Y0252150D01*
X0156767Y0252607D01*
X0157611Y0253451D01*
X0158068Y0254553D01*
X0158068Y0263147D01*
X0157611Y0264249D01*
X0156767Y0265093D01*
X0155665Y0265550D01*
X0147071Y0265550D01*
X0145969Y0265093D01*
X0145125Y0264249D01*
X0144668Y0263147D01*
X0144668Y0254553D01*
X0145125Y0253451D01*
X0145969Y0252607D01*
X0147071Y0252150D01*
X0147215Y0252150D01*
X0146835Y0251628D01*
X0146456Y0250884D01*
X0146199Y0250091D01*
X0146068Y0249267D01*
X0146068Y0248850D01*
X0151368Y0248850D01*
X0151368Y0248850D01*
X0146068Y0248850D01*
X0146068Y0248433D01*
X0146199Y0247609D01*
X0146456Y0246816D01*
X0146835Y0246072D01*
X0147325Y0245397D01*
X0147915Y0244807D01*
X0148590Y0244317D01*
X0149334Y0243938D01*
X0150127Y0243680D01*
X0150951Y0243550D01*
X0151368Y0243550D01*
X0151368Y0248850D01*
X0151368Y0248850D01*
X0151368Y0243550D01*
X0151785Y0243550D01*
X0152609Y0243680D01*
X0153403Y0243938D01*
X0154146Y0244317D01*
X0154821Y0244807D01*
X0155411Y0245397D01*
X0155901Y0246072D01*
X0156280Y0246816D01*
X0156668Y0248701D02*
X0168868Y0248701D01*
X0168868Y0250700D02*
X0156340Y0250700D01*
X0156668Y0248850D02*
X0151368Y0248850D01*
X0151368Y0248850D01*
X0156668Y0248850D01*
X0156859Y0252698D02*
X0168868Y0252698D01*
X0168868Y0254697D02*
X0158068Y0254697D01*
X0158068Y0256695D02*
X0168868Y0256695D01*
X0168868Y0258694D02*
X0158068Y0258694D01*
X0158068Y0260692D02*
X0168868Y0260692D01*
X0168868Y0262691D02*
X0158068Y0262691D01*
X0157172Y0264689D02*
X0168868Y0264689D01*
X0151368Y0248701D02*
X0151368Y0248701D01*
X0151368Y0246703D02*
X0151368Y0246703D01*
X0151368Y0244704D02*
X0151368Y0244704D01*
X0152724Y0242706D02*
X0078868Y0242706D01*
X0078868Y0244704D02*
X0088058Y0244704D01*
X0087915Y0244807D02*
X0088590Y0244317D01*
X0089334Y0243938D01*
X0090127Y0243680D01*
X0090951Y0243550D01*
X0091368Y0243550D01*
X0091368Y0248850D01*
X0091368Y0248850D01*
X0086068Y0248850D01*
X0086068Y0249267D01*
X0086199Y0250091D01*
X0086456Y0250884D01*
X0086835Y0251628D01*
X0087215Y0252150D01*
X0087071Y0252150D01*
X0085969Y0252607D01*
X0085125Y0253451D01*
X0084668Y0254553D01*
X0084668Y0263147D01*
X0085125Y0264249D01*
X0085969Y0265093D01*
X0087071Y0265550D01*
X0095665Y0265550D01*
X0096767Y0265093D01*
X0097611Y0264249D01*
X0098068Y0263147D01*
X0098068Y0254553D01*
X0097611Y0253451D01*
X0096767Y0252607D01*
X0095665Y0252150D01*
X0095522Y0252150D01*
X0095901Y0251628D01*
X0096280Y0250884D01*
X0096538Y0250091D01*
X0096668Y0249267D01*
X0096668Y0248850D01*
X0091368Y0248850D01*
X0086068Y0248850D01*
X0086068Y0248433D01*
X0086199Y0247609D01*
X0086456Y0246816D01*
X0086835Y0246072D01*
X0087325Y0245397D01*
X0087915Y0244807D01*
X0086514Y0246703D02*
X0078868Y0246703D01*
X0078868Y0248701D02*
X0086068Y0248701D01*
X0086396Y0250700D02*
X0078868Y0250700D01*
X0078868Y0252698D02*
X0085877Y0252698D01*
X0084668Y0254697D02*
X0078868Y0254697D01*
X0078868Y0256695D02*
X0084668Y0256695D01*
X0084668Y0258694D02*
X0078868Y0258694D01*
X0078868Y0260692D02*
X0084668Y0260692D01*
X0084668Y0262691D02*
X0078868Y0262691D01*
X0078868Y0264689D02*
X0085565Y0264689D01*
X0097172Y0264689D02*
X0115565Y0264689D01*
X0115969Y0265093D02*
X0115125Y0264249D01*
X0114668Y0263147D01*
X0114668Y0254553D01*
X0115125Y0253451D01*
X0115969Y0252607D01*
X0117071Y0252150D01*
X0117215Y0252150D01*
X0116835Y0251628D01*
X0116456Y0250884D01*
X0116199Y0250091D01*
X0116068Y0249267D01*
X0116068Y0248850D01*
X0121368Y0248850D01*
X0121368Y0248850D01*
X0116068Y0248850D01*
X0116068Y0248433D01*
X0116199Y0247609D01*
X0116456Y0246816D01*
X0116835Y0246072D01*
X0117325Y0245397D01*
X0117915Y0244807D01*
X0118590Y0244317D01*
X0119334Y0243938D01*
X0120127Y0243680D01*
X0120951Y0243550D01*
X0121368Y0243550D01*
X0121368Y0248850D01*
X0121368Y0248850D01*
X0121368Y0243550D01*
X0121785Y0243550D01*
X0122609Y0243680D01*
X0123403Y0243938D01*
X0124146Y0244317D01*
X0124821Y0244807D01*
X0125411Y0245397D01*
X0125901Y0246072D01*
X0126280Y0246816D01*
X0126538Y0247609D01*
X0126668Y0248433D01*
X0126668Y0248850D01*
X0126668Y0249267D01*
X0126538Y0250091D01*
X0126280Y0250884D01*
X0125901Y0251628D01*
X0125522Y0252150D01*
X0125665Y0252150D01*
X0126767Y0252607D01*
X0127611Y0253451D01*
X0128068Y0254553D01*
X0128068Y0263147D01*
X0127611Y0264249D01*
X0126767Y0265093D01*
X0125665Y0265550D01*
X0117071Y0265550D01*
X0115969Y0265093D01*
X0114668Y0262691D02*
X0098068Y0262691D01*
X0098068Y0260692D02*
X0114668Y0260692D01*
X0114668Y0258694D02*
X0098068Y0258694D01*
X0098068Y0256695D02*
X0114668Y0256695D01*
X0114668Y0254697D02*
X0098068Y0254697D01*
X0096859Y0252698D02*
X0115877Y0252698D01*
X0116396Y0250700D02*
X0096340Y0250700D01*
X0096668Y0248850D02*
X0091368Y0248850D01*
X0091368Y0248850D01*
X0091368Y0243550D01*
X0091785Y0243550D01*
X0092609Y0243680D01*
X0093403Y0243938D01*
X0094146Y0244317D01*
X0094821Y0244807D01*
X0095411Y0245397D01*
X0095901Y0246072D01*
X0096280Y0246816D01*
X0096538Y0247609D01*
X0096668Y0248433D01*
X0096668Y0248850D01*
X0096668Y0248701D02*
X0116068Y0248701D01*
X0116514Y0246703D02*
X0096222Y0246703D01*
X0094679Y0244704D02*
X0118058Y0244704D01*
X0121368Y0244704D02*
X0121368Y0244704D01*
X0121368Y0246703D02*
X0121368Y0246703D01*
X0121368Y0248701D02*
X0121368Y0248701D01*
X0121368Y0248850D02*
X0121368Y0248850D01*
X0126668Y0248850D01*
X0121368Y0248850D01*
X0126668Y0248701D02*
X0146068Y0248701D01*
X0146396Y0250700D02*
X0126340Y0250700D01*
X0126859Y0252698D02*
X0145877Y0252698D01*
X0144668Y0254697D02*
X0128068Y0254697D01*
X0128068Y0256695D02*
X0144668Y0256695D01*
X0144668Y0258694D02*
X0128068Y0258694D01*
X0128068Y0260692D02*
X0144668Y0260692D01*
X0144668Y0262691D02*
X0128068Y0262691D01*
X0127172Y0264689D02*
X0145565Y0264689D01*
X0146514Y0246703D02*
X0126222Y0246703D01*
X0124679Y0244704D02*
X0148058Y0244704D01*
X0150725Y0240707D02*
X0078868Y0240707D01*
X0078868Y0238709D02*
X0148868Y0238709D01*
X0144809Y0236710D02*
X0127928Y0236710D01*
X0127688Y0236950D02*
X0123049Y0236950D01*
X0120378Y0234280D01*
X0120104Y0234554D01*
X0119569Y0234942D01*
X0118980Y0235242D01*
X0118352Y0235447D01*
X0117699Y0235550D01*
X0117368Y0235550D01*
X0117038Y0235550D01*
X0116385Y0235447D01*
X0115756Y0235242D01*
X0115167Y0234942D01*
X0114632Y0234554D01*
X0114165Y0234086D01*
X0113776Y0233551D01*
X0113476Y0232962D01*
X0113272Y0232334D01*
X0113168Y0231681D01*
X0113168Y0231350D01*
X0117368Y0231350D01*
X0117368Y0231350D01*
X0113168Y0231350D01*
X0113168Y0231019D01*
X0113272Y0230366D01*
X0113476Y0229738D01*
X0113776Y0229149D01*
X0114165Y0228614D01*
X0114632Y0228146D01*
X0115167Y0227758D01*
X0115756Y0227458D01*
X0116385Y0227253D01*
X0117038Y0227150D01*
X0117368Y0227150D01*
X0117368Y0231350D01*
X0117368Y0235550D01*
X0117368Y0231350D01*
X0117368Y0231350D01*
X0117368Y0231350D01*
X0117368Y0227150D01*
X0117699Y0227150D01*
X0118352Y0227253D01*
X0118980Y0227458D01*
X0119569Y0227758D01*
X0120104Y0228146D01*
X0120378Y0228420D01*
X0123049Y0225750D01*
X0127688Y0225750D01*
X0130968Y0229030D01*
X0130968Y0233670D01*
X0127688Y0236950D01*
X0129926Y0234712D02*
X0142810Y0234712D01*
X0141768Y0232713D02*
X0130968Y0232713D01*
X0130968Y0230715D02*
X0141768Y0230715D01*
X0142082Y0228716D02*
X0130654Y0228716D01*
X0128655Y0226718D02*
X0144081Y0226718D01*
X0144737Y0224719D02*
X0089058Y0224719D01*
X0088773Y0226718D02*
X0122081Y0226718D01*
X0117368Y0228716D02*
X0117368Y0228716D01*
X0117368Y0230715D02*
X0117368Y0230715D01*
X0117368Y0232713D02*
X0117368Y0232713D01*
X0117368Y0234712D02*
X0117368Y0234712D01*
X0114849Y0234712D02*
X0096446Y0234712D01*
X0095608Y0235550D02*
X0093868Y0235550D01*
X0092128Y0235550D01*
X0089668Y0233090D01*
X0089668Y0231350D01*
X0093868Y0231350D01*
X0093868Y0231350D01*
X0089668Y0231350D01*
X0089668Y0229610D01*
X0092128Y0227150D01*
X0093868Y0227150D01*
X0093868Y0231350D01*
X0093868Y0235550D01*
X0093868Y0231350D01*
X0093868Y0231350D01*
X0093868Y0231350D01*
X0093868Y0227150D01*
X0095608Y0227150D01*
X0098068Y0229610D01*
X0098068Y0231350D01*
X0098068Y0233090D01*
X0095608Y0235550D01*
X0093868Y0234712D02*
X0093868Y0234712D01*
X0093868Y0232713D02*
X0093868Y0232713D01*
X0093868Y0231350D02*
X0098068Y0231350D01*
X0093868Y0231350D01*
X0093868Y0231350D01*
X0093868Y0230715D02*
X0093868Y0230715D01*
X0093868Y0228716D02*
X0093868Y0228716D01*
X0090562Y0228716D02*
X0089154Y0228716D01*
X0089468Y0230715D02*
X0089668Y0230715D01*
X0089668Y0232713D02*
X0089468Y0232713D01*
X0088426Y0234712D02*
X0091290Y0234712D01*
X0086428Y0236710D02*
X0122809Y0236710D01*
X0120810Y0234712D02*
X0119887Y0234712D01*
X0113395Y0232713D02*
X0098068Y0232713D01*
X0098068Y0230715D02*
X0113216Y0230715D01*
X0114090Y0228716D02*
X0097174Y0228716D01*
X0089344Y0222720D02*
X0142739Y0222720D01*
X0140740Y0220722D02*
X0089629Y0220722D01*
X0090970Y0218723D02*
X0138868Y0218723D01*
X0138868Y0216725D02*
X0092429Y0216725D01*
X0093068Y0214726D02*
X0138868Y0214726D01*
X0138868Y0212728D02*
X0093068Y0212728D01*
X0092328Y0210729D02*
X0124685Y0210729D01*
X0126368Y0210729D02*
X0126368Y0210729D01*
X0128052Y0210729D02*
X0132245Y0210729D01*
X0130952Y0208731D02*
X0130246Y0208731D01*
X0126368Y0208731D02*
X0126368Y0208731D01*
X0126368Y0206732D02*
X0126368Y0206732D01*
X0126368Y0204734D02*
X0126368Y0204734D01*
X0126368Y0202735D02*
X0126368Y0202735D01*
X0126368Y0200737D02*
X0126368Y0200737D01*
X0126368Y0198738D02*
X0126368Y0198738D01*
X0126368Y0196740D02*
X0126368Y0196740D01*
X0125455Y0196740D02*
X0080978Y0196740D01*
X0082005Y0198738D02*
X0078980Y0198738D01*
X0078868Y0200737D02*
X0080406Y0200737D01*
X0079668Y0202735D02*
X0078868Y0202735D01*
X0078868Y0204734D02*
X0079668Y0204734D01*
X0080310Y0206732D02*
X0078868Y0206732D01*
X0078868Y0208731D02*
X0081774Y0208731D01*
X0080409Y0210729D02*
X0078868Y0210729D01*
X0078868Y0212728D02*
X0079668Y0212728D01*
X0079668Y0214726D02*
X0078868Y0214726D01*
X0078868Y0216725D02*
X0080307Y0216725D01*
X0081429Y0218723D02*
X0078868Y0218723D01*
X0078868Y0220722D02*
X0081144Y0220722D01*
X0080858Y0222720D02*
X0078868Y0222720D01*
X0078868Y0224719D02*
X0080573Y0224719D01*
X0080287Y0226718D02*
X0078868Y0226718D01*
X0078868Y0234712D02*
X0079310Y0234712D01*
X0078868Y0236710D02*
X0081309Y0236710D01*
X0091368Y0244704D02*
X0091368Y0244704D01*
X0091368Y0246703D02*
X0091368Y0246703D01*
X0091368Y0248701D02*
X0091368Y0248701D01*
X0091368Y0248850D02*
X0091368Y0248850D01*
X0090962Y0208731D02*
X0122490Y0208731D01*
X0121968Y0206732D02*
X0092426Y0206732D01*
X0093068Y0204734D02*
X0121968Y0204734D01*
X0121968Y0202735D02*
X0093068Y0202735D01*
X0092331Y0200737D02*
X0121968Y0200737D01*
X0122609Y0198738D02*
X0090732Y0198738D01*
X0100477Y0194741D02*
X0138868Y0194741D01*
X0138868Y0192743D02*
X0101368Y0192743D01*
X0101368Y0190744D02*
X0138868Y0190744D01*
X0138660Y0188746D02*
X0101472Y0188746D01*
X0124801Y0186747D02*
X0134663Y0186747D01*
X0132476Y0196740D02*
X0127282Y0196740D01*
X0130127Y0198738D02*
X0131048Y0198738D01*
X0148052Y0210729D02*
X0168868Y0210729D01*
X0168868Y0208731D02*
X0150246Y0208731D01*
X0150768Y0206732D02*
X0168868Y0206732D01*
X0168868Y0204734D02*
X0150768Y0204734D01*
X0150768Y0202735D02*
X0168868Y0202735D01*
X0168868Y0200737D02*
X0150768Y0200737D01*
X0150127Y0198738D02*
X0168868Y0198738D01*
X0154722Y0244704D02*
X0154679Y0244704D01*
X0097742Y0150774D02*
X0078868Y0150774D01*
X0078868Y0148776D02*
X0099041Y0148776D01*
X0100341Y0146777D02*
X0078868Y0146777D01*
X0078868Y0144779D02*
X0082867Y0144779D01*
X0082631Y0144542D02*
X0083176Y0145088D01*
X0083800Y0145541D01*
X0084487Y0145891D01*
X0085221Y0146129D01*
X0085982Y0146250D01*
X0086268Y0146250D01*
X0086268Y0141450D01*
X0086268Y0141250D01*
X0081468Y0141250D01*
X0081468Y0140964D01*
X0081589Y0140203D01*
X0081827Y0139469D01*
X0082177Y0138782D01*
X0082631Y0138158D01*
X0083176Y0137612D01*
X0083800Y0137159D01*
X0084487Y0136809D01*
X0085221Y0136571D01*
X0085982Y0136450D01*
X0086268Y0136450D01*
X0086268Y0141250D01*
X0086468Y0141250D01*
X0086468Y0136450D01*
X0086754Y0136450D01*
X0087516Y0136571D01*
X0088249Y0136809D01*
X0088936Y0137159D01*
X0089560Y0137612D01*
X0090106Y0138158D01*
X0090559Y0138782D01*
X0090909Y0139469D01*
X0091147Y0140203D01*
X0091268Y0140964D01*
X0091268Y0141250D01*
X0086468Y0141250D01*
X0086468Y0141450D01*
X0086268Y0141450D01*
X0081468Y0141450D01*
X0081468Y0141736D01*
X0081589Y0142497D01*
X0081827Y0143231D01*
X0082177Y0143918D01*
X0082631Y0144542D01*
X0081681Y0142780D02*
X0078868Y0142780D01*
X0078868Y0140782D02*
X0081497Y0140782D01*
X0082177Y0138783D02*
X0078868Y0138783D01*
X0078868Y0136784D02*
X0084563Y0136784D01*
X0086268Y0136784D02*
X0086468Y0136784D01*
X0088174Y0136784D02*
X0103868Y0136784D01*
X0103868Y0134786D02*
X0078868Y0134786D01*
X0078868Y0132787D02*
X0103868Y0132787D01*
X0103868Y0130789D02*
X0078868Y0130789D01*
X0078868Y0128790D02*
X0103868Y0128790D01*
X0103868Y0126792D02*
X0078868Y0126792D01*
X0078868Y0124793D02*
X0098289Y0124793D01*
X0097114Y0122795D02*
X0078868Y0122795D01*
X0078868Y0120796D02*
X0096968Y0120796D01*
X0096968Y0118798D02*
X0078868Y0118798D01*
X0078868Y0116799D02*
X0096968Y0116799D01*
X0097148Y0114801D02*
X0078868Y0114801D01*
X0078868Y0112802D02*
X0098393Y0112802D01*
X0101368Y0112802D02*
X0101368Y0112802D01*
X0101368Y0114801D02*
X0101368Y0114801D01*
X0101368Y0116799D02*
X0101368Y0116799D01*
X0101368Y0118798D02*
X0101368Y0118798D01*
X0101368Y0120796D02*
X0101368Y0120796D01*
X0101368Y0122795D02*
X0101368Y0122795D01*
X0101368Y0124793D02*
X0101368Y0124793D01*
X0103868Y0110804D02*
X0078868Y0110804D01*
X0078868Y0108805D02*
X0103868Y0108805D01*
X0103868Y0106807D02*
X0078868Y0106807D01*
X0078868Y0104808D02*
X0102326Y0104808D01*
X0100328Y0102810D02*
X0078868Y0102810D01*
X0078868Y0100811D02*
X0098329Y0100811D01*
X0096331Y0098813D02*
X0078868Y0098813D01*
X0086268Y0138783D02*
X0086468Y0138783D01*
X0086468Y0140782D02*
X0086268Y0140782D01*
X0086468Y0141450D02*
X0091268Y0141450D01*
X0091268Y0141736D01*
X0091147Y0142497D01*
X0090909Y0143231D01*
X0090559Y0143918D01*
X0090106Y0144542D01*
X0089560Y0145088D01*
X0088936Y0145541D01*
X0088249Y0145891D01*
X0087516Y0146129D01*
X0086754Y0146250D01*
X0086468Y0146250D01*
X0086468Y0141450D01*
X0086468Y0142780D02*
X0086268Y0142780D01*
X0086268Y0144779D02*
X0086468Y0144779D01*
X0089869Y0144779D02*
X0101640Y0144779D01*
X0102939Y0142780D02*
X0091056Y0142780D01*
X0091239Y0140782D02*
X0103868Y0140782D01*
X0103868Y0138783D02*
X0090560Y0138783D01*
D22*
X0161368Y0108850D02*
X0163868Y0091350D01*
X0256368Y0108850D02*
X0258868Y0091350D01*
X0181368Y0213850D02*
X0178868Y0231350D01*
X0086368Y0213850D02*
X0083868Y0231350D01*
D23*
X0108167Y0181356D02*
X0108174Y0181350D01*
X0121368Y0181350D01*
X0126368Y0141350D02*
X0139563Y0141350D01*
X0139569Y0141344D01*
X0203167Y0181356D02*
X0203174Y0181350D01*
X0216368Y0181350D01*
X0221368Y0141350D02*
X0234563Y0141350D01*
X0234569Y0141344D01*
D24*
X0239670Y0147953D02*
X0240526Y0147600D01*
X0241368Y0147600D01*
X0246368Y0143850D01*
X0246368Y0140693D01*
X0246395Y0140730D01*
X0246973Y0141310D01*
X0247634Y0141792D01*
X0248363Y0142165D01*
X0249141Y0142419D01*
X0249949Y0142549D01*
X0254158Y0142556D01*
X0254167Y0137356D01*
X0254167Y0137356D01*
X0254176Y0132156D01*
X0249967Y0132149D01*
X0249159Y0132276D01*
X0248380Y0132527D01*
X0247650Y0132897D01*
X0246987Y0133377D01*
X0246407Y0133955D01*
X0246368Y0134008D01*
X0246368Y0131350D01*
X0266368Y0131350D01*
X0270118Y0126350D01*
X0270118Y0054150D01*
X0312295Y0054150D01*
X0316919Y0053095D01*
X0316919Y0053095D01*
X0321192Y0051037D01*
X0321192Y0051037D01*
X0324901Y0048079D01*
X0324901Y0048079D01*
X0325860Y0046876D01*
X0359741Y0046436D01*
X0359741Y0116350D01*
X0292618Y0116350D01*
X0287618Y0121350D01*
X0287618Y0158850D01*
X0282618Y0165100D01*
X0243868Y0165100D01*
X0241368Y0167600D01*
X0240118Y0170100D01*
X0237618Y0172600D01*
X0196368Y0172600D01*
X0192618Y0175100D01*
X0192618Y0186350D01*
X0192431Y0186599D01*
X0192439Y0186577D01*
X0192568Y0185769D01*
X0192569Y0185359D01*
X0183569Y0185344D01*
X0183569Y0185344D01*
X0183560Y0190544D01*
X0187769Y0190551D01*
X0188578Y0190424D01*
X0189357Y0190173D01*
X0189993Y0189850D01*
X0188868Y0191350D01*
X0175118Y0191350D01*
X0173868Y0190100D01*
X0173868Y0168850D01*
X0171368Y0166350D01*
X0145118Y0166350D01*
X0143868Y0168850D01*
X0143868Y0172600D01*
X0142618Y0175100D01*
X0114096Y0175100D01*
X0113292Y0174765D01*
X0103066Y0174747D01*
X0102211Y0175100D01*
X0098868Y0175100D01*
X0096368Y0177600D01*
X0096368Y0182007D01*
X0096341Y0181970D01*
X0095763Y0181390D01*
X0095102Y0180908D01*
X0094373Y0180535D01*
X0093595Y0180280D01*
X0092787Y0180151D01*
X0088578Y0180144D01*
X0088569Y0185344D01*
X0088569Y0185344D01*
X0088560Y0190544D01*
X0092769Y0190551D01*
X0093578Y0190424D01*
X0094357Y0190173D01*
X0095086Y0189802D01*
X0095749Y0189323D01*
X0096329Y0188745D01*
X0096368Y0188691D01*
X0096368Y0190100D01*
X0095118Y0191350D01*
X0077618Y0191350D01*
X0072618Y0196350D01*
X0072618Y0267251D01*
X0066615Y0267251D01*
X0061991Y0268306D01*
X0058266Y0270100D01*
X0019168Y0270100D01*
X0019168Y0052600D01*
X0060964Y0052600D01*
X0061991Y0053095D01*
X0061991Y0053095D01*
X0066615Y0054150D01*
X0073868Y0054150D01*
X0073868Y0155100D01*
X0075118Y0156350D01*
X0101368Y0156350D01*
X0108868Y0146350D01*
X0122741Y0146350D01*
X0122913Y0146521D01*
X0125155Y0147450D01*
X0127581Y0147450D01*
X0127823Y0147350D01*
X0133040Y0147350D01*
X0134445Y0147935D01*
X0144670Y0147953D01*
X0147098Y0146952D01*
X0147702Y0146350D01*
X0148868Y0146350D01*
X0151368Y0143850D01*
X0151368Y0140693D01*
X0151395Y0140730D01*
X0151973Y0141310D01*
X0152634Y0141792D01*
X0153363Y0142165D01*
X0154141Y0142419D01*
X0154949Y0142549D01*
X0159158Y0142556D01*
X0159167Y0137356D01*
X0159167Y0137356D01*
X0159176Y0132156D01*
X0154967Y0132149D01*
X0154159Y0132276D01*
X0153380Y0132527D01*
X0152650Y0132897D01*
X0151987Y0133377D01*
X0151407Y0133955D01*
X0151368Y0134008D01*
X0151368Y0132600D01*
X0152618Y0131350D01*
X0166368Y0131350D01*
X0168868Y0133850D01*
X0168868Y0153850D01*
X0171368Y0156350D01*
X0197618Y0156350D01*
X0203868Y0147600D01*
X0228640Y0147600D01*
X0229445Y0147935D01*
X0239670Y0147953D01*
X0243023Y0146359D02*
X0287618Y0146359D01*
X0287618Y0144761D02*
X0245154Y0144761D01*
X0246368Y0143162D02*
X0287618Y0143162D01*
X0287618Y0141564D02*
X0261032Y0141564D01*
X0261348Y0141335D02*
X0260685Y0141815D01*
X0259955Y0142185D01*
X0259176Y0142437D01*
X0258368Y0142564D01*
X0254158Y0142556D01*
X0254167Y0137356D01*
X0254176Y0132156D01*
X0258386Y0132164D01*
X0259194Y0132293D01*
X0259972Y0132547D01*
X0260700Y0132920D01*
X0261362Y0133403D01*
X0261940Y0133982D01*
X0262420Y0134645D01*
X0262790Y0135375D01*
X0263041Y0136154D01*
X0263168Y0136963D01*
X0263167Y0137372D01*
X0263167Y0137781D01*
X0263037Y0138589D01*
X0262783Y0139367D01*
X0262410Y0140096D01*
X0261928Y0140757D01*
X0261348Y0141335D01*
X0262477Y0139965D02*
X0287618Y0139965D01*
X0287618Y0138367D02*
X0263073Y0138367D01*
X0263167Y0137372D02*
X0254167Y0137356D01*
X0254167Y0137356D01*
X0254167Y0137356D01*
X0263167Y0137372D01*
X0263138Y0136768D02*
X0287618Y0136768D01*
X0287618Y0135170D02*
X0262685Y0135170D01*
X0261530Y0133571D02*
X0287618Y0133571D01*
X0287618Y0131973D02*
X0246368Y0131973D01*
X0246368Y0133571D02*
X0246792Y0133571D01*
X0254174Y0133571D02*
X0254174Y0133571D01*
X0254171Y0135170D02*
X0254171Y0135170D01*
X0254168Y0136768D02*
X0254168Y0136768D01*
X0254166Y0138367D02*
X0254166Y0138367D01*
X0254163Y0139965D02*
X0254163Y0139965D01*
X0254160Y0141564D02*
X0254160Y0141564D01*
X0247321Y0141564D02*
X0246368Y0141564D01*
X0267100Y0130374D02*
X0287618Y0130374D01*
X0287618Y0128776D02*
X0268299Y0128776D01*
X0269498Y0127177D02*
X0287618Y0127177D01*
X0287618Y0125579D02*
X0270118Y0125579D01*
X0270118Y0123980D02*
X0287618Y0123980D01*
X0287618Y0122382D02*
X0270118Y0122382D01*
X0270118Y0120783D02*
X0288185Y0120783D01*
X0289784Y0119184D02*
X0270118Y0119184D01*
X0270118Y0117586D02*
X0291382Y0117586D01*
X0302257Y0107733D02*
X0301433Y0106729D01*
X0300712Y0105650D01*
X0300100Y0104505D01*
X0299603Y0103306D01*
X0299227Y0102064D01*
X0298973Y0100791D01*
X0298861Y0099650D01*
X0323068Y0099650D01*
X0323068Y0098050D01*
X0298861Y0098050D01*
X0298973Y0096909D01*
X0299227Y0095636D01*
X0299603Y0094394D01*
X0300100Y0093195D01*
X0300712Y0092050D01*
X0301433Y0090971D01*
X0302257Y0089967D01*
X0303174Y0089049D01*
X0304178Y0088226D01*
X0305257Y0087505D01*
X0306402Y0086893D01*
X0307601Y0086396D01*
X0308843Y0086019D01*
X0310116Y0085766D01*
X0311408Y0085639D01*
X0323068Y0085639D01*
X0323068Y0098050D01*
X0324668Y0098050D01*
X0324668Y0085639D01*
X0336328Y0085639D01*
X0337620Y0085766D01*
X0338893Y0086019D01*
X0340135Y0086396D01*
X0341334Y0086893D01*
X0342479Y0087505D01*
X0343558Y0088226D01*
X0344562Y0089049D01*
X0345480Y0089967D01*
X0346303Y0090971D01*
X0347024Y0092050D01*
X0347636Y0093195D01*
X0348133Y0094394D01*
X0348510Y0095636D01*
X0348763Y0096909D01*
X0348875Y0098050D01*
X0324668Y0098050D01*
X0324668Y0099650D01*
X0323068Y0099650D01*
X0323068Y0112061D01*
X0311408Y0112061D01*
X0310116Y0111934D01*
X0308843Y0111681D01*
X0307601Y0111304D01*
X0306402Y0110807D01*
X0305257Y0110195D01*
X0304178Y0109474D01*
X0303174Y0108651D01*
X0302257Y0107733D01*
X0302519Y0107995D02*
X0270118Y0107995D01*
X0270118Y0109593D02*
X0304357Y0109593D01*
X0307331Y0111192D02*
X0270118Y0111192D01*
X0270118Y0112790D02*
X0359741Y0112790D01*
X0359741Y0111192D02*
X0340405Y0111192D01*
X0340135Y0111304D02*
X0341334Y0110807D01*
X0342479Y0110195D01*
X0343558Y0109474D01*
X0344562Y0108651D01*
X0345480Y0107733D01*
X0346303Y0106729D01*
X0347024Y0105650D01*
X0347636Y0104505D01*
X0348133Y0103306D01*
X0348510Y0102064D01*
X0348763Y0100791D01*
X0348875Y0099650D01*
X0324668Y0099650D01*
X0324668Y0112061D01*
X0336328Y0112061D01*
X0337620Y0111934D01*
X0338893Y0111681D01*
X0340135Y0111304D01*
X0343380Y0109593D02*
X0359741Y0109593D01*
X0359741Y0107995D02*
X0345217Y0107995D01*
X0346526Y0106396D02*
X0359741Y0106396D01*
X0359741Y0104798D02*
X0347480Y0104798D01*
X0348165Y0103199D02*
X0359741Y0103199D01*
X0359741Y0101601D02*
X0348602Y0101601D01*
X0348841Y0100002D02*
X0359741Y0100002D01*
X0359741Y0098404D02*
X0324668Y0098404D01*
X0324668Y0100002D02*
X0323068Y0100002D01*
X0323068Y0098404D02*
X0270118Y0098404D01*
X0270118Y0100002D02*
X0298896Y0100002D01*
X0299134Y0101601D02*
X0270118Y0101601D01*
X0270118Y0103199D02*
X0299571Y0103199D01*
X0300256Y0104798D02*
X0270118Y0104798D01*
X0270118Y0106396D02*
X0301211Y0106396D01*
X0298994Y0096805D02*
X0270118Y0096805D01*
X0270118Y0095207D02*
X0299357Y0095207D01*
X0299929Y0093608D02*
X0270118Y0093608D01*
X0270118Y0092010D02*
X0300739Y0092010D01*
X0301892Y0090411D02*
X0270118Y0090411D01*
X0270118Y0088813D02*
X0303463Y0088813D01*
X0305801Y0087214D02*
X0270118Y0087214D01*
X0270118Y0085616D02*
X0359741Y0085616D01*
X0359741Y0087214D02*
X0341935Y0087214D01*
X0344273Y0088813D02*
X0359741Y0088813D01*
X0359741Y0090411D02*
X0345844Y0090411D01*
X0346997Y0092010D02*
X0359741Y0092010D01*
X0359741Y0093608D02*
X0347807Y0093608D01*
X0348379Y0095207D02*
X0359741Y0095207D01*
X0359741Y0096805D02*
X0348742Y0096805D01*
X0359741Y0084017D02*
X0270118Y0084017D01*
X0270118Y0082419D02*
X0359741Y0082419D01*
X0359741Y0080820D02*
X0270118Y0080820D01*
X0270118Y0079222D02*
X0359741Y0079222D01*
X0359741Y0077623D02*
X0306480Y0077623D01*
X0306105Y0077998D02*
X0301631Y0077998D01*
X0300631Y0076998D01*
X0297409Y0076998D01*
X0296298Y0078108D01*
X0293909Y0079098D01*
X0291323Y0079098D01*
X0288934Y0078108D01*
X0287616Y0076790D01*
X0286298Y0078108D01*
X0283909Y0079098D01*
X0281323Y0079098D01*
X0278934Y0078108D01*
X0277106Y0076280D01*
X0276116Y0073891D01*
X0276116Y0071305D01*
X0277106Y0068916D01*
X0278934Y0067088D01*
X0281323Y0066098D01*
X0283909Y0066098D01*
X0286298Y0067088D01*
X0287616Y0068406D01*
X0288934Y0067088D01*
X0291323Y0066098D01*
X0293909Y0066098D01*
X0296298Y0067088D01*
X0297409Y0068198D01*
X0300631Y0068198D01*
X0301631Y0067198D01*
X0306105Y0067198D01*
X0309268Y0070361D01*
X0309268Y0074835D01*
X0306105Y0077998D01*
X0308078Y0076025D02*
X0311638Y0076025D01*
X0312211Y0076598D02*
X0309868Y0074255D01*
X0309868Y0072598D01*
X0309868Y0070941D01*
X0312211Y0068598D01*
X0313868Y0068598D01*
X0313868Y0072598D01*
X0309868Y0072598D01*
X0313868Y0072598D01*
X0313868Y0072598D01*
X0313868Y0072598D01*
X0313868Y0076598D01*
X0312211Y0076598D01*
X0313868Y0076598D02*
X0315525Y0076598D01*
X0317868Y0074255D01*
X0317868Y0072598D01*
X0313868Y0072598D01*
X0313868Y0072598D01*
X0313868Y0068598D01*
X0315525Y0068598D01*
X0317868Y0070941D01*
X0317868Y0072598D01*
X0313868Y0072598D01*
X0313868Y0076598D01*
X0313868Y0076025D02*
X0313868Y0076025D01*
X0313868Y0074426D02*
X0313868Y0074426D01*
X0313868Y0072828D02*
X0313868Y0072828D01*
X0313868Y0072598D02*
X0313868Y0072598D01*
X0313868Y0071229D02*
X0313868Y0071229D01*
X0313868Y0069631D02*
X0313868Y0069631D01*
X0311179Y0069631D02*
X0308537Y0069631D01*
X0309268Y0071229D02*
X0309868Y0071229D01*
X0309868Y0072828D02*
X0309268Y0072828D01*
X0309268Y0074426D02*
X0310039Y0074426D01*
X0316098Y0076025D02*
X0346809Y0076025D01*
X0346910Y0076076D02*
X0346195Y0075712D01*
X0345546Y0075240D01*
X0344978Y0074672D01*
X0344506Y0074023D01*
X0344142Y0073308D01*
X0343894Y0072544D01*
X0343768Y0071751D01*
X0343768Y0071550D01*
X0348668Y0071550D01*
X0348668Y0071150D01*
X0343768Y0071150D01*
X0343768Y0070949D01*
X0343894Y0070156D01*
X0344142Y0069392D01*
X0344506Y0068677D01*
X0344978Y0068028D01*
X0345156Y0067850D01*
X0344611Y0067850D01*
X0343582Y0067424D01*
X0342794Y0066636D01*
X0342368Y0065607D01*
X0342368Y0057093D01*
X0342794Y0056064D01*
X0343582Y0055276D01*
X0344611Y0054850D01*
X0353125Y0054850D01*
X0354154Y0055276D01*
X0354942Y0056064D01*
X0355368Y0057093D01*
X0355368Y0065607D01*
X0354942Y0066636D01*
X0354154Y0067424D01*
X0353125Y0067850D01*
X0352581Y0067850D01*
X0352758Y0068028D01*
X0353230Y0068677D01*
X0353594Y0069392D01*
X0353843Y0070156D01*
X0353968Y0070949D01*
X0353968Y0071150D01*
X0349068Y0071150D01*
X0349068Y0071550D01*
X0348668Y0071550D01*
X0348668Y0076450D01*
X0348467Y0076450D01*
X0347674Y0076324D01*
X0346910Y0076076D01*
X0348668Y0076025D02*
X0349068Y0076025D01*
X0349068Y0076450D02*
X0349068Y0071550D01*
X0353968Y0071550D01*
X0353968Y0071751D01*
X0353843Y0072544D01*
X0353594Y0073308D01*
X0353230Y0074023D01*
X0352758Y0074672D01*
X0352191Y0075240D01*
X0351541Y0075712D01*
X0350826Y0076076D01*
X0350062Y0076324D01*
X0349269Y0076450D01*
X0349068Y0076450D01*
X0350927Y0076025D02*
X0359741Y0076025D01*
X0359741Y0074426D02*
X0352937Y0074426D01*
X0353750Y0072828D02*
X0359741Y0072828D01*
X0359741Y0071229D02*
X0349068Y0071229D01*
X0348668Y0071229D02*
X0317868Y0071229D01*
X0317868Y0072828D02*
X0343986Y0072828D01*
X0344799Y0074426D02*
X0317697Y0074426D01*
X0316558Y0069631D02*
X0344064Y0069631D01*
X0344975Y0068032D02*
X0306939Y0068032D01*
X0300797Y0068032D02*
X0297243Y0068032D01*
X0294719Y0066434D02*
X0342711Y0066434D01*
X0342368Y0064835D02*
X0270118Y0064835D01*
X0270118Y0063237D02*
X0342368Y0063237D01*
X0342368Y0061638D02*
X0270118Y0061638D01*
X0270118Y0060040D02*
X0342368Y0060040D01*
X0342368Y0058441D02*
X0270118Y0058441D01*
X0270118Y0056843D02*
X0342472Y0056843D01*
X0343660Y0055244D02*
X0270118Y0055244D01*
X0270118Y0066434D02*
X0280513Y0066434D01*
X0277990Y0068032D02*
X0270118Y0068032D01*
X0270118Y0069631D02*
X0276810Y0069631D01*
X0276148Y0071229D02*
X0270118Y0071229D01*
X0270118Y0072828D02*
X0276116Y0072828D01*
X0276338Y0074426D02*
X0270118Y0074426D01*
X0270118Y0076025D02*
X0277000Y0076025D01*
X0278449Y0077623D02*
X0270118Y0077623D01*
X0286783Y0077623D02*
X0288449Y0077623D01*
X0296783Y0077623D02*
X0301257Y0077623D01*
X0287990Y0068032D02*
X0287243Y0068032D01*
X0284719Y0066434D02*
X0290513Y0066434D01*
X0314505Y0053646D02*
X0359741Y0053646D01*
X0359741Y0055244D02*
X0354076Y0055244D01*
X0355264Y0056843D02*
X0359741Y0056843D01*
X0359741Y0058441D02*
X0355368Y0058441D01*
X0355368Y0060040D02*
X0359741Y0060040D01*
X0359741Y0061638D02*
X0355368Y0061638D01*
X0355368Y0063237D02*
X0359741Y0063237D01*
X0359741Y0064835D02*
X0355368Y0064835D01*
X0355026Y0066434D02*
X0359741Y0066434D01*
X0359741Y0068032D02*
X0352761Y0068032D01*
X0353672Y0069631D02*
X0359741Y0069631D01*
X0349068Y0072828D02*
X0348668Y0072828D01*
X0348668Y0074426D02*
X0349068Y0074426D01*
X0359741Y0052047D02*
X0319094Y0052047D01*
X0321930Y0050449D02*
X0359741Y0050449D01*
X0359741Y0048850D02*
X0323934Y0048850D01*
X0325561Y0047251D02*
X0359741Y0047251D01*
X0324668Y0087214D02*
X0323068Y0087214D01*
X0323068Y0088813D02*
X0324668Y0088813D01*
X0324668Y0090411D02*
X0323068Y0090411D01*
X0323068Y0092010D02*
X0324668Y0092010D01*
X0324668Y0093608D02*
X0323068Y0093608D01*
X0323068Y0095207D02*
X0324668Y0095207D01*
X0324668Y0096805D02*
X0323068Y0096805D01*
X0323068Y0101601D02*
X0324668Y0101601D01*
X0324668Y0103199D02*
X0323068Y0103199D01*
X0323068Y0104798D02*
X0324668Y0104798D01*
X0324668Y0106396D02*
X0323068Y0106396D01*
X0323068Y0107995D02*
X0324668Y0107995D01*
X0324668Y0109593D02*
X0323068Y0109593D01*
X0323068Y0111192D02*
X0324668Y0111192D01*
X0359741Y0114389D02*
X0270118Y0114389D01*
X0270118Y0115987D02*
X0359741Y0115987D01*
X0287618Y0147958D02*
X0203613Y0147958D01*
X0202471Y0149556D02*
X0287618Y0149556D01*
X0287618Y0151155D02*
X0201329Y0151155D01*
X0200187Y0152753D02*
X0287618Y0152753D01*
X0287618Y0154352D02*
X0199045Y0154352D01*
X0197904Y0155950D02*
X0287618Y0155950D01*
X0287618Y0157549D02*
X0019168Y0157549D01*
X0019168Y0159147D02*
X0049087Y0159147D01*
X0049817Y0158845D02*
X0046950Y0160033D01*
X0044756Y0162227D01*
X0043568Y0165094D01*
X0043568Y0168197D01*
X0044756Y0171064D01*
X0046950Y0173258D01*
X0049817Y0174445D01*
X0062920Y0174445D01*
X0065786Y0173258D01*
X0067981Y0171064D01*
X0069168Y0168197D01*
X0069168Y0165094D01*
X0067981Y0162227D01*
X0065786Y0160033D01*
X0062920Y0158845D01*
X0049817Y0158845D01*
X0050117Y0157345D02*
X0049306Y0157128D01*
X0048531Y0156807D01*
X0047805Y0156388D01*
X0047139Y0155877D01*
X0046546Y0155284D01*
X0046035Y0154618D01*
X0045616Y0153891D01*
X0045295Y0153116D01*
X0045078Y0152306D01*
X0044968Y0151474D01*
X0044968Y0151239D01*
X0056184Y0151239D01*
X0056184Y0157455D01*
X0050949Y0157455D01*
X0050117Y0157345D01*
X0047235Y0155950D02*
X0019168Y0155950D01*
X0019168Y0154352D02*
X0045882Y0154352D01*
X0045197Y0152753D02*
X0019168Y0152753D01*
X0019168Y0151155D02*
X0056184Y0151155D01*
X0056184Y0151239D02*
X0056184Y0150870D01*
X0056552Y0150870D01*
X0056552Y0144655D01*
X0061788Y0144655D01*
X0062619Y0144764D01*
X0063430Y0144981D01*
X0064205Y0145302D01*
X0064931Y0145722D01*
X0065597Y0146233D01*
X0066190Y0146826D01*
X0066701Y0147491D01*
X0067120Y0148218D01*
X0067441Y0148993D01*
X0067659Y0149803D01*
X0067768Y0150635D01*
X0067768Y0150870D01*
X0056552Y0150870D01*
X0056552Y0151239D01*
X0056184Y0151239D01*
X0056552Y0151239D02*
X0056552Y0157455D01*
X0061788Y0157455D01*
X0062619Y0157345D01*
X0063430Y0157128D01*
X0064205Y0156807D01*
X0064931Y0156388D01*
X0065597Y0155877D01*
X0066190Y0155284D01*
X0066701Y0154618D01*
X0067120Y0153891D01*
X0067441Y0153116D01*
X0067659Y0152306D01*
X0067768Y0151474D01*
X0067768Y0151239D01*
X0056552Y0151239D01*
X0056552Y0151155D02*
X0073868Y0151155D01*
X0073868Y0152753D02*
X0067539Y0152753D01*
X0066855Y0154352D02*
X0073868Y0154352D01*
X0074718Y0155950D02*
X0065501Y0155950D01*
X0063649Y0159147D02*
X0287380Y0159147D01*
X0286101Y0160746D02*
X0066499Y0160746D01*
X0068029Y0162344D02*
X0284823Y0162344D01*
X0283544Y0163943D02*
X0068691Y0163943D01*
X0069168Y0165541D02*
X0243427Y0165541D01*
X0241828Y0167140D02*
X0172158Y0167140D01*
X0173756Y0168738D02*
X0240799Y0168738D01*
X0239881Y0170337D02*
X0173868Y0170337D01*
X0173868Y0171935D02*
X0238283Y0171935D01*
X0194967Y0173534D02*
X0173868Y0173534D01*
X0173868Y0175132D02*
X0192618Y0175132D01*
X0192618Y0176731D02*
X0173868Y0176731D01*
X0173868Y0178329D02*
X0192618Y0178329D01*
X0192618Y0179928D02*
X0173868Y0179928D01*
X0173868Y0181526D02*
X0176226Y0181526D01*
X0176388Y0181365D02*
X0177051Y0180885D01*
X0177781Y0180515D01*
X0178560Y0180263D01*
X0179369Y0180136D01*
X0183578Y0180144D01*
X0187787Y0180151D01*
X0188595Y0180280D01*
X0189373Y0180535D01*
X0190102Y0180908D01*
X0190763Y0181390D01*
X0191341Y0181970D01*
X0191821Y0182633D01*
X0192191Y0183363D01*
X0192443Y0184141D01*
X0192570Y0184950D01*
X0192569Y0185359D01*
X0183569Y0185344D01*
X0183569Y0185344D01*
X0183560Y0190544D01*
X0179351Y0190536D01*
X0178542Y0190407D01*
X0177764Y0190153D01*
X0177036Y0189780D01*
X0176374Y0189297D01*
X0175797Y0188718D01*
X0175317Y0188055D01*
X0174946Y0187325D01*
X0174695Y0186546D01*
X0174568Y0185737D01*
X0174569Y0185328D01*
X0183569Y0185344D01*
X0183569Y0185344D01*
X0183578Y0180144D01*
X0183569Y0185344D01*
X0183569Y0185344D01*
X0174569Y0185328D01*
X0174570Y0184919D01*
X0174699Y0184111D01*
X0174953Y0183333D01*
X0175326Y0182604D01*
X0175808Y0181943D01*
X0176388Y0181365D01*
X0175060Y0183125D02*
X0173868Y0183125D01*
X0173868Y0184723D02*
X0174601Y0184723D01*
X0174660Y0186322D02*
X0173868Y0186322D01*
X0173868Y0187920D02*
X0175249Y0187920D01*
X0173868Y0189519D02*
X0176678Y0189519D01*
X0174886Y0191118D02*
X0189042Y0191118D01*
X0183562Y0189519D02*
X0183562Y0189519D01*
X0183564Y0187920D02*
X0183564Y0187920D01*
X0183567Y0186322D02*
X0183567Y0186322D01*
X0183570Y0184723D02*
X0183570Y0184723D01*
X0183573Y0183125D02*
X0183573Y0183125D01*
X0183575Y0181526D02*
X0183576Y0181526D01*
X0190899Y0181526D02*
X0192618Y0181526D01*
X0192618Y0183125D02*
X0192071Y0183125D01*
X0192534Y0184723D02*
X0192618Y0184723D01*
X0192618Y0186322D02*
X0192479Y0186322D01*
X0170968Y0155950D02*
X0101668Y0155950D01*
X0102867Y0154352D02*
X0169370Y0154352D01*
X0168868Y0152753D02*
X0104066Y0152753D01*
X0105265Y0151155D02*
X0168868Y0151155D01*
X0168868Y0149556D02*
X0106463Y0149556D01*
X0107662Y0147958D02*
X0168868Y0147958D01*
X0168868Y0146359D02*
X0147693Y0146359D01*
X0150457Y0144761D02*
X0168868Y0144761D01*
X0168868Y0143162D02*
X0151368Y0143162D01*
X0151368Y0141564D02*
X0152321Y0141564D01*
X0159160Y0141564D02*
X0159160Y0141564D01*
X0159158Y0142556D02*
X0159167Y0137356D01*
X0159176Y0132156D01*
X0163386Y0132164D01*
X0164194Y0132293D01*
X0164972Y0132547D01*
X0165700Y0132920D01*
X0166362Y0133403D01*
X0166940Y0133982D01*
X0167420Y0134645D01*
X0167790Y0135375D01*
X0168041Y0136154D01*
X0168168Y0136963D01*
X0168167Y0137372D01*
X0168167Y0137781D01*
X0168037Y0138589D01*
X0167783Y0139367D01*
X0167410Y0140096D01*
X0166928Y0140757D01*
X0166348Y0141335D01*
X0165685Y0141815D01*
X0164955Y0142185D01*
X0164176Y0142437D01*
X0163368Y0142564D01*
X0159158Y0142556D01*
X0159163Y0139965D02*
X0159163Y0139965D01*
X0159166Y0138367D02*
X0159166Y0138367D01*
X0159167Y0137356D02*
X0159167Y0137356D01*
X0159167Y0137356D01*
X0168167Y0137372D01*
X0159167Y0137356D01*
X0159168Y0136768D02*
X0159168Y0136768D01*
X0159171Y0135170D02*
X0159171Y0135170D01*
X0159174Y0133571D02*
X0159174Y0133571D01*
X0151996Y0131973D02*
X0166991Y0131973D01*
X0166530Y0133571D02*
X0168589Y0133571D01*
X0168868Y0135170D02*
X0167685Y0135170D01*
X0168138Y0136768D02*
X0168868Y0136768D01*
X0168868Y0138367D02*
X0168073Y0138367D01*
X0167477Y0139965D02*
X0168868Y0139965D01*
X0168868Y0141564D02*
X0166032Y0141564D01*
X0151792Y0133571D02*
X0151368Y0133571D01*
X0122751Y0146359D02*
X0108861Y0146359D01*
X0098836Y0175132D02*
X0019168Y0175132D01*
X0019168Y0173534D02*
X0047616Y0173534D01*
X0045627Y0171935D02*
X0019168Y0171935D01*
X0019168Y0170337D02*
X0044455Y0170337D01*
X0043792Y0168738D02*
X0019168Y0168738D01*
X0019168Y0167140D02*
X0043568Y0167140D01*
X0043568Y0165541D02*
X0019168Y0165541D01*
X0019168Y0163943D02*
X0044045Y0163943D01*
X0044707Y0162344D02*
X0019168Y0162344D01*
X0019168Y0160746D02*
X0046237Y0160746D01*
X0056184Y0155950D02*
X0056552Y0155950D01*
X0056552Y0154352D02*
X0056184Y0154352D01*
X0056184Y0152753D02*
X0056552Y0152753D01*
X0056184Y0150870D02*
X0044968Y0150870D01*
X0044968Y0150635D01*
X0045078Y0149803D01*
X0045295Y0148993D01*
X0045616Y0148218D01*
X0046035Y0147491D01*
X0046546Y0146826D01*
X0047139Y0146233D01*
X0047805Y0145722D01*
X0048531Y0145302D01*
X0049306Y0144981D01*
X0050117Y0144764D01*
X0050949Y0144655D01*
X0056184Y0144655D01*
X0056184Y0150870D01*
X0056184Y0149556D02*
X0056552Y0149556D01*
X0056552Y0147958D02*
X0056184Y0147958D01*
X0056184Y0146359D02*
X0056552Y0146359D01*
X0056552Y0144761D02*
X0056184Y0144761D01*
X0062592Y0144761D02*
X0073868Y0144761D01*
X0073868Y0146359D02*
X0065724Y0146359D01*
X0066970Y0147958D02*
X0073868Y0147958D01*
X0073868Y0149556D02*
X0067592Y0149556D01*
X0073868Y0143162D02*
X0019168Y0143162D01*
X0019168Y0141564D02*
X0073868Y0141564D01*
X0073868Y0139965D02*
X0019168Y0139965D01*
X0019168Y0138367D02*
X0073868Y0138367D01*
X0073868Y0136768D02*
X0019168Y0136768D01*
X0019168Y0135170D02*
X0073868Y0135170D01*
X0073868Y0133571D02*
X0019168Y0133571D01*
X0019168Y0131973D02*
X0046917Y0131973D01*
X0046950Y0132006D02*
X0044756Y0129812D01*
X0043568Y0126945D01*
X0043568Y0123842D01*
X0044756Y0120975D01*
X0046950Y0118781D01*
X0049817Y0117593D01*
X0062920Y0117593D01*
X0065786Y0118781D01*
X0067981Y0120975D01*
X0069168Y0123842D01*
X0069168Y0126945D01*
X0067981Y0129812D01*
X0065786Y0132006D01*
X0062920Y0133193D01*
X0049817Y0133193D01*
X0046950Y0132006D01*
X0045318Y0130374D02*
X0019168Y0130374D01*
X0019168Y0128776D02*
X0044326Y0128776D01*
X0043664Y0127177D02*
X0019168Y0127177D01*
X0019168Y0125579D02*
X0043568Y0125579D01*
X0043568Y0123980D02*
X0019168Y0123980D01*
X0019168Y0122382D02*
X0044173Y0122382D01*
X0044948Y0120783D02*
X0019168Y0120783D01*
X0019168Y0119184D02*
X0046546Y0119184D01*
X0048531Y0115555D02*
X0049306Y0115876D01*
X0050117Y0116093D01*
X0050949Y0116203D01*
X0056184Y0116203D01*
X0056184Y0109987D01*
X0056552Y0109987D01*
X0056552Y0116203D01*
X0061788Y0116203D01*
X0062619Y0116093D01*
X0063430Y0115876D01*
X0064205Y0115555D01*
X0064931Y0115136D01*
X0065597Y0114625D01*
X0066190Y0114032D01*
X0066701Y0113366D01*
X0067120Y0112639D01*
X0067441Y0111864D01*
X0067659Y0111054D01*
X0067768Y0110222D01*
X0067768Y0109987D01*
X0056552Y0109987D01*
X0056552Y0109618D01*
X0056552Y0103403D01*
X0061788Y0103403D01*
X0062619Y0103512D01*
X0063430Y0103729D01*
X0064205Y0104050D01*
X0064931Y0104470D01*
X0065597Y0104981D01*
X0066190Y0105574D01*
X0066701Y0106239D01*
X0067120Y0106966D01*
X0067441Y0107741D01*
X0067659Y0108551D01*
X0067768Y0109383D01*
X0067768Y0109618D01*
X0056552Y0109618D01*
X0056184Y0109618D01*
X0056184Y0103403D01*
X0050949Y0103403D01*
X0050117Y0103512D01*
X0049306Y0103729D01*
X0048531Y0104050D01*
X0047805Y0104470D01*
X0047139Y0104981D01*
X0046546Y0105574D01*
X0046035Y0106239D01*
X0045616Y0106966D01*
X0045295Y0107741D01*
X0045078Y0108551D01*
X0044968Y0109383D01*
X0044968Y0109618D01*
X0056184Y0109618D01*
X0056184Y0109987D01*
X0044968Y0109987D01*
X0044968Y0110222D01*
X0045078Y0111054D01*
X0045295Y0111864D01*
X0045616Y0112639D01*
X0046035Y0113366D01*
X0046546Y0114032D01*
X0047139Y0114625D01*
X0047805Y0115136D01*
X0048531Y0115555D01*
X0049722Y0115987D02*
X0019168Y0115987D01*
X0019168Y0114389D02*
X0046903Y0114389D01*
X0045703Y0112790D02*
X0019168Y0112790D01*
X0019168Y0111192D02*
X0045115Y0111192D01*
X0044968Y0109593D02*
X0019168Y0109593D01*
X0019168Y0107995D02*
X0045227Y0107995D01*
X0045945Y0106396D02*
X0019168Y0106396D01*
X0019168Y0104798D02*
X0047377Y0104798D01*
X0056184Y0104798D02*
X0056552Y0104798D01*
X0056552Y0106396D02*
X0056184Y0106396D01*
X0056184Y0107995D02*
X0056552Y0107995D01*
X0056552Y0109593D02*
X0056184Y0109593D01*
X0056184Y0111192D02*
X0056552Y0111192D01*
X0056552Y0112790D02*
X0056184Y0112790D01*
X0056184Y0114389D02*
X0056552Y0114389D01*
X0056552Y0115987D02*
X0056184Y0115987D01*
X0063014Y0115987D02*
X0073868Y0115987D01*
X0073868Y0114389D02*
X0065833Y0114389D01*
X0067033Y0112790D02*
X0073868Y0112790D01*
X0073868Y0111192D02*
X0067622Y0111192D01*
X0067768Y0109593D02*
X0073868Y0109593D01*
X0073868Y0107995D02*
X0067509Y0107995D01*
X0066792Y0106396D02*
X0073868Y0106396D01*
X0073868Y0104798D02*
X0065359Y0104798D01*
X0073868Y0103199D02*
X0019168Y0103199D01*
X0019168Y0101601D02*
X0073868Y0101601D01*
X0073868Y0100002D02*
X0019168Y0100002D01*
X0019168Y0098404D02*
X0073868Y0098404D01*
X0073868Y0096805D02*
X0019168Y0096805D01*
X0019168Y0095207D02*
X0073868Y0095207D01*
X0073868Y0093608D02*
X0019168Y0093608D01*
X0019168Y0092010D02*
X0046959Y0092010D01*
X0046950Y0092006D02*
X0044756Y0089812D01*
X0043568Y0086945D01*
X0043568Y0083842D01*
X0044756Y0080975D01*
X0046950Y0078781D01*
X0049817Y0077593D01*
X0062920Y0077593D01*
X0065786Y0078781D01*
X0067981Y0080975D01*
X0069168Y0083842D01*
X0069168Y0086945D01*
X0067981Y0089812D01*
X0065786Y0092006D01*
X0062920Y0093193D01*
X0049817Y0093193D01*
X0046950Y0092006D01*
X0045355Y0090411D02*
X0019168Y0090411D01*
X0019168Y0088813D02*
X0044342Y0088813D01*
X0043680Y0087214D02*
X0019168Y0087214D01*
X0019168Y0085616D02*
X0043568Y0085616D01*
X0043568Y0084017D02*
X0019168Y0084017D01*
X0019168Y0082419D02*
X0044158Y0082419D01*
X0044910Y0080820D02*
X0019168Y0080820D01*
X0019168Y0079222D02*
X0046509Y0079222D01*
X0049744Y0077623D02*
X0019168Y0077623D01*
X0019168Y0076025D02*
X0049861Y0076025D01*
X0050117Y0076093D02*
X0049306Y0075876D01*
X0048531Y0075555D01*
X0047805Y0075136D01*
X0047139Y0074625D01*
X0046546Y0074032D01*
X0046035Y0073366D01*
X0045616Y0072639D01*
X0045295Y0071864D01*
X0045078Y0071054D01*
X0044968Y0070222D01*
X0044968Y0069987D01*
X0056184Y0069987D01*
X0056184Y0076203D01*
X0050949Y0076203D01*
X0050117Y0076093D01*
X0046941Y0074426D02*
X0019168Y0074426D01*
X0019168Y0072828D02*
X0045724Y0072828D01*
X0045125Y0071229D02*
X0019168Y0071229D01*
X0019168Y0069631D02*
X0056184Y0069631D01*
X0056184Y0069618D02*
X0044968Y0069618D01*
X0044968Y0069383D01*
X0045078Y0068551D01*
X0045295Y0067741D01*
X0045616Y0066966D01*
X0046035Y0066239D01*
X0046546Y0065574D01*
X0047139Y0064981D01*
X0047805Y0064470D01*
X0048531Y0064050D01*
X0049306Y0063729D01*
X0050117Y0063512D01*
X0050949Y0063403D01*
X0056184Y0063403D01*
X0056184Y0069618D01*
X0056552Y0069618D01*
X0056552Y0063403D01*
X0061788Y0063403D01*
X0062619Y0063512D01*
X0063430Y0063729D01*
X0064205Y0064050D01*
X0064931Y0064470D01*
X0065597Y0064981D01*
X0066190Y0065574D01*
X0066701Y0066239D01*
X0067120Y0066966D01*
X0067441Y0067741D01*
X0067659Y0068551D01*
X0067768Y0069383D01*
X0067768Y0069618D01*
X0056552Y0069618D01*
X0056552Y0069987D01*
X0056184Y0069987D01*
X0056184Y0069618D01*
X0056552Y0069631D02*
X0073868Y0069631D01*
X0073868Y0071229D02*
X0067612Y0071229D01*
X0067659Y0071054D02*
X0067441Y0071864D01*
X0067120Y0072639D01*
X0066701Y0073366D01*
X0066190Y0074032D01*
X0065597Y0074625D01*
X0064931Y0075136D01*
X0064205Y0075555D01*
X0063430Y0075876D01*
X0062619Y0076093D01*
X0061788Y0076203D01*
X0056552Y0076203D01*
X0056552Y0069987D01*
X0067768Y0069987D01*
X0067768Y0070222D01*
X0067659Y0071054D01*
X0067012Y0072828D02*
X0073868Y0072828D01*
X0073868Y0074426D02*
X0065796Y0074426D01*
X0062875Y0076025D02*
X0073868Y0076025D01*
X0073868Y0077623D02*
X0062992Y0077623D01*
X0066227Y0079222D02*
X0073868Y0079222D01*
X0073868Y0080820D02*
X0067826Y0080820D01*
X0068579Y0082419D02*
X0073868Y0082419D01*
X0073868Y0084017D02*
X0069168Y0084017D01*
X0069168Y0085616D02*
X0073868Y0085616D01*
X0073868Y0087214D02*
X0069056Y0087214D01*
X0068394Y0088813D02*
X0073868Y0088813D01*
X0073868Y0090411D02*
X0067381Y0090411D01*
X0065777Y0092010D02*
X0073868Y0092010D01*
X0056552Y0076025D02*
X0056184Y0076025D01*
X0056184Y0074426D02*
X0056552Y0074426D01*
X0056552Y0072828D02*
X0056184Y0072828D01*
X0056184Y0071229D02*
X0056552Y0071229D01*
X0056552Y0068032D02*
X0056184Y0068032D01*
X0056184Y0066434D02*
X0056552Y0066434D01*
X0056552Y0064835D02*
X0056184Y0064835D01*
X0065407Y0064835D02*
X0073868Y0064835D01*
X0073868Y0063237D02*
X0019168Y0063237D01*
X0019168Y0064835D02*
X0047329Y0064835D01*
X0045923Y0066434D02*
X0019168Y0066434D01*
X0019168Y0068032D02*
X0045217Y0068032D01*
X0066813Y0066434D02*
X0073868Y0066434D01*
X0073868Y0068032D02*
X0067519Y0068032D01*
X0073868Y0061638D02*
X0019168Y0061638D01*
X0019168Y0060040D02*
X0073868Y0060040D01*
X0073868Y0058441D02*
X0019168Y0058441D01*
X0019168Y0056843D02*
X0073868Y0056843D01*
X0073868Y0055244D02*
X0019168Y0055244D01*
X0019168Y0053646D02*
X0064405Y0053646D01*
X0073868Y0117586D02*
X0019168Y0117586D01*
X0019168Y0144761D02*
X0050144Y0144761D01*
X0047013Y0146359D02*
X0019168Y0146359D01*
X0019168Y0147958D02*
X0045766Y0147958D01*
X0045144Y0149556D02*
X0019168Y0149556D01*
X0019168Y0176731D02*
X0097237Y0176731D01*
X0096368Y0178329D02*
X0019168Y0178329D01*
X0019168Y0179928D02*
X0096368Y0179928D01*
X0096368Y0181526D02*
X0095899Y0181526D01*
X0088576Y0181526D02*
X0088575Y0181526D01*
X0088578Y0180144D02*
X0088569Y0185344D01*
X0088560Y0190544D01*
X0084351Y0190536D01*
X0083542Y0190407D01*
X0082764Y0190153D01*
X0082036Y0189780D01*
X0081374Y0189297D01*
X0080797Y0188718D01*
X0080317Y0188055D01*
X0079946Y0187325D01*
X0079695Y0186546D01*
X0079568Y0185737D01*
X0079569Y0185328D01*
X0088569Y0185344D01*
X0088569Y0185344D01*
X0088569Y0185344D01*
X0079569Y0185328D01*
X0079570Y0184919D01*
X0079699Y0184111D01*
X0079953Y0183333D01*
X0080326Y0182604D01*
X0080808Y0181943D01*
X0081388Y0181365D01*
X0082051Y0180885D01*
X0082781Y0180515D01*
X0083560Y0180263D01*
X0084369Y0180136D01*
X0088578Y0180144D01*
X0088573Y0183125D02*
X0088573Y0183125D01*
X0088570Y0184723D02*
X0088570Y0184723D01*
X0088567Y0186322D02*
X0088567Y0186322D01*
X0088564Y0187920D02*
X0088564Y0187920D01*
X0088562Y0189519D02*
X0088562Y0189519D01*
X0081678Y0189519D02*
X0066338Y0189519D01*
X0066190Y0189326D02*
X0066701Y0189991D01*
X0067120Y0190718D01*
X0067441Y0191493D01*
X0067659Y0192303D01*
X0067768Y0193135D01*
X0067768Y0193370D01*
X0056552Y0193370D01*
X0056552Y0187155D01*
X0061788Y0187155D01*
X0062619Y0187264D01*
X0063430Y0187481D01*
X0064205Y0187802D01*
X0064931Y0188222D01*
X0065597Y0188733D01*
X0066190Y0189326D01*
X0067286Y0191118D02*
X0095351Y0191118D01*
X0095478Y0189519D02*
X0096368Y0189519D01*
X0080249Y0187920D02*
X0064409Y0187920D01*
X0067713Y0192716D02*
X0076252Y0192716D01*
X0074654Y0194315D02*
X0067723Y0194315D01*
X0067768Y0193974D02*
X0067659Y0194806D01*
X0067441Y0195616D01*
X0067120Y0196391D01*
X0066701Y0197118D01*
X0066190Y0197784D01*
X0065597Y0198377D01*
X0064931Y0198888D01*
X0064205Y0199307D01*
X0063430Y0199628D01*
X0062619Y0199845D01*
X0061788Y0199955D01*
X0056552Y0199955D01*
X0056552Y0193739D01*
X0056184Y0193739D01*
X0056184Y0199955D01*
X0050949Y0199955D01*
X0050117Y0199845D01*
X0049306Y0199628D01*
X0048531Y0199307D01*
X0047805Y0198888D01*
X0047139Y0198377D01*
X0046546Y0197784D01*
X0046035Y0197118D01*
X0045616Y0196391D01*
X0045295Y0195616D01*
X0045078Y0194806D01*
X0044968Y0193974D01*
X0044968Y0193739D01*
X0056184Y0193739D01*
X0056184Y0193370D01*
X0056552Y0193370D01*
X0056552Y0193739D01*
X0067768Y0193739D01*
X0067768Y0193974D01*
X0067319Y0195913D02*
X0073055Y0195913D01*
X0072618Y0197512D02*
X0066399Y0197512D01*
X0064546Y0199110D02*
X0072618Y0199110D01*
X0072618Y0200709D02*
X0019168Y0200709D01*
X0019168Y0202307D02*
X0047495Y0202307D01*
X0046950Y0202533D02*
X0044756Y0204727D01*
X0043568Y0207594D01*
X0043568Y0210697D01*
X0044756Y0213564D01*
X0046950Y0215758D01*
X0049817Y0216945D01*
X0062920Y0216945D01*
X0065786Y0215758D01*
X0067981Y0213564D01*
X0069168Y0210697D01*
X0069168Y0207594D01*
X0067981Y0204727D01*
X0065786Y0202533D01*
X0062920Y0201345D01*
X0049817Y0201345D01*
X0046950Y0202533D01*
X0045577Y0203906D02*
X0019168Y0203906D01*
X0019168Y0205504D02*
X0044434Y0205504D01*
X0043772Y0207103D02*
X0019168Y0207103D01*
X0019168Y0208701D02*
X0043568Y0208701D01*
X0043568Y0210300D02*
X0019168Y0210300D01*
X0019168Y0211898D02*
X0044066Y0211898D01*
X0044728Y0213497D02*
X0019168Y0213497D01*
X0019168Y0215095D02*
X0046287Y0215095D01*
X0049209Y0216694D02*
X0019168Y0216694D01*
X0019168Y0218292D02*
X0072618Y0218292D01*
X0072618Y0216694D02*
X0063527Y0216694D01*
X0066449Y0215095D02*
X0072618Y0215095D01*
X0072618Y0213497D02*
X0068008Y0213497D01*
X0068670Y0211898D02*
X0072618Y0211898D01*
X0072618Y0210300D02*
X0069168Y0210300D01*
X0069168Y0208701D02*
X0072618Y0208701D01*
X0072618Y0207103D02*
X0068965Y0207103D01*
X0068303Y0205504D02*
X0072618Y0205504D01*
X0072618Y0203906D02*
X0067159Y0203906D01*
X0065242Y0202307D02*
X0072618Y0202307D01*
X0056552Y0199110D02*
X0056184Y0199110D01*
X0056184Y0197512D02*
X0056552Y0197512D01*
X0056552Y0195913D02*
X0056184Y0195913D01*
X0056184Y0194315D02*
X0056552Y0194315D01*
X0056184Y0193370D02*
X0044968Y0193370D01*
X0044968Y0193135D01*
X0045078Y0192303D01*
X0045295Y0191493D01*
X0045616Y0190718D01*
X0046035Y0189991D01*
X0046546Y0189326D01*
X0047139Y0188733D01*
X0047805Y0188222D01*
X0048531Y0187802D01*
X0049306Y0187481D01*
X0050117Y0187264D01*
X0050949Y0187155D01*
X0056184Y0187155D01*
X0056184Y0193370D01*
X0056184Y0192716D02*
X0056552Y0192716D01*
X0056552Y0191118D02*
X0056184Y0191118D01*
X0056184Y0189519D02*
X0056552Y0189519D01*
X0056552Y0187920D02*
X0056184Y0187920D01*
X0048327Y0187920D02*
X0019168Y0187920D01*
X0019168Y0186322D02*
X0079660Y0186322D01*
X0079601Y0184723D02*
X0019168Y0184723D01*
X0019168Y0183125D02*
X0080060Y0183125D01*
X0081226Y0181526D02*
X0019168Y0181526D01*
X0019168Y0189519D02*
X0046398Y0189519D01*
X0045450Y0191118D02*
X0019168Y0191118D01*
X0019168Y0192716D02*
X0045023Y0192716D01*
X0045013Y0194315D02*
X0019168Y0194315D01*
X0019168Y0195913D02*
X0045418Y0195913D01*
X0046337Y0197512D02*
X0019168Y0197512D01*
X0019168Y0199110D02*
X0048190Y0199110D01*
X0072618Y0219891D02*
X0019168Y0219891D01*
X0019168Y0221489D02*
X0072618Y0221489D01*
X0072618Y0223088D02*
X0019168Y0223088D01*
X0019168Y0224686D02*
X0072618Y0224686D01*
X0072618Y0226285D02*
X0019168Y0226285D01*
X0019168Y0227883D02*
X0072618Y0227883D01*
X0072618Y0229482D02*
X0019168Y0229482D01*
X0019168Y0231080D02*
X0047338Y0231080D01*
X0047139Y0231233D02*
X0047805Y0230722D01*
X0048531Y0230302D01*
X0049306Y0229981D01*
X0050117Y0229764D01*
X0050949Y0229655D01*
X0056184Y0229655D01*
X0056184Y0235870D01*
X0056552Y0235870D01*
X0056552Y0229655D01*
X0061788Y0229655D01*
X0062619Y0229764D01*
X0063430Y0229981D01*
X0064205Y0230302D01*
X0064931Y0230722D01*
X0065597Y0231233D01*
X0066190Y0231826D01*
X0066701Y0232491D01*
X0067120Y0233218D01*
X0067441Y0233993D01*
X0067659Y0234803D01*
X0067768Y0235635D01*
X0067768Y0235870D01*
X0056552Y0235870D01*
X0056552Y0236239D01*
X0056184Y0236239D01*
X0056184Y0242455D01*
X0050949Y0242455D01*
X0050117Y0242345D01*
X0049306Y0242128D01*
X0048531Y0241807D01*
X0047805Y0241388D01*
X0047139Y0240877D01*
X0046546Y0240284D01*
X0046035Y0239618D01*
X0045616Y0238891D01*
X0045295Y0238116D01*
X0045078Y0237306D01*
X0044968Y0236474D01*
X0044968Y0236239D01*
X0056184Y0236239D01*
X0056184Y0235870D01*
X0044968Y0235870D01*
X0044968Y0235635D01*
X0045078Y0234803D01*
X0045295Y0233993D01*
X0045616Y0233218D01*
X0046035Y0232491D01*
X0046546Y0231826D01*
X0047139Y0231233D01*
X0045927Y0232679D02*
X0019168Y0232679D01*
X0019168Y0234277D02*
X0045219Y0234277D01*
X0045123Y0237474D02*
X0019168Y0237474D01*
X0019168Y0235876D02*
X0056184Y0235876D01*
X0056552Y0235876D02*
X0072618Y0235876D01*
X0072618Y0237474D02*
X0067613Y0237474D01*
X0067659Y0237306D02*
X0067441Y0238116D01*
X0067120Y0238891D01*
X0066701Y0239618D01*
X0066190Y0240284D01*
X0065597Y0240877D01*
X0064931Y0241388D01*
X0064205Y0241807D01*
X0063430Y0242128D01*
X0062619Y0242345D01*
X0061788Y0242455D01*
X0056552Y0242455D01*
X0056552Y0236239D01*
X0067768Y0236239D01*
X0067768Y0236474D01*
X0067659Y0237306D01*
X0067016Y0239073D02*
X0072618Y0239073D01*
X0072618Y0240671D02*
X0065802Y0240671D01*
X0062901Y0242270D02*
X0072618Y0242270D01*
X0072618Y0243868D02*
X0062975Y0243868D01*
X0062920Y0243845D02*
X0065786Y0245033D01*
X0067981Y0247227D01*
X0069168Y0250094D01*
X0069168Y0253197D01*
X0067981Y0256064D01*
X0065786Y0258258D01*
X0062920Y0259445D01*
X0049817Y0259445D01*
X0046950Y0258258D01*
X0044756Y0256064D01*
X0043568Y0253197D01*
X0043568Y0250094D01*
X0044756Y0247227D01*
X0046950Y0245033D01*
X0049817Y0243845D01*
X0062920Y0243845D01*
X0066221Y0245467D02*
X0072618Y0245467D01*
X0072618Y0247065D02*
X0067819Y0247065D01*
X0068576Y0248664D02*
X0072618Y0248664D01*
X0072618Y0250262D02*
X0069168Y0250262D01*
X0069168Y0251861D02*
X0072618Y0251861D01*
X0072618Y0253459D02*
X0069059Y0253459D01*
X0068397Y0255058D02*
X0072618Y0255058D01*
X0072618Y0256656D02*
X0067388Y0256656D01*
X0065789Y0258255D02*
X0072618Y0258255D01*
X0072618Y0259853D02*
X0019168Y0259853D01*
X0019168Y0258255D02*
X0046947Y0258255D01*
X0045348Y0256656D02*
X0019168Y0256656D01*
X0019168Y0255058D02*
X0044339Y0255058D01*
X0043677Y0253459D02*
X0019168Y0253459D01*
X0019168Y0251861D02*
X0043568Y0251861D01*
X0043568Y0250262D02*
X0019168Y0250262D01*
X0019168Y0248664D02*
X0044160Y0248664D01*
X0044917Y0247065D02*
X0019168Y0247065D01*
X0019168Y0245467D02*
X0046516Y0245467D01*
X0049761Y0243868D02*
X0019168Y0243868D01*
X0019168Y0242270D02*
X0049836Y0242270D01*
X0046934Y0240671D02*
X0019168Y0240671D01*
X0019168Y0239073D02*
X0045721Y0239073D01*
X0056184Y0239073D02*
X0056552Y0239073D01*
X0056552Y0240671D02*
X0056184Y0240671D01*
X0056184Y0242270D02*
X0056552Y0242270D01*
X0056552Y0237474D02*
X0056184Y0237474D01*
X0056184Y0234277D02*
X0056552Y0234277D01*
X0056552Y0232679D02*
X0056184Y0232679D01*
X0056184Y0231080D02*
X0056552Y0231080D01*
X0065398Y0231080D02*
X0072618Y0231080D01*
X0072618Y0232679D02*
X0066809Y0232679D01*
X0067518Y0234277D02*
X0072618Y0234277D01*
X0072618Y0261452D02*
X0019168Y0261452D01*
X0019168Y0263051D02*
X0072618Y0263051D01*
X0072618Y0264649D02*
X0019168Y0264649D01*
X0019168Y0266248D02*
X0072618Y0266248D01*
X0064007Y0267846D02*
X0019168Y0267846D01*
X0019168Y0269445D02*
X0059627Y0269445D01*
X0065120Y0173534D02*
X0143401Y0173534D01*
X0143868Y0171935D02*
X0067109Y0171935D01*
X0068282Y0170337D02*
X0143868Y0170337D01*
X0143924Y0168738D02*
X0068944Y0168738D01*
X0069168Y0167140D02*
X0144723Y0167140D01*
X0073868Y0131973D02*
X0065820Y0131973D01*
X0067418Y0130374D02*
X0073868Y0130374D01*
X0073868Y0128776D02*
X0068410Y0128776D01*
X0069072Y0127177D02*
X0073868Y0127177D01*
X0073868Y0125579D02*
X0069168Y0125579D01*
X0069168Y0123980D02*
X0073868Y0123980D01*
X0073868Y0122382D02*
X0068563Y0122382D01*
X0067789Y0120783D02*
X0073868Y0120783D01*
X0073868Y0119184D02*
X0066190Y0119184D01*
D25*
X0271368Y0171350D02*
X0271368Y0225100D01*
X0358941Y0225100D01*
X0358941Y0123850D01*
X0297618Y0123850D01*
X0293868Y0127600D01*
X0293868Y0162600D01*
X0285118Y0171350D01*
X0271368Y0171350D01*
X0271368Y0173592D02*
X0341703Y0173592D01*
X0341568Y0173266D02*
X0342116Y0174589D01*
X0343129Y0175602D01*
X0343767Y0175866D01*
X0343400Y0176585D01*
X0343113Y0177468D01*
X0342968Y0178386D01*
X0342968Y0178850D01*
X0348868Y0178850D01*
X0348868Y0178850D01*
X0342968Y0178850D01*
X0342968Y0179314D01*
X0343113Y0180232D01*
X0343400Y0181115D01*
X0343822Y0181942D01*
X0344368Y0182694D01*
X0345025Y0183350D01*
X0345776Y0183896D01*
X0346603Y0184318D01*
X0347487Y0184605D01*
X0348404Y0184750D01*
X0348868Y0184750D01*
X0348868Y0178850D01*
X0348868Y0178850D01*
X0348868Y0184750D01*
X0349332Y0184750D01*
X0350250Y0184605D01*
X0351133Y0184318D01*
X0351960Y0183896D01*
X0352712Y0183350D01*
X0353368Y0182694D01*
X0353914Y0181942D01*
X0354336Y0181115D01*
X0354623Y0180232D01*
X0354768Y0179314D01*
X0354768Y0178850D01*
X0348868Y0178850D01*
X0348868Y0178850D01*
X0354768Y0178850D01*
X0354768Y0178386D01*
X0354623Y0177468D01*
X0354336Y0176585D01*
X0353969Y0175866D01*
X0354607Y0175602D01*
X0355620Y0174589D01*
X0356168Y0173266D01*
X0356168Y0164434D01*
X0355620Y0163111D01*
X0354607Y0162098D01*
X0353284Y0161550D01*
X0344452Y0161550D01*
X0343129Y0162098D01*
X0342116Y0163111D01*
X0341568Y0164434D01*
X0341568Y0173266D01*
X0341568Y0170393D02*
X0286075Y0170393D01*
X0289273Y0167195D02*
X0341568Y0167195D01*
X0341749Y0163996D02*
X0292472Y0163996D01*
X0293868Y0160798D02*
X0358941Y0160798D01*
X0358941Y0163996D02*
X0355987Y0163996D01*
X0356168Y0167195D02*
X0358941Y0167195D01*
X0358941Y0170393D02*
X0356168Y0170393D01*
X0356033Y0173592D02*
X0358941Y0173592D01*
X0358941Y0176790D02*
X0354403Y0176790D01*
X0354661Y0179989D02*
X0358941Y0179989D01*
X0358941Y0183187D02*
X0352874Y0183187D01*
X0348868Y0183187D02*
X0348868Y0183187D01*
X0348868Y0179989D02*
X0348868Y0179989D01*
X0344862Y0183187D02*
X0288477Y0183187D01*
X0288668Y0183650D02*
X0288668Y0186554D01*
X0287557Y0189237D01*
X0286692Y0190102D01*
X0287557Y0190967D01*
X0288668Y0193650D01*
X0288668Y0196554D01*
X0287557Y0199237D01*
X0286568Y0200226D01*
X0286568Y0206534D01*
X0287358Y0207324D01*
X0289380Y0205302D01*
X0291368Y0205302D01*
X0291368Y0210102D01*
X0291368Y0214902D01*
X0289380Y0214902D01*
X0287358Y0212880D01*
X0283936Y0216302D01*
X0278800Y0216302D01*
X0275168Y0212670D01*
X0275168Y0207534D01*
X0276168Y0206534D01*
X0276168Y0200226D01*
X0275179Y0199237D01*
X0274068Y0196554D01*
X0274068Y0193650D01*
X0275179Y0190967D01*
X0276044Y0190102D01*
X0275179Y0189237D01*
X0274068Y0186554D01*
X0274068Y0183650D01*
X0275179Y0180967D01*
X0277233Y0178913D01*
X0279916Y0177802D01*
X0282820Y0177802D01*
X0285503Y0178913D01*
X0287557Y0180967D01*
X0288668Y0183650D01*
X0288668Y0186386D02*
X0358941Y0186386D01*
X0358941Y0189584D02*
X0287209Y0189584D01*
X0288309Y0192783D02*
X0305382Y0192783D01*
X0304845Y0193070D02*
X0306059Y0192421D01*
X0307331Y0191894D01*
X0308649Y0191494D01*
X0309999Y0191226D01*
X0311369Y0191091D01*
X0322515Y0191091D01*
X0322515Y0203749D01*
X0298112Y0203749D01*
X0298181Y0203044D01*
X0298450Y0201693D01*
X0298849Y0200376D01*
X0299376Y0199104D01*
X0300025Y0197890D01*
X0300790Y0196746D01*
X0301663Y0195681D01*
X0302637Y0194708D01*
X0303701Y0193835D01*
X0304845Y0193070D01*
X0301417Y0195982D02*
X0288668Y0195982D01*
X0287580Y0199180D02*
X0299345Y0199180D01*
X0298313Y0202379D02*
X0286568Y0202379D01*
X0286568Y0205577D02*
X0289105Y0205577D01*
X0291368Y0205577D02*
X0291368Y0205577D01*
X0291368Y0205302D02*
X0293356Y0205302D01*
X0296168Y0208114D01*
X0296168Y0210102D01*
X0296168Y0212090D01*
X0293356Y0214902D01*
X0291368Y0214902D01*
X0291368Y0210102D01*
X0291368Y0210102D01*
X0291368Y0210102D01*
X0296168Y0210102D01*
X0291368Y0210102D01*
X0291368Y0210102D01*
X0291368Y0205302D01*
X0293631Y0205577D02*
X0322515Y0205577D01*
X0322515Y0206455D02*
X0322515Y0203749D01*
X0325221Y0203749D01*
X0325221Y0191091D01*
X0336367Y0191091D01*
X0337737Y0191226D01*
X0339088Y0191494D01*
X0340405Y0191894D01*
X0341677Y0192421D01*
X0342891Y0193070D01*
X0344036Y0193835D01*
X0345100Y0194708D01*
X0346073Y0195681D01*
X0346946Y0196746D01*
X0347711Y0197890D01*
X0348360Y0199104D01*
X0348887Y0200376D01*
X0349287Y0201693D01*
X0349555Y0203044D01*
X0349625Y0203749D01*
X0325221Y0203749D01*
X0325221Y0206455D01*
X0322515Y0206455D01*
X0322515Y0219113D01*
X0311369Y0219113D01*
X0309999Y0218978D01*
X0308649Y0218709D01*
X0307331Y0218310D01*
X0306059Y0217783D01*
X0304845Y0217134D01*
X0303701Y0216369D01*
X0302637Y0215496D01*
X0301663Y0214523D01*
X0300790Y0213458D01*
X0300025Y0212314D01*
X0299376Y0211100D01*
X0298849Y0209828D01*
X0298450Y0208510D01*
X0298181Y0207160D01*
X0298112Y0206455D01*
X0322515Y0206455D01*
X0322515Y0208776D02*
X0325221Y0208776D01*
X0325221Y0206455D02*
X0325221Y0219113D01*
X0336367Y0219113D01*
X0337737Y0218978D01*
X0339088Y0218709D01*
X0340405Y0218310D01*
X0341677Y0217783D01*
X0342891Y0217134D01*
X0344036Y0216369D01*
X0345100Y0215496D01*
X0346073Y0214523D01*
X0346946Y0213458D01*
X0347711Y0212314D01*
X0348360Y0211100D01*
X0348887Y0209828D01*
X0349287Y0208510D01*
X0349555Y0207160D01*
X0349625Y0206455D01*
X0325221Y0206455D01*
X0325221Y0205577D02*
X0358941Y0205577D01*
X0358941Y0202379D02*
X0349423Y0202379D01*
X0348392Y0199180D02*
X0358941Y0199180D01*
X0358941Y0195982D02*
X0346319Y0195982D01*
X0342354Y0192783D02*
X0358941Y0192783D01*
X0343075Y0179989D02*
X0286579Y0179989D01*
X0276157Y0179989D02*
X0271368Y0179989D01*
X0271368Y0183187D02*
X0274260Y0183187D01*
X0274068Y0186386D02*
X0271368Y0186386D01*
X0271368Y0189584D02*
X0275527Y0189584D01*
X0274427Y0192783D02*
X0271368Y0192783D01*
X0271368Y0195982D02*
X0274068Y0195982D01*
X0275156Y0199180D02*
X0271368Y0199180D01*
X0271368Y0202379D02*
X0276168Y0202379D01*
X0276168Y0205577D02*
X0271368Y0205577D01*
X0271368Y0208776D02*
X0275168Y0208776D01*
X0275168Y0211974D02*
X0271368Y0211974D01*
X0271368Y0215173D02*
X0277671Y0215173D01*
X0281368Y0210102D02*
X0281368Y0195102D01*
X0291368Y0208776D02*
X0291368Y0208776D01*
X0291368Y0211974D02*
X0291368Y0211974D01*
X0285066Y0215173D02*
X0302313Y0215173D01*
X0299843Y0211974D02*
X0296168Y0211974D01*
X0296168Y0208776D02*
X0298530Y0208776D01*
X0307533Y0218371D02*
X0271368Y0218371D01*
X0271368Y0221570D02*
X0358941Y0221570D01*
X0358941Y0224768D02*
X0271368Y0224768D01*
X0322515Y0218371D02*
X0325221Y0218371D01*
X0325221Y0215173D02*
X0322515Y0215173D01*
X0322515Y0211974D02*
X0325221Y0211974D01*
X0325221Y0202379D02*
X0322515Y0202379D01*
X0322515Y0199180D02*
X0325221Y0199180D01*
X0325221Y0195982D02*
X0322515Y0195982D01*
X0322515Y0192783D02*
X0325221Y0192783D01*
X0343334Y0176790D02*
X0271368Y0176790D01*
X0293868Y0157599D02*
X0309362Y0157599D01*
X0309999Y0157726D02*
X0308649Y0157458D01*
X0307331Y0157058D01*
X0306059Y0156531D01*
X0304845Y0155882D01*
X0303701Y0155117D01*
X0302637Y0154244D01*
X0301663Y0153271D01*
X0300790Y0152206D01*
X0300025Y0151062D01*
X0299376Y0149848D01*
X0298849Y0148576D01*
X0298450Y0147259D01*
X0298181Y0145908D01*
X0298112Y0145203D01*
X0322515Y0145203D01*
X0322515Y0142497D01*
X0298112Y0142497D01*
X0298181Y0141792D01*
X0298450Y0140441D01*
X0298849Y0139124D01*
X0299376Y0137852D01*
X0300025Y0136638D01*
X0300790Y0135494D01*
X0301663Y0134429D01*
X0302637Y0133456D01*
X0303701Y0132583D01*
X0304845Y0131818D01*
X0306059Y0131169D01*
X0307331Y0130642D01*
X0308649Y0130242D01*
X0309999Y0129974D01*
X0311369Y0129839D01*
X0322515Y0129839D01*
X0322515Y0142497D01*
X0325221Y0142497D01*
X0325221Y0129839D01*
X0336367Y0129839D01*
X0337737Y0129974D01*
X0339088Y0130242D01*
X0340405Y0130642D01*
X0341677Y0131169D01*
X0342891Y0131818D01*
X0344036Y0132583D01*
X0345100Y0133456D01*
X0346073Y0134429D01*
X0346946Y0135494D01*
X0347711Y0136638D01*
X0348360Y0137852D01*
X0348887Y0139124D01*
X0349287Y0140441D01*
X0349555Y0141792D01*
X0349625Y0142497D01*
X0325221Y0142497D01*
X0325221Y0145203D01*
X0322515Y0145203D01*
X0322515Y0157861D01*
X0311369Y0157861D01*
X0309999Y0157726D01*
X0302828Y0154401D02*
X0293868Y0154401D01*
X0293868Y0151202D02*
X0300119Y0151202D01*
X0298676Y0148004D02*
X0293868Y0148004D01*
X0293868Y0144805D02*
X0322515Y0144805D01*
X0325221Y0144805D02*
X0358941Y0144805D01*
X0358941Y0141607D02*
X0349518Y0141607D01*
X0348591Y0138408D02*
X0358941Y0138408D01*
X0358941Y0135210D02*
X0346714Y0135210D01*
X0343180Y0132011D02*
X0358941Y0132011D01*
X0358941Y0128813D02*
X0293868Y0128813D01*
X0293868Y0132011D02*
X0304556Y0132011D01*
X0301023Y0135210D02*
X0293868Y0135210D01*
X0293868Y0138408D02*
X0299146Y0138408D01*
X0298218Y0141607D02*
X0293868Y0141607D01*
X0295854Y0125614D02*
X0358941Y0125614D01*
X0349625Y0145203D02*
X0349555Y0145908D01*
X0349287Y0147259D01*
X0348887Y0148576D01*
X0348360Y0149848D01*
X0347711Y0151062D01*
X0346946Y0152206D01*
X0346073Y0153271D01*
X0345100Y0154244D01*
X0344036Y0155117D01*
X0342891Y0155882D01*
X0341677Y0156531D01*
X0340405Y0157058D01*
X0339088Y0157458D01*
X0337737Y0157726D01*
X0336367Y0157861D01*
X0325221Y0157861D01*
X0325221Y0145203D01*
X0349625Y0145203D01*
X0349061Y0148004D02*
X0358941Y0148004D01*
X0358941Y0151202D02*
X0347617Y0151202D01*
X0344909Y0154401D02*
X0358941Y0154401D01*
X0358941Y0157599D02*
X0338374Y0157599D01*
X0325221Y0157599D02*
X0322515Y0157599D01*
X0322515Y0154401D02*
X0325221Y0154401D01*
X0325221Y0151202D02*
X0322515Y0151202D01*
X0322515Y0148004D02*
X0325221Y0148004D01*
X0325221Y0141607D02*
X0322515Y0141607D01*
X0322515Y0138408D02*
X0325221Y0138408D01*
X0325221Y0135210D02*
X0322515Y0135210D01*
X0322515Y0132011D02*
X0325221Y0132011D01*
X0303868Y0072598D02*
X0292616Y0072598D01*
X0349206Y0208776D02*
X0358941Y0208776D01*
X0358941Y0211974D02*
X0347893Y0211974D01*
X0345423Y0215173D02*
X0358941Y0215173D01*
X0358941Y0218371D02*
X0340203Y0218371D01*
M02*
