%
M48
M72
T01C0.01378
T02C0.03150
T03C0.03200
T04C0.03937
T05C0.04000
T06C0.12598
%
T01
X189300Y84300
X179300Y80300
T02
X209300Y48300
X199300Y48300
X189300Y48300
X179300Y48300
X169300Y48300
X159300Y48300
X149300Y48300
X139300Y48300
X119300Y48300
X109300Y48300
X99300Y48300
X89300Y48300
X79300Y48300
X69300Y48300
X59300Y48300
X49300Y48300
X49300Y98300
X59300Y98300
X69300Y98300
X79300Y98300
X89300Y98300
X99300Y98300
X109300Y98300
X119300Y98300
X139300Y98300
X149300Y98300
X159300Y98300
X169300Y98300
X179300Y98300
X189300Y98300
X199300Y98300
X209300Y98300
T03
X216300Y23300
X202300Y23300
X199300Y120800
X209300Y120800
X219300Y120800
X184300Y128300
X174300Y128300
X164300Y128300
X150800Y131800
X140800Y131800
X130300Y131800
X120300Y131800
X164300Y158300
X174300Y158300
X184300Y158300
X199300Y160800
X209300Y160800
X219300Y160800
X117300Y23300
X131300Y23300
X29300Y83300
X29300Y93300
X14300Y93300
X14300Y83300
T04
X14005Y63300
X29595Y63300
T05
X184300Y28300
X174300Y28300
X164300Y28300
X154300Y28300
X99300Y28300
X89300Y28300
X79300Y28300
X69300Y28300
X44300Y138300
X54300Y138300
X64300Y138300
X74300Y138300
X84300Y138300
X84300Y148300
X74300Y148300
X64300Y148300
X54300Y148300
X44300Y148300
X134300Y153300
X144300Y153300
T06
X206780Y69280
X116780Y149280
X21780Y114280
X49300Y26800
M30
