G75*
%MOIN*%
%OFA0B0*%
%FSLAX25Y25*%
%IPPOS*%
%LPD*%
%AMOC8*
5,1,8,0,0,1.08239X$1,22.5*
%
%ADD10C,0.00000*%
%ADD11C,0.01000*%
%ADD12C,0.07400*%
%ADD13R,0.07400X0.07400*%
%ADD14C,0.10000*%
%ADD15OC8,0.05200*%
%ADD16R,0.07000X0.07000*%
%ADD17C,0.07000*%
%ADD18OC8,0.06300*%
%ADD19C,0.06300*%
%ADD20C,0.05200*%
%ADD21C,0.05000*%
%ADD22C,0.01600*%
%ADD23C,0.02000*%
%ADD24C,0.02978*%
D10*
X0043001Y0026800D02*
X0043003Y0026958D01*
X0043009Y0027116D01*
X0043019Y0027274D01*
X0043033Y0027432D01*
X0043051Y0027589D01*
X0043072Y0027746D01*
X0043098Y0027902D01*
X0043128Y0028058D01*
X0043161Y0028213D01*
X0043199Y0028366D01*
X0043240Y0028519D01*
X0043285Y0028671D01*
X0043334Y0028822D01*
X0043387Y0028971D01*
X0043443Y0029119D01*
X0043503Y0029265D01*
X0043567Y0029410D01*
X0043635Y0029553D01*
X0043706Y0029695D01*
X0043780Y0029835D01*
X0043858Y0029972D01*
X0043940Y0030108D01*
X0044024Y0030242D01*
X0044113Y0030373D01*
X0044204Y0030502D01*
X0044299Y0030629D01*
X0044396Y0030754D01*
X0044497Y0030876D01*
X0044601Y0030995D01*
X0044708Y0031112D01*
X0044818Y0031226D01*
X0044931Y0031337D01*
X0045046Y0031446D01*
X0045164Y0031551D01*
X0045285Y0031653D01*
X0045408Y0031753D01*
X0045534Y0031849D01*
X0045662Y0031942D01*
X0045792Y0032032D01*
X0045925Y0032118D01*
X0046060Y0032202D01*
X0046196Y0032281D01*
X0046335Y0032358D01*
X0046476Y0032430D01*
X0046618Y0032500D01*
X0046762Y0032565D01*
X0046908Y0032627D01*
X0047055Y0032685D01*
X0047204Y0032740D01*
X0047354Y0032791D01*
X0047505Y0032838D01*
X0047657Y0032881D01*
X0047810Y0032920D01*
X0047965Y0032956D01*
X0048120Y0032987D01*
X0048276Y0033015D01*
X0048432Y0033039D01*
X0048589Y0033059D01*
X0048747Y0033075D01*
X0048904Y0033087D01*
X0049063Y0033095D01*
X0049221Y0033099D01*
X0049379Y0033099D01*
X0049537Y0033095D01*
X0049696Y0033087D01*
X0049853Y0033075D01*
X0050011Y0033059D01*
X0050168Y0033039D01*
X0050324Y0033015D01*
X0050480Y0032987D01*
X0050635Y0032956D01*
X0050790Y0032920D01*
X0050943Y0032881D01*
X0051095Y0032838D01*
X0051246Y0032791D01*
X0051396Y0032740D01*
X0051545Y0032685D01*
X0051692Y0032627D01*
X0051838Y0032565D01*
X0051982Y0032500D01*
X0052124Y0032430D01*
X0052265Y0032358D01*
X0052404Y0032281D01*
X0052540Y0032202D01*
X0052675Y0032118D01*
X0052808Y0032032D01*
X0052938Y0031942D01*
X0053066Y0031849D01*
X0053192Y0031753D01*
X0053315Y0031653D01*
X0053436Y0031551D01*
X0053554Y0031446D01*
X0053669Y0031337D01*
X0053782Y0031226D01*
X0053892Y0031112D01*
X0053999Y0030995D01*
X0054103Y0030876D01*
X0054204Y0030754D01*
X0054301Y0030629D01*
X0054396Y0030502D01*
X0054487Y0030373D01*
X0054576Y0030242D01*
X0054660Y0030108D01*
X0054742Y0029972D01*
X0054820Y0029835D01*
X0054894Y0029695D01*
X0054965Y0029553D01*
X0055033Y0029410D01*
X0055097Y0029265D01*
X0055157Y0029119D01*
X0055213Y0028971D01*
X0055266Y0028822D01*
X0055315Y0028671D01*
X0055360Y0028519D01*
X0055401Y0028366D01*
X0055439Y0028213D01*
X0055472Y0028058D01*
X0055502Y0027902D01*
X0055528Y0027746D01*
X0055549Y0027589D01*
X0055567Y0027432D01*
X0055581Y0027274D01*
X0055591Y0027116D01*
X0055597Y0026958D01*
X0055599Y0026800D01*
X0055597Y0026642D01*
X0055591Y0026484D01*
X0055581Y0026326D01*
X0055567Y0026168D01*
X0055549Y0026011D01*
X0055528Y0025854D01*
X0055502Y0025698D01*
X0055472Y0025542D01*
X0055439Y0025387D01*
X0055401Y0025234D01*
X0055360Y0025081D01*
X0055315Y0024929D01*
X0055266Y0024778D01*
X0055213Y0024629D01*
X0055157Y0024481D01*
X0055097Y0024335D01*
X0055033Y0024190D01*
X0054965Y0024047D01*
X0054894Y0023905D01*
X0054820Y0023765D01*
X0054742Y0023628D01*
X0054660Y0023492D01*
X0054576Y0023358D01*
X0054487Y0023227D01*
X0054396Y0023098D01*
X0054301Y0022971D01*
X0054204Y0022846D01*
X0054103Y0022724D01*
X0053999Y0022605D01*
X0053892Y0022488D01*
X0053782Y0022374D01*
X0053669Y0022263D01*
X0053554Y0022154D01*
X0053436Y0022049D01*
X0053315Y0021947D01*
X0053192Y0021847D01*
X0053066Y0021751D01*
X0052938Y0021658D01*
X0052808Y0021568D01*
X0052675Y0021482D01*
X0052540Y0021398D01*
X0052404Y0021319D01*
X0052265Y0021242D01*
X0052124Y0021170D01*
X0051982Y0021100D01*
X0051838Y0021035D01*
X0051692Y0020973D01*
X0051545Y0020915D01*
X0051396Y0020860D01*
X0051246Y0020809D01*
X0051095Y0020762D01*
X0050943Y0020719D01*
X0050790Y0020680D01*
X0050635Y0020644D01*
X0050480Y0020613D01*
X0050324Y0020585D01*
X0050168Y0020561D01*
X0050011Y0020541D01*
X0049853Y0020525D01*
X0049696Y0020513D01*
X0049537Y0020505D01*
X0049379Y0020501D01*
X0049221Y0020501D01*
X0049063Y0020505D01*
X0048904Y0020513D01*
X0048747Y0020525D01*
X0048589Y0020541D01*
X0048432Y0020561D01*
X0048276Y0020585D01*
X0048120Y0020613D01*
X0047965Y0020644D01*
X0047810Y0020680D01*
X0047657Y0020719D01*
X0047505Y0020762D01*
X0047354Y0020809D01*
X0047204Y0020860D01*
X0047055Y0020915D01*
X0046908Y0020973D01*
X0046762Y0021035D01*
X0046618Y0021100D01*
X0046476Y0021170D01*
X0046335Y0021242D01*
X0046196Y0021319D01*
X0046060Y0021398D01*
X0045925Y0021482D01*
X0045792Y0021568D01*
X0045662Y0021658D01*
X0045534Y0021751D01*
X0045408Y0021847D01*
X0045285Y0021947D01*
X0045164Y0022049D01*
X0045046Y0022154D01*
X0044931Y0022263D01*
X0044818Y0022374D01*
X0044708Y0022488D01*
X0044601Y0022605D01*
X0044497Y0022724D01*
X0044396Y0022846D01*
X0044299Y0022971D01*
X0044204Y0023098D01*
X0044113Y0023227D01*
X0044024Y0023358D01*
X0043940Y0023492D01*
X0043858Y0023628D01*
X0043780Y0023765D01*
X0043706Y0023905D01*
X0043635Y0024047D01*
X0043567Y0024190D01*
X0043503Y0024335D01*
X0043443Y0024481D01*
X0043387Y0024629D01*
X0043334Y0024778D01*
X0043285Y0024929D01*
X0043240Y0025081D01*
X0043199Y0025234D01*
X0043161Y0025387D01*
X0043128Y0025542D01*
X0043098Y0025698D01*
X0043072Y0025854D01*
X0043051Y0026011D01*
X0043033Y0026168D01*
X0043019Y0026326D01*
X0043009Y0026484D01*
X0043003Y0026642D01*
X0043001Y0026800D01*
X0015481Y0114280D02*
X0015483Y0114438D01*
X0015489Y0114596D01*
X0015499Y0114754D01*
X0015513Y0114912D01*
X0015531Y0115069D01*
X0015552Y0115226D01*
X0015578Y0115382D01*
X0015608Y0115538D01*
X0015641Y0115693D01*
X0015679Y0115846D01*
X0015720Y0115999D01*
X0015765Y0116151D01*
X0015814Y0116302D01*
X0015867Y0116451D01*
X0015923Y0116599D01*
X0015983Y0116745D01*
X0016047Y0116890D01*
X0016115Y0117033D01*
X0016186Y0117175D01*
X0016260Y0117315D01*
X0016338Y0117452D01*
X0016420Y0117588D01*
X0016504Y0117722D01*
X0016593Y0117853D01*
X0016684Y0117982D01*
X0016779Y0118109D01*
X0016876Y0118234D01*
X0016977Y0118356D01*
X0017081Y0118475D01*
X0017188Y0118592D01*
X0017298Y0118706D01*
X0017411Y0118817D01*
X0017526Y0118926D01*
X0017644Y0119031D01*
X0017765Y0119133D01*
X0017888Y0119233D01*
X0018014Y0119329D01*
X0018142Y0119422D01*
X0018272Y0119512D01*
X0018405Y0119598D01*
X0018540Y0119682D01*
X0018676Y0119761D01*
X0018815Y0119838D01*
X0018956Y0119910D01*
X0019098Y0119980D01*
X0019242Y0120045D01*
X0019388Y0120107D01*
X0019535Y0120165D01*
X0019684Y0120220D01*
X0019834Y0120271D01*
X0019985Y0120318D01*
X0020137Y0120361D01*
X0020290Y0120400D01*
X0020445Y0120436D01*
X0020600Y0120467D01*
X0020756Y0120495D01*
X0020912Y0120519D01*
X0021069Y0120539D01*
X0021227Y0120555D01*
X0021384Y0120567D01*
X0021543Y0120575D01*
X0021701Y0120579D01*
X0021859Y0120579D01*
X0022017Y0120575D01*
X0022176Y0120567D01*
X0022333Y0120555D01*
X0022491Y0120539D01*
X0022648Y0120519D01*
X0022804Y0120495D01*
X0022960Y0120467D01*
X0023115Y0120436D01*
X0023270Y0120400D01*
X0023423Y0120361D01*
X0023575Y0120318D01*
X0023726Y0120271D01*
X0023876Y0120220D01*
X0024025Y0120165D01*
X0024172Y0120107D01*
X0024318Y0120045D01*
X0024462Y0119980D01*
X0024604Y0119910D01*
X0024745Y0119838D01*
X0024884Y0119761D01*
X0025020Y0119682D01*
X0025155Y0119598D01*
X0025288Y0119512D01*
X0025418Y0119422D01*
X0025546Y0119329D01*
X0025672Y0119233D01*
X0025795Y0119133D01*
X0025916Y0119031D01*
X0026034Y0118926D01*
X0026149Y0118817D01*
X0026262Y0118706D01*
X0026372Y0118592D01*
X0026479Y0118475D01*
X0026583Y0118356D01*
X0026684Y0118234D01*
X0026781Y0118109D01*
X0026876Y0117982D01*
X0026967Y0117853D01*
X0027056Y0117722D01*
X0027140Y0117588D01*
X0027222Y0117452D01*
X0027300Y0117315D01*
X0027374Y0117175D01*
X0027445Y0117033D01*
X0027513Y0116890D01*
X0027577Y0116745D01*
X0027637Y0116599D01*
X0027693Y0116451D01*
X0027746Y0116302D01*
X0027795Y0116151D01*
X0027840Y0115999D01*
X0027881Y0115846D01*
X0027919Y0115693D01*
X0027952Y0115538D01*
X0027982Y0115382D01*
X0028008Y0115226D01*
X0028029Y0115069D01*
X0028047Y0114912D01*
X0028061Y0114754D01*
X0028071Y0114596D01*
X0028077Y0114438D01*
X0028079Y0114280D01*
X0028077Y0114122D01*
X0028071Y0113964D01*
X0028061Y0113806D01*
X0028047Y0113648D01*
X0028029Y0113491D01*
X0028008Y0113334D01*
X0027982Y0113178D01*
X0027952Y0113022D01*
X0027919Y0112867D01*
X0027881Y0112714D01*
X0027840Y0112561D01*
X0027795Y0112409D01*
X0027746Y0112258D01*
X0027693Y0112109D01*
X0027637Y0111961D01*
X0027577Y0111815D01*
X0027513Y0111670D01*
X0027445Y0111527D01*
X0027374Y0111385D01*
X0027300Y0111245D01*
X0027222Y0111108D01*
X0027140Y0110972D01*
X0027056Y0110838D01*
X0026967Y0110707D01*
X0026876Y0110578D01*
X0026781Y0110451D01*
X0026684Y0110326D01*
X0026583Y0110204D01*
X0026479Y0110085D01*
X0026372Y0109968D01*
X0026262Y0109854D01*
X0026149Y0109743D01*
X0026034Y0109634D01*
X0025916Y0109529D01*
X0025795Y0109427D01*
X0025672Y0109327D01*
X0025546Y0109231D01*
X0025418Y0109138D01*
X0025288Y0109048D01*
X0025155Y0108962D01*
X0025020Y0108878D01*
X0024884Y0108799D01*
X0024745Y0108722D01*
X0024604Y0108650D01*
X0024462Y0108580D01*
X0024318Y0108515D01*
X0024172Y0108453D01*
X0024025Y0108395D01*
X0023876Y0108340D01*
X0023726Y0108289D01*
X0023575Y0108242D01*
X0023423Y0108199D01*
X0023270Y0108160D01*
X0023115Y0108124D01*
X0022960Y0108093D01*
X0022804Y0108065D01*
X0022648Y0108041D01*
X0022491Y0108021D01*
X0022333Y0108005D01*
X0022176Y0107993D01*
X0022017Y0107985D01*
X0021859Y0107981D01*
X0021701Y0107981D01*
X0021543Y0107985D01*
X0021384Y0107993D01*
X0021227Y0108005D01*
X0021069Y0108021D01*
X0020912Y0108041D01*
X0020756Y0108065D01*
X0020600Y0108093D01*
X0020445Y0108124D01*
X0020290Y0108160D01*
X0020137Y0108199D01*
X0019985Y0108242D01*
X0019834Y0108289D01*
X0019684Y0108340D01*
X0019535Y0108395D01*
X0019388Y0108453D01*
X0019242Y0108515D01*
X0019098Y0108580D01*
X0018956Y0108650D01*
X0018815Y0108722D01*
X0018676Y0108799D01*
X0018540Y0108878D01*
X0018405Y0108962D01*
X0018272Y0109048D01*
X0018142Y0109138D01*
X0018014Y0109231D01*
X0017888Y0109327D01*
X0017765Y0109427D01*
X0017644Y0109529D01*
X0017526Y0109634D01*
X0017411Y0109743D01*
X0017298Y0109854D01*
X0017188Y0109968D01*
X0017081Y0110085D01*
X0016977Y0110204D01*
X0016876Y0110326D01*
X0016779Y0110451D01*
X0016684Y0110578D01*
X0016593Y0110707D01*
X0016504Y0110838D01*
X0016420Y0110972D01*
X0016338Y0111108D01*
X0016260Y0111245D01*
X0016186Y0111385D01*
X0016115Y0111527D01*
X0016047Y0111670D01*
X0015983Y0111815D01*
X0015923Y0111961D01*
X0015867Y0112109D01*
X0015814Y0112258D01*
X0015765Y0112409D01*
X0015720Y0112561D01*
X0015679Y0112714D01*
X0015641Y0112867D01*
X0015608Y0113022D01*
X0015578Y0113178D01*
X0015552Y0113334D01*
X0015531Y0113491D01*
X0015513Y0113648D01*
X0015499Y0113806D01*
X0015489Y0113964D01*
X0015483Y0114122D01*
X0015481Y0114280D01*
X0110481Y0149280D02*
X0110483Y0149438D01*
X0110489Y0149596D01*
X0110499Y0149754D01*
X0110513Y0149912D01*
X0110531Y0150069D01*
X0110552Y0150226D01*
X0110578Y0150382D01*
X0110608Y0150538D01*
X0110641Y0150693D01*
X0110679Y0150846D01*
X0110720Y0150999D01*
X0110765Y0151151D01*
X0110814Y0151302D01*
X0110867Y0151451D01*
X0110923Y0151599D01*
X0110983Y0151745D01*
X0111047Y0151890D01*
X0111115Y0152033D01*
X0111186Y0152175D01*
X0111260Y0152315D01*
X0111338Y0152452D01*
X0111420Y0152588D01*
X0111504Y0152722D01*
X0111593Y0152853D01*
X0111684Y0152982D01*
X0111779Y0153109D01*
X0111876Y0153234D01*
X0111977Y0153356D01*
X0112081Y0153475D01*
X0112188Y0153592D01*
X0112298Y0153706D01*
X0112411Y0153817D01*
X0112526Y0153926D01*
X0112644Y0154031D01*
X0112765Y0154133D01*
X0112888Y0154233D01*
X0113014Y0154329D01*
X0113142Y0154422D01*
X0113272Y0154512D01*
X0113405Y0154598D01*
X0113540Y0154682D01*
X0113676Y0154761D01*
X0113815Y0154838D01*
X0113956Y0154910D01*
X0114098Y0154980D01*
X0114242Y0155045D01*
X0114388Y0155107D01*
X0114535Y0155165D01*
X0114684Y0155220D01*
X0114834Y0155271D01*
X0114985Y0155318D01*
X0115137Y0155361D01*
X0115290Y0155400D01*
X0115445Y0155436D01*
X0115600Y0155467D01*
X0115756Y0155495D01*
X0115912Y0155519D01*
X0116069Y0155539D01*
X0116227Y0155555D01*
X0116384Y0155567D01*
X0116543Y0155575D01*
X0116701Y0155579D01*
X0116859Y0155579D01*
X0117017Y0155575D01*
X0117176Y0155567D01*
X0117333Y0155555D01*
X0117491Y0155539D01*
X0117648Y0155519D01*
X0117804Y0155495D01*
X0117960Y0155467D01*
X0118115Y0155436D01*
X0118270Y0155400D01*
X0118423Y0155361D01*
X0118575Y0155318D01*
X0118726Y0155271D01*
X0118876Y0155220D01*
X0119025Y0155165D01*
X0119172Y0155107D01*
X0119318Y0155045D01*
X0119462Y0154980D01*
X0119604Y0154910D01*
X0119745Y0154838D01*
X0119884Y0154761D01*
X0120020Y0154682D01*
X0120155Y0154598D01*
X0120288Y0154512D01*
X0120418Y0154422D01*
X0120546Y0154329D01*
X0120672Y0154233D01*
X0120795Y0154133D01*
X0120916Y0154031D01*
X0121034Y0153926D01*
X0121149Y0153817D01*
X0121262Y0153706D01*
X0121372Y0153592D01*
X0121479Y0153475D01*
X0121583Y0153356D01*
X0121684Y0153234D01*
X0121781Y0153109D01*
X0121876Y0152982D01*
X0121967Y0152853D01*
X0122056Y0152722D01*
X0122140Y0152588D01*
X0122222Y0152452D01*
X0122300Y0152315D01*
X0122374Y0152175D01*
X0122445Y0152033D01*
X0122513Y0151890D01*
X0122577Y0151745D01*
X0122637Y0151599D01*
X0122693Y0151451D01*
X0122746Y0151302D01*
X0122795Y0151151D01*
X0122840Y0150999D01*
X0122881Y0150846D01*
X0122919Y0150693D01*
X0122952Y0150538D01*
X0122982Y0150382D01*
X0123008Y0150226D01*
X0123029Y0150069D01*
X0123047Y0149912D01*
X0123061Y0149754D01*
X0123071Y0149596D01*
X0123077Y0149438D01*
X0123079Y0149280D01*
X0123077Y0149122D01*
X0123071Y0148964D01*
X0123061Y0148806D01*
X0123047Y0148648D01*
X0123029Y0148491D01*
X0123008Y0148334D01*
X0122982Y0148178D01*
X0122952Y0148022D01*
X0122919Y0147867D01*
X0122881Y0147714D01*
X0122840Y0147561D01*
X0122795Y0147409D01*
X0122746Y0147258D01*
X0122693Y0147109D01*
X0122637Y0146961D01*
X0122577Y0146815D01*
X0122513Y0146670D01*
X0122445Y0146527D01*
X0122374Y0146385D01*
X0122300Y0146245D01*
X0122222Y0146108D01*
X0122140Y0145972D01*
X0122056Y0145838D01*
X0121967Y0145707D01*
X0121876Y0145578D01*
X0121781Y0145451D01*
X0121684Y0145326D01*
X0121583Y0145204D01*
X0121479Y0145085D01*
X0121372Y0144968D01*
X0121262Y0144854D01*
X0121149Y0144743D01*
X0121034Y0144634D01*
X0120916Y0144529D01*
X0120795Y0144427D01*
X0120672Y0144327D01*
X0120546Y0144231D01*
X0120418Y0144138D01*
X0120288Y0144048D01*
X0120155Y0143962D01*
X0120020Y0143878D01*
X0119884Y0143799D01*
X0119745Y0143722D01*
X0119604Y0143650D01*
X0119462Y0143580D01*
X0119318Y0143515D01*
X0119172Y0143453D01*
X0119025Y0143395D01*
X0118876Y0143340D01*
X0118726Y0143289D01*
X0118575Y0143242D01*
X0118423Y0143199D01*
X0118270Y0143160D01*
X0118115Y0143124D01*
X0117960Y0143093D01*
X0117804Y0143065D01*
X0117648Y0143041D01*
X0117491Y0143021D01*
X0117333Y0143005D01*
X0117176Y0142993D01*
X0117017Y0142985D01*
X0116859Y0142981D01*
X0116701Y0142981D01*
X0116543Y0142985D01*
X0116384Y0142993D01*
X0116227Y0143005D01*
X0116069Y0143021D01*
X0115912Y0143041D01*
X0115756Y0143065D01*
X0115600Y0143093D01*
X0115445Y0143124D01*
X0115290Y0143160D01*
X0115137Y0143199D01*
X0114985Y0143242D01*
X0114834Y0143289D01*
X0114684Y0143340D01*
X0114535Y0143395D01*
X0114388Y0143453D01*
X0114242Y0143515D01*
X0114098Y0143580D01*
X0113956Y0143650D01*
X0113815Y0143722D01*
X0113676Y0143799D01*
X0113540Y0143878D01*
X0113405Y0143962D01*
X0113272Y0144048D01*
X0113142Y0144138D01*
X0113014Y0144231D01*
X0112888Y0144327D01*
X0112765Y0144427D01*
X0112644Y0144529D01*
X0112526Y0144634D01*
X0112411Y0144743D01*
X0112298Y0144854D01*
X0112188Y0144968D01*
X0112081Y0145085D01*
X0111977Y0145204D01*
X0111876Y0145326D01*
X0111779Y0145451D01*
X0111684Y0145578D01*
X0111593Y0145707D01*
X0111504Y0145838D01*
X0111420Y0145972D01*
X0111338Y0146108D01*
X0111260Y0146245D01*
X0111186Y0146385D01*
X0111115Y0146527D01*
X0111047Y0146670D01*
X0110983Y0146815D01*
X0110923Y0146961D01*
X0110867Y0147109D01*
X0110814Y0147258D01*
X0110765Y0147409D01*
X0110720Y0147561D01*
X0110679Y0147714D01*
X0110641Y0147867D01*
X0110608Y0148022D01*
X0110578Y0148178D01*
X0110552Y0148334D01*
X0110531Y0148491D01*
X0110513Y0148648D01*
X0110499Y0148806D01*
X0110489Y0148964D01*
X0110483Y0149122D01*
X0110481Y0149280D01*
X0200481Y0069280D02*
X0200483Y0069438D01*
X0200489Y0069596D01*
X0200499Y0069754D01*
X0200513Y0069912D01*
X0200531Y0070069D01*
X0200552Y0070226D01*
X0200578Y0070382D01*
X0200608Y0070538D01*
X0200641Y0070693D01*
X0200679Y0070846D01*
X0200720Y0070999D01*
X0200765Y0071151D01*
X0200814Y0071302D01*
X0200867Y0071451D01*
X0200923Y0071599D01*
X0200983Y0071745D01*
X0201047Y0071890D01*
X0201115Y0072033D01*
X0201186Y0072175D01*
X0201260Y0072315D01*
X0201338Y0072452D01*
X0201420Y0072588D01*
X0201504Y0072722D01*
X0201593Y0072853D01*
X0201684Y0072982D01*
X0201779Y0073109D01*
X0201876Y0073234D01*
X0201977Y0073356D01*
X0202081Y0073475D01*
X0202188Y0073592D01*
X0202298Y0073706D01*
X0202411Y0073817D01*
X0202526Y0073926D01*
X0202644Y0074031D01*
X0202765Y0074133D01*
X0202888Y0074233D01*
X0203014Y0074329D01*
X0203142Y0074422D01*
X0203272Y0074512D01*
X0203405Y0074598D01*
X0203540Y0074682D01*
X0203676Y0074761D01*
X0203815Y0074838D01*
X0203956Y0074910D01*
X0204098Y0074980D01*
X0204242Y0075045D01*
X0204388Y0075107D01*
X0204535Y0075165D01*
X0204684Y0075220D01*
X0204834Y0075271D01*
X0204985Y0075318D01*
X0205137Y0075361D01*
X0205290Y0075400D01*
X0205445Y0075436D01*
X0205600Y0075467D01*
X0205756Y0075495D01*
X0205912Y0075519D01*
X0206069Y0075539D01*
X0206227Y0075555D01*
X0206384Y0075567D01*
X0206543Y0075575D01*
X0206701Y0075579D01*
X0206859Y0075579D01*
X0207017Y0075575D01*
X0207176Y0075567D01*
X0207333Y0075555D01*
X0207491Y0075539D01*
X0207648Y0075519D01*
X0207804Y0075495D01*
X0207960Y0075467D01*
X0208115Y0075436D01*
X0208270Y0075400D01*
X0208423Y0075361D01*
X0208575Y0075318D01*
X0208726Y0075271D01*
X0208876Y0075220D01*
X0209025Y0075165D01*
X0209172Y0075107D01*
X0209318Y0075045D01*
X0209462Y0074980D01*
X0209604Y0074910D01*
X0209745Y0074838D01*
X0209884Y0074761D01*
X0210020Y0074682D01*
X0210155Y0074598D01*
X0210288Y0074512D01*
X0210418Y0074422D01*
X0210546Y0074329D01*
X0210672Y0074233D01*
X0210795Y0074133D01*
X0210916Y0074031D01*
X0211034Y0073926D01*
X0211149Y0073817D01*
X0211262Y0073706D01*
X0211372Y0073592D01*
X0211479Y0073475D01*
X0211583Y0073356D01*
X0211684Y0073234D01*
X0211781Y0073109D01*
X0211876Y0072982D01*
X0211967Y0072853D01*
X0212056Y0072722D01*
X0212140Y0072588D01*
X0212222Y0072452D01*
X0212300Y0072315D01*
X0212374Y0072175D01*
X0212445Y0072033D01*
X0212513Y0071890D01*
X0212577Y0071745D01*
X0212637Y0071599D01*
X0212693Y0071451D01*
X0212746Y0071302D01*
X0212795Y0071151D01*
X0212840Y0070999D01*
X0212881Y0070846D01*
X0212919Y0070693D01*
X0212952Y0070538D01*
X0212982Y0070382D01*
X0213008Y0070226D01*
X0213029Y0070069D01*
X0213047Y0069912D01*
X0213061Y0069754D01*
X0213071Y0069596D01*
X0213077Y0069438D01*
X0213079Y0069280D01*
X0213077Y0069122D01*
X0213071Y0068964D01*
X0213061Y0068806D01*
X0213047Y0068648D01*
X0213029Y0068491D01*
X0213008Y0068334D01*
X0212982Y0068178D01*
X0212952Y0068022D01*
X0212919Y0067867D01*
X0212881Y0067714D01*
X0212840Y0067561D01*
X0212795Y0067409D01*
X0212746Y0067258D01*
X0212693Y0067109D01*
X0212637Y0066961D01*
X0212577Y0066815D01*
X0212513Y0066670D01*
X0212445Y0066527D01*
X0212374Y0066385D01*
X0212300Y0066245D01*
X0212222Y0066108D01*
X0212140Y0065972D01*
X0212056Y0065838D01*
X0211967Y0065707D01*
X0211876Y0065578D01*
X0211781Y0065451D01*
X0211684Y0065326D01*
X0211583Y0065204D01*
X0211479Y0065085D01*
X0211372Y0064968D01*
X0211262Y0064854D01*
X0211149Y0064743D01*
X0211034Y0064634D01*
X0210916Y0064529D01*
X0210795Y0064427D01*
X0210672Y0064327D01*
X0210546Y0064231D01*
X0210418Y0064138D01*
X0210288Y0064048D01*
X0210155Y0063962D01*
X0210020Y0063878D01*
X0209884Y0063799D01*
X0209745Y0063722D01*
X0209604Y0063650D01*
X0209462Y0063580D01*
X0209318Y0063515D01*
X0209172Y0063453D01*
X0209025Y0063395D01*
X0208876Y0063340D01*
X0208726Y0063289D01*
X0208575Y0063242D01*
X0208423Y0063199D01*
X0208270Y0063160D01*
X0208115Y0063124D01*
X0207960Y0063093D01*
X0207804Y0063065D01*
X0207648Y0063041D01*
X0207491Y0063021D01*
X0207333Y0063005D01*
X0207176Y0062993D01*
X0207017Y0062985D01*
X0206859Y0062981D01*
X0206701Y0062981D01*
X0206543Y0062985D01*
X0206384Y0062993D01*
X0206227Y0063005D01*
X0206069Y0063021D01*
X0205912Y0063041D01*
X0205756Y0063065D01*
X0205600Y0063093D01*
X0205445Y0063124D01*
X0205290Y0063160D01*
X0205137Y0063199D01*
X0204985Y0063242D01*
X0204834Y0063289D01*
X0204684Y0063340D01*
X0204535Y0063395D01*
X0204388Y0063453D01*
X0204242Y0063515D01*
X0204098Y0063580D01*
X0203956Y0063650D01*
X0203815Y0063722D01*
X0203676Y0063799D01*
X0203540Y0063878D01*
X0203405Y0063962D01*
X0203272Y0064048D01*
X0203142Y0064138D01*
X0203014Y0064231D01*
X0202888Y0064327D01*
X0202765Y0064427D01*
X0202644Y0064529D01*
X0202526Y0064634D01*
X0202411Y0064743D01*
X0202298Y0064854D01*
X0202188Y0064968D01*
X0202081Y0065085D01*
X0201977Y0065204D01*
X0201876Y0065326D01*
X0201779Y0065451D01*
X0201684Y0065578D01*
X0201593Y0065707D01*
X0201504Y0065838D01*
X0201420Y0065972D01*
X0201338Y0066108D01*
X0201260Y0066245D01*
X0201186Y0066385D01*
X0201115Y0066527D01*
X0201047Y0066670D01*
X0200983Y0066815D01*
X0200923Y0066961D01*
X0200867Y0067109D01*
X0200814Y0067258D01*
X0200765Y0067409D01*
X0200720Y0067561D01*
X0200679Y0067714D01*
X0200641Y0067867D01*
X0200608Y0068022D01*
X0200578Y0068178D01*
X0200552Y0068334D01*
X0200531Y0068491D01*
X0200513Y0068648D01*
X0200499Y0068806D01*
X0200489Y0068964D01*
X0200483Y0069122D01*
X0200481Y0069280D01*
D11*
X0223335Y0006800D02*
X0012174Y0006800D01*
X0011984Y0006802D01*
X0011794Y0006809D01*
X0011604Y0006821D01*
X0011414Y0006837D01*
X0011225Y0006857D01*
X0011036Y0006883D01*
X0010848Y0006912D01*
X0010661Y0006947D01*
X0010475Y0006986D01*
X0010290Y0007029D01*
X0010105Y0007077D01*
X0009922Y0007129D01*
X0009741Y0007185D01*
X0009561Y0007246D01*
X0009382Y0007312D01*
X0009205Y0007381D01*
X0009029Y0007455D01*
X0008856Y0007533D01*
X0008684Y0007616D01*
X0008515Y0007702D01*
X0008347Y0007792D01*
X0008182Y0007887D01*
X0008019Y0007985D01*
X0007859Y0008088D01*
X0007701Y0008194D01*
X0007546Y0008304D01*
X0007393Y0008417D01*
X0007243Y0008535D01*
X0007097Y0008656D01*
X0006953Y0008780D01*
X0006812Y0008908D01*
X0006674Y0009039D01*
X0006539Y0009174D01*
X0006408Y0009312D01*
X0006280Y0009453D01*
X0006156Y0009597D01*
X0006035Y0009743D01*
X0005917Y0009893D01*
X0005804Y0010046D01*
X0005694Y0010201D01*
X0005588Y0010359D01*
X0005485Y0010519D01*
X0005387Y0010682D01*
X0005292Y0010847D01*
X0005202Y0011015D01*
X0005116Y0011184D01*
X0005033Y0011356D01*
X0004955Y0011529D01*
X0004881Y0011705D01*
X0004812Y0011882D01*
X0004746Y0012061D01*
X0004685Y0012241D01*
X0004629Y0012422D01*
X0004577Y0012605D01*
X0004529Y0012790D01*
X0004486Y0012975D01*
X0004447Y0013161D01*
X0004412Y0013348D01*
X0004383Y0013536D01*
X0004357Y0013725D01*
X0004337Y0013914D01*
X0004321Y0014104D01*
X0004309Y0014294D01*
X0004302Y0014484D01*
X0004300Y0014674D01*
X0004300Y0160343D01*
X0004302Y0160533D01*
X0004309Y0160723D01*
X0004321Y0160913D01*
X0004337Y0161103D01*
X0004357Y0161292D01*
X0004383Y0161481D01*
X0004412Y0161669D01*
X0004447Y0161856D01*
X0004486Y0162042D01*
X0004529Y0162227D01*
X0004577Y0162412D01*
X0004629Y0162595D01*
X0004685Y0162776D01*
X0004746Y0162956D01*
X0004812Y0163135D01*
X0004881Y0163312D01*
X0004955Y0163488D01*
X0005033Y0163661D01*
X0005116Y0163833D01*
X0005202Y0164002D01*
X0005292Y0164170D01*
X0005387Y0164335D01*
X0005485Y0164498D01*
X0005588Y0164658D01*
X0005694Y0164816D01*
X0005804Y0164971D01*
X0005917Y0165124D01*
X0006035Y0165274D01*
X0006156Y0165420D01*
X0006280Y0165564D01*
X0006408Y0165705D01*
X0006539Y0165843D01*
X0006674Y0165978D01*
X0006812Y0166109D01*
X0006953Y0166237D01*
X0007097Y0166361D01*
X0007243Y0166482D01*
X0007393Y0166600D01*
X0007546Y0166713D01*
X0007701Y0166823D01*
X0007859Y0166929D01*
X0008019Y0167032D01*
X0008182Y0167130D01*
X0008347Y0167225D01*
X0008515Y0167315D01*
X0008684Y0167401D01*
X0008856Y0167484D01*
X0009029Y0167562D01*
X0009205Y0167636D01*
X0009382Y0167705D01*
X0009561Y0167771D01*
X0009741Y0167832D01*
X0009922Y0167888D01*
X0010105Y0167940D01*
X0010290Y0167988D01*
X0010475Y0168031D01*
X0010661Y0168070D01*
X0010848Y0168105D01*
X0011036Y0168134D01*
X0011225Y0168160D01*
X0011414Y0168180D01*
X0011604Y0168196D01*
X0011794Y0168208D01*
X0011984Y0168215D01*
X0012174Y0168217D01*
X0223335Y0168217D01*
X0223525Y0168215D01*
X0223715Y0168208D01*
X0223905Y0168196D01*
X0224095Y0168180D01*
X0224284Y0168160D01*
X0224473Y0168134D01*
X0224661Y0168105D01*
X0224848Y0168070D01*
X0225034Y0168031D01*
X0225219Y0167988D01*
X0225404Y0167940D01*
X0225587Y0167888D01*
X0225768Y0167832D01*
X0225948Y0167771D01*
X0226127Y0167705D01*
X0226304Y0167636D01*
X0226480Y0167562D01*
X0226653Y0167484D01*
X0226825Y0167401D01*
X0226994Y0167315D01*
X0227162Y0167225D01*
X0227327Y0167130D01*
X0227490Y0167032D01*
X0227650Y0166929D01*
X0227808Y0166823D01*
X0227963Y0166713D01*
X0228116Y0166600D01*
X0228266Y0166482D01*
X0228412Y0166361D01*
X0228556Y0166237D01*
X0228697Y0166109D01*
X0228835Y0165978D01*
X0228970Y0165843D01*
X0229101Y0165705D01*
X0229229Y0165564D01*
X0229353Y0165420D01*
X0229474Y0165274D01*
X0229592Y0165124D01*
X0229705Y0164971D01*
X0229815Y0164816D01*
X0229921Y0164658D01*
X0230024Y0164498D01*
X0230122Y0164335D01*
X0230217Y0164170D01*
X0230307Y0164002D01*
X0230393Y0163833D01*
X0230476Y0163661D01*
X0230554Y0163488D01*
X0230628Y0163312D01*
X0230697Y0163135D01*
X0230763Y0162956D01*
X0230824Y0162776D01*
X0230880Y0162595D01*
X0230932Y0162412D01*
X0230980Y0162227D01*
X0231023Y0162042D01*
X0231062Y0161856D01*
X0231097Y0161669D01*
X0231126Y0161481D01*
X0231152Y0161292D01*
X0231172Y0161103D01*
X0231188Y0160913D01*
X0231200Y0160723D01*
X0231207Y0160533D01*
X0231209Y0160343D01*
X0231209Y0014674D01*
X0231207Y0014484D01*
X0231200Y0014294D01*
X0231188Y0014104D01*
X0231172Y0013914D01*
X0231152Y0013725D01*
X0231126Y0013536D01*
X0231097Y0013348D01*
X0231062Y0013161D01*
X0231023Y0012975D01*
X0230980Y0012790D01*
X0230932Y0012605D01*
X0230880Y0012422D01*
X0230824Y0012241D01*
X0230763Y0012061D01*
X0230697Y0011882D01*
X0230628Y0011705D01*
X0230554Y0011529D01*
X0230476Y0011356D01*
X0230393Y0011184D01*
X0230307Y0011015D01*
X0230217Y0010847D01*
X0230122Y0010682D01*
X0230024Y0010519D01*
X0229921Y0010359D01*
X0229815Y0010201D01*
X0229705Y0010046D01*
X0229592Y0009893D01*
X0229474Y0009743D01*
X0229353Y0009597D01*
X0229229Y0009453D01*
X0229101Y0009312D01*
X0228970Y0009174D01*
X0228835Y0009039D01*
X0228697Y0008908D01*
X0228556Y0008780D01*
X0228412Y0008656D01*
X0228266Y0008535D01*
X0228116Y0008417D01*
X0227963Y0008304D01*
X0227808Y0008194D01*
X0227650Y0008088D01*
X0227490Y0007985D01*
X0227327Y0007887D01*
X0227162Y0007792D01*
X0226994Y0007702D01*
X0226825Y0007616D01*
X0226653Y0007533D01*
X0226480Y0007455D01*
X0226304Y0007381D01*
X0226127Y0007312D01*
X0225948Y0007246D01*
X0225768Y0007185D01*
X0225587Y0007129D01*
X0225404Y0007077D01*
X0225219Y0007029D01*
X0225034Y0006986D01*
X0224848Y0006947D01*
X0224661Y0006912D01*
X0224473Y0006883D01*
X0224284Y0006857D01*
X0224095Y0006837D01*
X0223905Y0006821D01*
X0223715Y0006809D01*
X0223525Y0006802D01*
X0223335Y0006800D01*
D12*
X0174300Y0028300D03*
X0164300Y0028300D03*
X0154300Y0028300D03*
X0089300Y0028300D03*
X0079300Y0028300D03*
X0069300Y0028300D03*
X0029300Y0083300D03*
X0029300Y0093300D03*
X0044300Y0138300D03*
X0054300Y0138300D03*
X0064300Y0138300D03*
X0074300Y0138300D03*
X0084300Y0138300D03*
X0084300Y0148300D03*
X0074300Y0148300D03*
X0064300Y0148300D03*
X0054300Y0148300D03*
X0044300Y0148300D03*
X0134300Y0153300D03*
X0140800Y0131800D03*
X0150800Y0131800D03*
D13*
X0144300Y0153300D03*
X0184300Y0028300D03*
X0099300Y0028300D03*
D14*
X0029595Y0058300D02*
X0029595Y0068300D01*
X0014005Y0068300D02*
X0014005Y0058300D01*
D15*
X0014300Y0083300D03*
X0014300Y0093300D03*
X0120300Y0131800D03*
X0130300Y0131800D03*
X0199300Y0120800D03*
X0209300Y0120800D03*
X0219300Y0120800D03*
X0219300Y0160800D03*
X0209300Y0160800D03*
X0199300Y0160800D03*
D16*
X0209300Y0098300D03*
X0119300Y0098300D03*
D17*
X0109300Y0098300D03*
X0099300Y0098300D03*
X0089300Y0098300D03*
X0079300Y0098300D03*
X0069300Y0098300D03*
X0059300Y0098300D03*
X0049300Y0098300D03*
X0049300Y0048300D03*
X0059300Y0048300D03*
X0069300Y0048300D03*
X0079300Y0048300D03*
X0089300Y0048300D03*
X0099300Y0048300D03*
X0109300Y0048300D03*
X0119300Y0048300D03*
X0139300Y0048300D03*
X0149300Y0048300D03*
X0159300Y0048300D03*
X0169300Y0048300D03*
X0179300Y0048300D03*
X0189300Y0048300D03*
X0199300Y0048300D03*
X0209300Y0048300D03*
X0199300Y0098300D03*
X0189300Y0098300D03*
X0179300Y0098300D03*
X0169300Y0098300D03*
X0159300Y0098300D03*
X0149300Y0098300D03*
X0139300Y0098300D03*
D18*
X0117300Y0023300D03*
X0202300Y0023300D03*
D19*
X0216300Y0023300D03*
X0131300Y0023300D03*
D20*
X0164300Y0125700D02*
X0164300Y0130900D01*
X0174300Y0130900D02*
X0174300Y0125700D01*
X0184300Y0125700D02*
X0184300Y0130900D01*
X0184300Y0155700D02*
X0184300Y0160900D01*
X0174300Y0160900D02*
X0174300Y0155700D01*
X0164300Y0155700D02*
X0164300Y0160900D01*
D21*
X0159300Y0048300D02*
X0159300Y0041800D01*
X0154300Y0036800D01*
X0154300Y0028300D01*
X0164300Y0028300D02*
X0164300Y0036800D01*
X0169300Y0041800D01*
X0169300Y0048300D01*
X0179300Y0048300D02*
X0179300Y0041800D01*
X0174300Y0036800D01*
X0174300Y0028300D01*
X0184300Y0028300D02*
X0184300Y0036800D01*
X0189300Y0041800D01*
X0189300Y0048300D01*
X0099300Y0048300D02*
X0099300Y0028300D01*
X0089300Y0028300D02*
X0089300Y0048300D01*
X0079300Y0048300D02*
X0079300Y0028300D01*
X0069300Y0028300D02*
X0069300Y0048300D01*
D22*
X0074300Y0050601D02*
X0073963Y0051415D01*
X0072415Y0052963D01*
X0070394Y0053800D01*
X0068206Y0053800D01*
X0066184Y0052963D01*
X0064637Y0051415D01*
X0064300Y0050601D01*
X0063963Y0051415D01*
X0062415Y0052963D01*
X0060394Y0053800D01*
X0058206Y0053800D01*
X0056184Y0052963D01*
X0054637Y0051415D01*
X0054300Y0050601D01*
X0053963Y0051415D01*
X0052415Y0052963D01*
X0050394Y0053800D01*
X0048206Y0053800D01*
X0046184Y0052963D01*
X0044637Y0051415D01*
X0043800Y0049394D01*
X0043800Y0047206D01*
X0044637Y0045184D01*
X0046184Y0043637D01*
X0048206Y0042800D01*
X0050394Y0042800D01*
X0052415Y0043637D01*
X0053963Y0045184D01*
X0054300Y0045999D01*
X0054637Y0045184D01*
X0056184Y0043637D01*
X0058206Y0042800D01*
X0060394Y0042800D01*
X0062415Y0043637D01*
X0063963Y0045184D01*
X0064000Y0045275D01*
X0064000Y0030399D01*
X0063600Y0029434D01*
X0063600Y0027166D01*
X0064468Y0025071D01*
X0066071Y0023468D01*
X0068166Y0022600D01*
X0070434Y0022600D01*
X0072529Y0023468D01*
X0074132Y0025071D01*
X0074300Y0025476D01*
X0074468Y0025071D01*
X0076071Y0023468D01*
X0078166Y0022600D01*
X0080434Y0022600D01*
X0082529Y0023468D01*
X0084132Y0025071D01*
X0084300Y0025476D01*
X0084468Y0025071D01*
X0086071Y0023468D01*
X0088166Y0022600D01*
X0090434Y0022600D01*
X0092529Y0023468D01*
X0093600Y0024539D01*
X0093600Y0023772D01*
X0094772Y0022600D01*
X0103828Y0022600D01*
X0105000Y0023772D01*
X0105000Y0032828D01*
X0104600Y0033228D01*
X0104600Y0045275D01*
X0104637Y0045184D01*
X0106184Y0043637D01*
X0108206Y0042800D01*
X0110394Y0042800D01*
X0112415Y0043637D01*
X0113963Y0045184D01*
X0114401Y0046242D01*
X0114767Y0045522D01*
X0115257Y0044847D01*
X0115847Y0044257D01*
X0116522Y0043767D01*
X0117266Y0043388D01*
X0118059Y0043130D01*
X0118883Y0043000D01*
X0119300Y0043000D01*
X0119717Y0043000D01*
X0120541Y0043130D01*
X0121334Y0043388D01*
X0122078Y0043767D01*
X0122753Y0044257D01*
X0123343Y0044847D01*
X0123833Y0045522D01*
X0124212Y0046266D01*
X0124469Y0047059D01*
X0124600Y0047883D01*
X0124600Y0048300D01*
X0124600Y0048717D01*
X0124469Y0049541D01*
X0124212Y0050334D01*
X0123833Y0051078D01*
X0123343Y0051753D01*
X0122753Y0052343D01*
X0122078Y0052833D01*
X0121334Y0053212D01*
X0120541Y0053469D01*
X0119717Y0053600D01*
X0119300Y0053600D01*
X0119300Y0048300D01*
X0119300Y0048300D01*
X0124600Y0048300D01*
X0119300Y0048300D01*
X0119300Y0048300D01*
X0119300Y0043000D01*
X0119300Y0048300D01*
X0119300Y0048300D01*
X0119300Y0053600D01*
X0118883Y0053600D01*
X0118059Y0053469D01*
X0117266Y0053212D01*
X0116522Y0052833D01*
X0115847Y0052343D01*
X0115257Y0051753D01*
X0114767Y0051078D01*
X0114401Y0050358D01*
X0113963Y0051415D01*
X0112415Y0052963D01*
X0110394Y0053800D01*
X0108206Y0053800D01*
X0106184Y0052963D01*
X0104637Y0051415D01*
X0104300Y0050601D01*
X0103963Y0051415D01*
X0102415Y0052963D01*
X0100394Y0053800D01*
X0098206Y0053800D01*
X0096184Y0052963D01*
X0094637Y0051415D01*
X0094300Y0050601D01*
X0093963Y0051415D01*
X0092415Y0052963D01*
X0090394Y0053800D01*
X0088206Y0053800D01*
X0086184Y0052963D01*
X0084637Y0051415D01*
X0084300Y0050601D01*
X0083963Y0051415D01*
X0082415Y0052963D01*
X0080394Y0053800D01*
X0078206Y0053800D01*
X0076184Y0052963D01*
X0074637Y0051415D01*
X0074300Y0050601D01*
X0073820Y0051558D02*
X0074780Y0051558D01*
X0076653Y0053157D02*
X0071947Y0053157D01*
X0066653Y0053157D02*
X0061947Y0053157D01*
X0063820Y0051558D02*
X0064780Y0051558D01*
X0064000Y0045164D02*
X0063942Y0045164D01*
X0064000Y0043566D02*
X0062243Y0043566D01*
X0064000Y0041967D02*
X0009600Y0041967D01*
X0009600Y0040369D02*
X0064000Y0040369D01*
X0064000Y0038770D02*
X0009600Y0038770D01*
X0009600Y0037172D02*
X0045124Y0037172D01*
X0045016Y0037143D02*
X0042485Y0035682D01*
X0040418Y0033615D01*
X0038957Y0031084D01*
X0038201Y0028261D01*
X0038201Y0025339D01*
X0038957Y0022516D01*
X0040418Y0019985D01*
X0042485Y0017918D01*
X0045016Y0016457D01*
X0047839Y0015701D01*
X0050761Y0015701D01*
X0053584Y0016457D01*
X0056115Y0017918D01*
X0058182Y0019985D01*
X0059643Y0022516D01*
X0060399Y0025339D01*
X0060399Y0028261D01*
X0059643Y0031084D01*
X0058182Y0033615D01*
X0056115Y0035682D01*
X0053584Y0037143D01*
X0050761Y0037899D01*
X0047839Y0037899D01*
X0045016Y0037143D01*
X0042377Y0035573D02*
X0009600Y0035573D01*
X0009600Y0033975D02*
X0040778Y0033975D01*
X0039703Y0032376D02*
X0009600Y0032376D01*
X0009600Y0030778D02*
X0038875Y0030778D01*
X0038447Y0029179D02*
X0009600Y0029179D01*
X0009600Y0027581D02*
X0038201Y0027581D01*
X0038201Y0025982D02*
X0009600Y0025982D01*
X0009600Y0024384D02*
X0038457Y0024384D01*
X0038885Y0022785D02*
X0009600Y0022785D01*
X0009600Y0021187D02*
X0039725Y0021187D01*
X0040815Y0019588D02*
X0009600Y0019588D01*
X0009600Y0017990D02*
X0042414Y0017990D01*
X0045263Y0016391D02*
X0009600Y0016391D01*
X0009600Y0014793D02*
X0225909Y0014793D01*
X0225909Y0014674D02*
X0225878Y0014271D01*
X0225629Y0013505D01*
X0225156Y0012854D01*
X0224504Y0012381D01*
X0223738Y0012132D01*
X0223335Y0012100D01*
X0012174Y0012100D01*
X0011771Y0012132D01*
X0011005Y0012381D01*
X0010354Y0012854D01*
X0009881Y0013505D01*
X0009632Y0014271D01*
X0009600Y0014674D01*
X0009600Y0053109D01*
X0010219Y0052634D01*
X0010991Y0052188D01*
X0011814Y0051847D01*
X0012675Y0051616D01*
X0013559Y0051500D01*
X0013820Y0051500D01*
X0013820Y0063116D01*
X0014189Y0063116D01*
X0014189Y0063484D01*
X0020805Y0063484D01*
X0020805Y0068746D01*
X0020688Y0069629D01*
X0020458Y0070490D01*
X0020117Y0071314D01*
X0019671Y0072086D01*
X0019128Y0072793D01*
X0018498Y0073423D01*
X0017791Y0073966D01*
X0017019Y0074412D01*
X0016195Y0074753D01*
X0015334Y0074984D01*
X0014450Y0075100D01*
X0014189Y0075100D01*
X0014189Y0063484D01*
X0013820Y0063484D01*
X0013820Y0075100D01*
X0013559Y0075100D01*
X0012675Y0074984D01*
X0011814Y0074753D01*
X0010991Y0074412D01*
X0010219Y0073966D01*
X0009600Y0073491D01*
X0009600Y0101800D01*
X0031800Y0101800D01*
X0059300Y0074300D01*
X0196862Y0074300D01*
X0196437Y0073564D01*
X0195681Y0070742D01*
X0195681Y0067819D01*
X0196437Y0064996D01*
X0197899Y0062465D01*
X0199965Y0060399D01*
X0202496Y0058937D01*
X0205319Y0058181D01*
X0208242Y0058181D01*
X0211064Y0058937D01*
X0213595Y0060399D01*
X0215662Y0062465D01*
X0217123Y0064996D01*
X0217880Y0067819D01*
X0217880Y0070742D01*
X0217123Y0073564D01*
X0216698Y0074300D01*
X0225909Y0074300D01*
X0225909Y0014674D01*
X0225403Y0013194D02*
X0010107Y0013194D01*
X0009600Y0043566D02*
X0046357Y0043566D01*
X0044658Y0045164D02*
X0009600Y0045164D01*
X0009600Y0046763D02*
X0043984Y0046763D01*
X0043800Y0048361D02*
X0009600Y0048361D01*
X0009600Y0049960D02*
X0044034Y0049960D01*
X0044780Y0051558D02*
X0031611Y0051558D01*
X0030988Y0051300D02*
X0033560Y0052366D01*
X0035530Y0054335D01*
X0036595Y0056908D01*
X0036595Y0069692D01*
X0035530Y0072265D01*
X0033560Y0074234D01*
X0030988Y0075300D01*
X0028203Y0075300D01*
X0025630Y0074234D01*
X0023661Y0072265D01*
X0022595Y0069692D01*
X0022595Y0056908D01*
X0023661Y0054335D01*
X0025630Y0052366D01*
X0028203Y0051300D01*
X0030988Y0051300D01*
X0027579Y0051558D02*
X0014893Y0051558D01*
X0015334Y0051616D02*
X0016195Y0051847D01*
X0017019Y0052188D01*
X0017791Y0052634D01*
X0018498Y0053177D01*
X0019128Y0053807D01*
X0019671Y0054514D01*
X0020117Y0055286D01*
X0020458Y0056110D01*
X0020688Y0056971D01*
X0020805Y0057854D01*
X0020805Y0063116D01*
X0014189Y0063116D01*
X0014189Y0051500D01*
X0014450Y0051500D01*
X0015334Y0051616D01*
X0014189Y0051558D02*
X0013820Y0051558D01*
X0013116Y0051558D02*
X0009600Y0051558D01*
X0013820Y0053157D02*
X0014189Y0053157D01*
X0014189Y0054755D02*
X0013820Y0054755D01*
X0013820Y0056354D02*
X0014189Y0056354D01*
X0014189Y0057952D02*
X0013820Y0057952D01*
X0013820Y0059551D02*
X0014189Y0059551D01*
X0014189Y0061149D02*
X0013820Y0061149D01*
X0013820Y0062748D02*
X0014189Y0062748D01*
X0014189Y0064346D02*
X0013820Y0064346D01*
X0013820Y0065945D02*
X0014189Y0065945D01*
X0014189Y0067543D02*
X0013820Y0067543D01*
X0013820Y0069142D02*
X0014189Y0069142D01*
X0014189Y0070740D02*
X0013820Y0070740D01*
X0013820Y0072339D02*
X0014189Y0072339D01*
X0014189Y0073937D02*
X0013820Y0073937D01*
X0010181Y0073937D02*
X0009600Y0073937D01*
X0009600Y0075536D02*
X0058064Y0075536D01*
X0056466Y0077134D02*
X0009600Y0077134D01*
X0009600Y0078733D02*
X0025806Y0078733D01*
X0026071Y0078468D02*
X0028166Y0077600D01*
X0030434Y0077600D01*
X0032529Y0078468D01*
X0034132Y0080071D01*
X0035000Y0082166D01*
X0035000Y0084434D01*
X0034132Y0086529D01*
X0032529Y0088132D01*
X0032124Y0088300D01*
X0032529Y0088468D01*
X0034132Y0090071D01*
X0035000Y0092166D01*
X0035000Y0094434D01*
X0034132Y0096529D01*
X0032529Y0098132D01*
X0030434Y0099000D01*
X0028166Y0099000D01*
X0026071Y0098132D01*
X0024468Y0096529D01*
X0023600Y0094434D01*
X0023600Y0092166D01*
X0024468Y0090071D01*
X0026071Y0088468D01*
X0026476Y0088300D01*
X0026071Y0088132D01*
X0024468Y0086529D01*
X0023600Y0084434D01*
X0023600Y0082166D01*
X0024468Y0080071D01*
X0026071Y0078468D01*
X0024360Y0080332D02*
X0017554Y0080332D01*
X0018700Y0081477D02*
X0016123Y0078900D01*
X0014300Y0078900D01*
X0014300Y0083300D01*
X0014300Y0083300D01*
X0014300Y0087700D01*
X0016123Y0087700D01*
X0018700Y0085123D01*
X0018700Y0083300D01*
X0014300Y0083300D01*
X0014300Y0083300D01*
X0014300Y0083300D01*
X0009900Y0083300D01*
X0009900Y0085123D01*
X0012477Y0087700D01*
X0014300Y0087700D01*
X0014300Y0083300D01*
X0018700Y0083300D01*
X0018700Y0081477D01*
X0018700Y0081930D02*
X0023698Y0081930D01*
X0023600Y0083529D02*
X0018700Y0083529D01*
X0018695Y0085127D02*
X0023887Y0085127D01*
X0024665Y0086726D02*
X0017097Y0086726D01*
X0016205Y0088700D02*
X0018900Y0091395D01*
X0018900Y0095205D01*
X0016205Y0097900D01*
X0012395Y0097900D01*
X0009700Y0095205D01*
X0009700Y0091395D01*
X0012395Y0088700D01*
X0016205Y0088700D01*
X0017428Y0089923D02*
X0024616Y0089923D01*
X0023867Y0091521D02*
X0018900Y0091521D01*
X0018900Y0093120D02*
X0023600Y0093120D01*
X0023718Y0094718D02*
X0018900Y0094718D01*
X0017789Y0096317D02*
X0024380Y0096317D01*
X0025854Y0097915D02*
X0009600Y0097915D01*
X0009600Y0096317D02*
X0010811Y0096317D01*
X0009700Y0094718D02*
X0009600Y0094718D01*
X0009600Y0093120D02*
X0009700Y0093120D01*
X0009700Y0091521D02*
X0009600Y0091521D01*
X0009600Y0089923D02*
X0011172Y0089923D01*
X0009600Y0088324D02*
X0026418Y0088324D01*
X0032182Y0088324D02*
X0045276Y0088324D01*
X0046874Y0086726D02*
X0033935Y0086726D01*
X0034713Y0085127D02*
X0048473Y0085127D01*
X0050071Y0083529D02*
X0035000Y0083529D01*
X0034902Y0081930D02*
X0051670Y0081930D01*
X0053268Y0080332D02*
X0034240Y0080332D01*
X0032794Y0078733D02*
X0054867Y0078733D01*
X0056761Y0081930D02*
X0100296Y0081930D01*
X0101894Y0080332D02*
X0058360Y0080332D01*
X0059958Y0078733D02*
X0103493Y0078733D01*
X0103079Y0079147D02*
X0104147Y0078079D01*
X0104578Y0077900D01*
X0060791Y0077900D01*
X0033839Y0104852D01*
X0032516Y0105400D01*
X0028597Y0105400D01*
X0030662Y0107465D01*
X0032123Y0109996D01*
X0032880Y0112819D01*
X0032880Y0115742D01*
X0032123Y0118564D01*
X0030662Y0121095D01*
X0028595Y0123162D01*
X0026064Y0124623D01*
X0023242Y0125380D01*
X0020319Y0125380D01*
X0017496Y0124623D01*
X0014965Y0123162D01*
X0012899Y0121095D01*
X0011437Y0118564D01*
X0010681Y0115742D01*
X0010681Y0112819D01*
X0011437Y0109996D01*
X0012899Y0107465D01*
X0014964Y0105400D01*
X0009600Y0105400D01*
X0009600Y0160343D01*
X0009632Y0160746D01*
X0009881Y0161512D01*
X0010354Y0162163D01*
X0011005Y0162637D01*
X0011771Y0162886D01*
X0012174Y0162917D01*
X0160157Y0162917D01*
X0159700Y0161815D01*
X0159700Y0154785D01*
X0160400Y0153094D01*
X0161694Y0151800D01*
X0163385Y0151100D01*
X0165215Y0151100D01*
X0166906Y0151800D01*
X0168200Y0153094D01*
X0168900Y0154785D01*
X0168900Y0161815D01*
X0168443Y0162917D01*
X0170157Y0162917D01*
X0169700Y0161815D01*
X0169700Y0154785D01*
X0170400Y0153094D01*
X0171694Y0151800D01*
X0173385Y0151100D01*
X0175215Y0151100D01*
X0176906Y0151800D01*
X0178200Y0153094D01*
X0178900Y0154785D01*
X0178900Y0161815D01*
X0178443Y0162917D01*
X0180157Y0162917D01*
X0179700Y0161815D01*
X0179700Y0154785D01*
X0180400Y0153094D01*
X0181694Y0151800D01*
X0183385Y0151100D01*
X0185215Y0151100D01*
X0186906Y0151800D01*
X0188200Y0153094D01*
X0188900Y0154785D01*
X0188900Y0161815D01*
X0188443Y0162917D01*
X0195195Y0162917D01*
X0194900Y0162623D01*
X0194900Y0160800D01*
X0199300Y0160800D01*
X0203700Y0160800D01*
X0203700Y0162623D01*
X0203405Y0162917D01*
X0205195Y0162917D01*
X0204900Y0162623D01*
X0204900Y0160800D01*
X0209300Y0160800D01*
X0213700Y0160800D01*
X0213700Y0162623D01*
X0213405Y0162917D01*
X0215195Y0162917D01*
X0214900Y0162623D01*
X0214900Y0160800D01*
X0219300Y0160800D01*
X0223700Y0160800D01*
X0223700Y0162623D01*
X0223411Y0162911D01*
X0223738Y0162886D01*
X0224504Y0162637D01*
X0225156Y0162163D01*
X0225629Y0161512D01*
X0225878Y0160746D01*
X0225909Y0160343D01*
X0225909Y0077900D01*
X0213857Y0077900D01*
X0213595Y0078162D01*
X0211064Y0079623D01*
X0208242Y0080380D01*
X0205319Y0080380D01*
X0202496Y0079623D01*
X0199965Y0078162D01*
X0199703Y0077900D01*
X0182274Y0077900D01*
X0182521Y0078147D01*
X0183100Y0079544D01*
X0183100Y0080684D01*
X0183544Y0080500D01*
X0190056Y0080500D01*
X0191453Y0081079D01*
X0192521Y0082147D01*
X0193100Y0083544D01*
X0193100Y0085056D01*
X0192916Y0085500D01*
X0197556Y0085500D01*
X0198953Y0086079D01*
X0200021Y0087147D01*
X0201453Y0088579D01*
X0202521Y0089647D01*
X0203100Y0091044D01*
X0203100Y0094322D01*
X0203800Y0095022D01*
X0203800Y0093972D01*
X0204972Y0092800D01*
X0213628Y0092800D01*
X0214800Y0093972D01*
X0214800Y0102628D01*
X0213628Y0103800D01*
X0204972Y0103800D01*
X0203800Y0102628D01*
X0203800Y0101578D01*
X0203100Y0102278D01*
X0203100Y0105056D01*
X0202521Y0106453D01*
X0201453Y0107521D01*
X0188100Y0120874D01*
X0188100Y0122995D01*
X0188200Y0123094D01*
X0188782Y0124500D01*
X0192726Y0124500D01*
X0194700Y0122526D01*
X0194700Y0118895D01*
X0197395Y0116200D01*
X0201205Y0116200D01*
X0203900Y0118895D01*
X0203900Y0122705D01*
X0203100Y0123505D01*
X0203100Y0124056D01*
X0202521Y0125453D01*
X0201453Y0126521D01*
X0196453Y0131521D01*
X0195056Y0132100D01*
X0188782Y0132100D01*
X0188409Y0133000D01*
X0202726Y0133000D01*
X0205500Y0130226D01*
X0205500Y0123505D01*
X0204700Y0122705D01*
X0204700Y0118895D01*
X0207395Y0116200D01*
X0211205Y0116200D01*
X0213900Y0118895D01*
X0213900Y0122705D01*
X0213100Y0123505D01*
X0213100Y0132556D01*
X0213050Y0132676D01*
X0215500Y0130226D01*
X0215500Y0123505D01*
X0214700Y0122705D01*
X0214700Y0118895D01*
X0217395Y0116200D01*
X0221205Y0116200D01*
X0223900Y0118895D01*
X0223900Y0122705D01*
X0223100Y0123505D01*
X0223100Y0132556D01*
X0222521Y0133953D01*
X0211453Y0145021D01*
X0210056Y0145600D01*
X0173544Y0145600D01*
X0172147Y0145021D01*
X0171079Y0143953D01*
X0162089Y0134963D01*
X0161694Y0134800D01*
X0160400Y0133506D01*
X0159700Y0131815D01*
X0159700Y0124785D01*
X0160400Y0123094D01*
X0160500Y0122995D01*
X0160500Y0118544D01*
X0161079Y0117147D01*
X0162147Y0116079D01*
X0175500Y0102726D01*
X0175500Y0102278D01*
X0174637Y0101415D01*
X0174300Y0100601D01*
X0173963Y0101415D01*
X0173100Y0102278D01*
X0173100Y0102556D01*
X0172521Y0103953D01*
X0155521Y0120953D01*
X0154453Y0122021D01*
X0153056Y0122600D01*
X0102531Y0122600D01*
X0099600Y0125531D01*
X0099600Y0146713D01*
X0099021Y0148109D01*
X0090678Y0156453D01*
X0089609Y0157521D01*
X0088213Y0158100D01*
X0076044Y0158100D01*
X0074647Y0157521D01*
X0073579Y0156453D01*
X0072147Y0155021D01*
X0071079Y0153953D01*
X0070504Y0152565D01*
X0069468Y0151529D01*
X0069300Y0151124D01*
X0069132Y0151529D01*
X0067529Y0153132D01*
X0065434Y0154000D01*
X0063166Y0154000D01*
X0061071Y0153132D01*
X0059468Y0151529D01*
X0059300Y0151124D01*
X0059132Y0151529D01*
X0058096Y0152565D01*
X0057521Y0153953D01*
X0055021Y0156453D01*
X0053953Y0157521D01*
X0052556Y0158100D01*
X0037887Y0158100D01*
X0036491Y0157521D01*
X0029579Y0150609D01*
X0029000Y0149213D01*
X0029000Y0147701D01*
X0029000Y0133074D01*
X0029579Y0131677D01*
X0030647Y0130608D01*
X0045500Y0115755D01*
X0045500Y0102278D01*
X0044637Y0101415D01*
X0043800Y0099394D01*
X0043800Y0097206D01*
X0044637Y0095184D01*
X0046184Y0093637D01*
X0048206Y0092800D01*
X0050394Y0092800D01*
X0052415Y0093637D01*
X0053963Y0095184D01*
X0054300Y0095999D01*
X0054637Y0095184D01*
X0056184Y0093637D01*
X0058206Y0092800D01*
X0060394Y0092800D01*
X0062415Y0093637D01*
X0063963Y0095184D01*
X0064300Y0095999D01*
X0064637Y0095184D01*
X0066184Y0093637D01*
X0068206Y0092800D01*
X0070394Y0092800D01*
X0072415Y0093637D01*
X0073963Y0095184D01*
X0074300Y0095999D01*
X0074637Y0095184D01*
X0076184Y0093637D01*
X0078206Y0092800D01*
X0080394Y0092800D01*
X0082415Y0093637D01*
X0083963Y0095184D01*
X0084300Y0095999D01*
X0084637Y0095184D01*
X0086184Y0093637D01*
X0088206Y0092800D01*
X0089426Y0092800D01*
X0103079Y0079147D01*
X0103079Y0079147D01*
X0098697Y0083529D02*
X0055163Y0083529D01*
X0053564Y0085127D02*
X0097099Y0085127D01*
X0095500Y0086726D02*
X0051966Y0086726D01*
X0050367Y0088324D02*
X0093902Y0088324D01*
X0092303Y0089923D02*
X0048769Y0089923D01*
X0047170Y0091521D02*
X0090705Y0091521D01*
X0087434Y0093120D02*
X0081166Y0093120D01*
X0083496Y0094718D02*
X0085104Y0094718D01*
X0077434Y0093120D02*
X0071166Y0093120D01*
X0073496Y0094718D02*
X0075104Y0094718D01*
X0067434Y0093120D02*
X0061166Y0093120D01*
X0063496Y0094718D02*
X0065104Y0094718D01*
X0057434Y0093120D02*
X0051166Y0093120D01*
X0053496Y0094718D02*
X0055104Y0094718D01*
X0047434Y0093120D02*
X0045572Y0093120D01*
X0045104Y0094718D02*
X0043973Y0094718D01*
X0044168Y0096317D02*
X0042375Y0096317D01*
X0043800Y0097915D02*
X0040776Y0097915D01*
X0039177Y0099514D02*
X0043850Y0099514D01*
X0044512Y0101112D02*
X0037579Y0101112D01*
X0035980Y0102711D02*
X0045500Y0102711D01*
X0045500Y0104309D02*
X0034382Y0104309D01*
X0032488Y0101112D02*
X0009600Y0101112D01*
X0009600Y0099514D02*
X0034086Y0099514D01*
X0032746Y0097915D02*
X0035685Y0097915D01*
X0034220Y0096317D02*
X0037283Y0096317D01*
X0038882Y0094718D02*
X0034882Y0094718D01*
X0035000Y0093120D02*
X0040480Y0093120D01*
X0042079Y0091521D02*
X0034733Y0091521D01*
X0033984Y0089923D02*
X0043677Y0089923D01*
X0045500Y0105908D02*
X0029104Y0105908D01*
X0030686Y0107506D02*
X0045500Y0107506D01*
X0045500Y0109105D02*
X0031608Y0109105D01*
X0032313Y0110703D02*
X0045500Y0110703D01*
X0045500Y0112302D02*
X0032741Y0112302D01*
X0032880Y0113900D02*
X0045500Y0113900D01*
X0045500Y0115499D02*
X0032880Y0115499D01*
X0032516Y0117097D02*
X0044158Y0117097D01*
X0042560Y0118696D02*
X0032047Y0118696D01*
X0031124Y0120294D02*
X0040961Y0120294D01*
X0039363Y0121893D02*
X0029864Y0121893D01*
X0028025Y0123491D02*
X0037764Y0123491D01*
X0036166Y0125090D02*
X0024323Y0125090D01*
X0019238Y0125090D02*
X0009600Y0125090D01*
X0009600Y0126688D02*
X0034567Y0126688D01*
X0032969Y0128287D02*
X0009600Y0128287D01*
X0009600Y0129885D02*
X0031370Y0129885D01*
X0029772Y0131484D02*
X0009600Y0131484D01*
X0009600Y0133082D02*
X0029000Y0133082D01*
X0029000Y0134681D02*
X0009600Y0134681D01*
X0009600Y0136279D02*
X0029000Y0136279D01*
X0029000Y0137878D02*
X0009600Y0137878D01*
X0009600Y0139476D02*
X0029000Y0139476D01*
X0029000Y0141075D02*
X0009600Y0141075D01*
X0009600Y0142673D02*
X0029000Y0142673D01*
X0029000Y0144272D02*
X0009600Y0144272D01*
X0009600Y0145870D02*
X0029000Y0145870D01*
X0029000Y0147469D02*
X0009600Y0147469D01*
X0009600Y0149068D02*
X0029000Y0149068D01*
X0029635Y0150666D02*
X0009600Y0150666D01*
X0009600Y0152265D02*
X0031234Y0152265D01*
X0032832Y0153863D02*
X0009600Y0153863D01*
X0009600Y0155462D02*
X0034431Y0155462D01*
X0036029Y0157060D02*
X0009600Y0157060D01*
X0009600Y0158659D02*
X0110826Y0158659D01*
X0109965Y0158162D02*
X0107899Y0156095D01*
X0106437Y0153564D01*
X0105681Y0150742D01*
X0105681Y0147819D01*
X0106437Y0144996D01*
X0107899Y0142465D01*
X0109965Y0140399D01*
X0112496Y0138938D01*
X0115319Y0138181D01*
X0118242Y0138181D01*
X0121064Y0138938D01*
X0123595Y0140399D01*
X0125662Y0142465D01*
X0127123Y0144996D01*
X0127880Y0147819D01*
X0127880Y0150742D01*
X0127123Y0153564D01*
X0125662Y0156095D01*
X0123595Y0158162D01*
X0121064Y0159623D01*
X0118242Y0160380D01*
X0115319Y0160380D01*
X0112496Y0159623D01*
X0109965Y0158162D01*
X0108863Y0157060D02*
X0090071Y0157060D01*
X0091669Y0155462D02*
X0107533Y0155462D01*
X0106610Y0153863D02*
X0093268Y0153863D01*
X0094866Y0152265D02*
X0106089Y0152265D01*
X0105681Y0150666D02*
X0096465Y0150666D01*
X0098063Y0149068D02*
X0105681Y0149068D01*
X0105775Y0147469D02*
X0099287Y0147469D01*
X0099600Y0145870D02*
X0106203Y0145870D01*
X0106856Y0144272D02*
X0099600Y0144272D01*
X0099600Y0142673D02*
X0107779Y0142673D01*
X0109289Y0141075D02*
X0099600Y0141075D01*
X0099600Y0139476D02*
X0111563Y0139476D01*
X0116958Y0134681D02*
X0099600Y0134681D01*
X0099600Y0136279D02*
X0128274Y0136279D01*
X0128395Y0136400D02*
X0125700Y0133705D01*
X0125700Y0129895D01*
X0128395Y0127200D01*
X0132205Y0127200D01*
X0133005Y0128000D01*
X0136539Y0128000D01*
X0137571Y0126968D01*
X0139666Y0126100D01*
X0141934Y0126100D01*
X0144029Y0126968D01*
X0145632Y0128571D01*
X0145800Y0128976D01*
X0145968Y0128571D01*
X0147571Y0126968D01*
X0149666Y0126100D01*
X0151934Y0126100D01*
X0154029Y0126968D01*
X0155632Y0128571D01*
X0156500Y0130666D01*
X0156500Y0132934D01*
X0155632Y0135029D01*
X0154029Y0136632D01*
X0151934Y0137500D01*
X0149666Y0137500D01*
X0147571Y0136632D01*
X0145968Y0135029D01*
X0145800Y0134624D01*
X0145632Y0135029D01*
X0144029Y0136632D01*
X0141934Y0137500D01*
X0139666Y0137500D01*
X0137571Y0136632D01*
X0136539Y0135600D01*
X0133005Y0135600D01*
X0132205Y0136400D01*
X0128395Y0136400D01*
X0126676Y0134681D02*
X0123642Y0134681D01*
X0124700Y0133623D02*
X0122123Y0136200D01*
X0120300Y0136200D01*
X0120300Y0131800D01*
X0124700Y0131800D01*
X0124700Y0133623D01*
X0124700Y0133082D02*
X0125700Y0133082D01*
X0125700Y0131484D02*
X0124700Y0131484D01*
X0124700Y0131800D02*
X0120300Y0131800D01*
X0120300Y0131800D01*
X0120300Y0131800D01*
X0120300Y0127400D01*
X0122123Y0127400D01*
X0124700Y0129977D01*
X0124700Y0131800D01*
X0124608Y0129885D02*
X0125709Y0129885D01*
X0127308Y0128287D02*
X0123009Y0128287D01*
X0120300Y0128287D02*
X0120300Y0128287D01*
X0120300Y0127400D02*
X0120300Y0131800D01*
X0120300Y0131800D01*
X0120300Y0131800D01*
X0115900Y0131800D01*
X0115900Y0133623D01*
X0118477Y0136200D01*
X0120300Y0136200D01*
X0120300Y0131800D01*
X0115900Y0131800D01*
X0115900Y0129977D01*
X0118477Y0127400D01*
X0120300Y0127400D01*
X0120300Y0129885D02*
X0120300Y0129885D01*
X0120300Y0131484D02*
X0120300Y0131484D01*
X0120300Y0133082D02*
X0120300Y0133082D01*
X0120300Y0134681D02*
X0120300Y0134681D01*
X0115900Y0133082D02*
X0099600Y0133082D01*
X0099600Y0131484D02*
X0115900Y0131484D01*
X0115992Y0129885D02*
X0099600Y0129885D01*
X0099600Y0128287D02*
X0117591Y0128287D01*
X0132326Y0136279D02*
X0137218Y0136279D01*
X0144382Y0136279D02*
X0147218Y0136279D01*
X0145824Y0134681D02*
X0145776Y0134681D01*
X0154382Y0136279D02*
X0163405Y0136279D01*
X0165004Y0137878D02*
X0099600Y0137878D01*
X0099600Y0126688D02*
X0138246Y0126688D01*
X0143354Y0126688D02*
X0148246Y0126688D01*
X0146252Y0128287D02*
X0145348Y0128287D01*
X0153354Y0126688D02*
X0159700Y0126688D01*
X0159700Y0125090D02*
X0100041Y0125090D01*
X0101640Y0123491D02*
X0160236Y0123491D01*
X0160500Y0121893D02*
X0154581Y0121893D01*
X0155521Y0120953D02*
X0155521Y0120953D01*
X0156180Y0120294D02*
X0160500Y0120294D01*
X0160500Y0118696D02*
X0157778Y0118696D01*
X0159377Y0117097D02*
X0161129Y0117097D01*
X0160975Y0115499D02*
X0162727Y0115499D01*
X0162574Y0113900D02*
X0164326Y0113900D01*
X0164172Y0112302D02*
X0165924Y0112302D01*
X0165771Y0110703D02*
X0167523Y0110703D01*
X0167369Y0109105D02*
X0169121Y0109105D01*
X0168968Y0107506D02*
X0170720Y0107506D01*
X0170566Y0105908D02*
X0172318Y0105908D01*
X0172165Y0104309D02*
X0173917Y0104309D01*
X0173036Y0102711D02*
X0175500Y0102711D01*
X0174512Y0101112D02*
X0174088Y0101112D01*
X0191877Y0117097D02*
X0196497Y0117097D01*
X0194899Y0118696D02*
X0190278Y0118696D01*
X0188680Y0120294D02*
X0194700Y0120294D01*
X0194700Y0121893D02*
X0188100Y0121893D01*
X0188364Y0123491D02*
X0193735Y0123491D01*
X0199687Y0128287D02*
X0205500Y0128287D01*
X0205500Y0129885D02*
X0198089Y0129885D01*
X0196490Y0131484D02*
X0204242Y0131484D01*
X0205500Y0126688D02*
X0201286Y0126688D01*
X0202672Y0125090D02*
X0205500Y0125090D01*
X0205486Y0123491D02*
X0203114Y0123491D01*
X0203900Y0121893D02*
X0204700Y0121893D01*
X0204700Y0120294D02*
X0203900Y0120294D01*
X0203701Y0118696D02*
X0204899Y0118696D01*
X0206497Y0117097D02*
X0202103Y0117097D01*
X0196672Y0112302D02*
X0225909Y0112302D01*
X0225909Y0113900D02*
X0195074Y0113900D01*
X0193475Y0115499D02*
X0225909Y0115499D01*
X0225909Y0117097D02*
X0222103Y0117097D01*
X0223701Y0118696D02*
X0225909Y0118696D01*
X0225909Y0120294D02*
X0223900Y0120294D01*
X0223900Y0121893D02*
X0225909Y0121893D01*
X0225909Y0123491D02*
X0223114Y0123491D01*
X0223100Y0125090D02*
X0225909Y0125090D01*
X0225909Y0126688D02*
X0223100Y0126688D01*
X0223100Y0128287D02*
X0225909Y0128287D01*
X0225909Y0129885D02*
X0223100Y0129885D01*
X0223100Y0131484D02*
X0225909Y0131484D01*
X0225909Y0133082D02*
X0222882Y0133082D01*
X0221793Y0134681D02*
X0225909Y0134681D01*
X0225909Y0136279D02*
X0220195Y0136279D01*
X0218596Y0137878D02*
X0225909Y0137878D01*
X0225909Y0139476D02*
X0216998Y0139476D01*
X0215399Y0141075D02*
X0225909Y0141075D01*
X0225909Y0142673D02*
X0213801Y0142673D01*
X0212202Y0144272D02*
X0225909Y0144272D01*
X0225909Y0145870D02*
X0127357Y0145870D01*
X0127786Y0147469D02*
X0225909Y0147469D01*
X0225909Y0149068D02*
X0150000Y0149068D01*
X0150000Y0148772D02*
X0150000Y0157828D01*
X0148828Y0159000D01*
X0139772Y0159000D01*
X0138600Y0157828D01*
X0138600Y0156739D01*
X0138495Y0156883D01*
X0137883Y0157495D01*
X0137183Y0158004D01*
X0136411Y0158397D01*
X0135588Y0158665D01*
X0134733Y0158800D01*
X0134500Y0158800D01*
X0134500Y0153500D01*
X0134100Y0153500D01*
X0134100Y0158800D01*
X0133867Y0158800D01*
X0133012Y0158665D01*
X0132189Y0158397D01*
X0131417Y0158004D01*
X0130717Y0157495D01*
X0130105Y0156883D01*
X0129596Y0156183D01*
X0129203Y0155411D01*
X0128935Y0154588D01*
X0128800Y0153733D01*
X0128800Y0153500D01*
X0134100Y0153500D01*
X0134100Y0153100D01*
X0134500Y0153100D01*
X0134500Y0147800D01*
X0134733Y0147800D01*
X0135588Y0147935D01*
X0136411Y0148203D01*
X0137183Y0148596D01*
X0137883Y0149105D01*
X0138495Y0149717D01*
X0138600Y0149861D01*
X0138600Y0148772D01*
X0139772Y0147600D01*
X0148828Y0147600D01*
X0150000Y0148772D01*
X0150000Y0150666D02*
X0225909Y0150666D01*
X0225909Y0152265D02*
X0187370Y0152265D01*
X0188518Y0153863D02*
X0225909Y0153863D01*
X0225909Y0155462D02*
X0188900Y0155462D01*
X0188900Y0157060D02*
X0196817Y0157060D01*
X0197477Y0156400D02*
X0194900Y0158977D01*
X0194900Y0160800D01*
X0199300Y0160800D01*
X0199300Y0160800D01*
X0203700Y0160800D01*
X0203700Y0158977D01*
X0201123Y0156400D01*
X0199300Y0156400D01*
X0199300Y0160800D01*
X0199300Y0160800D01*
X0199300Y0160800D01*
X0199300Y0156400D01*
X0197477Y0156400D01*
X0199300Y0157060D02*
X0199300Y0157060D01*
X0199300Y0158659D02*
X0199300Y0158659D01*
X0199300Y0160257D02*
X0199300Y0160257D01*
X0201783Y0157060D02*
X0206817Y0157060D01*
X0207477Y0156400D02*
X0204900Y0158977D01*
X0204900Y0160800D01*
X0209300Y0160800D01*
X0209300Y0160800D01*
X0213700Y0160800D01*
X0213700Y0158977D01*
X0211123Y0156400D01*
X0209300Y0156400D01*
X0209300Y0160800D01*
X0209300Y0160800D01*
X0209300Y0160800D01*
X0209300Y0156400D01*
X0207477Y0156400D01*
X0209300Y0157060D02*
X0209300Y0157060D01*
X0209300Y0158659D02*
X0209300Y0158659D01*
X0209300Y0160257D02*
X0209300Y0160257D01*
X0205219Y0158659D02*
X0203381Y0158659D01*
X0203700Y0160257D02*
X0204900Y0160257D01*
X0204900Y0161856D02*
X0203700Y0161856D01*
X0211783Y0157060D02*
X0216817Y0157060D01*
X0217477Y0156400D02*
X0214900Y0158977D01*
X0214900Y0160800D01*
X0219300Y0160800D01*
X0219300Y0160800D01*
X0223700Y0160800D01*
X0223700Y0158977D01*
X0221123Y0156400D01*
X0219300Y0156400D01*
X0219300Y0160800D01*
X0219300Y0160800D01*
X0219300Y0160800D01*
X0219300Y0156400D01*
X0217477Y0156400D01*
X0219300Y0157060D02*
X0219300Y0157060D01*
X0219300Y0158659D02*
X0219300Y0158659D01*
X0219300Y0160257D02*
X0219300Y0160257D01*
X0215219Y0158659D02*
X0213381Y0158659D01*
X0213700Y0160257D02*
X0214900Y0160257D01*
X0214900Y0161856D02*
X0213700Y0161856D01*
X0221783Y0157060D02*
X0225909Y0157060D01*
X0225909Y0158659D02*
X0223381Y0158659D01*
X0223700Y0160257D02*
X0225909Y0160257D01*
X0225379Y0161856D02*
X0223700Y0161856D01*
X0195219Y0158659D02*
X0188900Y0158659D01*
X0188900Y0160257D02*
X0194900Y0160257D01*
X0194900Y0161856D02*
X0188883Y0161856D01*
X0179717Y0161856D02*
X0178883Y0161856D01*
X0178900Y0160257D02*
X0179700Y0160257D01*
X0179700Y0158659D02*
X0178900Y0158659D01*
X0178900Y0157060D02*
X0179700Y0157060D01*
X0179700Y0155462D02*
X0178900Y0155462D01*
X0178518Y0153863D02*
X0180082Y0153863D01*
X0181230Y0152265D02*
X0177370Y0152265D01*
X0171230Y0152265D02*
X0167370Y0152265D01*
X0168518Y0153863D02*
X0170082Y0153863D01*
X0169700Y0155462D02*
X0168900Y0155462D01*
X0168900Y0157060D02*
X0169700Y0157060D01*
X0169700Y0158659D02*
X0168900Y0158659D01*
X0168900Y0160257D02*
X0169700Y0160257D01*
X0169717Y0161856D02*
X0168883Y0161856D01*
X0159717Y0161856D02*
X0010130Y0161856D01*
X0009632Y0160746D02*
X0009632Y0160746D01*
X0009600Y0160257D02*
X0114862Y0160257D01*
X0118698Y0160257D02*
X0159700Y0160257D01*
X0159700Y0158659D02*
X0149170Y0158659D01*
X0150000Y0157060D02*
X0159700Y0157060D01*
X0159700Y0155462D02*
X0150000Y0155462D01*
X0150000Y0153863D02*
X0160082Y0153863D01*
X0161230Y0152265D02*
X0150000Y0152265D01*
X0138600Y0149068D02*
X0137832Y0149068D01*
X0134500Y0149068D02*
X0134100Y0149068D01*
X0134100Y0147800D02*
X0134100Y0153100D01*
X0128800Y0153100D01*
X0128800Y0152867D01*
X0128935Y0152012D01*
X0129203Y0151189D01*
X0129596Y0150417D01*
X0130105Y0149717D01*
X0130717Y0149105D01*
X0131417Y0148596D01*
X0132189Y0148203D01*
X0133012Y0147935D01*
X0133867Y0147800D01*
X0134100Y0147800D01*
X0134100Y0150666D02*
X0134500Y0150666D01*
X0134500Y0152265D02*
X0134100Y0152265D01*
X0134100Y0153863D02*
X0134500Y0153863D01*
X0134500Y0155462D02*
X0134100Y0155462D01*
X0134100Y0157060D02*
X0134500Y0157060D01*
X0134500Y0158659D02*
X0134100Y0158659D01*
X0132994Y0158659D02*
X0122735Y0158659D01*
X0124697Y0157060D02*
X0130282Y0157060D01*
X0129229Y0155462D02*
X0126028Y0155462D01*
X0126951Y0153863D02*
X0128821Y0153863D01*
X0128895Y0152265D02*
X0127471Y0152265D01*
X0127880Y0150666D02*
X0129469Y0150666D01*
X0130768Y0149068D02*
X0127880Y0149068D01*
X0126705Y0144272D02*
X0171398Y0144272D01*
X0169799Y0142673D02*
X0125782Y0142673D01*
X0124272Y0141075D02*
X0168201Y0141075D01*
X0166602Y0139476D02*
X0121998Y0139476D01*
X0138318Y0157060D02*
X0138600Y0157060D01*
X0139430Y0158659D02*
X0135606Y0158659D01*
X0155776Y0134681D02*
X0161576Y0134681D01*
X0160225Y0133082D02*
X0156438Y0133082D01*
X0156500Y0131484D02*
X0159700Y0131484D01*
X0159700Y0129885D02*
X0156177Y0129885D01*
X0155348Y0128287D02*
X0159700Y0128287D01*
X0198271Y0110703D02*
X0225909Y0110703D01*
X0225909Y0109105D02*
X0199869Y0109105D01*
X0201468Y0107506D02*
X0225909Y0107506D01*
X0225909Y0105908D02*
X0202747Y0105908D01*
X0203100Y0104309D02*
X0225909Y0104309D01*
X0225909Y0102711D02*
X0214718Y0102711D01*
X0214800Y0101112D02*
X0225909Y0101112D01*
X0225909Y0099514D02*
X0214800Y0099514D01*
X0214800Y0097915D02*
X0225909Y0097915D01*
X0225909Y0096317D02*
X0214800Y0096317D01*
X0214800Y0094718D02*
X0225909Y0094718D01*
X0225909Y0093120D02*
X0213948Y0093120D01*
X0204652Y0093120D02*
X0203100Y0093120D01*
X0203100Y0091521D02*
X0225909Y0091521D01*
X0225909Y0089923D02*
X0202635Y0089923D01*
X0201198Y0088324D02*
X0225909Y0088324D01*
X0225909Y0086726D02*
X0199600Y0086726D01*
X0193071Y0085127D02*
X0225909Y0085127D01*
X0225909Y0083529D02*
X0193094Y0083529D01*
X0192304Y0081930D02*
X0225909Y0081930D01*
X0225909Y0080332D02*
X0208421Y0080332D01*
X0205140Y0080332D02*
X0183100Y0080332D01*
X0182764Y0078733D02*
X0200954Y0078733D01*
X0196653Y0073937D02*
X0033857Y0073937D01*
X0035456Y0072339D02*
X0196109Y0072339D01*
X0195681Y0070740D02*
X0036161Y0070740D01*
X0036595Y0069142D02*
X0195681Y0069142D01*
X0195755Y0067543D02*
X0036595Y0067543D01*
X0036595Y0065945D02*
X0196183Y0065945D01*
X0196813Y0064346D02*
X0036595Y0064346D01*
X0036595Y0062748D02*
X0197736Y0062748D01*
X0199215Y0061149D02*
X0036595Y0061149D01*
X0036595Y0059551D02*
X0201434Y0059551D01*
X0200394Y0053800D02*
X0198206Y0053800D01*
X0196184Y0052963D01*
X0194637Y0051415D01*
X0194300Y0050601D01*
X0193963Y0051415D01*
X0192415Y0052963D01*
X0190394Y0053800D01*
X0188206Y0053800D01*
X0186184Y0052963D01*
X0184637Y0051415D01*
X0184300Y0050601D01*
X0183963Y0051415D01*
X0182415Y0052963D01*
X0180394Y0053800D01*
X0178206Y0053800D01*
X0176184Y0052963D01*
X0174637Y0051415D01*
X0174300Y0050601D01*
X0173963Y0051415D01*
X0172415Y0052963D01*
X0170394Y0053800D01*
X0168206Y0053800D01*
X0166184Y0052963D01*
X0164637Y0051415D01*
X0164300Y0050601D01*
X0163963Y0051415D01*
X0162415Y0052963D01*
X0160394Y0053800D01*
X0158206Y0053800D01*
X0156184Y0052963D01*
X0154637Y0051415D01*
X0154300Y0050601D01*
X0153963Y0051415D01*
X0152415Y0052963D01*
X0150394Y0053800D01*
X0148206Y0053800D01*
X0146184Y0052963D01*
X0144637Y0051415D01*
X0144300Y0050601D01*
X0143963Y0051415D01*
X0142415Y0052963D01*
X0140394Y0053800D01*
X0138206Y0053800D01*
X0136184Y0052963D01*
X0134637Y0051415D01*
X0133800Y0049394D01*
X0133800Y0047206D01*
X0134637Y0045184D01*
X0136184Y0043637D01*
X0138206Y0042800D01*
X0140394Y0042800D01*
X0142415Y0043637D01*
X0143963Y0045184D01*
X0144300Y0045999D01*
X0144637Y0045184D01*
X0146184Y0043637D01*
X0148206Y0042800D01*
X0150394Y0042800D01*
X0152415Y0043637D01*
X0153963Y0045184D01*
X0154000Y0045275D01*
X0154000Y0043995D01*
X0151298Y0041293D01*
X0149807Y0039802D01*
X0149000Y0037854D01*
X0149000Y0030399D01*
X0148600Y0029434D01*
X0148600Y0027166D01*
X0149468Y0025071D01*
X0151071Y0023468D01*
X0153166Y0022600D01*
X0155434Y0022600D01*
X0157529Y0023468D01*
X0159132Y0025071D01*
X0159300Y0025476D01*
X0159468Y0025071D01*
X0161071Y0023468D01*
X0163166Y0022600D01*
X0165434Y0022600D01*
X0167529Y0023468D01*
X0169132Y0025071D01*
X0169300Y0025476D01*
X0169468Y0025071D01*
X0171071Y0023468D01*
X0173166Y0022600D01*
X0175434Y0022600D01*
X0177529Y0023468D01*
X0178600Y0024539D01*
X0178600Y0023772D01*
X0179772Y0022600D01*
X0188828Y0022600D01*
X0190000Y0023772D01*
X0190000Y0032828D01*
X0189600Y0033228D01*
X0189600Y0034605D01*
X0193793Y0038798D01*
X0194600Y0040746D01*
X0194600Y0045275D01*
X0194637Y0045184D01*
X0196184Y0043637D01*
X0198206Y0042800D01*
X0200394Y0042800D01*
X0202415Y0043637D01*
X0203963Y0045184D01*
X0204401Y0046242D01*
X0204767Y0045522D01*
X0205257Y0044847D01*
X0205847Y0044257D01*
X0206522Y0043767D01*
X0207266Y0043388D01*
X0208059Y0043130D01*
X0208883Y0043000D01*
X0209300Y0043000D01*
X0209717Y0043000D01*
X0210541Y0043130D01*
X0211334Y0043388D01*
X0212078Y0043767D01*
X0212753Y0044257D01*
X0213343Y0044847D01*
X0213833Y0045522D01*
X0214212Y0046266D01*
X0214469Y0047059D01*
X0214600Y0047883D01*
X0214600Y0048300D01*
X0214600Y0048717D01*
X0214469Y0049541D01*
X0214212Y0050334D01*
X0213833Y0051078D01*
X0213343Y0051753D01*
X0212753Y0052343D01*
X0212078Y0052833D01*
X0211334Y0053212D01*
X0210541Y0053469D01*
X0209717Y0053600D01*
X0209300Y0053600D01*
X0209300Y0048300D01*
X0209300Y0048300D01*
X0214600Y0048300D01*
X0209300Y0048300D01*
X0209300Y0048300D01*
X0209300Y0053600D01*
X0208883Y0053600D01*
X0208059Y0053469D01*
X0207266Y0053212D01*
X0206522Y0052833D01*
X0205847Y0052343D01*
X0205257Y0051753D01*
X0204767Y0051078D01*
X0204401Y0050358D01*
X0203963Y0051415D01*
X0202415Y0052963D01*
X0200394Y0053800D01*
X0201947Y0053157D02*
X0207158Y0053157D01*
X0209300Y0053157D02*
X0209300Y0053157D01*
X0209300Y0051558D02*
X0209300Y0051558D01*
X0209300Y0049960D02*
X0209300Y0049960D01*
X0209300Y0048361D02*
X0209300Y0048361D01*
X0209300Y0048300D02*
X0209300Y0043000D01*
X0209300Y0048300D01*
X0209300Y0048300D01*
X0209300Y0046763D02*
X0209300Y0046763D01*
X0209300Y0045164D02*
X0209300Y0045164D01*
X0209300Y0043566D02*
X0209300Y0043566D01*
X0211683Y0043566D02*
X0225909Y0043566D01*
X0225909Y0045164D02*
X0213573Y0045164D01*
X0214373Y0046763D02*
X0225909Y0046763D01*
X0225909Y0048361D02*
X0214600Y0048361D01*
X0214333Y0049960D02*
X0225909Y0049960D01*
X0225909Y0051558D02*
X0213484Y0051558D01*
X0211442Y0053157D02*
X0225909Y0053157D01*
X0225909Y0054755D02*
X0035704Y0054755D01*
X0036366Y0056354D02*
X0225909Y0056354D01*
X0225909Y0057952D02*
X0036595Y0057952D01*
X0034352Y0053157D02*
X0046653Y0053157D01*
X0051947Y0053157D02*
X0056653Y0053157D01*
X0054780Y0051558D02*
X0053820Y0051558D01*
X0053942Y0045164D02*
X0054658Y0045164D01*
X0056357Y0043566D02*
X0052243Y0043566D01*
X0053476Y0037172D02*
X0064000Y0037172D01*
X0064000Y0035573D02*
X0056223Y0035573D01*
X0057822Y0033975D02*
X0064000Y0033975D01*
X0064000Y0032376D02*
X0058897Y0032376D01*
X0059725Y0030778D02*
X0064000Y0030778D01*
X0063600Y0029179D02*
X0060153Y0029179D01*
X0060399Y0027581D02*
X0063600Y0027581D01*
X0064090Y0025982D02*
X0060399Y0025982D01*
X0060143Y0024384D02*
X0065155Y0024384D01*
X0067719Y0022785D02*
X0059715Y0022785D01*
X0058875Y0021187D02*
X0112150Y0021187D01*
X0112150Y0021167D02*
X0115167Y0018150D01*
X0119433Y0018150D01*
X0122450Y0021167D01*
X0122450Y0025433D01*
X0119433Y0028450D01*
X0115167Y0028450D01*
X0112150Y0025433D01*
X0112150Y0021167D01*
X0112150Y0022785D02*
X0104014Y0022785D01*
X0105000Y0024384D02*
X0112150Y0024384D01*
X0112699Y0025982D02*
X0105000Y0025982D01*
X0105000Y0027581D02*
X0114297Y0027581D01*
X0120303Y0027581D02*
X0128798Y0027581D01*
X0128706Y0027534D02*
X0128075Y0027076D01*
X0127524Y0026525D01*
X0127066Y0025894D01*
X0126713Y0025200D01*
X0126472Y0024459D01*
X0126350Y0023690D01*
X0126350Y0023300D01*
X0131300Y0023300D01*
X0136250Y0023300D01*
X0136250Y0023690D01*
X0136128Y0024459D01*
X0135887Y0025200D01*
X0135534Y0025894D01*
X0135076Y0026525D01*
X0134525Y0027076D01*
X0133894Y0027534D01*
X0133200Y0027887D01*
X0132459Y0028128D01*
X0131690Y0028250D01*
X0131300Y0028250D01*
X0131300Y0023300D01*
X0131300Y0023300D01*
X0131300Y0023300D01*
X0136250Y0023300D01*
X0136250Y0022910D01*
X0136128Y0022141D01*
X0135887Y0021400D01*
X0135534Y0020706D01*
X0135076Y0020075D01*
X0134525Y0019524D01*
X0133894Y0019066D01*
X0133200Y0018713D01*
X0132459Y0018472D01*
X0131690Y0018350D01*
X0131300Y0018350D01*
X0131300Y0023300D01*
X0131300Y0023300D01*
X0131300Y0023300D01*
X0131300Y0028250D01*
X0130910Y0028250D01*
X0130141Y0028128D01*
X0129400Y0027887D01*
X0128706Y0027534D01*
X0127130Y0025982D02*
X0121901Y0025982D01*
X0122450Y0024384D02*
X0126460Y0024384D01*
X0126350Y0023300D02*
X0126350Y0022910D01*
X0126472Y0022141D01*
X0126713Y0021400D01*
X0127066Y0020706D01*
X0127524Y0020075D01*
X0128075Y0019524D01*
X0128706Y0019066D01*
X0129400Y0018713D01*
X0130141Y0018472D01*
X0130910Y0018350D01*
X0131300Y0018350D01*
X0131300Y0023300D01*
X0126350Y0023300D01*
X0126370Y0022785D02*
X0122450Y0022785D01*
X0122450Y0021187D02*
X0126821Y0021187D01*
X0128012Y0019588D02*
X0120871Y0019588D01*
X0113729Y0019588D02*
X0057785Y0019588D01*
X0056186Y0017990D02*
X0225909Y0017990D01*
X0225909Y0019588D02*
X0219588Y0019588D01*
X0219525Y0019524D02*
X0220076Y0020075D01*
X0220534Y0020706D01*
X0220887Y0021400D01*
X0221128Y0022141D01*
X0221250Y0022910D01*
X0221250Y0023300D01*
X0221250Y0023690D01*
X0221128Y0024459D01*
X0220887Y0025200D01*
X0220534Y0025894D01*
X0220076Y0026525D01*
X0219525Y0027076D01*
X0218894Y0027534D01*
X0218200Y0027887D01*
X0217459Y0028128D01*
X0216690Y0028250D01*
X0216300Y0028250D01*
X0216300Y0023300D01*
X0221250Y0023300D01*
X0216300Y0023300D01*
X0216300Y0023300D01*
X0216300Y0023300D01*
X0216300Y0018350D01*
X0216690Y0018350D01*
X0217459Y0018472D01*
X0218200Y0018713D01*
X0218894Y0019066D01*
X0219525Y0019524D01*
X0220779Y0021187D02*
X0225909Y0021187D01*
X0225909Y0022785D02*
X0221230Y0022785D01*
X0221140Y0024384D02*
X0225909Y0024384D01*
X0225909Y0025982D02*
X0220470Y0025982D01*
X0218802Y0027581D02*
X0225909Y0027581D01*
X0225909Y0029179D02*
X0190000Y0029179D01*
X0190000Y0027581D02*
X0199297Y0027581D01*
X0200167Y0028450D02*
X0197150Y0025433D01*
X0197150Y0021167D01*
X0200167Y0018150D01*
X0204433Y0018150D01*
X0207450Y0021167D01*
X0207450Y0025433D01*
X0204433Y0028450D01*
X0200167Y0028450D01*
X0197699Y0025982D02*
X0190000Y0025982D01*
X0190000Y0024384D02*
X0197150Y0024384D01*
X0197150Y0022785D02*
X0189014Y0022785D01*
X0197150Y0021187D02*
X0135779Y0021187D01*
X0136230Y0022785D02*
X0152719Y0022785D01*
X0155881Y0022785D02*
X0162719Y0022785D01*
X0160155Y0024384D02*
X0158445Y0024384D01*
X0165881Y0022785D02*
X0172719Y0022785D01*
X0170155Y0024384D02*
X0168445Y0024384D01*
X0175881Y0022785D02*
X0179586Y0022785D01*
X0178600Y0024384D02*
X0178445Y0024384D01*
X0190000Y0030778D02*
X0225909Y0030778D01*
X0225909Y0032376D02*
X0190000Y0032376D01*
X0189600Y0033975D02*
X0225909Y0033975D01*
X0225909Y0035573D02*
X0190569Y0035573D01*
X0192167Y0037172D02*
X0225909Y0037172D01*
X0225909Y0038770D02*
X0193766Y0038770D01*
X0194444Y0040369D02*
X0225909Y0040369D01*
X0225909Y0041967D02*
X0194600Y0041967D01*
X0194600Y0043566D02*
X0196357Y0043566D01*
X0194658Y0045164D02*
X0194600Y0045164D01*
X0202243Y0043566D02*
X0206917Y0043566D01*
X0205027Y0045164D02*
X0203942Y0045164D01*
X0203820Y0051558D02*
X0205116Y0051558D01*
X0196653Y0053157D02*
X0191947Y0053157D01*
X0193820Y0051558D02*
X0194780Y0051558D01*
X0186653Y0053157D02*
X0181947Y0053157D01*
X0183820Y0051558D02*
X0184780Y0051558D01*
X0176653Y0053157D02*
X0171947Y0053157D01*
X0173820Y0051558D02*
X0174780Y0051558D01*
X0166653Y0053157D02*
X0161947Y0053157D01*
X0163820Y0051558D02*
X0164780Y0051558D01*
X0156653Y0053157D02*
X0151947Y0053157D01*
X0153820Y0051558D02*
X0154780Y0051558D01*
X0146653Y0053157D02*
X0141947Y0053157D01*
X0143820Y0051558D02*
X0144780Y0051558D01*
X0136653Y0053157D02*
X0121442Y0053157D01*
X0119300Y0053157D02*
X0119300Y0053157D01*
X0119300Y0051558D02*
X0119300Y0051558D01*
X0119300Y0049960D02*
X0119300Y0049960D01*
X0119300Y0048361D02*
X0119300Y0048361D01*
X0119300Y0046763D02*
X0119300Y0046763D01*
X0119300Y0045164D02*
X0119300Y0045164D01*
X0119300Y0043566D02*
X0119300Y0043566D01*
X0121683Y0043566D02*
X0136357Y0043566D01*
X0134658Y0045164D02*
X0123573Y0045164D01*
X0124373Y0046763D02*
X0133984Y0046763D01*
X0133800Y0048361D02*
X0124600Y0048361D01*
X0124333Y0049960D02*
X0134034Y0049960D01*
X0134780Y0051558D02*
X0123484Y0051558D01*
X0117158Y0053157D02*
X0111947Y0053157D01*
X0113820Y0051558D02*
X0115116Y0051558D01*
X0115027Y0045164D02*
X0113942Y0045164D01*
X0112243Y0043566D02*
X0116917Y0043566D01*
X0106357Y0043566D02*
X0104600Y0043566D01*
X0104600Y0045164D02*
X0104658Y0045164D01*
X0104600Y0041967D02*
X0151972Y0041967D01*
X0152243Y0043566D02*
X0153570Y0043566D01*
X0153942Y0045164D02*
X0154000Y0045164D01*
X0150373Y0040369D02*
X0104600Y0040369D01*
X0104600Y0038770D02*
X0149379Y0038770D01*
X0149000Y0037172D02*
X0104600Y0037172D01*
X0104600Y0035573D02*
X0149000Y0035573D01*
X0149000Y0033975D02*
X0104600Y0033975D01*
X0105000Y0032376D02*
X0149000Y0032376D01*
X0149000Y0030778D02*
X0105000Y0030778D01*
X0105000Y0029179D02*
X0148600Y0029179D01*
X0148600Y0027581D02*
X0133802Y0027581D01*
X0135470Y0025982D02*
X0149090Y0025982D01*
X0150155Y0024384D02*
X0136140Y0024384D01*
X0131300Y0024384D02*
X0131300Y0024384D01*
X0131300Y0025982D02*
X0131300Y0025982D01*
X0131300Y0027581D02*
X0131300Y0027581D01*
X0131300Y0022785D02*
X0131300Y0022785D01*
X0131300Y0021187D02*
X0131300Y0021187D01*
X0131300Y0019588D02*
X0131300Y0019588D01*
X0134588Y0019588D02*
X0198729Y0019588D01*
X0205871Y0019588D02*
X0213012Y0019588D01*
X0213075Y0019524D02*
X0213706Y0019066D01*
X0214400Y0018713D01*
X0215141Y0018472D01*
X0215910Y0018350D01*
X0216300Y0018350D01*
X0216300Y0023300D01*
X0216300Y0023300D01*
X0216300Y0023300D01*
X0211350Y0023300D01*
X0211350Y0023690D01*
X0211472Y0024459D01*
X0211713Y0025200D01*
X0212066Y0025894D01*
X0212524Y0026525D01*
X0213075Y0027076D01*
X0213706Y0027534D01*
X0214400Y0027887D01*
X0215141Y0028128D01*
X0215910Y0028250D01*
X0216300Y0028250D01*
X0216300Y0023300D01*
X0211350Y0023300D01*
X0211350Y0022910D01*
X0211472Y0022141D01*
X0211713Y0021400D01*
X0212066Y0020706D01*
X0212524Y0020075D01*
X0213075Y0019524D01*
X0211821Y0021187D02*
X0207450Y0021187D01*
X0207450Y0022785D02*
X0211370Y0022785D01*
X0211460Y0024384D02*
X0207450Y0024384D01*
X0206901Y0025982D02*
X0212130Y0025982D01*
X0213798Y0027581D02*
X0205303Y0027581D01*
X0216300Y0027581D02*
X0216300Y0027581D01*
X0216300Y0025982D02*
X0216300Y0025982D01*
X0216300Y0024384D02*
X0216300Y0024384D01*
X0216300Y0022785D02*
X0216300Y0022785D01*
X0216300Y0021187D02*
X0216300Y0021187D01*
X0216300Y0019588D02*
X0216300Y0019588D01*
X0225909Y0016391D02*
X0053337Y0016391D01*
X0070881Y0022785D02*
X0077719Y0022785D01*
X0075155Y0024384D02*
X0073445Y0024384D01*
X0080881Y0022785D02*
X0087719Y0022785D01*
X0085155Y0024384D02*
X0083445Y0024384D01*
X0090881Y0022785D02*
X0094586Y0022785D01*
X0093600Y0024384D02*
X0093445Y0024384D01*
X0093820Y0051558D02*
X0094780Y0051558D01*
X0096653Y0053157D02*
X0091947Y0053157D01*
X0086653Y0053157D02*
X0081947Y0053157D01*
X0083820Y0051558D02*
X0084780Y0051558D01*
X0101947Y0053157D02*
X0106653Y0053157D01*
X0104780Y0051558D02*
X0103820Y0051558D01*
X0142243Y0043566D02*
X0146357Y0043566D01*
X0144658Y0045164D02*
X0143942Y0045164D01*
X0212127Y0059551D02*
X0225909Y0059551D01*
X0225909Y0061149D02*
X0214346Y0061149D01*
X0215825Y0062748D02*
X0225909Y0062748D01*
X0225909Y0064346D02*
X0216748Y0064346D01*
X0217377Y0065945D02*
X0225909Y0065945D01*
X0225909Y0067543D02*
X0217806Y0067543D01*
X0217880Y0069142D02*
X0225909Y0069142D01*
X0225909Y0070740D02*
X0217880Y0070740D01*
X0217451Y0072339D02*
X0225909Y0072339D01*
X0225909Y0073937D02*
X0216908Y0073937D01*
X0212606Y0078733D02*
X0225909Y0078733D01*
X0203800Y0094718D02*
X0203496Y0094718D01*
X0203100Y0102711D02*
X0203882Y0102711D01*
X0212103Y0117097D02*
X0216497Y0117097D01*
X0214899Y0118696D02*
X0213701Y0118696D01*
X0213900Y0120294D02*
X0214700Y0120294D01*
X0214700Y0121893D02*
X0213900Y0121893D01*
X0213114Y0123491D02*
X0215486Y0123491D01*
X0215500Y0125090D02*
X0213100Y0125090D01*
X0213100Y0126688D02*
X0215500Y0126688D01*
X0215500Y0128287D02*
X0213100Y0128287D01*
X0213100Y0129885D02*
X0215500Y0129885D01*
X0214242Y0131484D02*
X0213100Y0131484D01*
X0074186Y0157060D02*
X0054414Y0157060D01*
X0056012Y0155462D02*
X0072588Y0155462D01*
X0073579Y0156453D02*
X0073579Y0156453D01*
X0071041Y0153863D02*
X0065764Y0153863D01*
X0062836Y0153863D02*
X0057559Y0153863D01*
X0058396Y0152265D02*
X0060204Y0152265D01*
X0068396Y0152265D02*
X0070204Y0152265D01*
X0015536Y0123491D02*
X0009600Y0123491D01*
X0009600Y0121893D02*
X0013696Y0121893D01*
X0012436Y0120294D02*
X0009600Y0120294D01*
X0009600Y0118696D02*
X0011513Y0118696D01*
X0011044Y0117097D02*
X0009600Y0117097D01*
X0009600Y0115499D02*
X0010681Y0115499D01*
X0010681Y0113900D02*
X0009600Y0113900D01*
X0009600Y0112302D02*
X0010820Y0112302D01*
X0011248Y0110703D02*
X0009600Y0110703D01*
X0009600Y0109105D02*
X0011952Y0109105D01*
X0012875Y0107506D02*
X0009600Y0107506D01*
X0009600Y0105908D02*
X0014456Y0105908D01*
X0014300Y0086726D02*
X0014300Y0086726D01*
X0014300Y0085127D02*
X0014300Y0085127D01*
X0014300Y0083529D02*
X0014300Y0083529D01*
X0014300Y0083300D02*
X0009900Y0083300D01*
X0009900Y0081477D01*
X0012477Y0078900D01*
X0014300Y0078900D01*
X0014300Y0083300D01*
X0014300Y0083300D01*
X0014300Y0081930D02*
X0014300Y0081930D01*
X0014300Y0080332D02*
X0014300Y0080332D01*
X0011046Y0080332D02*
X0009600Y0080332D01*
X0009600Y0081930D02*
X0009900Y0081930D01*
X0009900Y0083529D02*
X0009600Y0083529D01*
X0009600Y0085127D02*
X0009905Y0085127D01*
X0009600Y0086726D02*
X0011503Y0086726D01*
X0017828Y0073937D02*
X0025333Y0073937D01*
X0023735Y0072339D02*
X0019477Y0072339D01*
X0020354Y0070740D02*
X0023029Y0070740D01*
X0022595Y0069142D02*
X0020753Y0069142D01*
X0020805Y0067543D02*
X0022595Y0067543D01*
X0022595Y0065945D02*
X0020805Y0065945D01*
X0020805Y0064346D02*
X0022595Y0064346D01*
X0022595Y0062748D02*
X0020805Y0062748D01*
X0020805Y0061149D02*
X0022595Y0061149D01*
X0022595Y0059551D02*
X0020805Y0059551D01*
X0020805Y0057952D02*
X0022595Y0057952D01*
X0022825Y0056354D02*
X0020523Y0056354D01*
X0019810Y0054755D02*
X0023487Y0054755D01*
X0024839Y0053157D02*
X0018472Y0053157D01*
D23*
X0049300Y0098300D02*
X0049300Y0117329D01*
X0032800Y0133829D01*
X0032800Y0148457D01*
X0038643Y0154300D01*
X0051800Y0154300D01*
X0054300Y0151800D01*
X0054300Y0148300D01*
X0044300Y0148300D02*
X0043300Y0149300D01*
X0039300Y0149300D01*
X0036800Y0146800D01*
X0036800Y0135486D01*
X0059300Y0112986D01*
X0059300Y0098300D01*
X0069300Y0098300D02*
X0069300Y0108643D01*
X0044300Y0133643D01*
X0044300Y0138300D01*
X0054300Y0138300D02*
X0054300Y0129300D01*
X0079300Y0104300D01*
X0079300Y0098300D01*
X0089300Y0098300D02*
X0106300Y0081300D01*
X0178300Y0081300D01*
X0179300Y0080300D01*
X0184300Y0084300D02*
X0189300Y0084300D01*
X0184300Y0084300D02*
X0183300Y0085300D01*
X0110143Y0085300D01*
X0099300Y0096143D01*
X0099300Y0098300D01*
X0109300Y0098300D02*
X0109300Y0091800D01*
X0111800Y0089300D01*
X0196800Y0089300D01*
X0199300Y0091800D01*
X0199300Y0098300D01*
X0199300Y0104300D01*
X0184300Y0119300D01*
X0184300Y0128300D01*
X0194300Y0128300D01*
X0199300Y0123300D01*
X0199300Y0120800D01*
X0209300Y0120800D02*
X0209300Y0131800D01*
X0204300Y0136800D01*
X0179300Y0136800D01*
X0174300Y0131800D01*
X0174300Y0128300D01*
X0174300Y0119300D01*
X0189300Y0104300D01*
X0189300Y0098300D01*
X0179300Y0098300D02*
X0179300Y0104300D01*
X0164300Y0119300D01*
X0164300Y0128300D01*
X0164300Y0131800D01*
X0174300Y0141800D01*
X0209300Y0141800D01*
X0219300Y0131800D01*
X0219300Y0120800D01*
X0169300Y0101800D02*
X0169300Y0098300D01*
X0169300Y0101800D02*
X0152300Y0118800D01*
X0100957Y0118800D01*
X0095800Y0123957D01*
X0095800Y0145957D01*
X0087457Y0154300D01*
X0076800Y0154300D01*
X0074300Y0151800D01*
X0074300Y0148300D01*
X0084300Y0148300D02*
X0087800Y0148300D01*
X0091800Y0144300D01*
X0091800Y0122300D01*
X0099300Y0114800D01*
X0146300Y0114800D01*
X0159300Y0101800D01*
X0159300Y0098300D01*
X0149300Y0098300D02*
X0149300Y0101800D01*
X0140300Y0110800D01*
X0097643Y0110800D01*
X0084300Y0124143D01*
X0084300Y0138300D01*
X0074300Y0138300D02*
X0074300Y0128486D01*
X0095986Y0106800D01*
X0134300Y0106800D01*
X0139300Y0101800D01*
X0139300Y0098300D01*
X0140800Y0131800D02*
X0130300Y0131800D01*
D24*
X0189300Y0084300D03*
X0179300Y0080300D03*
M02*
