G75*
%MOIN*%
%OFA0B0*%
%FSLAX25Y25*%
%IPPOS*%
%LPD*%
%AMOC8*
5,1,8,0,0,1.08239X$1,22.5*
%
%ADD10C,0.00000*%
%ADD11C,0.01000*%
%ADD12C,0.00100*%
%ADD13C,0.00800*%
D10*
X0043001Y0026800D02*
X0043003Y0026958D01*
X0043009Y0027116D01*
X0043019Y0027274D01*
X0043033Y0027432D01*
X0043051Y0027589D01*
X0043072Y0027746D01*
X0043098Y0027902D01*
X0043128Y0028058D01*
X0043161Y0028213D01*
X0043199Y0028366D01*
X0043240Y0028519D01*
X0043285Y0028671D01*
X0043334Y0028822D01*
X0043387Y0028971D01*
X0043443Y0029119D01*
X0043503Y0029265D01*
X0043567Y0029410D01*
X0043635Y0029553D01*
X0043706Y0029695D01*
X0043780Y0029835D01*
X0043858Y0029972D01*
X0043940Y0030108D01*
X0044024Y0030242D01*
X0044113Y0030373D01*
X0044204Y0030502D01*
X0044299Y0030629D01*
X0044396Y0030754D01*
X0044497Y0030876D01*
X0044601Y0030995D01*
X0044708Y0031112D01*
X0044818Y0031226D01*
X0044931Y0031337D01*
X0045046Y0031446D01*
X0045164Y0031551D01*
X0045285Y0031653D01*
X0045408Y0031753D01*
X0045534Y0031849D01*
X0045662Y0031942D01*
X0045792Y0032032D01*
X0045925Y0032118D01*
X0046060Y0032202D01*
X0046196Y0032281D01*
X0046335Y0032358D01*
X0046476Y0032430D01*
X0046618Y0032500D01*
X0046762Y0032565D01*
X0046908Y0032627D01*
X0047055Y0032685D01*
X0047204Y0032740D01*
X0047354Y0032791D01*
X0047505Y0032838D01*
X0047657Y0032881D01*
X0047810Y0032920D01*
X0047965Y0032956D01*
X0048120Y0032987D01*
X0048276Y0033015D01*
X0048432Y0033039D01*
X0048589Y0033059D01*
X0048747Y0033075D01*
X0048904Y0033087D01*
X0049063Y0033095D01*
X0049221Y0033099D01*
X0049379Y0033099D01*
X0049537Y0033095D01*
X0049696Y0033087D01*
X0049853Y0033075D01*
X0050011Y0033059D01*
X0050168Y0033039D01*
X0050324Y0033015D01*
X0050480Y0032987D01*
X0050635Y0032956D01*
X0050790Y0032920D01*
X0050943Y0032881D01*
X0051095Y0032838D01*
X0051246Y0032791D01*
X0051396Y0032740D01*
X0051545Y0032685D01*
X0051692Y0032627D01*
X0051838Y0032565D01*
X0051982Y0032500D01*
X0052124Y0032430D01*
X0052265Y0032358D01*
X0052404Y0032281D01*
X0052540Y0032202D01*
X0052675Y0032118D01*
X0052808Y0032032D01*
X0052938Y0031942D01*
X0053066Y0031849D01*
X0053192Y0031753D01*
X0053315Y0031653D01*
X0053436Y0031551D01*
X0053554Y0031446D01*
X0053669Y0031337D01*
X0053782Y0031226D01*
X0053892Y0031112D01*
X0053999Y0030995D01*
X0054103Y0030876D01*
X0054204Y0030754D01*
X0054301Y0030629D01*
X0054396Y0030502D01*
X0054487Y0030373D01*
X0054576Y0030242D01*
X0054660Y0030108D01*
X0054742Y0029972D01*
X0054820Y0029835D01*
X0054894Y0029695D01*
X0054965Y0029553D01*
X0055033Y0029410D01*
X0055097Y0029265D01*
X0055157Y0029119D01*
X0055213Y0028971D01*
X0055266Y0028822D01*
X0055315Y0028671D01*
X0055360Y0028519D01*
X0055401Y0028366D01*
X0055439Y0028213D01*
X0055472Y0028058D01*
X0055502Y0027902D01*
X0055528Y0027746D01*
X0055549Y0027589D01*
X0055567Y0027432D01*
X0055581Y0027274D01*
X0055591Y0027116D01*
X0055597Y0026958D01*
X0055599Y0026800D01*
X0055597Y0026642D01*
X0055591Y0026484D01*
X0055581Y0026326D01*
X0055567Y0026168D01*
X0055549Y0026011D01*
X0055528Y0025854D01*
X0055502Y0025698D01*
X0055472Y0025542D01*
X0055439Y0025387D01*
X0055401Y0025234D01*
X0055360Y0025081D01*
X0055315Y0024929D01*
X0055266Y0024778D01*
X0055213Y0024629D01*
X0055157Y0024481D01*
X0055097Y0024335D01*
X0055033Y0024190D01*
X0054965Y0024047D01*
X0054894Y0023905D01*
X0054820Y0023765D01*
X0054742Y0023628D01*
X0054660Y0023492D01*
X0054576Y0023358D01*
X0054487Y0023227D01*
X0054396Y0023098D01*
X0054301Y0022971D01*
X0054204Y0022846D01*
X0054103Y0022724D01*
X0053999Y0022605D01*
X0053892Y0022488D01*
X0053782Y0022374D01*
X0053669Y0022263D01*
X0053554Y0022154D01*
X0053436Y0022049D01*
X0053315Y0021947D01*
X0053192Y0021847D01*
X0053066Y0021751D01*
X0052938Y0021658D01*
X0052808Y0021568D01*
X0052675Y0021482D01*
X0052540Y0021398D01*
X0052404Y0021319D01*
X0052265Y0021242D01*
X0052124Y0021170D01*
X0051982Y0021100D01*
X0051838Y0021035D01*
X0051692Y0020973D01*
X0051545Y0020915D01*
X0051396Y0020860D01*
X0051246Y0020809D01*
X0051095Y0020762D01*
X0050943Y0020719D01*
X0050790Y0020680D01*
X0050635Y0020644D01*
X0050480Y0020613D01*
X0050324Y0020585D01*
X0050168Y0020561D01*
X0050011Y0020541D01*
X0049853Y0020525D01*
X0049696Y0020513D01*
X0049537Y0020505D01*
X0049379Y0020501D01*
X0049221Y0020501D01*
X0049063Y0020505D01*
X0048904Y0020513D01*
X0048747Y0020525D01*
X0048589Y0020541D01*
X0048432Y0020561D01*
X0048276Y0020585D01*
X0048120Y0020613D01*
X0047965Y0020644D01*
X0047810Y0020680D01*
X0047657Y0020719D01*
X0047505Y0020762D01*
X0047354Y0020809D01*
X0047204Y0020860D01*
X0047055Y0020915D01*
X0046908Y0020973D01*
X0046762Y0021035D01*
X0046618Y0021100D01*
X0046476Y0021170D01*
X0046335Y0021242D01*
X0046196Y0021319D01*
X0046060Y0021398D01*
X0045925Y0021482D01*
X0045792Y0021568D01*
X0045662Y0021658D01*
X0045534Y0021751D01*
X0045408Y0021847D01*
X0045285Y0021947D01*
X0045164Y0022049D01*
X0045046Y0022154D01*
X0044931Y0022263D01*
X0044818Y0022374D01*
X0044708Y0022488D01*
X0044601Y0022605D01*
X0044497Y0022724D01*
X0044396Y0022846D01*
X0044299Y0022971D01*
X0044204Y0023098D01*
X0044113Y0023227D01*
X0044024Y0023358D01*
X0043940Y0023492D01*
X0043858Y0023628D01*
X0043780Y0023765D01*
X0043706Y0023905D01*
X0043635Y0024047D01*
X0043567Y0024190D01*
X0043503Y0024335D01*
X0043443Y0024481D01*
X0043387Y0024629D01*
X0043334Y0024778D01*
X0043285Y0024929D01*
X0043240Y0025081D01*
X0043199Y0025234D01*
X0043161Y0025387D01*
X0043128Y0025542D01*
X0043098Y0025698D01*
X0043072Y0025854D01*
X0043051Y0026011D01*
X0043033Y0026168D01*
X0043019Y0026326D01*
X0043009Y0026484D01*
X0043003Y0026642D01*
X0043001Y0026800D01*
X0015481Y0114280D02*
X0015483Y0114438D01*
X0015489Y0114596D01*
X0015499Y0114754D01*
X0015513Y0114912D01*
X0015531Y0115069D01*
X0015552Y0115226D01*
X0015578Y0115382D01*
X0015608Y0115538D01*
X0015641Y0115693D01*
X0015679Y0115846D01*
X0015720Y0115999D01*
X0015765Y0116151D01*
X0015814Y0116302D01*
X0015867Y0116451D01*
X0015923Y0116599D01*
X0015983Y0116745D01*
X0016047Y0116890D01*
X0016115Y0117033D01*
X0016186Y0117175D01*
X0016260Y0117315D01*
X0016338Y0117452D01*
X0016420Y0117588D01*
X0016504Y0117722D01*
X0016593Y0117853D01*
X0016684Y0117982D01*
X0016779Y0118109D01*
X0016876Y0118234D01*
X0016977Y0118356D01*
X0017081Y0118475D01*
X0017188Y0118592D01*
X0017298Y0118706D01*
X0017411Y0118817D01*
X0017526Y0118926D01*
X0017644Y0119031D01*
X0017765Y0119133D01*
X0017888Y0119233D01*
X0018014Y0119329D01*
X0018142Y0119422D01*
X0018272Y0119512D01*
X0018405Y0119598D01*
X0018540Y0119682D01*
X0018676Y0119761D01*
X0018815Y0119838D01*
X0018956Y0119910D01*
X0019098Y0119980D01*
X0019242Y0120045D01*
X0019388Y0120107D01*
X0019535Y0120165D01*
X0019684Y0120220D01*
X0019834Y0120271D01*
X0019985Y0120318D01*
X0020137Y0120361D01*
X0020290Y0120400D01*
X0020445Y0120436D01*
X0020600Y0120467D01*
X0020756Y0120495D01*
X0020912Y0120519D01*
X0021069Y0120539D01*
X0021227Y0120555D01*
X0021384Y0120567D01*
X0021543Y0120575D01*
X0021701Y0120579D01*
X0021859Y0120579D01*
X0022017Y0120575D01*
X0022176Y0120567D01*
X0022333Y0120555D01*
X0022491Y0120539D01*
X0022648Y0120519D01*
X0022804Y0120495D01*
X0022960Y0120467D01*
X0023115Y0120436D01*
X0023270Y0120400D01*
X0023423Y0120361D01*
X0023575Y0120318D01*
X0023726Y0120271D01*
X0023876Y0120220D01*
X0024025Y0120165D01*
X0024172Y0120107D01*
X0024318Y0120045D01*
X0024462Y0119980D01*
X0024604Y0119910D01*
X0024745Y0119838D01*
X0024884Y0119761D01*
X0025020Y0119682D01*
X0025155Y0119598D01*
X0025288Y0119512D01*
X0025418Y0119422D01*
X0025546Y0119329D01*
X0025672Y0119233D01*
X0025795Y0119133D01*
X0025916Y0119031D01*
X0026034Y0118926D01*
X0026149Y0118817D01*
X0026262Y0118706D01*
X0026372Y0118592D01*
X0026479Y0118475D01*
X0026583Y0118356D01*
X0026684Y0118234D01*
X0026781Y0118109D01*
X0026876Y0117982D01*
X0026967Y0117853D01*
X0027056Y0117722D01*
X0027140Y0117588D01*
X0027222Y0117452D01*
X0027300Y0117315D01*
X0027374Y0117175D01*
X0027445Y0117033D01*
X0027513Y0116890D01*
X0027577Y0116745D01*
X0027637Y0116599D01*
X0027693Y0116451D01*
X0027746Y0116302D01*
X0027795Y0116151D01*
X0027840Y0115999D01*
X0027881Y0115846D01*
X0027919Y0115693D01*
X0027952Y0115538D01*
X0027982Y0115382D01*
X0028008Y0115226D01*
X0028029Y0115069D01*
X0028047Y0114912D01*
X0028061Y0114754D01*
X0028071Y0114596D01*
X0028077Y0114438D01*
X0028079Y0114280D01*
X0028077Y0114122D01*
X0028071Y0113964D01*
X0028061Y0113806D01*
X0028047Y0113648D01*
X0028029Y0113491D01*
X0028008Y0113334D01*
X0027982Y0113178D01*
X0027952Y0113022D01*
X0027919Y0112867D01*
X0027881Y0112714D01*
X0027840Y0112561D01*
X0027795Y0112409D01*
X0027746Y0112258D01*
X0027693Y0112109D01*
X0027637Y0111961D01*
X0027577Y0111815D01*
X0027513Y0111670D01*
X0027445Y0111527D01*
X0027374Y0111385D01*
X0027300Y0111245D01*
X0027222Y0111108D01*
X0027140Y0110972D01*
X0027056Y0110838D01*
X0026967Y0110707D01*
X0026876Y0110578D01*
X0026781Y0110451D01*
X0026684Y0110326D01*
X0026583Y0110204D01*
X0026479Y0110085D01*
X0026372Y0109968D01*
X0026262Y0109854D01*
X0026149Y0109743D01*
X0026034Y0109634D01*
X0025916Y0109529D01*
X0025795Y0109427D01*
X0025672Y0109327D01*
X0025546Y0109231D01*
X0025418Y0109138D01*
X0025288Y0109048D01*
X0025155Y0108962D01*
X0025020Y0108878D01*
X0024884Y0108799D01*
X0024745Y0108722D01*
X0024604Y0108650D01*
X0024462Y0108580D01*
X0024318Y0108515D01*
X0024172Y0108453D01*
X0024025Y0108395D01*
X0023876Y0108340D01*
X0023726Y0108289D01*
X0023575Y0108242D01*
X0023423Y0108199D01*
X0023270Y0108160D01*
X0023115Y0108124D01*
X0022960Y0108093D01*
X0022804Y0108065D01*
X0022648Y0108041D01*
X0022491Y0108021D01*
X0022333Y0108005D01*
X0022176Y0107993D01*
X0022017Y0107985D01*
X0021859Y0107981D01*
X0021701Y0107981D01*
X0021543Y0107985D01*
X0021384Y0107993D01*
X0021227Y0108005D01*
X0021069Y0108021D01*
X0020912Y0108041D01*
X0020756Y0108065D01*
X0020600Y0108093D01*
X0020445Y0108124D01*
X0020290Y0108160D01*
X0020137Y0108199D01*
X0019985Y0108242D01*
X0019834Y0108289D01*
X0019684Y0108340D01*
X0019535Y0108395D01*
X0019388Y0108453D01*
X0019242Y0108515D01*
X0019098Y0108580D01*
X0018956Y0108650D01*
X0018815Y0108722D01*
X0018676Y0108799D01*
X0018540Y0108878D01*
X0018405Y0108962D01*
X0018272Y0109048D01*
X0018142Y0109138D01*
X0018014Y0109231D01*
X0017888Y0109327D01*
X0017765Y0109427D01*
X0017644Y0109529D01*
X0017526Y0109634D01*
X0017411Y0109743D01*
X0017298Y0109854D01*
X0017188Y0109968D01*
X0017081Y0110085D01*
X0016977Y0110204D01*
X0016876Y0110326D01*
X0016779Y0110451D01*
X0016684Y0110578D01*
X0016593Y0110707D01*
X0016504Y0110838D01*
X0016420Y0110972D01*
X0016338Y0111108D01*
X0016260Y0111245D01*
X0016186Y0111385D01*
X0016115Y0111527D01*
X0016047Y0111670D01*
X0015983Y0111815D01*
X0015923Y0111961D01*
X0015867Y0112109D01*
X0015814Y0112258D01*
X0015765Y0112409D01*
X0015720Y0112561D01*
X0015679Y0112714D01*
X0015641Y0112867D01*
X0015608Y0113022D01*
X0015578Y0113178D01*
X0015552Y0113334D01*
X0015531Y0113491D01*
X0015513Y0113648D01*
X0015499Y0113806D01*
X0015489Y0113964D01*
X0015483Y0114122D01*
X0015481Y0114280D01*
X0110481Y0149280D02*
X0110483Y0149438D01*
X0110489Y0149596D01*
X0110499Y0149754D01*
X0110513Y0149912D01*
X0110531Y0150069D01*
X0110552Y0150226D01*
X0110578Y0150382D01*
X0110608Y0150538D01*
X0110641Y0150693D01*
X0110679Y0150846D01*
X0110720Y0150999D01*
X0110765Y0151151D01*
X0110814Y0151302D01*
X0110867Y0151451D01*
X0110923Y0151599D01*
X0110983Y0151745D01*
X0111047Y0151890D01*
X0111115Y0152033D01*
X0111186Y0152175D01*
X0111260Y0152315D01*
X0111338Y0152452D01*
X0111420Y0152588D01*
X0111504Y0152722D01*
X0111593Y0152853D01*
X0111684Y0152982D01*
X0111779Y0153109D01*
X0111876Y0153234D01*
X0111977Y0153356D01*
X0112081Y0153475D01*
X0112188Y0153592D01*
X0112298Y0153706D01*
X0112411Y0153817D01*
X0112526Y0153926D01*
X0112644Y0154031D01*
X0112765Y0154133D01*
X0112888Y0154233D01*
X0113014Y0154329D01*
X0113142Y0154422D01*
X0113272Y0154512D01*
X0113405Y0154598D01*
X0113540Y0154682D01*
X0113676Y0154761D01*
X0113815Y0154838D01*
X0113956Y0154910D01*
X0114098Y0154980D01*
X0114242Y0155045D01*
X0114388Y0155107D01*
X0114535Y0155165D01*
X0114684Y0155220D01*
X0114834Y0155271D01*
X0114985Y0155318D01*
X0115137Y0155361D01*
X0115290Y0155400D01*
X0115445Y0155436D01*
X0115600Y0155467D01*
X0115756Y0155495D01*
X0115912Y0155519D01*
X0116069Y0155539D01*
X0116227Y0155555D01*
X0116384Y0155567D01*
X0116543Y0155575D01*
X0116701Y0155579D01*
X0116859Y0155579D01*
X0117017Y0155575D01*
X0117176Y0155567D01*
X0117333Y0155555D01*
X0117491Y0155539D01*
X0117648Y0155519D01*
X0117804Y0155495D01*
X0117960Y0155467D01*
X0118115Y0155436D01*
X0118270Y0155400D01*
X0118423Y0155361D01*
X0118575Y0155318D01*
X0118726Y0155271D01*
X0118876Y0155220D01*
X0119025Y0155165D01*
X0119172Y0155107D01*
X0119318Y0155045D01*
X0119462Y0154980D01*
X0119604Y0154910D01*
X0119745Y0154838D01*
X0119884Y0154761D01*
X0120020Y0154682D01*
X0120155Y0154598D01*
X0120288Y0154512D01*
X0120418Y0154422D01*
X0120546Y0154329D01*
X0120672Y0154233D01*
X0120795Y0154133D01*
X0120916Y0154031D01*
X0121034Y0153926D01*
X0121149Y0153817D01*
X0121262Y0153706D01*
X0121372Y0153592D01*
X0121479Y0153475D01*
X0121583Y0153356D01*
X0121684Y0153234D01*
X0121781Y0153109D01*
X0121876Y0152982D01*
X0121967Y0152853D01*
X0122056Y0152722D01*
X0122140Y0152588D01*
X0122222Y0152452D01*
X0122300Y0152315D01*
X0122374Y0152175D01*
X0122445Y0152033D01*
X0122513Y0151890D01*
X0122577Y0151745D01*
X0122637Y0151599D01*
X0122693Y0151451D01*
X0122746Y0151302D01*
X0122795Y0151151D01*
X0122840Y0150999D01*
X0122881Y0150846D01*
X0122919Y0150693D01*
X0122952Y0150538D01*
X0122982Y0150382D01*
X0123008Y0150226D01*
X0123029Y0150069D01*
X0123047Y0149912D01*
X0123061Y0149754D01*
X0123071Y0149596D01*
X0123077Y0149438D01*
X0123079Y0149280D01*
X0123077Y0149122D01*
X0123071Y0148964D01*
X0123061Y0148806D01*
X0123047Y0148648D01*
X0123029Y0148491D01*
X0123008Y0148334D01*
X0122982Y0148178D01*
X0122952Y0148022D01*
X0122919Y0147867D01*
X0122881Y0147714D01*
X0122840Y0147561D01*
X0122795Y0147409D01*
X0122746Y0147258D01*
X0122693Y0147109D01*
X0122637Y0146961D01*
X0122577Y0146815D01*
X0122513Y0146670D01*
X0122445Y0146527D01*
X0122374Y0146385D01*
X0122300Y0146245D01*
X0122222Y0146108D01*
X0122140Y0145972D01*
X0122056Y0145838D01*
X0121967Y0145707D01*
X0121876Y0145578D01*
X0121781Y0145451D01*
X0121684Y0145326D01*
X0121583Y0145204D01*
X0121479Y0145085D01*
X0121372Y0144968D01*
X0121262Y0144854D01*
X0121149Y0144743D01*
X0121034Y0144634D01*
X0120916Y0144529D01*
X0120795Y0144427D01*
X0120672Y0144327D01*
X0120546Y0144231D01*
X0120418Y0144138D01*
X0120288Y0144048D01*
X0120155Y0143962D01*
X0120020Y0143878D01*
X0119884Y0143799D01*
X0119745Y0143722D01*
X0119604Y0143650D01*
X0119462Y0143580D01*
X0119318Y0143515D01*
X0119172Y0143453D01*
X0119025Y0143395D01*
X0118876Y0143340D01*
X0118726Y0143289D01*
X0118575Y0143242D01*
X0118423Y0143199D01*
X0118270Y0143160D01*
X0118115Y0143124D01*
X0117960Y0143093D01*
X0117804Y0143065D01*
X0117648Y0143041D01*
X0117491Y0143021D01*
X0117333Y0143005D01*
X0117176Y0142993D01*
X0117017Y0142985D01*
X0116859Y0142981D01*
X0116701Y0142981D01*
X0116543Y0142985D01*
X0116384Y0142993D01*
X0116227Y0143005D01*
X0116069Y0143021D01*
X0115912Y0143041D01*
X0115756Y0143065D01*
X0115600Y0143093D01*
X0115445Y0143124D01*
X0115290Y0143160D01*
X0115137Y0143199D01*
X0114985Y0143242D01*
X0114834Y0143289D01*
X0114684Y0143340D01*
X0114535Y0143395D01*
X0114388Y0143453D01*
X0114242Y0143515D01*
X0114098Y0143580D01*
X0113956Y0143650D01*
X0113815Y0143722D01*
X0113676Y0143799D01*
X0113540Y0143878D01*
X0113405Y0143962D01*
X0113272Y0144048D01*
X0113142Y0144138D01*
X0113014Y0144231D01*
X0112888Y0144327D01*
X0112765Y0144427D01*
X0112644Y0144529D01*
X0112526Y0144634D01*
X0112411Y0144743D01*
X0112298Y0144854D01*
X0112188Y0144968D01*
X0112081Y0145085D01*
X0111977Y0145204D01*
X0111876Y0145326D01*
X0111779Y0145451D01*
X0111684Y0145578D01*
X0111593Y0145707D01*
X0111504Y0145838D01*
X0111420Y0145972D01*
X0111338Y0146108D01*
X0111260Y0146245D01*
X0111186Y0146385D01*
X0111115Y0146527D01*
X0111047Y0146670D01*
X0110983Y0146815D01*
X0110923Y0146961D01*
X0110867Y0147109D01*
X0110814Y0147258D01*
X0110765Y0147409D01*
X0110720Y0147561D01*
X0110679Y0147714D01*
X0110641Y0147867D01*
X0110608Y0148022D01*
X0110578Y0148178D01*
X0110552Y0148334D01*
X0110531Y0148491D01*
X0110513Y0148648D01*
X0110499Y0148806D01*
X0110489Y0148964D01*
X0110483Y0149122D01*
X0110481Y0149280D01*
X0200481Y0069280D02*
X0200483Y0069438D01*
X0200489Y0069596D01*
X0200499Y0069754D01*
X0200513Y0069912D01*
X0200531Y0070069D01*
X0200552Y0070226D01*
X0200578Y0070382D01*
X0200608Y0070538D01*
X0200641Y0070693D01*
X0200679Y0070846D01*
X0200720Y0070999D01*
X0200765Y0071151D01*
X0200814Y0071302D01*
X0200867Y0071451D01*
X0200923Y0071599D01*
X0200983Y0071745D01*
X0201047Y0071890D01*
X0201115Y0072033D01*
X0201186Y0072175D01*
X0201260Y0072315D01*
X0201338Y0072452D01*
X0201420Y0072588D01*
X0201504Y0072722D01*
X0201593Y0072853D01*
X0201684Y0072982D01*
X0201779Y0073109D01*
X0201876Y0073234D01*
X0201977Y0073356D01*
X0202081Y0073475D01*
X0202188Y0073592D01*
X0202298Y0073706D01*
X0202411Y0073817D01*
X0202526Y0073926D01*
X0202644Y0074031D01*
X0202765Y0074133D01*
X0202888Y0074233D01*
X0203014Y0074329D01*
X0203142Y0074422D01*
X0203272Y0074512D01*
X0203405Y0074598D01*
X0203540Y0074682D01*
X0203676Y0074761D01*
X0203815Y0074838D01*
X0203956Y0074910D01*
X0204098Y0074980D01*
X0204242Y0075045D01*
X0204388Y0075107D01*
X0204535Y0075165D01*
X0204684Y0075220D01*
X0204834Y0075271D01*
X0204985Y0075318D01*
X0205137Y0075361D01*
X0205290Y0075400D01*
X0205445Y0075436D01*
X0205600Y0075467D01*
X0205756Y0075495D01*
X0205912Y0075519D01*
X0206069Y0075539D01*
X0206227Y0075555D01*
X0206384Y0075567D01*
X0206543Y0075575D01*
X0206701Y0075579D01*
X0206859Y0075579D01*
X0207017Y0075575D01*
X0207176Y0075567D01*
X0207333Y0075555D01*
X0207491Y0075539D01*
X0207648Y0075519D01*
X0207804Y0075495D01*
X0207960Y0075467D01*
X0208115Y0075436D01*
X0208270Y0075400D01*
X0208423Y0075361D01*
X0208575Y0075318D01*
X0208726Y0075271D01*
X0208876Y0075220D01*
X0209025Y0075165D01*
X0209172Y0075107D01*
X0209318Y0075045D01*
X0209462Y0074980D01*
X0209604Y0074910D01*
X0209745Y0074838D01*
X0209884Y0074761D01*
X0210020Y0074682D01*
X0210155Y0074598D01*
X0210288Y0074512D01*
X0210418Y0074422D01*
X0210546Y0074329D01*
X0210672Y0074233D01*
X0210795Y0074133D01*
X0210916Y0074031D01*
X0211034Y0073926D01*
X0211149Y0073817D01*
X0211262Y0073706D01*
X0211372Y0073592D01*
X0211479Y0073475D01*
X0211583Y0073356D01*
X0211684Y0073234D01*
X0211781Y0073109D01*
X0211876Y0072982D01*
X0211967Y0072853D01*
X0212056Y0072722D01*
X0212140Y0072588D01*
X0212222Y0072452D01*
X0212300Y0072315D01*
X0212374Y0072175D01*
X0212445Y0072033D01*
X0212513Y0071890D01*
X0212577Y0071745D01*
X0212637Y0071599D01*
X0212693Y0071451D01*
X0212746Y0071302D01*
X0212795Y0071151D01*
X0212840Y0070999D01*
X0212881Y0070846D01*
X0212919Y0070693D01*
X0212952Y0070538D01*
X0212982Y0070382D01*
X0213008Y0070226D01*
X0213029Y0070069D01*
X0213047Y0069912D01*
X0213061Y0069754D01*
X0213071Y0069596D01*
X0213077Y0069438D01*
X0213079Y0069280D01*
X0213077Y0069122D01*
X0213071Y0068964D01*
X0213061Y0068806D01*
X0213047Y0068648D01*
X0213029Y0068491D01*
X0213008Y0068334D01*
X0212982Y0068178D01*
X0212952Y0068022D01*
X0212919Y0067867D01*
X0212881Y0067714D01*
X0212840Y0067561D01*
X0212795Y0067409D01*
X0212746Y0067258D01*
X0212693Y0067109D01*
X0212637Y0066961D01*
X0212577Y0066815D01*
X0212513Y0066670D01*
X0212445Y0066527D01*
X0212374Y0066385D01*
X0212300Y0066245D01*
X0212222Y0066108D01*
X0212140Y0065972D01*
X0212056Y0065838D01*
X0211967Y0065707D01*
X0211876Y0065578D01*
X0211781Y0065451D01*
X0211684Y0065326D01*
X0211583Y0065204D01*
X0211479Y0065085D01*
X0211372Y0064968D01*
X0211262Y0064854D01*
X0211149Y0064743D01*
X0211034Y0064634D01*
X0210916Y0064529D01*
X0210795Y0064427D01*
X0210672Y0064327D01*
X0210546Y0064231D01*
X0210418Y0064138D01*
X0210288Y0064048D01*
X0210155Y0063962D01*
X0210020Y0063878D01*
X0209884Y0063799D01*
X0209745Y0063722D01*
X0209604Y0063650D01*
X0209462Y0063580D01*
X0209318Y0063515D01*
X0209172Y0063453D01*
X0209025Y0063395D01*
X0208876Y0063340D01*
X0208726Y0063289D01*
X0208575Y0063242D01*
X0208423Y0063199D01*
X0208270Y0063160D01*
X0208115Y0063124D01*
X0207960Y0063093D01*
X0207804Y0063065D01*
X0207648Y0063041D01*
X0207491Y0063021D01*
X0207333Y0063005D01*
X0207176Y0062993D01*
X0207017Y0062985D01*
X0206859Y0062981D01*
X0206701Y0062981D01*
X0206543Y0062985D01*
X0206384Y0062993D01*
X0206227Y0063005D01*
X0206069Y0063021D01*
X0205912Y0063041D01*
X0205756Y0063065D01*
X0205600Y0063093D01*
X0205445Y0063124D01*
X0205290Y0063160D01*
X0205137Y0063199D01*
X0204985Y0063242D01*
X0204834Y0063289D01*
X0204684Y0063340D01*
X0204535Y0063395D01*
X0204388Y0063453D01*
X0204242Y0063515D01*
X0204098Y0063580D01*
X0203956Y0063650D01*
X0203815Y0063722D01*
X0203676Y0063799D01*
X0203540Y0063878D01*
X0203405Y0063962D01*
X0203272Y0064048D01*
X0203142Y0064138D01*
X0203014Y0064231D01*
X0202888Y0064327D01*
X0202765Y0064427D01*
X0202644Y0064529D01*
X0202526Y0064634D01*
X0202411Y0064743D01*
X0202298Y0064854D01*
X0202188Y0064968D01*
X0202081Y0065085D01*
X0201977Y0065204D01*
X0201876Y0065326D01*
X0201779Y0065451D01*
X0201684Y0065578D01*
X0201593Y0065707D01*
X0201504Y0065838D01*
X0201420Y0065972D01*
X0201338Y0066108D01*
X0201260Y0066245D01*
X0201186Y0066385D01*
X0201115Y0066527D01*
X0201047Y0066670D01*
X0200983Y0066815D01*
X0200923Y0066961D01*
X0200867Y0067109D01*
X0200814Y0067258D01*
X0200765Y0067409D01*
X0200720Y0067561D01*
X0200679Y0067714D01*
X0200641Y0067867D01*
X0200608Y0068022D01*
X0200578Y0068178D01*
X0200552Y0068334D01*
X0200531Y0068491D01*
X0200513Y0068648D01*
X0200499Y0068806D01*
X0200489Y0068964D01*
X0200483Y0069122D01*
X0200481Y0069280D01*
D11*
X0223335Y0006800D02*
X0012174Y0006800D01*
X0011984Y0006802D01*
X0011794Y0006809D01*
X0011604Y0006821D01*
X0011414Y0006837D01*
X0011225Y0006857D01*
X0011036Y0006883D01*
X0010848Y0006912D01*
X0010661Y0006947D01*
X0010475Y0006986D01*
X0010290Y0007029D01*
X0010105Y0007077D01*
X0009922Y0007129D01*
X0009741Y0007185D01*
X0009561Y0007246D01*
X0009382Y0007312D01*
X0009205Y0007381D01*
X0009029Y0007455D01*
X0008856Y0007533D01*
X0008684Y0007616D01*
X0008515Y0007702D01*
X0008347Y0007792D01*
X0008182Y0007887D01*
X0008019Y0007985D01*
X0007859Y0008088D01*
X0007701Y0008194D01*
X0007546Y0008304D01*
X0007393Y0008417D01*
X0007243Y0008535D01*
X0007097Y0008656D01*
X0006953Y0008780D01*
X0006812Y0008908D01*
X0006674Y0009039D01*
X0006539Y0009174D01*
X0006408Y0009312D01*
X0006280Y0009453D01*
X0006156Y0009597D01*
X0006035Y0009743D01*
X0005917Y0009893D01*
X0005804Y0010046D01*
X0005694Y0010201D01*
X0005588Y0010359D01*
X0005485Y0010519D01*
X0005387Y0010682D01*
X0005292Y0010847D01*
X0005202Y0011015D01*
X0005116Y0011184D01*
X0005033Y0011356D01*
X0004955Y0011529D01*
X0004881Y0011705D01*
X0004812Y0011882D01*
X0004746Y0012061D01*
X0004685Y0012241D01*
X0004629Y0012422D01*
X0004577Y0012605D01*
X0004529Y0012790D01*
X0004486Y0012975D01*
X0004447Y0013161D01*
X0004412Y0013348D01*
X0004383Y0013536D01*
X0004357Y0013725D01*
X0004337Y0013914D01*
X0004321Y0014104D01*
X0004309Y0014294D01*
X0004302Y0014484D01*
X0004300Y0014674D01*
X0004300Y0160343D01*
X0004302Y0160533D01*
X0004309Y0160723D01*
X0004321Y0160913D01*
X0004337Y0161103D01*
X0004357Y0161292D01*
X0004383Y0161481D01*
X0004412Y0161669D01*
X0004447Y0161856D01*
X0004486Y0162042D01*
X0004529Y0162227D01*
X0004577Y0162412D01*
X0004629Y0162595D01*
X0004685Y0162776D01*
X0004746Y0162956D01*
X0004812Y0163135D01*
X0004881Y0163312D01*
X0004955Y0163488D01*
X0005033Y0163661D01*
X0005116Y0163833D01*
X0005202Y0164002D01*
X0005292Y0164170D01*
X0005387Y0164335D01*
X0005485Y0164498D01*
X0005588Y0164658D01*
X0005694Y0164816D01*
X0005804Y0164971D01*
X0005917Y0165124D01*
X0006035Y0165274D01*
X0006156Y0165420D01*
X0006280Y0165564D01*
X0006408Y0165705D01*
X0006539Y0165843D01*
X0006674Y0165978D01*
X0006812Y0166109D01*
X0006953Y0166237D01*
X0007097Y0166361D01*
X0007243Y0166482D01*
X0007393Y0166600D01*
X0007546Y0166713D01*
X0007701Y0166823D01*
X0007859Y0166929D01*
X0008019Y0167032D01*
X0008182Y0167130D01*
X0008347Y0167225D01*
X0008515Y0167315D01*
X0008684Y0167401D01*
X0008856Y0167484D01*
X0009029Y0167562D01*
X0009205Y0167636D01*
X0009382Y0167705D01*
X0009561Y0167771D01*
X0009741Y0167832D01*
X0009922Y0167888D01*
X0010105Y0167940D01*
X0010290Y0167988D01*
X0010475Y0168031D01*
X0010661Y0168070D01*
X0010848Y0168105D01*
X0011036Y0168134D01*
X0011225Y0168160D01*
X0011414Y0168180D01*
X0011604Y0168196D01*
X0011794Y0168208D01*
X0011984Y0168215D01*
X0012174Y0168217D01*
X0223335Y0168217D01*
X0223525Y0168215D01*
X0223715Y0168208D01*
X0223905Y0168196D01*
X0224095Y0168180D01*
X0224284Y0168160D01*
X0224473Y0168134D01*
X0224661Y0168105D01*
X0224848Y0168070D01*
X0225034Y0168031D01*
X0225219Y0167988D01*
X0225404Y0167940D01*
X0225587Y0167888D01*
X0225768Y0167832D01*
X0225948Y0167771D01*
X0226127Y0167705D01*
X0226304Y0167636D01*
X0226480Y0167562D01*
X0226653Y0167484D01*
X0226825Y0167401D01*
X0226994Y0167315D01*
X0227162Y0167225D01*
X0227327Y0167130D01*
X0227490Y0167032D01*
X0227650Y0166929D01*
X0227808Y0166823D01*
X0227963Y0166713D01*
X0228116Y0166600D01*
X0228266Y0166482D01*
X0228412Y0166361D01*
X0228556Y0166237D01*
X0228697Y0166109D01*
X0228835Y0165978D01*
X0228970Y0165843D01*
X0229101Y0165705D01*
X0229229Y0165564D01*
X0229353Y0165420D01*
X0229474Y0165274D01*
X0229592Y0165124D01*
X0229705Y0164971D01*
X0229815Y0164816D01*
X0229921Y0164658D01*
X0230024Y0164498D01*
X0230122Y0164335D01*
X0230217Y0164170D01*
X0230307Y0164002D01*
X0230393Y0163833D01*
X0230476Y0163661D01*
X0230554Y0163488D01*
X0230628Y0163312D01*
X0230697Y0163135D01*
X0230763Y0162956D01*
X0230824Y0162776D01*
X0230880Y0162595D01*
X0230932Y0162412D01*
X0230980Y0162227D01*
X0231023Y0162042D01*
X0231062Y0161856D01*
X0231097Y0161669D01*
X0231126Y0161481D01*
X0231152Y0161292D01*
X0231172Y0161103D01*
X0231188Y0160913D01*
X0231200Y0160723D01*
X0231207Y0160533D01*
X0231209Y0160343D01*
X0231209Y0014674D01*
X0231207Y0014484D01*
X0231200Y0014294D01*
X0231188Y0014104D01*
X0231172Y0013914D01*
X0231152Y0013725D01*
X0231126Y0013536D01*
X0231097Y0013348D01*
X0231062Y0013161D01*
X0231023Y0012975D01*
X0230980Y0012790D01*
X0230932Y0012605D01*
X0230880Y0012422D01*
X0230824Y0012241D01*
X0230763Y0012061D01*
X0230697Y0011882D01*
X0230628Y0011705D01*
X0230554Y0011529D01*
X0230476Y0011356D01*
X0230393Y0011184D01*
X0230307Y0011015D01*
X0230217Y0010847D01*
X0230122Y0010682D01*
X0230024Y0010519D01*
X0229921Y0010359D01*
X0229815Y0010201D01*
X0229705Y0010046D01*
X0229592Y0009893D01*
X0229474Y0009743D01*
X0229353Y0009597D01*
X0229229Y0009453D01*
X0229101Y0009312D01*
X0228970Y0009174D01*
X0228835Y0009039D01*
X0228697Y0008908D01*
X0228556Y0008780D01*
X0228412Y0008656D01*
X0228266Y0008535D01*
X0228116Y0008417D01*
X0227963Y0008304D01*
X0227808Y0008194D01*
X0227650Y0008088D01*
X0227490Y0007985D01*
X0227327Y0007887D01*
X0227162Y0007792D01*
X0226994Y0007702D01*
X0226825Y0007616D01*
X0226653Y0007533D01*
X0226480Y0007455D01*
X0226304Y0007381D01*
X0226127Y0007312D01*
X0225948Y0007246D01*
X0225768Y0007185D01*
X0225587Y0007129D01*
X0225404Y0007077D01*
X0225219Y0007029D01*
X0225034Y0006986D01*
X0224848Y0006947D01*
X0224661Y0006912D01*
X0224473Y0006883D01*
X0224284Y0006857D01*
X0224095Y0006837D01*
X0223905Y0006821D01*
X0223715Y0006809D01*
X0223525Y0006802D01*
X0223335Y0006800D01*
X0152000Y0126700D02*
X0152000Y0128500D01*
X0152000Y0134900D02*
X0152000Y0136900D01*
X0034400Y0082100D02*
X0032400Y0082100D01*
X0026000Y0082100D02*
X0024200Y0082100D01*
D12*
X0037749Y0088350D02*
X0036849Y0088350D01*
X0036850Y0088350D02*
X0036846Y0088533D01*
X0036839Y0088716D01*
X0036826Y0088899D01*
X0036809Y0089082D01*
X0036788Y0089264D01*
X0036763Y0089445D01*
X0036733Y0089626D01*
X0036698Y0089806D01*
X0036660Y0089985D01*
X0036617Y0090163D01*
X0036569Y0090340D01*
X0036518Y0090515D01*
X0036462Y0090690D01*
X0036402Y0090863D01*
X0036337Y0091034D01*
X0036269Y0091204D01*
X0036197Y0091373D01*
X0036120Y0091539D01*
X0036039Y0091703D01*
X0035955Y0091866D01*
X0035866Y0092026D01*
X0035774Y0092185D01*
X0035678Y0092341D01*
X0035578Y0092494D01*
X0035474Y0092645D01*
X0035367Y0092794D01*
X0035256Y0092940D01*
X0035142Y0093083D01*
X0035024Y0093223D01*
X0034903Y0093360D01*
X0034779Y0093495D01*
X0034651Y0093626D01*
X0034520Y0093755D01*
X0034386Y0093880D01*
X0034250Y0094001D01*
X0034110Y0094120D01*
X0033967Y0094235D01*
X0033822Y0094346D01*
X0033674Y0094454D01*
X0033523Y0094558D01*
X0033370Y0094659D01*
X0033215Y0094756D01*
X0033057Y0094849D01*
X0032897Y0094938D01*
X0033320Y0095732D01*
X0033500Y0095632D01*
X0033677Y0095528D01*
X0033851Y0095420D01*
X0034023Y0095307D01*
X0034191Y0095190D01*
X0034357Y0095069D01*
X0034520Y0094945D01*
X0034680Y0094816D01*
X0034837Y0094683D01*
X0034990Y0094547D01*
X0035140Y0094407D01*
X0035287Y0094263D01*
X0035430Y0094116D01*
X0035570Y0093965D01*
X0035705Y0093811D01*
X0035837Y0093654D01*
X0035965Y0093494D01*
X0036090Y0093330D01*
X0036210Y0093164D01*
X0036326Y0092994D01*
X0036438Y0092822D01*
X0036546Y0092648D01*
X0036649Y0092470D01*
X0036748Y0092291D01*
X0036843Y0092108D01*
X0036933Y0091924D01*
X0037019Y0091738D01*
X0037100Y0091549D01*
X0037177Y0091359D01*
X0037249Y0091166D01*
X0037316Y0090972D01*
X0037379Y0090777D01*
X0037437Y0090580D01*
X0037490Y0090382D01*
X0037538Y0090182D01*
X0037581Y0089981D01*
X0037619Y0089780D01*
X0037653Y0089577D01*
X0037681Y0089374D01*
X0037705Y0089170D01*
X0037724Y0088965D01*
X0037737Y0088761D01*
X0037746Y0088556D01*
X0037750Y0088350D01*
X0037656Y0088350D01*
X0037652Y0088553D01*
X0037644Y0088756D01*
X0037630Y0088959D01*
X0037612Y0089161D01*
X0037588Y0089362D01*
X0037560Y0089563D01*
X0037527Y0089764D01*
X0037489Y0089963D01*
X0037446Y0090161D01*
X0037398Y0090359D01*
X0037346Y0090555D01*
X0037289Y0090750D01*
X0037227Y0090943D01*
X0037160Y0091135D01*
X0037089Y0091325D01*
X0037014Y0091513D01*
X0036933Y0091699D01*
X0036848Y0091884D01*
X0036759Y0092066D01*
X0036665Y0092246D01*
X0036567Y0092424D01*
X0036465Y0092599D01*
X0036359Y0092772D01*
X0036248Y0092942D01*
X0036133Y0093110D01*
X0036014Y0093274D01*
X0035891Y0093436D01*
X0035765Y0093594D01*
X0035634Y0093750D01*
X0035500Y0093902D01*
X0035362Y0094051D01*
X0035221Y0094197D01*
X0035076Y0094339D01*
X0034927Y0094477D01*
X0034776Y0094612D01*
X0034621Y0094743D01*
X0034463Y0094870D01*
X0034301Y0094994D01*
X0034137Y0095113D01*
X0033970Y0095229D01*
X0033801Y0095340D01*
X0033628Y0095448D01*
X0033453Y0095551D01*
X0033276Y0095649D01*
X0033232Y0095566D01*
X0033407Y0095469D01*
X0033580Y0095367D01*
X0033750Y0095261D01*
X0033918Y0095151D01*
X0034083Y0095037D01*
X0034245Y0094918D01*
X0034405Y0094796D01*
X0034561Y0094670D01*
X0034714Y0094541D01*
X0034864Y0094407D01*
X0035011Y0094271D01*
X0035154Y0094130D01*
X0035294Y0093986D01*
X0035430Y0093839D01*
X0035563Y0093688D01*
X0035692Y0093535D01*
X0035817Y0093378D01*
X0035939Y0093218D01*
X0036056Y0093055D01*
X0036170Y0092890D01*
X0036279Y0092722D01*
X0036385Y0092551D01*
X0036486Y0092378D01*
X0036583Y0092202D01*
X0036675Y0092024D01*
X0036763Y0091844D01*
X0036847Y0091661D01*
X0036927Y0091477D01*
X0037002Y0091291D01*
X0037072Y0091103D01*
X0037138Y0090913D01*
X0037199Y0090722D01*
X0037255Y0090530D01*
X0037307Y0090336D01*
X0037354Y0090141D01*
X0037397Y0089945D01*
X0037434Y0089747D01*
X0037467Y0089549D01*
X0037495Y0089351D01*
X0037518Y0089151D01*
X0037536Y0088952D01*
X0037550Y0088751D01*
X0037558Y0088551D01*
X0037562Y0088350D01*
X0037468Y0088350D01*
X0037464Y0088549D01*
X0037456Y0088747D01*
X0037443Y0088945D01*
X0037424Y0089142D01*
X0037402Y0089339D01*
X0037374Y0089536D01*
X0037342Y0089731D01*
X0037304Y0089926D01*
X0037263Y0090120D01*
X0037216Y0090313D01*
X0037165Y0090505D01*
X0037109Y0090695D01*
X0037049Y0090884D01*
X0036984Y0091071D01*
X0036914Y0091257D01*
X0036840Y0091441D01*
X0036761Y0091623D01*
X0036678Y0091803D01*
X0036591Y0091982D01*
X0036500Y0092158D01*
X0036404Y0092331D01*
X0036304Y0092503D01*
X0036200Y0092671D01*
X0036092Y0092838D01*
X0035979Y0093001D01*
X0035863Y0093162D01*
X0035743Y0093320D01*
X0035619Y0093475D01*
X0035492Y0093627D01*
X0035361Y0093776D01*
X0035226Y0093921D01*
X0035088Y0094064D01*
X0034946Y0094202D01*
X0034801Y0094338D01*
X0034653Y0094470D01*
X0034501Y0094598D01*
X0034347Y0094722D01*
X0034190Y0094843D01*
X0034029Y0094960D01*
X0033866Y0095073D01*
X0033700Y0095181D01*
X0033532Y0095286D01*
X0033361Y0095387D01*
X0033188Y0095483D01*
X0033143Y0095401D01*
X0033315Y0095305D01*
X0033484Y0095206D01*
X0033650Y0095102D01*
X0033814Y0094994D01*
X0033975Y0094883D01*
X0034134Y0094767D01*
X0034289Y0094648D01*
X0034442Y0094525D01*
X0034591Y0094398D01*
X0034738Y0094268D01*
X0034881Y0094134D01*
X0035021Y0093997D01*
X0035158Y0093856D01*
X0035291Y0093713D01*
X0035421Y0093566D01*
X0035547Y0093415D01*
X0035669Y0093262D01*
X0035788Y0093106D01*
X0035903Y0092947D01*
X0036013Y0092785D01*
X0036120Y0092621D01*
X0036223Y0092454D01*
X0036322Y0092285D01*
X0036417Y0092113D01*
X0036507Y0091939D01*
X0036594Y0091763D01*
X0036675Y0091585D01*
X0036753Y0091405D01*
X0036826Y0091223D01*
X0036895Y0091040D01*
X0036959Y0090854D01*
X0037019Y0090668D01*
X0037074Y0090480D01*
X0037125Y0090290D01*
X0037171Y0090100D01*
X0037212Y0089908D01*
X0037249Y0089715D01*
X0037281Y0089522D01*
X0037308Y0089328D01*
X0037331Y0089133D01*
X0037349Y0088938D01*
X0037362Y0088742D01*
X0037370Y0088546D01*
X0037374Y0088350D01*
X0037280Y0088350D01*
X0037276Y0088544D01*
X0037268Y0088738D01*
X0037255Y0088931D01*
X0037237Y0089124D01*
X0037215Y0089316D01*
X0037188Y0089508D01*
X0037156Y0089699D01*
X0037120Y0089890D01*
X0037079Y0090079D01*
X0037034Y0090267D01*
X0036984Y0090454D01*
X0036929Y0090640D01*
X0036870Y0090825D01*
X0036807Y0091008D01*
X0036739Y0091189D01*
X0036666Y0091369D01*
X0036590Y0091547D01*
X0036509Y0091723D01*
X0036423Y0091897D01*
X0036334Y0092069D01*
X0036240Y0092239D01*
X0036143Y0092406D01*
X0036041Y0092571D01*
X0035935Y0092733D01*
X0035826Y0092893D01*
X0035712Y0093050D01*
X0035595Y0093204D01*
X0035474Y0093356D01*
X0035350Y0093504D01*
X0035222Y0093649D01*
X0035090Y0093792D01*
X0034955Y0093931D01*
X0034817Y0094066D01*
X0034675Y0094198D01*
X0034530Y0094327D01*
X0034382Y0094452D01*
X0034231Y0094574D01*
X0034078Y0094692D01*
X0033921Y0094806D01*
X0033762Y0094916D01*
X0033600Y0095022D01*
X0033435Y0095125D01*
X0033268Y0095223D01*
X0033099Y0095318D01*
X0033055Y0095235D01*
X0033222Y0095141D01*
X0033387Y0095044D01*
X0033550Y0094943D01*
X0033710Y0094838D01*
X0033867Y0094729D01*
X0034022Y0094616D01*
X0034174Y0094500D01*
X0034323Y0094380D01*
X0034469Y0094256D01*
X0034612Y0094129D01*
X0034752Y0093998D01*
X0034888Y0093864D01*
X0035022Y0093727D01*
X0035152Y0093586D01*
X0035279Y0093443D01*
X0035402Y0093296D01*
X0035521Y0093146D01*
X0035637Y0092994D01*
X0035749Y0092839D01*
X0035857Y0092681D01*
X0035962Y0092520D01*
X0036062Y0092357D01*
X0036159Y0092192D01*
X0036251Y0092025D01*
X0036339Y0091855D01*
X0036424Y0091683D01*
X0036504Y0091509D01*
X0036579Y0091333D01*
X0036651Y0091155D01*
X0036718Y0090976D01*
X0036781Y0090795D01*
X0036839Y0090613D01*
X0036893Y0090429D01*
X0036943Y0090244D01*
X0036987Y0090058D01*
X0037028Y0089871D01*
X0037064Y0089683D01*
X0037095Y0089494D01*
X0037122Y0089305D01*
X0037144Y0089115D01*
X0037161Y0088924D01*
X0037174Y0088733D01*
X0037182Y0088542D01*
X0037186Y0088350D01*
X0037092Y0088350D01*
X0037088Y0088539D01*
X0037080Y0088728D01*
X0037068Y0088917D01*
X0037050Y0089105D01*
X0037028Y0089293D01*
X0037002Y0089480D01*
X0036971Y0089667D01*
X0036936Y0089853D01*
X0036896Y0090038D01*
X0036851Y0090222D01*
X0036802Y0090404D01*
X0036749Y0090586D01*
X0036692Y0090766D01*
X0036630Y0090944D01*
X0036563Y0091122D01*
X0036493Y0091297D01*
X0036418Y0091471D01*
X0036339Y0091643D01*
X0036255Y0091812D01*
X0036168Y0091980D01*
X0036077Y0092146D01*
X0035981Y0092309D01*
X0035882Y0092470D01*
X0035779Y0092629D01*
X0035672Y0092785D01*
X0035561Y0092938D01*
X0035447Y0093089D01*
X0035329Y0093236D01*
X0035207Y0093381D01*
X0035082Y0093523D01*
X0034954Y0093662D01*
X0034822Y0093797D01*
X0034687Y0093930D01*
X0034549Y0094059D01*
X0034407Y0094185D01*
X0034263Y0094307D01*
X0034116Y0094426D01*
X0033966Y0094541D01*
X0033813Y0094652D01*
X0033657Y0094760D01*
X0033499Y0094864D01*
X0033339Y0094964D01*
X0033176Y0095060D01*
X0033011Y0095152D01*
X0032966Y0095069D01*
X0033130Y0094978D01*
X0033291Y0094883D01*
X0033449Y0094784D01*
X0033605Y0094682D01*
X0033759Y0094575D01*
X0033910Y0094465D01*
X0034058Y0094351D01*
X0034204Y0094234D01*
X0034346Y0094113D01*
X0034486Y0093989D01*
X0034622Y0093862D01*
X0034756Y0093731D01*
X0034886Y0093597D01*
X0035013Y0093460D01*
X0035136Y0093320D01*
X0035256Y0093177D01*
X0035373Y0093031D01*
X0035486Y0092882D01*
X0035595Y0092730D01*
X0035701Y0092576D01*
X0035803Y0092420D01*
X0035901Y0092261D01*
X0035995Y0092099D01*
X0036085Y0091936D01*
X0036172Y0091770D01*
X0036254Y0091602D01*
X0036332Y0091433D01*
X0036406Y0091261D01*
X0036475Y0091088D01*
X0036541Y0090913D01*
X0036602Y0090736D01*
X0036659Y0090558D01*
X0036712Y0090379D01*
X0036760Y0090199D01*
X0036804Y0090017D01*
X0036844Y0089834D01*
X0036879Y0089651D01*
X0036909Y0089467D01*
X0036935Y0089282D01*
X0036957Y0089096D01*
X0036974Y0088910D01*
X0036986Y0088724D01*
X0036994Y0088537D01*
X0036998Y0088350D01*
X0036904Y0088350D01*
X0036900Y0088535D01*
X0036892Y0088719D01*
X0036880Y0088903D01*
X0036863Y0089087D01*
X0036842Y0089270D01*
X0036816Y0089453D01*
X0036786Y0089635D01*
X0036751Y0089816D01*
X0036712Y0089996D01*
X0036669Y0090176D01*
X0036621Y0090354D01*
X0036569Y0090531D01*
X0036513Y0090707D01*
X0036453Y0090881D01*
X0036388Y0091054D01*
X0036319Y0091225D01*
X0036246Y0091394D01*
X0036169Y0091562D01*
X0036088Y0091728D01*
X0036002Y0091891D01*
X0035913Y0092053D01*
X0035820Y0092212D01*
X0035723Y0092369D01*
X0035623Y0092524D01*
X0035518Y0092676D01*
X0035410Y0092826D01*
X0035299Y0092973D01*
X0035184Y0093117D01*
X0035065Y0093258D01*
X0034943Y0093397D01*
X0034818Y0093532D01*
X0034689Y0093664D01*
X0034557Y0093794D01*
X0034423Y0093920D01*
X0034285Y0094042D01*
X0034144Y0094161D01*
X0034000Y0094277D01*
X0033854Y0094390D01*
X0033705Y0094498D01*
X0033553Y0094603D01*
X0033399Y0094705D01*
X0033242Y0094802D01*
X0033083Y0094896D01*
X0032922Y0094986D01*
X0025065Y0095611D02*
X0025511Y0094830D01*
X0025354Y0094737D01*
X0025200Y0094640D01*
X0025048Y0094539D01*
X0024899Y0094434D01*
X0024752Y0094326D01*
X0024607Y0094215D01*
X0024466Y0094100D01*
X0024327Y0093981D01*
X0024192Y0093859D01*
X0024059Y0093734D01*
X0023929Y0093606D01*
X0023803Y0093475D01*
X0023679Y0093341D01*
X0023559Y0093204D01*
X0023442Y0093064D01*
X0023329Y0092921D01*
X0023219Y0092775D01*
X0023113Y0092627D01*
X0023010Y0092476D01*
X0022911Y0092323D01*
X0022816Y0092168D01*
X0022725Y0092010D01*
X0022637Y0091850D01*
X0022553Y0091688D01*
X0022473Y0091525D01*
X0022397Y0091359D01*
X0022326Y0091191D01*
X0022258Y0091022D01*
X0022194Y0090851D01*
X0022135Y0090679D01*
X0022079Y0090505D01*
X0022028Y0090330D01*
X0021981Y0090154D01*
X0021939Y0089977D01*
X0021900Y0089798D01*
X0021866Y0089619D01*
X0021836Y0089439D01*
X0021811Y0089259D01*
X0021790Y0089078D01*
X0021774Y0088896D01*
X0021761Y0088714D01*
X0021754Y0088532D01*
X0021750Y0088350D01*
X0020851Y0088349D01*
X0020850Y0088350D01*
X0020854Y0088554D01*
X0020862Y0088758D01*
X0020876Y0088962D01*
X0020894Y0089166D01*
X0020918Y0089369D01*
X0020946Y0089571D01*
X0020979Y0089773D01*
X0021017Y0089973D01*
X0021060Y0090173D01*
X0021108Y0090372D01*
X0021160Y0090569D01*
X0021218Y0090765D01*
X0021280Y0090960D01*
X0021346Y0091153D01*
X0021418Y0091345D01*
X0021494Y0091534D01*
X0021574Y0091722D01*
X0021659Y0091908D01*
X0021749Y0092092D01*
X0021842Y0092273D01*
X0021941Y0092452D01*
X0022043Y0092629D01*
X0022150Y0092803D01*
X0022261Y0092975D01*
X0022376Y0093144D01*
X0022495Y0093310D01*
X0022618Y0093473D01*
X0022745Y0093633D01*
X0022876Y0093790D01*
X0023011Y0093944D01*
X0023149Y0094094D01*
X0023291Y0094241D01*
X0023436Y0094385D01*
X0023585Y0094525D01*
X0023737Y0094661D01*
X0023893Y0094794D01*
X0024051Y0094922D01*
X0024213Y0095047D01*
X0024378Y0095168D01*
X0024545Y0095285D01*
X0024716Y0095398D01*
X0024889Y0095507D01*
X0025064Y0095612D01*
X0025111Y0095530D01*
X0024937Y0095427D01*
X0024766Y0095319D01*
X0024598Y0095207D01*
X0024432Y0095092D01*
X0024269Y0094972D01*
X0024110Y0094848D01*
X0023953Y0094721D01*
X0023799Y0094590D01*
X0023649Y0094455D01*
X0023501Y0094317D01*
X0023358Y0094175D01*
X0023217Y0094029D01*
X0023081Y0093881D01*
X0022948Y0093729D01*
X0022818Y0093573D01*
X0022693Y0093415D01*
X0022571Y0093254D01*
X0022453Y0093090D01*
X0022339Y0092923D01*
X0022230Y0092753D01*
X0022124Y0092581D01*
X0022023Y0092406D01*
X0021925Y0092229D01*
X0021833Y0092050D01*
X0021744Y0091868D01*
X0021660Y0091684D01*
X0021580Y0091499D01*
X0021505Y0091311D01*
X0021435Y0091122D01*
X0021369Y0090931D01*
X0021308Y0090738D01*
X0021251Y0090544D01*
X0021199Y0090349D01*
X0021152Y0090153D01*
X0021110Y0089955D01*
X0021072Y0089757D01*
X0021039Y0089557D01*
X0021011Y0089357D01*
X0020988Y0089156D01*
X0020970Y0088955D01*
X0020956Y0088754D01*
X0020948Y0088552D01*
X0020944Y0088350D01*
X0021038Y0088350D01*
X0021042Y0088549D01*
X0021050Y0088749D01*
X0021063Y0088948D01*
X0021082Y0089147D01*
X0021104Y0089346D01*
X0021132Y0089543D01*
X0021165Y0089741D01*
X0021202Y0089937D01*
X0021244Y0090132D01*
X0021290Y0090326D01*
X0021342Y0090519D01*
X0021398Y0090711D01*
X0021458Y0090901D01*
X0021523Y0091090D01*
X0021593Y0091277D01*
X0021667Y0091463D01*
X0021746Y0091646D01*
X0021829Y0091828D01*
X0021917Y0092008D01*
X0022008Y0092185D01*
X0022104Y0092360D01*
X0022205Y0092533D01*
X0022309Y0092703D01*
X0022418Y0092871D01*
X0022530Y0093036D01*
X0022646Y0093198D01*
X0022767Y0093357D01*
X0022891Y0093514D01*
X0023019Y0093667D01*
X0023150Y0093818D01*
X0023286Y0093965D01*
X0023424Y0094108D01*
X0023566Y0094249D01*
X0023712Y0094386D01*
X0023861Y0094519D01*
X0024013Y0094649D01*
X0024168Y0094775D01*
X0024326Y0094897D01*
X0024487Y0095015D01*
X0024650Y0095129D01*
X0024817Y0095240D01*
X0024986Y0095346D01*
X0025157Y0095448D01*
X0025204Y0095367D01*
X0025034Y0095266D01*
X0024867Y0095161D01*
X0024703Y0095051D01*
X0024541Y0094938D01*
X0024382Y0094821D01*
X0024226Y0094701D01*
X0024072Y0094576D01*
X0023922Y0094448D01*
X0023775Y0094316D01*
X0023631Y0094181D01*
X0023491Y0094042D01*
X0023354Y0093900D01*
X0023220Y0093755D01*
X0023090Y0093606D01*
X0022964Y0093454D01*
X0022841Y0093300D01*
X0022722Y0093142D01*
X0022607Y0092982D01*
X0022496Y0092819D01*
X0022389Y0092653D01*
X0022285Y0092485D01*
X0022186Y0092314D01*
X0022091Y0092141D01*
X0022001Y0091965D01*
X0021914Y0091788D01*
X0021832Y0091608D01*
X0021754Y0091427D01*
X0021681Y0091244D01*
X0021612Y0091059D01*
X0021548Y0090872D01*
X0021488Y0090684D01*
X0021432Y0090494D01*
X0021382Y0090304D01*
X0021335Y0090112D01*
X0021294Y0089919D01*
X0021257Y0089725D01*
X0021225Y0089530D01*
X0021198Y0089334D01*
X0021175Y0089138D01*
X0021157Y0088941D01*
X0021144Y0088744D01*
X0021136Y0088547D01*
X0021132Y0088350D01*
X0021226Y0088350D01*
X0021230Y0088545D01*
X0021238Y0088740D01*
X0021251Y0088935D01*
X0021269Y0089129D01*
X0021291Y0089323D01*
X0021318Y0089516D01*
X0021350Y0089709D01*
X0021386Y0089900D01*
X0021427Y0090091D01*
X0021473Y0090281D01*
X0021523Y0090469D01*
X0021578Y0090657D01*
X0021637Y0090843D01*
X0021700Y0091027D01*
X0021769Y0091210D01*
X0021841Y0091391D01*
X0021918Y0091570D01*
X0021999Y0091748D01*
X0022085Y0091923D01*
X0022174Y0092097D01*
X0022268Y0092268D01*
X0022366Y0092436D01*
X0022468Y0092603D01*
X0022574Y0092767D01*
X0022684Y0092928D01*
X0022798Y0093086D01*
X0022915Y0093242D01*
X0023037Y0093395D01*
X0023162Y0093545D01*
X0023290Y0093692D01*
X0023422Y0093835D01*
X0023558Y0093976D01*
X0023697Y0094113D01*
X0023839Y0094247D01*
X0023984Y0094377D01*
X0024132Y0094504D01*
X0024284Y0094627D01*
X0024438Y0094746D01*
X0024595Y0094862D01*
X0024755Y0094973D01*
X0024918Y0095081D01*
X0025083Y0095185D01*
X0025251Y0095285D01*
X0025297Y0095204D01*
X0025132Y0095105D01*
X0024968Y0095002D01*
X0024808Y0094895D01*
X0024650Y0094785D01*
X0024494Y0094671D01*
X0024342Y0094553D01*
X0024192Y0094431D01*
X0024046Y0094306D01*
X0023902Y0094177D01*
X0023762Y0094045D01*
X0023624Y0093910D01*
X0023490Y0093771D01*
X0023360Y0093629D01*
X0023233Y0093484D01*
X0023109Y0093336D01*
X0022990Y0093185D01*
X0022873Y0093031D01*
X0022761Y0092874D01*
X0022652Y0092715D01*
X0022548Y0092553D01*
X0022447Y0092388D01*
X0022350Y0092222D01*
X0022257Y0092052D01*
X0022169Y0091881D01*
X0022084Y0091708D01*
X0022004Y0091532D01*
X0021928Y0091355D01*
X0021856Y0091176D01*
X0021789Y0090995D01*
X0021726Y0090813D01*
X0021668Y0090629D01*
X0021614Y0090444D01*
X0021564Y0090258D01*
X0021519Y0090070D01*
X0021478Y0089882D01*
X0021442Y0089693D01*
X0021411Y0089502D01*
X0021384Y0089311D01*
X0021362Y0089120D01*
X0021345Y0088928D01*
X0021332Y0088735D01*
X0021324Y0088543D01*
X0021320Y0088350D01*
X0021414Y0088350D01*
X0021418Y0088540D01*
X0021426Y0088731D01*
X0021438Y0088921D01*
X0021456Y0089111D01*
X0021478Y0089300D01*
X0021504Y0089488D01*
X0021535Y0089676D01*
X0021571Y0089864D01*
X0021611Y0090050D01*
X0021655Y0090235D01*
X0021704Y0090419D01*
X0021758Y0090602D01*
X0021815Y0090784D01*
X0021878Y0090964D01*
X0021944Y0091142D01*
X0022015Y0091319D01*
X0022090Y0091494D01*
X0022169Y0091668D01*
X0022253Y0091839D01*
X0022340Y0092008D01*
X0022432Y0092175D01*
X0022528Y0092340D01*
X0022627Y0092503D01*
X0022731Y0092663D01*
X0022838Y0092820D01*
X0022949Y0092975D01*
X0023064Y0093127D01*
X0023182Y0093276D01*
X0023304Y0093422D01*
X0023430Y0093566D01*
X0023559Y0093706D01*
X0023691Y0093843D01*
X0023827Y0093977D01*
X0023965Y0094108D01*
X0024107Y0094235D01*
X0024252Y0094359D01*
X0024400Y0094479D01*
X0024551Y0094595D01*
X0024704Y0094708D01*
X0024860Y0094817D01*
X0025019Y0094923D01*
X0025180Y0095024D01*
X0025344Y0095122D01*
X0025391Y0095040D01*
X0025229Y0094944D01*
X0025070Y0094844D01*
X0024913Y0094740D01*
X0024758Y0094632D01*
X0024607Y0094520D01*
X0024458Y0094405D01*
X0024312Y0094286D01*
X0024169Y0094164D01*
X0024029Y0094038D01*
X0023892Y0093909D01*
X0023758Y0093777D01*
X0023627Y0093641D01*
X0023500Y0093503D01*
X0023376Y0093361D01*
X0023255Y0093217D01*
X0023138Y0093069D01*
X0023025Y0092919D01*
X0022915Y0092766D01*
X0022809Y0092610D01*
X0022707Y0092452D01*
X0022608Y0092292D01*
X0022514Y0092129D01*
X0022423Y0091964D01*
X0022337Y0091797D01*
X0022254Y0091628D01*
X0022176Y0091457D01*
X0022102Y0091284D01*
X0022032Y0091109D01*
X0021966Y0090932D01*
X0021905Y0090754D01*
X0021848Y0090575D01*
X0021795Y0090394D01*
X0021746Y0090212D01*
X0021702Y0090029D01*
X0021663Y0089845D01*
X0021628Y0089660D01*
X0021597Y0089475D01*
X0021571Y0089288D01*
X0021549Y0089101D01*
X0021532Y0088914D01*
X0021520Y0088726D01*
X0021512Y0088538D01*
X0021508Y0088350D01*
X0021602Y0088350D01*
X0021606Y0088536D01*
X0021614Y0088721D01*
X0021626Y0088907D01*
X0021643Y0089092D01*
X0021664Y0089277D01*
X0021690Y0089461D01*
X0021720Y0089644D01*
X0021755Y0089827D01*
X0021794Y0090009D01*
X0021838Y0090190D01*
X0021885Y0090369D01*
X0021938Y0090548D01*
X0021994Y0090725D01*
X0022055Y0090901D01*
X0022120Y0091075D01*
X0022189Y0091248D01*
X0022262Y0091419D01*
X0022339Y0091588D01*
X0022421Y0091755D01*
X0022506Y0091920D01*
X0022596Y0092083D01*
X0022689Y0092244D01*
X0022786Y0092402D01*
X0022887Y0092558D01*
X0022992Y0092712D01*
X0023100Y0092863D01*
X0023212Y0093012D01*
X0023328Y0093157D01*
X0023447Y0093300D01*
X0023569Y0093440D01*
X0023695Y0093577D01*
X0023824Y0093711D01*
X0023957Y0093841D01*
X0024092Y0093969D01*
X0024230Y0094093D01*
X0024372Y0094214D01*
X0024516Y0094331D01*
X0024663Y0094445D01*
X0024813Y0094555D01*
X0024965Y0094662D01*
X0025120Y0094764D01*
X0025278Y0094863D01*
X0025437Y0094959D01*
X0025484Y0094877D01*
X0025326Y0094783D01*
X0025171Y0094685D01*
X0025018Y0094584D01*
X0024867Y0094478D01*
X0024719Y0094369D01*
X0024574Y0094257D01*
X0024432Y0094141D01*
X0024292Y0094022D01*
X0024155Y0093899D01*
X0024022Y0093773D01*
X0023891Y0093644D01*
X0023763Y0093512D01*
X0023639Y0093377D01*
X0023518Y0093239D01*
X0023401Y0093098D01*
X0023287Y0092954D01*
X0023176Y0092807D01*
X0023069Y0092658D01*
X0022965Y0092506D01*
X0022866Y0092352D01*
X0022770Y0092196D01*
X0022678Y0092037D01*
X0022589Y0091876D01*
X0022505Y0091713D01*
X0022424Y0091548D01*
X0022348Y0091381D01*
X0022276Y0091212D01*
X0022207Y0091041D01*
X0022143Y0090869D01*
X0022083Y0090696D01*
X0022027Y0090521D01*
X0021976Y0090344D01*
X0021929Y0090167D01*
X0021886Y0089988D01*
X0021847Y0089809D01*
X0021813Y0089628D01*
X0021783Y0089447D01*
X0021758Y0089265D01*
X0021736Y0089083D01*
X0021720Y0088900D01*
X0021707Y0088717D01*
X0021700Y0088533D01*
X0021696Y0088350D01*
X0020851Y0088251D02*
X0021751Y0088251D01*
X0021750Y0088250D02*
X0021754Y0088066D01*
X0021762Y0087881D01*
X0021774Y0087697D01*
X0021791Y0087514D01*
X0021813Y0087330D01*
X0021838Y0087148D01*
X0021869Y0086966D01*
X0021904Y0086785D01*
X0021943Y0086604D01*
X0021987Y0086425D01*
X0022035Y0086247D01*
X0022087Y0086070D01*
X0022144Y0085894D01*
X0022204Y0085720D01*
X0022270Y0085548D01*
X0022339Y0085377D01*
X0022412Y0085207D01*
X0022490Y0085040D01*
X0022572Y0084875D01*
X0022657Y0084711D01*
X0022747Y0084550D01*
X0022841Y0084391D01*
X0022938Y0084234D01*
X0023039Y0084080D01*
X0023144Y0083928D01*
X0023253Y0083779D01*
X0023365Y0083633D01*
X0023481Y0083489D01*
X0023600Y0083349D01*
X0023723Y0083211D01*
X0023849Y0083076D01*
X0023978Y0082944D01*
X0024111Y0082816D01*
X0024246Y0082691D01*
X0024385Y0082569D01*
X0023804Y0081882D01*
X0023648Y0082018D01*
X0023496Y0082159D01*
X0023347Y0082303D01*
X0023202Y0082450D01*
X0023061Y0082601D01*
X0022924Y0082755D01*
X0022790Y0082913D01*
X0022660Y0083074D01*
X0022534Y0083238D01*
X0022412Y0083405D01*
X0022294Y0083575D01*
X0022181Y0083748D01*
X0022072Y0083924D01*
X0021967Y0084102D01*
X0021866Y0084283D01*
X0021770Y0084466D01*
X0021678Y0084651D01*
X0021591Y0084839D01*
X0021509Y0085029D01*
X0021431Y0085220D01*
X0021358Y0085414D01*
X0021290Y0085609D01*
X0021226Y0085806D01*
X0021168Y0086004D01*
X0021114Y0086204D01*
X0021065Y0086405D01*
X0021021Y0086607D01*
X0020982Y0086810D01*
X0020948Y0087014D01*
X0020919Y0087219D01*
X0020895Y0087424D01*
X0020877Y0087630D01*
X0020863Y0087837D01*
X0020854Y0088043D01*
X0020850Y0088250D01*
X0020944Y0088250D01*
X0020948Y0088046D01*
X0020957Y0087841D01*
X0020970Y0087637D01*
X0020989Y0087434D01*
X0021013Y0087231D01*
X0021041Y0087028D01*
X0021075Y0086826D01*
X0021113Y0086626D01*
X0021157Y0086426D01*
X0021205Y0086227D01*
X0021258Y0086030D01*
X0021316Y0085833D01*
X0021379Y0085639D01*
X0021447Y0085446D01*
X0021519Y0085254D01*
X0021596Y0085065D01*
X0021677Y0084877D01*
X0021763Y0084692D01*
X0021854Y0084509D01*
X0021949Y0084327D01*
X0022048Y0084149D01*
X0022152Y0083973D01*
X0022260Y0083799D01*
X0022372Y0083628D01*
X0022489Y0083460D01*
X0022609Y0083295D01*
X0022734Y0083132D01*
X0022862Y0082973D01*
X0022994Y0082817D01*
X0023130Y0082665D01*
X0023270Y0082515D01*
X0023413Y0082370D01*
X0023560Y0082227D01*
X0023711Y0082089D01*
X0023864Y0081954D01*
X0023925Y0082025D01*
X0023773Y0082159D01*
X0023624Y0082296D01*
X0023479Y0082437D01*
X0023338Y0082581D01*
X0023199Y0082728D01*
X0023065Y0082879D01*
X0022934Y0083033D01*
X0022807Y0083191D01*
X0022684Y0083351D01*
X0022565Y0083515D01*
X0022450Y0083681D01*
X0022339Y0083850D01*
X0022232Y0084021D01*
X0022130Y0084196D01*
X0022031Y0084372D01*
X0021937Y0084551D01*
X0021848Y0084733D01*
X0021763Y0084916D01*
X0021682Y0085101D01*
X0021606Y0085289D01*
X0021535Y0085478D01*
X0021468Y0085669D01*
X0021406Y0085861D01*
X0021349Y0086055D01*
X0021296Y0086250D01*
X0021249Y0086447D01*
X0021206Y0086644D01*
X0021168Y0086843D01*
X0021134Y0087042D01*
X0021106Y0087242D01*
X0021083Y0087443D01*
X0021064Y0087644D01*
X0021050Y0087846D01*
X0021042Y0088048D01*
X0021038Y0088250D01*
X0021132Y0088250D01*
X0021136Y0088050D01*
X0021144Y0087851D01*
X0021158Y0087651D01*
X0021176Y0087452D01*
X0021199Y0087254D01*
X0021227Y0087056D01*
X0021260Y0086859D01*
X0021298Y0086663D01*
X0021340Y0086467D01*
X0021387Y0086273D01*
X0021439Y0086080D01*
X0021496Y0085889D01*
X0021557Y0085698D01*
X0021623Y0085510D01*
X0021694Y0085323D01*
X0021769Y0085138D01*
X0021849Y0084954D01*
X0021933Y0084773D01*
X0022021Y0084594D01*
X0022114Y0084417D01*
X0022211Y0084242D01*
X0022313Y0084070D01*
X0022418Y0083901D01*
X0022528Y0083733D01*
X0022642Y0083569D01*
X0022759Y0083408D01*
X0022881Y0083249D01*
X0023006Y0083094D01*
X0023136Y0082941D01*
X0023269Y0082792D01*
X0023405Y0082646D01*
X0023545Y0082504D01*
X0023689Y0082365D01*
X0023836Y0082229D01*
X0023986Y0082097D01*
X0024046Y0082169D01*
X0023898Y0082299D01*
X0023753Y0082433D01*
X0023611Y0082571D01*
X0023473Y0082712D01*
X0023338Y0082856D01*
X0023206Y0083003D01*
X0023079Y0083154D01*
X0022955Y0083308D01*
X0022834Y0083464D01*
X0022718Y0083624D01*
X0022606Y0083786D01*
X0022497Y0083951D01*
X0022393Y0084119D01*
X0022293Y0084289D01*
X0022197Y0084462D01*
X0022105Y0084637D01*
X0022017Y0084814D01*
X0021934Y0084993D01*
X0021856Y0085174D01*
X0021781Y0085357D01*
X0021712Y0085542D01*
X0021647Y0085728D01*
X0021586Y0085916D01*
X0021530Y0086106D01*
X0021479Y0086296D01*
X0021432Y0086488D01*
X0021390Y0086681D01*
X0021353Y0086875D01*
X0021320Y0087070D01*
X0021293Y0087266D01*
X0021270Y0087462D01*
X0021252Y0087658D01*
X0021238Y0087855D01*
X0021230Y0088053D01*
X0021226Y0088250D01*
X0021320Y0088250D01*
X0021324Y0088055D01*
X0021332Y0087860D01*
X0021345Y0087665D01*
X0021363Y0087471D01*
X0021386Y0087277D01*
X0021413Y0087084D01*
X0021445Y0086891D01*
X0021482Y0086700D01*
X0021524Y0086509D01*
X0021570Y0086319D01*
X0021620Y0086131D01*
X0021676Y0085944D01*
X0021736Y0085758D01*
X0021800Y0085574D01*
X0021869Y0085391D01*
X0021942Y0085210D01*
X0022020Y0085031D01*
X0022102Y0084854D01*
X0022189Y0084679D01*
X0022279Y0084507D01*
X0022374Y0084336D01*
X0022473Y0084168D01*
X0022576Y0084002D01*
X0022683Y0083839D01*
X0022794Y0083678D01*
X0022909Y0083521D01*
X0023028Y0083366D01*
X0023151Y0083214D01*
X0023277Y0083065D01*
X0023407Y0082919D01*
X0023540Y0082777D01*
X0023677Y0082638D01*
X0023817Y0082502D01*
X0023961Y0082370D01*
X0024107Y0082241D01*
X0024168Y0082313D01*
X0024023Y0082440D01*
X0023881Y0082571D01*
X0023743Y0082705D01*
X0023608Y0082842D01*
X0023476Y0082983D01*
X0023348Y0083127D01*
X0023223Y0083274D01*
X0023102Y0083424D01*
X0022985Y0083577D01*
X0022871Y0083733D01*
X0022761Y0083892D01*
X0022655Y0084053D01*
X0022554Y0084217D01*
X0022456Y0084383D01*
X0022362Y0084551D01*
X0022272Y0084722D01*
X0022187Y0084895D01*
X0022106Y0085070D01*
X0022029Y0085247D01*
X0021957Y0085425D01*
X0021888Y0085606D01*
X0021825Y0085788D01*
X0021766Y0085971D01*
X0021711Y0086156D01*
X0021661Y0086342D01*
X0021615Y0086530D01*
X0021574Y0086718D01*
X0021538Y0086908D01*
X0021506Y0087098D01*
X0021479Y0087289D01*
X0021457Y0087480D01*
X0021439Y0087672D01*
X0021426Y0087865D01*
X0021418Y0088057D01*
X0021414Y0088250D01*
X0021508Y0088250D01*
X0021512Y0088060D01*
X0021520Y0087869D01*
X0021533Y0087679D01*
X0021550Y0087490D01*
X0021572Y0087300D01*
X0021599Y0087112D01*
X0021630Y0086924D01*
X0021666Y0086737D01*
X0021707Y0086551D01*
X0021752Y0086366D01*
X0021801Y0086182D01*
X0021856Y0085999D01*
X0021914Y0085818D01*
X0021977Y0085638D01*
X0022044Y0085460D01*
X0022116Y0085283D01*
X0022192Y0085108D01*
X0022272Y0084936D01*
X0022356Y0084765D01*
X0022445Y0084596D01*
X0022537Y0084430D01*
X0022634Y0084265D01*
X0022734Y0084104D01*
X0022839Y0083944D01*
X0022947Y0083788D01*
X0023060Y0083634D01*
X0023176Y0083483D01*
X0023295Y0083334D01*
X0023418Y0083189D01*
X0023545Y0083047D01*
X0023675Y0082908D01*
X0023809Y0082772D01*
X0023945Y0082639D01*
X0024085Y0082510D01*
X0024229Y0082384D01*
X0024289Y0082456D01*
X0024148Y0082580D01*
X0024010Y0082708D01*
X0023875Y0082839D01*
X0023743Y0082973D01*
X0023614Y0083110D01*
X0023489Y0083251D01*
X0023367Y0083395D01*
X0023249Y0083541D01*
X0023135Y0083690D01*
X0023024Y0083842D01*
X0022917Y0083997D01*
X0022814Y0084154D01*
X0022714Y0084314D01*
X0022619Y0084476D01*
X0022527Y0084641D01*
X0022440Y0084807D01*
X0022357Y0084976D01*
X0022277Y0085147D01*
X0022202Y0085319D01*
X0022132Y0085494D01*
X0022065Y0085670D01*
X0022003Y0085847D01*
X0021945Y0086027D01*
X0021892Y0086207D01*
X0021843Y0086389D01*
X0021799Y0086571D01*
X0021759Y0086755D01*
X0021723Y0086940D01*
X0021692Y0087126D01*
X0021666Y0087312D01*
X0021644Y0087499D01*
X0021627Y0087686D01*
X0021614Y0087874D01*
X0021606Y0088062D01*
X0021602Y0088250D01*
X0021696Y0088250D01*
X0021700Y0088064D01*
X0021708Y0087879D01*
X0021720Y0087693D01*
X0021737Y0087508D01*
X0021759Y0087324D01*
X0021785Y0087140D01*
X0021816Y0086956D01*
X0021851Y0086774D01*
X0021890Y0086592D01*
X0021934Y0086412D01*
X0021983Y0086232D01*
X0022035Y0086054D01*
X0022092Y0085877D01*
X0022154Y0085702D01*
X0022219Y0085528D01*
X0022289Y0085356D01*
X0022363Y0085185D01*
X0022441Y0085017D01*
X0022524Y0084850D01*
X0022610Y0084686D01*
X0022700Y0084523D01*
X0022795Y0084363D01*
X0022893Y0084205D01*
X0022995Y0084050D01*
X0023100Y0083897D01*
X0023210Y0083747D01*
X0023323Y0083599D01*
X0023440Y0083455D01*
X0023560Y0083313D01*
X0023683Y0083174D01*
X0023810Y0083038D01*
X0023940Y0082906D01*
X0024074Y0082777D01*
X0024210Y0082650D01*
X0024350Y0082528D01*
X0034748Y0081841D02*
X0034171Y0082533D01*
X0034172Y0082532D02*
X0034309Y0082651D01*
X0034443Y0082772D01*
X0034574Y0082897D01*
X0034702Y0083025D01*
X0034826Y0083156D01*
X0034948Y0083290D01*
X0035067Y0083427D01*
X0035182Y0083566D01*
X0035293Y0083709D01*
X0035402Y0083854D01*
X0035507Y0084001D01*
X0035608Y0084151D01*
X0035705Y0084303D01*
X0035799Y0084458D01*
X0035890Y0084615D01*
X0035976Y0084774D01*
X0036059Y0084935D01*
X0036137Y0085098D01*
X0036212Y0085263D01*
X0036283Y0085429D01*
X0036350Y0085597D01*
X0036412Y0085767D01*
X0036471Y0085938D01*
X0036526Y0086111D01*
X0036576Y0086284D01*
X0036622Y0086459D01*
X0036664Y0086635D01*
X0036702Y0086812D01*
X0036735Y0086990D01*
X0036765Y0087169D01*
X0036790Y0087348D01*
X0036810Y0087528D01*
X0036827Y0087708D01*
X0036839Y0087888D01*
X0036846Y0088069D01*
X0036850Y0088250D01*
X0037749Y0088251D01*
X0037750Y0088250D01*
X0037746Y0088047D01*
X0037738Y0087845D01*
X0037724Y0087642D01*
X0037706Y0087440D01*
X0037683Y0087239D01*
X0037655Y0087038D01*
X0037622Y0086838D01*
X0037585Y0086638D01*
X0037543Y0086440D01*
X0037496Y0086242D01*
X0037444Y0086046D01*
X0037387Y0085852D01*
X0037326Y0085658D01*
X0037261Y0085466D01*
X0037190Y0085276D01*
X0037115Y0085087D01*
X0037036Y0084901D01*
X0036952Y0084716D01*
X0036864Y0084533D01*
X0036771Y0084353D01*
X0036675Y0084175D01*
X0036573Y0083999D01*
X0036468Y0083826D01*
X0036359Y0083655D01*
X0036245Y0083487D01*
X0036128Y0083321D01*
X0036006Y0083159D01*
X0035881Y0082999D01*
X0035752Y0082843D01*
X0035619Y0082690D01*
X0035482Y0082540D01*
X0035342Y0082393D01*
X0035199Y0082250D01*
X0035052Y0082110D01*
X0034902Y0081973D01*
X0034748Y0081841D01*
X0034688Y0081913D01*
X0034840Y0082044D01*
X0034988Y0082179D01*
X0035133Y0082317D01*
X0035275Y0082459D01*
X0035414Y0082604D01*
X0035549Y0082752D01*
X0035680Y0082904D01*
X0035808Y0083059D01*
X0035932Y0083216D01*
X0036052Y0083377D01*
X0036168Y0083540D01*
X0036280Y0083707D01*
X0036388Y0083875D01*
X0036493Y0084047D01*
X0036593Y0084221D01*
X0036688Y0084397D01*
X0036780Y0084575D01*
X0036867Y0084756D01*
X0036950Y0084939D01*
X0037029Y0085123D01*
X0037103Y0085309D01*
X0037172Y0085498D01*
X0037237Y0085687D01*
X0037297Y0085879D01*
X0037353Y0086071D01*
X0037404Y0086265D01*
X0037451Y0086460D01*
X0037493Y0086656D01*
X0037530Y0086853D01*
X0037562Y0087051D01*
X0037590Y0087250D01*
X0037613Y0087449D01*
X0037631Y0087649D01*
X0037644Y0087849D01*
X0037652Y0088050D01*
X0037656Y0088250D01*
X0037562Y0088250D01*
X0037558Y0088052D01*
X0037550Y0087854D01*
X0037537Y0087656D01*
X0037519Y0087458D01*
X0037496Y0087261D01*
X0037469Y0087065D01*
X0037437Y0086869D01*
X0037401Y0086675D01*
X0037359Y0086481D01*
X0037313Y0086288D01*
X0037263Y0086096D01*
X0037207Y0085906D01*
X0037148Y0085717D01*
X0037083Y0085529D01*
X0037015Y0085343D01*
X0036942Y0085159D01*
X0036864Y0084976D01*
X0036782Y0084796D01*
X0036696Y0084617D01*
X0036605Y0084441D01*
X0036511Y0084267D01*
X0036412Y0084095D01*
X0036309Y0083925D01*
X0036202Y0083758D01*
X0036091Y0083594D01*
X0035976Y0083433D01*
X0035857Y0083274D01*
X0035735Y0083118D01*
X0035609Y0082965D01*
X0035479Y0082815D01*
X0035345Y0082668D01*
X0035208Y0082525D01*
X0035068Y0082385D01*
X0034925Y0082248D01*
X0034778Y0082115D01*
X0034628Y0081985D01*
X0034568Y0082057D01*
X0034716Y0082186D01*
X0034861Y0082317D01*
X0035003Y0082452D01*
X0035141Y0082591D01*
X0035277Y0082733D01*
X0035409Y0082878D01*
X0035537Y0083026D01*
X0035662Y0083177D01*
X0035783Y0083331D01*
X0035900Y0083488D01*
X0036014Y0083648D01*
X0036123Y0083810D01*
X0036229Y0083975D01*
X0036331Y0084143D01*
X0036429Y0084313D01*
X0036522Y0084485D01*
X0036612Y0084659D01*
X0036697Y0084836D01*
X0036778Y0085014D01*
X0036855Y0085194D01*
X0036927Y0085377D01*
X0036995Y0085560D01*
X0037058Y0085746D01*
X0037117Y0085933D01*
X0037172Y0086121D01*
X0037222Y0086310D01*
X0037267Y0086501D01*
X0037308Y0086693D01*
X0037345Y0086885D01*
X0037376Y0087079D01*
X0037403Y0087273D01*
X0037425Y0087468D01*
X0037443Y0087663D01*
X0037456Y0087858D01*
X0037464Y0088054D01*
X0037468Y0088250D01*
X0037374Y0088250D01*
X0037370Y0088056D01*
X0037362Y0087863D01*
X0037349Y0087670D01*
X0037332Y0087477D01*
X0037310Y0087284D01*
X0037283Y0087092D01*
X0037252Y0086901D01*
X0037216Y0086711D01*
X0037176Y0086521D01*
X0037131Y0086333D01*
X0037081Y0086146D01*
X0037027Y0085960D01*
X0036969Y0085775D01*
X0036906Y0085592D01*
X0036839Y0085410D01*
X0036768Y0085230D01*
X0036692Y0085052D01*
X0036612Y0084875D01*
X0036528Y0084701D01*
X0036439Y0084529D01*
X0036347Y0084359D01*
X0036250Y0084191D01*
X0036149Y0084025D01*
X0036045Y0083862D01*
X0035937Y0083702D01*
X0035824Y0083544D01*
X0035708Y0083389D01*
X0035589Y0083236D01*
X0035465Y0083087D01*
X0035339Y0082940D01*
X0035208Y0082797D01*
X0035075Y0082657D01*
X0034938Y0082520D01*
X0034797Y0082387D01*
X0034654Y0082256D01*
X0034507Y0082130D01*
X0034447Y0082202D01*
X0034592Y0082327D01*
X0034734Y0082456D01*
X0034872Y0082588D01*
X0035008Y0082723D01*
X0035140Y0082862D01*
X0035269Y0083003D01*
X0035394Y0083148D01*
X0035516Y0083295D01*
X0035634Y0083446D01*
X0035749Y0083599D01*
X0035859Y0083755D01*
X0035967Y0083914D01*
X0036070Y0084075D01*
X0036169Y0084239D01*
X0036265Y0084405D01*
X0036356Y0084573D01*
X0036443Y0084743D01*
X0036527Y0084915D01*
X0036606Y0085090D01*
X0036681Y0085266D01*
X0036751Y0085444D01*
X0036818Y0085623D01*
X0036880Y0085804D01*
X0036937Y0085987D01*
X0036991Y0086171D01*
X0037040Y0086356D01*
X0037084Y0086542D01*
X0037124Y0086729D01*
X0037159Y0086917D01*
X0037190Y0087106D01*
X0037217Y0087296D01*
X0037238Y0087486D01*
X0037256Y0087676D01*
X0037268Y0087867D01*
X0037276Y0088059D01*
X0037280Y0088250D01*
X0037186Y0088250D01*
X0037182Y0088061D01*
X0037174Y0087872D01*
X0037162Y0087683D01*
X0037145Y0087495D01*
X0037123Y0087307D01*
X0037097Y0087120D01*
X0037067Y0086933D01*
X0037032Y0086747D01*
X0036992Y0086562D01*
X0036948Y0086378D01*
X0036900Y0086196D01*
X0036847Y0086014D01*
X0036790Y0085834D01*
X0036729Y0085655D01*
X0036663Y0085477D01*
X0036594Y0085301D01*
X0036520Y0085127D01*
X0036442Y0084955D01*
X0036359Y0084785D01*
X0036273Y0084617D01*
X0036183Y0084451D01*
X0036088Y0084287D01*
X0035990Y0084125D01*
X0035888Y0083966D01*
X0035782Y0083809D01*
X0035673Y0083655D01*
X0035559Y0083503D01*
X0035443Y0083355D01*
X0035322Y0083209D01*
X0035199Y0083066D01*
X0035071Y0082926D01*
X0034941Y0082789D01*
X0034807Y0082655D01*
X0034670Y0082525D01*
X0034530Y0082398D01*
X0034387Y0082274D01*
X0034327Y0082346D01*
X0034468Y0082469D01*
X0034606Y0082594D01*
X0034742Y0082723D01*
X0034874Y0082855D01*
X0035003Y0082990D01*
X0035128Y0083129D01*
X0035251Y0083270D01*
X0035370Y0083414D01*
X0035485Y0083561D01*
X0035597Y0083710D01*
X0035705Y0083863D01*
X0035810Y0084018D01*
X0035910Y0084175D01*
X0036007Y0084335D01*
X0036101Y0084496D01*
X0036190Y0084661D01*
X0036275Y0084827D01*
X0036356Y0084995D01*
X0036434Y0085165D01*
X0036507Y0085337D01*
X0036576Y0085511D01*
X0036640Y0085686D01*
X0036701Y0085863D01*
X0036757Y0086041D01*
X0036809Y0086220D01*
X0036857Y0086401D01*
X0036900Y0086583D01*
X0036939Y0086765D01*
X0036974Y0086949D01*
X0037004Y0087133D01*
X0037030Y0087318D01*
X0037051Y0087504D01*
X0037068Y0087690D01*
X0037080Y0087877D01*
X0037088Y0088063D01*
X0037092Y0088250D01*
X0036998Y0088250D01*
X0036994Y0088066D01*
X0036987Y0087881D01*
X0036974Y0087697D01*
X0036958Y0087513D01*
X0036937Y0087330D01*
X0036911Y0087147D01*
X0036881Y0086965D01*
X0036847Y0086784D01*
X0036809Y0086603D01*
X0036766Y0086424D01*
X0036719Y0086245D01*
X0036667Y0086068D01*
X0036612Y0085892D01*
X0036552Y0085717D01*
X0036488Y0085544D01*
X0036420Y0085373D01*
X0036348Y0085203D01*
X0036271Y0085035D01*
X0036191Y0084869D01*
X0036107Y0084705D01*
X0036019Y0084542D01*
X0035927Y0084382D01*
X0035831Y0084225D01*
X0035731Y0084069D01*
X0035628Y0083916D01*
X0035521Y0083766D01*
X0035411Y0083618D01*
X0035297Y0083473D01*
X0035179Y0083331D01*
X0035058Y0083191D01*
X0034934Y0083055D01*
X0034807Y0082921D01*
X0034676Y0082791D01*
X0034543Y0082663D01*
X0034406Y0082539D01*
X0034267Y0082419D01*
X0034206Y0082491D01*
X0034344Y0082610D01*
X0034479Y0082733D01*
X0034611Y0082858D01*
X0034740Y0082987D01*
X0034866Y0083119D01*
X0034988Y0083254D01*
X0035108Y0083392D01*
X0035224Y0083532D01*
X0035336Y0083676D01*
X0035445Y0083822D01*
X0035551Y0083970D01*
X0035653Y0084121D01*
X0035751Y0084275D01*
X0035846Y0084430D01*
X0035937Y0084588D01*
X0036024Y0084749D01*
X0036107Y0084911D01*
X0036186Y0085075D01*
X0036261Y0085241D01*
X0036333Y0085409D01*
X0036400Y0085578D01*
X0036463Y0085749D01*
X0036522Y0085921D01*
X0036577Y0086095D01*
X0036628Y0086270D01*
X0036675Y0086446D01*
X0036717Y0086624D01*
X0036755Y0086802D01*
X0036789Y0086981D01*
X0036818Y0087161D01*
X0036843Y0087341D01*
X0036864Y0087522D01*
X0036881Y0087704D01*
X0036893Y0087886D01*
X0036900Y0088068D01*
X0036904Y0088250D01*
X0138489Y0127565D02*
X0139270Y0128011D01*
X0139363Y0127854D01*
X0139460Y0127700D01*
X0139561Y0127548D01*
X0139666Y0127399D01*
X0139774Y0127252D01*
X0139885Y0127107D01*
X0140000Y0126966D01*
X0140119Y0126827D01*
X0140241Y0126692D01*
X0140366Y0126559D01*
X0140494Y0126429D01*
X0140625Y0126303D01*
X0140759Y0126179D01*
X0140896Y0126059D01*
X0141036Y0125942D01*
X0141179Y0125829D01*
X0141325Y0125719D01*
X0141473Y0125613D01*
X0141624Y0125510D01*
X0141777Y0125411D01*
X0141932Y0125316D01*
X0142090Y0125225D01*
X0142250Y0125137D01*
X0142412Y0125053D01*
X0142575Y0124973D01*
X0142741Y0124897D01*
X0142909Y0124826D01*
X0143078Y0124758D01*
X0143249Y0124694D01*
X0143421Y0124635D01*
X0143595Y0124579D01*
X0143770Y0124528D01*
X0143946Y0124481D01*
X0144123Y0124439D01*
X0144302Y0124400D01*
X0144481Y0124366D01*
X0144661Y0124336D01*
X0144841Y0124311D01*
X0145022Y0124290D01*
X0145204Y0124274D01*
X0145386Y0124261D01*
X0145568Y0124254D01*
X0145750Y0124250D01*
X0145751Y0123351D01*
X0145750Y0123350D01*
X0145546Y0123354D01*
X0145342Y0123362D01*
X0145138Y0123376D01*
X0144934Y0123394D01*
X0144731Y0123418D01*
X0144529Y0123446D01*
X0144327Y0123479D01*
X0144127Y0123517D01*
X0143927Y0123560D01*
X0143728Y0123608D01*
X0143531Y0123660D01*
X0143335Y0123718D01*
X0143140Y0123780D01*
X0142947Y0123846D01*
X0142755Y0123918D01*
X0142566Y0123994D01*
X0142378Y0124074D01*
X0142192Y0124159D01*
X0142008Y0124249D01*
X0141827Y0124342D01*
X0141648Y0124441D01*
X0141471Y0124543D01*
X0141297Y0124650D01*
X0141125Y0124761D01*
X0140956Y0124876D01*
X0140790Y0124995D01*
X0140627Y0125118D01*
X0140467Y0125245D01*
X0140310Y0125376D01*
X0140156Y0125511D01*
X0140006Y0125649D01*
X0139859Y0125791D01*
X0139715Y0125936D01*
X0139575Y0126085D01*
X0139439Y0126237D01*
X0139306Y0126393D01*
X0139178Y0126551D01*
X0139053Y0126713D01*
X0138932Y0126878D01*
X0138815Y0127045D01*
X0138702Y0127216D01*
X0138593Y0127389D01*
X0138488Y0127564D01*
X0138570Y0127611D01*
X0138673Y0127437D01*
X0138781Y0127266D01*
X0138893Y0127098D01*
X0139008Y0126932D01*
X0139128Y0126769D01*
X0139252Y0126610D01*
X0139379Y0126453D01*
X0139510Y0126299D01*
X0139645Y0126149D01*
X0139783Y0126001D01*
X0139925Y0125858D01*
X0140071Y0125717D01*
X0140219Y0125581D01*
X0140371Y0125448D01*
X0140527Y0125318D01*
X0140685Y0125193D01*
X0140846Y0125071D01*
X0141010Y0124953D01*
X0141177Y0124839D01*
X0141347Y0124730D01*
X0141519Y0124624D01*
X0141694Y0124523D01*
X0141871Y0124425D01*
X0142050Y0124333D01*
X0142232Y0124244D01*
X0142416Y0124160D01*
X0142601Y0124080D01*
X0142789Y0124005D01*
X0142978Y0123935D01*
X0143169Y0123869D01*
X0143362Y0123808D01*
X0143556Y0123751D01*
X0143751Y0123699D01*
X0143947Y0123652D01*
X0144145Y0123610D01*
X0144343Y0123572D01*
X0144543Y0123539D01*
X0144743Y0123511D01*
X0144944Y0123488D01*
X0145145Y0123470D01*
X0145346Y0123456D01*
X0145548Y0123448D01*
X0145750Y0123444D01*
X0145750Y0123538D01*
X0145551Y0123542D01*
X0145351Y0123550D01*
X0145152Y0123563D01*
X0144953Y0123582D01*
X0144754Y0123604D01*
X0144557Y0123632D01*
X0144359Y0123665D01*
X0144163Y0123702D01*
X0143968Y0123744D01*
X0143774Y0123790D01*
X0143581Y0123842D01*
X0143389Y0123898D01*
X0143199Y0123958D01*
X0143010Y0124023D01*
X0142823Y0124093D01*
X0142637Y0124167D01*
X0142454Y0124246D01*
X0142272Y0124329D01*
X0142092Y0124417D01*
X0141915Y0124508D01*
X0141740Y0124604D01*
X0141567Y0124705D01*
X0141397Y0124809D01*
X0141229Y0124918D01*
X0141064Y0125030D01*
X0140902Y0125146D01*
X0140743Y0125267D01*
X0140586Y0125391D01*
X0140433Y0125519D01*
X0140282Y0125650D01*
X0140135Y0125786D01*
X0139992Y0125924D01*
X0139851Y0126066D01*
X0139714Y0126212D01*
X0139581Y0126361D01*
X0139451Y0126513D01*
X0139325Y0126668D01*
X0139203Y0126826D01*
X0139085Y0126987D01*
X0138971Y0127150D01*
X0138860Y0127317D01*
X0138754Y0127486D01*
X0138652Y0127657D01*
X0138733Y0127704D01*
X0138834Y0127534D01*
X0138939Y0127367D01*
X0139049Y0127203D01*
X0139162Y0127041D01*
X0139279Y0126882D01*
X0139399Y0126726D01*
X0139524Y0126572D01*
X0139652Y0126422D01*
X0139784Y0126275D01*
X0139919Y0126131D01*
X0140058Y0125991D01*
X0140200Y0125854D01*
X0140345Y0125720D01*
X0140494Y0125590D01*
X0140646Y0125464D01*
X0140800Y0125341D01*
X0140958Y0125222D01*
X0141118Y0125107D01*
X0141281Y0124996D01*
X0141447Y0124889D01*
X0141615Y0124785D01*
X0141786Y0124686D01*
X0141959Y0124591D01*
X0142135Y0124501D01*
X0142312Y0124414D01*
X0142492Y0124332D01*
X0142673Y0124254D01*
X0142856Y0124181D01*
X0143041Y0124112D01*
X0143228Y0124048D01*
X0143416Y0123988D01*
X0143606Y0123932D01*
X0143796Y0123882D01*
X0143988Y0123835D01*
X0144181Y0123794D01*
X0144375Y0123757D01*
X0144570Y0123725D01*
X0144766Y0123698D01*
X0144962Y0123675D01*
X0145159Y0123657D01*
X0145356Y0123644D01*
X0145553Y0123636D01*
X0145750Y0123632D01*
X0145750Y0123726D01*
X0145555Y0123730D01*
X0145360Y0123738D01*
X0145165Y0123751D01*
X0144971Y0123769D01*
X0144777Y0123791D01*
X0144584Y0123818D01*
X0144391Y0123850D01*
X0144200Y0123886D01*
X0144009Y0123927D01*
X0143819Y0123973D01*
X0143631Y0124023D01*
X0143443Y0124078D01*
X0143257Y0124137D01*
X0143073Y0124200D01*
X0142890Y0124269D01*
X0142709Y0124341D01*
X0142530Y0124418D01*
X0142352Y0124499D01*
X0142177Y0124585D01*
X0142003Y0124674D01*
X0141832Y0124768D01*
X0141664Y0124866D01*
X0141497Y0124968D01*
X0141333Y0125074D01*
X0141172Y0125184D01*
X0141014Y0125298D01*
X0140858Y0125415D01*
X0140705Y0125537D01*
X0140555Y0125662D01*
X0140408Y0125790D01*
X0140265Y0125922D01*
X0140124Y0126058D01*
X0139987Y0126197D01*
X0139853Y0126339D01*
X0139723Y0126484D01*
X0139596Y0126632D01*
X0139473Y0126784D01*
X0139354Y0126938D01*
X0139238Y0127095D01*
X0139127Y0127255D01*
X0139019Y0127418D01*
X0138915Y0127583D01*
X0138815Y0127751D01*
X0138896Y0127797D01*
X0138995Y0127632D01*
X0139098Y0127468D01*
X0139205Y0127308D01*
X0139315Y0127150D01*
X0139429Y0126994D01*
X0139547Y0126842D01*
X0139669Y0126692D01*
X0139794Y0126546D01*
X0139923Y0126402D01*
X0140055Y0126262D01*
X0140190Y0126124D01*
X0140329Y0125990D01*
X0140471Y0125860D01*
X0140616Y0125733D01*
X0140764Y0125609D01*
X0140915Y0125490D01*
X0141069Y0125373D01*
X0141226Y0125261D01*
X0141385Y0125152D01*
X0141547Y0125048D01*
X0141712Y0124947D01*
X0141878Y0124850D01*
X0142048Y0124757D01*
X0142219Y0124669D01*
X0142392Y0124584D01*
X0142568Y0124504D01*
X0142745Y0124428D01*
X0142924Y0124356D01*
X0143105Y0124289D01*
X0143287Y0124226D01*
X0143471Y0124168D01*
X0143656Y0124114D01*
X0143842Y0124064D01*
X0144030Y0124019D01*
X0144218Y0123978D01*
X0144407Y0123942D01*
X0144598Y0123911D01*
X0144789Y0123884D01*
X0144980Y0123862D01*
X0145172Y0123845D01*
X0145365Y0123832D01*
X0145557Y0123824D01*
X0145750Y0123820D01*
X0145750Y0123914D01*
X0145560Y0123918D01*
X0145369Y0123926D01*
X0145179Y0123938D01*
X0144989Y0123956D01*
X0144800Y0123978D01*
X0144612Y0124004D01*
X0144424Y0124035D01*
X0144236Y0124071D01*
X0144050Y0124111D01*
X0143865Y0124155D01*
X0143681Y0124204D01*
X0143498Y0124258D01*
X0143316Y0124315D01*
X0143136Y0124378D01*
X0142958Y0124444D01*
X0142781Y0124515D01*
X0142606Y0124590D01*
X0142432Y0124669D01*
X0142261Y0124753D01*
X0142092Y0124840D01*
X0141925Y0124932D01*
X0141760Y0125028D01*
X0141597Y0125127D01*
X0141437Y0125231D01*
X0141280Y0125338D01*
X0141125Y0125449D01*
X0140973Y0125564D01*
X0140824Y0125682D01*
X0140678Y0125804D01*
X0140534Y0125930D01*
X0140394Y0126059D01*
X0140257Y0126191D01*
X0140123Y0126327D01*
X0139992Y0126465D01*
X0139865Y0126607D01*
X0139741Y0126752D01*
X0139621Y0126900D01*
X0139505Y0127051D01*
X0139392Y0127204D01*
X0139283Y0127360D01*
X0139177Y0127519D01*
X0139076Y0127680D01*
X0138978Y0127844D01*
X0139060Y0127891D01*
X0139156Y0127729D01*
X0139256Y0127570D01*
X0139360Y0127413D01*
X0139468Y0127258D01*
X0139580Y0127107D01*
X0139695Y0126958D01*
X0139814Y0126812D01*
X0139936Y0126669D01*
X0140062Y0126529D01*
X0140191Y0126392D01*
X0140323Y0126258D01*
X0140459Y0126127D01*
X0140597Y0126000D01*
X0140739Y0125876D01*
X0140883Y0125755D01*
X0141031Y0125638D01*
X0141181Y0125525D01*
X0141334Y0125415D01*
X0141490Y0125309D01*
X0141648Y0125207D01*
X0141808Y0125108D01*
X0141971Y0125014D01*
X0142136Y0124923D01*
X0142303Y0124837D01*
X0142472Y0124754D01*
X0142643Y0124676D01*
X0142816Y0124602D01*
X0142991Y0124532D01*
X0143168Y0124466D01*
X0143346Y0124405D01*
X0143525Y0124348D01*
X0143706Y0124295D01*
X0143888Y0124246D01*
X0144071Y0124202D01*
X0144255Y0124163D01*
X0144440Y0124128D01*
X0144625Y0124097D01*
X0144812Y0124071D01*
X0144999Y0124049D01*
X0145186Y0124032D01*
X0145374Y0124020D01*
X0145562Y0124012D01*
X0145750Y0124008D01*
X0145750Y0124102D01*
X0145564Y0124106D01*
X0145379Y0124114D01*
X0145193Y0124126D01*
X0145008Y0124143D01*
X0144823Y0124164D01*
X0144639Y0124190D01*
X0144456Y0124220D01*
X0144273Y0124255D01*
X0144091Y0124294D01*
X0143910Y0124338D01*
X0143731Y0124385D01*
X0143552Y0124438D01*
X0143375Y0124494D01*
X0143199Y0124555D01*
X0143025Y0124620D01*
X0142852Y0124689D01*
X0142681Y0124762D01*
X0142512Y0124839D01*
X0142345Y0124921D01*
X0142180Y0125006D01*
X0142017Y0125096D01*
X0141856Y0125189D01*
X0141698Y0125286D01*
X0141542Y0125387D01*
X0141388Y0125492D01*
X0141237Y0125600D01*
X0141088Y0125712D01*
X0140943Y0125828D01*
X0140800Y0125947D01*
X0140660Y0126069D01*
X0140523Y0126195D01*
X0140389Y0126324D01*
X0140259Y0126457D01*
X0140131Y0126592D01*
X0140007Y0126730D01*
X0139886Y0126872D01*
X0139769Y0127016D01*
X0139655Y0127163D01*
X0139545Y0127313D01*
X0139438Y0127465D01*
X0139336Y0127620D01*
X0139237Y0127778D01*
X0139141Y0127937D01*
X0139223Y0127984D01*
X0139317Y0127826D01*
X0139415Y0127671D01*
X0139516Y0127518D01*
X0139622Y0127367D01*
X0139731Y0127219D01*
X0139843Y0127074D01*
X0139959Y0126932D01*
X0140078Y0126792D01*
X0140201Y0126655D01*
X0140327Y0126522D01*
X0140456Y0126391D01*
X0140588Y0126263D01*
X0140723Y0126139D01*
X0140861Y0126018D01*
X0141002Y0125901D01*
X0141146Y0125787D01*
X0141293Y0125676D01*
X0141442Y0125569D01*
X0141594Y0125465D01*
X0141748Y0125366D01*
X0141904Y0125270D01*
X0142063Y0125178D01*
X0142224Y0125089D01*
X0142387Y0125005D01*
X0142552Y0124924D01*
X0142719Y0124848D01*
X0142888Y0124776D01*
X0143059Y0124707D01*
X0143231Y0124643D01*
X0143404Y0124583D01*
X0143579Y0124527D01*
X0143756Y0124476D01*
X0143933Y0124429D01*
X0144112Y0124386D01*
X0144291Y0124347D01*
X0144472Y0124313D01*
X0144653Y0124283D01*
X0144835Y0124258D01*
X0145017Y0124236D01*
X0145200Y0124220D01*
X0145383Y0124207D01*
X0145567Y0124200D01*
X0145750Y0124196D01*
X0145750Y0140249D02*
X0145750Y0139349D01*
X0145750Y0139350D02*
X0145567Y0139346D01*
X0145384Y0139339D01*
X0145201Y0139326D01*
X0145018Y0139309D01*
X0144836Y0139288D01*
X0144655Y0139263D01*
X0144474Y0139233D01*
X0144294Y0139198D01*
X0144115Y0139160D01*
X0143937Y0139117D01*
X0143760Y0139069D01*
X0143585Y0139018D01*
X0143410Y0138962D01*
X0143237Y0138902D01*
X0143066Y0138837D01*
X0142896Y0138769D01*
X0142727Y0138697D01*
X0142561Y0138620D01*
X0142397Y0138539D01*
X0142234Y0138455D01*
X0142074Y0138366D01*
X0141915Y0138274D01*
X0141759Y0138178D01*
X0141606Y0138078D01*
X0141455Y0137974D01*
X0141306Y0137867D01*
X0141160Y0137756D01*
X0141017Y0137642D01*
X0140877Y0137524D01*
X0140740Y0137403D01*
X0140605Y0137279D01*
X0140474Y0137151D01*
X0140345Y0137020D01*
X0140220Y0136886D01*
X0140099Y0136750D01*
X0139980Y0136610D01*
X0139865Y0136467D01*
X0139754Y0136322D01*
X0139646Y0136174D01*
X0139542Y0136023D01*
X0139441Y0135870D01*
X0139344Y0135715D01*
X0139251Y0135557D01*
X0139162Y0135397D01*
X0138368Y0135820D01*
X0138468Y0136000D01*
X0138572Y0136177D01*
X0138680Y0136351D01*
X0138793Y0136523D01*
X0138910Y0136691D01*
X0139031Y0136857D01*
X0139155Y0137020D01*
X0139284Y0137180D01*
X0139417Y0137337D01*
X0139553Y0137490D01*
X0139693Y0137640D01*
X0139837Y0137787D01*
X0139984Y0137930D01*
X0140135Y0138070D01*
X0140289Y0138205D01*
X0140446Y0138337D01*
X0140606Y0138465D01*
X0140770Y0138590D01*
X0140936Y0138710D01*
X0141106Y0138826D01*
X0141278Y0138938D01*
X0141452Y0139046D01*
X0141630Y0139149D01*
X0141809Y0139248D01*
X0141992Y0139343D01*
X0142176Y0139433D01*
X0142362Y0139519D01*
X0142551Y0139600D01*
X0142741Y0139677D01*
X0142934Y0139749D01*
X0143128Y0139816D01*
X0143323Y0139879D01*
X0143520Y0139937D01*
X0143718Y0139990D01*
X0143918Y0140038D01*
X0144119Y0140081D01*
X0144320Y0140119D01*
X0144523Y0140153D01*
X0144726Y0140181D01*
X0144930Y0140205D01*
X0145135Y0140224D01*
X0145339Y0140237D01*
X0145544Y0140246D01*
X0145750Y0140250D01*
X0145750Y0140156D01*
X0145547Y0140152D01*
X0145344Y0140144D01*
X0145141Y0140130D01*
X0144939Y0140112D01*
X0144738Y0140088D01*
X0144537Y0140060D01*
X0144336Y0140027D01*
X0144137Y0139989D01*
X0143939Y0139946D01*
X0143741Y0139898D01*
X0143545Y0139846D01*
X0143350Y0139789D01*
X0143157Y0139727D01*
X0142965Y0139660D01*
X0142775Y0139589D01*
X0142587Y0139514D01*
X0142401Y0139433D01*
X0142216Y0139348D01*
X0142034Y0139259D01*
X0141854Y0139165D01*
X0141676Y0139067D01*
X0141501Y0138965D01*
X0141328Y0138859D01*
X0141158Y0138748D01*
X0140990Y0138633D01*
X0140826Y0138514D01*
X0140664Y0138391D01*
X0140506Y0138265D01*
X0140350Y0138134D01*
X0140198Y0138000D01*
X0140049Y0137862D01*
X0139903Y0137721D01*
X0139761Y0137576D01*
X0139623Y0137427D01*
X0139488Y0137276D01*
X0139357Y0137121D01*
X0139230Y0136963D01*
X0139106Y0136801D01*
X0138987Y0136637D01*
X0138871Y0136470D01*
X0138760Y0136301D01*
X0138652Y0136128D01*
X0138549Y0135953D01*
X0138451Y0135776D01*
X0138534Y0135732D01*
X0138631Y0135907D01*
X0138733Y0136080D01*
X0138839Y0136250D01*
X0138949Y0136418D01*
X0139063Y0136583D01*
X0139182Y0136745D01*
X0139304Y0136905D01*
X0139430Y0137061D01*
X0139559Y0137214D01*
X0139693Y0137364D01*
X0139829Y0137511D01*
X0139970Y0137654D01*
X0140114Y0137794D01*
X0140261Y0137930D01*
X0140412Y0138063D01*
X0140565Y0138192D01*
X0140722Y0138317D01*
X0140882Y0138439D01*
X0141045Y0138556D01*
X0141210Y0138670D01*
X0141378Y0138779D01*
X0141549Y0138885D01*
X0141722Y0138986D01*
X0141898Y0139083D01*
X0142076Y0139175D01*
X0142256Y0139263D01*
X0142439Y0139347D01*
X0142623Y0139427D01*
X0142809Y0139502D01*
X0142997Y0139572D01*
X0143187Y0139638D01*
X0143378Y0139699D01*
X0143570Y0139755D01*
X0143764Y0139807D01*
X0143959Y0139854D01*
X0144155Y0139897D01*
X0144353Y0139934D01*
X0144551Y0139967D01*
X0144749Y0139995D01*
X0144949Y0140018D01*
X0145148Y0140036D01*
X0145349Y0140050D01*
X0145549Y0140058D01*
X0145750Y0140062D01*
X0145750Y0139968D01*
X0145551Y0139964D01*
X0145353Y0139956D01*
X0145155Y0139943D01*
X0144958Y0139924D01*
X0144761Y0139902D01*
X0144564Y0139874D01*
X0144369Y0139842D01*
X0144174Y0139804D01*
X0143980Y0139763D01*
X0143787Y0139716D01*
X0143595Y0139665D01*
X0143405Y0139609D01*
X0143216Y0139549D01*
X0143029Y0139484D01*
X0142843Y0139414D01*
X0142659Y0139340D01*
X0142477Y0139261D01*
X0142297Y0139178D01*
X0142118Y0139091D01*
X0141942Y0139000D01*
X0141769Y0138904D01*
X0141597Y0138804D01*
X0141429Y0138700D01*
X0141262Y0138592D01*
X0141099Y0138479D01*
X0140938Y0138363D01*
X0140780Y0138243D01*
X0140625Y0138119D01*
X0140473Y0137992D01*
X0140324Y0137861D01*
X0140179Y0137726D01*
X0140036Y0137588D01*
X0139898Y0137446D01*
X0139762Y0137301D01*
X0139630Y0137153D01*
X0139502Y0137001D01*
X0139378Y0136847D01*
X0139257Y0136690D01*
X0139140Y0136529D01*
X0139027Y0136366D01*
X0138919Y0136200D01*
X0138814Y0136032D01*
X0138713Y0135861D01*
X0138617Y0135688D01*
X0138699Y0135643D01*
X0138795Y0135815D01*
X0138894Y0135984D01*
X0138998Y0136150D01*
X0139106Y0136314D01*
X0139217Y0136475D01*
X0139333Y0136634D01*
X0139452Y0136789D01*
X0139575Y0136942D01*
X0139702Y0137091D01*
X0139832Y0137238D01*
X0139966Y0137381D01*
X0140103Y0137521D01*
X0140244Y0137658D01*
X0140387Y0137791D01*
X0140534Y0137921D01*
X0140685Y0138047D01*
X0140838Y0138169D01*
X0140994Y0138288D01*
X0141153Y0138403D01*
X0141315Y0138513D01*
X0141479Y0138620D01*
X0141646Y0138723D01*
X0141815Y0138822D01*
X0141987Y0138917D01*
X0142161Y0139007D01*
X0142337Y0139094D01*
X0142515Y0139175D01*
X0142695Y0139253D01*
X0142877Y0139326D01*
X0143060Y0139395D01*
X0143246Y0139459D01*
X0143432Y0139519D01*
X0143620Y0139574D01*
X0143810Y0139625D01*
X0144000Y0139671D01*
X0144192Y0139712D01*
X0144385Y0139749D01*
X0144578Y0139781D01*
X0144772Y0139808D01*
X0144967Y0139831D01*
X0145162Y0139849D01*
X0145358Y0139862D01*
X0145554Y0139870D01*
X0145750Y0139874D01*
X0145750Y0139780D01*
X0145556Y0139776D01*
X0145362Y0139768D01*
X0145169Y0139755D01*
X0144976Y0139737D01*
X0144784Y0139715D01*
X0144592Y0139688D01*
X0144401Y0139656D01*
X0144210Y0139620D01*
X0144021Y0139579D01*
X0143833Y0139534D01*
X0143646Y0139484D01*
X0143460Y0139429D01*
X0143275Y0139370D01*
X0143092Y0139307D01*
X0142911Y0139239D01*
X0142731Y0139166D01*
X0142553Y0139090D01*
X0142377Y0139009D01*
X0142203Y0138923D01*
X0142031Y0138834D01*
X0141861Y0138740D01*
X0141694Y0138643D01*
X0141529Y0138541D01*
X0141367Y0138435D01*
X0141207Y0138326D01*
X0141050Y0138212D01*
X0140896Y0138095D01*
X0140744Y0137974D01*
X0140596Y0137850D01*
X0140451Y0137722D01*
X0140308Y0137590D01*
X0140169Y0137455D01*
X0140034Y0137317D01*
X0139902Y0137175D01*
X0139773Y0137030D01*
X0139648Y0136882D01*
X0139526Y0136731D01*
X0139408Y0136578D01*
X0139294Y0136421D01*
X0139184Y0136262D01*
X0139078Y0136100D01*
X0138975Y0135935D01*
X0138877Y0135768D01*
X0138782Y0135599D01*
X0138865Y0135555D01*
X0138959Y0135722D01*
X0139056Y0135887D01*
X0139157Y0136050D01*
X0139262Y0136210D01*
X0139371Y0136367D01*
X0139484Y0136522D01*
X0139600Y0136674D01*
X0139720Y0136823D01*
X0139844Y0136969D01*
X0139971Y0137112D01*
X0140102Y0137252D01*
X0140236Y0137388D01*
X0140373Y0137522D01*
X0140514Y0137652D01*
X0140657Y0137779D01*
X0140804Y0137902D01*
X0140954Y0138021D01*
X0141106Y0138137D01*
X0141261Y0138249D01*
X0141419Y0138357D01*
X0141580Y0138462D01*
X0141743Y0138562D01*
X0141908Y0138659D01*
X0142075Y0138751D01*
X0142245Y0138839D01*
X0142417Y0138924D01*
X0142591Y0139004D01*
X0142767Y0139079D01*
X0142945Y0139151D01*
X0143124Y0139218D01*
X0143305Y0139281D01*
X0143487Y0139339D01*
X0143671Y0139393D01*
X0143856Y0139443D01*
X0144042Y0139487D01*
X0144229Y0139528D01*
X0144417Y0139564D01*
X0144606Y0139595D01*
X0144795Y0139622D01*
X0144985Y0139644D01*
X0145176Y0139661D01*
X0145367Y0139674D01*
X0145558Y0139682D01*
X0145750Y0139686D01*
X0145750Y0139592D01*
X0145561Y0139588D01*
X0145372Y0139580D01*
X0145183Y0139568D01*
X0144995Y0139550D01*
X0144807Y0139528D01*
X0144620Y0139502D01*
X0144433Y0139471D01*
X0144247Y0139436D01*
X0144062Y0139396D01*
X0143878Y0139351D01*
X0143696Y0139302D01*
X0143514Y0139249D01*
X0143334Y0139192D01*
X0143156Y0139130D01*
X0142978Y0139063D01*
X0142803Y0138993D01*
X0142629Y0138918D01*
X0142457Y0138839D01*
X0142288Y0138755D01*
X0142120Y0138668D01*
X0141954Y0138577D01*
X0141791Y0138481D01*
X0141630Y0138382D01*
X0141471Y0138279D01*
X0141315Y0138172D01*
X0141162Y0138061D01*
X0141011Y0137947D01*
X0140864Y0137829D01*
X0140719Y0137707D01*
X0140577Y0137582D01*
X0140438Y0137454D01*
X0140303Y0137322D01*
X0140170Y0137187D01*
X0140041Y0137049D01*
X0139915Y0136907D01*
X0139793Y0136763D01*
X0139674Y0136616D01*
X0139559Y0136466D01*
X0139448Y0136313D01*
X0139340Y0136157D01*
X0139236Y0135999D01*
X0139136Y0135839D01*
X0139040Y0135676D01*
X0138948Y0135511D01*
X0139031Y0135466D01*
X0139122Y0135630D01*
X0139217Y0135791D01*
X0139316Y0135949D01*
X0139418Y0136105D01*
X0139525Y0136259D01*
X0139635Y0136410D01*
X0139749Y0136558D01*
X0139866Y0136704D01*
X0139987Y0136846D01*
X0140111Y0136986D01*
X0140238Y0137122D01*
X0140369Y0137256D01*
X0140503Y0137386D01*
X0140640Y0137513D01*
X0140780Y0137636D01*
X0140923Y0137756D01*
X0141069Y0137873D01*
X0141218Y0137986D01*
X0141370Y0138095D01*
X0141524Y0138201D01*
X0141680Y0138303D01*
X0141839Y0138401D01*
X0142001Y0138495D01*
X0142164Y0138585D01*
X0142330Y0138672D01*
X0142498Y0138754D01*
X0142667Y0138832D01*
X0142839Y0138906D01*
X0143012Y0138975D01*
X0143187Y0139041D01*
X0143364Y0139102D01*
X0143542Y0139159D01*
X0143721Y0139212D01*
X0143901Y0139260D01*
X0144083Y0139304D01*
X0144266Y0139344D01*
X0144449Y0139379D01*
X0144633Y0139409D01*
X0144818Y0139435D01*
X0145004Y0139457D01*
X0145190Y0139474D01*
X0145376Y0139486D01*
X0145563Y0139494D01*
X0145750Y0139498D01*
X0145750Y0139404D01*
X0145565Y0139400D01*
X0145381Y0139392D01*
X0145197Y0139380D01*
X0145013Y0139363D01*
X0144830Y0139342D01*
X0144647Y0139316D01*
X0144465Y0139286D01*
X0144284Y0139251D01*
X0144104Y0139212D01*
X0143924Y0139169D01*
X0143746Y0139121D01*
X0143569Y0139069D01*
X0143393Y0139013D01*
X0143219Y0138953D01*
X0143046Y0138888D01*
X0142875Y0138819D01*
X0142706Y0138746D01*
X0142538Y0138669D01*
X0142372Y0138588D01*
X0142209Y0138502D01*
X0142047Y0138413D01*
X0141888Y0138320D01*
X0141731Y0138223D01*
X0141576Y0138123D01*
X0141424Y0138018D01*
X0141274Y0137910D01*
X0141127Y0137799D01*
X0140983Y0137684D01*
X0140842Y0137565D01*
X0140703Y0137443D01*
X0140568Y0137318D01*
X0140436Y0137189D01*
X0140306Y0137057D01*
X0140180Y0136923D01*
X0140058Y0136785D01*
X0139939Y0136644D01*
X0139823Y0136500D01*
X0139710Y0136354D01*
X0139602Y0136205D01*
X0139497Y0136053D01*
X0139395Y0135899D01*
X0139298Y0135742D01*
X0139204Y0135583D01*
X0139114Y0135422D01*
X0152259Y0137248D02*
X0151567Y0136671D01*
X0151568Y0136672D02*
X0151449Y0136809D01*
X0151328Y0136943D01*
X0151203Y0137074D01*
X0151075Y0137202D01*
X0150944Y0137326D01*
X0150810Y0137448D01*
X0150673Y0137567D01*
X0150534Y0137682D01*
X0150391Y0137793D01*
X0150246Y0137902D01*
X0150099Y0138007D01*
X0149949Y0138108D01*
X0149797Y0138205D01*
X0149642Y0138299D01*
X0149485Y0138390D01*
X0149326Y0138476D01*
X0149165Y0138559D01*
X0149002Y0138637D01*
X0148837Y0138712D01*
X0148671Y0138783D01*
X0148503Y0138850D01*
X0148333Y0138912D01*
X0148162Y0138971D01*
X0147989Y0139026D01*
X0147816Y0139076D01*
X0147641Y0139122D01*
X0147465Y0139164D01*
X0147288Y0139202D01*
X0147110Y0139235D01*
X0146931Y0139265D01*
X0146752Y0139290D01*
X0146572Y0139310D01*
X0146392Y0139327D01*
X0146212Y0139339D01*
X0146031Y0139346D01*
X0145850Y0139350D01*
X0145849Y0140249D01*
X0145850Y0140250D01*
X0146053Y0140246D01*
X0146255Y0140238D01*
X0146458Y0140224D01*
X0146660Y0140206D01*
X0146861Y0140183D01*
X0147062Y0140155D01*
X0147262Y0140122D01*
X0147462Y0140085D01*
X0147660Y0140043D01*
X0147858Y0139996D01*
X0148054Y0139944D01*
X0148248Y0139887D01*
X0148442Y0139826D01*
X0148634Y0139761D01*
X0148824Y0139690D01*
X0149013Y0139615D01*
X0149199Y0139536D01*
X0149384Y0139452D01*
X0149567Y0139364D01*
X0149747Y0139271D01*
X0149925Y0139175D01*
X0150101Y0139073D01*
X0150274Y0138968D01*
X0150445Y0138859D01*
X0150613Y0138745D01*
X0150779Y0138628D01*
X0150941Y0138506D01*
X0151101Y0138381D01*
X0151257Y0138252D01*
X0151410Y0138119D01*
X0151560Y0137982D01*
X0151707Y0137842D01*
X0151850Y0137699D01*
X0151990Y0137552D01*
X0152127Y0137402D01*
X0152259Y0137248D01*
X0152187Y0137188D01*
X0152056Y0137340D01*
X0151921Y0137488D01*
X0151783Y0137633D01*
X0151641Y0137775D01*
X0151496Y0137914D01*
X0151348Y0138049D01*
X0151196Y0138180D01*
X0151041Y0138308D01*
X0150884Y0138432D01*
X0150723Y0138552D01*
X0150560Y0138668D01*
X0150393Y0138780D01*
X0150225Y0138888D01*
X0150053Y0138993D01*
X0149879Y0139093D01*
X0149703Y0139188D01*
X0149525Y0139280D01*
X0149344Y0139367D01*
X0149161Y0139450D01*
X0148977Y0139529D01*
X0148791Y0139603D01*
X0148602Y0139672D01*
X0148413Y0139737D01*
X0148221Y0139797D01*
X0148029Y0139853D01*
X0147835Y0139904D01*
X0147640Y0139951D01*
X0147444Y0139993D01*
X0147247Y0140030D01*
X0147049Y0140062D01*
X0146850Y0140090D01*
X0146651Y0140113D01*
X0146451Y0140131D01*
X0146251Y0140144D01*
X0146050Y0140152D01*
X0145850Y0140156D01*
X0145850Y0140062D01*
X0146048Y0140058D01*
X0146246Y0140050D01*
X0146444Y0140037D01*
X0146642Y0140019D01*
X0146839Y0139996D01*
X0147035Y0139969D01*
X0147231Y0139937D01*
X0147425Y0139901D01*
X0147619Y0139859D01*
X0147812Y0139813D01*
X0148004Y0139763D01*
X0148194Y0139707D01*
X0148383Y0139648D01*
X0148571Y0139583D01*
X0148757Y0139515D01*
X0148941Y0139442D01*
X0149124Y0139364D01*
X0149304Y0139282D01*
X0149483Y0139196D01*
X0149659Y0139105D01*
X0149833Y0139011D01*
X0150005Y0138912D01*
X0150175Y0138809D01*
X0150342Y0138702D01*
X0150506Y0138591D01*
X0150667Y0138476D01*
X0150826Y0138357D01*
X0150982Y0138235D01*
X0151135Y0138109D01*
X0151285Y0137979D01*
X0151432Y0137845D01*
X0151575Y0137708D01*
X0151715Y0137568D01*
X0151852Y0137425D01*
X0151985Y0137278D01*
X0152115Y0137128D01*
X0152043Y0137068D01*
X0151914Y0137216D01*
X0151783Y0137361D01*
X0151648Y0137503D01*
X0151509Y0137641D01*
X0151367Y0137777D01*
X0151222Y0137909D01*
X0151074Y0138037D01*
X0150923Y0138162D01*
X0150769Y0138283D01*
X0150612Y0138400D01*
X0150452Y0138514D01*
X0150290Y0138623D01*
X0150125Y0138729D01*
X0149957Y0138831D01*
X0149787Y0138929D01*
X0149615Y0139022D01*
X0149441Y0139112D01*
X0149264Y0139197D01*
X0149086Y0139278D01*
X0148906Y0139355D01*
X0148723Y0139427D01*
X0148540Y0139495D01*
X0148354Y0139558D01*
X0148167Y0139617D01*
X0147979Y0139672D01*
X0147790Y0139722D01*
X0147599Y0139767D01*
X0147407Y0139808D01*
X0147215Y0139845D01*
X0147021Y0139876D01*
X0146827Y0139903D01*
X0146632Y0139925D01*
X0146437Y0139943D01*
X0146242Y0139956D01*
X0146046Y0139964D01*
X0145850Y0139968D01*
X0145850Y0139874D01*
X0146044Y0139870D01*
X0146237Y0139862D01*
X0146430Y0139849D01*
X0146623Y0139832D01*
X0146816Y0139810D01*
X0147008Y0139783D01*
X0147199Y0139752D01*
X0147389Y0139716D01*
X0147579Y0139676D01*
X0147767Y0139631D01*
X0147954Y0139581D01*
X0148140Y0139527D01*
X0148325Y0139469D01*
X0148508Y0139406D01*
X0148690Y0139339D01*
X0148870Y0139268D01*
X0149048Y0139192D01*
X0149225Y0139112D01*
X0149399Y0139028D01*
X0149571Y0138939D01*
X0149741Y0138847D01*
X0149909Y0138750D01*
X0150075Y0138649D01*
X0150238Y0138545D01*
X0150398Y0138437D01*
X0150556Y0138324D01*
X0150711Y0138208D01*
X0150864Y0138089D01*
X0151013Y0137965D01*
X0151160Y0137839D01*
X0151303Y0137708D01*
X0151443Y0137575D01*
X0151580Y0137438D01*
X0151713Y0137297D01*
X0151844Y0137154D01*
X0151970Y0137007D01*
X0151898Y0136947D01*
X0151773Y0137092D01*
X0151644Y0137234D01*
X0151512Y0137372D01*
X0151377Y0137508D01*
X0151238Y0137640D01*
X0151097Y0137769D01*
X0150952Y0137894D01*
X0150805Y0138016D01*
X0150654Y0138134D01*
X0150501Y0138249D01*
X0150345Y0138359D01*
X0150186Y0138467D01*
X0150025Y0138570D01*
X0149861Y0138669D01*
X0149695Y0138765D01*
X0149527Y0138856D01*
X0149357Y0138943D01*
X0149185Y0139027D01*
X0149010Y0139106D01*
X0148834Y0139181D01*
X0148656Y0139251D01*
X0148477Y0139318D01*
X0148296Y0139380D01*
X0148113Y0139437D01*
X0147929Y0139491D01*
X0147744Y0139540D01*
X0147558Y0139584D01*
X0147371Y0139624D01*
X0147183Y0139659D01*
X0146994Y0139690D01*
X0146804Y0139717D01*
X0146614Y0139738D01*
X0146424Y0139756D01*
X0146233Y0139768D01*
X0146041Y0139776D01*
X0145850Y0139780D01*
X0145850Y0139686D01*
X0146039Y0139682D01*
X0146228Y0139674D01*
X0146417Y0139662D01*
X0146605Y0139645D01*
X0146793Y0139623D01*
X0146980Y0139597D01*
X0147167Y0139567D01*
X0147353Y0139532D01*
X0147538Y0139492D01*
X0147722Y0139448D01*
X0147904Y0139400D01*
X0148086Y0139347D01*
X0148266Y0139290D01*
X0148445Y0139229D01*
X0148623Y0139163D01*
X0148799Y0139094D01*
X0148973Y0139020D01*
X0149145Y0138942D01*
X0149315Y0138859D01*
X0149483Y0138773D01*
X0149649Y0138683D01*
X0149813Y0138588D01*
X0149975Y0138490D01*
X0150134Y0138388D01*
X0150291Y0138282D01*
X0150445Y0138173D01*
X0150597Y0138059D01*
X0150745Y0137943D01*
X0150891Y0137822D01*
X0151034Y0137699D01*
X0151174Y0137571D01*
X0151311Y0137441D01*
X0151445Y0137307D01*
X0151575Y0137170D01*
X0151702Y0137030D01*
X0151826Y0136887D01*
X0151754Y0136827D01*
X0151631Y0136968D01*
X0151506Y0137106D01*
X0151377Y0137242D01*
X0151245Y0137374D01*
X0151110Y0137503D01*
X0150971Y0137628D01*
X0150830Y0137751D01*
X0150686Y0137870D01*
X0150539Y0137985D01*
X0150390Y0138097D01*
X0150237Y0138205D01*
X0150082Y0138310D01*
X0149925Y0138410D01*
X0149765Y0138507D01*
X0149604Y0138601D01*
X0149439Y0138690D01*
X0149273Y0138775D01*
X0149105Y0138856D01*
X0148935Y0138934D01*
X0148763Y0139007D01*
X0148589Y0139076D01*
X0148414Y0139140D01*
X0148237Y0139201D01*
X0148059Y0139257D01*
X0147880Y0139309D01*
X0147699Y0139357D01*
X0147517Y0139400D01*
X0147335Y0139439D01*
X0147151Y0139474D01*
X0146967Y0139504D01*
X0146782Y0139530D01*
X0146596Y0139551D01*
X0146410Y0139568D01*
X0146223Y0139580D01*
X0146037Y0139588D01*
X0145850Y0139592D01*
X0145850Y0139498D01*
X0146034Y0139494D01*
X0146219Y0139487D01*
X0146403Y0139474D01*
X0146587Y0139458D01*
X0146770Y0139437D01*
X0146953Y0139411D01*
X0147135Y0139381D01*
X0147316Y0139347D01*
X0147497Y0139309D01*
X0147676Y0139266D01*
X0147855Y0139219D01*
X0148032Y0139167D01*
X0148208Y0139112D01*
X0148383Y0139052D01*
X0148556Y0138988D01*
X0148727Y0138920D01*
X0148897Y0138848D01*
X0149065Y0138771D01*
X0149231Y0138691D01*
X0149395Y0138607D01*
X0149558Y0138519D01*
X0149718Y0138427D01*
X0149875Y0138331D01*
X0150031Y0138231D01*
X0150184Y0138128D01*
X0150334Y0138021D01*
X0150482Y0137911D01*
X0150627Y0137797D01*
X0150769Y0137679D01*
X0150909Y0137558D01*
X0151045Y0137434D01*
X0151179Y0137307D01*
X0151309Y0137176D01*
X0151437Y0137043D01*
X0151561Y0136906D01*
X0151681Y0136767D01*
X0151609Y0136706D01*
X0151490Y0136844D01*
X0151367Y0136979D01*
X0151242Y0137111D01*
X0151113Y0137240D01*
X0150981Y0137366D01*
X0150846Y0137488D01*
X0150708Y0137608D01*
X0150568Y0137724D01*
X0150424Y0137836D01*
X0150278Y0137945D01*
X0150130Y0138051D01*
X0149979Y0138153D01*
X0149825Y0138251D01*
X0149670Y0138346D01*
X0149512Y0138437D01*
X0149351Y0138524D01*
X0149189Y0138607D01*
X0149025Y0138686D01*
X0148859Y0138761D01*
X0148691Y0138833D01*
X0148522Y0138900D01*
X0148351Y0138963D01*
X0148179Y0139022D01*
X0148005Y0139077D01*
X0147830Y0139128D01*
X0147654Y0139175D01*
X0147476Y0139217D01*
X0147298Y0139255D01*
X0147119Y0139289D01*
X0146939Y0139318D01*
X0146759Y0139343D01*
X0146578Y0139364D01*
X0146396Y0139381D01*
X0146214Y0139393D01*
X0146032Y0139400D01*
X0145850Y0139404D01*
X0145849Y0123351D02*
X0145849Y0124251D01*
X0145850Y0124250D02*
X0146034Y0124254D01*
X0146219Y0124262D01*
X0146403Y0124274D01*
X0146586Y0124291D01*
X0146770Y0124313D01*
X0146952Y0124338D01*
X0147134Y0124369D01*
X0147315Y0124404D01*
X0147496Y0124443D01*
X0147675Y0124487D01*
X0147853Y0124535D01*
X0148030Y0124587D01*
X0148206Y0124644D01*
X0148380Y0124704D01*
X0148552Y0124770D01*
X0148723Y0124839D01*
X0148893Y0124912D01*
X0149060Y0124990D01*
X0149225Y0125072D01*
X0149389Y0125157D01*
X0149550Y0125247D01*
X0149709Y0125341D01*
X0149866Y0125438D01*
X0150020Y0125539D01*
X0150172Y0125644D01*
X0150321Y0125753D01*
X0150467Y0125865D01*
X0150611Y0125981D01*
X0150751Y0126100D01*
X0150889Y0126223D01*
X0151024Y0126349D01*
X0151156Y0126478D01*
X0151284Y0126611D01*
X0151409Y0126746D01*
X0151531Y0126885D01*
X0152218Y0126304D01*
X0152082Y0126148D01*
X0151941Y0125996D01*
X0151797Y0125847D01*
X0151650Y0125702D01*
X0151499Y0125561D01*
X0151345Y0125424D01*
X0151187Y0125290D01*
X0151026Y0125160D01*
X0150862Y0125034D01*
X0150695Y0124912D01*
X0150525Y0124794D01*
X0150352Y0124681D01*
X0150176Y0124572D01*
X0149998Y0124467D01*
X0149817Y0124366D01*
X0149634Y0124270D01*
X0149449Y0124178D01*
X0149261Y0124091D01*
X0149071Y0124009D01*
X0148880Y0123931D01*
X0148686Y0123858D01*
X0148491Y0123790D01*
X0148294Y0123726D01*
X0148096Y0123668D01*
X0147896Y0123614D01*
X0147695Y0123565D01*
X0147493Y0123521D01*
X0147290Y0123482D01*
X0147086Y0123448D01*
X0146881Y0123419D01*
X0146676Y0123395D01*
X0146470Y0123377D01*
X0146263Y0123363D01*
X0146057Y0123354D01*
X0145850Y0123350D01*
X0145850Y0123444D01*
X0146054Y0123448D01*
X0146259Y0123457D01*
X0146463Y0123470D01*
X0146666Y0123489D01*
X0146869Y0123513D01*
X0147072Y0123541D01*
X0147274Y0123575D01*
X0147474Y0123613D01*
X0147674Y0123657D01*
X0147873Y0123705D01*
X0148070Y0123758D01*
X0148267Y0123816D01*
X0148461Y0123879D01*
X0148654Y0123947D01*
X0148846Y0124019D01*
X0149035Y0124096D01*
X0149223Y0124177D01*
X0149408Y0124263D01*
X0149591Y0124354D01*
X0149773Y0124449D01*
X0149951Y0124548D01*
X0150127Y0124652D01*
X0150301Y0124760D01*
X0150472Y0124872D01*
X0150640Y0124989D01*
X0150805Y0125109D01*
X0150968Y0125234D01*
X0151127Y0125362D01*
X0151283Y0125494D01*
X0151435Y0125630D01*
X0151585Y0125770D01*
X0151730Y0125913D01*
X0151873Y0126060D01*
X0152011Y0126211D01*
X0152146Y0126364D01*
X0152075Y0126425D01*
X0151941Y0126273D01*
X0151804Y0126124D01*
X0151663Y0125979D01*
X0151519Y0125838D01*
X0151372Y0125699D01*
X0151221Y0125565D01*
X0151067Y0125434D01*
X0150909Y0125307D01*
X0150749Y0125184D01*
X0150585Y0125065D01*
X0150419Y0124950D01*
X0150250Y0124839D01*
X0150079Y0124732D01*
X0149904Y0124630D01*
X0149728Y0124531D01*
X0149549Y0124437D01*
X0149367Y0124348D01*
X0149184Y0124263D01*
X0148999Y0124182D01*
X0148811Y0124106D01*
X0148622Y0124035D01*
X0148431Y0123968D01*
X0148239Y0123906D01*
X0148045Y0123849D01*
X0147850Y0123796D01*
X0147653Y0123749D01*
X0147456Y0123706D01*
X0147257Y0123668D01*
X0147058Y0123634D01*
X0146858Y0123606D01*
X0146657Y0123583D01*
X0146456Y0123564D01*
X0146254Y0123550D01*
X0146052Y0123542D01*
X0145850Y0123538D01*
X0145850Y0123632D01*
X0146050Y0123636D01*
X0146249Y0123644D01*
X0146449Y0123658D01*
X0146648Y0123676D01*
X0146846Y0123699D01*
X0147044Y0123727D01*
X0147241Y0123760D01*
X0147437Y0123798D01*
X0147633Y0123840D01*
X0147827Y0123887D01*
X0148020Y0123939D01*
X0148211Y0123996D01*
X0148402Y0124057D01*
X0148590Y0124123D01*
X0148777Y0124194D01*
X0148962Y0124269D01*
X0149146Y0124349D01*
X0149327Y0124433D01*
X0149506Y0124521D01*
X0149683Y0124614D01*
X0149858Y0124711D01*
X0150030Y0124813D01*
X0150199Y0124918D01*
X0150367Y0125028D01*
X0150531Y0125142D01*
X0150692Y0125259D01*
X0150851Y0125381D01*
X0151006Y0125506D01*
X0151159Y0125636D01*
X0151308Y0125769D01*
X0151454Y0125905D01*
X0151596Y0126045D01*
X0151735Y0126189D01*
X0151871Y0126336D01*
X0152003Y0126486D01*
X0151931Y0126546D01*
X0151801Y0126398D01*
X0151667Y0126253D01*
X0151529Y0126111D01*
X0151388Y0125973D01*
X0151244Y0125838D01*
X0151097Y0125706D01*
X0150946Y0125579D01*
X0150792Y0125455D01*
X0150636Y0125334D01*
X0150476Y0125218D01*
X0150314Y0125106D01*
X0150149Y0124997D01*
X0149981Y0124893D01*
X0149811Y0124793D01*
X0149638Y0124697D01*
X0149463Y0124605D01*
X0149286Y0124517D01*
X0149107Y0124434D01*
X0148926Y0124356D01*
X0148743Y0124281D01*
X0148558Y0124212D01*
X0148372Y0124147D01*
X0148184Y0124086D01*
X0147994Y0124030D01*
X0147804Y0123979D01*
X0147612Y0123932D01*
X0147419Y0123890D01*
X0147225Y0123853D01*
X0147030Y0123820D01*
X0146834Y0123793D01*
X0146638Y0123770D01*
X0146442Y0123752D01*
X0146245Y0123738D01*
X0146047Y0123730D01*
X0145850Y0123726D01*
X0145850Y0123820D01*
X0146045Y0123824D01*
X0146240Y0123832D01*
X0146435Y0123845D01*
X0146629Y0123863D01*
X0146823Y0123886D01*
X0147016Y0123913D01*
X0147209Y0123945D01*
X0147400Y0123982D01*
X0147591Y0124024D01*
X0147781Y0124070D01*
X0147969Y0124120D01*
X0148156Y0124176D01*
X0148342Y0124236D01*
X0148526Y0124300D01*
X0148709Y0124369D01*
X0148890Y0124442D01*
X0149069Y0124520D01*
X0149246Y0124602D01*
X0149421Y0124689D01*
X0149593Y0124779D01*
X0149764Y0124874D01*
X0149932Y0124973D01*
X0150098Y0125076D01*
X0150261Y0125183D01*
X0150422Y0125294D01*
X0150579Y0125409D01*
X0150734Y0125528D01*
X0150886Y0125651D01*
X0151035Y0125777D01*
X0151181Y0125907D01*
X0151323Y0126040D01*
X0151462Y0126177D01*
X0151598Y0126317D01*
X0151730Y0126461D01*
X0151859Y0126607D01*
X0151787Y0126668D01*
X0151660Y0126523D01*
X0151529Y0126381D01*
X0151395Y0126243D01*
X0151258Y0126108D01*
X0151117Y0125976D01*
X0150973Y0125848D01*
X0150826Y0125723D01*
X0150676Y0125602D01*
X0150523Y0125485D01*
X0150367Y0125371D01*
X0150208Y0125261D01*
X0150047Y0125155D01*
X0149883Y0125054D01*
X0149717Y0124956D01*
X0149549Y0124862D01*
X0149378Y0124772D01*
X0149205Y0124687D01*
X0149030Y0124606D01*
X0148853Y0124529D01*
X0148675Y0124457D01*
X0148494Y0124388D01*
X0148312Y0124325D01*
X0148129Y0124266D01*
X0147944Y0124211D01*
X0147758Y0124161D01*
X0147570Y0124115D01*
X0147382Y0124074D01*
X0147192Y0124038D01*
X0147002Y0124006D01*
X0146811Y0123979D01*
X0146620Y0123957D01*
X0146428Y0123939D01*
X0146235Y0123926D01*
X0146043Y0123918D01*
X0145850Y0123914D01*
X0145850Y0124008D01*
X0146040Y0124012D01*
X0146231Y0124020D01*
X0146421Y0124033D01*
X0146610Y0124050D01*
X0146800Y0124072D01*
X0146988Y0124099D01*
X0147176Y0124130D01*
X0147363Y0124166D01*
X0147549Y0124207D01*
X0147734Y0124252D01*
X0147918Y0124301D01*
X0148101Y0124356D01*
X0148282Y0124414D01*
X0148462Y0124477D01*
X0148640Y0124544D01*
X0148817Y0124616D01*
X0148992Y0124692D01*
X0149164Y0124772D01*
X0149335Y0124856D01*
X0149504Y0124945D01*
X0149670Y0125037D01*
X0149835Y0125134D01*
X0149996Y0125234D01*
X0150156Y0125339D01*
X0150312Y0125447D01*
X0150466Y0125560D01*
X0150617Y0125676D01*
X0150766Y0125795D01*
X0150911Y0125918D01*
X0151053Y0126045D01*
X0151192Y0126175D01*
X0151328Y0126309D01*
X0151461Y0126445D01*
X0151590Y0126585D01*
X0151716Y0126729D01*
X0151644Y0126789D01*
X0151520Y0126648D01*
X0151392Y0126510D01*
X0151261Y0126375D01*
X0151127Y0126243D01*
X0150990Y0126114D01*
X0150849Y0125989D01*
X0150705Y0125867D01*
X0150559Y0125749D01*
X0150410Y0125635D01*
X0150258Y0125524D01*
X0150103Y0125417D01*
X0149946Y0125314D01*
X0149786Y0125214D01*
X0149624Y0125119D01*
X0149459Y0125027D01*
X0149293Y0124940D01*
X0149124Y0124857D01*
X0148953Y0124777D01*
X0148781Y0124702D01*
X0148606Y0124632D01*
X0148430Y0124565D01*
X0148253Y0124503D01*
X0148073Y0124445D01*
X0147893Y0124392D01*
X0147711Y0124343D01*
X0147529Y0124299D01*
X0147345Y0124259D01*
X0147160Y0124223D01*
X0146974Y0124192D01*
X0146788Y0124166D01*
X0146601Y0124144D01*
X0146414Y0124127D01*
X0146226Y0124114D01*
X0146038Y0124106D01*
X0145850Y0124102D01*
X0145850Y0124196D01*
X0146036Y0124200D01*
X0146221Y0124208D01*
X0146407Y0124220D01*
X0146592Y0124237D01*
X0146776Y0124259D01*
X0146960Y0124285D01*
X0147144Y0124316D01*
X0147326Y0124351D01*
X0147508Y0124390D01*
X0147688Y0124434D01*
X0147868Y0124483D01*
X0148046Y0124535D01*
X0148223Y0124592D01*
X0148398Y0124654D01*
X0148572Y0124719D01*
X0148744Y0124789D01*
X0148915Y0124863D01*
X0149083Y0124941D01*
X0149250Y0125024D01*
X0149414Y0125110D01*
X0149577Y0125200D01*
X0149737Y0125295D01*
X0149895Y0125393D01*
X0150050Y0125495D01*
X0150203Y0125600D01*
X0150353Y0125710D01*
X0150501Y0125823D01*
X0150645Y0125940D01*
X0150787Y0126060D01*
X0150926Y0126183D01*
X0151062Y0126310D01*
X0151194Y0126440D01*
X0151323Y0126574D01*
X0151450Y0126710D01*
X0151572Y0126850D01*
D13*
X0046800Y0132225D02*
X0041800Y0132225D01*
M02*
