%
M48
M72
T01C0.02362
T02C0.02400
T03C0.03150
T04C0.03200
T05C0.03937
T06C0.04000
T07C0.12598
%
T01
X205688Y127877
X205688Y132877
X205688Y137877
T02
X107149Y168645
X97149Y178645
X107149Y188645
X106622Y208763
X96622Y218763
X106622Y228763
T03
X84689Y29924
X84689Y19924
X84689Y39924
X84689Y49924
X84689Y59924
X84689Y69924
X84689Y79924
X84689Y89924
X134689Y89924
X134689Y79924
X134689Y69924
X134689Y59924
X134689Y49924
X134689Y39924
X134689Y29924
X134689Y19924
T04
X97523Y128163
X111523Y128163
X131176Y134239
X131551Y122562
X131615Y147179
X171615Y147179
X183114Y149680
X193114Y149680
X171176Y134239
X171551Y122562
X183474Y118765
X193474Y118765
X81594Y185576
X81594Y225576
T05
X56368Y72319
X56368Y87910
T06
X50674Y232728
X51135Y25560
X51135Y35560
X51135Y45560
X51135Y55560
X53714Y118727
X53714Y128727
X53714Y138727
X53714Y148727
X53714Y158727
X63714Y158727
X63714Y148727
X63714Y138727
X63714Y128727
X63714Y118727
X50608Y187899
X50608Y197899
X50608Y207899
X50674Y222728
X159930Y92978
X159930Y82978
X159930Y72978
X169930Y72978
X169930Y82978
X169930Y92978
T07
X198086Y241669
X198086Y23322
M30
