G75*
%MOIN*%
%OFA0B0*%
%FSLAX25Y25*%
%IPPOS*%
%LPD*%
%AMOC8*
5,1,8,0,0,1.08239X$1,22.5*
%
%ADD10C,0.00000*%
%ADD11C,0.01000*%
%ADD12C,0.00800*%
%ADD13C,0.00100*%
%ADD14C,0.00500*%
%ADD15C,0.00600*%
%ADD16R,0.03400X0.02400*%
%ADD17R,0.02400X0.03400*%
%ADD18R,0.02000X0.08000*%
%ADD19R,0.08000X0.02000*%
%ADD20C,0.00400*%
D10*
X0191787Y0023322D02*
X0191789Y0023480D01*
X0191795Y0023638D01*
X0191805Y0023796D01*
X0191819Y0023954D01*
X0191837Y0024111D01*
X0191858Y0024268D01*
X0191884Y0024424D01*
X0191914Y0024580D01*
X0191947Y0024735D01*
X0191985Y0024888D01*
X0192026Y0025041D01*
X0192071Y0025193D01*
X0192120Y0025344D01*
X0192173Y0025493D01*
X0192229Y0025641D01*
X0192289Y0025787D01*
X0192353Y0025932D01*
X0192421Y0026075D01*
X0192492Y0026217D01*
X0192566Y0026357D01*
X0192644Y0026494D01*
X0192726Y0026630D01*
X0192810Y0026764D01*
X0192899Y0026895D01*
X0192990Y0027024D01*
X0193085Y0027151D01*
X0193182Y0027276D01*
X0193283Y0027398D01*
X0193387Y0027517D01*
X0193494Y0027634D01*
X0193604Y0027748D01*
X0193717Y0027859D01*
X0193832Y0027968D01*
X0193950Y0028073D01*
X0194071Y0028175D01*
X0194194Y0028275D01*
X0194320Y0028371D01*
X0194448Y0028464D01*
X0194578Y0028554D01*
X0194711Y0028640D01*
X0194846Y0028724D01*
X0194982Y0028803D01*
X0195121Y0028880D01*
X0195262Y0028952D01*
X0195404Y0029022D01*
X0195548Y0029087D01*
X0195694Y0029149D01*
X0195841Y0029207D01*
X0195990Y0029262D01*
X0196140Y0029313D01*
X0196291Y0029360D01*
X0196443Y0029403D01*
X0196596Y0029442D01*
X0196751Y0029478D01*
X0196906Y0029509D01*
X0197062Y0029537D01*
X0197218Y0029561D01*
X0197375Y0029581D01*
X0197533Y0029597D01*
X0197690Y0029609D01*
X0197849Y0029617D01*
X0198007Y0029621D01*
X0198165Y0029621D01*
X0198323Y0029617D01*
X0198482Y0029609D01*
X0198639Y0029597D01*
X0198797Y0029581D01*
X0198954Y0029561D01*
X0199110Y0029537D01*
X0199266Y0029509D01*
X0199421Y0029478D01*
X0199576Y0029442D01*
X0199729Y0029403D01*
X0199881Y0029360D01*
X0200032Y0029313D01*
X0200182Y0029262D01*
X0200331Y0029207D01*
X0200478Y0029149D01*
X0200624Y0029087D01*
X0200768Y0029022D01*
X0200910Y0028952D01*
X0201051Y0028880D01*
X0201190Y0028803D01*
X0201326Y0028724D01*
X0201461Y0028640D01*
X0201594Y0028554D01*
X0201724Y0028464D01*
X0201852Y0028371D01*
X0201978Y0028275D01*
X0202101Y0028175D01*
X0202222Y0028073D01*
X0202340Y0027968D01*
X0202455Y0027859D01*
X0202568Y0027748D01*
X0202678Y0027634D01*
X0202785Y0027517D01*
X0202889Y0027398D01*
X0202990Y0027276D01*
X0203087Y0027151D01*
X0203182Y0027024D01*
X0203273Y0026895D01*
X0203362Y0026764D01*
X0203446Y0026630D01*
X0203528Y0026494D01*
X0203606Y0026357D01*
X0203680Y0026217D01*
X0203751Y0026075D01*
X0203819Y0025932D01*
X0203883Y0025787D01*
X0203943Y0025641D01*
X0203999Y0025493D01*
X0204052Y0025344D01*
X0204101Y0025193D01*
X0204146Y0025041D01*
X0204187Y0024888D01*
X0204225Y0024735D01*
X0204258Y0024580D01*
X0204288Y0024424D01*
X0204314Y0024268D01*
X0204335Y0024111D01*
X0204353Y0023954D01*
X0204367Y0023796D01*
X0204377Y0023638D01*
X0204383Y0023480D01*
X0204385Y0023322D01*
X0204383Y0023164D01*
X0204377Y0023006D01*
X0204367Y0022848D01*
X0204353Y0022690D01*
X0204335Y0022533D01*
X0204314Y0022376D01*
X0204288Y0022220D01*
X0204258Y0022064D01*
X0204225Y0021909D01*
X0204187Y0021756D01*
X0204146Y0021603D01*
X0204101Y0021451D01*
X0204052Y0021300D01*
X0203999Y0021151D01*
X0203943Y0021003D01*
X0203883Y0020857D01*
X0203819Y0020712D01*
X0203751Y0020569D01*
X0203680Y0020427D01*
X0203606Y0020287D01*
X0203528Y0020150D01*
X0203446Y0020014D01*
X0203362Y0019880D01*
X0203273Y0019749D01*
X0203182Y0019620D01*
X0203087Y0019493D01*
X0202990Y0019368D01*
X0202889Y0019246D01*
X0202785Y0019127D01*
X0202678Y0019010D01*
X0202568Y0018896D01*
X0202455Y0018785D01*
X0202340Y0018676D01*
X0202222Y0018571D01*
X0202101Y0018469D01*
X0201978Y0018369D01*
X0201852Y0018273D01*
X0201724Y0018180D01*
X0201594Y0018090D01*
X0201461Y0018004D01*
X0201326Y0017920D01*
X0201190Y0017841D01*
X0201051Y0017764D01*
X0200910Y0017692D01*
X0200768Y0017622D01*
X0200624Y0017557D01*
X0200478Y0017495D01*
X0200331Y0017437D01*
X0200182Y0017382D01*
X0200032Y0017331D01*
X0199881Y0017284D01*
X0199729Y0017241D01*
X0199576Y0017202D01*
X0199421Y0017166D01*
X0199266Y0017135D01*
X0199110Y0017107D01*
X0198954Y0017083D01*
X0198797Y0017063D01*
X0198639Y0017047D01*
X0198482Y0017035D01*
X0198323Y0017027D01*
X0198165Y0017023D01*
X0198007Y0017023D01*
X0197849Y0017027D01*
X0197690Y0017035D01*
X0197533Y0017047D01*
X0197375Y0017063D01*
X0197218Y0017083D01*
X0197062Y0017107D01*
X0196906Y0017135D01*
X0196751Y0017166D01*
X0196596Y0017202D01*
X0196443Y0017241D01*
X0196291Y0017284D01*
X0196140Y0017331D01*
X0195990Y0017382D01*
X0195841Y0017437D01*
X0195694Y0017495D01*
X0195548Y0017557D01*
X0195404Y0017622D01*
X0195262Y0017692D01*
X0195121Y0017764D01*
X0194982Y0017841D01*
X0194846Y0017920D01*
X0194711Y0018004D01*
X0194578Y0018090D01*
X0194448Y0018180D01*
X0194320Y0018273D01*
X0194194Y0018369D01*
X0194071Y0018469D01*
X0193950Y0018571D01*
X0193832Y0018676D01*
X0193717Y0018785D01*
X0193604Y0018896D01*
X0193494Y0019010D01*
X0193387Y0019127D01*
X0193283Y0019246D01*
X0193182Y0019368D01*
X0193085Y0019493D01*
X0192990Y0019620D01*
X0192899Y0019749D01*
X0192810Y0019880D01*
X0192726Y0020014D01*
X0192644Y0020150D01*
X0192566Y0020287D01*
X0192492Y0020427D01*
X0192421Y0020569D01*
X0192353Y0020712D01*
X0192289Y0020857D01*
X0192229Y0021003D01*
X0192173Y0021151D01*
X0192120Y0021300D01*
X0192071Y0021451D01*
X0192026Y0021603D01*
X0191985Y0021756D01*
X0191947Y0021909D01*
X0191914Y0022064D01*
X0191884Y0022220D01*
X0191858Y0022376D01*
X0191837Y0022533D01*
X0191819Y0022690D01*
X0191805Y0022848D01*
X0191795Y0023006D01*
X0191789Y0023164D01*
X0191787Y0023322D01*
X0191787Y0241669D02*
X0191789Y0241827D01*
X0191795Y0241985D01*
X0191805Y0242143D01*
X0191819Y0242301D01*
X0191837Y0242458D01*
X0191858Y0242615D01*
X0191884Y0242771D01*
X0191914Y0242927D01*
X0191947Y0243082D01*
X0191985Y0243235D01*
X0192026Y0243388D01*
X0192071Y0243540D01*
X0192120Y0243691D01*
X0192173Y0243840D01*
X0192229Y0243988D01*
X0192289Y0244134D01*
X0192353Y0244279D01*
X0192421Y0244422D01*
X0192492Y0244564D01*
X0192566Y0244704D01*
X0192644Y0244841D01*
X0192726Y0244977D01*
X0192810Y0245111D01*
X0192899Y0245242D01*
X0192990Y0245371D01*
X0193085Y0245498D01*
X0193182Y0245623D01*
X0193283Y0245745D01*
X0193387Y0245864D01*
X0193494Y0245981D01*
X0193604Y0246095D01*
X0193717Y0246206D01*
X0193832Y0246315D01*
X0193950Y0246420D01*
X0194071Y0246522D01*
X0194194Y0246622D01*
X0194320Y0246718D01*
X0194448Y0246811D01*
X0194578Y0246901D01*
X0194711Y0246987D01*
X0194846Y0247071D01*
X0194982Y0247150D01*
X0195121Y0247227D01*
X0195262Y0247299D01*
X0195404Y0247369D01*
X0195548Y0247434D01*
X0195694Y0247496D01*
X0195841Y0247554D01*
X0195990Y0247609D01*
X0196140Y0247660D01*
X0196291Y0247707D01*
X0196443Y0247750D01*
X0196596Y0247789D01*
X0196751Y0247825D01*
X0196906Y0247856D01*
X0197062Y0247884D01*
X0197218Y0247908D01*
X0197375Y0247928D01*
X0197533Y0247944D01*
X0197690Y0247956D01*
X0197849Y0247964D01*
X0198007Y0247968D01*
X0198165Y0247968D01*
X0198323Y0247964D01*
X0198482Y0247956D01*
X0198639Y0247944D01*
X0198797Y0247928D01*
X0198954Y0247908D01*
X0199110Y0247884D01*
X0199266Y0247856D01*
X0199421Y0247825D01*
X0199576Y0247789D01*
X0199729Y0247750D01*
X0199881Y0247707D01*
X0200032Y0247660D01*
X0200182Y0247609D01*
X0200331Y0247554D01*
X0200478Y0247496D01*
X0200624Y0247434D01*
X0200768Y0247369D01*
X0200910Y0247299D01*
X0201051Y0247227D01*
X0201190Y0247150D01*
X0201326Y0247071D01*
X0201461Y0246987D01*
X0201594Y0246901D01*
X0201724Y0246811D01*
X0201852Y0246718D01*
X0201978Y0246622D01*
X0202101Y0246522D01*
X0202222Y0246420D01*
X0202340Y0246315D01*
X0202455Y0246206D01*
X0202568Y0246095D01*
X0202678Y0245981D01*
X0202785Y0245864D01*
X0202889Y0245745D01*
X0202990Y0245623D01*
X0203087Y0245498D01*
X0203182Y0245371D01*
X0203273Y0245242D01*
X0203362Y0245111D01*
X0203446Y0244977D01*
X0203528Y0244841D01*
X0203606Y0244704D01*
X0203680Y0244564D01*
X0203751Y0244422D01*
X0203819Y0244279D01*
X0203883Y0244134D01*
X0203943Y0243988D01*
X0203999Y0243840D01*
X0204052Y0243691D01*
X0204101Y0243540D01*
X0204146Y0243388D01*
X0204187Y0243235D01*
X0204225Y0243082D01*
X0204258Y0242927D01*
X0204288Y0242771D01*
X0204314Y0242615D01*
X0204335Y0242458D01*
X0204353Y0242301D01*
X0204367Y0242143D01*
X0204377Y0241985D01*
X0204383Y0241827D01*
X0204385Y0241669D01*
X0204383Y0241511D01*
X0204377Y0241353D01*
X0204367Y0241195D01*
X0204353Y0241037D01*
X0204335Y0240880D01*
X0204314Y0240723D01*
X0204288Y0240567D01*
X0204258Y0240411D01*
X0204225Y0240256D01*
X0204187Y0240103D01*
X0204146Y0239950D01*
X0204101Y0239798D01*
X0204052Y0239647D01*
X0203999Y0239498D01*
X0203943Y0239350D01*
X0203883Y0239204D01*
X0203819Y0239059D01*
X0203751Y0238916D01*
X0203680Y0238774D01*
X0203606Y0238634D01*
X0203528Y0238497D01*
X0203446Y0238361D01*
X0203362Y0238227D01*
X0203273Y0238096D01*
X0203182Y0237967D01*
X0203087Y0237840D01*
X0202990Y0237715D01*
X0202889Y0237593D01*
X0202785Y0237474D01*
X0202678Y0237357D01*
X0202568Y0237243D01*
X0202455Y0237132D01*
X0202340Y0237023D01*
X0202222Y0236918D01*
X0202101Y0236816D01*
X0201978Y0236716D01*
X0201852Y0236620D01*
X0201724Y0236527D01*
X0201594Y0236437D01*
X0201461Y0236351D01*
X0201326Y0236267D01*
X0201190Y0236188D01*
X0201051Y0236111D01*
X0200910Y0236039D01*
X0200768Y0235969D01*
X0200624Y0235904D01*
X0200478Y0235842D01*
X0200331Y0235784D01*
X0200182Y0235729D01*
X0200032Y0235678D01*
X0199881Y0235631D01*
X0199729Y0235588D01*
X0199576Y0235549D01*
X0199421Y0235513D01*
X0199266Y0235482D01*
X0199110Y0235454D01*
X0198954Y0235430D01*
X0198797Y0235410D01*
X0198639Y0235394D01*
X0198482Y0235382D01*
X0198323Y0235374D01*
X0198165Y0235370D01*
X0198007Y0235370D01*
X0197849Y0235374D01*
X0197690Y0235382D01*
X0197533Y0235394D01*
X0197375Y0235410D01*
X0197218Y0235430D01*
X0197062Y0235454D01*
X0196906Y0235482D01*
X0196751Y0235513D01*
X0196596Y0235549D01*
X0196443Y0235588D01*
X0196291Y0235631D01*
X0196140Y0235678D01*
X0195990Y0235729D01*
X0195841Y0235784D01*
X0195694Y0235842D01*
X0195548Y0235904D01*
X0195404Y0235969D01*
X0195262Y0236039D01*
X0195121Y0236111D01*
X0194982Y0236188D01*
X0194846Y0236267D01*
X0194711Y0236351D01*
X0194578Y0236437D01*
X0194448Y0236527D01*
X0194320Y0236620D01*
X0194194Y0236716D01*
X0194071Y0236816D01*
X0193950Y0236918D01*
X0193832Y0237023D01*
X0193717Y0237132D01*
X0193604Y0237243D01*
X0193494Y0237357D01*
X0193387Y0237474D01*
X0193283Y0237593D01*
X0193182Y0237715D01*
X0193085Y0237840D01*
X0192990Y0237967D01*
X0192899Y0238096D01*
X0192810Y0238227D01*
X0192726Y0238361D01*
X0192644Y0238497D01*
X0192566Y0238634D01*
X0192492Y0238774D01*
X0192421Y0238916D01*
X0192353Y0239059D01*
X0192289Y0239204D01*
X0192229Y0239350D01*
X0192173Y0239498D01*
X0192120Y0239647D01*
X0192071Y0239798D01*
X0192026Y0239950D01*
X0191985Y0240103D01*
X0191947Y0240256D01*
X0191914Y0240411D01*
X0191884Y0240567D01*
X0191858Y0240723D01*
X0191837Y0240880D01*
X0191819Y0241037D01*
X0191805Y0241195D01*
X0191795Y0241353D01*
X0191789Y0241511D01*
X0191787Y0241669D01*
D11*
X0036669Y0239700D02*
X0036669Y0025291D01*
X0036668Y0025291D02*
X0036673Y0024863D01*
X0036689Y0024435D01*
X0036715Y0024008D01*
X0036751Y0023581D01*
X0036797Y0023155D01*
X0036854Y0022731D01*
X0036921Y0022308D01*
X0036998Y0021887D01*
X0037085Y0021468D01*
X0037183Y0021051D01*
X0037290Y0020637D01*
X0037408Y0020225D01*
X0037535Y0019816D01*
X0037672Y0019411D01*
X0037819Y0019008D01*
X0037976Y0018610D01*
X0038142Y0018215D01*
X0038318Y0017825D01*
X0038503Y0017439D01*
X0038697Y0017057D01*
X0038901Y0016681D01*
X0039113Y0016309D01*
X0039335Y0015943D01*
X0039565Y0015582D01*
X0039804Y0015227D01*
X0040052Y0014877D01*
X0040307Y0014534D01*
X0040572Y0014197D01*
X0040844Y0013866D01*
X0041124Y0013542D01*
X0041411Y0013225D01*
X0041707Y0012915D01*
X0042009Y0012613D01*
X0042319Y0012317D01*
X0042636Y0012030D01*
X0042960Y0011750D01*
X0043291Y0011478D01*
X0043628Y0011213D01*
X0043971Y0010958D01*
X0044321Y0010710D01*
X0044676Y0010471D01*
X0045037Y0010241D01*
X0045403Y0010019D01*
X0045775Y0009807D01*
X0046151Y0009603D01*
X0046533Y0009409D01*
X0046919Y0009224D01*
X0047309Y0009048D01*
X0047704Y0008882D01*
X0048102Y0008725D01*
X0048505Y0008578D01*
X0048910Y0008441D01*
X0049319Y0008314D01*
X0049731Y0008196D01*
X0050145Y0008089D01*
X0050562Y0007991D01*
X0050981Y0007904D01*
X0051402Y0007827D01*
X0051825Y0007760D01*
X0052249Y0007703D01*
X0052675Y0007657D01*
X0053102Y0007621D01*
X0053529Y0007595D01*
X0053957Y0007579D01*
X0054385Y0007574D01*
X0196118Y0007574D01*
X0196546Y0007579D01*
X0196974Y0007595D01*
X0197401Y0007621D01*
X0197828Y0007657D01*
X0198254Y0007703D01*
X0198678Y0007760D01*
X0199101Y0007827D01*
X0199522Y0007904D01*
X0199941Y0007991D01*
X0200358Y0008089D01*
X0200772Y0008196D01*
X0201184Y0008314D01*
X0201593Y0008441D01*
X0201998Y0008578D01*
X0202401Y0008725D01*
X0202799Y0008882D01*
X0203194Y0009048D01*
X0203584Y0009224D01*
X0203970Y0009409D01*
X0204352Y0009603D01*
X0204728Y0009807D01*
X0205100Y0010019D01*
X0205466Y0010241D01*
X0205827Y0010471D01*
X0206182Y0010710D01*
X0206532Y0010958D01*
X0206875Y0011213D01*
X0207212Y0011478D01*
X0207543Y0011750D01*
X0207867Y0012030D01*
X0208184Y0012317D01*
X0208494Y0012613D01*
X0208796Y0012915D01*
X0209092Y0013225D01*
X0209379Y0013542D01*
X0209659Y0013866D01*
X0209931Y0014197D01*
X0210196Y0014534D01*
X0210451Y0014877D01*
X0210699Y0015227D01*
X0210938Y0015582D01*
X0211168Y0015943D01*
X0211390Y0016309D01*
X0211602Y0016681D01*
X0211806Y0017057D01*
X0212000Y0017439D01*
X0212185Y0017825D01*
X0212361Y0018215D01*
X0212527Y0018610D01*
X0212684Y0019008D01*
X0212831Y0019411D01*
X0212968Y0019816D01*
X0213095Y0020225D01*
X0213213Y0020637D01*
X0213320Y0021051D01*
X0213418Y0021468D01*
X0213505Y0021887D01*
X0213582Y0022308D01*
X0213649Y0022731D01*
X0213706Y0023155D01*
X0213752Y0023581D01*
X0213788Y0024008D01*
X0213814Y0024435D01*
X0213830Y0024863D01*
X0213835Y0025291D01*
X0213834Y0025291D02*
X0213834Y0239700D01*
X0213835Y0239700D02*
X0213830Y0240128D01*
X0213814Y0240556D01*
X0213788Y0240983D01*
X0213752Y0241410D01*
X0213706Y0241836D01*
X0213649Y0242260D01*
X0213582Y0242683D01*
X0213505Y0243104D01*
X0213418Y0243523D01*
X0213320Y0243940D01*
X0213213Y0244354D01*
X0213095Y0244766D01*
X0212968Y0245175D01*
X0212831Y0245580D01*
X0212684Y0245983D01*
X0212527Y0246381D01*
X0212361Y0246776D01*
X0212185Y0247166D01*
X0212000Y0247552D01*
X0211806Y0247934D01*
X0211602Y0248310D01*
X0211390Y0248682D01*
X0211168Y0249048D01*
X0210938Y0249409D01*
X0210699Y0249764D01*
X0210451Y0250114D01*
X0210196Y0250457D01*
X0209931Y0250794D01*
X0209659Y0251125D01*
X0209379Y0251449D01*
X0209092Y0251766D01*
X0208796Y0252076D01*
X0208494Y0252378D01*
X0208184Y0252674D01*
X0207867Y0252961D01*
X0207543Y0253241D01*
X0207212Y0253513D01*
X0206875Y0253778D01*
X0206532Y0254033D01*
X0206182Y0254281D01*
X0205827Y0254520D01*
X0205466Y0254750D01*
X0205100Y0254972D01*
X0204728Y0255184D01*
X0204352Y0255388D01*
X0203970Y0255582D01*
X0203584Y0255767D01*
X0203194Y0255943D01*
X0202799Y0256109D01*
X0202401Y0256266D01*
X0201998Y0256413D01*
X0201593Y0256550D01*
X0201184Y0256677D01*
X0200772Y0256795D01*
X0200358Y0256902D01*
X0199941Y0257000D01*
X0199522Y0257087D01*
X0199101Y0257164D01*
X0198678Y0257231D01*
X0198254Y0257288D01*
X0197828Y0257334D01*
X0197401Y0257370D01*
X0196974Y0257396D01*
X0196546Y0257412D01*
X0196118Y0257417D01*
X0054385Y0257417D01*
X0053957Y0257412D01*
X0053529Y0257396D01*
X0053102Y0257370D01*
X0052675Y0257334D01*
X0052249Y0257288D01*
X0051825Y0257231D01*
X0051402Y0257164D01*
X0050981Y0257087D01*
X0050562Y0257000D01*
X0050145Y0256902D01*
X0049731Y0256795D01*
X0049319Y0256677D01*
X0048910Y0256550D01*
X0048505Y0256413D01*
X0048102Y0256266D01*
X0047704Y0256109D01*
X0047309Y0255943D01*
X0046919Y0255767D01*
X0046533Y0255582D01*
X0046151Y0255388D01*
X0045775Y0255184D01*
X0045403Y0254972D01*
X0045037Y0254750D01*
X0044676Y0254520D01*
X0044321Y0254281D01*
X0043971Y0254033D01*
X0043628Y0253778D01*
X0043291Y0253513D01*
X0042960Y0253241D01*
X0042636Y0252961D01*
X0042319Y0252674D01*
X0042009Y0252378D01*
X0041707Y0252076D01*
X0041411Y0251766D01*
X0041124Y0251449D01*
X0040844Y0251125D01*
X0040572Y0250794D01*
X0040307Y0250457D01*
X0040052Y0250114D01*
X0039804Y0249764D01*
X0039565Y0249409D01*
X0039335Y0249048D01*
X0039113Y0248682D01*
X0038901Y0248310D01*
X0038697Y0247934D01*
X0038503Y0247552D01*
X0038318Y0247166D01*
X0038142Y0246776D01*
X0037976Y0246381D01*
X0037819Y0245983D01*
X0037672Y0245580D01*
X0037535Y0245175D01*
X0037408Y0244766D01*
X0037290Y0244354D01*
X0037183Y0243940D01*
X0037085Y0243523D01*
X0036998Y0243104D01*
X0036921Y0242683D01*
X0036854Y0242260D01*
X0036797Y0241836D01*
X0036751Y0241410D01*
X0036715Y0240983D01*
X0036689Y0240556D01*
X0036673Y0240128D01*
X0036668Y0239700D01*
D12*
X0047639Y0121227D02*
X0047639Y0116227D01*
X0153611Y0095478D02*
X0153611Y0090478D01*
X0154930Y0090478D02*
X0154930Y0095478D01*
X0157430Y0097978D01*
X0172430Y0097978D01*
X0174930Y0095478D01*
X0174930Y0090478D01*
X0172430Y0087978D01*
X0157430Y0087978D01*
X0154930Y0085478D01*
X0154930Y0080478D01*
X0157430Y0077978D01*
X0172430Y0077978D01*
X0174930Y0075478D01*
X0174930Y0070478D01*
X0172430Y0067978D01*
X0157430Y0067978D01*
X0154930Y0070478D01*
X0154930Y0075478D01*
X0157430Y0077978D01*
X0157430Y0087978D02*
X0154930Y0090478D01*
X0172430Y0087978D02*
X0174930Y0085478D01*
X0174930Y0080478D01*
X0172430Y0077978D01*
X0198474Y0111265D02*
X0198474Y0126265D01*
X0198114Y0142180D02*
X0198114Y0157180D01*
D13*
X0198443Y0157489D02*
X0197723Y0156949D01*
X0197724Y0156950D02*
X0197543Y0157183D01*
X0197357Y0157411D01*
X0197165Y0157635D01*
X0196968Y0157854D01*
X0196766Y0158068D01*
X0196558Y0158277D01*
X0196345Y0158480D01*
X0196128Y0158679D01*
X0195905Y0158872D01*
X0195678Y0159060D01*
X0195447Y0159242D01*
X0195211Y0159419D01*
X0194970Y0159589D01*
X0194726Y0159754D01*
X0194478Y0159912D01*
X0194226Y0160065D01*
X0193970Y0160211D01*
X0193711Y0160351D01*
X0193448Y0160485D01*
X0193183Y0160612D01*
X0192914Y0160733D01*
X0192642Y0160847D01*
X0192368Y0160954D01*
X0192091Y0161055D01*
X0191812Y0161149D01*
X0191530Y0161236D01*
X0191247Y0161316D01*
X0190961Y0161389D01*
X0190674Y0161455D01*
X0190385Y0161514D01*
X0190095Y0161566D01*
X0189804Y0161611D01*
X0189512Y0161649D01*
X0189219Y0161679D01*
X0188925Y0161703D01*
X0188631Y0161719D01*
X0188337Y0161728D01*
X0188042Y0161730D01*
X0187747Y0161724D01*
X0187453Y0161712D01*
X0187159Y0161692D01*
X0186866Y0161665D01*
X0186573Y0161631D01*
X0186281Y0161590D01*
X0185991Y0161541D01*
X0185701Y0161486D01*
X0185414Y0161424D01*
X0185127Y0161354D01*
X0184843Y0161277D01*
X0184560Y0161194D01*
X0184280Y0161104D01*
X0184002Y0161007D01*
X0183726Y0160903D01*
X0183453Y0160792D01*
X0183183Y0160675D01*
X0182915Y0160551D01*
X0182651Y0160421D01*
X0182390Y0160284D01*
X0182133Y0160141D01*
X0181879Y0159991D01*
X0181628Y0159836D01*
X0181382Y0159674D01*
X0181140Y0159507D01*
X0180902Y0159333D01*
X0180668Y0159154D01*
X0180438Y0158969D01*
X0180214Y0158779D01*
X0179993Y0158583D01*
X0179778Y0158382D01*
X0179568Y0158175D01*
X0179363Y0157964D01*
X0179163Y0157747D01*
X0178968Y0157526D01*
X0178779Y0157300D01*
X0178596Y0157070D01*
X0178418Y0156835D01*
X0178246Y0156595D01*
X0178080Y0156352D01*
X0177920Y0156105D01*
X0177766Y0155854D01*
X0177618Y0155599D01*
X0177476Y0155340D01*
X0177341Y0155079D01*
X0177212Y0154814D01*
X0177090Y0154546D01*
X0176974Y0154275D01*
X0176865Y0154001D01*
X0176763Y0153725D01*
X0176668Y0153446D01*
X0176579Y0153165D01*
X0176497Y0152882D01*
X0176422Y0152597D01*
X0176355Y0152310D01*
X0176294Y0152022D01*
X0176240Y0151732D01*
X0176193Y0151441D01*
X0176154Y0151149D01*
X0176122Y0150857D01*
X0176096Y0150563D01*
X0176078Y0150269D01*
X0176068Y0149975D01*
X0176064Y0149680D01*
X0176068Y0149385D01*
X0176078Y0149091D01*
X0176096Y0148797D01*
X0176122Y0148503D01*
X0176154Y0148211D01*
X0176193Y0147919D01*
X0176240Y0147628D01*
X0176294Y0147338D01*
X0176355Y0147050D01*
X0176422Y0146763D01*
X0176497Y0146478D01*
X0176579Y0146195D01*
X0176668Y0145914D01*
X0176763Y0145635D01*
X0176865Y0145359D01*
X0176974Y0145085D01*
X0177090Y0144814D01*
X0177212Y0144546D01*
X0177341Y0144281D01*
X0177476Y0144020D01*
X0177618Y0143761D01*
X0177766Y0143506D01*
X0177920Y0143255D01*
X0178080Y0143008D01*
X0178246Y0142765D01*
X0178418Y0142525D01*
X0178596Y0142290D01*
X0178779Y0142060D01*
X0178968Y0141834D01*
X0179163Y0141613D01*
X0179363Y0141396D01*
X0179568Y0141185D01*
X0179778Y0140978D01*
X0179993Y0140777D01*
X0180214Y0140581D01*
X0180438Y0140391D01*
X0180668Y0140206D01*
X0180902Y0140027D01*
X0181140Y0139853D01*
X0181382Y0139686D01*
X0181628Y0139524D01*
X0181879Y0139369D01*
X0182133Y0139219D01*
X0182390Y0139076D01*
X0182651Y0138939D01*
X0182915Y0138809D01*
X0183183Y0138685D01*
X0183453Y0138568D01*
X0183726Y0138457D01*
X0184002Y0138353D01*
X0184280Y0138256D01*
X0184560Y0138166D01*
X0184843Y0138083D01*
X0185127Y0138006D01*
X0185414Y0137936D01*
X0185701Y0137874D01*
X0185991Y0137819D01*
X0186281Y0137770D01*
X0186573Y0137729D01*
X0186866Y0137695D01*
X0187159Y0137668D01*
X0187453Y0137648D01*
X0187747Y0137636D01*
X0188042Y0137630D01*
X0188337Y0137632D01*
X0188631Y0137641D01*
X0188925Y0137657D01*
X0189219Y0137681D01*
X0189512Y0137711D01*
X0189804Y0137749D01*
X0190095Y0137794D01*
X0190385Y0137846D01*
X0190674Y0137905D01*
X0190961Y0137971D01*
X0191247Y0138044D01*
X0191530Y0138124D01*
X0191812Y0138211D01*
X0192091Y0138305D01*
X0192368Y0138406D01*
X0192642Y0138513D01*
X0192914Y0138627D01*
X0193183Y0138748D01*
X0193448Y0138875D01*
X0193711Y0139009D01*
X0193970Y0139149D01*
X0194226Y0139295D01*
X0194478Y0139448D01*
X0194726Y0139606D01*
X0194970Y0139771D01*
X0195211Y0139941D01*
X0195447Y0140118D01*
X0195678Y0140300D01*
X0195905Y0140488D01*
X0196128Y0140681D01*
X0196345Y0140880D01*
X0196558Y0141083D01*
X0196766Y0141292D01*
X0196968Y0141506D01*
X0197165Y0141725D01*
X0197357Y0141949D01*
X0197543Y0142177D01*
X0197724Y0142410D01*
X0198443Y0141871D01*
X0198444Y0141870D01*
X0198250Y0141620D01*
X0198050Y0141374D01*
X0197844Y0141134D01*
X0197632Y0140899D01*
X0197414Y0140669D01*
X0197191Y0140444D01*
X0196963Y0140225D01*
X0196729Y0140011D01*
X0196490Y0139803D01*
X0196246Y0139601D01*
X0195997Y0139406D01*
X0195743Y0139216D01*
X0195485Y0139033D01*
X0195223Y0138856D01*
X0194956Y0138685D01*
X0194685Y0138521D01*
X0194410Y0138364D01*
X0194132Y0138213D01*
X0193849Y0138069D01*
X0193564Y0137933D01*
X0193275Y0137803D01*
X0192983Y0137680D01*
X0192688Y0137565D01*
X0192391Y0137457D01*
X0192090Y0137356D01*
X0191788Y0137262D01*
X0191483Y0137176D01*
X0191176Y0137097D01*
X0190868Y0137026D01*
X0190558Y0136963D01*
X0190246Y0136907D01*
X0189933Y0136858D01*
X0189619Y0136818D01*
X0189304Y0136785D01*
X0188988Y0136760D01*
X0188672Y0136742D01*
X0188356Y0136732D01*
X0188039Y0136730D01*
X0187722Y0136736D01*
X0187406Y0136749D01*
X0187090Y0136771D01*
X0186775Y0136799D01*
X0186460Y0136836D01*
X0186147Y0136880D01*
X0185834Y0136932D01*
X0185523Y0136992D01*
X0185214Y0137059D01*
X0184906Y0137134D01*
X0184600Y0137216D01*
X0184297Y0137305D01*
X0183995Y0137402D01*
X0183696Y0137507D01*
X0183400Y0137619D01*
X0183106Y0137737D01*
X0182816Y0137863D01*
X0182529Y0137996D01*
X0182244Y0138137D01*
X0181964Y0138284D01*
X0181687Y0138437D01*
X0181414Y0138598D01*
X0181145Y0138765D01*
X0180880Y0138939D01*
X0180620Y0139119D01*
X0180364Y0139305D01*
X0180113Y0139498D01*
X0179866Y0139696D01*
X0179624Y0139901D01*
X0179388Y0140111D01*
X0179156Y0140328D01*
X0178931Y0140550D01*
X0178710Y0140777D01*
X0178495Y0141009D01*
X0178286Y0141247D01*
X0178083Y0141490D01*
X0177885Y0141738D01*
X0177694Y0141990D01*
X0177509Y0142247D01*
X0177331Y0142509D01*
X0177159Y0142775D01*
X0176993Y0143044D01*
X0176834Y0143318D01*
X0176682Y0143596D01*
X0176537Y0143877D01*
X0176398Y0144162D01*
X0176267Y0144450D01*
X0176143Y0144742D01*
X0176025Y0145036D01*
X0175915Y0145333D01*
X0175813Y0145632D01*
X0175718Y0145934D01*
X0175630Y0146238D01*
X0175549Y0146545D01*
X0175476Y0146853D01*
X0175411Y0147163D01*
X0175353Y0147474D01*
X0175303Y0147787D01*
X0175261Y0148101D01*
X0175226Y0148415D01*
X0175199Y0148731D01*
X0175179Y0149047D01*
X0175168Y0149363D01*
X0175164Y0149680D01*
X0175168Y0149997D01*
X0175179Y0150313D01*
X0175199Y0150629D01*
X0175226Y0150945D01*
X0175261Y0151259D01*
X0175303Y0151573D01*
X0175353Y0151886D01*
X0175411Y0152197D01*
X0175476Y0152507D01*
X0175549Y0152815D01*
X0175630Y0153122D01*
X0175718Y0153426D01*
X0175813Y0153728D01*
X0175915Y0154027D01*
X0176025Y0154324D01*
X0176143Y0154618D01*
X0176267Y0154910D01*
X0176398Y0155198D01*
X0176537Y0155483D01*
X0176682Y0155764D01*
X0176834Y0156042D01*
X0176993Y0156316D01*
X0177159Y0156585D01*
X0177331Y0156851D01*
X0177509Y0157113D01*
X0177694Y0157370D01*
X0177885Y0157622D01*
X0178083Y0157870D01*
X0178286Y0158113D01*
X0178495Y0158351D01*
X0178710Y0158583D01*
X0178931Y0158810D01*
X0179156Y0159032D01*
X0179388Y0159249D01*
X0179624Y0159459D01*
X0179866Y0159664D01*
X0180113Y0159862D01*
X0180364Y0160055D01*
X0180620Y0160241D01*
X0180880Y0160421D01*
X0181145Y0160595D01*
X0181414Y0160762D01*
X0181687Y0160923D01*
X0181964Y0161076D01*
X0182244Y0161223D01*
X0182529Y0161364D01*
X0182816Y0161497D01*
X0183106Y0161623D01*
X0183400Y0161741D01*
X0183696Y0161853D01*
X0183995Y0161958D01*
X0184297Y0162055D01*
X0184600Y0162144D01*
X0184906Y0162226D01*
X0185214Y0162301D01*
X0185523Y0162368D01*
X0185834Y0162428D01*
X0186147Y0162480D01*
X0186460Y0162524D01*
X0186775Y0162561D01*
X0187090Y0162589D01*
X0187406Y0162611D01*
X0187722Y0162624D01*
X0188039Y0162630D01*
X0188356Y0162628D01*
X0188672Y0162618D01*
X0188988Y0162600D01*
X0189304Y0162575D01*
X0189619Y0162542D01*
X0189933Y0162502D01*
X0190246Y0162453D01*
X0190558Y0162397D01*
X0190868Y0162334D01*
X0191176Y0162263D01*
X0191483Y0162184D01*
X0191788Y0162098D01*
X0192090Y0162004D01*
X0192391Y0161903D01*
X0192688Y0161795D01*
X0192983Y0161680D01*
X0193275Y0161557D01*
X0193564Y0161427D01*
X0193849Y0161291D01*
X0194132Y0161147D01*
X0194410Y0160996D01*
X0194685Y0160839D01*
X0194956Y0160675D01*
X0195223Y0160504D01*
X0195485Y0160327D01*
X0195743Y0160144D01*
X0195997Y0159954D01*
X0196246Y0159759D01*
X0196490Y0159557D01*
X0196729Y0159349D01*
X0196963Y0159135D01*
X0197191Y0158916D01*
X0197414Y0158691D01*
X0197632Y0158461D01*
X0197844Y0158226D01*
X0198050Y0157986D01*
X0198250Y0157740D01*
X0198444Y0157490D01*
X0198369Y0157434D01*
X0198176Y0157682D01*
X0197977Y0157926D01*
X0197773Y0158164D01*
X0197563Y0158398D01*
X0197347Y0158626D01*
X0197125Y0158849D01*
X0196898Y0159067D01*
X0196666Y0159279D01*
X0196429Y0159485D01*
X0196187Y0159686D01*
X0195939Y0159880D01*
X0195688Y0160068D01*
X0195431Y0160250D01*
X0195171Y0160426D01*
X0194906Y0160595D01*
X0194637Y0160758D01*
X0194364Y0160914D01*
X0194088Y0161064D01*
X0193808Y0161206D01*
X0193524Y0161342D01*
X0193237Y0161471D01*
X0192947Y0161593D01*
X0192655Y0161707D01*
X0192359Y0161815D01*
X0192061Y0161915D01*
X0191761Y0162008D01*
X0191458Y0162093D01*
X0191154Y0162171D01*
X0190848Y0162242D01*
X0190540Y0162305D01*
X0190230Y0162361D01*
X0189920Y0162409D01*
X0189608Y0162449D01*
X0189295Y0162482D01*
X0188982Y0162507D01*
X0188668Y0162524D01*
X0188354Y0162534D01*
X0188039Y0162536D01*
X0187725Y0162530D01*
X0187411Y0162517D01*
X0187097Y0162496D01*
X0186784Y0162467D01*
X0186472Y0162431D01*
X0186161Y0162387D01*
X0185851Y0162335D01*
X0185542Y0162276D01*
X0185235Y0162209D01*
X0184929Y0162135D01*
X0184626Y0162054D01*
X0184324Y0161965D01*
X0184025Y0161868D01*
X0183728Y0161765D01*
X0183434Y0161654D01*
X0183143Y0161536D01*
X0182854Y0161411D01*
X0182569Y0161279D01*
X0182287Y0161140D01*
X0182009Y0160994D01*
X0181734Y0160841D01*
X0181463Y0160682D01*
X0181196Y0160516D01*
X0180933Y0160343D01*
X0180674Y0160165D01*
X0180420Y0159980D01*
X0180171Y0159788D01*
X0179926Y0159591D01*
X0179686Y0159388D01*
X0179451Y0159179D01*
X0179221Y0158964D01*
X0178997Y0158744D01*
X0178778Y0158519D01*
X0178565Y0158288D01*
X0178357Y0158052D01*
X0178155Y0157810D01*
X0177960Y0157565D01*
X0177770Y0157314D01*
X0177586Y0157059D01*
X0177409Y0156799D01*
X0177238Y0156535D01*
X0177074Y0156267D01*
X0176916Y0155995D01*
X0176765Y0155720D01*
X0176621Y0155440D01*
X0176483Y0155158D01*
X0176353Y0154872D01*
X0176229Y0154583D01*
X0176113Y0154290D01*
X0176004Y0153996D01*
X0175902Y0153698D01*
X0175808Y0153399D01*
X0175720Y0153096D01*
X0175640Y0152792D01*
X0175568Y0152487D01*
X0175503Y0152179D01*
X0175446Y0151870D01*
X0175396Y0151559D01*
X0175354Y0151248D01*
X0175319Y0150935D01*
X0175293Y0150622D01*
X0175273Y0150308D01*
X0175262Y0149994D01*
X0175258Y0149680D01*
X0175262Y0149366D01*
X0175273Y0149052D01*
X0175293Y0148738D01*
X0175319Y0148425D01*
X0175354Y0148112D01*
X0175396Y0147801D01*
X0175446Y0147490D01*
X0175503Y0147181D01*
X0175568Y0146873D01*
X0175640Y0146568D01*
X0175720Y0146264D01*
X0175808Y0145961D01*
X0175902Y0145662D01*
X0176004Y0145364D01*
X0176113Y0145070D01*
X0176229Y0144777D01*
X0176353Y0144488D01*
X0176483Y0144202D01*
X0176621Y0143920D01*
X0176765Y0143640D01*
X0176916Y0143365D01*
X0177074Y0143093D01*
X0177238Y0142825D01*
X0177409Y0142561D01*
X0177586Y0142301D01*
X0177770Y0142046D01*
X0177960Y0141795D01*
X0178155Y0141550D01*
X0178357Y0141308D01*
X0178565Y0141072D01*
X0178778Y0140841D01*
X0178997Y0140616D01*
X0179221Y0140396D01*
X0179451Y0140181D01*
X0179686Y0139972D01*
X0179926Y0139769D01*
X0180171Y0139572D01*
X0180420Y0139380D01*
X0180674Y0139195D01*
X0180933Y0139017D01*
X0181196Y0138844D01*
X0181463Y0138678D01*
X0181734Y0138519D01*
X0182009Y0138366D01*
X0182287Y0138220D01*
X0182569Y0138081D01*
X0182854Y0137949D01*
X0183143Y0137824D01*
X0183434Y0137706D01*
X0183728Y0137595D01*
X0184025Y0137492D01*
X0184324Y0137395D01*
X0184626Y0137306D01*
X0184929Y0137225D01*
X0185235Y0137151D01*
X0185542Y0137084D01*
X0185851Y0137025D01*
X0186161Y0136973D01*
X0186472Y0136929D01*
X0186784Y0136893D01*
X0187097Y0136864D01*
X0187411Y0136843D01*
X0187725Y0136830D01*
X0188039Y0136824D01*
X0188354Y0136826D01*
X0188668Y0136836D01*
X0188982Y0136853D01*
X0189295Y0136878D01*
X0189608Y0136911D01*
X0189920Y0136951D01*
X0190230Y0136999D01*
X0190540Y0137055D01*
X0190848Y0137118D01*
X0191154Y0137189D01*
X0191458Y0137267D01*
X0191761Y0137352D01*
X0192061Y0137445D01*
X0192359Y0137545D01*
X0192655Y0137653D01*
X0192947Y0137767D01*
X0193237Y0137889D01*
X0193524Y0138018D01*
X0193808Y0138154D01*
X0194088Y0138296D01*
X0194364Y0138446D01*
X0194637Y0138602D01*
X0194906Y0138765D01*
X0195171Y0138934D01*
X0195431Y0139110D01*
X0195688Y0139292D01*
X0195939Y0139480D01*
X0196187Y0139674D01*
X0196429Y0139875D01*
X0196666Y0140081D01*
X0196898Y0140293D01*
X0197125Y0140511D01*
X0197347Y0140734D01*
X0197563Y0140962D01*
X0197773Y0141196D01*
X0197977Y0141434D01*
X0198176Y0141678D01*
X0198369Y0141926D01*
X0198294Y0141983D01*
X0198102Y0141736D01*
X0197905Y0141494D01*
X0197702Y0141257D01*
X0197493Y0141026D01*
X0197279Y0140799D01*
X0197059Y0140577D01*
X0196834Y0140361D01*
X0196603Y0140151D01*
X0196368Y0139946D01*
X0196127Y0139747D01*
X0195882Y0139554D01*
X0195632Y0139368D01*
X0195378Y0139187D01*
X0195119Y0139012D01*
X0194856Y0138844D01*
X0194589Y0138683D01*
X0194318Y0138528D01*
X0194044Y0138379D01*
X0193766Y0138238D01*
X0193484Y0138103D01*
X0193200Y0137975D01*
X0192912Y0137854D01*
X0192621Y0137740D01*
X0192328Y0137634D01*
X0192032Y0137534D01*
X0191734Y0137442D01*
X0191434Y0137357D01*
X0191131Y0137280D01*
X0190827Y0137210D01*
X0190522Y0137147D01*
X0190215Y0137092D01*
X0189906Y0137044D01*
X0189597Y0137004D01*
X0189286Y0136972D01*
X0188975Y0136947D01*
X0188664Y0136930D01*
X0188352Y0136920D01*
X0188040Y0136918D01*
X0187728Y0136924D01*
X0187416Y0136937D01*
X0187105Y0136958D01*
X0186794Y0136986D01*
X0186484Y0137023D01*
X0186175Y0137066D01*
X0185867Y0137117D01*
X0185560Y0137176D01*
X0185256Y0137242D01*
X0184952Y0137316D01*
X0184651Y0137397D01*
X0184352Y0137485D01*
X0184055Y0137581D01*
X0183760Y0137684D01*
X0183468Y0137794D01*
X0183179Y0137911D01*
X0182892Y0138035D01*
X0182609Y0138166D01*
X0182329Y0138304D01*
X0182053Y0138449D01*
X0181780Y0138601D01*
X0181511Y0138759D01*
X0181246Y0138924D01*
X0180985Y0139095D01*
X0180729Y0139272D01*
X0180476Y0139456D01*
X0180229Y0139646D01*
X0179986Y0139841D01*
X0179747Y0140043D01*
X0179514Y0140251D01*
X0179286Y0140464D01*
X0179064Y0140682D01*
X0178846Y0140906D01*
X0178635Y0141135D01*
X0178429Y0141370D01*
X0178228Y0141609D01*
X0178034Y0141853D01*
X0177846Y0142102D01*
X0177663Y0142355D01*
X0177487Y0142613D01*
X0177318Y0142875D01*
X0177155Y0143141D01*
X0176998Y0143411D01*
X0176848Y0143685D01*
X0176705Y0143962D01*
X0176568Y0144242D01*
X0176439Y0144526D01*
X0176316Y0144813D01*
X0176201Y0145103D01*
X0176093Y0145396D01*
X0175991Y0145691D01*
X0175897Y0145989D01*
X0175811Y0146289D01*
X0175732Y0146590D01*
X0175660Y0146894D01*
X0175595Y0147199D01*
X0175538Y0147506D01*
X0175489Y0147814D01*
X0175447Y0148124D01*
X0175413Y0148434D01*
X0175386Y0148745D01*
X0175367Y0149056D01*
X0175356Y0149368D01*
X0175352Y0149680D01*
X0175356Y0149992D01*
X0175367Y0150304D01*
X0175386Y0150615D01*
X0175413Y0150926D01*
X0175447Y0151236D01*
X0175489Y0151546D01*
X0175538Y0151854D01*
X0175595Y0152161D01*
X0175660Y0152466D01*
X0175732Y0152770D01*
X0175811Y0153071D01*
X0175897Y0153371D01*
X0175991Y0153669D01*
X0176093Y0153964D01*
X0176201Y0154257D01*
X0176316Y0154547D01*
X0176439Y0154834D01*
X0176568Y0155118D01*
X0176705Y0155398D01*
X0176848Y0155675D01*
X0176998Y0155949D01*
X0177155Y0156219D01*
X0177318Y0156485D01*
X0177487Y0156747D01*
X0177663Y0157005D01*
X0177846Y0157258D01*
X0178034Y0157507D01*
X0178228Y0157751D01*
X0178429Y0157990D01*
X0178635Y0158225D01*
X0178846Y0158454D01*
X0179064Y0158678D01*
X0179286Y0158896D01*
X0179514Y0159109D01*
X0179747Y0159317D01*
X0179986Y0159519D01*
X0180229Y0159714D01*
X0180476Y0159904D01*
X0180729Y0160088D01*
X0180985Y0160265D01*
X0181246Y0160436D01*
X0181511Y0160601D01*
X0181780Y0160759D01*
X0182053Y0160911D01*
X0182329Y0161056D01*
X0182609Y0161194D01*
X0182892Y0161325D01*
X0183179Y0161449D01*
X0183468Y0161566D01*
X0183760Y0161676D01*
X0184055Y0161779D01*
X0184352Y0161875D01*
X0184651Y0161963D01*
X0184952Y0162044D01*
X0185256Y0162118D01*
X0185560Y0162184D01*
X0185867Y0162243D01*
X0186175Y0162294D01*
X0186484Y0162337D01*
X0186794Y0162374D01*
X0187105Y0162402D01*
X0187416Y0162423D01*
X0187728Y0162436D01*
X0188040Y0162442D01*
X0188352Y0162440D01*
X0188664Y0162430D01*
X0188975Y0162413D01*
X0189286Y0162388D01*
X0189597Y0162356D01*
X0189906Y0162316D01*
X0190215Y0162268D01*
X0190522Y0162213D01*
X0190827Y0162150D01*
X0191131Y0162080D01*
X0191434Y0162003D01*
X0191734Y0161918D01*
X0192032Y0161826D01*
X0192328Y0161726D01*
X0192621Y0161620D01*
X0192912Y0161506D01*
X0193200Y0161385D01*
X0193484Y0161257D01*
X0193766Y0161122D01*
X0194044Y0160981D01*
X0194318Y0160832D01*
X0194589Y0160677D01*
X0194856Y0160516D01*
X0195119Y0160348D01*
X0195378Y0160173D01*
X0195632Y0159992D01*
X0195882Y0159806D01*
X0196127Y0159613D01*
X0196368Y0159414D01*
X0196603Y0159209D01*
X0196834Y0158999D01*
X0197059Y0158783D01*
X0197279Y0158561D01*
X0197493Y0158334D01*
X0197702Y0158103D01*
X0197905Y0157866D01*
X0198102Y0157624D01*
X0198294Y0157377D01*
X0198218Y0157321D01*
X0198028Y0157566D01*
X0197833Y0157806D01*
X0197631Y0158041D01*
X0197424Y0158271D01*
X0197211Y0158496D01*
X0196993Y0158716D01*
X0196769Y0158930D01*
X0196540Y0159139D01*
X0196307Y0159342D01*
X0196068Y0159540D01*
X0195825Y0159731D01*
X0195576Y0159917D01*
X0195324Y0160096D01*
X0195067Y0160269D01*
X0194806Y0160436D01*
X0194541Y0160597D01*
X0194272Y0160750D01*
X0194000Y0160898D01*
X0193724Y0161038D01*
X0193444Y0161172D01*
X0193162Y0161299D01*
X0192876Y0161419D01*
X0192588Y0161532D01*
X0192297Y0161638D01*
X0192003Y0161736D01*
X0191707Y0161828D01*
X0191409Y0161912D01*
X0191109Y0161989D01*
X0190807Y0162058D01*
X0190504Y0162121D01*
X0190199Y0162175D01*
X0189893Y0162223D01*
X0189585Y0162262D01*
X0189277Y0162294D01*
X0188969Y0162319D01*
X0188659Y0162336D01*
X0188350Y0162346D01*
X0188040Y0162348D01*
X0187730Y0162342D01*
X0187421Y0162329D01*
X0187112Y0162308D01*
X0186803Y0162280D01*
X0186496Y0162244D01*
X0186189Y0162201D01*
X0185883Y0162150D01*
X0185579Y0162092D01*
X0185276Y0162026D01*
X0184975Y0161953D01*
X0184676Y0161873D01*
X0184379Y0161785D01*
X0184084Y0161690D01*
X0183792Y0161588D01*
X0183502Y0161479D01*
X0183215Y0161362D01*
X0182931Y0161239D01*
X0182650Y0161109D01*
X0182372Y0160972D01*
X0182098Y0160828D01*
X0181827Y0160678D01*
X0181560Y0160521D01*
X0181297Y0160357D01*
X0181038Y0160187D01*
X0180783Y0160011D01*
X0180532Y0159829D01*
X0180287Y0159640D01*
X0180045Y0159446D01*
X0179809Y0159246D01*
X0179578Y0159040D01*
X0179351Y0158828D01*
X0179130Y0158611D01*
X0178915Y0158389D01*
X0178704Y0158162D01*
X0178500Y0157929D01*
X0178301Y0157691D01*
X0178108Y0157449D01*
X0177921Y0157202D01*
X0177740Y0156951D01*
X0177566Y0156695D01*
X0177397Y0156435D01*
X0177235Y0156171D01*
X0177080Y0155903D01*
X0176931Y0155631D01*
X0176789Y0155356D01*
X0176653Y0155077D01*
X0176525Y0154796D01*
X0176403Y0154511D01*
X0176289Y0154223D01*
X0176181Y0153932D01*
X0176081Y0153639D01*
X0175987Y0153344D01*
X0175901Y0153046D01*
X0175823Y0152747D01*
X0175752Y0152445D01*
X0175688Y0152142D01*
X0175631Y0151838D01*
X0175582Y0151532D01*
X0175541Y0151225D01*
X0175507Y0150917D01*
X0175480Y0150608D01*
X0175461Y0150299D01*
X0175450Y0149990D01*
X0175446Y0149680D01*
X0175450Y0149370D01*
X0175461Y0149061D01*
X0175480Y0148752D01*
X0175507Y0148443D01*
X0175541Y0148135D01*
X0175582Y0147828D01*
X0175631Y0147522D01*
X0175688Y0147218D01*
X0175752Y0146915D01*
X0175823Y0146613D01*
X0175901Y0146314D01*
X0175987Y0146016D01*
X0176081Y0145721D01*
X0176181Y0145428D01*
X0176289Y0145137D01*
X0176403Y0144849D01*
X0176525Y0144564D01*
X0176653Y0144283D01*
X0176789Y0144004D01*
X0176931Y0143729D01*
X0177080Y0143457D01*
X0177235Y0143189D01*
X0177397Y0142925D01*
X0177566Y0142665D01*
X0177740Y0142409D01*
X0177921Y0142158D01*
X0178108Y0141911D01*
X0178301Y0141669D01*
X0178500Y0141431D01*
X0178704Y0141198D01*
X0178915Y0140971D01*
X0179130Y0140749D01*
X0179351Y0140532D01*
X0179578Y0140320D01*
X0179809Y0140114D01*
X0180045Y0139914D01*
X0180287Y0139720D01*
X0180532Y0139531D01*
X0180783Y0139349D01*
X0181038Y0139173D01*
X0181297Y0139003D01*
X0181560Y0138839D01*
X0181827Y0138682D01*
X0182098Y0138532D01*
X0182372Y0138388D01*
X0182650Y0138251D01*
X0182931Y0138121D01*
X0183215Y0137998D01*
X0183502Y0137881D01*
X0183792Y0137772D01*
X0184084Y0137670D01*
X0184379Y0137575D01*
X0184676Y0137487D01*
X0184975Y0137407D01*
X0185276Y0137334D01*
X0185579Y0137268D01*
X0185883Y0137210D01*
X0186189Y0137159D01*
X0186496Y0137116D01*
X0186803Y0137080D01*
X0187112Y0137052D01*
X0187421Y0137031D01*
X0187730Y0137018D01*
X0188040Y0137012D01*
X0188350Y0137014D01*
X0188659Y0137024D01*
X0188969Y0137041D01*
X0189277Y0137066D01*
X0189585Y0137098D01*
X0189893Y0137137D01*
X0190199Y0137185D01*
X0190504Y0137239D01*
X0190807Y0137302D01*
X0191109Y0137371D01*
X0191409Y0137448D01*
X0191707Y0137532D01*
X0192003Y0137624D01*
X0192297Y0137722D01*
X0192588Y0137828D01*
X0192876Y0137941D01*
X0193162Y0138061D01*
X0193444Y0138188D01*
X0193724Y0138322D01*
X0194000Y0138462D01*
X0194272Y0138610D01*
X0194541Y0138763D01*
X0194806Y0138924D01*
X0195067Y0139091D01*
X0195324Y0139264D01*
X0195576Y0139443D01*
X0195825Y0139629D01*
X0196068Y0139820D01*
X0196307Y0140018D01*
X0196540Y0140221D01*
X0196769Y0140430D01*
X0196993Y0140644D01*
X0197211Y0140864D01*
X0197424Y0141089D01*
X0197631Y0141319D01*
X0197833Y0141554D01*
X0198028Y0141794D01*
X0198218Y0142039D01*
X0198143Y0142096D01*
X0197955Y0141853D01*
X0197760Y0141614D01*
X0197560Y0141381D01*
X0197355Y0141153D01*
X0197143Y0140929D01*
X0196927Y0140711D01*
X0196705Y0140498D01*
X0196478Y0140291D01*
X0196246Y0140089D01*
X0196009Y0139893D01*
X0195767Y0139703D01*
X0195521Y0139519D01*
X0195270Y0139341D01*
X0195015Y0139169D01*
X0194756Y0139004D01*
X0194493Y0138844D01*
X0194226Y0138692D01*
X0193956Y0138545D01*
X0193682Y0138406D01*
X0193405Y0138273D01*
X0193124Y0138147D01*
X0192841Y0138028D01*
X0192554Y0137916D01*
X0192265Y0137811D01*
X0191974Y0137713D01*
X0191680Y0137622D01*
X0191384Y0137539D01*
X0191087Y0137462D01*
X0190787Y0137393D01*
X0190486Y0137332D01*
X0190183Y0137277D01*
X0189879Y0137231D01*
X0189574Y0137191D01*
X0189269Y0137159D01*
X0188962Y0137135D01*
X0188655Y0137118D01*
X0188348Y0137108D01*
X0188040Y0137106D01*
X0187733Y0137112D01*
X0187426Y0137125D01*
X0187119Y0137145D01*
X0186813Y0137174D01*
X0186507Y0137209D01*
X0186203Y0137252D01*
X0185900Y0137303D01*
X0185598Y0137360D01*
X0185297Y0137426D01*
X0184998Y0137498D01*
X0184702Y0137578D01*
X0184407Y0137665D01*
X0184114Y0137759D01*
X0183824Y0137861D01*
X0183536Y0137969D01*
X0183251Y0138084D01*
X0182969Y0138207D01*
X0182690Y0138336D01*
X0182414Y0138472D01*
X0182142Y0138615D01*
X0181873Y0138764D01*
X0181608Y0138920D01*
X0181347Y0139082D01*
X0181090Y0139251D01*
X0180837Y0139426D01*
X0180589Y0139607D01*
X0180345Y0139794D01*
X0180105Y0139987D01*
X0179871Y0140185D01*
X0179641Y0140390D01*
X0179416Y0140600D01*
X0179197Y0140815D01*
X0178983Y0141036D01*
X0178774Y0141261D01*
X0178571Y0141492D01*
X0178374Y0141728D01*
X0178182Y0141969D01*
X0177997Y0142214D01*
X0177817Y0142463D01*
X0177644Y0142717D01*
X0177477Y0142975D01*
X0177316Y0143237D01*
X0177162Y0143503D01*
X0177014Y0143773D01*
X0176873Y0144046D01*
X0176738Y0144323D01*
X0176611Y0144602D01*
X0176490Y0144885D01*
X0176376Y0145171D01*
X0176270Y0145459D01*
X0176170Y0145750D01*
X0176077Y0146043D01*
X0175992Y0146339D01*
X0175914Y0146636D01*
X0175843Y0146935D01*
X0175780Y0147236D01*
X0175724Y0147538D01*
X0175675Y0147842D01*
X0175634Y0148147D01*
X0175600Y0148452D01*
X0175574Y0148758D01*
X0175555Y0149065D01*
X0175544Y0149373D01*
X0175540Y0149680D01*
X0175544Y0149987D01*
X0175555Y0150295D01*
X0175574Y0150602D01*
X0175600Y0150908D01*
X0175634Y0151213D01*
X0175675Y0151518D01*
X0175724Y0151822D01*
X0175780Y0152124D01*
X0175843Y0152425D01*
X0175914Y0152724D01*
X0175992Y0153021D01*
X0176077Y0153317D01*
X0176170Y0153610D01*
X0176270Y0153901D01*
X0176376Y0154189D01*
X0176490Y0154475D01*
X0176611Y0154758D01*
X0176738Y0155037D01*
X0176873Y0155314D01*
X0177014Y0155587D01*
X0177162Y0155857D01*
X0177316Y0156123D01*
X0177477Y0156385D01*
X0177644Y0156643D01*
X0177817Y0156897D01*
X0177997Y0157146D01*
X0178182Y0157391D01*
X0178374Y0157632D01*
X0178571Y0157868D01*
X0178774Y0158099D01*
X0178983Y0158324D01*
X0179197Y0158545D01*
X0179416Y0158760D01*
X0179641Y0158970D01*
X0179871Y0159175D01*
X0180105Y0159373D01*
X0180345Y0159566D01*
X0180589Y0159753D01*
X0180837Y0159934D01*
X0181090Y0160109D01*
X0181347Y0160278D01*
X0181608Y0160440D01*
X0181873Y0160596D01*
X0182142Y0160745D01*
X0182414Y0160888D01*
X0182690Y0161024D01*
X0182969Y0161153D01*
X0183251Y0161276D01*
X0183536Y0161391D01*
X0183824Y0161499D01*
X0184114Y0161601D01*
X0184407Y0161695D01*
X0184702Y0161782D01*
X0184998Y0161862D01*
X0185297Y0161934D01*
X0185598Y0162000D01*
X0185900Y0162057D01*
X0186203Y0162108D01*
X0186507Y0162151D01*
X0186813Y0162186D01*
X0187119Y0162215D01*
X0187426Y0162235D01*
X0187733Y0162248D01*
X0188040Y0162254D01*
X0188348Y0162252D01*
X0188655Y0162242D01*
X0188962Y0162225D01*
X0189269Y0162201D01*
X0189574Y0162169D01*
X0189879Y0162129D01*
X0190183Y0162083D01*
X0190486Y0162028D01*
X0190787Y0161967D01*
X0191087Y0161898D01*
X0191384Y0161821D01*
X0191680Y0161738D01*
X0191974Y0161647D01*
X0192265Y0161549D01*
X0192554Y0161444D01*
X0192841Y0161332D01*
X0193124Y0161213D01*
X0193405Y0161087D01*
X0193682Y0160954D01*
X0193956Y0160815D01*
X0194226Y0160668D01*
X0194493Y0160516D01*
X0194756Y0160356D01*
X0195015Y0160191D01*
X0195270Y0160019D01*
X0195521Y0159841D01*
X0195767Y0159657D01*
X0196009Y0159467D01*
X0196246Y0159271D01*
X0196478Y0159069D01*
X0196705Y0158862D01*
X0196927Y0158649D01*
X0197143Y0158431D01*
X0197355Y0158207D01*
X0197560Y0157979D01*
X0197760Y0157746D01*
X0197955Y0157507D01*
X0198143Y0157264D01*
X0198068Y0157208D01*
X0197881Y0157449D01*
X0197688Y0157686D01*
X0197489Y0157917D01*
X0197285Y0158144D01*
X0197076Y0158366D01*
X0196861Y0158582D01*
X0196640Y0158793D01*
X0196415Y0158999D01*
X0196185Y0159199D01*
X0195949Y0159394D01*
X0195710Y0159582D01*
X0195465Y0159765D01*
X0195216Y0159942D01*
X0194963Y0160112D01*
X0194706Y0160277D01*
X0194445Y0160435D01*
X0194180Y0160586D01*
X0193912Y0160731D01*
X0193640Y0160870D01*
X0193365Y0161002D01*
X0193086Y0161127D01*
X0192805Y0161245D01*
X0192521Y0161356D01*
X0192234Y0161460D01*
X0191945Y0161558D01*
X0191653Y0161648D01*
X0191360Y0161731D01*
X0191064Y0161806D01*
X0190767Y0161875D01*
X0190468Y0161936D01*
X0190167Y0161990D01*
X0189866Y0162036D01*
X0189563Y0162076D01*
X0189260Y0162107D01*
X0188955Y0162132D01*
X0188651Y0162148D01*
X0188346Y0162158D01*
X0188041Y0162160D01*
X0187736Y0162154D01*
X0187431Y0162141D01*
X0187126Y0162121D01*
X0186822Y0162093D01*
X0186519Y0162058D01*
X0186217Y0162015D01*
X0185916Y0161965D01*
X0185616Y0161908D01*
X0185318Y0161843D01*
X0185022Y0161771D01*
X0184727Y0161692D01*
X0184434Y0161605D01*
X0184144Y0161512D01*
X0183856Y0161411D01*
X0183570Y0161303D01*
X0183287Y0161189D01*
X0183007Y0161067D01*
X0182730Y0160939D01*
X0182457Y0160804D01*
X0182187Y0160663D01*
X0181920Y0160514D01*
X0181657Y0160360D01*
X0181398Y0160199D01*
X0181142Y0160031D01*
X0180891Y0159858D01*
X0180645Y0159678D01*
X0180403Y0159492D01*
X0180165Y0159301D01*
X0179932Y0159104D01*
X0179704Y0158901D01*
X0179481Y0158692D01*
X0179263Y0158479D01*
X0179051Y0158260D01*
X0178844Y0158036D01*
X0178642Y0157806D01*
X0178446Y0157572D01*
X0178256Y0157334D01*
X0178072Y0157090D01*
X0177894Y0156843D01*
X0177722Y0156591D01*
X0177556Y0156334D01*
X0177397Y0156074D01*
X0177243Y0155810D01*
X0177097Y0155543D01*
X0176957Y0155272D01*
X0176823Y0154997D01*
X0176697Y0154720D01*
X0176577Y0154439D01*
X0176464Y0154155D01*
X0176358Y0153869D01*
X0176259Y0153581D01*
X0176167Y0153290D01*
X0176083Y0152996D01*
X0176005Y0152701D01*
X0175935Y0152404D01*
X0175872Y0152106D01*
X0175816Y0151806D01*
X0175768Y0151504D01*
X0175727Y0151202D01*
X0175694Y0150899D01*
X0175668Y0150595D01*
X0175649Y0150290D01*
X0175638Y0149985D01*
X0175634Y0149680D01*
X0175638Y0149375D01*
X0175649Y0149070D01*
X0175668Y0148765D01*
X0175694Y0148461D01*
X0175727Y0148158D01*
X0175768Y0147856D01*
X0175816Y0147554D01*
X0175872Y0147254D01*
X0175935Y0146956D01*
X0176005Y0146659D01*
X0176083Y0146364D01*
X0176167Y0146070D01*
X0176259Y0145779D01*
X0176358Y0145491D01*
X0176464Y0145205D01*
X0176577Y0144921D01*
X0176697Y0144640D01*
X0176823Y0144363D01*
X0176957Y0144088D01*
X0177097Y0143817D01*
X0177243Y0143550D01*
X0177397Y0143286D01*
X0177556Y0143026D01*
X0177722Y0142769D01*
X0177894Y0142517D01*
X0178072Y0142270D01*
X0178256Y0142026D01*
X0178446Y0141788D01*
X0178642Y0141554D01*
X0178844Y0141324D01*
X0179051Y0141100D01*
X0179263Y0140881D01*
X0179481Y0140668D01*
X0179704Y0140459D01*
X0179932Y0140256D01*
X0180165Y0140059D01*
X0180403Y0139868D01*
X0180645Y0139682D01*
X0180891Y0139502D01*
X0181142Y0139329D01*
X0181398Y0139161D01*
X0181657Y0139000D01*
X0181920Y0138846D01*
X0182187Y0138697D01*
X0182457Y0138556D01*
X0182730Y0138421D01*
X0183007Y0138293D01*
X0183287Y0138171D01*
X0183570Y0138057D01*
X0183856Y0137949D01*
X0184144Y0137848D01*
X0184434Y0137755D01*
X0184727Y0137668D01*
X0185022Y0137589D01*
X0185318Y0137517D01*
X0185616Y0137452D01*
X0185916Y0137395D01*
X0186217Y0137345D01*
X0186519Y0137302D01*
X0186822Y0137267D01*
X0187126Y0137239D01*
X0187431Y0137219D01*
X0187736Y0137206D01*
X0188041Y0137200D01*
X0188346Y0137202D01*
X0188651Y0137212D01*
X0188955Y0137228D01*
X0189260Y0137253D01*
X0189563Y0137284D01*
X0189866Y0137324D01*
X0190167Y0137370D01*
X0190468Y0137424D01*
X0190767Y0137485D01*
X0191064Y0137554D01*
X0191360Y0137629D01*
X0191653Y0137712D01*
X0191945Y0137802D01*
X0192234Y0137900D01*
X0192521Y0138004D01*
X0192805Y0138115D01*
X0193086Y0138233D01*
X0193365Y0138358D01*
X0193640Y0138490D01*
X0193912Y0138629D01*
X0194180Y0138774D01*
X0194445Y0138925D01*
X0194706Y0139083D01*
X0194963Y0139248D01*
X0195216Y0139418D01*
X0195465Y0139595D01*
X0195710Y0139778D01*
X0195949Y0139966D01*
X0196185Y0140161D01*
X0196415Y0140361D01*
X0196640Y0140567D01*
X0196861Y0140778D01*
X0197076Y0140994D01*
X0197285Y0141216D01*
X0197489Y0141443D01*
X0197688Y0141674D01*
X0197881Y0141911D01*
X0198068Y0142152D01*
X0197993Y0142208D01*
X0197807Y0141969D01*
X0197616Y0141734D01*
X0197419Y0141505D01*
X0197216Y0141280D01*
X0197008Y0141059D01*
X0196794Y0140845D01*
X0196576Y0140635D01*
X0196352Y0140431D01*
X0196124Y0140232D01*
X0195890Y0140039D01*
X0195652Y0139852D01*
X0195410Y0139671D01*
X0195163Y0139495D01*
X0194912Y0139326D01*
X0194656Y0139163D01*
X0194397Y0139006D01*
X0194134Y0138856D01*
X0193868Y0138712D01*
X0193598Y0138574D01*
X0193325Y0138443D01*
X0193049Y0138319D01*
X0192769Y0138202D01*
X0192487Y0138092D01*
X0192203Y0137988D01*
X0191916Y0137892D01*
X0191626Y0137802D01*
X0191335Y0137720D01*
X0191042Y0137645D01*
X0190746Y0137577D01*
X0190450Y0137516D01*
X0190152Y0137463D01*
X0189852Y0137417D01*
X0189552Y0137378D01*
X0189251Y0137346D01*
X0188949Y0137322D01*
X0188646Y0137305D01*
X0188344Y0137296D01*
X0188041Y0137294D01*
X0187738Y0137300D01*
X0187436Y0137313D01*
X0187133Y0137333D01*
X0186832Y0137361D01*
X0186531Y0137396D01*
X0186231Y0137438D01*
X0185932Y0137488D01*
X0185635Y0137545D01*
X0185339Y0137609D01*
X0185045Y0137680D01*
X0184752Y0137759D01*
X0184462Y0137845D01*
X0184173Y0137938D01*
X0183888Y0138037D01*
X0183604Y0138144D01*
X0183324Y0138258D01*
X0183046Y0138378D01*
X0182771Y0138506D01*
X0182499Y0138640D01*
X0182231Y0138780D01*
X0181966Y0138927D01*
X0181705Y0139081D01*
X0181448Y0139241D01*
X0181195Y0139407D01*
X0180946Y0139579D01*
X0180701Y0139757D01*
X0180460Y0139942D01*
X0180225Y0140132D01*
X0179994Y0140327D01*
X0179767Y0140529D01*
X0179546Y0140735D01*
X0179330Y0140948D01*
X0179119Y0141165D01*
X0178914Y0141387D01*
X0178714Y0141615D01*
X0178519Y0141847D01*
X0178331Y0142084D01*
X0178148Y0142326D01*
X0177971Y0142571D01*
X0177800Y0142822D01*
X0177636Y0143076D01*
X0177477Y0143334D01*
X0177325Y0143596D01*
X0177180Y0143861D01*
X0177041Y0144130D01*
X0176908Y0144403D01*
X0176783Y0144678D01*
X0176664Y0144957D01*
X0176552Y0145238D01*
X0176447Y0145522D01*
X0176348Y0145809D01*
X0176257Y0146098D01*
X0176173Y0146389D01*
X0176096Y0146682D01*
X0176027Y0146976D01*
X0175964Y0147273D01*
X0175909Y0147570D01*
X0175861Y0147869D01*
X0175820Y0148169D01*
X0175787Y0148471D01*
X0175761Y0148772D01*
X0175743Y0149075D01*
X0175732Y0149377D01*
X0175728Y0149680D01*
X0175732Y0149983D01*
X0175743Y0150285D01*
X0175761Y0150588D01*
X0175787Y0150889D01*
X0175820Y0151191D01*
X0175861Y0151491D01*
X0175909Y0151790D01*
X0175964Y0152087D01*
X0176027Y0152384D01*
X0176096Y0152678D01*
X0176173Y0152971D01*
X0176257Y0153262D01*
X0176348Y0153551D01*
X0176447Y0153838D01*
X0176552Y0154122D01*
X0176664Y0154403D01*
X0176783Y0154682D01*
X0176908Y0154957D01*
X0177041Y0155230D01*
X0177180Y0155499D01*
X0177325Y0155764D01*
X0177477Y0156026D01*
X0177636Y0156284D01*
X0177800Y0156538D01*
X0177971Y0156789D01*
X0178148Y0157034D01*
X0178331Y0157276D01*
X0178519Y0157513D01*
X0178714Y0157745D01*
X0178914Y0157973D01*
X0179119Y0158195D01*
X0179330Y0158412D01*
X0179546Y0158625D01*
X0179767Y0158831D01*
X0179994Y0159033D01*
X0180225Y0159228D01*
X0180460Y0159418D01*
X0180701Y0159603D01*
X0180946Y0159781D01*
X0181195Y0159953D01*
X0181448Y0160119D01*
X0181705Y0160279D01*
X0181966Y0160433D01*
X0182231Y0160580D01*
X0182499Y0160720D01*
X0182771Y0160854D01*
X0183046Y0160982D01*
X0183324Y0161102D01*
X0183604Y0161216D01*
X0183888Y0161323D01*
X0184173Y0161422D01*
X0184462Y0161515D01*
X0184752Y0161601D01*
X0185045Y0161680D01*
X0185339Y0161751D01*
X0185635Y0161815D01*
X0185932Y0161872D01*
X0186231Y0161922D01*
X0186531Y0161964D01*
X0186832Y0161999D01*
X0187133Y0162027D01*
X0187436Y0162047D01*
X0187738Y0162060D01*
X0188041Y0162066D01*
X0188344Y0162064D01*
X0188646Y0162055D01*
X0188949Y0162038D01*
X0189251Y0162014D01*
X0189552Y0161982D01*
X0189852Y0161943D01*
X0190152Y0161897D01*
X0190450Y0161844D01*
X0190746Y0161783D01*
X0191042Y0161715D01*
X0191335Y0161640D01*
X0191626Y0161558D01*
X0191916Y0161468D01*
X0192203Y0161372D01*
X0192487Y0161268D01*
X0192769Y0161158D01*
X0193049Y0161041D01*
X0193325Y0160917D01*
X0193598Y0160786D01*
X0193868Y0160648D01*
X0194134Y0160504D01*
X0194397Y0160354D01*
X0194656Y0160197D01*
X0194912Y0160034D01*
X0195163Y0159865D01*
X0195410Y0159689D01*
X0195652Y0159508D01*
X0195890Y0159321D01*
X0196124Y0159128D01*
X0196352Y0158929D01*
X0196576Y0158725D01*
X0196794Y0158515D01*
X0197008Y0158301D01*
X0197216Y0158080D01*
X0197419Y0157855D01*
X0197616Y0157626D01*
X0197807Y0157391D01*
X0197993Y0157152D01*
X0197918Y0157095D01*
X0197733Y0157333D01*
X0197543Y0157565D01*
X0197348Y0157794D01*
X0197147Y0158017D01*
X0196940Y0158235D01*
X0196728Y0158449D01*
X0196511Y0158657D01*
X0196289Y0158859D01*
X0196062Y0159056D01*
X0195831Y0159248D01*
X0195595Y0159434D01*
X0195354Y0159614D01*
X0195109Y0159788D01*
X0194860Y0159956D01*
X0194606Y0160118D01*
X0194349Y0160273D01*
X0194088Y0160422D01*
X0193824Y0160565D01*
X0193556Y0160702D01*
X0193285Y0160831D01*
X0193011Y0160954D01*
X0192734Y0161071D01*
X0192454Y0161180D01*
X0192171Y0161283D01*
X0191887Y0161379D01*
X0191599Y0161467D01*
X0191310Y0161549D01*
X0191019Y0161624D01*
X0190726Y0161691D01*
X0190432Y0161752D01*
X0190136Y0161805D01*
X0189839Y0161850D01*
X0189541Y0161889D01*
X0189242Y0161920D01*
X0188942Y0161944D01*
X0188642Y0161961D01*
X0188342Y0161970D01*
X0188041Y0161972D01*
X0187741Y0161966D01*
X0187440Y0161954D01*
X0187141Y0161933D01*
X0186841Y0161906D01*
X0186543Y0161871D01*
X0186245Y0161829D01*
X0185949Y0161780D01*
X0185654Y0161723D01*
X0185360Y0161659D01*
X0185068Y0161589D01*
X0184778Y0161511D01*
X0184489Y0161425D01*
X0184203Y0161333D01*
X0183919Y0161234D01*
X0183638Y0161128D01*
X0183360Y0161015D01*
X0183084Y0160896D01*
X0182811Y0160769D01*
X0182542Y0160636D01*
X0182276Y0160497D01*
X0182013Y0160351D01*
X0181754Y0160199D01*
X0181498Y0160040D01*
X0181247Y0159875D01*
X0181000Y0159704D01*
X0180757Y0159527D01*
X0180518Y0159344D01*
X0180284Y0159156D01*
X0180055Y0158962D01*
X0179831Y0158762D01*
X0179611Y0158557D01*
X0179397Y0158346D01*
X0179187Y0158130D01*
X0178983Y0157910D01*
X0178785Y0157684D01*
X0178592Y0157453D01*
X0178405Y0157218D01*
X0178223Y0156979D01*
X0178048Y0156735D01*
X0177878Y0156486D01*
X0177715Y0156234D01*
X0177558Y0155978D01*
X0177407Y0155718D01*
X0177263Y0155454D01*
X0177125Y0155187D01*
X0176993Y0154917D01*
X0176869Y0154644D01*
X0176751Y0154367D01*
X0176640Y0154088D01*
X0176535Y0153806D01*
X0176438Y0153522D01*
X0176347Y0153235D01*
X0176264Y0152946D01*
X0176188Y0152656D01*
X0176118Y0152363D01*
X0176056Y0152069D01*
X0176002Y0151774D01*
X0175954Y0151477D01*
X0175914Y0151179D01*
X0175881Y0150880D01*
X0175855Y0150581D01*
X0175837Y0150281D01*
X0175826Y0149981D01*
X0175822Y0149680D01*
X0175826Y0149379D01*
X0175837Y0149079D01*
X0175855Y0148779D01*
X0175881Y0148480D01*
X0175914Y0148181D01*
X0175954Y0147883D01*
X0176002Y0147586D01*
X0176056Y0147291D01*
X0176118Y0146997D01*
X0176188Y0146704D01*
X0176264Y0146414D01*
X0176347Y0146125D01*
X0176438Y0145838D01*
X0176535Y0145554D01*
X0176640Y0145272D01*
X0176751Y0144993D01*
X0176869Y0144716D01*
X0176993Y0144443D01*
X0177125Y0144173D01*
X0177263Y0143906D01*
X0177407Y0143642D01*
X0177558Y0143382D01*
X0177715Y0143126D01*
X0177878Y0142874D01*
X0178048Y0142625D01*
X0178223Y0142381D01*
X0178405Y0142142D01*
X0178592Y0141907D01*
X0178785Y0141676D01*
X0178983Y0141450D01*
X0179187Y0141230D01*
X0179397Y0141014D01*
X0179611Y0140803D01*
X0179831Y0140598D01*
X0180055Y0140398D01*
X0180284Y0140204D01*
X0180518Y0140016D01*
X0180757Y0139833D01*
X0181000Y0139656D01*
X0181247Y0139485D01*
X0181498Y0139320D01*
X0181754Y0139161D01*
X0182013Y0139009D01*
X0182276Y0138863D01*
X0182542Y0138724D01*
X0182811Y0138591D01*
X0183084Y0138464D01*
X0183360Y0138345D01*
X0183638Y0138232D01*
X0183919Y0138126D01*
X0184203Y0138027D01*
X0184489Y0137935D01*
X0184778Y0137849D01*
X0185068Y0137771D01*
X0185360Y0137701D01*
X0185654Y0137637D01*
X0185949Y0137580D01*
X0186245Y0137531D01*
X0186543Y0137489D01*
X0186841Y0137454D01*
X0187141Y0137427D01*
X0187440Y0137406D01*
X0187741Y0137394D01*
X0188041Y0137388D01*
X0188342Y0137390D01*
X0188642Y0137399D01*
X0188942Y0137416D01*
X0189242Y0137440D01*
X0189541Y0137471D01*
X0189839Y0137510D01*
X0190136Y0137555D01*
X0190432Y0137608D01*
X0190726Y0137669D01*
X0191019Y0137736D01*
X0191310Y0137811D01*
X0191599Y0137893D01*
X0191887Y0137981D01*
X0192171Y0138077D01*
X0192454Y0138180D01*
X0192734Y0138289D01*
X0193011Y0138406D01*
X0193285Y0138529D01*
X0193556Y0138658D01*
X0193824Y0138795D01*
X0194088Y0138938D01*
X0194349Y0139087D01*
X0194606Y0139242D01*
X0194860Y0139404D01*
X0195109Y0139572D01*
X0195354Y0139746D01*
X0195595Y0139926D01*
X0195831Y0140112D01*
X0196062Y0140304D01*
X0196289Y0140501D01*
X0196511Y0140703D01*
X0196728Y0140911D01*
X0196940Y0141125D01*
X0197147Y0141343D01*
X0197348Y0141566D01*
X0197543Y0141795D01*
X0197733Y0142027D01*
X0197918Y0142265D01*
X0197842Y0142321D01*
X0197660Y0142086D01*
X0197471Y0141855D01*
X0197277Y0141628D01*
X0197077Y0141406D01*
X0196872Y0141190D01*
X0196662Y0140978D01*
X0196447Y0140772D01*
X0196227Y0140571D01*
X0196001Y0140375D01*
X0195772Y0140185D01*
X0195537Y0140001D01*
X0195298Y0139822D01*
X0195055Y0139649D01*
X0194808Y0139483D01*
X0194556Y0139322D01*
X0194301Y0139168D01*
X0194042Y0139020D01*
X0193780Y0138878D01*
X0193514Y0138743D01*
X0193245Y0138614D01*
X0192973Y0138492D01*
X0192698Y0138376D01*
X0192420Y0138267D01*
X0192140Y0138166D01*
X0191857Y0138071D01*
X0191572Y0137983D01*
X0191285Y0137902D01*
X0190997Y0137827D01*
X0190706Y0137761D01*
X0190414Y0137701D01*
X0190120Y0137648D01*
X0189825Y0137603D01*
X0189530Y0137564D01*
X0189233Y0137533D01*
X0188936Y0137510D01*
X0188638Y0137493D01*
X0188340Y0137484D01*
X0188042Y0137482D01*
X0187743Y0137488D01*
X0187445Y0137500D01*
X0187148Y0137520D01*
X0186851Y0137548D01*
X0186555Y0137582D01*
X0186259Y0137624D01*
X0185965Y0137673D01*
X0185672Y0137729D01*
X0185381Y0137792D01*
X0185091Y0137863D01*
X0184803Y0137940D01*
X0184517Y0138024D01*
X0184233Y0138116D01*
X0183951Y0138214D01*
X0183672Y0138319D01*
X0183396Y0138431D01*
X0183122Y0138550D01*
X0182852Y0138675D01*
X0182584Y0138807D01*
X0182320Y0138946D01*
X0182059Y0139091D01*
X0181802Y0139242D01*
X0181549Y0139399D01*
X0181300Y0139563D01*
X0181054Y0139733D01*
X0180813Y0139908D01*
X0180576Y0140090D01*
X0180344Y0140277D01*
X0180117Y0140469D01*
X0179894Y0140668D01*
X0179676Y0140871D01*
X0179463Y0141080D01*
X0179255Y0141294D01*
X0179053Y0141514D01*
X0178856Y0141737D01*
X0178665Y0141966D01*
X0178479Y0142200D01*
X0178299Y0142437D01*
X0178125Y0142679D01*
X0177957Y0142926D01*
X0177795Y0143176D01*
X0177639Y0143430D01*
X0177489Y0143688D01*
X0177346Y0143950D01*
X0177209Y0144215D01*
X0177078Y0144483D01*
X0176955Y0144754D01*
X0176838Y0145029D01*
X0176727Y0145306D01*
X0176624Y0145586D01*
X0176527Y0145868D01*
X0176437Y0146152D01*
X0176355Y0146439D01*
X0176279Y0146727D01*
X0176210Y0147017D01*
X0176149Y0147309D01*
X0176094Y0147602D01*
X0176047Y0147897D01*
X0176007Y0148192D01*
X0175974Y0148489D01*
X0175949Y0148786D01*
X0175931Y0149084D01*
X0175920Y0149382D01*
X0175916Y0149680D01*
X0175920Y0149978D01*
X0175931Y0150276D01*
X0175949Y0150574D01*
X0175974Y0150871D01*
X0176007Y0151168D01*
X0176047Y0151463D01*
X0176094Y0151758D01*
X0176149Y0152051D01*
X0176210Y0152343D01*
X0176279Y0152633D01*
X0176355Y0152921D01*
X0176437Y0153208D01*
X0176527Y0153492D01*
X0176624Y0153774D01*
X0176727Y0154054D01*
X0176838Y0154331D01*
X0176955Y0154606D01*
X0177078Y0154877D01*
X0177209Y0155145D01*
X0177346Y0155410D01*
X0177489Y0155672D01*
X0177639Y0155930D01*
X0177795Y0156184D01*
X0177957Y0156434D01*
X0178125Y0156681D01*
X0178299Y0156923D01*
X0178479Y0157160D01*
X0178665Y0157394D01*
X0178856Y0157623D01*
X0179053Y0157846D01*
X0179255Y0158066D01*
X0179463Y0158280D01*
X0179676Y0158489D01*
X0179894Y0158692D01*
X0180117Y0158891D01*
X0180344Y0159083D01*
X0180576Y0159270D01*
X0180813Y0159452D01*
X0181054Y0159627D01*
X0181300Y0159797D01*
X0181549Y0159961D01*
X0181802Y0160118D01*
X0182059Y0160269D01*
X0182320Y0160414D01*
X0182584Y0160553D01*
X0182852Y0160685D01*
X0183122Y0160810D01*
X0183396Y0160929D01*
X0183672Y0161041D01*
X0183951Y0161146D01*
X0184233Y0161244D01*
X0184517Y0161336D01*
X0184803Y0161420D01*
X0185091Y0161497D01*
X0185381Y0161568D01*
X0185672Y0161631D01*
X0185965Y0161687D01*
X0186259Y0161736D01*
X0186555Y0161778D01*
X0186851Y0161812D01*
X0187148Y0161840D01*
X0187445Y0161860D01*
X0187743Y0161872D01*
X0188042Y0161878D01*
X0188340Y0161876D01*
X0188638Y0161867D01*
X0188936Y0161850D01*
X0189233Y0161827D01*
X0189530Y0161796D01*
X0189825Y0161757D01*
X0190120Y0161712D01*
X0190414Y0161659D01*
X0190706Y0161599D01*
X0190997Y0161533D01*
X0191285Y0161458D01*
X0191572Y0161377D01*
X0191857Y0161289D01*
X0192140Y0161194D01*
X0192420Y0161093D01*
X0192698Y0160984D01*
X0192973Y0160868D01*
X0193245Y0160746D01*
X0193514Y0160617D01*
X0193780Y0160482D01*
X0194042Y0160340D01*
X0194301Y0160192D01*
X0194556Y0160038D01*
X0194808Y0159877D01*
X0195055Y0159711D01*
X0195298Y0159538D01*
X0195537Y0159359D01*
X0195772Y0159175D01*
X0196001Y0158985D01*
X0196227Y0158789D01*
X0196447Y0158588D01*
X0196662Y0158382D01*
X0196872Y0158170D01*
X0197077Y0157954D01*
X0197277Y0157732D01*
X0197471Y0157505D01*
X0197660Y0157274D01*
X0197842Y0157039D01*
X0197767Y0156982D01*
X0197586Y0157216D01*
X0197399Y0157445D01*
X0197206Y0157670D01*
X0197008Y0157890D01*
X0196805Y0158105D01*
X0196596Y0158315D01*
X0196382Y0158520D01*
X0196164Y0158719D01*
X0195940Y0158913D01*
X0195712Y0159102D01*
X0195480Y0159285D01*
X0195243Y0159462D01*
X0195001Y0159633D01*
X0194756Y0159799D01*
X0194507Y0159958D01*
X0194253Y0160111D01*
X0193997Y0160258D01*
X0193736Y0160399D01*
X0193472Y0160533D01*
X0193205Y0160661D01*
X0192935Y0160782D01*
X0192663Y0160897D01*
X0192387Y0161005D01*
X0192109Y0161106D01*
X0191828Y0161200D01*
X0191546Y0161287D01*
X0191261Y0161368D01*
X0190974Y0161441D01*
X0190686Y0161508D01*
X0190396Y0161567D01*
X0190104Y0161619D01*
X0189812Y0161664D01*
X0189518Y0161702D01*
X0189224Y0161733D01*
X0188929Y0161757D01*
X0188634Y0161773D01*
X0188338Y0161782D01*
X0188042Y0161784D01*
X0187746Y0161778D01*
X0187450Y0161766D01*
X0187155Y0161746D01*
X0186860Y0161719D01*
X0186566Y0161685D01*
X0186273Y0161643D01*
X0185981Y0161595D01*
X0185691Y0161539D01*
X0185402Y0161476D01*
X0185114Y0161406D01*
X0184828Y0161329D01*
X0184544Y0161246D01*
X0184263Y0161155D01*
X0183983Y0161057D01*
X0183706Y0160953D01*
X0183432Y0160842D01*
X0183161Y0160724D01*
X0182892Y0160600D01*
X0182627Y0160469D01*
X0182365Y0160331D01*
X0182106Y0160188D01*
X0181851Y0160038D01*
X0181599Y0159881D01*
X0181352Y0159719D01*
X0181109Y0159551D01*
X0180869Y0159376D01*
X0180634Y0159196D01*
X0180404Y0159011D01*
X0180178Y0158819D01*
X0179957Y0158623D01*
X0179741Y0158421D01*
X0179530Y0158213D01*
X0179324Y0158001D01*
X0179123Y0157783D01*
X0178927Y0157561D01*
X0178737Y0157334D01*
X0178553Y0157103D01*
X0178375Y0156867D01*
X0178202Y0156627D01*
X0178035Y0156382D01*
X0177874Y0156134D01*
X0177719Y0155881D01*
X0177571Y0155625D01*
X0177429Y0155366D01*
X0177293Y0155103D01*
X0177163Y0154837D01*
X0177041Y0154568D01*
X0176924Y0154295D01*
X0176815Y0154020D01*
X0176712Y0153743D01*
X0176616Y0153463D01*
X0176527Y0153181D01*
X0176445Y0152896D01*
X0176370Y0152610D01*
X0176302Y0152322D01*
X0176241Y0152033D01*
X0176187Y0151742D01*
X0176140Y0151449D01*
X0176100Y0151156D01*
X0176068Y0150862D01*
X0176043Y0150567D01*
X0176024Y0150272D01*
X0176014Y0149976D01*
X0176010Y0149680D01*
X0176014Y0149384D01*
X0176024Y0149088D01*
X0176043Y0148793D01*
X0176068Y0148498D01*
X0176100Y0148204D01*
X0176140Y0147911D01*
X0176187Y0147618D01*
X0176241Y0147327D01*
X0176302Y0147038D01*
X0176370Y0146750D01*
X0176445Y0146464D01*
X0176527Y0146179D01*
X0176616Y0145897D01*
X0176712Y0145617D01*
X0176815Y0145340D01*
X0176924Y0145065D01*
X0177041Y0144792D01*
X0177163Y0144523D01*
X0177293Y0144257D01*
X0177429Y0143994D01*
X0177571Y0143735D01*
X0177719Y0143479D01*
X0177874Y0143226D01*
X0178035Y0142978D01*
X0178202Y0142733D01*
X0178375Y0142493D01*
X0178553Y0142257D01*
X0178737Y0142026D01*
X0178927Y0141799D01*
X0179123Y0141577D01*
X0179324Y0141359D01*
X0179530Y0141147D01*
X0179741Y0140939D01*
X0179957Y0140737D01*
X0180178Y0140541D01*
X0180404Y0140349D01*
X0180634Y0140164D01*
X0180869Y0139984D01*
X0181109Y0139809D01*
X0181352Y0139641D01*
X0181599Y0139479D01*
X0181851Y0139322D01*
X0182106Y0139172D01*
X0182365Y0139029D01*
X0182627Y0138891D01*
X0182892Y0138760D01*
X0183161Y0138636D01*
X0183432Y0138518D01*
X0183706Y0138407D01*
X0183983Y0138303D01*
X0184263Y0138205D01*
X0184544Y0138114D01*
X0184828Y0138031D01*
X0185114Y0137954D01*
X0185402Y0137884D01*
X0185691Y0137821D01*
X0185981Y0137765D01*
X0186273Y0137717D01*
X0186566Y0137675D01*
X0186860Y0137641D01*
X0187155Y0137614D01*
X0187450Y0137594D01*
X0187746Y0137582D01*
X0188042Y0137576D01*
X0188338Y0137578D01*
X0188634Y0137587D01*
X0188929Y0137603D01*
X0189224Y0137627D01*
X0189518Y0137658D01*
X0189812Y0137696D01*
X0190104Y0137741D01*
X0190396Y0137793D01*
X0190686Y0137852D01*
X0190974Y0137919D01*
X0191261Y0137992D01*
X0191546Y0138073D01*
X0191828Y0138160D01*
X0192109Y0138254D01*
X0192387Y0138355D01*
X0192663Y0138463D01*
X0192935Y0138578D01*
X0193205Y0138699D01*
X0193472Y0138827D01*
X0193736Y0138961D01*
X0193997Y0139102D01*
X0194253Y0139249D01*
X0194507Y0139402D01*
X0194756Y0139561D01*
X0195001Y0139727D01*
X0195243Y0139898D01*
X0195480Y0140075D01*
X0195712Y0140258D01*
X0195940Y0140447D01*
X0196164Y0140641D01*
X0196382Y0140840D01*
X0196596Y0141045D01*
X0196805Y0141255D01*
X0197008Y0141470D01*
X0197206Y0141690D01*
X0197399Y0141915D01*
X0197586Y0142144D01*
X0197767Y0142378D01*
X0198803Y0126574D02*
X0198083Y0126034D01*
X0198084Y0126035D02*
X0197903Y0126268D01*
X0197717Y0126496D01*
X0197525Y0126720D01*
X0197328Y0126939D01*
X0197126Y0127153D01*
X0196918Y0127362D01*
X0196705Y0127565D01*
X0196488Y0127764D01*
X0196265Y0127957D01*
X0196038Y0128145D01*
X0195807Y0128327D01*
X0195571Y0128504D01*
X0195330Y0128674D01*
X0195086Y0128839D01*
X0194838Y0128997D01*
X0194586Y0129150D01*
X0194330Y0129296D01*
X0194071Y0129436D01*
X0193808Y0129570D01*
X0193543Y0129697D01*
X0193274Y0129818D01*
X0193002Y0129932D01*
X0192728Y0130039D01*
X0192451Y0130140D01*
X0192172Y0130234D01*
X0191890Y0130321D01*
X0191607Y0130401D01*
X0191321Y0130474D01*
X0191034Y0130540D01*
X0190745Y0130599D01*
X0190455Y0130651D01*
X0190164Y0130696D01*
X0189872Y0130734D01*
X0189579Y0130764D01*
X0189285Y0130788D01*
X0188991Y0130804D01*
X0188697Y0130813D01*
X0188402Y0130815D01*
X0188107Y0130809D01*
X0187813Y0130797D01*
X0187519Y0130777D01*
X0187226Y0130750D01*
X0186933Y0130716D01*
X0186641Y0130675D01*
X0186351Y0130626D01*
X0186061Y0130571D01*
X0185774Y0130509D01*
X0185487Y0130439D01*
X0185203Y0130362D01*
X0184920Y0130279D01*
X0184640Y0130189D01*
X0184362Y0130092D01*
X0184086Y0129988D01*
X0183813Y0129877D01*
X0183543Y0129760D01*
X0183275Y0129636D01*
X0183011Y0129506D01*
X0182750Y0129369D01*
X0182493Y0129226D01*
X0182239Y0129076D01*
X0181988Y0128921D01*
X0181742Y0128759D01*
X0181500Y0128592D01*
X0181262Y0128418D01*
X0181028Y0128239D01*
X0180798Y0128054D01*
X0180574Y0127864D01*
X0180353Y0127668D01*
X0180138Y0127467D01*
X0179928Y0127260D01*
X0179723Y0127049D01*
X0179523Y0126832D01*
X0179328Y0126611D01*
X0179139Y0126385D01*
X0178956Y0126155D01*
X0178778Y0125920D01*
X0178606Y0125680D01*
X0178440Y0125437D01*
X0178280Y0125190D01*
X0178126Y0124939D01*
X0177978Y0124684D01*
X0177836Y0124425D01*
X0177701Y0124164D01*
X0177572Y0123899D01*
X0177450Y0123631D01*
X0177334Y0123360D01*
X0177225Y0123086D01*
X0177123Y0122810D01*
X0177028Y0122531D01*
X0176939Y0122250D01*
X0176857Y0121967D01*
X0176782Y0121682D01*
X0176715Y0121395D01*
X0176654Y0121107D01*
X0176600Y0120817D01*
X0176553Y0120526D01*
X0176514Y0120234D01*
X0176482Y0119942D01*
X0176456Y0119648D01*
X0176438Y0119354D01*
X0176428Y0119060D01*
X0176424Y0118765D01*
X0176428Y0118470D01*
X0176438Y0118176D01*
X0176456Y0117882D01*
X0176482Y0117588D01*
X0176514Y0117296D01*
X0176553Y0117004D01*
X0176600Y0116713D01*
X0176654Y0116423D01*
X0176715Y0116135D01*
X0176782Y0115848D01*
X0176857Y0115563D01*
X0176939Y0115280D01*
X0177028Y0114999D01*
X0177123Y0114720D01*
X0177225Y0114444D01*
X0177334Y0114170D01*
X0177450Y0113899D01*
X0177572Y0113631D01*
X0177701Y0113366D01*
X0177836Y0113105D01*
X0177978Y0112846D01*
X0178126Y0112591D01*
X0178280Y0112340D01*
X0178440Y0112093D01*
X0178606Y0111850D01*
X0178778Y0111610D01*
X0178956Y0111375D01*
X0179139Y0111145D01*
X0179328Y0110919D01*
X0179523Y0110698D01*
X0179723Y0110481D01*
X0179928Y0110270D01*
X0180138Y0110063D01*
X0180353Y0109862D01*
X0180574Y0109666D01*
X0180798Y0109476D01*
X0181028Y0109291D01*
X0181262Y0109112D01*
X0181500Y0108938D01*
X0181742Y0108771D01*
X0181988Y0108609D01*
X0182239Y0108454D01*
X0182493Y0108304D01*
X0182750Y0108161D01*
X0183011Y0108024D01*
X0183275Y0107894D01*
X0183543Y0107770D01*
X0183813Y0107653D01*
X0184086Y0107542D01*
X0184362Y0107438D01*
X0184640Y0107341D01*
X0184920Y0107251D01*
X0185203Y0107168D01*
X0185487Y0107091D01*
X0185774Y0107021D01*
X0186061Y0106959D01*
X0186351Y0106904D01*
X0186641Y0106855D01*
X0186933Y0106814D01*
X0187226Y0106780D01*
X0187519Y0106753D01*
X0187813Y0106733D01*
X0188107Y0106721D01*
X0188402Y0106715D01*
X0188697Y0106717D01*
X0188991Y0106726D01*
X0189285Y0106742D01*
X0189579Y0106766D01*
X0189872Y0106796D01*
X0190164Y0106834D01*
X0190455Y0106879D01*
X0190745Y0106931D01*
X0191034Y0106990D01*
X0191321Y0107056D01*
X0191607Y0107129D01*
X0191890Y0107209D01*
X0192172Y0107296D01*
X0192451Y0107390D01*
X0192728Y0107491D01*
X0193002Y0107598D01*
X0193274Y0107712D01*
X0193543Y0107833D01*
X0193808Y0107960D01*
X0194071Y0108094D01*
X0194330Y0108234D01*
X0194586Y0108380D01*
X0194838Y0108533D01*
X0195086Y0108691D01*
X0195330Y0108856D01*
X0195571Y0109026D01*
X0195807Y0109203D01*
X0196038Y0109385D01*
X0196265Y0109573D01*
X0196488Y0109766D01*
X0196705Y0109965D01*
X0196918Y0110168D01*
X0197126Y0110377D01*
X0197328Y0110591D01*
X0197525Y0110810D01*
X0197717Y0111034D01*
X0197903Y0111262D01*
X0198084Y0111495D01*
X0198803Y0110956D01*
X0198804Y0110955D01*
X0198610Y0110705D01*
X0198410Y0110459D01*
X0198204Y0110219D01*
X0197992Y0109984D01*
X0197774Y0109754D01*
X0197551Y0109529D01*
X0197323Y0109310D01*
X0197089Y0109096D01*
X0196850Y0108888D01*
X0196606Y0108686D01*
X0196357Y0108491D01*
X0196103Y0108301D01*
X0195845Y0108118D01*
X0195583Y0107941D01*
X0195316Y0107770D01*
X0195045Y0107606D01*
X0194770Y0107449D01*
X0194492Y0107298D01*
X0194209Y0107154D01*
X0193924Y0107018D01*
X0193635Y0106888D01*
X0193343Y0106765D01*
X0193048Y0106650D01*
X0192751Y0106542D01*
X0192450Y0106441D01*
X0192148Y0106347D01*
X0191843Y0106261D01*
X0191536Y0106182D01*
X0191228Y0106111D01*
X0190918Y0106048D01*
X0190606Y0105992D01*
X0190293Y0105943D01*
X0189979Y0105903D01*
X0189664Y0105870D01*
X0189348Y0105845D01*
X0189032Y0105827D01*
X0188716Y0105817D01*
X0188399Y0105815D01*
X0188082Y0105821D01*
X0187766Y0105834D01*
X0187450Y0105856D01*
X0187135Y0105884D01*
X0186820Y0105921D01*
X0186507Y0105965D01*
X0186194Y0106017D01*
X0185883Y0106077D01*
X0185574Y0106144D01*
X0185266Y0106219D01*
X0184960Y0106301D01*
X0184657Y0106390D01*
X0184355Y0106487D01*
X0184056Y0106592D01*
X0183760Y0106704D01*
X0183466Y0106822D01*
X0183176Y0106948D01*
X0182889Y0107081D01*
X0182604Y0107222D01*
X0182324Y0107369D01*
X0182047Y0107522D01*
X0181774Y0107683D01*
X0181505Y0107850D01*
X0181240Y0108024D01*
X0180980Y0108204D01*
X0180724Y0108390D01*
X0180473Y0108583D01*
X0180226Y0108781D01*
X0179984Y0108986D01*
X0179748Y0109196D01*
X0179516Y0109413D01*
X0179291Y0109635D01*
X0179070Y0109862D01*
X0178855Y0110094D01*
X0178646Y0110332D01*
X0178443Y0110575D01*
X0178245Y0110823D01*
X0178054Y0111075D01*
X0177869Y0111332D01*
X0177691Y0111594D01*
X0177519Y0111860D01*
X0177353Y0112129D01*
X0177194Y0112403D01*
X0177042Y0112681D01*
X0176897Y0112962D01*
X0176758Y0113247D01*
X0176627Y0113535D01*
X0176503Y0113827D01*
X0176385Y0114121D01*
X0176275Y0114418D01*
X0176173Y0114717D01*
X0176078Y0115019D01*
X0175990Y0115323D01*
X0175909Y0115630D01*
X0175836Y0115938D01*
X0175771Y0116248D01*
X0175713Y0116559D01*
X0175663Y0116872D01*
X0175621Y0117186D01*
X0175586Y0117500D01*
X0175559Y0117816D01*
X0175539Y0118132D01*
X0175528Y0118448D01*
X0175524Y0118765D01*
X0175528Y0119082D01*
X0175539Y0119398D01*
X0175559Y0119714D01*
X0175586Y0120030D01*
X0175621Y0120344D01*
X0175663Y0120658D01*
X0175713Y0120971D01*
X0175771Y0121282D01*
X0175836Y0121592D01*
X0175909Y0121900D01*
X0175990Y0122207D01*
X0176078Y0122511D01*
X0176173Y0122813D01*
X0176275Y0123112D01*
X0176385Y0123409D01*
X0176503Y0123703D01*
X0176627Y0123995D01*
X0176758Y0124283D01*
X0176897Y0124568D01*
X0177042Y0124849D01*
X0177194Y0125127D01*
X0177353Y0125401D01*
X0177519Y0125670D01*
X0177691Y0125936D01*
X0177869Y0126198D01*
X0178054Y0126455D01*
X0178245Y0126707D01*
X0178443Y0126955D01*
X0178646Y0127198D01*
X0178855Y0127436D01*
X0179070Y0127668D01*
X0179291Y0127895D01*
X0179516Y0128117D01*
X0179748Y0128334D01*
X0179984Y0128544D01*
X0180226Y0128749D01*
X0180473Y0128947D01*
X0180724Y0129140D01*
X0180980Y0129326D01*
X0181240Y0129506D01*
X0181505Y0129680D01*
X0181774Y0129847D01*
X0182047Y0130008D01*
X0182324Y0130161D01*
X0182604Y0130308D01*
X0182889Y0130449D01*
X0183176Y0130582D01*
X0183466Y0130708D01*
X0183760Y0130826D01*
X0184056Y0130938D01*
X0184355Y0131043D01*
X0184657Y0131140D01*
X0184960Y0131229D01*
X0185266Y0131311D01*
X0185574Y0131386D01*
X0185883Y0131453D01*
X0186194Y0131513D01*
X0186507Y0131565D01*
X0186820Y0131609D01*
X0187135Y0131646D01*
X0187450Y0131674D01*
X0187766Y0131696D01*
X0188082Y0131709D01*
X0188399Y0131715D01*
X0188716Y0131713D01*
X0189032Y0131703D01*
X0189348Y0131685D01*
X0189664Y0131660D01*
X0189979Y0131627D01*
X0190293Y0131587D01*
X0190606Y0131538D01*
X0190918Y0131482D01*
X0191228Y0131419D01*
X0191536Y0131348D01*
X0191843Y0131269D01*
X0192148Y0131183D01*
X0192450Y0131089D01*
X0192751Y0130988D01*
X0193048Y0130880D01*
X0193343Y0130765D01*
X0193635Y0130642D01*
X0193924Y0130512D01*
X0194209Y0130376D01*
X0194492Y0130232D01*
X0194770Y0130081D01*
X0195045Y0129924D01*
X0195316Y0129760D01*
X0195583Y0129589D01*
X0195845Y0129412D01*
X0196103Y0129229D01*
X0196357Y0129039D01*
X0196606Y0128844D01*
X0196850Y0128642D01*
X0197089Y0128434D01*
X0197323Y0128220D01*
X0197551Y0128001D01*
X0197774Y0127776D01*
X0197992Y0127546D01*
X0198204Y0127311D01*
X0198410Y0127071D01*
X0198610Y0126825D01*
X0198804Y0126575D01*
X0198729Y0126519D01*
X0198536Y0126767D01*
X0198337Y0127011D01*
X0198133Y0127249D01*
X0197923Y0127483D01*
X0197707Y0127711D01*
X0197485Y0127934D01*
X0197258Y0128152D01*
X0197026Y0128364D01*
X0196789Y0128570D01*
X0196547Y0128771D01*
X0196299Y0128965D01*
X0196048Y0129153D01*
X0195791Y0129335D01*
X0195531Y0129511D01*
X0195266Y0129680D01*
X0194997Y0129843D01*
X0194724Y0129999D01*
X0194448Y0130149D01*
X0194168Y0130291D01*
X0193884Y0130427D01*
X0193597Y0130556D01*
X0193307Y0130678D01*
X0193015Y0130792D01*
X0192719Y0130900D01*
X0192421Y0131000D01*
X0192121Y0131093D01*
X0191818Y0131178D01*
X0191514Y0131256D01*
X0191208Y0131327D01*
X0190900Y0131390D01*
X0190590Y0131446D01*
X0190280Y0131494D01*
X0189968Y0131534D01*
X0189655Y0131567D01*
X0189342Y0131592D01*
X0189028Y0131609D01*
X0188714Y0131619D01*
X0188399Y0131621D01*
X0188085Y0131615D01*
X0187771Y0131602D01*
X0187457Y0131581D01*
X0187144Y0131552D01*
X0186832Y0131516D01*
X0186521Y0131472D01*
X0186211Y0131420D01*
X0185902Y0131361D01*
X0185595Y0131294D01*
X0185289Y0131220D01*
X0184986Y0131139D01*
X0184684Y0131050D01*
X0184385Y0130953D01*
X0184088Y0130850D01*
X0183794Y0130739D01*
X0183503Y0130621D01*
X0183214Y0130496D01*
X0182929Y0130364D01*
X0182647Y0130225D01*
X0182369Y0130079D01*
X0182094Y0129926D01*
X0181823Y0129767D01*
X0181556Y0129601D01*
X0181293Y0129428D01*
X0181034Y0129250D01*
X0180780Y0129065D01*
X0180531Y0128873D01*
X0180286Y0128676D01*
X0180046Y0128473D01*
X0179811Y0128264D01*
X0179581Y0128049D01*
X0179357Y0127829D01*
X0179138Y0127604D01*
X0178925Y0127373D01*
X0178717Y0127137D01*
X0178515Y0126895D01*
X0178320Y0126650D01*
X0178130Y0126399D01*
X0177946Y0126144D01*
X0177769Y0125884D01*
X0177598Y0125620D01*
X0177434Y0125352D01*
X0177276Y0125080D01*
X0177125Y0124805D01*
X0176981Y0124525D01*
X0176843Y0124243D01*
X0176713Y0123957D01*
X0176589Y0123668D01*
X0176473Y0123375D01*
X0176364Y0123081D01*
X0176262Y0122783D01*
X0176168Y0122484D01*
X0176080Y0122181D01*
X0176000Y0121877D01*
X0175928Y0121572D01*
X0175863Y0121264D01*
X0175806Y0120955D01*
X0175756Y0120644D01*
X0175714Y0120333D01*
X0175679Y0120020D01*
X0175653Y0119707D01*
X0175633Y0119393D01*
X0175622Y0119079D01*
X0175618Y0118765D01*
X0175622Y0118451D01*
X0175633Y0118137D01*
X0175653Y0117823D01*
X0175679Y0117510D01*
X0175714Y0117197D01*
X0175756Y0116886D01*
X0175806Y0116575D01*
X0175863Y0116266D01*
X0175928Y0115958D01*
X0176000Y0115653D01*
X0176080Y0115349D01*
X0176168Y0115046D01*
X0176262Y0114747D01*
X0176364Y0114449D01*
X0176473Y0114155D01*
X0176589Y0113862D01*
X0176713Y0113573D01*
X0176843Y0113287D01*
X0176981Y0113005D01*
X0177125Y0112725D01*
X0177276Y0112450D01*
X0177434Y0112178D01*
X0177598Y0111910D01*
X0177769Y0111646D01*
X0177946Y0111386D01*
X0178130Y0111131D01*
X0178320Y0110880D01*
X0178515Y0110635D01*
X0178717Y0110393D01*
X0178925Y0110157D01*
X0179138Y0109926D01*
X0179357Y0109701D01*
X0179581Y0109481D01*
X0179811Y0109266D01*
X0180046Y0109057D01*
X0180286Y0108854D01*
X0180531Y0108657D01*
X0180780Y0108465D01*
X0181034Y0108280D01*
X0181293Y0108102D01*
X0181556Y0107929D01*
X0181823Y0107763D01*
X0182094Y0107604D01*
X0182369Y0107451D01*
X0182647Y0107305D01*
X0182929Y0107166D01*
X0183214Y0107034D01*
X0183503Y0106909D01*
X0183794Y0106791D01*
X0184088Y0106680D01*
X0184385Y0106577D01*
X0184684Y0106480D01*
X0184986Y0106391D01*
X0185289Y0106310D01*
X0185595Y0106236D01*
X0185902Y0106169D01*
X0186211Y0106110D01*
X0186521Y0106058D01*
X0186832Y0106014D01*
X0187144Y0105978D01*
X0187457Y0105949D01*
X0187771Y0105928D01*
X0188085Y0105915D01*
X0188399Y0105909D01*
X0188714Y0105911D01*
X0189028Y0105921D01*
X0189342Y0105938D01*
X0189655Y0105963D01*
X0189968Y0105996D01*
X0190280Y0106036D01*
X0190590Y0106084D01*
X0190900Y0106140D01*
X0191208Y0106203D01*
X0191514Y0106274D01*
X0191818Y0106352D01*
X0192121Y0106437D01*
X0192421Y0106530D01*
X0192719Y0106630D01*
X0193015Y0106738D01*
X0193307Y0106852D01*
X0193597Y0106974D01*
X0193884Y0107103D01*
X0194168Y0107239D01*
X0194448Y0107381D01*
X0194724Y0107531D01*
X0194997Y0107687D01*
X0195266Y0107850D01*
X0195531Y0108019D01*
X0195791Y0108195D01*
X0196048Y0108377D01*
X0196299Y0108565D01*
X0196547Y0108759D01*
X0196789Y0108960D01*
X0197026Y0109166D01*
X0197258Y0109378D01*
X0197485Y0109596D01*
X0197707Y0109819D01*
X0197923Y0110047D01*
X0198133Y0110281D01*
X0198337Y0110519D01*
X0198536Y0110763D01*
X0198729Y0111011D01*
X0198654Y0111068D01*
X0198462Y0110821D01*
X0198265Y0110579D01*
X0198062Y0110342D01*
X0197853Y0110111D01*
X0197639Y0109884D01*
X0197419Y0109662D01*
X0197194Y0109446D01*
X0196963Y0109236D01*
X0196728Y0109031D01*
X0196487Y0108832D01*
X0196242Y0108639D01*
X0195992Y0108453D01*
X0195738Y0108272D01*
X0195479Y0108097D01*
X0195216Y0107929D01*
X0194949Y0107768D01*
X0194678Y0107613D01*
X0194404Y0107464D01*
X0194126Y0107323D01*
X0193844Y0107188D01*
X0193560Y0107060D01*
X0193272Y0106939D01*
X0192981Y0106825D01*
X0192688Y0106719D01*
X0192392Y0106619D01*
X0192094Y0106527D01*
X0191794Y0106442D01*
X0191491Y0106365D01*
X0191187Y0106295D01*
X0190882Y0106232D01*
X0190575Y0106177D01*
X0190266Y0106129D01*
X0189957Y0106089D01*
X0189646Y0106057D01*
X0189335Y0106032D01*
X0189024Y0106015D01*
X0188712Y0106005D01*
X0188400Y0106003D01*
X0188088Y0106009D01*
X0187776Y0106022D01*
X0187465Y0106043D01*
X0187154Y0106071D01*
X0186844Y0106108D01*
X0186535Y0106151D01*
X0186227Y0106202D01*
X0185920Y0106261D01*
X0185616Y0106327D01*
X0185312Y0106401D01*
X0185011Y0106482D01*
X0184712Y0106570D01*
X0184415Y0106666D01*
X0184120Y0106769D01*
X0183828Y0106879D01*
X0183539Y0106996D01*
X0183252Y0107120D01*
X0182969Y0107251D01*
X0182689Y0107389D01*
X0182413Y0107534D01*
X0182140Y0107686D01*
X0181871Y0107844D01*
X0181606Y0108009D01*
X0181345Y0108180D01*
X0181089Y0108357D01*
X0180836Y0108541D01*
X0180589Y0108731D01*
X0180346Y0108926D01*
X0180107Y0109128D01*
X0179874Y0109336D01*
X0179646Y0109549D01*
X0179424Y0109767D01*
X0179206Y0109991D01*
X0178995Y0110220D01*
X0178789Y0110455D01*
X0178588Y0110694D01*
X0178394Y0110938D01*
X0178206Y0111187D01*
X0178023Y0111440D01*
X0177847Y0111698D01*
X0177678Y0111960D01*
X0177515Y0112226D01*
X0177358Y0112496D01*
X0177208Y0112770D01*
X0177065Y0113047D01*
X0176928Y0113327D01*
X0176799Y0113611D01*
X0176676Y0113898D01*
X0176561Y0114188D01*
X0176453Y0114481D01*
X0176351Y0114776D01*
X0176257Y0115074D01*
X0176171Y0115374D01*
X0176092Y0115675D01*
X0176020Y0115979D01*
X0175955Y0116284D01*
X0175898Y0116591D01*
X0175849Y0116899D01*
X0175807Y0117209D01*
X0175773Y0117519D01*
X0175746Y0117830D01*
X0175727Y0118141D01*
X0175716Y0118453D01*
X0175712Y0118765D01*
X0175716Y0119077D01*
X0175727Y0119389D01*
X0175746Y0119700D01*
X0175773Y0120011D01*
X0175807Y0120321D01*
X0175849Y0120631D01*
X0175898Y0120939D01*
X0175955Y0121246D01*
X0176020Y0121551D01*
X0176092Y0121855D01*
X0176171Y0122156D01*
X0176257Y0122456D01*
X0176351Y0122754D01*
X0176453Y0123049D01*
X0176561Y0123342D01*
X0176676Y0123632D01*
X0176799Y0123919D01*
X0176928Y0124203D01*
X0177065Y0124483D01*
X0177208Y0124760D01*
X0177358Y0125034D01*
X0177515Y0125304D01*
X0177678Y0125570D01*
X0177847Y0125832D01*
X0178023Y0126090D01*
X0178206Y0126343D01*
X0178394Y0126592D01*
X0178588Y0126836D01*
X0178789Y0127075D01*
X0178995Y0127310D01*
X0179206Y0127539D01*
X0179424Y0127763D01*
X0179646Y0127981D01*
X0179874Y0128194D01*
X0180107Y0128402D01*
X0180346Y0128604D01*
X0180589Y0128799D01*
X0180836Y0128989D01*
X0181089Y0129173D01*
X0181345Y0129350D01*
X0181606Y0129521D01*
X0181871Y0129686D01*
X0182140Y0129844D01*
X0182413Y0129996D01*
X0182689Y0130141D01*
X0182969Y0130279D01*
X0183252Y0130410D01*
X0183539Y0130534D01*
X0183828Y0130651D01*
X0184120Y0130761D01*
X0184415Y0130864D01*
X0184712Y0130960D01*
X0185011Y0131048D01*
X0185312Y0131129D01*
X0185616Y0131203D01*
X0185920Y0131269D01*
X0186227Y0131328D01*
X0186535Y0131379D01*
X0186844Y0131422D01*
X0187154Y0131459D01*
X0187465Y0131487D01*
X0187776Y0131508D01*
X0188088Y0131521D01*
X0188400Y0131527D01*
X0188712Y0131525D01*
X0189024Y0131515D01*
X0189335Y0131498D01*
X0189646Y0131473D01*
X0189957Y0131441D01*
X0190266Y0131401D01*
X0190575Y0131353D01*
X0190882Y0131298D01*
X0191187Y0131235D01*
X0191491Y0131165D01*
X0191794Y0131088D01*
X0192094Y0131003D01*
X0192392Y0130911D01*
X0192688Y0130811D01*
X0192981Y0130705D01*
X0193272Y0130591D01*
X0193560Y0130470D01*
X0193844Y0130342D01*
X0194126Y0130207D01*
X0194404Y0130066D01*
X0194678Y0129917D01*
X0194949Y0129762D01*
X0195216Y0129601D01*
X0195479Y0129433D01*
X0195738Y0129258D01*
X0195992Y0129077D01*
X0196242Y0128891D01*
X0196487Y0128698D01*
X0196728Y0128499D01*
X0196963Y0128294D01*
X0197194Y0128084D01*
X0197419Y0127868D01*
X0197639Y0127646D01*
X0197853Y0127419D01*
X0198062Y0127188D01*
X0198265Y0126951D01*
X0198462Y0126709D01*
X0198654Y0126462D01*
X0198578Y0126406D01*
X0198388Y0126651D01*
X0198193Y0126891D01*
X0197991Y0127126D01*
X0197784Y0127356D01*
X0197571Y0127581D01*
X0197353Y0127801D01*
X0197129Y0128015D01*
X0196900Y0128224D01*
X0196667Y0128427D01*
X0196428Y0128625D01*
X0196185Y0128816D01*
X0195936Y0129002D01*
X0195684Y0129181D01*
X0195427Y0129354D01*
X0195166Y0129521D01*
X0194901Y0129682D01*
X0194632Y0129835D01*
X0194360Y0129983D01*
X0194084Y0130123D01*
X0193804Y0130257D01*
X0193522Y0130384D01*
X0193236Y0130504D01*
X0192948Y0130617D01*
X0192657Y0130723D01*
X0192363Y0130821D01*
X0192067Y0130913D01*
X0191769Y0130997D01*
X0191469Y0131074D01*
X0191167Y0131143D01*
X0190864Y0131206D01*
X0190559Y0131260D01*
X0190253Y0131308D01*
X0189945Y0131347D01*
X0189637Y0131379D01*
X0189329Y0131404D01*
X0189019Y0131421D01*
X0188710Y0131431D01*
X0188400Y0131433D01*
X0188090Y0131427D01*
X0187781Y0131414D01*
X0187472Y0131393D01*
X0187163Y0131365D01*
X0186856Y0131329D01*
X0186549Y0131286D01*
X0186243Y0131235D01*
X0185939Y0131177D01*
X0185636Y0131111D01*
X0185335Y0131038D01*
X0185036Y0130958D01*
X0184739Y0130870D01*
X0184444Y0130775D01*
X0184152Y0130673D01*
X0183862Y0130564D01*
X0183575Y0130447D01*
X0183291Y0130324D01*
X0183010Y0130194D01*
X0182732Y0130057D01*
X0182458Y0129913D01*
X0182187Y0129763D01*
X0181920Y0129606D01*
X0181657Y0129442D01*
X0181398Y0129272D01*
X0181143Y0129096D01*
X0180892Y0128914D01*
X0180647Y0128725D01*
X0180405Y0128531D01*
X0180169Y0128331D01*
X0179938Y0128125D01*
X0179711Y0127913D01*
X0179490Y0127696D01*
X0179275Y0127474D01*
X0179064Y0127247D01*
X0178860Y0127014D01*
X0178661Y0126776D01*
X0178468Y0126534D01*
X0178281Y0126287D01*
X0178100Y0126036D01*
X0177926Y0125780D01*
X0177757Y0125520D01*
X0177595Y0125256D01*
X0177440Y0124988D01*
X0177291Y0124716D01*
X0177149Y0124441D01*
X0177013Y0124162D01*
X0176885Y0123881D01*
X0176763Y0123596D01*
X0176649Y0123308D01*
X0176541Y0123017D01*
X0176441Y0122724D01*
X0176347Y0122429D01*
X0176261Y0122131D01*
X0176183Y0121832D01*
X0176112Y0121530D01*
X0176048Y0121227D01*
X0175991Y0120923D01*
X0175942Y0120617D01*
X0175901Y0120310D01*
X0175867Y0120002D01*
X0175840Y0119693D01*
X0175821Y0119384D01*
X0175810Y0119075D01*
X0175806Y0118765D01*
X0175810Y0118455D01*
X0175821Y0118146D01*
X0175840Y0117837D01*
X0175867Y0117528D01*
X0175901Y0117220D01*
X0175942Y0116913D01*
X0175991Y0116607D01*
X0176048Y0116303D01*
X0176112Y0116000D01*
X0176183Y0115698D01*
X0176261Y0115399D01*
X0176347Y0115101D01*
X0176441Y0114806D01*
X0176541Y0114513D01*
X0176649Y0114222D01*
X0176763Y0113934D01*
X0176885Y0113649D01*
X0177013Y0113368D01*
X0177149Y0113089D01*
X0177291Y0112814D01*
X0177440Y0112542D01*
X0177595Y0112274D01*
X0177757Y0112010D01*
X0177926Y0111750D01*
X0178100Y0111494D01*
X0178281Y0111243D01*
X0178468Y0110996D01*
X0178661Y0110754D01*
X0178860Y0110516D01*
X0179064Y0110283D01*
X0179275Y0110056D01*
X0179490Y0109834D01*
X0179711Y0109617D01*
X0179938Y0109405D01*
X0180169Y0109199D01*
X0180405Y0108999D01*
X0180647Y0108805D01*
X0180892Y0108616D01*
X0181143Y0108434D01*
X0181398Y0108258D01*
X0181657Y0108088D01*
X0181920Y0107924D01*
X0182187Y0107767D01*
X0182458Y0107617D01*
X0182732Y0107473D01*
X0183010Y0107336D01*
X0183291Y0107206D01*
X0183575Y0107083D01*
X0183862Y0106966D01*
X0184152Y0106857D01*
X0184444Y0106755D01*
X0184739Y0106660D01*
X0185036Y0106572D01*
X0185335Y0106492D01*
X0185636Y0106419D01*
X0185939Y0106353D01*
X0186243Y0106295D01*
X0186549Y0106244D01*
X0186856Y0106201D01*
X0187163Y0106165D01*
X0187472Y0106137D01*
X0187781Y0106116D01*
X0188090Y0106103D01*
X0188400Y0106097D01*
X0188710Y0106099D01*
X0189019Y0106109D01*
X0189329Y0106126D01*
X0189637Y0106151D01*
X0189945Y0106183D01*
X0190253Y0106222D01*
X0190559Y0106270D01*
X0190864Y0106324D01*
X0191167Y0106387D01*
X0191469Y0106456D01*
X0191769Y0106533D01*
X0192067Y0106617D01*
X0192363Y0106709D01*
X0192657Y0106807D01*
X0192948Y0106913D01*
X0193236Y0107026D01*
X0193522Y0107146D01*
X0193804Y0107273D01*
X0194084Y0107407D01*
X0194360Y0107547D01*
X0194632Y0107695D01*
X0194901Y0107848D01*
X0195166Y0108009D01*
X0195427Y0108176D01*
X0195684Y0108349D01*
X0195936Y0108528D01*
X0196185Y0108714D01*
X0196428Y0108905D01*
X0196667Y0109103D01*
X0196900Y0109306D01*
X0197129Y0109515D01*
X0197353Y0109729D01*
X0197571Y0109949D01*
X0197784Y0110174D01*
X0197991Y0110404D01*
X0198193Y0110639D01*
X0198388Y0110879D01*
X0198578Y0111124D01*
X0198503Y0111181D01*
X0198315Y0110938D01*
X0198120Y0110699D01*
X0197920Y0110466D01*
X0197715Y0110238D01*
X0197503Y0110014D01*
X0197287Y0109796D01*
X0197065Y0109583D01*
X0196838Y0109376D01*
X0196606Y0109174D01*
X0196369Y0108978D01*
X0196127Y0108788D01*
X0195881Y0108604D01*
X0195630Y0108426D01*
X0195375Y0108254D01*
X0195116Y0108089D01*
X0194853Y0107929D01*
X0194586Y0107777D01*
X0194316Y0107630D01*
X0194042Y0107491D01*
X0193765Y0107358D01*
X0193484Y0107232D01*
X0193201Y0107113D01*
X0192914Y0107001D01*
X0192625Y0106896D01*
X0192334Y0106798D01*
X0192040Y0106707D01*
X0191744Y0106624D01*
X0191447Y0106547D01*
X0191147Y0106478D01*
X0190846Y0106417D01*
X0190543Y0106362D01*
X0190239Y0106316D01*
X0189934Y0106276D01*
X0189629Y0106244D01*
X0189322Y0106220D01*
X0189015Y0106203D01*
X0188708Y0106193D01*
X0188400Y0106191D01*
X0188093Y0106197D01*
X0187786Y0106210D01*
X0187479Y0106230D01*
X0187173Y0106259D01*
X0186867Y0106294D01*
X0186563Y0106337D01*
X0186260Y0106388D01*
X0185958Y0106445D01*
X0185657Y0106511D01*
X0185358Y0106583D01*
X0185062Y0106663D01*
X0184767Y0106750D01*
X0184474Y0106844D01*
X0184184Y0106946D01*
X0183896Y0107054D01*
X0183611Y0107169D01*
X0183329Y0107292D01*
X0183050Y0107421D01*
X0182774Y0107557D01*
X0182502Y0107700D01*
X0182233Y0107849D01*
X0181968Y0108005D01*
X0181707Y0108167D01*
X0181450Y0108336D01*
X0181197Y0108511D01*
X0180949Y0108692D01*
X0180705Y0108879D01*
X0180465Y0109072D01*
X0180231Y0109270D01*
X0180001Y0109475D01*
X0179776Y0109685D01*
X0179557Y0109900D01*
X0179343Y0110121D01*
X0179134Y0110346D01*
X0178931Y0110577D01*
X0178734Y0110813D01*
X0178542Y0111054D01*
X0178357Y0111299D01*
X0178177Y0111548D01*
X0178004Y0111802D01*
X0177837Y0112060D01*
X0177676Y0112322D01*
X0177522Y0112588D01*
X0177374Y0112858D01*
X0177233Y0113131D01*
X0177098Y0113408D01*
X0176971Y0113687D01*
X0176850Y0113970D01*
X0176736Y0114256D01*
X0176630Y0114544D01*
X0176530Y0114835D01*
X0176437Y0115128D01*
X0176352Y0115424D01*
X0176274Y0115721D01*
X0176203Y0116020D01*
X0176140Y0116321D01*
X0176084Y0116623D01*
X0176035Y0116927D01*
X0175994Y0117232D01*
X0175960Y0117537D01*
X0175934Y0117843D01*
X0175915Y0118150D01*
X0175904Y0118458D01*
X0175900Y0118765D01*
X0175904Y0119072D01*
X0175915Y0119380D01*
X0175934Y0119687D01*
X0175960Y0119993D01*
X0175994Y0120298D01*
X0176035Y0120603D01*
X0176084Y0120907D01*
X0176140Y0121209D01*
X0176203Y0121510D01*
X0176274Y0121809D01*
X0176352Y0122106D01*
X0176437Y0122402D01*
X0176530Y0122695D01*
X0176630Y0122986D01*
X0176736Y0123274D01*
X0176850Y0123560D01*
X0176971Y0123843D01*
X0177098Y0124122D01*
X0177233Y0124399D01*
X0177374Y0124672D01*
X0177522Y0124942D01*
X0177676Y0125208D01*
X0177837Y0125470D01*
X0178004Y0125728D01*
X0178177Y0125982D01*
X0178357Y0126231D01*
X0178542Y0126476D01*
X0178734Y0126717D01*
X0178931Y0126953D01*
X0179134Y0127184D01*
X0179343Y0127409D01*
X0179557Y0127630D01*
X0179776Y0127845D01*
X0180001Y0128055D01*
X0180231Y0128260D01*
X0180465Y0128458D01*
X0180705Y0128651D01*
X0180949Y0128838D01*
X0181197Y0129019D01*
X0181450Y0129194D01*
X0181707Y0129363D01*
X0181968Y0129525D01*
X0182233Y0129681D01*
X0182502Y0129830D01*
X0182774Y0129973D01*
X0183050Y0130109D01*
X0183329Y0130238D01*
X0183611Y0130361D01*
X0183896Y0130476D01*
X0184184Y0130584D01*
X0184474Y0130686D01*
X0184767Y0130780D01*
X0185062Y0130867D01*
X0185358Y0130947D01*
X0185657Y0131019D01*
X0185958Y0131085D01*
X0186260Y0131142D01*
X0186563Y0131193D01*
X0186867Y0131236D01*
X0187173Y0131271D01*
X0187479Y0131300D01*
X0187786Y0131320D01*
X0188093Y0131333D01*
X0188400Y0131339D01*
X0188708Y0131337D01*
X0189015Y0131327D01*
X0189322Y0131310D01*
X0189629Y0131286D01*
X0189934Y0131254D01*
X0190239Y0131214D01*
X0190543Y0131168D01*
X0190846Y0131113D01*
X0191147Y0131052D01*
X0191447Y0130983D01*
X0191744Y0130906D01*
X0192040Y0130823D01*
X0192334Y0130732D01*
X0192625Y0130634D01*
X0192914Y0130529D01*
X0193201Y0130417D01*
X0193484Y0130298D01*
X0193765Y0130172D01*
X0194042Y0130039D01*
X0194316Y0129900D01*
X0194586Y0129753D01*
X0194853Y0129601D01*
X0195116Y0129441D01*
X0195375Y0129276D01*
X0195630Y0129104D01*
X0195881Y0128926D01*
X0196127Y0128742D01*
X0196369Y0128552D01*
X0196606Y0128356D01*
X0196838Y0128154D01*
X0197065Y0127947D01*
X0197287Y0127734D01*
X0197503Y0127516D01*
X0197715Y0127292D01*
X0197920Y0127064D01*
X0198120Y0126831D01*
X0198315Y0126592D01*
X0198503Y0126349D01*
X0198428Y0126293D01*
X0198241Y0126534D01*
X0198048Y0126771D01*
X0197849Y0127002D01*
X0197645Y0127229D01*
X0197436Y0127451D01*
X0197221Y0127667D01*
X0197000Y0127878D01*
X0196775Y0128084D01*
X0196545Y0128284D01*
X0196309Y0128479D01*
X0196070Y0128667D01*
X0195825Y0128850D01*
X0195576Y0129027D01*
X0195323Y0129197D01*
X0195066Y0129362D01*
X0194805Y0129520D01*
X0194540Y0129671D01*
X0194272Y0129816D01*
X0194000Y0129955D01*
X0193725Y0130087D01*
X0193446Y0130212D01*
X0193165Y0130330D01*
X0192881Y0130441D01*
X0192594Y0130545D01*
X0192305Y0130643D01*
X0192013Y0130733D01*
X0191720Y0130816D01*
X0191424Y0130891D01*
X0191127Y0130960D01*
X0190828Y0131021D01*
X0190527Y0131075D01*
X0190226Y0131121D01*
X0189923Y0131161D01*
X0189620Y0131192D01*
X0189315Y0131217D01*
X0189011Y0131233D01*
X0188706Y0131243D01*
X0188401Y0131245D01*
X0188096Y0131239D01*
X0187791Y0131226D01*
X0187486Y0131206D01*
X0187182Y0131178D01*
X0186879Y0131143D01*
X0186577Y0131100D01*
X0186276Y0131050D01*
X0185976Y0130993D01*
X0185678Y0130928D01*
X0185382Y0130856D01*
X0185087Y0130777D01*
X0184794Y0130690D01*
X0184504Y0130597D01*
X0184216Y0130496D01*
X0183930Y0130388D01*
X0183647Y0130274D01*
X0183367Y0130152D01*
X0183090Y0130024D01*
X0182817Y0129889D01*
X0182547Y0129748D01*
X0182280Y0129599D01*
X0182017Y0129445D01*
X0181758Y0129284D01*
X0181502Y0129116D01*
X0181251Y0128943D01*
X0181005Y0128763D01*
X0180763Y0128577D01*
X0180525Y0128386D01*
X0180292Y0128189D01*
X0180064Y0127986D01*
X0179841Y0127777D01*
X0179623Y0127564D01*
X0179411Y0127345D01*
X0179204Y0127121D01*
X0179002Y0126891D01*
X0178806Y0126657D01*
X0178616Y0126419D01*
X0178432Y0126175D01*
X0178254Y0125928D01*
X0178082Y0125676D01*
X0177916Y0125419D01*
X0177757Y0125159D01*
X0177603Y0124895D01*
X0177457Y0124628D01*
X0177317Y0124357D01*
X0177183Y0124082D01*
X0177057Y0123805D01*
X0176937Y0123524D01*
X0176824Y0123240D01*
X0176718Y0122954D01*
X0176619Y0122666D01*
X0176527Y0122375D01*
X0176443Y0122081D01*
X0176365Y0121786D01*
X0176295Y0121489D01*
X0176232Y0121191D01*
X0176176Y0120891D01*
X0176128Y0120589D01*
X0176087Y0120287D01*
X0176054Y0119984D01*
X0176028Y0119680D01*
X0176009Y0119375D01*
X0175998Y0119070D01*
X0175994Y0118765D01*
X0175998Y0118460D01*
X0176009Y0118155D01*
X0176028Y0117850D01*
X0176054Y0117546D01*
X0176087Y0117243D01*
X0176128Y0116941D01*
X0176176Y0116639D01*
X0176232Y0116339D01*
X0176295Y0116041D01*
X0176365Y0115744D01*
X0176443Y0115449D01*
X0176527Y0115155D01*
X0176619Y0114864D01*
X0176718Y0114576D01*
X0176824Y0114290D01*
X0176937Y0114006D01*
X0177057Y0113725D01*
X0177183Y0113448D01*
X0177317Y0113173D01*
X0177457Y0112902D01*
X0177603Y0112635D01*
X0177757Y0112371D01*
X0177916Y0112111D01*
X0178082Y0111854D01*
X0178254Y0111602D01*
X0178432Y0111355D01*
X0178616Y0111111D01*
X0178806Y0110873D01*
X0179002Y0110639D01*
X0179204Y0110409D01*
X0179411Y0110185D01*
X0179623Y0109966D01*
X0179841Y0109753D01*
X0180064Y0109544D01*
X0180292Y0109341D01*
X0180525Y0109144D01*
X0180763Y0108953D01*
X0181005Y0108767D01*
X0181251Y0108587D01*
X0181502Y0108414D01*
X0181758Y0108246D01*
X0182017Y0108085D01*
X0182280Y0107931D01*
X0182547Y0107782D01*
X0182817Y0107641D01*
X0183090Y0107506D01*
X0183367Y0107378D01*
X0183647Y0107256D01*
X0183930Y0107142D01*
X0184216Y0107034D01*
X0184504Y0106933D01*
X0184794Y0106840D01*
X0185087Y0106753D01*
X0185382Y0106674D01*
X0185678Y0106602D01*
X0185976Y0106537D01*
X0186276Y0106480D01*
X0186577Y0106430D01*
X0186879Y0106387D01*
X0187182Y0106352D01*
X0187486Y0106324D01*
X0187791Y0106304D01*
X0188096Y0106291D01*
X0188401Y0106285D01*
X0188706Y0106287D01*
X0189011Y0106297D01*
X0189315Y0106313D01*
X0189620Y0106338D01*
X0189923Y0106369D01*
X0190226Y0106409D01*
X0190527Y0106455D01*
X0190828Y0106509D01*
X0191127Y0106570D01*
X0191424Y0106639D01*
X0191720Y0106714D01*
X0192013Y0106797D01*
X0192305Y0106887D01*
X0192594Y0106985D01*
X0192881Y0107089D01*
X0193165Y0107200D01*
X0193446Y0107318D01*
X0193725Y0107443D01*
X0194000Y0107575D01*
X0194272Y0107714D01*
X0194540Y0107859D01*
X0194805Y0108010D01*
X0195066Y0108168D01*
X0195323Y0108333D01*
X0195576Y0108503D01*
X0195825Y0108680D01*
X0196070Y0108863D01*
X0196309Y0109051D01*
X0196545Y0109246D01*
X0196775Y0109446D01*
X0197000Y0109652D01*
X0197221Y0109863D01*
X0197436Y0110079D01*
X0197645Y0110301D01*
X0197849Y0110528D01*
X0198048Y0110759D01*
X0198241Y0110996D01*
X0198428Y0111237D01*
X0198353Y0111293D01*
X0198167Y0111054D01*
X0197976Y0110819D01*
X0197779Y0110590D01*
X0197576Y0110365D01*
X0197368Y0110144D01*
X0197154Y0109930D01*
X0196936Y0109720D01*
X0196712Y0109516D01*
X0196484Y0109317D01*
X0196250Y0109124D01*
X0196012Y0108937D01*
X0195770Y0108756D01*
X0195523Y0108580D01*
X0195272Y0108411D01*
X0195016Y0108248D01*
X0194757Y0108091D01*
X0194494Y0107941D01*
X0194228Y0107797D01*
X0193958Y0107659D01*
X0193685Y0107528D01*
X0193409Y0107404D01*
X0193129Y0107287D01*
X0192847Y0107177D01*
X0192563Y0107073D01*
X0192276Y0106977D01*
X0191986Y0106887D01*
X0191695Y0106805D01*
X0191402Y0106730D01*
X0191106Y0106662D01*
X0190810Y0106601D01*
X0190512Y0106548D01*
X0190212Y0106502D01*
X0189912Y0106463D01*
X0189611Y0106431D01*
X0189309Y0106407D01*
X0189006Y0106390D01*
X0188704Y0106381D01*
X0188401Y0106379D01*
X0188098Y0106385D01*
X0187796Y0106398D01*
X0187493Y0106418D01*
X0187192Y0106446D01*
X0186891Y0106481D01*
X0186591Y0106523D01*
X0186292Y0106573D01*
X0185995Y0106630D01*
X0185699Y0106694D01*
X0185405Y0106765D01*
X0185112Y0106844D01*
X0184822Y0106930D01*
X0184533Y0107023D01*
X0184248Y0107122D01*
X0183964Y0107229D01*
X0183684Y0107343D01*
X0183406Y0107463D01*
X0183131Y0107591D01*
X0182859Y0107725D01*
X0182591Y0107865D01*
X0182326Y0108012D01*
X0182065Y0108166D01*
X0181808Y0108326D01*
X0181555Y0108492D01*
X0181306Y0108664D01*
X0181061Y0108842D01*
X0180820Y0109027D01*
X0180585Y0109217D01*
X0180354Y0109412D01*
X0180127Y0109614D01*
X0179906Y0109820D01*
X0179690Y0110033D01*
X0179479Y0110250D01*
X0179274Y0110472D01*
X0179074Y0110700D01*
X0178879Y0110932D01*
X0178691Y0111169D01*
X0178508Y0111411D01*
X0178331Y0111656D01*
X0178160Y0111907D01*
X0177996Y0112161D01*
X0177837Y0112419D01*
X0177685Y0112681D01*
X0177540Y0112946D01*
X0177401Y0113215D01*
X0177268Y0113488D01*
X0177143Y0113763D01*
X0177024Y0114042D01*
X0176912Y0114323D01*
X0176807Y0114607D01*
X0176708Y0114894D01*
X0176617Y0115183D01*
X0176533Y0115474D01*
X0176456Y0115767D01*
X0176387Y0116061D01*
X0176324Y0116358D01*
X0176269Y0116655D01*
X0176221Y0116954D01*
X0176180Y0117254D01*
X0176147Y0117556D01*
X0176121Y0117857D01*
X0176103Y0118160D01*
X0176092Y0118462D01*
X0176088Y0118765D01*
X0176092Y0119068D01*
X0176103Y0119370D01*
X0176121Y0119673D01*
X0176147Y0119974D01*
X0176180Y0120276D01*
X0176221Y0120576D01*
X0176269Y0120875D01*
X0176324Y0121172D01*
X0176387Y0121469D01*
X0176456Y0121763D01*
X0176533Y0122056D01*
X0176617Y0122347D01*
X0176708Y0122636D01*
X0176807Y0122923D01*
X0176912Y0123207D01*
X0177024Y0123488D01*
X0177143Y0123767D01*
X0177268Y0124042D01*
X0177401Y0124315D01*
X0177540Y0124584D01*
X0177685Y0124849D01*
X0177837Y0125111D01*
X0177996Y0125369D01*
X0178160Y0125623D01*
X0178331Y0125874D01*
X0178508Y0126119D01*
X0178691Y0126361D01*
X0178879Y0126598D01*
X0179074Y0126830D01*
X0179274Y0127058D01*
X0179479Y0127280D01*
X0179690Y0127497D01*
X0179906Y0127710D01*
X0180127Y0127916D01*
X0180354Y0128118D01*
X0180585Y0128313D01*
X0180820Y0128503D01*
X0181061Y0128688D01*
X0181306Y0128866D01*
X0181555Y0129038D01*
X0181808Y0129204D01*
X0182065Y0129364D01*
X0182326Y0129518D01*
X0182591Y0129665D01*
X0182859Y0129805D01*
X0183131Y0129939D01*
X0183406Y0130067D01*
X0183684Y0130187D01*
X0183964Y0130301D01*
X0184248Y0130408D01*
X0184533Y0130507D01*
X0184822Y0130600D01*
X0185112Y0130686D01*
X0185405Y0130765D01*
X0185699Y0130836D01*
X0185995Y0130900D01*
X0186292Y0130957D01*
X0186591Y0131007D01*
X0186891Y0131049D01*
X0187192Y0131084D01*
X0187493Y0131112D01*
X0187796Y0131132D01*
X0188098Y0131145D01*
X0188401Y0131151D01*
X0188704Y0131149D01*
X0189006Y0131140D01*
X0189309Y0131123D01*
X0189611Y0131099D01*
X0189912Y0131067D01*
X0190212Y0131028D01*
X0190512Y0130982D01*
X0190810Y0130929D01*
X0191106Y0130868D01*
X0191402Y0130800D01*
X0191695Y0130725D01*
X0191986Y0130643D01*
X0192276Y0130553D01*
X0192563Y0130457D01*
X0192847Y0130353D01*
X0193129Y0130243D01*
X0193409Y0130126D01*
X0193685Y0130002D01*
X0193958Y0129871D01*
X0194228Y0129733D01*
X0194494Y0129589D01*
X0194757Y0129439D01*
X0195016Y0129282D01*
X0195272Y0129119D01*
X0195523Y0128950D01*
X0195770Y0128774D01*
X0196012Y0128593D01*
X0196250Y0128406D01*
X0196484Y0128213D01*
X0196712Y0128014D01*
X0196936Y0127810D01*
X0197154Y0127600D01*
X0197368Y0127386D01*
X0197576Y0127165D01*
X0197779Y0126940D01*
X0197976Y0126711D01*
X0198167Y0126476D01*
X0198353Y0126237D01*
X0198278Y0126180D01*
X0198093Y0126418D01*
X0197903Y0126650D01*
X0197708Y0126879D01*
X0197507Y0127102D01*
X0197300Y0127320D01*
X0197088Y0127534D01*
X0196871Y0127742D01*
X0196649Y0127944D01*
X0196422Y0128141D01*
X0196191Y0128333D01*
X0195955Y0128519D01*
X0195714Y0128699D01*
X0195469Y0128873D01*
X0195220Y0129041D01*
X0194966Y0129203D01*
X0194709Y0129358D01*
X0194448Y0129507D01*
X0194184Y0129650D01*
X0193916Y0129787D01*
X0193645Y0129916D01*
X0193371Y0130039D01*
X0193094Y0130156D01*
X0192814Y0130265D01*
X0192531Y0130368D01*
X0192247Y0130464D01*
X0191959Y0130552D01*
X0191670Y0130634D01*
X0191379Y0130709D01*
X0191086Y0130776D01*
X0190792Y0130837D01*
X0190496Y0130890D01*
X0190199Y0130935D01*
X0189901Y0130974D01*
X0189602Y0131005D01*
X0189302Y0131029D01*
X0189002Y0131046D01*
X0188702Y0131055D01*
X0188401Y0131057D01*
X0188101Y0131051D01*
X0187800Y0131039D01*
X0187501Y0131018D01*
X0187201Y0130991D01*
X0186903Y0130956D01*
X0186605Y0130914D01*
X0186309Y0130865D01*
X0186014Y0130808D01*
X0185720Y0130744D01*
X0185428Y0130674D01*
X0185138Y0130596D01*
X0184849Y0130510D01*
X0184563Y0130418D01*
X0184279Y0130319D01*
X0183998Y0130213D01*
X0183720Y0130100D01*
X0183444Y0129981D01*
X0183171Y0129854D01*
X0182902Y0129721D01*
X0182636Y0129582D01*
X0182373Y0129436D01*
X0182114Y0129284D01*
X0181858Y0129125D01*
X0181607Y0128960D01*
X0181360Y0128789D01*
X0181117Y0128612D01*
X0180878Y0128429D01*
X0180644Y0128241D01*
X0180415Y0128047D01*
X0180191Y0127847D01*
X0179971Y0127642D01*
X0179757Y0127431D01*
X0179547Y0127215D01*
X0179343Y0126995D01*
X0179145Y0126769D01*
X0178952Y0126538D01*
X0178765Y0126303D01*
X0178583Y0126064D01*
X0178408Y0125820D01*
X0178238Y0125571D01*
X0178075Y0125319D01*
X0177918Y0125063D01*
X0177767Y0124803D01*
X0177623Y0124539D01*
X0177485Y0124272D01*
X0177353Y0124002D01*
X0177229Y0123729D01*
X0177111Y0123452D01*
X0177000Y0123173D01*
X0176895Y0122891D01*
X0176798Y0122607D01*
X0176707Y0122320D01*
X0176624Y0122031D01*
X0176548Y0121741D01*
X0176478Y0121448D01*
X0176416Y0121154D01*
X0176362Y0120859D01*
X0176314Y0120562D01*
X0176274Y0120264D01*
X0176241Y0119965D01*
X0176215Y0119666D01*
X0176197Y0119366D01*
X0176186Y0119066D01*
X0176182Y0118765D01*
X0176186Y0118464D01*
X0176197Y0118164D01*
X0176215Y0117864D01*
X0176241Y0117565D01*
X0176274Y0117266D01*
X0176314Y0116968D01*
X0176362Y0116671D01*
X0176416Y0116376D01*
X0176478Y0116082D01*
X0176548Y0115789D01*
X0176624Y0115499D01*
X0176707Y0115210D01*
X0176798Y0114923D01*
X0176895Y0114639D01*
X0177000Y0114357D01*
X0177111Y0114078D01*
X0177229Y0113801D01*
X0177353Y0113528D01*
X0177485Y0113258D01*
X0177623Y0112991D01*
X0177767Y0112727D01*
X0177918Y0112467D01*
X0178075Y0112211D01*
X0178238Y0111959D01*
X0178408Y0111710D01*
X0178583Y0111466D01*
X0178765Y0111227D01*
X0178952Y0110992D01*
X0179145Y0110761D01*
X0179343Y0110535D01*
X0179547Y0110315D01*
X0179757Y0110099D01*
X0179971Y0109888D01*
X0180191Y0109683D01*
X0180415Y0109483D01*
X0180644Y0109289D01*
X0180878Y0109101D01*
X0181117Y0108918D01*
X0181360Y0108741D01*
X0181607Y0108570D01*
X0181858Y0108405D01*
X0182114Y0108246D01*
X0182373Y0108094D01*
X0182636Y0107948D01*
X0182902Y0107809D01*
X0183171Y0107676D01*
X0183444Y0107549D01*
X0183720Y0107430D01*
X0183998Y0107317D01*
X0184279Y0107211D01*
X0184563Y0107112D01*
X0184849Y0107020D01*
X0185138Y0106934D01*
X0185428Y0106856D01*
X0185720Y0106786D01*
X0186014Y0106722D01*
X0186309Y0106665D01*
X0186605Y0106616D01*
X0186903Y0106574D01*
X0187201Y0106539D01*
X0187501Y0106512D01*
X0187800Y0106491D01*
X0188101Y0106479D01*
X0188401Y0106473D01*
X0188702Y0106475D01*
X0189002Y0106484D01*
X0189302Y0106501D01*
X0189602Y0106525D01*
X0189901Y0106556D01*
X0190199Y0106595D01*
X0190496Y0106640D01*
X0190792Y0106693D01*
X0191086Y0106754D01*
X0191379Y0106821D01*
X0191670Y0106896D01*
X0191959Y0106978D01*
X0192247Y0107066D01*
X0192531Y0107162D01*
X0192814Y0107265D01*
X0193094Y0107374D01*
X0193371Y0107491D01*
X0193645Y0107614D01*
X0193916Y0107743D01*
X0194184Y0107880D01*
X0194448Y0108023D01*
X0194709Y0108172D01*
X0194966Y0108327D01*
X0195220Y0108489D01*
X0195469Y0108657D01*
X0195714Y0108831D01*
X0195955Y0109011D01*
X0196191Y0109197D01*
X0196422Y0109389D01*
X0196649Y0109586D01*
X0196871Y0109788D01*
X0197088Y0109996D01*
X0197300Y0110210D01*
X0197507Y0110428D01*
X0197708Y0110651D01*
X0197903Y0110880D01*
X0198093Y0111112D01*
X0198278Y0111350D01*
X0198202Y0111406D01*
X0198020Y0111171D01*
X0197831Y0110940D01*
X0197637Y0110713D01*
X0197437Y0110491D01*
X0197232Y0110275D01*
X0197022Y0110063D01*
X0196807Y0109857D01*
X0196587Y0109656D01*
X0196361Y0109460D01*
X0196132Y0109270D01*
X0195897Y0109086D01*
X0195658Y0108907D01*
X0195415Y0108734D01*
X0195168Y0108568D01*
X0194916Y0108407D01*
X0194661Y0108253D01*
X0194402Y0108105D01*
X0194140Y0107963D01*
X0193874Y0107828D01*
X0193605Y0107699D01*
X0193333Y0107577D01*
X0193058Y0107461D01*
X0192780Y0107352D01*
X0192500Y0107251D01*
X0192217Y0107156D01*
X0191932Y0107068D01*
X0191645Y0106987D01*
X0191357Y0106912D01*
X0191066Y0106846D01*
X0190774Y0106786D01*
X0190480Y0106733D01*
X0190185Y0106688D01*
X0189890Y0106649D01*
X0189593Y0106618D01*
X0189296Y0106595D01*
X0188998Y0106578D01*
X0188700Y0106569D01*
X0188402Y0106567D01*
X0188103Y0106573D01*
X0187805Y0106585D01*
X0187508Y0106605D01*
X0187211Y0106633D01*
X0186915Y0106667D01*
X0186619Y0106709D01*
X0186325Y0106758D01*
X0186032Y0106814D01*
X0185741Y0106877D01*
X0185451Y0106948D01*
X0185163Y0107025D01*
X0184877Y0107109D01*
X0184593Y0107201D01*
X0184311Y0107299D01*
X0184032Y0107404D01*
X0183756Y0107516D01*
X0183482Y0107635D01*
X0183212Y0107760D01*
X0182944Y0107892D01*
X0182680Y0108031D01*
X0182419Y0108176D01*
X0182162Y0108327D01*
X0181909Y0108484D01*
X0181660Y0108648D01*
X0181414Y0108818D01*
X0181173Y0108993D01*
X0180936Y0109175D01*
X0180704Y0109362D01*
X0180477Y0109554D01*
X0180254Y0109753D01*
X0180036Y0109956D01*
X0179823Y0110165D01*
X0179615Y0110379D01*
X0179413Y0110599D01*
X0179216Y0110822D01*
X0179025Y0111051D01*
X0178839Y0111285D01*
X0178659Y0111522D01*
X0178485Y0111764D01*
X0178317Y0112011D01*
X0178155Y0112261D01*
X0177999Y0112515D01*
X0177849Y0112773D01*
X0177706Y0113035D01*
X0177569Y0113300D01*
X0177438Y0113568D01*
X0177315Y0113839D01*
X0177198Y0114114D01*
X0177087Y0114391D01*
X0176984Y0114671D01*
X0176887Y0114953D01*
X0176797Y0115237D01*
X0176715Y0115524D01*
X0176639Y0115812D01*
X0176570Y0116102D01*
X0176509Y0116394D01*
X0176454Y0116687D01*
X0176407Y0116982D01*
X0176367Y0117277D01*
X0176334Y0117574D01*
X0176309Y0117871D01*
X0176291Y0118169D01*
X0176280Y0118467D01*
X0176276Y0118765D01*
X0176280Y0119063D01*
X0176291Y0119361D01*
X0176309Y0119659D01*
X0176334Y0119956D01*
X0176367Y0120253D01*
X0176407Y0120548D01*
X0176454Y0120843D01*
X0176509Y0121136D01*
X0176570Y0121428D01*
X0176639Y0121718D01*
X0176715Y0122006D01*
X0176797Y0122293D01*
X0176887Y0122577D01*
X0176984Y0122859D01*
X0177087Y0123139D01*
X0177198Y0123416D01*
X0177315Y0123691D01*
X0177438Y0123962D01*
X0177569Y0124230D01*
X0177706Y0124495D01*
X0177849Y0124757D01*
X0177999Y0125015D01*
X0178155Y0125269D01*
X0178317Y0125519D01*
X0178485Y0125766D01*
X0178659Y0126008D01*
X0178839Y0126245D01*
X0179025Y0126479D01*
X0179216Y0126708D01*
X0179413Y0126931D01*
X0179615Y0127151D01*
X0179823Y0127365D01*
X0180036Y0127574D01*
X0180254Y0127777D01*
X0180477Y0127976D01*
X0180704Y0128168D01*
X0180936Y0128355D01*
X0181173Y0128537D01*
X0181414Y0128712D01*
X0181660Y0128882D01*
X0181909Y0129046D01*
X0182162Y0129203D01*
X0182419Y0129354D01*
X0182680Y0129499D01*
X0182944Y0129638D01*
X0183212Y0129770D01*
X0183482Y0129895D01*
X0183756Y0130014D01*
X0184032Y0130126D01*
X0184311Y0130231D01*
X0184593Y0130329D01*
X0184877Y0130421D01*
X0185163Y0130505D01*
X0185451Y0130582D01*
X0185741Y0130653D01*
X0186032Y0130716D01*
X0186325Y0130772D01*
X0186619Y0130821D01*
X0186915Y0130863D01*
X0187211Y0130897D01*
X0187508Y0130925D01*
X0187805Y0130945D01*
X0188103Y0130957D01*
X0188402Y0130963D01*
X0188700Y0130961D01*
X0188998Y0130952D01*
X0189296Y0130935D01*
X0189593Y0130912D01*
X0189890Y0130881D01*
X0190185Y0130842D01*
X0190480Y0130797D01*
X0190774Y0130744D01*
X0191066Y0130684D01*
X0191357Y0130618D01*
X0191645Y0130543D01*
X0191932Y0130462D01*
X0192217Y0130374D01*
X0192500Y0130279D01*
X0192780Y0130178D01*
X0193058Y0130069D01*
X0193333Y0129953D01*
X0193605Y0129831D01*
X0193874Y0129702D01*
X0194140Y0129567D01*
X0194402Y0129425D01*
X0194661Y0129277D01*
X0194916Y0129123D01*
X0195168Y0128962D01*
X0195415Y0128796D01*
X0195658Y0128623D01*
X0195897Y0128444D01*
X0196132Y0128260D01*
X0196361Y0128070D01*
X0196587Y0127874D01*
X0196807Y0127673D01*
X0197022Y0127467D01*
X0197232Y0127255D01*
X0197437Y0127039D01*
X0197637Y0126817D01*
X0197831Y0126590D01*
X0198020Y0126359D01*
X0198202Y0126124D01*
X0198127Y0126067D01*
X0197946Y0126301D01*
X0197759Y0126530D01*
X0197566Y0126755D01*
X0197368Y0126975D01*
X0197165Y0127190D01*
X0196956Y0127400D01*
X0196742Y0127605D01*
X0196524Y0127804D01*
X0196300Y0127998D01*
X0196072Y0128187D01*
X0195840Y0128370D01*
X0195603Y0128547D01*
X0195361Y0128718D01*
X0195116Y0128884D01*
X0194867Y0129043D01*
X0194613Y0129196D01*
X0194357Y0129343D01*
X0194096Y0129484D01*
X0193832Y0129618D01*
X0193565Y0129746D01*
X0193295Y0129867D01*
X0193023Y0129982D01*
X0192747Y0130090D01*
X0192469Y0130191D01*
X0192188Y0130285D01*
X0191906Y0130372D01*
X0191621Y0130453D01*
X0191334Y0130526D01*
X0191046Y0130593D01*
X0190756Y0130652D01*
X0190464Y0130704D01*
X0190172Y0130749D01*
X0189878Y0130787D01*
X0189584Y0130818D01*
X0189289Y0130842D01*
X0188994Y0130858D01*
X0188698Y0130867D01*
X0188402Y0130869D01*
X0188106Y0130863D01*
X0187810Y0130851D01*
X0187515Y0130831D01*
X0187220Y0130804D01*
X0186926Y0130770D01*
X0186633Y0130728D01*
X0186341Y0130680D01*
X0186051Y0130624D01*
X0185762Y0130561D01*
X0185474Y0130491D01*
X0185188Y0130414D01*
X0184904Y0130331D01*
X0184623Y0130240D01*
X0184343Y0130142D01*
X0184066Y0130038D01*
X0183792Y0129927D01*
X0183521Y0129809D01*
X0183252Y0129685D01*
X0182987Y0129554D01*
X0182725Y0129416D01*
X0182466Y0129273D01*
X0182211Y0129123D01*
X0181959Y0128966D01*
X0181712Y0128804D01*
X0181469Y0128636D01*
X0181229Y0128461D01*
X0180994Y0128281D01*
X0180764Y0128096D01*
X0180538Y0127904D01*
X0180317Y0127708D01*
X0180101Y0127506D01*
X0179890Y0127298D01*
X0179684Y0127086D01*
X0179483Y0126868D01*
X0179287Y0126646D01*
X0179097Y0126419D01*
X0178913Y0126188D01*
X0178735Y0125952D01*
X0178562Y0125712D01*
X0178395Y0125467D01*
X0178234Y0125219D01*
X0178079Y0124966D01*
X0177931Y0124710D01*
X0177789Y0124451D01*
X0177653Y0124188D01*
X0177523Y0123922D01*
X0177401Y0123653D01*
X0177284Y0123380D01*
X0177175Y0123105D01*
X0177072Y0122828D01*
X0176976Y0122548D01*
X0176887Y0122266D01*
X0176805Y0121981D01*
X0176730Y0121695D01*
X0176662Y0121407D01*
X0176601Y0121118D01*
X0176547Y0120827D01*
X0176500Y0120534D01*
X0176460Y0120241D01*
X0176428Y0119947D01*
X0176403Y0119652D01*
X0176384Y0119357D01*
X0176374Y0119061D01*
X0176370Y0118765D01*
X0176374Y0118469D01*
X0176384Y0118173D01*
X0176403Y0117878D01*
X0176428Y0117583D01*
X0176460Y0117289D01*
X0176500Y0116996D01*
X0176547Y0116703D01*
X0176601Y0116412D01*
X0176662Y0116123D01*
X0176730Y0115835D01*
X0176805Y0115549D01*
X0176887Y0115264D01*
X0176976Y0114982D01*
X0177072Y0114702D01*
X0177175Y0114425D01*
X0177284Y0114150D01*
X0177401Y0113877D01*
X0177523Y0113608D01*
X0177653Y0113342D01*
X0177789Y0113079D01*
X0177931Y0112820D01*
X0178079Y0112564D01*
X0178234Y0112311D01*
X0178395Y0112063D01*
X0178562Y0111818D01*
X0178735Y0111578D01*
X0178913Y0111342D01*
X0179097Y0111111D01*
X0179287Y0110884D01*
X0179483Y0110662D01*
X0179684Y0110444D01*
X0179890Y0110232D01*
X0180101Y0110024D01*
X0180317Y0109822D01*
X0180538Y0109626D01*
X0180764Y0109434D01*
X0180994Y0109249D01*
X0181229Y0109069D01*
X0181469Y0108894D01*
X0181712Y0108726D01*
X0181959Y0108564D01*
X0182211Y0108407D01*
X0182466Y0108257D01*
X0182725Y0108114D01*
X0182987Y0107976D01*
X0183252Y0107845D01*
X0183521Y0107721D01*
X0183792Y0107603D01*
X0184066Y0107492D01*
X0184343Y0107388D01*
X0184623Y0107290D01*
X0184904Y0107199D01*
X0185188Y0107116D01*
X0185474Y0107039D01*
X0185762Y0106969D01*
X0186051Y0106906D01*
X0186341Y0106850D01*
X0186633Y0106802D01*
X0186926Y0106760D01*
X0187220Y0106726D01*
X0187515Y0106699D01*
X0187810Y0106679D01*
X0188106Y0106667D01*
X0188402Y0106661D01*
X0188698Y0106663D01*
X0188994Y0106672D01*
X0189289Y0106688D01*
X0189584Y0106712D01*
X0189878Y0106743D01*
X0190172Y0106781D01*
X0190464Y0106826D01*
X0190756Y0106878D01*
X0191046Y0106937D01*
X0191334Y0107004D01*
X0191621Y0107077D01*
X0191906Y0107158D01*
X0192188Y0107245D01*
X0192469Y0107339D01*
X0192747Y0107440D01*
X0193023Y0107548D01*
X0193295Y0107663D01*
X0193565Y0107784D01*
X0193832Y0107912D01*
X0194096Y0108046D01*
X0194357Y0108187D01*
X0194613Y0108334D01*
X0194867Y0108487D01*
X0195116Y0108646D01*
X0195361Y0108812D01*
X0195603Y0108983D01*
X0195840Y0109160D01*
X0196072Y0109343D01*
X0196300Y0109532D01*
X0196524Y0109726D01*
X0196742Y0109925D01*
X0196956Y0110130D01*
X0197165Y0110340D01*
X0197368Y0110555D01*
X0197566Y0110775D01*
X0197759Y0111000D01*
X0197946Y0111229D01*
X0198127Y0111463D01*
D14*
X0205688Y0127877D02*
X0222106Y0127877D01*
X0222106Y0132877D01*
X0205688Y0132877D01*
X0205688Y0137877D02*
X0222106Y0137877D01*
X0222106Y0141086D01*
X0238523Y0141086D01*
X0238523Y0124669D01*
X0222106Y0124669D01*
X0222106Y0127877D01*
X0222106Y0132877D02*
X0222106Y0137877D01*
X0189696Y0134265D02*
X0189063Y0134265D01*
X0189696Y0134265D02*
X0189736Y0134263D01*
X0189776Y0134257D01*
X0189815Y0134248D01*
X0189853Y0134235D01*
X0189889Y0134218D01*
X0189924Y0134198D01*
X0189957Y0134175D01*
X0189987Y0134148D01*
X0190015Y0134119D01*
X0190040Y0134088D01*
X0190061Y0134054D01*
X0190080Y0134018D01*
X0190095Y0133981D01*
X0190106Y0133942D01*
X0190114Y0133903D01*
X0190118Y0133863D01*
X0190118Y0133823D01*
X0190114Y0133783D01*
X0190106Y0133744D01*
X0190095Y0133705D01*
X0190080Y0133668D01*
X0190061Y0133632D01*
X0190040Y0133598D01*
X0190015Y0133567D01*
X0189987Y0133538D01*
X0189957Y0133511D01*
X0189924Y0133488D01*
X0189889Y0133468D01*
X0189853Y0133451D01*
X0189815Y0133438D01*
X0189776Y0133429D01*
X0189736Y0133423D01*
X0189696Y0133421D01*
X0189274Y0133421D01*
X0189590Y0133421D02*
X0189635Y0133419D01*
X0189679Y0133413D01*
X0189723Y0133404D01*
X0189766Y0133391D01*
X0189807Y0133374D01*
X0189848Y0133354D01*
X0189886Y0133330D01*
X0189922Y0133304D01*
X0189955Y0133274D01*
X0189986Y0133242D01*
X0190015Y0133207D01*
X0190040Y0133170D01*
X0190061Y0133131D01*
X0190080Y0133090D01*
X0190095Y0133048D01*
X0190106Y0133004D01*
X0190114Y0132960D01*
X0190118Y0132915D01*
X0190118Y0132871D01*
X0190114Y0132826D01*
X0190106Y0132782D01*
X0190095Y0132738D01*
X0190080Y0132696D01*
X0190061Y0132655D01*
X0190040Y0132616D01*
X0190015Y0132579D01*
X0189986Y0132544D01*
X0189955Y0132512D01*
X0189922Y0132482D01*
X0189886Y0132456D01*
X0189848Y0132432D01*
X0189807Y0132412D01*
X0189766Y0132395D01*
X0189723Y0132382D01*
X0189679Y0132373D01*
X0189635Y0132367D01*
X0189590Y0132365D01*
X0189063Y0132365D01*
X0187886Y0132893D02*
X0187886Y0133738D01*
X0187884Y0133782D01*
X0187879Y0133825D01*
X0187870Y0133868D01*
X0187857Y0133909D01*
X0187842Y0133950D01*
X0187822Y0133989D01*
X0187800Y0134027D01*
X0187775Y0134062D01*
X0187746Y0134096D01*
X0187716Y0134126D01*
X0187682Y0134155D01*
X0187647Y0134180D01*
X0187609Y0134202D01*
X0187570Y0134222D01*
X0187529Y0134237D01*
X0187488Y0134250D01*
X0187445Y0134259D01*
X0187402Y0134264D01*
X0187358Y0134266D01*
X0187358Y0134265D02*
X0186831Y0134265D01*
X0186831Y0132365D01*
X0187358Y0132365D01*
X0187402Y0132367D01*
X0187445Y0132372D01*
X0187488Y0132381D01*
X0187529Y0132394D01*
X0187570Y0132409D01*
X0187609Y0132429D01*
X0187647Y0132451D01*
X0187682Y0132476D01*
X0187716Y0132505D01*
X0187746Y0132535D01*
X0187775Y0132569D01*
X0187800Y0132604D01*
X0187822Y0132642D01*
X0187842Y0132681D01*
X0187857Y0132722D01*
X0187870Y0132763D01*
X0187879Y0132806D01*
X0187884Y0132849D01*
X0187886Y0132893D01*
X0163365Y0136429D02*
X0160865Y0136429D01*
X0162990Y0138929D01*
X0162240Y0140928D02*
X0162167Y0140926D01*
X0162095Y0140921D01*
X0162023Y0140912D01*
X0161951Y0140899D01*
X0161880Y0140883D01*
X0161810Y0140863D01*
X0161742Y0140839D01*
X0161674Y0140813D01*
X0161608Y0140782D01*
X0161543Y0140749D01*
X0161481Y0140712D01*
X0161420Y0140673D01*
X0161361Y0140630D01*
X0161304Y0140584D01*
X0161250Y0140536D01*
X0161199Y0140485D01*
X0161149Y0140431D01*
X0161103Y0140375D01*
X0161060Y0140317D01*
X0161019Y0140256D01*
X0160982Y0140194D01*
X0160948Y0140130D01*
X0160917Y0140064D01*
X0160889Y0139997D01*
X0160865Y0139928D01*
X0162989Y0138929D02*
X0163035Y0138975D01*
X0163079Y0139024D01*
X0163119Y0139075D01*
X0163157Y0139128D01*
X0163192Y0139183D01*
X0163224Y0139240D01*
X0163253Y0139298D01*
X0163279Y0139358D01*
X0163301Y0139420D01*
X0163320Y0139482D01*
X0163336Y0139545D01*
X0163348Y0139609D01*
X0163357Y0139674D01*
X0163362Y0139739D01*
X0163364Y0139804D01*
X0163365Y0139804D02*
X0163363Y0139869D01*
X0163357Y0139935D01*
X0163348Y0139999D01*
X0163335Y0140063D01*
X0163318Y0140127D01*
X0163297Y0140189D01*
X0163273Y0140250D01*
X0163245Y0140309D01*
X0163214Y0140367D01*
X0163180Y0140422D01*
X0163142Y0140476D01*
X0163102Y0140527D01*
X0163058Y0140576D01*
X0163012Y0140622D01*
X0162963Y0140666D01*
X0162912Y0140706D01*
X0162858Y0140744D01*
X0162803Y0140778D01*
X0162745Y0140809D01*
X0162686Y0140837D01*
X0162625Y0140861D01*
X0162563Y0140882D01*
X0162499Y0140899D01*
X0162435Y0140912D01*
X0162371Y0140921D01*
X0162305Y0140927D01*
X0162240Y0140929D01*
X0157897Y0138429D02*
X0158897Y0136429D01*
X0157647Y0138429D02*
X0156397Y0138429D01*
X0157647Y0138429D02*
X0157716Y0138431D01*
X0157785Y0138437D01*
X0157853Y0138446D01*
X0157920Y0138459D01*
X0157987Y0138476D01*
X0158053Y0138497D01*
X0158117Y0138521D01*
X0158180Y0138549D01*
X0158242Y0138580D01*
X0158302Y0138614D01*
X0158359Y0138652D01*
X0158415Y0138693D01*
X0158468Y0138736D01*
X0158519Y0138783D01*
X0158567Y0138832D01*
X0158612Y0138884D01*
X0158654Y0138939D01*
X0158693Y0138995D01*
X0158730Y0139054D01*
X0158762Y0139115D01*
X0158792Y0139177D01*
X0158818Y0139241D01*
X0158840Y0139306D01*
X0158859Y0139372D01*
X0158874Y0139439D01*
X0158885Y0139507D01*
X0158893Y0139576D01*
X0158897Y0139645D01*
X0158897Y0139713D01*
X0158893Y0139782D01*
X0158885Y0139851D01*
X0158874Y0139919D01*
X0158859Y0139986D01*
X0158840Y0140052D01*
X0158818Y0140117D01*
X0158792Y0140181D01*
X0158762Y0140243D01*
X0158730Y0140304D01*
X0158693Y0140363D01*
X0158654Y0140419D01*
X0158612Y0140474D01*
X0158567Y0140526D01*
X0158519Y0140575D01*
X0158468Y0140622D01*
X0158415Y0140665D01*
X0158359Y0140706D01*
X0158302Y0140744D01*
X0158242Y0140778D01*
X0158180Y0140809D01*
X0158117Y0140837D01*
X0158053Y0140861D01*
X0157987Y0140882D01*
X0157920Y0140899D01*
X0157853Y0140912D01*
X0157785Y0140921D01*
X0157716Y0140927D01*
X0157647Y0140929D01*
X0156397Y0140929D01*
X0156397Y0136429D01*
X0146394Y0141489D02*
X0143894Y0141489D01*
X0144894Y0144989D01*
X0145644Y0142489D02*
X0145644Y0140489D01*
X0141926Y0140489D02*
X0140926Y0142489D01*
X0140676Y0142489D02*
X0139426Y0142489D01*
X0140676Y0142489D02*
X0140745Y0142491D01*
X0140814Y0142497D01*
X0140882Y0142506D01*
X0140949Y0142519D01*
X0141016Y0142536D01*
X0141082Y0142557D01*
X0141146Y0142581D01*
X0141209Y0142609D01*
X0141271Y0142640D01*
X0141331Y0142674D01*
X0141388Y0142712D01*
X0141444Y0142753D01*
X0141497Y0142796D01*
X0141548Y0142843D01*
X0141596Y0142892D01*
X0141641Y0142944D01*
X0141683Y0142999D01*
X0141722Y0143055D01*
X0141759Y0143114D01*
X0141791Y0143175D01*
X0141821Y0143237D01*
X0141847Y0143301D01*
X0141869Y0143366D01*
X0141888Y0143432D01*
X0141903Y0143499D01*
X0141914Y0143567D01*
X0141922Y0143636D01*
X0141926Y0143705D01*
X0141926Y0143773D01*
X0141922Y0143842D01*
X0141914Y0143911D01*
X0141903Y0143979D01*
X0141888Y0144046D01*
X0141869Y0144112D01*
X0141847Y0144177D01*
X0141821Y0144241D01*
X0141791Y0144303D01*
X0141759Y0144364D01*
X0141722Y0144423D01*
X0141683Y0144479D01*
X0141641Y0144534D01*
X0141596Y0144586D01*
X0141548Y0144635D01*
X0141497Y0144682D01*
X0141444Y0144725D01*
X0141388Y0144766D01*
X0141331Y0144804D01*
X0141271Y0144838D01*
X0141209Y0144869D01*
X0141146Y0144897D01*
X0141082Y0144921D01*
X0141016Y0144942D01*
X0140949Y0144959D01*
X0140882Y0144972D01*
X0140814Y0144981D01*
X0140745Y0144987D01*
X0140676Y0144989D01*
X0139426Y0144989D01*
X0139426Y0140489D01*
X0156333Y0116312D02*
X0157583Y0116312D01*
X0156333Y0116312D02*
X0156333Y0111812D01*
X0156333Y0113812D02*
X0157583Y0113812D01*
X0157833Y0113812D02*
X0158833Y0111812D01*
X0160801Y0111812D02*
X0162301Y0111812D01*
X0162361Y0111814D01*
X0162422Y0111819D01*
X0162481Y0111828D01*
X0162540Y0111841D01*
X0162599Y0111857D01*
X0162656Y0111877D01*
X0162711Y0111900D01*
X0162766Y0111927D01*
X0162818Y0111956D01*
X0162869Y0111989D01*
X0162918Y0112025D01*
X0162964Y0112063D01*
X0163008Y0112105D01*
X0163050Y0112149D01*
X0163088Y0112195D01*
X0163124Y0112244D01*
X0163157Y0112295D01*
X0163186Y0112347D01*
X0163213Y0112402D01*
X0163236Y0112457D01*
X0163256Y0112514D01*
X0163272Y0112573D01*
X0163285Y0112632D01*
X0163294Y0112691D01*
X0163299Y0112752D01*
X0163301Y0112812D01*
X0163301Y0113312D01*
X0163299Y0113372D01*
X0163294Y0113433D01*
X0163285Y0113492D01*
X0163272Y0113551D01*
X0163256Y0113610D01*
X0163236Y0113667D01*
X0163213Y0113722D01*
X0163186Y0113777D01*
X0163157Y0113829D01*
X0163124Y0113880D01*
X0163088Y0113929D01*
X0163050Y0113975D01*
X0163008Y0114019D01*
X0162964Y0114061D01*
X0162918Y0114099D01*
X0162869Y0114135D01*
X0162818Y0114168D01*
X0162766Y0114197D01*
X0162711Y0114224D01*
X0162656Y0114247D01*
X0162599Y0114267D01*
X0162540Y0114283D01*
X0162481Y0114296D01*
X0162422Y0114305D01*
X0162361Y0114310D01*
X0162301Y0114312D01*
X0160801Y0114312D01*
X0160801Y0116312D01*
X0163301Y0116312D01*
X0157583Y0116312D02*
X0157652Y0116310D01*
X0157721Y0116304D01*
X0157789Y0116295D01*
X0157856Y0116282D01*
X0157923Y0116265D01*
X0157989Y0116244D01*
X0158053Y0116220D01*
X0158116Y0116192D01*
X0158178Y0116161D01*
X0158238Y0116127D01*
X0158295Y0116089D01*
X0158351Y0116048D01*
X0158404Y0116005D01*
X0158455Y0115958D01*
X0158503Y0115909D01*
X0158548Y0115857D01*
X0158590Y0115802D01*
X0158629Y0115746D01*
X0158666Y0115687D01*
X0158698Y0115626D01*
X0158728Y0115564D01*
X0158754Y0115500D01*
X0158776Y0115435D01*
X0158795Y0115369D01*
X0158810Y0115302D01*
X0158821Y0115234D01*
X0158829Y0115165D01*
X0158833Y0115096D01*
X0158833Y0115028D01*
X0158829Y0114959D01*
X0158821Y0114890D01*
X0158810Y0114822D01*
X0158795Y0114755D01*
X0158776Y0114689D01*
X0158754Y0114624D01*
X0158728Y0114560D01*
X0158698Y0114498D01*
X0158666Y0114437D01*
X0158629Y0114378D01*
X0158590Y0114322D01*
X0158548Y0114267D01*
X0158503Y0114215D01*
X0158455Y0114166D01*
X0158404Y0114119D01*
X0158351Y0114076D01*
X0158295Y0114035D01*
X0158238Y0113997D01*
X0158178Y0113963D01*
X0158116Y0113932D01*
X0158053Y0113904D01*
X0157989Y0113880D01*
X0157923Y0113859D01*
X0157856Y0113842D01*
X0157789Y0113829D01*
X0157721Y0113820D01*
X0157652Y0113814D01*
X0157583Y0113812D01*
X0176180Y0097095D02*
X0177658Y0096672D01*
X0177658Y0097728D01*
X0177236Y0097411D02*
X0178080Y0097411D01*
X0177658Y0095512D02*
X0176180Y0095512D01*
X0177658Y0095512D02*
X0177697Y0095510D01*
X0177736Y0095505D01*
X0177773Y0095496D01*
X0177810Y0095484D01*
X0177846Y0095468D01*
X0177880Y0095449D01*
X0177912Y0095427D01*
X0177942Y0095402D01*
X0177970Y0095374D01*
X0177995Y0095344D01*
X0178017Y0095312D01*
X0178036Y0095278D01*
X0178052Y0095242D01*
X0178064Y0095205D01*
X0178073Y0095168D01*
X0178078Y0095129D01*
X0178080Y0095090D01*
X0178080Y0094878D01*
X0186470Y0163280D02*
X0186998Y0163280D01*
X0186470Y0163280D02*
X0186470Y0165180D01*
X0186998Y0165180D01*
X0186998Y0165181D02*
X0187042Y0165179D01*
X0187085Y0165174D01*
X0187128Y0165165D01*
X0187169Y0165152D01*
X0187210Y0165137D01*
X0187249Y0165117D01*
X0187287Y0165095D01*
X0187322Y0165070D01*
X0187356Y0165041D01*
X0187386Y0165011D01*
X0187415Y0164977D01*
X0187440Y0164942D01*
X0187462Y0164904D01*
X0187482Y0164865D01*
X0187497Y0164824D01*
X0187510Y0164783D01*
X0187519Y0164740D01*
X0187524Y0164697D01*
X0187526Y0164653D01*
X0187525Y0164653D02*
X0187525Y0163808D01*
X0187526Y0163808D02*
X0187524Y0163764D01*
X0187519Y0163721D01*
X0187510Y0163678D01*
X0187497Y0163637D01*
X0187482Y0163596D01*
X0187462Y0163557D01*
X0187440Y0163519D01*
X0187415Y0163484D01*
X0187386Y0163450D01*
X0187356Y0163420D01*
X0187322Y0163391D01*
X0187287Y0163366D01*
X0187249Y0163344D01*
X0187210Y0163324D01*
X0187169Y0163309D01*
X0187128Y0163296D01*
X0187085Y0163287D01*
X0187042Y0163282D01*
X0186998Y0163280D01*
X0188702Y0163280D02*
X0189757Y0163280D01*
X0189230Y0163280D02*
X0189230Y0165180D01*
X0188702Y0164758D01*
X0092344Y0210359D02*
X0087844Y0210359D01*
X0087844Y0211609D01*
X0087846Y0211678D01*
X0087852Y0211747D01*
X0087861Y0211815D01*
X0087874Y0211882D01*
X0087891Y0211949D01*
X0087912Y0212015D01*
X0087936Y0212079D01*
X0087964Y0212142D01*
X0087995Y0212204D01*
X0088029Y0212264D01*
X0088067Y0212321D01*
X0088108Y0212377D01*
X0088151Y0212430D01*
X0088198Y0212481D01*
X0088247Y0212529D01*
X0088299Y0212574D01*
X0088354Y0212616D01*
X0088410Y0212655D01*
X0088469Y0212692D01*
X0088530Y0212724D01*
X0088592Y0212754D01*
X0088656Y0212780D01*
X0088721Y0212802D01*
X0088787Y0212821D01*
X0088854Y0212836D01*
X0088922Y0212847D01*
X0088991Y0212855D01*
X0089060Y0212859D01*
X0089128Y0212859D01*
X0089197Y0212855D01*
X0089266Y0212847D01*
X0089334Y0212836D01*
X0089401Y0212821D01*
X0089467Y0212802D01*
X0089532Y0212780D01*
X0089596Y0212754D01*
X0089658Y0212724D01*
X0089719Y0212692D01*
X0089778Y0212655D01*
X0089834Y0212616D01*
X0089889Y0212574D01*
X0089941Y0212529D01*
X0089990Y0212481D01*
X0090037Y0212430D01*
X0090080Y0212377D01*
X0090121Y0212321D01*
X0090159Y0212264D01*
X0090193Y0212204D01*
X0090224Y0212142D01*
X0090252Y0212079D01*
X0090276Y0212015D01*
X0090297Y0211949D01*
X0090314Y0211882D01*
X0090327Y0211815D01*
X0090336Y0211747D01*
X0090342Y0211678D01*
X0090344Y0211609D01*
X0090344Y0210359D01*
X0090344Y0211859D02*
X0092344Y0212859D01*
X0092344Y0214826D02*
X0092344Y0216076D01*
X0092342Y0216145D01*
X0092336Y0216214D01*
X0092327Y0216282D01*
X0092314Y0216349D01*
X0092297Y0216416D01*
X0092276Y0216482D01*
X0092252Y0216546D01*
X0092224Y0216609D01*
X0092193Y0216671D01*
X0092159Y0216731D01*
X0092121Y0216788D01*
X0092080Y0216844D01*
X0092037Y0216897D01*
X0091990Y0216948D01*
X0091941Y0216996D01*
X0091889Y0217041D01*
X0091834Y0217083D01*
X0091778Y0217122D01*
X0091719Y0217159D01*
X0091658Y0217191D01*
X0091596Y0217221D01*
X0091532Y0217247D01*
X0091467Y0217269D01*
X0091401Y0217288D01*
X0091334Y0217303D01*
X0091266Y0217314D01*
X0091197Y0217322D01*
X0091128Y0217326D01*
X0091060Y0217326D01*
X0090991Y0217322D01*
X0090922Y0217314D01*
X0090854Y0217303D01*
X0090787Y0217288D01*
X0090721Y0217269D01*
X0090656Y0217247D01*
X0090592Y0217221D01*
X0090530Y0217191D01*
X0090469Y0217159D01*
X0090410Y0217122D01*
X0090354Y0217083D01*
X0090299Y0217041D01*
X0090247Y0216996D01*
X0090198Y0216948D01*
X0090151Y0216897D01*
X0090108Y0216844D01*
X0090067Y0216788D01*
X0090029Y0216731D01*
X0089995Y0216671D01*
X0089964Y0216609D01*
X0089936Y0216546D01*
X0089912Y0216482D01*
X0089891Y0216416D01*
X0089874Y0216349D01*
X0089861Y0216282D01*
X0089852Y0216214D01*
X0089846Y0216145D01*
X0089844Y0216076D01*
X0089844Y0216326D02*
X0089844Y0215326D01*
X0089844Y0216326D02*
X0089842Y0216388D01*
X0089836Y0216449D01*
X0089827Y0216510D01*
X0089814Y0216570D01*
X0089797Y0216629D01*
X0089776Y0216687D01*
X0089752Y0216744D01*
X0089725Y0216799D01*
X0089694Y0216852D01*
X0089660Y0216904D01*
X0089623Y0216953D01*
X0089583Y0217000D01*
X0089540Y0217044D01*
X0089495Y0217085D01*
X0089447Y0217124D01*
X0089396Y0217160D01*
X0089344Y0217192D01*
X0089290Y0217221D01*
X0089234Y0217247D01*
X0089176Y0217269D01*
X0089118Y0217288D01*
X0089058Y0217303D01*
X0088997Y0217314D01*
X0088936Y0217322D01*
X0088875Y0217326D01*
X0088813Y0217326D01*
X0088752Y0217322D01*
X0088691Y0217314D01*
X0088630Y0217303D01*
X0088570Y0217288D01*
X0088512Y0217269D01*
X0088454Y0217247D01*
X0088398Y0217221D01*
X0088344Y0217192D01*
X0088292Y0217160D01*
X0088241Y0217124D01*
X0088193Y0217085D01*
X0088148Y0217044D01*
X0088105Y0217000D01*
X0088065Y0216953D01*
X0088028Y0216904D01*
X0087994Y0216852D01*
X0087963Y0216799D01*
X0087936Y0216744D01*
X0087912Y0216687D01*
X0087891Y0216629D01*
X0087874Y0216570D01*
X0087861Y0216510D01*
X0087852Y0216449D01*
X0087846Y0216388D01*
X0087844Y0216326D01*
X0087844Y0214826D01*
X0042589Y0095863D02*
X0030778Y0095863D01*
X0030778Y0091926D01*
X0040620Y0091926D02*
X0040620Y0089957D01*
X0058337Y0089957D01*
X0058337Y0089958D02*
X0058424Y0089956D01*
X0058511Y0089950D01*
X0058598Y0089941D01*
X0058684Y0089927D01*
X0058769Y0089910D01*
X0058854Y0089889D01*
X0058937Y0089864D01*
X0059020Y0089836D01*
X0059101Y0089804D01*
X0059180Y0089768D01*
X0059258Y0089729D01*
X0059334Y0089687D01*
X0059408Y0089641D01*
X0059480Y0089592D01*
X0059550Y0089540D01*
X0059617Y0089485D01*
X0059682Y0089427D01*
X0059745Y0089366D01*
X0059804Y0089302D01*
X0059861Y0089236D01*
X0059914Y0089167D01*
X0059965Y0089096D01*
X0060012Y0089023D01*
X0060057Y0088948D01*
X0060097Y0088871D01*
X0060135Y0088793D01*
X0060168Y0088712D01*
X0060199Y0088631D01*
X0060225Y0088548D01*
X0060248Y0088463D01*
X0060267Y0088378D01*
X0060282Y0088293D01*
X0060294Y0088206D01*
X0060302Y0088120D01*
X0060306Y0088033D01*
X0060306Y0087945D01*
X0060302Y0087858D01*
X0060294Y0087772D01*
X0060282Y0087685D01*
X0060267Y0087600D01*
X0060248Y0087515D01*
X0060225Y0087430D01*
X0060199Y0087347D01*
X0060168Y0087266D01*
X0060135Y0087185D01*
X0060097Y0087107D01*
X0060057Y0087030D01*
X0060012Y0086955D01*
X0059965Y0086882D01*
X0059914Y0086811D01*
X0059861Y0086742D01*
X0059804Y0086676D01*
X0059745Y0086612D01*
X0059682Y0086551D01*
X0059617Y0086493D01*
X0059550Y0086438D01*
X0059480Y0086386D01*
X0059408Y0086337D01*
X0059334Y0086291D01*
X0059258Y0086249D01*
X0059180Y0086210D01*
X0059101Y0086174D01*
X0059020Y0086142D01*
X0058937Y0086114D01*
X0058854Y0086089D01*
X0058769Y0086068D01*
X0058684Y0086051D01*
X0058598Y0086037D01*
X0058511Y0086028D01*
X0058424Y0086022D01*
X0058337Y0086020D01*
X0040620Y0086020D01*
X0040620Y0089957D01*
X0040620Y0091926D02*
X0015030Y0091926D01*
X0015030Y0068304D01*
X0007156Y0068304D01*
X0007156Y0070272D01*
X0003219Y0070272D01*
X0003219Y0074209D01*
X0002234Y0074209D01*
X0001250Y0073225D01*
X0001250Y0071256D01*
X0002234Y0070272D01*
X0003219Y0070272D01*
X0007156Y0070272D02*
X0007156Y0074209D01*
X0003219Y0074209D01*
X0007156Y0074209D02*
X0007156Y0086020D01*
X0003219Y0086020D01*
X0003219Y0089957D01*
X0002234Y0089957D01*
X0001250Y0088973D01*
X0001250Y0087004D01*
X0002234Y0086020D01*
X0003219Y0086020D01*
X0007156Y0086020D02*
X0007156Y0089957D01*
X0003219Y0089957D01*
X0007156Y0089957D02*
X0007156Y0091926D01*
X0015030Y0091926D01*
X0015030Y0068304D02*
X0040620Y0068304D01*
X0040620Y0070272D01*
X0058337Y0070272D01*
X0058424Y0070274D01*
X0058511Y0070280D01*
X0058598Y0070289D01*
X0058684Y0070303D01*
X0058769Y0070320D01*
X0058854Y0070341D01*
X0058937Y0070366D01*
X0059020Y0070394D01*
X0059101Y0070426D01*
X0059180Y0070462D01*
X0059258Y0070501D01*
X0059334Y0070543D01*
X0059408Y0070589D01*
X0059480Y0070638D01*
X0059550Y0070690D01*
X0059617Y0070745D01*
X0059682Y0070803D01*
X0059745Y0070864D01*
X0059804Y0070928D01*
X0059861Y0070994D01*
X0059914Y0071063D01*
X0059965Y0071134D01*
X0060012Y0071207D01*
X0060057Y0071282D01*
X0060097Y0071359D01*
X0060135Y0071437D01*
X0060168Y0071518D01*
X0060199Y0071599D01*
X0060225Y0071682D01*
X0060248Y0071767D01*
X0060267Y0071852D01*
X0060282Y0071937D01*
X0060294Y0072024D01*
X0060302Y0072110D01*
X0060306Y0072197D01*
X0060306Y0072285D01*
X0060302Y0072372D01*
X0060294Y0072458D01*
X0060282Y0072545D01*
X0060267Y0072630D01*
X0060248Y0072715D01*
X0060225Y0072800D01*
X0060199Y0072883D01*
X0060168Y0072964D01*
X0060135Y0073045D01*
X0060097Y0073123D01*
X0060057Y0073200D01*
X0060012Y0073275D01*
X0059965Y0073348D01*
X0059914Y0073419D01*
X0059861Y0073488D01*
X0059804Y0073554D01*
X0059745Y0073618D01*
X0059682Y0073679D01*
X0059617Y0073737D01*
X0059550Y0073792D01*
X0059480Y0073844D01*
X0059408Y0073893D01*
X0059334Y0073939D01*
X0059258Y0073981D01*
X0059180Y0074020D01*
X0059101Y0074056D01*
X0059020Y0074088D01*
X0058937Y0074116D01*
X0058854Y0074141D01*
X0058769Y0074162D01*
X0058684Y0074179D01*
X0058598Y0074193D01*
X0058511Y0074202D01*
X0058424Y0074208D01*
X0058337Y0074210D01*
X0058337Y0074209D02*
X0040620Y0074209D01*
X0040620Y0076178D01*
X0042589Y0076178D01*
X0042589Y0084052D01*
X0040620Y0084052D01*
X0040620Y0086020D01*
X0040620Y0091926D02*
X0042589Y0091926D01*
X0042589Y0095863D01*
X0040620Y0074209D02*
X0040620Y0070272D01*
X0040620Y0068304D02*
X0042589Y0068304D01*
X0042589Y0064367D01*
X0030778Y0064367D01*
X0030778Y0068304D01*
D15*
X0101559Y0178645D02*
X0101561Y0178794D01*
X0101567Y0178944D01*
X0101577Y0179093D01*
X0101591Y0179242D01*
X0101609Y0179390D01*
X0101631Y0179538D01*
X0101657Y0179685D01*
X0101686Y0179832D01*
X0101720Y0179977D01*
X0101758Y0180122D01*
X0101799Y0180265D01*
X0101844Y0180408D01*
X0101893Y0180549D01*
X0101946Y0180689D01*
X0102003Y0180827D01*
X0102063Y0180964D01*
X0102127Y0181099D01*
X0102194Y0181233D01*
X0102265Y0181364D01*
X0102339Y0181494D01*
X0102417Y0181621D01*
X0102498Y0181747D01*
X0102583Y0181870D01*
X0102671Y0181991D01*
X0102762Y0182109D01*
X0102856Y0182225D01*
X0102953Y0182339D01*
X0103054Y0182450D01*
X0103157Y0182558D01*
X0103263Y0182663D01*
X0103372Y0182766D01*
X0103483Y0182865D01*
X0103597Y0182962D01*
X0103714Y0183055D01*
X0103833Y0183145D01*
X0103955Y0183232D01*
X0104078Y0183316D01*
X0104204Y0183397D01*
X0104332Y0183474D01*
X0104463Y0183547D01*
X0104595Y0183617D01*
X0104728Y0183684D01*
X0104864Y0183747D01*
X0105001Y0183806D01*
X0105140Y0183861D01*
X0105280Y0183913D01*
X0105422Y0183961D01*
X0105564Y0184006D01*
X0105708Y0184046D01*
X0105853Y0184083D01*
X0105999Y0184115D01*
X0106146Y0184144D01*
X0106293Y0184169D01*
X0106441Y0184190D01*
X0106589Y0184207D01*
X0106738Y0184220D01*
X0106888Y0184229D01*
X0107037Y0184234D01*
X0107186Y0184235D01*
X0107336Y0184232D01*
X0107485Y0184225D01*
X0107634Y0184214D01*
X0107783Y0184199D01*
X0107931Y0184180D01*
X0108079Y0184157D01*
X0108226Y0184130D01*
X0108372Y0184100D01*
X0108517Y0184065D01*
X0108662Y0184026D01*
X0108805Y0183984D01*
X0108947Y0183938D01*
X0109088Y0183888D01*
X0109228Y0183834D01*
X0109366Y0183777D01*
X0109502Y0183716D01*
X0109637Y0183651D01*
X0109770Y0183583D01*
X0109901Y0183511D01*
X0110030Y0183435D01*
X0110157Y0183357D01*
X0110282Y0183275D01*
X0110404Y0183189D01*
X0110525Y0183101D01*
X0110643Y0183009D01*
X0110758Y0182914D01*
X0110871Y0182816D01*
X0110981Y0182715D01*
X0111088Y0182611D01*
X0111193Y0182504D01*
X0111295Y0182395D01*
X0111394Y0182283D01*
X0111489Y0182168D01*
X0111582Y0182050D01*
X0111671Y0181931D01*
X0111758Y0181809D01*
X0111841Y0181684D01*
X0111920Y0181558D01*
X0111996Y0181429D01*
X0112069Y0181299D01*
X0112138Y0181166D01*
X0112204Y0181032D01*
X0112266Y0180896D01*
X0112324Y0180758D01*
X0112379Y0180619D01*
X0112430Y0180479D01*
X0112477Y0180337D01*
X0112520Y0180194D01*
X0112560Y0180050D01*
X0112595Y0179904D01*
X0112627Y0179758D01*
X0112655Y0179612D01*
X0112679Y0179464D01*
X0112699Y0179316D01*
X0112715Y0179167D01*
X0112727Y0179018D01*
X0112735Y0178869D01*
X0112739Y0178720D01*
X0112739Y0178570D01*
X0112735Y0178421D01*
X0112727Y0178272D01*
X0112715Y0178123D01*
X0112699Y0177974D01*
X0112679Y0177826D01*
X0112655Y0177678D01*
X0112627Y0177532D01*
X0112595Y0177386D01*
X0112560Y0177240D01*
X0112520Y0177096D01*
X0112477Y0176953D01*
X0112430Y0176811D01*
X0112379Y0176671D01*
X0112324Y0176532D01*
X0112266Y0176394D01*
X0112204Y0176258D01*
X0112138Y0176124D01*
X0112069Y0175991D01*
X0111996Y0175861D01*
X0111920Y0175732D01*
X0111841Y0175606D01*
X0111758Y0175481D01*
X0111671Y0175359D01*
X0111582Y0175240D01*
X0111489Y0175122D01*
X0111394Y0175007D01*
X0111295Y0174895D01*
X0111193Y0174786D01*
X0111088Y0174679D01*
X0110981Y0174575D01*
X0110871Y0174474D01*
X0110758Y0174376D01*
X0110643Y0174281D01*
X0110525Y0174189D01*
X0110404Y0174101D01*
X0110282Y0174015D01*
X0110157Y0173933D01*
X0110030Y0173855D01*
X0109901Y0173779D01*
X0109770Y0173707D01*
X0109637Y0173639D01*
X0109502Y0173574D01*
X0109366Y0173513D01*
X0109228Y0173456D01*
X0109088Y0173402D01*
X0108947Y0173352D01*
X0108805Y0173306D01*
X0108662Y0173264D01*
X0108517Y0173225D01*
X0108372Y0173190D01*
X0108226Y0173160D01*
X0108079Y0173133D01*
X0107931Y0173110D01*
X0107783Y0173091D01*
X0107634Y0173076D01*
X0107485Y0173065D01*
X0107336Y0173058D01*
X0107186Y0173055D01*
X0107037Y0173056D01*
X0106888Y0173061D01*
X0106738Y0173070D01*
X0106589Y0173083D01*
X0106441Y0173100D01*
X0106293Y0173121D01*
X0106146Y0173146D01*
X0105999Y0173175D01*
X0105853Y0173207D01*
X0105708Y0173244D01*
X0105564Y0173284D01*
X0105422Y0173329D01*
X0105280Y0173377D01*
X0105140Y0173429D01*
X0105001Y0173484D01*
X0104864Y0173543D01*
X0104728Y0173606D01*
X0104595Y0173673D01*
X0104463Y0173743D01*
X0104332Y0173816D01*
X0104204Y0173893D01*
X0104078Y0173974D01*
X0103955Y0174058D01*
X0103833Y0174145D01*
X0103714Y0174235D01*
X0103597Y0174328D01*
X0103483Y0174425D01*
X0103372Y0174524D01*
X0103263Y0174627D01*
X0103157Y0174732D01*
X0103054Y0174840D01*
X0102953Y0174951D01*
X0102856Y0175065D01*
X0102762Y0175181D01*
X0102671Y0175299D01*
X0102583Y0175420D01*
X0102498Y0175543D01*
X0102417Y0175669D01*
X0102339Y0175796D01*
X0102265Y0175926D01*
X0102194Y0176057D01*
X0102127Y0176191D01*
X0102063Y0176326D01*
X0102003Y0176463D01*
X0101946Y0176601D01*
X0101893Y0176741D01*
X0101844Y0176882D01*
X0101799Y0177025D01*
X0101758Y0177168D01*
X0101720Y0177313D01*
X0101686Y0177458D01*
X0101657Y0177605D01*
X0101631Y0177752D01*
X0101609Y0177900D01*
X0101591Y0178048D01*
X0101577Y0178197D01*
X0101567Y0178346D01*
X0101561Y0178496D01*
X0101559Y0178645D01*
X0092149Y0178645D02*
X0092154Y0179013D01*
X0092167Y0179381D01*
X0092190Y0179748D01*
X0092221Y0180115D01*
X0092262Y0180481D01*
X0092311Y0180846D01*
X0092370Y0181209D01*
X0092437Y0181571D01*
X0092513Y0181932D01*
X0092599Y0182290D01*
X0092692Y0182646D01*
X0092795Y0182999D01*
X0092906Y0183350D01*
X0093026Y0183698D01*
X0093154Y0184043D01*
X0093291Y0184385D01*
X0093436Y0184724D01*
X0093589Y0185058D01*
X0093751Y0185389D01*
X0093920Y0185716D01*
X0094098Y0186038D01*
X0094283Y0186357D01*
X0094476Y0186670D01*
X0094677Y0186979D01*
X0094885Y0187282D01*
X0095101Y0187580D01*
X0095324Y0187873D01*
X0095554Y0188161D01*
X0095791Y0188443D01*
X0096035Y0188718D01*
X0096285Y0188988D01*
X0096542Y0189252D01*
X0096806Y0189509D01*
X0097076Y0189759D01*
X0097351Y0190003D01*
X0097633Y0190240D01*
X0097921Y0190470D01*
X0098214Y0190693D01*
X0098512Y0190909D01*
X0098815Y0191117D01*
X0099124Y0191318D01*
X0099437Y0191511D01*
X0099756Y0191696D01*
X0100078Y0191874D01*
X0100405Y0192043D01*
X0100736Y0192205D01*
X0101070Y0192358D01*
X0101409Y0192503D01*
X0101751Y0192640D01*
X0102096Y0192768D01*
X0102444Y0192888D01*
X0102795Y0192999D01*
X0103148Y0193102D01*
X0103504Y0193195D01*
X0103862Y0193281D01*
X0104223Y0193357D01*
X0104585Y0193424D01*
X0104948Y0193483D01*
X0105313Y0193532D01*
X0105679Y0193573D01*
X0106046Y0193604D01*
X0106413Y0193627D01*
X0106781Y0193640D01*
X0107149Y0193645D01*
X0107517Y0193640D01*
X0107885Y0193627D01*
X0108252Y0193604D01*
X0108619Y0193573D01*
X0108985Y0193532D01*
X0109350Y0193483D01*
X0109713Y0193424D01*
X0110075Y0193357D01*
X0110436Y0193281D01*
X0110794Y0193195D01*
X0111150Y0193102D01*
X0111503Y0192999D01*
X0111854Y0192888D01*
X0112202Y0192768D01*
X0112547Y0192640D01*
X0112889Y0192503D01*
X0113228Y0192358D01*
X0113562Y0192205D01*
X0113893Y0192043D01*
X0114220Y0191874D01*
X0114542Y0191696D01*
X0114861Y0191511D01*
X0115174Y0191318D01*
X0115483Y0191117D01*
X0115786Y0190909D01*
X0116084Y0190693D01*
X0116377Y0190470D01*
X0116665Y0190240D01*
X0116947Y0190003D01*
X0117222Y0189759D01*
X0117492Y0189509D01*
X0117756Y0189252D01*
X0118013Y0188988D01*
X0118263Y0188718D01*
X0118507Y0188443D01*
X0118744Y0188161D01*
X0118974Y0187873D01*
X0119197Y0187580D01*
X0119413Y0187282D01*
X0119621Y0186979D01*
X0119822Y0186670D01*
X0120015Y0186357D01*
X0120200Y0186038D01*
X0120378Y0185716D01*
X0120547Y0185389D01*
X0120709Y0185058D01*
X0120862Y0184724D01*
X0121007Y0184385D01*
X0121144Y0184043D01*
X0121272Y0183698D01*
X0121392Y0183350D01*
X0121503Y0182999D01*
X0121606Y0182646D01*
X0121699Y0182290D01*
X0121785Y0181932D01*
X0121861Y0181571D01*
X0121928Y0181209D01*
X0121987Y0180846D01*
X0122036Y0180481D01*
X0122077Y0180115D01*
X0122108Y0179748D01*
X0122131Y0179381D01*
X0122144Y0179013D01*
X0122149Y0178645D01*
X0122144Y0178277D01*
X0122131Y0177909D01*
X0122108Y0177542D01*
X0122077Y0177175D01*
X0122036Y0176809D01*
X0121987Y0176444D01*
X0121928Y0176081D01*
X0121861Y0175719D01*
X0121785Y0175358D01*
X0121699Y0175000D01*
X0121606Y0174644D01*
X0121503Y0174291D01*
X0121392Y0173940D01*
X0121272Y0173592D01*
X0121144Y0173247D01*
X0121007Y0172905D01*
X0120862Y0172566D01*
X0120709Y0172232D01*
X0120547Y0171901D01*
X0120378Y0171574D01*
X0120200Y0171252D01*
X0120015Y0170933D01*
X0119822Y0170620D01*
X0119621Y0170311D01*
X0119413Y0170008D01*
X0119197Y0169710D01*
X0118974Y0169417D01*
X0118744Y0169129D01*
X0118507Y0168847D01*
X0118263Y0168572D01*
X0118013Y0168302D01*
X0117756Y0168038D01*
X0117492Y0167781D01*
X0117222Y0167531D01*
X0116947Y0167287D01*
X0116665Y0167050D01*
X0116377Y0166820D01*
X0116084Y0166597D01*
X0115786Y0166381D01*
X0115483Y0166173D01*
X0115174Y0165972D01*
X0114861Y0165779D01*
X0114542Y0165594D01*
X0114220Y0165416D01*
X0113893Y0165247D01*
X0113562Y0165085D01*
X0113228Y0164932D01*
X0112889Y0164787D01*
X0112547Y0164650D01*
X0112202Y0164522D01*
X0111854Y0164402D01*
X0111503Y0164291D01*
X0111150Y0164188D01*
X0110794Y0164095D01*
X0110436Y0164009D01*
X0110075Y0163933D01*
X0109713Y0163866D01*
X0109350Y0163807D01*
X0108985Y0163758D01*
X0108619Y0163717D01*
X0108252Y0163686D01*
X0107885Y0163663D01*
X0107517Y0163650D01*
X0107149Y0163645D01*
X0106781Y0163650D01*
X0106413Y0163663D01*
X0106046Y0163686D01*
X0105679Y0163717D01*
X0105313Y0163758D01*
X0104948Y0163807D01*
X0104585Y0163866D01*
X0104223Y0163933D01*
X0103862Y0164009D01*
X0103504Y0164095D01*
X0103148Y0164188D01*
X0102795Y0164291D01*
X0102444Y0164402D01*
X0102096Y0164522D01*
X0101751Y0164650D01*
X0101409Y0164787D01*
X0101070Y0164932D01*
X0100736Y0165085D01*
X0100405Y0165247D01*
X0100078Y0165416D01*
X0099756Y0165594D01*
X0099437Y0165779D01*
X0099124Y0165972D01*
X0098815Y0166173D01*
X0098512Y0166381D01*
X0098214Y0166597D01*
X0097921Y0166820D01*
X0097633Y0167050D01*
X0097351Y0167287D01*
X0097076Y0167531D01*
X0096806Y0167781D01*
X0096542Y0168038D01*
X0096285Y0168302D01*
X0096035Y0168572D01*
X0095791Y0168847D01*
X0095554Y0169129D01*
X0095324Y0169417D01*
X0095101Y0169710D01*
X0094885Y0170008D01*
X0094677Y0170311D01*
X0094476Y0170620D01*
X0094283Y0170933D01*
X0094098Y0171252D01*
X0093920Y0171574D01*
X0093751Y0171901D01*
X0093589Y0172232D01*
X0093436Y0172566D01*
X0093291Y0172905D01*
X0093154Y0173247D01*
X0093026Y0173592D01*
X0092906Y0173940D01*
X0092795Y0174291D01*
X0092692Y0174644D01*
X0092599Y0175000D01*
X0092513Y0175358D01*
X0092437Y0175719D01*
X0092370Y0176081D01*
X0092311Y0176444D01*
X0092262Y0176809D01*
X0092221Y0177175D01*
X0092190Y0177542D01*
X0092167Y0177909D01*
X0092154Y0178277D01*
X0092149Y0178645D01*
X0085094Y0193076D02*
X0078094Y0193076D01*
X0078034Y0193078D01*
X0077973Y0193083D01*
X0077914Y0193092D01*
X0077855Y0193105D01*
X0077796Y0193121D01*
X0077739Y0193141D01*
X0077684Y0193164D01*
X0077629Y0193191D01*
X0077577Y0193220D01*
X0077526Y0193253D01*
X0077477Y0193289D01*
X0077431Y0193327D01*
X0077387Y0193369D01*
X0077345Y0193413D01*
X0077307Y0193459D01*
X0077271Y0193508D01*
X0077238Y0193559D01*
X0077209Y0193611D01*
X0077182Y0193666D01*
X0077159Y0193721D01*
X0077139Y0193778D01*
X0077123Y0193837D01*
X0077110Y0193896D01*
X0077101Y0193955D01*
X0077096Y0194016D01*
X0077094Y0194076D01*
X0077094Y0195576D01*
X0077594Y0196076D01*
X0077594Y0215076D01*
X0077094Y0215576D01*
X0077094Y0217076D01*
X0077096Y0217136D01*
X0077101Y0217197D01*
X0077110Y0217256D01*
X0077123Y0217315D01*
X0077139Y0217374D01*
X0077159Y0217431D01*
X0077182Y0217486D01*
X0077209Y0217541D01*
X0077238Y0217593D01*
X0077271Y0217644D01*
X0077307Y0217693D01*
X0077345Y0217739D01*
X0077387Y0217783D01*
X0077431Y0217825D01*
X0077477Y0217863D01*
X0077526Y0217899D01*
X0077577Y0217932D01*
X0077629Y0217961D01*
X0077684Y0217988D01*
X0077739Y0218011D01*
X0077796Y0218031D01*
X0077855Y0218047D01*
X0077914Y0218060D01*
X0077973Y0218069D01*
X0078034Y0218074D01*
X0078094Y0218076D01*
X0085094Y0218076D01*
X0085154Y0218074D01*
X0085215Y0218069D01*
X0085274Y0218060D01*
X0085333Y0218047D01*
X0085392Y0218031D01*
X0085449Y0218011D01*
X0085504Y0217988D01*
X0085559Y0217961D01*
X0085611Y0217932D01*
X0085662Y0217899D01*
X0085711Y0217863D01*
X0085757Y0217825D01*
X0085801Y0217783D01*
X0085843Y0217739D01*
X0085881Y0217693D01*
X0085917Y0217644D01*
X0085950Y0217593D01*
X0085979Y0217541D01*
X0086006Y0217486D01*
X0086029Y0217431D01*
X0086049Y0217374D01*
X0086065Y0217315D01*
X0086078Y0217256D01*
X0086087Y0217197D01*
X0086092Y0217136D01*
X0086094Y0217076D01*
X0086094Y0215576D01*
X0085594Y0215076D01*
X0085594Y0196076D01*
X0086094Y0195576D01*
X0086094Y0194076D01*
X0086092Y0194016D01*
X0086087Y0193955D01*
X0086078Y0193896D01*
X0086065Y0193837D01*
X0086049Y0193778D01*
X0086029Y0193721D01*
X0086006Y0193666D01*
X0085979Y0193611D01*
X0085950Y0193559D01*
X0085917Y0193508D01*
X0085881Y0193459D01*
X0085843Y0193413D01*
X0085801Y0193369D01*
X0085757Y0193327D01*
X0085711Y0193289D01*
X0085662Y0193253D01*
X0085611Y0193220D01*
X0085559Y0193191D01*
X0085504Y0193164D01*
X0085449Y0193141D01*
X0085392Y0193121D01*
X0085333Y0193105D01*
X0085274Y0193092D01*
X0085215Y0193083D01*
X0085154Y0193078D01*
X0085094Y0193076D01*
X0101032Y0218763D02*
X0101034Y0218912D01*
X0101040Y0219062D01*
X0101050Y0219211D01*
X0101064Y0219360D01*
X0101082Y0219508D01*
X0101104Y0219656D01*
X0101130Y0219803D01*
X0101159Y0219950D01*
X0101193Y0220095D01*
X0101231Y0220240D01*
X0101272Y0220383D01*
X0101317Y0220526D01*
X0101366Y0220667D01*
X0101419Y0220807D01*
X0101476Y0220945D01*
X0101536Y0221082D01*
X0101600Y0221217D01*
X0101667Y0221351D01*
X0101738Y0221482D01*
X0101812Y0221612D01*
X0101890Y0221739D01*
X0101971Y0221865D01*
X0102056Y0221988D01*
X0102144Y0222109D01*
X0102235Y0222227D01*
X0102329Y0222343D01*
X0102426Y0222457D01*
X0102527Y0222568D01*
X0102630Y0222676D01*
X0102736Y0222781D01*
X0102845Y0222884D01*
X0102956Y0222983D01*
X0103070Y0223080D01*
X0103187Y0223173D01*
X0103306Y0223263D01*
X0103428Y0223350D01*
X0103551Y0223434D01*
X0103677Y0223515D01*
X0103805Y0223592D01*
X0103936Y0223665D01*
X0104068Y0223735D01*
X0104201Y0223802D01*
X0104337Y0223865D01*
X0104474Y0223924D01*
X0104613Y0223979D01*
X0104753Y0224031D01*
X0104895Y0224079D01*
X0105037Y0224124D01*
X0105181Y0224164D01*
X0105326Y0224201D01*
X0105472Y0224233D01*
X0105619Y0224262D01*
X0105766Y0224287D01*
X0105914Y0224308D01*
X0106062Y0224325D01*
X0106211Y0224338D01*
X0106361Y0224347D01*
X0106510Y0224352D01*
X0106659Y0224353D01*
X0106809Y0224350D01*
X0106958Y0224343D01*
X0107107Y0224332D01*
X0107256Y0224317D01*
X0107404Y0224298D01*
X0107552Y0224275D01*
X0107699Y0224248D01*
X0107845Y0224218D01*
X0107990Y0224183D01*
X0108135Y0224144D01*
X0108278Y0224102D01*
X0108420Y0224056D01*
X0108561Y0224006D01*
X0108701Y0223952D01*
X0108839Y0223895D01*
X0108975Y0223834D01*
X0109110Y0223769D01*
X0109243Y0223701D01*
X0109374Y0223629D01*
X0109503Y0223553D01*
X0109630Y0223475D01*
X0109755Y0223393D01*
X0109877Y0223307D01*
X0109998Y0223219D01*
X0110116Y0223127D01*
X0110231Y0223032D01*
X0110344Y0222934D01*
X0110454Y0222833D01*
X0110561Y0222729D01*
X0110666Y0222622D01*
X0110768Y0222513D01*
X0110867Y0222401D01*
X0110962Y0222286D01*
X0111055Y0222168D01*
X0111144Y0222049D01*
X0111231Y0221927D01*
X0111314Y0221802D01*
X0111393Y0221676D01*
X0111469Y0221547D01*
X0111542Y0221417D01*
X0111611Y0221284D01*
X0111677Y0221150D01*
X0111739Y0221014D01*
X0111797Y0220876D01*
X0111852Y0220737D01*
X0111903Y0220597D01*
X0111950Y0220455D01*
X0111993Y0220312D01*
X0112033Y0220168D01*
X0112068Y0220022D01*
X0112100Y0219876D01*
X0112128Y0219730D01*
X0112152Y0219582D01*
X0112172Y0219434D01*
X0112188Y0219285D01*
X0112200Y0219136D01*
X0112208Y0218987D01*
X0112212Y0218838D01*
X0112212Y0218688D01*
X0112208Y0218539D01*
X0112200Y0218390D01*
X0112188Y0218241D01*
X0112172Y0218092D01*
X0112152Y0217944D01*
X0112128Y0217796D01*
X0112100Y0217650D01*
X0112068Y0217504D01*
X0112033Y0217358D01*
X0111993Y0217214D01*
X0111950Y0217071D01*
X0111903Y0216929D01*
X0111852Y0216789D01*
X0111797Y0216650D01*
X0111739Y0216512D01*
X0111677Y0216376D01*
X0111611Y0216242D01*
X0111542Y0216109D01*
X0111469Y0215979D01*
X0111393Y0215850D01*
X0111314Y0215724D01*
X0111231Y0215599D01*
X0111144Y0215477D01*
X0111055Y0215358D01*
X0110962Y0215240D01*
X0110867Y0215125D01*
X0110768Y0215013D01*
X0110666Y0214904D01*
X0110561Y0214797D01*
X0110454Y0214693D01*
X0110344Y0214592D01*
X0110231Y0214494D01*
X0110116Y0214399D01*
X0109998Y0214307D01*
X0109877Y0214219D01*
X0109755Y0214133D01*
X0109630Y0214051D01*
X0109503Y0213973D01*
X0109374Y0213897D01*
X0109243Y0213825D01*
X0109110Y0213757D01*
X0108975Y0213692D01*
X0108839Y0213631D01*
X0108701Y0213574D01*
X0108561Y0213520D01*
X0108420Y0213470D01*
X0108278Y0213424D01*
X0108135Y0213382D01*
X0107990Y0213343D01*
X0107845Y0213308D01*
X0107699Y0213278D01*
X0107552Y0213251D01*
X0107404Y0213228D01*
X0107256Y0213209D01*
X0107107Y0213194D01*
X0106958Y0213183D01*
X0106809Y0213176D01*
X0106659Y0213173D01*
X0106510Y0213174D01*
X0106361Y0213179D01*
X0106211Y0213188D01*
X0106062Y0213201D01*
X0105914Y0213218D01*
X0105766Y0213239D01*
X0105619Y0213264D01*
X0105472Y0213293D01*
X0105326Y0213325D01*
X0105181Y0213362D01*
X0105037Y0213402D01*
X0104895Y0213447D01*
X0104753Y0213495D01*
X0104613Y0213547D01*
X0104474Y0213602D01*
X0104337Y0213661D01*
X0104201Y0213724D01*
X0104068Y0213791D01*
X0103936Y0213861D01*
X0103805Y0213934D01*
X0103677Y0214011D01*
X0103551Y0214092D01*
X0103428Y0214176D01*
X0103306Y0214263D01*
X0103187Y0214353D01*
X0103070Y0214446D01*
X0102956Y0214543D01*
X0102845Y0214642D01*
X0102736Y0214745D01*
X0102630Y0214850D01*
X0102527Y0214958D01*
X0102426Y0215069D01*
X0102329Y0215183D01*
X0102235Y0215299D01*
X0102144Y0215417D01*
X0102056Y0215538D01*
X0101971Y0215661D01*
X0101890Y0215787D01*
X0101812Y0215914D01*
X0101738Y0216044D01*
X0101667Y0216175D01*
X0101600Y0216309D01*
X0101536Y0216444D01*
X0101476Y0216581D01*
X0101419Y0216719D01*
X0101366Y0216859D01*
X0101317Y0217000D01*
X0101272Y0217143D01*
X0101231Y0217286D01*
X0101193Y0217431D01*
X0101159Y0217576D01*
X0101130Y0217723D01*
X0101104Y0217870D01*
X0101082Y0218018D01*
X0101064Y0218166D01*
X0101050Y0218315D01*
X0101040Y0218464D01*
X0101034Y0218614D01*
X0101032Y0218763D01*
X0091622Y0218763D02*
X0091627Y0219131D01*
X0091640Y0219499D01*
X0091663Y0219866D01*
X0091694Y0220233D01*
X0091735Y0220599D01*
X0091784Y0220964D01*
X0091843Y0221327D01*
X0091910Y0221689D01*
X0091986Y0222050D01*
X0092072Y0222408D01*
X0092165Y0222764D01*
X0092268Y0223117D01*
X0092379Y0223468D01*
X0092499Y0223816D01*
X0092627Y0224161D01*
X0092764Y0224503D01*
X0092909Y0224842D01*
X0093062Y0225176D01*
X0093224Y0225507D01*
X0093393Y0225834D01*
X0093571Y0226156D01*
X0093756Y0226475D01*
X0093949Y0226788D01*
X0094150Y0227097D01*
X0094358Y0227400D01*
X0094574Y0227698D01*
X0094797Y0227991D01*
X0095027Y0228279D01*
X0095264Y0228561D01*
X0095508Y0228836D01*
X0095758Y0229106D01*
X0096015Y0229370D01*
X0096279Y0229627D01*
X0096549Y0229877D01*
X0096824Y0230121D01*
X0097106Y0230358D01*
X0097394Y0230588D01*
X0097687Y0230811D01*
X0097985Y0231027D01*
X0098288Y0231235D01*
X0098597Y0231436D01*
X0098910Y0231629D01*
X0099229Y0231814D01*
X0099551Y0231992D01*
X0099878Y0232161D01*
X0100209Y0232323D01*
X0100543Y0232476D01*
X0100882Y0232621D01*
X0101224Y0232758D01*
X0101569Y0232886D01*
X0101917Y0233006D01*
X0102268Y0233117D01*
X0102621Y0233220D01*
X0102977Y0233313D01*
X0103335Y0233399D01*
X0103696Y0233475D01*
X0104058Y0233542D01*
X0104421Y0233601D01*
X0104786Y0233650D01*
X0105152Y0233691D01*
X0105519Y0233722D01*
X0105886Y0233745D01*
X0106254Y0233758D01*
X0106622Y0233763D01*
X0106990Y0233758D01*
X0107358Y0233745D01*
X0107725Y0233722D01*
X0108092Y0233691D01*
X0108458Y0233650D01*
X0108823Y0233601D01*
X0109186Y0233542D01*
X0109548Y0233475D01*
X0109909Y0233399D01*
X0110267Y0233313D01*
X0110623Y0233220D01*
X0110976Y0233117D01*
X0111327Y0233006D01*
X0111675Y0232886D01*
X0112020Y0232758D01*
X0112362Y0232621D01*
X0112701Y0232476D01*
X0113035Y0232323D01*
X0113366Y0232161D01*
X0113693Y0231992D01*
X0114015Y0231814D01*
X0114334Y0231629D01*
X0114647Y0231436D01*
X0114956Y0231235D01*
X0115259Y0231027D01*
X0115557Y0230811D01*
X0115850Y0230588D01*
X0116138Y0230358D01*
X0116420Y0230121D01*
X0116695Y0229877D01*
X0116965Y0229627D01*
X0117229Y0229370D01*
X0117486Y0229106D01*
X0117736Y0228836D01*
X0117980Y0228561D01*
X0118217Y0228279D01*
X0118447Y0227991D01*
X0118670Y0227698D01*
X0118886Y0227400D01*
X0119094Y0227097D01*
X0119295Y0226788D01*
X0119488Y0226475D01*
X0119673Y0226156D01*
X0119851Y0225834D01*
X0120020Y0225507D01*
X0120182Y0225176D01*
X0120335Y0224842D01*
X0120480Y0224503D01*
X0120617Y0224161D01*
X0120745Y0223816D01*
X0120865Y0223468D01*
X0120976Y0223117D01*
X0121079Y0222764D01*
X0121172Y0222408D01*
X0121258Y0222050D01*
X0121334Y0221689D01*
X0121401Y0221327D01*
X0121460Y0220964D01*
X0121509Y0220599D01*
X0121550Y0220233D01*
X0121581Y0219866D01*
X0121604Y0219499D01*
X0121617Y0219131D01*
X0121622Y0218763D01*
X0121617Y0218395D01*
X0121604Y0218027D01*
X0121581Y0217660D01*
X0121550Y0217293D01*
X0121509Y0216927D01*
X0121460Y0216562D01*
X0121401Y0216199D01*
X0121334Y0215837D01*
X0121258Y0215476D01*
X0121172Y0215118D01*
X0121079Y0214762D01*
X0120976Y0214409D01*
X0120865Y0214058D01*
X0120745Y0213710D01*
X0120617Y0213365D01*
X0120480Y0213023D01*
X0120335Y0212684D01*
X0120182Y0212350D01*
X0120020Y0212019D01*
X0119851Y0211692D01*
X0119673Y0211370D01*
X0119488Y0211051D01*
X0119295Y0210738D01*
X0119094Y0210429D01*
X0118886Y0210126D01*
X0118670Y0209828D01*
X0118447Y0209535D01*
X0118217Y0209247D01*
X0117980Y0208965D01*
X0117736Y0208690D01*
X0117486Y0208420D01*
X0117229Y0208156D01*
X0116965Y0207899D01*
X0116695Y0207649D01*
X0116420Y0207405D01*
X0116138Y0207168D01*
X0115850Y0206938D01*
X0115557Y0206715D01*
X0115259Y0206499D01*
X0114956Y0206291D01*
X0114647Y0206090D01*
X0114334Y0205897D01*
X0114015Y0205712D01*
X0113693Y0205534D01*
X0113366Y0205365D01*
X0113035Y0205203D01*
X0112701Y0205050D01*
X0112362Y0204905D01*
X0112020Y0204768D01*
X0111675Y0204640D01*
X0111327Y0204520D01*
X0110976Y0204409D01*
X0110623Y0204306D01*
X0110267Y0204213D01*
X0109909Y0204127D01*
X0109548Y0204051D01*
X0109186Y0203984D01*
X0108823Y0203925D01*
X0108458Y0203876D01*
X0108092Y0203835D01*
X0107725Y0203804D01*
X0107358Y0203781D01*
X0106990Y0203768D01*
X0106622Y0203763D01*
X0106254Y0203768D01*
X0105886Y0203781D01*
X0105519Y0203804D01*
X0105152Y0203835D01*
X0104786Y0203876D01*
X0104421Y0203925D01*
X0104058Y0203984D01*
X0103696Y0204051D01*
X0103335Y0204127D01*
X0102977Y0204213D01*
X0102621Y0204306D01*
X0102268Y0204409D01*
X0101917Y0204520D01*
X0101569Y0204640D01*
X0101224Y0204768D01*
X0100882Y0204905D01*
X0100543Y0205050D01*
X0100209Y0205203D01*
X0099878Y0205365D01*
X0099551Y0205534D01*
X0099229Y0205712D01*
X0098910Y0205897D01*
X0098597Y0206090D01*
X0098288Y0206291D01*
X0097985Y0206499D01*
X0097687Y0206715D01*
X0097394Y0206938D01*
X0097106Y0207168D01*
X0096824Y0207405D01*
X0096549Y0207649D01*
X0096279Y0207899D01*
X0096015Y0208156D01*
X0095758Y0208420D01*
X0095508Y0208690D01*
X0095264Y0208965D01*
X0095027Y0209247D01*
X0094797Y0209535D01*
X0094574Y0209828D01*
X0094358Y0210126D01*
X0094150Y0210429D01*
X0093949Y0210738D01*
X0093756Y0211051D01*
X0093571Y0211370D01*
X0093393Y0211692D01*
X0093224Y0212019D01*
X0093062Y0212350D01*
X0092909Y0212684D01*
X0092764Y0213023D01*
X0092627Y0213365D01*
X0092499Y0213710D01*
X0092379Y0214058D01*
X0092268Y0214409D01*
X0092165Y0214762D01*
X0092072Y0215118D01*
X0091986Y0215476D01*
X0091910Y0215837D01*
X0091843Y0216199D01*
X0091784Y0216562D01*
X0091735Y0216927D01*
X0091694Y0217293D01*
X0091663Y0217660D01*
X0091640Y0218027D01*
X0091627Y0218395D01*
X0091622Y0218763D01*
X0140115Y0151679D02*
X0141615Y0151679D01*
X0142115Y0151179D01*
X0161115Y0151179D01*
X0161615Y0151679D01*
X0163115Y0151679D01*
X0163175Y0151677D01*
X0163236Y0151672D01*
X0163295Y0151663D01*
X0163354Y0151650D01*
X0163413Y0151634D01*
X0163470Y0151614D01*
X0163525Y0151591D01*
X0163580Y0151564D01*
X0163632Y0151535D01*
X0163683Y0151502D01*
X0163732Y0151466D01*
X0163778Y0151428D01*
X0163822Y0151386D01*
X0163864Y0151342D01*
X0163902Y0151296D01*
X0163938Y0151247D01*
X0163971Y0151196D01*
X0164000Y0151144D01*
X0164027Y0151089D01*
X0164050Y0151034D01*
X0164070Y0150977D01*
X0164086Y0150918D01*
X0164099Y0150859D01*
X0164108Y0150800D01*
X0164113Y0150739D01*
X0164115Y0150679D01*
X0164115Y0143679D01*
X0164113Y0143619D01*
X0164108Y0143558D01*
X0164099Y0143499D01*
X0164086Y0143440D01*
X0164070Y0143381D01*
X0164050Y0143324D01*
X0164027Y0143269D01*
X0164000Y0143214D01*
X0163971Y0143162D01*
X0163938Y0143111D01*
X0163902Y0143062D01*
X0163864Y0143016D01*
X0163822Y0142972D01*
X0163778Y0142930D01*
X0163732Y0142892D01*
X0163683Y0142856D01*
X0163632Y0142823D01*
X0163580Y0142794D01*
X0163525Y0142767D01*
X0163470Y0142744D01*
X0163413Y0142724D01*
X0163354Y0142708D01*
X0163295Y0142695D01*
X0163236Y0142686D01*
X0163175Y0142681D01*
X0163115Y0142679D01*
X0161615Y0142679D01*
X0161115Y0143179D01*
X0142115Y0143179D01*
X0141615Y0142679D01*
X0140115Y0142679D01*
X0140055Y0142681D01*
X0139994Y0142686D01*
X0139935Y0142695D01*
X0139876Y0142708D01*
X0139817Y0142724D01*
X0139760Y0142744D01*
X0139705Y0142767D01*
X0139650Y0142794D01*
X0139598Y0142823D01*
X0139547Y0142856D01*
X0139498Y0142892D01*
X0139452Y0142930D01*
X0139408Y0142972D01*
X0139366Y0143016D01*
X0139328Y0143062D01*
X0139292Y0143111D01*
X0139259Y0143162D01*
X0139230Y0143214D01*
X0139203Y0143269D01*
X0139180Y0143324D01*
X0139160Y0143381D01*
X0139144Y0143440D01*
X0139131Y0143499D01*
X0139122Y0143558D01*
X0139117Y0143619D01*
X0139115Y0143679D01*
X0139115Y0150679D01*
X0139117Y0150739D01*
X0139122Y0150800D01*
X0139131Y0150859D01*
X0139144Y0150918D01*
X0139160Y0150977D01*
X0139180Y0151034D01*
X0139203Y0151089D01*
X0139230Y0151144D01*
X0139259Y0151196D01*
X0139292Y0151247D01*
X0139328Y0151296D01*
X0139366Y0151342D01*
X0139408Y0151386D01*
X0139452Y0151428D01*
X0139498Y0151466D01*
X0139547Y0151502D01*
X0139598Y0151535D01*
X0139650Y0151564D01*
X0139705Y0151591D01*
X0139760Y0151614D01*
X0139817Y0151634D01*
X0139876Y0151650D01*
X0139935Y0151663D01*
X0139994Y0151672D01*
X0140055Y0151677D01*
X0140115Y0151679D01*
X0139676Y0138739D02*
X0141176Y0138739D01*
X0141676Y0138239D01*
X0160676Y0138239D01*
X0161176Y0138739D01*
X0162676Y0138739D01*
X0162736Y0138737D01*
X0162797Y0138732D01*
X0162856Y0138723D01*
X0162915Y0138710D01*
X0162974Y0138694D01*
X0163031Y0138674D01*
X0163086Y0138651D01*
X0163141Y0138624D01*
X0163193Y0138595D01*
X0163244Y0138562D01*
X0163293Y0138526D01*
X0163339Y0138488D01*
X0163383Y0138446D01*
X0163425Y0138402D01*
X0163463Y0138356D01*
X0163499Y0138307D01*
X0163532Y0138256D01*
X0163561Y0138204D01*
X0163588Y0138149D01*
X0163611Y0138094D01*
X0163631Y0138037D01*
X0163647Y0137978D01*
X0163660Y0137919D01*
X0163669Y0137860D01*
X0163674Y0137799D01*
X0163676Y0137739D01*
X0163676Y0130739D01*
X0163674Y0130679D01*
X0163669Y0130618D01*
X0163660Y0130559D01*
X0163647Y0130500D01*
X0163631Y0130441D01*
X0163611Y0130384D01*
X0163588Y0130329D01*
X0163561Y0130274D01*
X0163532Y0130222D01*
X0163499Y0130171D01*
X0163463Y0130122D01*
X0163425Y0130076D01*
X0163383Y0130032D01*
X0163339Y0129990D01*
X0163293Y0129952D01*
X0163244Y0129916D01*
X0163193Y0129883D01*
X0163141Y0129854D01*
X0163086Y0129827D01*
X0163031Y0129804D01*
X0162974Y0129784D01*
X0162915Y0129768D01*
X0162856Y0129755D01*
X0162797Y0129746D01*
X0162736Y0129741D01*
X0162676Y0129739D01*
X0161176Y0129739D01*
X0160676Y0130239D01*
X0141676Y0130239D01*
X0141176Y0129739D01*
X0139676Y0129739D01*
X0139616Y0129741D01*
X0139555Y0129746D01*
X0139496Y0129755D01*
X0139437Y0129768D01*
X0139378Y0129784D01*
X0139321Y0129804D01*
X0139266Y0129827D01*
X0139211Y0129854D01*
X0139159Y0129883D01*
X0139108Y0129916D01*
X0139059Y0129952D01*
X0139013Y0129990D01*
X0138969Y0130032D01*
X0138927Y0130076D01*
X0138889Y0130122D01*
X0138853Y0130171D01*
X0138820Y0130222D01*
X0138791Y0130274D01*
X0138764Y0130329D01*
X0138741Y0130384D01*
X0138721Y0130441D01*
X0138705Y0130500D01*
X0138692Y0130559D01*
X0138683Y0130618D01*
X0138678Y0130679D01*
X0138676Y0130739D01*
X0138676Y0137739D01*
X0138678Y0137799D01*
X0138683Y0137860D01*
X0138692Y0137919D01*
X0138705Y0137978D01*
X0138721Y0138037D01*
X0138741Y0138094D01*
X0138764Y0138149D01*
X0138791Y0138204D01*
X0138820Y0138256D01*
X0138853Y0138307D01*
X0138889Y0138356D01*
X0138927Y0138402D01*
X0138969Y0138446D01*
X0139013Y0138488D01*
X0139059Y0138526D01*
X0139108Y0138562D01*
X0139159Y0138595D01*
X0139211Y0138624D01*
X0139266Y0138651D01*
X0139321Y0138674D01*
X0139378Y0138694D01*
X0139437Y0138710D01*
X0139496Y0138723D01*
X0139555Y0138732D01*
X0139616Y0138737D01*
X0139676Y0138739D01*
X0140051Y0127062D02*
X0141551Y0127062D01*
X0142051Y0126562D01*
X0161051Y0126562D01*
X0161551Y0127062D01*
X0163051Y0127062D01*
X0163111Y0127060D01*
X0163172Y0127055D01*
X0163231Y0127046D01*
X0163290Y0127033D01*
X0163349Y0127017D01*
X0163406Y0126997D01*
X0163461Y0126974D01*
X0163516Y0126947D01*
X0163568Y0126918D01*
X0163619Y0126885D01*
X0163668Y0126849D01*
X0163714Y0126811D01*
X0163758Y0126769D01*
X0163800Y0126725D01*
X0163838Y0126679D01*
X0163874Y0126630D01*
X0163907Y0126579D01*
X0163936Y0126527D01*
X0163963Y0126472D01*
X0163986Y0126417D01*
X0164006Y0126360D01*
X0164022Y0126301D01*
X0164035Y0126242D01*
X0164044Y0126183D01*
X0164049Y0126122D01*
X0164051Y0126062D01*
X0164051Y0119062D01*
X0164049Y0119002D01*
X0164044Y0118941D01*
X0164035Y0118882D01*
X0164022Y0118823D01*
X0164006Y0118764D01*
X0163986Y0118707D01*
X0163963Y0118652D01*
X0163936Y0118597D01*
X0163907Y0118545D01*
X0163874Y0118494D01*
X0163838Y0118445D01*
X0163800Y0118399D01*
X0163758Y0118355D01*
X0163714Y0118313D01*
X0163668Y0118275D01*
X0163619Y0118239D01*
X0163568Y0118206D01*
X0163516Y0118177D01*
X0163461Y0118150D01*
X0163406Y0118127D01*
X0163349Y0118107D01*
X0163290Y0118091D01*
X0163231Y0118078D01*
X0163172Y0118069D01*
X0163111Y0118064D01*
X0163051Y0118062D01*
X0161551Y0118062D01*
X0161051Y0118562D01*
X0142051Y0118562D01*
X0141551Y0118062D01*
X0140051Y0118062D01*
X0139991Y0118064D01*
X0139930Y0118069D01*
X0139871Y0118078D01*
X0139812Y0118091D01*
X0139753Y0118107D01*
X0139696Y0118127D01*
X0139641Y0118150D01*
X0139586Y0118177D01*
X0139534Y0118206D01*
X0139483Y0118239D01*
X0139434Y0118275D01*
X0139388Y0118313D01*
X0139344Y0118355D01*
X0139302Y0118399D01*
X0139264Y0118445D01*
X0139228Y0118494D01*
X0139195Y0118545D01*
X0139166Y0118597D01*
X0139139Y0118652D01*
X0139116Y0118707D01*
X0139096Y0118764D01*
X0139080Y0118823D01*
X0139067Y0118882D01*
X0139058Y0118941D01*
X0139053Y0119002D01*
X0139051Y0119062D01*
X0139051Y0126062D01*
X0139053Y0126122D01*
X0139058Y0126183D01*
X0139067Y0126242D01*
X0139080Y0126301D01*
X0139096Y0126360D01*
X0139116Y0126417D01*
X0139139Y0126472D01*
X0139166Y0126527D01*
X0139195Y0126579D01*
X0139228Y0126630D01*
X0139264Y0126679D01*
X0139302Y0126725D01*
X0139344Y0126769D01*
X0139388Y0126811D01*
X0139434Y0126849D01*
X0139483Y0126885D01*
X0139534Y0126918D01*
X0139586Y0126947D01*
X0139641Y0126974D01*
X0139696Y0126997D01*
X0139753Y0127017D01*
X0139812Y0127033D01*
X0139871Y0127046D01*
X0139930Y0127055D01*
X0139991Y0127060D01*
X0140051Y0127062D01*
X0178474Y0118765D02*
X0178477Y0119010D01*
X0178486Y0119256D01*
X0178501Y0119501D01*
X0178522Y0119745D01*
X0178549Y0119989D01*
X0178582Y0120232D01*
X0178621Y0120475D01*
X0178666Y0120716D01*
X0178717Y0120956D01*
X0178774Y0121195D01*
X0178836Y0121432D01*
X0178905Y0121668D01*
X0178979Y0121902D01*
X0179059Y0122134D01*
X0179144Y0122364D01*
X0179235Y0122592D01*
X0179332Y0122817D01*
X0179434Y0123041D01*
X0179542Y0123261D01*
X0179655Y0123479D01*
X0179773Y0123694D01*
X0179897Y0123906D01*
X0180025Y0124115D01*
X0180159Y0124321D01*
X0180298Y0124523D01*
X0180442Y0124722D01*
X0180591Y0124917D01*
X0180744Y0125109D01*
X0180902Y0125297D01*
X0181064Y0125481D01*
X0181232Y0125660D01*
X0181403Y0125836D01*
X0181579Y0126007D01*
X0181758Y0126175D01*
X0181942Y0126337D01*
X0182130Y0126495D01*
X0182322Y0126648D01*
X0182517Y0126797D01*
X0182716Y0126941D01*
X0182918Y0127080D01*
X0183124Y0127214D01*
X0183333Y0127342D01*
X0183545Y0127466D01*
X0183760Y0127584D01*
X0183978Y0127697D01*
X0184198Y0127805D01*
X0184422Y0127907D01*
X0184647Y0128004D01*
X0184875Y0128095D01*
X0185105Y0128180D01*
X0185337Y0128260D01*
X0185571Y0128334D01*
X0185807Y0128403D01*
X0186044Y0128465D01*
X0186283Y0128522D01*
X0186523Y0128573D01*
X0186764Y0128618D01*
X0187007Y0128657D01*
X0187250Y0128690D01*
X0187494Y0128717D01*
X0187738Y0128738D01*
X0187983Y0128753D01*
X0188229Y0128762D01*
X0188474Y0128765D01*
X0188719Y0128762D01*
X0188965Y0128753D01*
X0189210Y0128738D01*
X0189454Y0128717D01*
X0189698Y0128690D01*
X0189941Y0128657D01*
X0190184Y0128618D01*
X0190425Y0128573D01*
X0190665Y0128522D01*
X0190904Y0128465D01*
X0191141Y0128403D01*
X0191377Y0128334D01*
X0191611Y0128260D01*
X0191843Y0128180D01*
X0192073Y0128095D01*
X0192301Y0128004D01*
X0192526Y0127907D01*
X0192750Y0127805D01*
X0192970Y0127697D01*
X0193188Y0127584D01*
X0193403Y0127466D01*
X0193615Y0127342D01*
X0193824Y0127214D01*
X0194030Y0127080D01*
X0194232Y0126941D01*
X0194431Y0126797D01*
X0194626Y0126648D01*
X0194818Y0126495D01*
X0195006Y0126337D01*
X0195190Y0126175D01*
X0195369Y0126007D01*
X0195545Y0125836D01*
X0195716Y0125660D01*
X0195884Y0125481D01*
X0196046Y0125297D01*
X0196204Y0125109D01*
X0196357Y0124917D01*
X0196506Y0124722D01*
X0196650Y0124523D01*
X0196789Y0124321D01*
X0196923Y0124115D01*
X0197051Y0123906D01*
X0197175Y0123694D01*
X0197293Y0123479D01*
X0197406Y0123261D01*
X0197514Y0123041D01*
X0197616Y0122817D01*
X0197713Y0122592D01*
X0197804Y0122364D01*
X0197889Y0122134D01*
X0197969Y0121902D01*
X0198043Y0121668D01*
X0198112Y0121432D01*
X0198174Y0121195D01*
X0198231Y0120956D01*
X0198282Y0120716D01*
X0198327Y0120475D01*
X0198366Y0120232D01*
X0198399Y0119989D01*
X0198426Y0119745D01*
X0198447Y0119501D01*
X0198462Y0119256D01*
X0198471Y0119010D01*
X0198474Y0118765D01*
X0198471Y0118520D01*
X0198462Y0118274D01*
X0198447Y0118029D01*
X0198426Y0117785D01*
X0198399Y0117541D01*
X0198366Y0117298D01*
X0198327Y0117055D01*
X0198282Y0116814D01*
X0198231Y0116574D01*
X0198174Y0116335D01*
X0198112Y0116098D01*
X0198043Y0115862D01*
X0197969Y0115628D01*
X0197889Y0115396D01*
X0197804Y0115166D01*
X0197713Y0114938D01*
X0197616Y0114713D01*
X0197514Y0114489D01*
X0197406Y0114269D01*
X0197293Y0114051D01*
X0197175Y0113836D01*
X0197051Y0113624D01*
X0196923Y0113415D01*
X0196789Y0113209D01*
X0196650Y0113007D01*
X0196506Y0112808D01*
X0196357Y0112613D01*
X0196204Y0112421D01*
X0196046Y0112233D01*
X0195884Y0112049D01*
X0195716Y0111870D01*
X0195545Y0111694D01*
X0195369Y0111523D01*
X0195190Y0111355D01*
X0195006Y0111193D01*
X0194818Y0111035D01*
X0194626Y0110882D01*
X0194431Y0110733D01*
X0194232Y0110589D01*
X0194030Y0110450D01*
X0193824Y0110316D01*
X0193615Y0110188D01*
X0193403Y0110064D01*
X0193188Y0109946D01*
X0192970Y0109833D01*
X0192750Y0109725D01*
X0192526Y0109623D01*
X0192301Y0109526D01*
X0192073Y0109435D01*
X0191843Y0109350D01*
X0191611Y0109270D01*
X0191377Y0109196D01*
X0191141Y0109127D01*
X0190904Y0109065D01*
X0190665Y0109008D01*
X0190425Y0108957D01*
X0190184Y0108912D01*
X0189941Y0108873D01*
X0189698Y0108840D01*
X0189454Y0108813D01*
X0189210Y0108792D01*
X0188965Y0108777D01*
X0188719Y0108768D01*
X0188474Y0108765D01*
X0188229Y0108768D01*
X0187983Y0108777D01*
X0187738Y0108792D01*
X0187494Y0108813D01*
X0187250Y0108840D01*
X0187007Y0108873D01*
X0186764Y0108912D01*
X0186523Y0108957D01*
X0186283Y0109008D01*
X0186044Y0109065D01*
X0185807Y0109127D01*
X0185571Y0109196D01*
X0185337Y0109270D01*
X0185105Y0109350D01*
X0184875Y0109435D01*
X0184647Y0109526D01*
X0184422Y0109623D01*
X0184198Y0109725D01*
X0183978Y0109833D01*
X0183760Y0109946D01*
X0183545Y0110064D01*
X0183333Y0110188D01*
X0183124Y0110316D01*
X0182918Y0110450D01*
X0182716Y0110589D01*
X0182517Y0110733D01*
X0182322Y0110882D01*
X0182130Y0111035D01*
X0181942Y0111193D01*
X0181758Y0111355D01*
X0181579Y0111523D01*
X0181403Y0111694D01*
X0181232Y0111870D01*
X0181064Y0112049D01*
X0180902Y0112233D01*
X0180744Y0112421D01*
X0180591Y0112613D01*
X0180442Y0112808D01*
X0180298Y0113007D01*
X0180159Y0113209D01*
X0180025Y0113415D01*
X0179897Y0113624D01*
X0179773Y0113836D01*
X0179655Y0114051D01*
X0179542Y0114269D01*
X0179434Y0114489D01*
X0179332Y0114713D01*
X0179235Y0114938D01*
X0179144Y0115166D01*
X0179059Y0115396D01*
X0178979Y0115628D01*
X0178905Y0115862D01*
X0178836Y0116098D01*
X0178774Y0116335D01*
X0178717Y0116574D01*
X0178666Y0116814D01*
X0178621Y0117055D01*
X0178582Y0117298D01*
X0178549Y0117541D01*
X0178522Y0117785D01*
X0178501Y0118029D01*
X0178486Y0118274D01*
X0178477Y0118520D01*
X0178474Y0118765D01*
X0178114Y0149680D02*
X0178117Y0149925D01*
X0178126Y0150171D01*
X0178141Y0150416D01*
X0178162Y0150660D01*
X0178189Y0150904D01*
X0178222Y0151147D01*
X0178261Y0151390D01*
X0178306Y0151631D01*
X0178357Y0151871D01*
X0178414Y0152110D01*
X0178476Y0152347D01*
X0178545Y0152583D01*
X0178619Y0152817D01*
X0178699Y0153049D01*
X0178784Y0153279D01*
X0178875Y0153507D01*
X0178972Y0153732D01*
X0179074Y0153956D01*
X0179182Y0154176D01*
X0179295Y0154394D01*
X0179413Y0154609D01*
X0179537Y0154821D01*
X0179665Y0155030D01*
X0179799Y0155236D01*
X0179938Y0155438D01*
X0180082Y0155637D01*
X0180231Y0155832D01*
X0180384Y0156024D01*
X0180542Y0156212D01*
X0180704Y0156396D01*
X0180872Y0156575D01*
X0181043Y0156751D01*
X0181219Y0156922D01*
X0181398Y0157090D01*
X0181582Y0157252D01*
X0181770Y0157410D01*
X0181962Y0157563D01*
X0182157Y0157712D01*
X0182356Y0157856D01*
X0182558Y0157995D01*
X0182764Y0158129D01*
X0182973Y0158257D01*
X0183185Y0158381D01*
X0183400Y0158499D01*
X0183618Y0158612D01*
X0183838Y0158720D01*
X0184062Y0158822D01*
X0184287Y0158919D01*
X0184515Y0159010D01*
X0184745Y0159095D01*
X0184977Y0159175D01*
X0185211Y0159249D01*
X0185447Y0159318D01*
X0185684Y0159380D01*
X0185923Y0159437D01*
X0186163Y0159488D01*
X0186404Y0159533D01*
X0186647Y0159572D01*
X0186890Y0159605D01*
X0187134Y0159632D01*
X0187378Y0159653D01*
X0187623Y0159668D01*
X0187869Y0159677D01*
X0188114Y0159680D01*
X0188359Y0159677D01*
X0188605Y0159668D01*
X0188850Y0159653D01*
X0189094Y0159632D01*
X0189338Y0159605D01*
X0189581Y0159572D01*
X0189824Y0159533D01*
X0190065Y0159488D01*
X0190305Y0159437D01*
X0190544Y0159380D01*
X0190781Y0159318D01*
X0191017Y0159249D01*
X0191251Y0159175D01*
X0191483Y0159095D01*
X0191713Y0159010D01*
X0191941Y0158919D01*
X0192166Y0158822D01*
X0192390Y0158720D01*
X0192610Y0158612D01*
X0192828Y0158499D01*
X0193043Y0158381D01*
X0193255Y0158257D01*
X0193464Y0158129D01*
X0193670Y0157995D01*
X0193872Y0157856D01*
X0194071Y0157712D01*
X0194266Y0157563D01*
X0194458Y0157410D01*
X0194646Y0157252D01*
X0194830Y0157090D01*
X0195009Y0156922D01*
X0195185Y0156751D01*
X0195356Y0156575D01*
X0195524Y0156396D01*
X0195686Y0156212D01*
X0195844Y0156024D01*
X0195997Y0155832D01*
X0196146Y0155637D01*
X0196290Y0155438D01*
X0196429Y0155236D01*
X0196563Y0155030D01*
X0196691Y0154821D01*
X0196815Y0154609D01*
X0196933Y0154394D01*
X0197046Y0154176D01*
X0197154Y0153956D01*
X0197256Y0153732D01*
X0197353Y0153507D01*
X0197444Y0153279D01*
X0197529Y0153049D01*
X0197609Y0152817D01*
X0197683Y0152583D01*
X0197752Y0152347D01*
X0197814Y0152110D01*
X0197871Y0151871D01*
X0197922Y0151631D01*
X0197967Y0151390D01*
X0198006Y0151147D01*
X0198039Y0150904D01*
X0198066Y0150660D01*
X0198087Y0150416D01*
X0198102Y0150171D01*
X0198111Y0149925D01*
X0198114Y0149680D01*
X0198111Y0149435D01*
X0198102Y0149189D01*
X0198087Y0148944D01*
X0198066Y0148700D01*
X0198039Y0148456D01*
X0198006Y0148213D01*
X0197967Y0147970D01*
X0197922Y0147729D01*
X0197871Y0147489D01*
X0197814Y0147250D01*
X0197752Y0147013D01*
X0197683Y0146777D01*
X0197609Y0146543D01*
X0197529Y0146311D01*
X0197444Y0146081D01*
X0197353Y0145853D01*
X0197256Y0145628D01*
X0197154Y0145404D01*
X0197046Y0145184D01*
X0196933Y0144966D01*
X0196815Y0144751D01*
X0196691Y0144539D01*
X0196563Y0144330D01*
X0196429Y0144124D01*
X0196290Y0143922D01*
X0196146Y0143723D01*
X0195997Y0143528D01*
X0195844Y0143336D01*
X0195686Y0143148D01*
X0195524Y0142964D01*
X0195356Y0142785D01*
X0195185Y0142609D01*
X0195009Y0142438D01*
X0194830Y0142270D01*
X0194646Y0142108D01*
X0194458Y0141950D01*
X0194266Y0141797D01*
X0194071Y0141648D01*
X0193872Y0141504D01*
X0193670Y0141365D01*
X0193464Y0141231D01*
X0193255Y0141103D01*
X0193043Y0140979D01*
X0192828Y0140861D01*
X0192610Y0140748D01*
X0192390Y0140640D01*
X0192166Y0140538D01*
X0191941Y0140441D01*
X0191713Y0140350D01*
X0191483Y0140265D01*
X0191251Y0140185D01*
X0191017Y0140111D01*
X0190781Y0140042D01*
X0190544Y0139980D01*
X0190305Y0139923D01*
X0190065Y0139872D01*
X0189824Y0139827D01*
X0189581Y0139788D01*
X0189338Y0139755D01*
X0189094Y0139728D01*
X0188850Y0139707D01*
X0188605Y0139692D01*
X0188359Y0139683D01*
X0188114Y0139680D01*
X0187869Y0139683D01*
X0187623Y0139692D01*
X0187378Y0139707D01*
X0187134Y0139728D01*
X0186890Y0139755D01*
X0186647Y0139788D01*
X0186404Y0139827D01*
X0186163Y0139872D01*
X0185923Y0139923D01*
X0185684Y0139980D01*
X0185447Y0140042D01*
X0185211Y0140111D01*
X0184977Y0140185D01*
X0184745Y0140265D01*
X0184515Y0140350D01*
X0184287Y0140441D01*
X0184062Y0140538D01*
X0183838Y0140640D01*
X0183618Y0140748D01*
X0183400Y0140861D01*
X0183185Y0140979D01*
X0182973Y0141103D01*
X0182764Y0141231D01*
X0182558Y0141365D01*
X0182356Y0141504D01*
X0182157Y0141648D01*
X0181962Y0141797D01*
X0181770Y0141950D01*
X0181582Y0142108D01*
X0181398Y0142270D01*
X0181219Y0142438D01*
X0181043Y0142609D01*
X0180872Y0142785D01*
X0180704Y0142964D01*
X0180542Y0143148D01*
X0180384Y0143336D01*
X0180231Y0143528D01*
X0180082Y0143723D01*
X0179938Y0143922D01*
X0179799Y0144124D01*
X0179665Y0144330D01*
X0179537Y0144539D01*
X0179413Y0144751D01*
X0179295Y0144966D01*
X0179182Y0145184D01*
X0179074Y0145404D01*
X0178972Y0145628D01*
X0178875Y0145853D01*
X0178784Y0146081D01*
X0178699Y0146311D01*
X0178619Y0146543D01*
X0178545Y0146777D01*
X0178476Y0147013D01*
X0178414Y0147250D01*
X0178357Y0147489D01*
X0178306Y0147729D01*
X0178261Y0147970D01*
X0178222Y0148213D01*
X0178189Y0148456D01*
X0178162Y0148700D01*
X0178141Y0148944D01*
X0178126Y0149189D01*
X0178117Y0149435D01*
X0178114Y0149680D01*
D16*
X0165815Y0147179D03*
X0165376Y0134239D03*
X0165751Y0122562D03*
X0137351Y0122562D03*
X0136976Y0134239D03*
X0137415Y0147179D03*
D17*
X0081594Y0191376D03*
X0081594Y0219776D03*
D18*
X0106622Y0218763D03*
X0107149Y0178645D03*
D19*
X0107149Y0178645D03*
X0106622Y0218763D03*
D20*
X0125794Y0218602D02*
X0125794Y0219880D01*
X0125796Y0219943D01*
X0125802Y0220006D01*
X0125811Y0220068D01*
X0125825Y0220129D01*
X0125842Y0220190D01*
X0125863Y0220249D01*
X0125888Y0220307D01*
X0125916Y0220364D01*
X0125947Y0220418D01*
X0125982Y0220470D01*
X0126020Y0220521D01*
X0126061Y0220569D01*
X0126105Y0220614D01*
X0126151Y0220656D01*
X0126200Y0220696D01*
X0126251Y0220732D01*
X0126305Y0220765D01*
X0126360Y0220795D01*
X0126418Y0220821D01*
X0126476Y0220844D01*
X0126536Y0220863D01*
X0126597Y0220878D01*
X0126659Y0220890D01*
X0126722Y0220898D01*
X0126785Y0220902D01*
X0126847Y0220902D01*
X0126910Y0220898D01*
X0126973Y0220890D01*
X0127035Y0220878D01*
X0127096Y0220863D01*
X0127156Y0220844D01*
X0127214Y0220821D01*
X0127272Y0220795D01*
X0127327Y0220765D01*
X0127381Y0220732D01*
X0127432Y0220696D01*
X0127481Y0220656D01*
X0127527Y0220614D01*
X0127571Y0220569D01*
X0127612Y0220521D01*
X0127650Y0220470D01*
X0127685Y0220418D01*
X0127716Y0220364D01*
X0127744Y0220307D01*
X0127769Y0220249D01*
X0127790Y0220190D01*
X0127807Y0220129D01*
X0127821Y0220068D01*
X0127830Y0220006D01*
X0127836Y0219943D01*
X0127838Y0219880D01*
X0127838Y0218602D01*
X0127838Y0219880D02*
X0127840Y0219950D01*
X0127846Y0220021D01*
X0127855Y0220090D01*
X0127869Y0220159D01*
X0127886Y0220228D01*
X0127907Y0220295D01*
X0127932Y0220361D01*
X0127960Y0220425D01*
X0127992Y0220488D01*
X0128027Y0220549D01*
X0128066Y0220608D01*
X0128107Y0220665D01*
X0128152Y0220719D01*
X0128200Y0220771D01*
X0128250Y0220820D01*
X0128304Y0220867D01*
X0128359Y0220910D01*
X0128417Y0220950D01*
X0128477Y0220987D01*
X0128539Y0221020D01*
X0128603Y0221050D01*
X0128668Y0221077D01*
X0128734Y0221100D01*
X0128802Y0221119D01*
X0128871Y0221134D01*
X0128940Y0221146D01*
X0129010Y0221154D01*
X0129081Y0221158D01*
X0129151Y0221158D01*
X0129222Y0221154D01*
X0129292Y0221146D01*
X0129361Y0221134D01*
X0129430Y0221119D01*
X0129498Y0221100D01*
X0129564Y0221077D01*
X0129629Y0221050D01*
X0129693Y0221020D01*
X0129755Y0220987D01*
X0129815Y0220950D01*
X0129873Y0220910D01*
X0129928Y0220867D01*
X0129982Y0220820D01*
X0130032Y0220771D01*
X0130080Y0220719D01*
X0130125Y0220665D01*
X0130166Y0220608D01*
X0130205Y0220549D01*
X0130240Y0220488D01*
X0130272Y0220425D01*
X0130300Y0220361D01*
X0130325Y0220295D01*
X0130346Y0220228D01*
X0130363Y0220159D01*
X0130377Y0220090D01*
X0130386Y0220021D01*
X0130392Y0219950D01*
X0130394Y0219880D01*
X0130394Y0218602D01*
X0125794Y0218602D01*
X0125794Y0216574D02*
X0125794Y0215552D01*
X0125794Y0216063D02*
X0130394Y0216063D01*
X0130394Y0215552D02*
X0130394Y0216574D01*
X0128477Y0213380D02*
X0127711Y0211974D01*
X0125794Y0212485D02*
X0125796Y0212567D01*
X0125801Y0212649D01*
X0125810Y0212731D01*
X0125822Y0212812D01*
X0125838Y0212893D01*
X0125857Y0212973D01*
X0125880Y0213052D01*
X0125906Y0213130D01*
X0125935Y0213207D01*
X0125968Y0213282D01*
X0126004Y0213356D01*
X0126042Y0213429D01*
X0126084Y0213500D01*
X0126129Y0213568D01*
X0126177Y0213635D01*
X0127710Y0211974D02*
X0127676Y0211920D01*
X0127639Y0211869D01*
X0127599Y0211820D01*
X0127556Y0211773D01*
X0127510Y0211730D01*
X0127462Y0211689D01*
X0127411Y0211651D01*
X0127358Y0211616D01*
X0127303Y0211584D01*
X0127246Y0211556D01*
X0127188Y0211532D01*
X0127128Y0211511D01*
X0127067Y0211494D01*
X0127005Y0211480D01*
X0126942Y0211471D01*
X0126879Y0211465D01*
X0126816Y0211463D01*
X0126754Y0211465D01*
X0126693Y0211470D01*
X0126632Y0211480D01*
X0126571Y0211493D01*
X0126512Y0211509D01*
X0126454Y0211529D01*
X0126397Y0211553D01*
X0126341Y0211580D01*
X0126287Y0211610D01*
X0126235Y0211644D01*
X0126186Y0211680D01*
X0126138Y0211720D01*
X0126093Y0211762D01*
X0126051Y0211807D01*
X0126011Y0211855D01*
X0125975Y0211904D01*
X0125941Y0211956D01*
X0125911Y0212010D01*
X0125884Y0212066D01*
X0125860Y0212123D01*
X0125840Y0212181D01*
X0125824Y0212240D01*
X0125811Y0212301D01*
X0125801Y0212362D01*
X0125796Y0212423D01*
X0125794Y0212485D01*
X0129754Y0211336D02*
X0129817Y0211400D01*
X0129876Y0211468D01*
X0129933Y0211537D01*
X0129987Y0211609D01*
X0130038Y0211683D01*
X0130086Y0211759D01*
X0130130Y0211836D01*
X0130171Y0211916D01*
X0130209Y0211997D01*
X0130244Y0212080D01*
X0130275Y0212164D01*
X0130302Y0212250D01*
X0130326Y0212336D01*
X0130347Y0212424D01*
X0130363Y0212512D01*
X0130376Y0212601D01*
X0130386Y0212690D01*
X0130391Y0212779D01*
X0130393Y0212869D01*
X0130394Y0212869D02*
X0130392Y0212931D01*
X0130387Y0212992D01*
X0130377Y0213053D01*
X0130364Y0213114D01*
X0130348Y0213173D01*
X0130328Y0213231D01*
X0130304Y0213288D01*
X0130277Y0213344D01*
X0130247Y0213398D01*
X0130213Y0213450D01*
X0130177Y0213499D01*
X0130137Y0213547D01*
X0130095Y0213592D01*
X0130050Y0213634D01*
X0130002Y0213674D01*
X0129953Y0213710D01*
X0129901Y0213744D01*
X0129847Y0213774D01*
X0129791Y0213801D01*
X0129734Y0213825D01*
X0129676Y0213845D01*
X0129617Y0213861D01*
X0129556Y0213874D01*
X0129495Y0213884D01*
X0129434Y0213889D01*
X0129372Y0213891D01*
X0129309Y0213889D01*
X0129246Y0213883D01*
X0129183Y0213874D01*
X0129121Y0213860D01*
X0129060Y0213843D01*
X0129000Y0213822D01*
X0128942Y0213798D01*
X0128885Y0213770D01*
X0128830Y0213738D01*
X0128777Y0213703D01*
X0128726Y0213665D01*
X0128678Y0213624D01*
X0128632Y0213581D01*
X0128589Y0213534D01*
X0128549Y0213485D01*
X0128512Y0213434D01*
X0128478Y0213380D01*
X0130394Y0209391D02*
X0125794Y0209391D01*
X0125794Y0206835D02*
X0130394Y0209391D01*
X0130394Y0206835D02*
X0125794Y0206835D01*
X0125794Y0204989D02*
X0125794Y0202944D01*
X0130394Y0202944D01*
X0130394Y0204989D01*
X0127838Y0204478D02*
X0127838Y0202944D01*
X0128477Y0200480D02*
X0127711Y0199074D01*
X0125794Y0199585D02*
X0125796Y0199667D01*
X0125801Y0199749D01*
X0125810Y0199831D01*
X0125822Y0199912D01*
X0125838Y0199993D01*
X0125857Y0200073D01*
X0125880Y0200152D01*
X0125906Y0200230D01*
X0125935Y0200307D01*
X0125968Y0200382D01*
X0126004Y0200456D01*
X0126042Y0200529D01*
X0126084Y0200600D01*
X0126129Y0200668D01*
X0126177Y0200735D01*
X0127710Y0199074D02*
X0127676Y0199020D01*
X0127639Y0198969D01*
X0127599Y0198920D01*
X0127556Y0198873D01*
X0127510Y0198830D01*
X0127462Y0198789D01*
X0127411Y0198751D01*
X0127358Y0198716D01*
X0127303Y0198684D01*
X0127246Y0198656D01*
X0127188Y0198632D01*
X0127128Y0198611D01*
X0127067Y0198594D01*
X0127005Y0198580D01*
X0126942Y0198571D01*
X0126879Y0198565D01*
X0126816Y0198563D01*
X0126754Y0198565D01*
X0126693Y0198570D01*
X0126632Y0198580D01*
X0126571Y0198593D01*
X0126512Y0198609D01*
X0126454Y0198629D01*
X0126397Y0198653D01*
X0126341Y0198680D01*
X0126287Y0198710D01*
X0126235Y0198744D01*
X0126186Y0198780D01*
X0126138Y0198820D01*
X0126093Y0198862D01*
X0126051Y0198907D01*
X0126011Y0198955D01*
X0125975Y0199004D01*
X0125941Y0199056D01*
X0125911Y0199110D01*
X0125884Y0199166D01*
X0125860Y0199223D01*
X0125840Y0199281D01*
X0125824Y0199340D01*
X0125811Y0199401D01*
X0125801Y0199462D01*
X0125796Y0199523D01*
X0125794Y0199585D01*
X0129754Y0198436D02*
X0129817Y0198500D01*
X0129876Y0198568D01*
X0129933Y0198637D01*
X0129987Y0198709D01*
X0130038Y0198783D01*
X0130086Y0198859D01*
X0130130Y0198936D01*
X0130171Y0199016D01*
X0130209Y0199097D01*
X0130244Y0199180D01*
X0130275Y0199264D01*
X0130302Y0199350D01*
X0130326Y0199436D01*
X0130347Y0199524D01*
X0130363Y0199612D01*
X0130376Y0199701D01*
X0130386Y0199790D01*
X0130391Y0199879D01*
X0130393Y0199969D01*
X0130394Y0199969D02*
X0130392Y0200031D01*
X0130387Y0200092D01*
X0130377Y0200153D01*
X0130364Y0200214D01*
X0130348Y0200273D01*
X0130328Y0200331D01*
X0130304Y0200388D01*
X0130277Y0200444D01*
X0130247Y0200498D01*
X0130213Y0200550D01*
X0130177Y0200599D01*
X0130137Y0200647D01*
X0130095Y0200692D01*
X0130050Y0200734D01*
X0130002Y0200774D01*
X0129953Y0200810D01*
X0129901Y0200844D01*
X0129847Y0200874D01*
X0129791Y0200901D01*
X0129734Y0200925D01*
X0129676Y0200945D01*
X0129617Y0200961D01*
X0129556Y0200974D01*
X0129495Y0200984D01*
X0129434Y0200989D01*
X0129372Y0200991D01*
X0129309Y0200989D01*
X0129246Y0200983D01*
X0129183Y0200974D01*
X0129121Y0200960D01*
X0129060Y0200943D01*
X0129000Y0200922D01*
X0128942Y0200898D01*
X0128885Y0200870D01*
X0128830Y0200838D01*
X0128777Y0200803D01*
X0128726Y0200765D01*
X0128678Y0200724D01*
X0128632Y0200681D01*
X0128589Y0200634D01*
X0128549Y0200585D01*
X0128512Y0200534D01*
X0128478Y0200480D01*
X0128589Y0185409D02*
X0126544Y0185409D01*
X0126475Y0185407D01*
X0126406Y0185402D01*
X0126337Y0185392D01*
X0126269Y0185379D01*
X0126202Y0185362D01*
X0126136Y0185342D01*
X0126071Y0185318D01*
X0126007Y0185291D01*
X0125945Y0185260D01*
X0125885Y0185226D01*
X0125827Y0185189D01*
X0125771Y0185148D01*
X0125717Y0185105D01*
X0125665Y0185059D01*
X0125616Y0185010D01*
X0125570Y0184958D01*
X0125527Y0184904D01*
X0125486Y0184848D01*
X0125449Y0184790D01*
X0125415Y0184730D01*
X0125384Y0184668D01*
X0125357Y0184604D01*
X0125333Y0184539D01*
X0125313Y0184473D01*
X0125296Y0184406D01*
X0125283Y0184338D01*
X0125273Y0184269D01*
X0125268Y0184200D01*
X0125266Y0184131D01*
X0125266Y0182854D01*
X0129866Y0182854D01*
X0129866Y0184131D01*
X0129867Y0184131D02*
X0129865Y0184200D01*
X0129860Y0184269D01*
X0129850Y0184338D01*
X0129837Y0184406D01*
X0129820Y0184473D01*
X0129800Y0184539D01*
X0129776Y0184604D01*
X0129749Y0184668D01*
X0129718Y0184730D01*
X0129684Y0184790D01*
X0129647Y0184848D01*
X0129606Y0184904D01*
X0129563Y0184958D01*
X0129517Y0185010D01*
X0129468Y0185059D01*
X0129416Y0185105D01*
X0129362Y0185148D01*
X0129306Y0185189D01*
X0129248Y0185226D01*
X0129188Y0185260D01*
X0129126Y0185291D01*
X0129062Y0185318D01*
X0128997Y0185342D01*
X0128931Y0185362D01*
X0128864Y0185379D01*
X0128796Y0185392D01*
X0128727Y0185402D01*
X0128658Y0185407D01*
X0128589Y0185409D01*
X0129866Y0181007D02*
X0129866Y0178962D01*
X0125266Y0178962D01*
X0125266Y0181007D01*
X0127311Y0180496D02*
X0127311Y0178962D01*
X0127311Y0176596D02*
X0127311Y0175062D01*
X0125266Y0175062D02*
X0125266Y0177107D01*
X0125266Y0175062D02*
X0129866Y0175062D01*
X0129866Y0177107D01*
X0127822Y0171898D02*
X0127822Y0170620D01*
X0127822Y0171898D02*
X0127820Y0171968D01*
X0127814Y0172039D01*
X0127805Y0172108D01*
X0127791Y0172177D01*
X0127774Y0172246D01*
X0127753Y0172313D01*
X0127728Y0172379D01*
X0127700Y0172443D01*
X0127668Y0172506D01*
X0127633Y0172567D01*
X0127594Y0172626D01*
X0127553Y0172683D01*
X0127508Y0172737D01*
X0127460Y0172789D01*
X0127410Y0172838D01*
X0127356Y0172885D01*
X0127301Y0172928D01*
X0127243Y0172968D01*
X0127183Y0173005D01*
X0127121Y0173038D01*
X0127057Y0173068D01*
X0126992Y0173095D01*
X0126926Y0173118D01*
X0126858Y0173137D01*
X0126789Y0173152D01*
X0126720Y0173164D01*
X0126650Y0173172D01*
X0126579Y0173176D01*
X0126509Y0173176D01*
X0126438Y0173172D01*
X0126368Y0173164D01*
X0126299Y0173152D01*
X0126230Y0173137D01*
X0126162Y0173118D01*
X0126096Y0173095D01*
X0126031Y0173068D01*
X0125967Y0173038D01*
X0125905Y0173005D01*
X0125845Y0172968D01*
X0125787Y0172928D01*
X0125732Y0172885D01*
X0125678Y0172838D01*
X0125628Y0172789D01*
X0125580Y0172737D01*
X0125535Y0172683D01*
X0125494Y0172626D01*
X0125455Y0172567D01*
X0125420Y0172506D01*
X0125388Y0172443D01*
X0125360Y0172379D01*
X0125335Y0172313D01*
X0125314Y0172246D01*
X0125297Y0172177D01*
X0125283Y0172108D01*
X0125274Y0172039D01*
X0125268Y0171968D01*
X0125266Y0171898D01*
X0125266Y0170620D01*
X0129866Y0170620D01*
X0127950Y0168098D02*
X0127183Y0166692D01*
X0125266Y0167204D02*
X0125268Y0167286D01*
X0125273Y0167368D01*
X0125282Y0167450D01*
X0125294Y0167531D01*
X0125310Y0167612D01*
X0125329Y0167692D01*
X0125352Y0167771D01*
X0125378Y0167849D01*
X0125407Y0167926D01*
X0125440Y0168001D01*
X0125476Y0168075D01*
X0125514Y0168148D01*
X0125556Y0168219D01*
X0125601Y0168287D01*
X0125649Y0168354D01*
X0127183Y0166692D02*
X0127149Y0166638D01*
X0127112Y0166587D01*
X0127072Y0166538D01*
X0127029Y0166491D01*
X0126983Y0166448D01*
X0126935Y0166407D01*
X0126884Y0166369D01*
X0126831Y0166334D01*
X0126776Y0166302D01*
X0126719Y0166274D01*
X0126661Y0166250D01*
X0126601Y0166229D01*
X0126540Y0166212D01*
X0126478Y0166198D01*
X0126415Y0166189D01*
X0126352Y0166183D01*
X0126289Y0166181D01*
X0126289Y0166182D02*
X0126227Y0166184D01*
X0126166Y0166189D01*
X0126105Y0166199D01*
X0126044Y0166212D01*
X0125985Y0166228D01*
X0125927Y0166248D01*
X0125870Y0166272D01*
X0125814Y0166299D01*
X0125760Y0166329D01*
X0125708Y0166363D01*
X0125659Y0166399D01*
X0125611Y0166439D01*
X0125566Y0166481D01*
X0125524Y0166526D01*
X0125484Y0166574D01*
X0125448Y0166623D01*
X0125414Y0166675D01*
X0125384Y0166729D01*
X0125357Y0166785D01*
X0125333Y0166842D01*
X0125313Y0166900D01*
X0125297Y0166959D01*
X0125284Y0167020D01*
X0125274Y0167081D01*
X0125269Y0167142D01*
X0125267Y0167204D01*
X0129227Y0166054D02*
X0129290Y0166118D01*
X0129349Y0166186D01*
X0129406Y0166255D01*
X0129460Y0166327D01*
X0129511Y0166401D01*
X0129559Y0166477D01*
X0129603Y0166554D01*
X0129644Y0166634D01*
X0129682Y0166715D01*
X0129717Y0166798D01*
X0129748Y0166882D01*
X0129775Y0166968D01*
X0129799Y0167054D01*
X0129820Y0167142D01*
X0129836Y0167230D01*
X0129849Y0167319D01*
X0129859Y0167408D01*
X0129864Y0167497D01*
X0129866Y0167587D01*
X0129864Y0167649D01*
X0129859Y0167710D01*
X0129849Y0167771D01*
X0129836Y0167832D01*
X0129820Y0167891D01*
X0129800Y0167949D01*
X0129776Y0168006D01*
X0129749Y0168062D01*
X0129719Y0168116D01*
X0129685Y0168168D01*
X0129649Y0168217D01*
X0129609Y0168265D01*
X0129567Y0168310D01*
X0129522Y0168352D01*
X0129474Y0168392D01*
X0129425Y0168428D01*
X0129373Y0168462D01*
X0129319Y0168492D01*
X0129263Y0168519D01*
X0129206Y0168543D01*
X0129148Y0168563D01*
X0129089Y0168579D01*
X0129028Y0168592D01*
X0128967Y0168602D01*
X0128906Y0168607D01*
X0128844Y0168609D01*
X0128781Y0168607D01*
X0128718Y0168601D01*
X0128655Y0168592D01*
X0128593Y0168578D01*
X0128532Y0168561D01*
X0128472Y0168540D01*
X0128414Y0168516D01*
X0128357Y0168488D01*
X0128302Y0168456D01*
X0128249Y0168421D01*
X0128198Y0168383D01*
X0128150Y0168342D01*
X0128104Y0168299D01*
X0128061Y0168252D01*
X0128021Y0168203D01*
X0127984Y0168152D01*
X0127950Y0168098D01*
X0125794Y0222752D02*
X0125794Y0223774D01*
X0125794Y0223263D02*
X0130394Y0223263D01*
X0130394Y0222752D02*
X0130394Y0223774D01*
X0130394Y0225744D02*
X0130394Y0227789D01*
X0130394Y0229352D02*
X0130394Y0230374D01*
X0130394Y0229863D02*
X0125794Y0229863D01*
X0125794Y0229352D02*
X0125794Y0230374D01*
X0125794Y0231885D02*
X0125794Y0234441D01*
X0125794Y0233163D02*
X0130394Y0233163D01*
X0130394Y0236244D02*
X0125794Y0236244D01*
X0125794Y0238289D01*
X0127838Y0237778D02*
X0127838Y0236244D01*
X0130394Y0236244D02*
X0130394Y0238289D01*
X0130394Y0225744D02*
X0125794Y0225744D01*
M02*
