G75*
%MOIN*%
%OFA0B0*%
%FSLAX25Y25*%
%IPPOS*%
%LPD*%
%AMOC8*
5,1,8,0,0,1.08239X$1,22.5*
%
%ADD10C,0.00000*%
%ADD11C,0.01000*%
%ADD12C,0.07400*%
%ADD13R,0.04362X0.04362*%
%ADD14OC8,0.05200*%
%ADD15R,0.07400X0.07400*%
%ADD16C,0.04400*%
%ADD17C,0.10000*%
%ADD18R,0.07000X0.07000*%
%ADD19C,0.07000*%
%ADD20OC8,0.06300*%
%ADD21C,0.06300*%
%ADD22C,0.02400*%
%ADD23C,0.07874*%
%ADD24C,0.04000*%
D10*
X0191787Y0023322D02*
X0191789Y0023480D01*
X0191795Y0023638D01*
X0191805Y0023796D01*
X0191819Y0023954D01*
X0191837Y0024111D01*
X0191858Y0024268D01*
X0191884Y0024424D01*
X0191914Y0024580D01*
X0191947Y0024735D01*
X0191985Y0024888D01*
X0192026Y0025041D01*
X0192071Y0025193D01*
X0192120Y0025344D01*
X0192173Y0025493D01*
X0192229Y0025641D01*
X0192289Y0025787D01*
X0192353Y0025932D01*
X0192421Y0026075D01*
X0192492Y0026217D01*
X0192566Y0026357D01*
X0192644Y0026494D01*
X0192726Y0026630D01*
X0192810Y0026764D01*
X0192899Y0026895D01*
X0192990Y0027024D01*
X0193085Y0027151D01*
X0193182Y0027276D01*
X0193283Y0027398D01*
X0193387Y0027517D01*
X0193494Y0027634D01*
X0193604Y0027748D01*
X0193717Y0027859D01*
X0193832Y0027968D01*
X0193950Y0028073D01*
X0194071Y0028175D01*
X0194194Y0028275D01*
X0194320Y0028371D01*
X0194448Y0028464D01*
X0194578Y0028554D01*
X0194711Y0028640D01*
X0194846Y0028724D01*
X0194982Y0028803D01*
X0195121Y0028880D01*
X0195262Y0028952D01*
X0195404Y0029022D01*
X0195548Y0029087D01*
X0195694Y0029149D01*
X0195841Y0029207D01*
X0195990Y0029262D01*
X0196140Y0029313D01*
X0196291Y0029360D01*
X0196443Y0029403D01*
X0196596Y0029442D01*
X0196751Y0029478D01*
X0196906Y0029509D01*
X0197062Y0029537D01*
X0197218Y0029561D01*
X0197375Y0029581D01*
X0197533Y0029597D01*
X0197690Y0029609D01*
X0197849Y0029617D01*
X0198007Y0029621D01*
X0198165Y0029621D01*
X0198323Y0029617D01*
X0198482Y0029609D01*
X0198639Y0029597D01*
X0198797Y0029581D01*
X0198954Y0029561D01*
X0199110Y0029537D01*
X0199266Y0029509D01*
X0199421Y0029478D01*
X0199576Y0029442D01*
X0199729Y0029403D01*
X0199881Y0029360D01*
X0200032Y0029313D01*
X0200182Y0029262D01*
X0200331Y0029207D01*
X0200478Y0029149D01*
X0200624Y0029087D01*
X0200768Y0029022D01*
X0200910Y0028952D01*
X0201051Y0028880D01*
X0201190Y0028803D01*
X0201326Y0028724D01*
X0201461Y0028640D01*
X0201594Y0028554D01*
X0201724Y0028464D01*
X0201852Y0028371D01*
X0201978Y0028275D01*
X0202101Y0028175D01*
X0202222Y0028073D01*
X0202340Y0027968D01*
X0202455Y0027859D01*
X0202568Y0027748D01*
X0202678Y0027634D01*
X0202785Y0027517D01*
X0202889Y0027398D01*
X0202990Y0027276D01*
X0203087Y0027151D01*
X0203182Y0027024D01*
X0203273Y0026895D01*
X0203362Y0026764D01*
X0203446Y0026630D01*
X0203528Y0026494D01*
X0203606Y0026357D01*
X0203680Y0026217D01*
X0203751Y0026075D01*
X0203819Y0025932D01*
X0203883Y0025787D01*
X0203943Y0025641D01*
X0203999Y0025493D01*
X0204052Y0025344D01*
X0204101Y0025193D01*
X0204146Y0025041D01*
X0204187Y0024888D01*
X0204225Y0024735D01*
X0204258Y0024580D01*
X0204288Y0024424D01*
X0204314Y0024268D01*
X0204335Y0024111D01*
X0204353Y0023954D01*
X0204367Y0023796D01*
X0204377Y0023638D01*
X0204383Y0023480D01*
X0204385Y0023322D01*
X0204383Y0023164D01*
X0204377Y0023006D01*
X0204367Y0022848D01*
X0204353Y0022690D01*
X0204335Y0022533D01*
X0204314Y0022376D01*
X0204288Y0022220D01*
X0204258Y0022064D01*
X0204225Y0021909D01*
X0204187Y0021756D01*
X0204146Y0021603D01*
X0204101Y0021451D01*
X0204052Y0021300D01*
X0203999Y0021151D01*
X0203943Y0021003D01*
X0203883Y0020857D01*
X0203819Y0020712D01*
X0203751Y0020569D01*
X0203680Y0020427D01*
X0203606Y0020287D01*
X0203528Y0020150D01*
X0203446Y0020014D01*
X0203362Y0019880D01*
X0203273Y0019749D01*
X0203182Y0019620D01*
X0203087Y0019493D01*
X0202990Y0019368D01*
X0202889Y0019246D01*
X0202785Y0019127D01*
X0202678Y0019010D01*
X0202568Y0018896D01*
X0202455Y0018785D01*
X0202340Y0018676D01*
X0202222Y0018571D01*
X0202101Y0018469D01*
X0201978Y0018369D01*
X0201852Y0018273D01*
X0201724Y0018180D01*
X0201594Y0018090D01*
X0201461Y0018004D01*
X0201326Y0017920D01*
X0201190Y0017841D01*
X0201051Y0017764D01*
X0200910Y0017692D01*
X0200768Y0017622D01*
X0200624Y0017557D01*
X0200478Y0017495D01*
X0200331Y0017437D01*
X0200182Y0017382D01*
X0200032Y0017331D01*
X0199881Y0017284D01*
X0199729Y0017241D01*
X0199576Y0017202D01*
X0199421Y0017166D01*
X0199266Y0017135D01*
X0199110Y0017107D01*
X0198954Y0017083D01*
X0198797Y0017063D01*
X0198639Y0017047D01*
X0198482Y0017035D01*
X0198323Y0017027D01*
X0198165Y0017023D01*
X0198007Y0017023D01*
X0197849Y0017027D01*
X0197690Y0017035D01*
X0197533Y0017047D01*
X0197375Y0017063D01*
X0197218Y0017083D01*
X0197062Y0017107D01*
X0196906Y0017135D01*
X0196751Y0017166D01*
X0196596Y0017202D01*
X0196443Y0017241D01*
X0196291Y0017284D01*
X0196140Y0017331D01*
X0195990Y0017382D01*
X0195841Y0017437D01*
X0195694Y0017495D01*
X0195548Y0017557D01*
X0195404Y0017622D01*
X0195262Y0017692D01*
X0195121Y0017764D01*
X0194982Y0017841D01*
X0194846Y0017920D01*
X0194711Y0018004D01*
X0194578Y0018090D01*
X0194448Y0018180D01*
X0194320Y0018273D01*
X0194194Y0018369D01*
X0194071Y0018469D01*
X0193950Y0018571D01*
X0193832Y0018676D01*
X0193717Y0018785D01*
X0193604Y0018896D01*
X0193494Y0019010D01*
X0193387Y0019127D01*
X0193283Y0019246D01*
X0193182Y0019368D01*
X0193085Y0019493D01*
X0192990Y0019620D01*
X0192899Y0019749D01*
X0192810Y0019880D01*
X0192726Y0020014D01*
X0192644Y0020150D01*
X0192566Y0020287D01*
X0192492Y0020427D01*
X0192421Y0020569D01*
X0192353Y0020712D01*
X0192289Y0020857D01*
X0192229Y0021003D01*
X0192173Y0021151D01*
X0192120Y0021300D01*
X0192071Y0021451D01*
X0192026Y0021603D01*
X0191985Y0021756D01*
X0191947Y0021909D01*
X0191914Y0022064D01*
X0191884Y0022220D01*
X0191858Y0022376D01*
X0191837Y0022533D01*
X0191819Y0022690D01*
X0191805Y0022848D01*
X0191795Y0023006D01*
X0191789Y0023164D01*
X0191787Y0023322D01*
X0191787Y0241669D02*
X0191789Y0241827D01*
X0191795Y0241985D01*
X0191805Y0242143D01*
X0191819Y0242301D01*
X0191837Y0242458D01*
X0191858Y0242615D01*
X0191884Y0242771D01*
X0191914Y0242927D01*
X0191947Y0243082D01*
X0191985Y0243235D01*
X0192026Y0243388D01*
X0192071Y0243540D01*
X0192120Y0243691D01*
X0192173Y0243840D01*
X0192229Y0243988D01*
X0192289Y0244134D01*
X0192353Y0244279D01*
X0192421Y0244422D01*
X0192492Y0244564D01*
X0192566Y0244704D01*
X0192644Y0244841D01*
X0192726Y0244977D01*
X0192810Y0245111D01*
X0192899Y0245242D01*
X0192990Y0245371D01*
X0193085Y0245498D01*
X0193182Y0245623D01*
X0193283Y0245745D01*
X0193387Y0245864D01*
X0193494Y0245981D01*
X0193604Y0246095D01*
X0193717Y0246206D01*
X0193832Y0246315D01*
X0193950Y0246420D01*
X0194071Y0246522D01*
X0194194Y0246622D01*
X0194320Y0246718D01*
X0194448Y0246811D01*
X0194578Y0246901D01*
X0194711Y0246987D01*
X0194846Y0247071D01*
X0194982Y0247150D01*
X0195121Y0247227D01*
X0195262Y0247299D01*
X0195404Y0247369D01*
X0195548Y0247434D01*
X0195694Y0247496D01*
X0195841Y0247554D01*
X0195990Y0247609D01*
X0196140Y0247660D01*
X0196291Y0247707D01*
X0196443Y0247750D01*
X0196596Y0247789D01*
X0196751Y0247825D01*
X0196906Y0247856D01*
X0197062Y0247884D01*
X0197218Y0247908D01*
X0197375Y0247928D01*
X0197533Y0247944D01*
X0197690Y0247956D01*
X0197849Y0247964D01*
X0198007Y0247968D01*
X0198165Y0247968D01*
X0198323Y0247964D01*
X0198482Y0247956D01*
X0198639Y0247944D01*
X0198797Y0247928D01*
X0198954Y0247908D01*
X0199110Y0247884D01*
X0199266Y0247856D01*
X0199421Y0247825D01*
X0199576Y0247789D01*
X0199729Y0247750D01*
X0199881Y0247707D01*
X0200032Y0247660D01*
X0200182Y0247609D01*
X0200331Y0247554D01*
X0200478Y0247496D01*
X0200624Y0247434D01*
X0200768Y0247369D01*
X0200910Y0247299D01*
X0201051Y0247227D01*
X0201190Y0247150D01*
X0201326Y0247071D01*
X0201461Y0246987D01*
X0201594Y0246901D01*
X0201724Y0246811D01*
X0201852Y0246718D01*
X0201978Y0246622D01*
X0202101Y0246522D01*
X0202222Y0246420D01*
X0202340Y0246315D01*
X0202455Y0246206D01*
X0202568Y0246095D01*
X0202678Y0245981D01*
X0202785Y0245864D01*
X0202889Y0245745D01*
X0202990Y0245623D01*
X0203087Y0245498D01*
X0203182Y0245371D01*
X0203273Y0245242D01*
X0203362Y0245111D01*
X0203446Y0244977D01*
X0203528Y0244841D01*
X0203606Y0244704D01*
X0203680Y0244564D01*
X0203751Y0244422D01*
X0203819Y0244279D01*
X0203883Y0244134D01*
X0203943Y0243988D01*
X0203999Y0243840D01*
X0204052Y0243691D01*
X0204101Y0243540D01*
X0204146Y0243388D01*
X0204187Y0243235D01*
X0204225Y0243082D01*
X0204258Y0242927D01*
X0204288Y0242771D01*
X0204314Y0242615D01*
X0204335Y0242458D01*
X0204353Y0242301D01*
X0204367Y0242143D01*
X0204377Y0241985D01*
X0204383Y0241827D01*
X0204385Y0241669D01*
X0204383Y0241511D01*
X0204377Y0241353D01*
X0204367Y0241195D01*
X0204353Y0241037D01*
X0204335Y0240880D01*
X0204314Y0240723D01*
X0204288Y0240567D01*
X0204258Y0240411D01*
X0204225Y0240256D01*
X0204187Y0240103D01*
X0204146Y0239950D01*
X0204101Y0239798D01*
X0204052Y0239647D01*
X0203999Y0239498D01*
X0203943Y0239350D01*
X0203883Y0239204D01*
X0203819Y0239059D01*
X0203751Y0238916D01*
X0203680Y0238774D01*
X0203606Y0238634D01*
X0203528Y0238497D01*
X0203446Y0238361D01*
X0203362Y0238227D01*
X0203273Y0238096D01*
X0203182Y0237967D01*
X0203087Y0237840D01*
X0202990Y0237715D01*
X0202889Y0237593D01*
X0202785Y0237474D01*
X0202678Y0237357D01*
X0202568Y0237243D01*
X0202455Y0237132D01*
X0202340Y0237023D01*
X0202222Y0236918D01*
X0202101Y0236816D01*
X0201978Y0236716D01*
X0201852Y0236620D01*
X0201724Y0236527D01*
X0201594Y0236437D01*
X0201461Y0236351D01*
X0201326Y0236267D01*
X0201190Y0236188D01*
X0201051Y0236111D01*
X0200910Y0236039D01*
X0200768Y0235969D01*
X0200624Y0235904D01*
X0200478Y0235842D01*
X0200331Y0235784D01*
X0200182Y0235729D01*
X0200032Y0235678D01*
X0199881Y0235631D01*
X0199729Y0235588D01*
X0199576Y0235549D01*
X0199421Y0235513D01*
X0199266Y0235482D01*
X0199110Y0235454D01*
X0198954Y0235430D01*
X0198797Y0235410D01*
X0198639Y0235394D01*
X0198482Y0235382D01*
X0198323Y0235374D01*
X0198165Y0235370D01*
X0198007Y0235370D01*
X0197849Y0235374D01*
X0197690Y0235382D01*
X0197533Y0235394D01*
X0197375Y0235410D01*
X0197218Y0235430D01*
X0197062Y0235454D01*
X0196906Y0235482D01*
X0196751Y0235513D01*
X0196596Y0235549D01*
X0196443Y0235588D01*
X0196291Y0235631D01*
X0196140Y0235678D01*
X0195990Y0235729D01*
X0195841Y0235784D01*
X0195694Y0235842D01*
X0195548Y0235904D01*
X0195404Y0235969D01*
X0195262Y0236039D01*
X0195121Y0236111D01*
X0194982Y0236188D01*
X0194846Y0236267D01*
X0194711Y0236351D01*
X0194578Y0236437D01*
X0194448Y0236527D01*
X0194320Y0236620D01*
X0194194Y0236716D01*
X0194071Y0236816D01*
X0193950Y0236918D01*
X0193832Y0237023D01*
X0193717Y0237132D01*
X0193604Y0237243D01*
X0193494Y0237357D01*
X0193387Y0237474D01*
X0193283Y0237593D01*
X0193182Y0237715D01*
X0193085Y0237840D01*
X0192990Y0237967D01*
X0192899Y0238096D01*
X0192810Y0238227D01*
X0192726Y0238361D01*
X0192644Y0238497D01*
X0192566Y0238634D01*
X0192492Y0238774D01*
X0192421Y0238916D01*
X0192353Y0239059D01*
X0192289Y0239204D01*
X0192229Y0239350D01*
X0192173Y0239498D01*
X0192120Y0239647D01*
X0192071Y0239798D01*
X0192026Y0239950D01*
X0191985Y0240103D01*
X0191947Y0240256D01*
X0191914Y0240411D01*
X0191884Y0240567D01*
X0191858Y0240723D01*
X0191837Y0240880D01*
X0191819Y0241037D01*
X0191805Y0241195D01*
X0191795Y0241353D01*
X0191789Y0241511D01*
X0191787Y0241669D01*
D11*
X0036669Y0239700D02*
X0036669Y0025291D01*
X0036668Y0025291D02*
X0036673Y0024863D01*
X0036689Y0024435D01*
X0036715Y0024008D01*
X0036751Y0023581D01*
X0036797Y0023155D01*
X0036854Y0022731D01*
X0036921Y0022308D01*
X0036998Y0021887D01*
X0037085Y0021468D01*
X0037183Y0021051D01*
X0037290Y0020637D01*
X0037408Y0020225D01*
X0037535Y0019816D01*
X0037672Y0019411D01*
X0037819Y0019008D01*
X0037976Y0018610D01*
X0038142Y0018215D01*
X0038318Y0017825D01*
X0038503Y0017439D01*
X0038697Y0017057D01*
X0038901Y0016681D01*
X0039113Y0016309D01*
X0039335Y0015943D01*
X0039565Y0015582D01*
X0039804Y0015227D01*
X0040052Y0014877D01*
X0040307Y0014534D01*
X0040572Y0014197D01*
X0040844Y0013866D01*
X0041124Y0013542D01*
X0041411Y0013225D01*
X0041707Y0012915D01*
X0042009Y0012613D01*
X0042319Y0012317D01*
X0042636Y0012030D01*
X0042960Y0011750D01*
X0043291Y0011478D01*
X0043628Y0011213D01*
X0043971Y0010958D01*
X0044321Y0010710D01*
X0044676Y0010471D01*
X0045037Y0010241D01*
X0045403Y0010019D01*
X0045775Y0009807D01*
X0046151Y0009603D01*
X0046533Y0009409D01*
X0046919Y0009224D01*
X0047309Y0009048D01*
X0047704Y0008882D01*
X0048102Y0008725D01*
X0048505Y0008578D01*
X0048910Y0008441D01*
X0049319Y0008314D01*
X0049731Y0008196D01*
X0050145Y0008089D01*
X0050562Y0007991D01*
X0050981Y0007904D01*
X0051402Y0007827D01*
X0051825Y0007760D01*
X0052249Y0007703D01*
X0052675Y0007657D01*
X0053102Y0007621D01*
X0053529Y0007595D01*
X0053957Y0007579D01*
X0054385Y0007574D01*
X0196118Y0007574D01*
X0196546Y0007579D01*
X0196974Y0007595D01*
X0197401Y0007621D01*
X0197828Y0007657D01*
X0198254Y0007703D01*
X0198678Y0007760D01*
X0199101Y0007827D01*
X0199522Y0007904D01*
X0199941Y0007991D01*
X0200358Y0008089D01*
X0200772Y0008196D01*
X0201184Y0008314D01*
X0201593Y0008441D01*
X0201998Y0008578D01*
X0202401Y0008725D01*
X0202799Y0008882D01*
X0203194Y0009048D01*
X0203584Y0009224D01*
X0203970Y0009409D01*
X0204352Y0009603D01*
X0204728Y0009807D01*
X0205100Y0010019D01*
X0205466Y0010241D01*
X0205827Y0010471D01*
X0206182Y0010710D01*
X0206532Y0010958D01*
X0206875Y0011213D01*
X0207212Y0011478D01*
X0207543Y0011750D01*
X0207867Y0012030D01*
X0208184Y0012317D01*
X0208494Y0012613D01*
X0208796Y0012915D01*
X0209092Y0013225D01*
X0209379Y0013542D01*
X0209659Y0013866D01*
X0209931Y0014197D01*
X0210196Y0014534D01*
X0210451Y0014877D01*
X0210699Y0015227D01*
X0210938Y0015582D01*
X0211168Y0015943D01*
X0211390Y0016309D01*
X0211602Y0016681D01*
X0211806Y0017057D01*
X0212000Y0017439D01*
X0212185Y0017825D01*
X0212361Y0018215D01*
X0212527Y0018610D01*
X0212684Y0019008D01*
X0212831Y0019411D01*
X0212968Y0019816D01*
X0213095Y0020225D01*
X0213213Y0020637D01*
X0213320Y0021051D01*
X0213418Y0021468D01*
X0213505Y0021887D01*
X0213582Y0022308D01*
X0213649Y0022731D01*
X0213706Y0023155D01*
X0213752Y0023581D01*
X0213788Y0024008D01*
X0213814Y0024435D01*
X0213830Y0024863D01*
X0213835Y0025291D01*
X0213834Y0025291D02*
X0213834Y0239700D01*
X0213835Y0239700D02*
X0213830Y0240128D01*
X0213814Y0240556D01*
X0213788Y0240983D01*
X0213752Y0241410D01*
X0213706Y0241836D01*
X0213649Y0242260D01*
X0213582Y0242683D01*
X0213505Y0243104D01*
X0213418Y0243523D01*
X0213320Y0243940D01*
X0213213Y0244354D01*
X0213095Y0244766D01*
X0212968Y0245175D01*
X0212831Y0245580D01*
X0212684Y0245983D01*
X0212527Y0246381D01*
X0212361Y0246776D01*
X0212185Y0247166D01*
X0212000Y0247552D01*
X0211806Y0247934D01*
X0211602Y0248310D01*
X0211390Y0248682D01*
X0211168Y0249048D01*
X0210938Y0249409D01*
X0210699Y0249764D01*
X0210451Y0250114D01*
X0210196Y0250457D01*
X0209931Y0250794D01*
X0209659Y0251125D01*
X0209379Y0251449D01*
X0209092Y0251766D01*
X0208796Y0252076D01*
X0208494Y0252378D01*
X0208184Y0252674D01*
X0207867Y0252961D01*
X0207543Y0253241D01*
X0207212Y0253513D01*
X0206875Y0253778D01*
X0206532Y0254033D01*
X0206182Y0254281D01*
X0205827Y0254520D01*
X0205466Y0254750D01*
X0205100Y0254972D01*
X0204728Y0255184D01*
X0204352Y0255388D01*
X0203970Y0255582D01*
X0203584Y0255767D01*
X0203194Y0255943D01*
X0202799Y0256109D01*
X0202401Y0256266D01*
X0201998Y0256413D01*
X0201593Y0256550D01*
X0201184Y0256677D01*
X0200772Y0256795D01*
X0200358Y0256902D01*
X0199941Y0257000D01*
X0199522Y0257087D01*
X0199101Y0257164D01*
X0198678Y0257231D01*
X0198254Y0257288D01*
X0197828Y0257334D01*
X0197401Y0257370D01*
X0196974Y0257396D01*
X0196546Y0257412D01*
X0196118Y0257417D01*
X0054385Y0257417D01*
X0053957Y0257412D01*
X0053529Y0257396D01*
X0053102Y0257370D01*
X0052675Y0257334D01*
X0052249Y0257288D01*
X0051825Y0257231D01*
X0051402Y0257164D01*
X0050981Y0257087D01*
X0050562Y0257000D01*
X0050145Y0256902D01*
X0049731Y0256795D01*
X0049319Y0256677D01*
X0048910Y0256550D01*
X0048505Y0256413D01*
X0048102Y0256266D01*
X0047704Y0256109D01*
X0047309Y0255943D01*
X0046919Y0255767D01*
X0046533Y0255582D01*
X0046151Y0255388D01*
X0045775Y0255184D01*
X0045403Y0254972D01*
X0045037Y0254750D01*
X0044676Y0254520D01*
X0044321Y0254281D01*
X0043971Y0254033D01*
X0043628Y0253778D01*
X0043291Y0253513D01*
X0042960Y0253241D01*
X0042636Y0252961D01*
X0042319Y0252674D01*
X0042009Y0252378D01*
X0041707Y0252076D01*
X0041411Y0251766D01*
X0041124Y0251449D01*
X0040844Y0251125D01*
X0040572Y0250794D01*
X0040307Y0250457D01*
X0040052Y0250114D01*
X0039804Y0249764D01*
X0039565Y0249409D01*
X0039335Y0249048D01*
X0039113Y0248682D01*
X0038901Y0248310D01*
X0038697Y0247934D01*
X0038503Y0247552D01*
X0038318Y0247166D01*
X0038142Y0246776D01*
X0037976Y0246381D01*
X0037819Y0245983D01*
X0037672Y0245580D01*
X0037535Y0245175D01*
X0037408Y0244766D01*
X0037290Y0244354D01*
X0037183Y0243940D01*
X0037085Y0243523D01*
X0036998Y0243104D01*
X0036921Y0242683D01*
X0036854Y0242260D01*
X0036797Y0241836D01*
X0036751Y0241410D01*
X0036715Y0240983D01*
X0036689Y0240556D01*
X0036673Y0240128D01*
X0036668Y0239700D01*
D12*
X0050674Y0232728D03*
X0050608Y0207899D03*
X0050608Y0197899D03*
X0053714Y0158727D03*
X0053714Y0148727D03*
X0053714Y0138727D03*
X0053714Y0128727D03*
X0053714Y0118727D03*
X0063714Y0118727D03*
X0063714Y0128727D03*
X0063714Y0138727D03*
X0063714Y0148727D03*
X0063714Y0158727D03*
X0051135Y0055560D03*
X0051135Y0045560D03*
X0051135Y0035560D03*
X0159930Y0072978D03*
X0159930Y0082978D03*
X0159930Y0092978D03*
X0169930Y0092978D03*
X0169930Y0082978D03*
X0169930Y0072978D03*
X0183474Y0118765D03*
X0193474Y0118765D03*
X0193114Y0149680D03*
X0183114Y0149680D03*
D13*
X0205688Y0137877D03*
X0205688Y0132877D03*
X0205688Y0127877D03*
D14*
X0171551Y0122562D03*
X0171176Y0134239D03*
X0171615Y0147179D03*
X0131615Y0147179D03*
X0131176Y0134239D03*
X0131551Y0122562D03*
X0081594Y0185576D03*
X0081594Y0225576D03*
D15*
X0050674Y0222728D03*
X0050608Y0187899D03*
X0051135Y0025560D03*
D16*
X0107149Y0168645D03*
X0097149Y0178645D03*
X0107149Y0188645D03*
X0106622Y0208763D03*
X0096622Y0218763D03*
X0106622Y0228763D03*
D17*
X0061368Y0087910D02*
X0051368Y0087910D01*
X0051368Y0072319D02*
X0061368Y0072319D01*
D18*
X0134689Y0089924D03*
D19*
X0134689Y0079924D03*
X0134689Y0069924D03*
X0134689Y0059924D03*
X0134689Y0049924D03*
X0134689Y0039924D03*
X0134689Y0029924D03*
X0134689Y0019924D03*
X0084689Y0019924D03*
X0084689Y0029924D03*
X0084689Y0039924D03*
X0084689Y0049924D03*
X0084689Y0059924D03*
X0084689Y0069924D03*
X0084689Y0079924D03*
X0084689Y0089924D03*
D20*
X0111523Y0128163D03*
D21*
X0097523Y0128163D03*
D22*
X0091186Y0126970D02*
X0069589Y0126970D01*
X0069814Y0127514D02*
X0069814Y0129940D01*
X0068885Y0132182D01*
X0067170Y0133898D01*
X0067129Y0133915D01*
X0067558Y0134227D01*
X0068214Y0134883D01*
X0068760Y0135635D01*
X0069182Y0136462D01*
X0069469Y0137345D01*
X0069614Y0138263D01*
X0069614Y0138727D01*
X0063714Y0138727D01*
X0057814Y0138727D01*
X0053714Y0138727D01*
X0047814Y0138727D01*
X0047814Y0138263D01*
X0047959Y0137345D01*
X0048246Y0136462D01*
X0048668Y0135635D01*
X0049214Y0134883D01*
X0049871Y0134227D01*
X0050299Y0133915D01*
X0050259Y0133898D01*
X0048543Y0132182D01*
X0047614Y0129940D01*
X0047614Y0127514D01*
X0048543Y0125272D01*
X0050087Y0123727D01*
X0048543Y0122182D01*
X0047614Y0119940D01*
X0047614Y0117514D01*
X0048543Y0115272D01*
X0050259Y0113556D01*
X0052501Y0112627D01*
X0054928Y0112627D01*
X0057170Y0113556D01*
X0058714Y0115100D01*
X0060259Y0113556D01*
X0062501Y0112627D01*
X0064928Y0112627D01*
X0067170Y0113556D01*
X0068885Y0115272D01*
X0069814Y0117514D01*
X0069814Y0119940D01*
X0068885Y0122182D01*
X0067341Y0123727D01*
X0068885Y0125272D01*
X0069814Y0127514D01*
X0069814Y0129368D02*
X0091186Y0129368D01*
X0091186Y0129423D02*
X0091186Y0105384D01*
X0082064Y0096261D01*
X0057122Y0096261D01*
X0054825Y0095310D01*
X0049896Y0095310D01*
X0047176Y0094183D01*
X0045095Y0092102D01*
X0043968Y0089382D01*
X0043968Y0086438D01*
X0045095Y0083718D01*
X0047176Y0081637D01*
X0049896Y0080510D01*
X0056431Y0080510D01*
X0055007Y0079920D01*
X0054806Y0079719D01*
X0049896Y0079719D01*
X0047176Y0078593D01*
X0045095Y0076511D01*
X0043968Y0073791D01*
X0043968Y0070847D01*
X0045095Y0068128D01*
X0047176Y0066046D01*
X0049896Y0064919D01*
X0062840Y0064919D01*
X0065560Y0066046D01*
X0067642Y0068128D01*
X0067676Y0068211D01*
X0068900Y0068211D01*
X0060649Y0059960D01*
X0055362Y0059960D01*
X0054591Y0060732D01*
X0052349Y0061660D01*
X0049922Y0061660D01*
X0047680Y0060732D01*
X0045964Y0059016D01*
X0045035Y0056774D01*
X0045035Y0054347D01*
X0045964Y0052105D01*
X0047509Y0050560D01*
X0045964Y0049016D01*
X0045035Y0046774D01*
X0045035Y0044347D01*
X0045964Y0042105D01*
X0047509Y0040560D01*
X0045964Y0039016D01*
X0045035Y0036774D01*
X0045035Y0034347D01*
X0045964Y0032105D01*
X0046570Y0031500D01*
X0046076Y0031295D01*
X0045401Y0030620D01*
X0045035Y0029738D01*
X0045035Y0021383D01*
X0045401Y0020501D01*
X0046076Y0019826D01*
X0046958Y0019460D01*
X0055313Y0019460D01*
X0056195Y0019826D01*
X0056870Y0020501D01*
X0057143Y0021160D01*
X0059835Y0021160D01*
X0061452Y0021830D01*
X0075082Y0035460D01*
X0080809Y0035460D01*
X0081345Y0034924D01*
X0079687Y0033267D01*
X0078789Y0031098D01*
X0078789Y0028751D01*
X0079687Y0026582D01*
X0081347Y0024923D01*
X0081680Y0024784D01*
X0080975Y0024272D01*
X0080341Y0023638D01*
X0079814Y0022912D01*
X0079406Y0022112D01*
X0079129Y0021259D01*
X0078989Y0020373D01*
X0078989Y0019925D01*
X0084689Y0019925D01*
X0090389Y0019925D01*
X0090389Y0020373D01*
X0090248Y0021259D01*
X0089971Y0022112D01*
X0089564Y0022912D01*
X0089036Y0023638D01*
X0088402Y0024272D01*
X0087697Y0024784D01*
X0088031Y0024923D01*
X0089690Y0026582D01*
X0090589Y0028751D01*
X0090589Y0031098D01*
X0089690Y0033267D01*
X0088033Y0034924D01*
X0089690Y0036582D01*
X0090589Y0038751D01*
X0090589Y0041098D01*
X0089690Y0043267D01*
X0088033Y0044924D01*
X0089690Y0046582D01*
X0090589Y0048751D01*
X0090589Y0051098D01*
X0089690Y0053267D01*
X0088033Y0054924D01*
X0089690Y0056582D01*
X0090589Y0058751D01*
X0090589Y0061098D01*
X0089690Y0063267D01*
X0088033Y0064924D01*
X0089690Y0066582D01*
X0090589Y0068751D01*
X0090589Y0071098D01*
X0089690Y0073267D01*
X0089370Y0073587D01*
X0091025Y0073587D01*
X0093354Y0074552D01*
X0115215Y0096413D01*
X0116998Y0098195D01*
X0117962Y0100525D01*
X0117962Y0106817D01*
X0117969Y0106832D01*
X0117962Y0108077D01*
X0117962Y0109321D01*
X0117956Y0109336D01*
X0117854Y0129455D01*
X0116877Y0131780D01*
X0115085Y0133553D01*
X0112751Y0134506D01*
X0110230Y0134493D01*
X0107906Y0133517D01*
X0106133Y0131725D01*
X0105180Y0129391D01*
X0105288Y0108044D01*
X0105288Y0104410D01*
X0103860Y0102982D01*
X0103860Y0129423D01*
X0102895Y0131752D01*
X0101113Y0133535D01*
X0098784Y0134500D01*
X0096263Y0134500D01*
X0093933Y0133535D01*
X0092151Y0131752D01*
X0091186Y0129423D01*
X0092165Y0131767D02*
X0069058Y0131767D01*
X0067473Y0134166D02*
X0095456Y0134166D01*
X0099590Y0134166D02*
X0109450Y0134166D01*
X0106174Y0131767D02*
X0102881Y0131767D01*
X0103860Y0129368D02*
X0105180Y0129368D01*
X0105192Y0126970D02*
X0103860Y0126970D01*
X0103860Y0124571D02*
X0105204Y0124571D01*
X0105216Y0122173D02*
X0103860Y0122173D01*
X0103860Y0119774D02*
X0105229Y0119774D01*
X0105241Y0117376D02*
X0103860Y0117376D01*
X0103860Y0114977D02*
X0105253Y0114977D01*
X0105265Y0112579D02*
X0103860Y0112579D01*
X0103860Y0110180D02*
X0105278Y0110180D01*
X0105288Y0107782D02*
X0103860Y0107782D01*
X0103860Y0105383D02*
X0105288Y0105383D01*
X0103863Y0102985D02*
X0103860Y0102985D01*
X0112193Y0093391D02*
X0128789Y0093391D01*
X0128789Y0093902D02*
X0128789Y0085947D01*
X0129154Y0085065D01*
X0129829Y0084390D01*
X0130523Y0084103D01*
X0129687Y0083267D01*
X0128789Y0081098D01*
X0128789Y0078751D01*
X0129687Y0076582D01*
X0131345Y0074924D01*
X0129687Y0073267D01*
X0128789Y0071098D01*
X0128789Y0068751D01*
X0129687Y0066582D01*
X0131345Y0064924D01*
X0129687Y0063267D01*
X0128789Y0061098D01*
X0128789Y0058751D01*
X0129687Y0056582D01*
X0131345Y0054924D01*
X0129687Y0053267D01*
X0128789Y0051098D01*
X0128789Y0048751D01*
X0129687Y0046582D01*
X0131345Y0044924D01*
X0129687Y0043267D01*
X0128789Y0041098D01*
X0128789Y0038751D01*
X0129687Y0036582D01*
X0131345Y0034924D01*
X0129687Y0033267D01*
X0128789Y0031098D01*
X0128789Y0028751D01*
X0129687Y0026582D01*
X0131345Y0024924D01*
X0129687Y0023267D01*
X0128789Y0021098D01*
X0128789Y0018751D01*
X0129687Y0016582D01*
X0131347Y0014923D01*
X0133515Y0014024D01*
X0135862Y0014024D01*
X0138031Y0014923D01*
X0139690Y0016582D01*
X0140589Y0018751D01*
X0140589Y0021098D01*
X0139690Y0023267D01*
X0138033Y0024924D01*
X0139690Y0026582D01*
X0140589Y0028751D01*
X0140589Y0031098D01*
X0139690Y0033267D01*
X0138033Y0034924D01*
X0139690Y0036582D01*
X0140589Y0038751D01*
X0140589Y0041098D01*
X0139690Y0043267D01*
X0138033Y0044924D01*
X0139690Y0046582D01*
X0140589Y0048751D01*
X0140589Y0051098D01*
X0139690Y0053267D01*
X0138033Y0054924D01*
X0139433Y0056324D01*
X0147593Y0056324D01*
X0148916Y0056873D01*
X0158921Y0066878D01*
X0161144Y0066878D01*
X0163386Y0067807D01*
X0164930Y0069351D01*
X0166475Y0067807D01*
X0168717Y0066878D01*
X0171144Y0066878D01*
X0173386Y0067807D01*
X0175102Y0069523D01*
X0176030Y0071765D01*
X0176030Y0074191D01*
X0175102Y0076433D01*
X0173557Y0077978D01*
X0175102Y0079523D01*
X0176030Y0081765D01*
X0176030Y0084191D01*
X0175102Y0086433D01*
X0173557Y0087978D01*
X0175102Y0089523D01*
X0176030Y0091765D01*
X0176030Y0094191D01*
X0175102Y0096433D01*
X0173386Y0098149D01*
X0171144Y0099078D01*
X0168717Y0099078D01*
X0166475Y0098149D01*
X0164930Y0096605D01*
X0163386Y0098149D01*
X0161144Y0099078D01*
X0158717Y0099078D01*
X0156475Y0098149D01*
X0154903Y0096578D01*
X0152452Y0096578D01*
X0151129Y0096030D01*
X0150116Y0095017D01*
X0140265Y0085166D01*
X0140589Y0085947D01*
X0140589Y0093902D01*
X0140223Y0094784D01*
X0139548Y0095459D01*
X0138666Y0095824D01*
X0130711Y0095824D01*
X0129829Y0095459D01*
X0129154Y0094784D01*
X0128789Y0093902D01*
X0130626Y0095789D02*
X0114592Y0095789D01*
X0116990Y0098188D02*
X0156568Y0098188D01*
X0159930Y0092978D02*
X0153168Y0092978D01*
X0140423Y0080233D01*
X0134997Y0080233D01*
X0134689Y0079924D01*
X0130217Y0083797D02*
X0102599Y0083797D01*
X0104997Y0086195D02*
X0128789Y0086195D01*
X0128789Y0088594D02*
X0107396Y0088594D01*
X0109795Y0090992D02*
X0128789Y0090992D01*
X0128913Y0081398D02*
X0100200Y0081398D01*
X0097802Y0079000D02*
X0128789Y0079000D01*
X0129679Y0076601D02*
X0095403Y0076601D01*
X0092511Y0074203D02*
X0130623Y0074203D01*
X0129081Y0071804D02*
X0090296Y0071804D01*
X0090589Y0069406D02*
X0128789Y0069406D01*
X0129511Y0067007D02*
X0089866Y0067007D01*
X0088348Y0064609D02*
X0131029Y0064609D01*
X0129249Y0062210D02*
X0090128Y0062210D01*
X0090589Y0059812D02*
X0128789Y0059812D01*
X0129343Y0057413D02*
X0090035Y0057413D01*
X0088123Y0055015D02*
X0131255Y0055015D01*
X0129417Y0052616D02*
X0089960Y0052616D01*
X0090589Y0050218D02*
X0128789Y0050218D01*
X0129175Y0047819D02*
X0090203Y0047819D01*
X0088529Y0045421D02*
X0130849Y0045421D01*
X0129586Y0043022D02*
X0089792Y0043022D01*
X0090589Y0040624D02*
X0128789Y0040624D01*
X0129006Y0038225D02*
X0090371Y0038225D01*
X0088935Y0035827D02*
X0130443Y0035827D01*
X0129848Y0033428D02*
X0089529Y0033428D01*
X0090589Y0031030D02*
X0128789Y0031030D01*
X0128838Y0028631D02*
X0090539Y0028631D01*
X0089341Y0026232D02*
X0130037Y0026232D01*
X0130254Y0023834D02*
X0088840Y0023834D01*
X0090191Y0021435D02*
X0128928Y0021435D01*
X0128789Y0019037D02*
X0090319Y0019037D01*
X0090389Y0019476D02*
X0090389Y0019924D01*
X0084689Y0019924D01*
X0084689Y0019925D01*
X0084689Y0019924D01*
X0084689Y0014224D01*
X0085137Y0014224D01*
X0086023Y0014365D01*
X0086877Y0014642D01*
X0087676Y0015049D01*
X0088402Y0015577D01*
X0089036Y0016211D01*
X0089564Y0016937D01*
X0089971Y0017736D01*
X0090248Y0018590D01*
X0090389Y0019476D01*
X0089347Y0016638D02*
X0129664Y0016638D01*
X0132995Y0014240D02*
X0085235Y0014240D01*
X0084689Y0014240D02*
X0084689Y0014240D01*
X0084689Y0014224D02*
X0084689Y0019924D01*
X0084689Y0019924D01*
X0078989Y0019924D01*
X0078989Y0019476D01*
X0079129Y0018590D01*
X0079406Y0017736D01*
X0079814Y0016937D01*
X0080341Y0016211D01*
X0080975Y0015577D01*
X0081701Y0015049D01*
X0082501Y0014642D01*
X0083354Y0014365D01*
X0084240Y0014224D01*
X0084689Y0014224D01*
X0084142Y0014240D02*
X0049811Y0014240D01*
X0050416Y0013948D02*
X0047992Y0015116D01*
X0045888Y0016794D01*
X0044211Y0018897D01*
X0043043Y0021322D01*
X0042444Y0023945D01*
X0042369Y0025291D01*
X0042369Y0239700D01*
X0186709Y0239700D01*
X0186587Y0240155D02*
X0187371Y0237230D01*
X0188884Y0234608D01*
X0191025Y0232467D01*
X0193648Y0230953D01*
X0196572Y0230169D01*
X0199600Y0230169D01*
X0202525Y0230953D01*
X0205147Y0232467D01*
X0207288Y0234608D01*
X0208134Y0236074D01*
X0208134Y0142458D01*
X0203030Y0142458D01*
X0202148Y0142093D01*
X0201473Y0141418D01*
X0201107Y0140536D01*
X0201107Y0135219D01*
X0201307Y0134736D01*
X0201307Y0132877D01*
X0201307Y0131018D01*
X0201107Y0130536D01*
X0201107Y0125219D01*
X0201473Y0124337D01*
X0202148Y0123661D01*
X0203030Y0123296D01*
X0208134Y0123296D01*
X0208134Y0028917D01*
X0207288Y0030383D01*
X0205147Y0032524D01*
X0202525Y0034038D01*
X0199600Y0034821D01*
X0196572Y0034821D01*
X0193648Y0034038D01*
X0191025Y0032524D01*
X0188884Y0030383D01*
X0187371Y0027761D01*
X0186587Y0024836D01*
X0186587Y0021808D01*
X0187371Y0018884D01*
X0188884Y0016261D01*
X0191025Y0014120D01*
X0192491Y0013274D01*
X0054385Y0013274D01*
X0053040Y0013350D01*
X0050416Y0013948D01*
X0046083Y0016638D02*
X0080030Y0016638D01*
X0079058Y0019037D02*
X0044143Y0019037D01*
X0045035Y0021435D02*
X0043017Y0021435D01*
X0042470Y0023834D02*
X0045035Y0023834D01*
X0045035Y0026232D02*
X0042369Y0026232D01*
X0042369Y0028631D02*
X0045035Y0028631D01*
X0045810Y0031030D02*
X0042369Y0031030D01*
X0042369Y0033428D02*
X0045416Y0033428D01*
X0045035Y0035827D02*
X0042369Y0035827D01*
X0042369Y0038225D02*
X0045636Y0038225D01*
X0047445Y0040624D02*
X0042369Y0040624D01*
X0042369Y0043022D02*
X0045584Y0043022D01*
X0045035Y0045421D02*
X0042369Y0045421D01*
X0042369Y0047819D02*
X0045468Y0047819D01*
X0047166Y0050218D02*
X0042369Y0050218D01*
X0042369Y0052616D02*
X0045752Y0052616D01*
X0045035Y0055015D02*
X0042369Y0055015D01*
X0042369Y0057413D02*
X0045300Y0057413D01*
X0046760Y0059812D02*
X0042369Y0059812D01*
X0042369Y0062210D02*
X0062899Y0062210D01*
X0065297Y0064609D02*
X0042369Y0064609D01*
X0042369Y0067007D02*
X0046215Y0067007D01*
X0044565Y0069406D02*
X0042369Y0069406D01*
X0042369Y0071804D02*
X0043968Y0071804D01*
X0044139Y0074203D02*
X0042369Y0074203D01*
X0042369Y0076601D02*
X0045185Y0076601D01*
X0042369Y0079000D02*
X0048159Y0079000D01*
X0047752Y0081398D02*
X0042369Y0081398D01*
X0042369Y0083797D02*
X0045062Y0083797D01*
X0044069Y0086195D02*
X0042369Y0086195D01*
X0042369Y0088594D02*
X0043968Y0088594D01*
X0044635Y0090992D02*
X0042369Y0090992D01*
X0042369Y0093391D02*
X0046384Y0093391D01*
X0042369Y0095789D02*
X0055982Y0095789D01*
X0042369Y0098188D02*
X0083990Y0098188D01*
X0086389Y0100586D02*
X0042369Y0100586D01*
X0042369Y0102985D02*
X0088787Y0102985D01*
X0091186Y0105383D02*
X0042369Y0105383D01*
X0042369Y0107782D02*
X0091186Y0107782D01*
X0091186Y0110180D02*
X0042369Y0110180D01*
X0042369Y0112579D02*
X0091186Y0112579D01*
X0091186Y0114977D02*
X0068591Y0114977D01*
X0069757Y0117376D02*
X0091186Y0117376D01*
X0091186Y0119774D02*
X0069814Y0119774D01*
X0068889Y0122173D02*
X0091186Y0122173D01*
X0091186Y0124571D02*
X0068185Y0124571D01*
X0058837Y0114977D02*
X0058591Y0114977D01*
X0048837Y0114977D02*
X0042369Y0114977D01*
X0042369Y0117376D02*
X0047671Y0117376D01*
X0047614Y0119774D02*
X0042369Y0119774D01*
X0042369Y0122173D02*
X0048539Y0122173D01*
X0049243Y0124571D02*
X0042369Y0124571D01*
X0042369Y0126970D02*
X0047839Y0126970D01*
X0047614Y0129368D02*
X0042369Y0129368D01*
X0042369Y0131767D02*
X0048371Y0131767D01*
X0049955Y0134166D02*
X0042369Y0134166D01*
X0042369Y0136564D02*
X0048213Y0136564D01*
X0047814Y0138727D02*
X0047814Y0139191D01*
X0047959Y0140109D01*
X0048246Y0140992D01*
X0048668Y0141819D01*
X0049214Y0142571D01*
X0049871Y0143227D01*
X0050299Y0143539D01*
X0050259Y0143556D01*
X0048543Y0145272D01*
X0047614Y0147514D01*
X0047614Y0149940D01*
X0048543Y0152182D01*
X0050087Y0153727D01*
X0048543Y0155272D01*
X0047614Y0157514D01*
X0047614Y0159940D01*
X0048543Y0162182D01*
X0050259Y0163898D01*
X0052501Y0164827D01*
X0054928Y0164827D01*
X0057170Y0163898D01*
X0058714Y0162354D01*
X0060259Y0163898D01*
X0062501Y0164827D01*
X0064928Y0164827D01*
X0067170Y0163898D01*
X0068741Y0162327D01*
X0133574Y0162327D01*
X0134898Y0161779D01*
X0135910Y0160766D01*
X0158376Y0138300D01*
X0168166Y0138300D01*
X0169105Y0139239D01*
X0173247Y0139239D01*
X0176176Y0136310D01*
X0176176Y0132168D01*
X0173247Y0129239D01*
X0169105Y0129239D01*
X0167244Y0131100D01*
X0156169Y0131100D01*
X0154846Y0131648D01*
X0131367Y0155127D01*
X0068741Y0155127D01*
X0067341Y0153727D01*
X0068741Y0152327D01*
X0130783Y0152327D01*
X0131141Y0152179D01*
X0133686Y0152179D01*
X0136615Y0149250D01*
X0136615Y0145108D01*
X0133686Y0142179D01*
X0129544Y0142179D01*
X0126615Y0145108D01*
X0126615Y0145127D01*
X0068741Y0145127D01*
X0067170Y0143556D01*
X0067129Y0143539D01*
X0067558Y0143227D01*
X0068214Y0142571D01*
X0068760Y0141819D01*
X0069182Y0140992D01*
X0069469Y0140109D01*
X0069614Y0139191D01*
X0069614Y0138727D01*
X0063714Y0138727D01*
X0063714Y0138727D01*
X0053714Y0138727D01*
X0053714Y0138727D01*
X0047814Y0138727D01*
X0047814Y0138963D02*
X0042369Y0138963D01*
X0042369Y0141361D02*
X0048435Y0141361D01*
X0050055Y0143760D02*
X0042369Y0143760D01*
X0042369Y0146158D02*
X0048176Y0146158D01*
X0047614Y0148557D02*
X0042369Y0148557D01*
X0042369Y0150955D02*
X0048034Y0150955D01*
X0049714Y0153354D02*
X0042369Y0153354D01*
X0042369Y0155752D02*
X0048344Y0155752D01*
X0047614Y0158151D02*
X0042369Y0158151D01*
X0042369Y0160549D02*
X0047866Y0160549D01*
X0049308Y0162948D02*
X0042369Y0162948D01*
X0042369Y0165346D02*
X0103942Y0165346D01*
X0104543Y0164745D02*
X0103249Y0166039D01*
X0102549Y0167730D01*
X0102549Y0169560D01*
X0103249Y0171251D01*
X0104543Y0172545D01*
X0106234Y0173245D01*
X0108064Y0173245D01*
X0109755Y0172545D01*
X0111049Y0171251D01*
X0111749Y0169560D01*
X0111749Y0167730D01*
X0111049Y0166039D01*
X0109755Y0164745D01*
X0108064Y0164045D01*
X0106234Y0164045D01*
X0104543Y0164745D01*
X0102549Y0167745D02*
X0042369Y0167745D01*
X0042369Y0170143D02*
X0102791Y0170143D01*
X0104541Y0172542D02*
X0042369Y0172542D01*
X0042369Y0174940D02*
X0094348Y0174940D01*
X0094543Y0174745D02*
X0096234Y0174045D01*
X0098064Y0174045D01*
X0099755Y0174745D01*
X0101049Y0176039D01*
X0101749Y0177730D01*
X0101749Y0179560D01*
X0101049Y0181251D01*
X0099755Y0182545D01*
X0098064Y0183245D01*
X0096234Y0183245D01*
X0094543Y0182545D01*
X0093249Y0181251D01*
X0092549Y0179560D01*
X0092549Y0177730D01*
X0093249Y0176039D01*
X0094543Y0174745D01*
X0092711Y0177339D02*
X0042369Y0177339D01*
X0042369Y0179737D02*
X0092623Y0179737D01*
X0094135Y0182136D02*
X0085225Y0182136D01*
X0086594Y0183505D02*
X0083666Y0180576D01*
X0079523Y0180576D01*
X0076594Y0183505D01*
X0076594Y0187647D01*
X0079523Y0190576D01*
X0083666Y0190576D01*
X0086594Y0187647D01*
X0086594Y0183505D01*
X0086594Y0184534D02*
X0105562Y0184534D01*
X0105460Y0184567D02*
X0106119Y0184353D01*
X0106803Y0184245D01*
X0107149Y0184245D01*
X0107149Y0188645D01*
X0107149Y0193045D01*
X0106803Y0193045D01*
X0106119Y0192937D01*
X0105460Y0192723D01*
X0104843Y0192408D01*
X0104283Y0192001D01*
X0103793Y0191511D01*
X0103386Y0190951D01*
X0103071Y0190334D01*
X0102857Y0189675D01*
X0102749Y0188991D01*
X0102749Y0188645D01*
X0107149Y0188645D01*
X0107149Y0188645D01*
X0107149Y0188645D01*
X0107149Y0193045D01*
X0107495Y0193045D01*
X0108179Y0192937D01*
X0108838Y0192723D01*
X0109455Y0192408D01*
X0110015Y0192001D01*
X0110505Y0191511D01*
X0110912Y0190951D01*
X0111227Y0190334D01*
X0111441Y0189675D01*
X0111549Y0188991D01*
X0111549Y0188645D01*
X0107149Y0188645D01*
X0102749Y0188645D01*
X0102749Y0188299D01*
X0102857Y0187615D01*
X0103071Y0186956D01*
X0103386Y0186339D01*
X0103793Y0185778D01*
X0104283Y0185289D01*
X0104843Y0184882D01*
X0105460Y0184567D01*
X0107149Y0184534D02*
X0107149Y0184534D01*
X0107149Y0184245D02*
X0107495Y0184245D01*
X0108179Y0184353D01*
X0108838Y0184567D01*
X0109455Y0184882D01*
X0110015Y0185289D01*
X0110505Y0185778D01*
X0110912Y0186339D01*
X0111227Y0186956D01*
X0111441Y0187615D01*
X0111549Y0188299D01*
X0111549Y0188645D01*
X0107149Y0188645D01*
X0107149Y0188645D01*
X0107149Y0188645D01*
X0107149Y0184245D01*
X0108737Y0184534D02*
X0208134Y0184534D01*
X0208134Y0182136D02*
X0100164Y0182136D01*
X0101676Y0179737D02*
X0208134Y0179737D01*
X0208134Y0177339D02*
X0101587Y0177339D01*
X0099950Y0174940D02*
X0208134Y0174940D01*
X0208134Y0172542D02*
X0109758Y0172542D01*
X0111507Y0170143D02*
X0208134Y0170143D01*
X0208134Y0167745D02*
X0111749Y0167745D01*
X0110356Y0165346D02*
X0208134Y0165346D01*
X0208134Y0162948D02*
X0068120Y0162948D01*
X0063714Y0158727D02*
X0132858Y0158727D01*
X0156885Y0134700D01*
X0170715Y0134700D01*
X0171176Y0134239D01*
X0176176Y0134166D02*
X0201307Y0134166D01*
X0201307Y0132877D02*
X0205688Y0132877D01*
X0201307Y0132877D01*
X0201307Y0131767D02*
X0175775Y0131767D01*
X0173377Y0129368D02*
X0201107Y0129368D01*
X0201107Y0126970D02*
X0174214Y0126970D01*
X0173622Y0127562D02*
X0169480Y0127562D01*
X0166551Y0124633D01*
X0166551Y0120491D01*
X0169480Y0117562D01*
X0173622Y0117562D01*
X0176551Y0120491D01*
X0176551Y0124633D01*
X0173622Y0127562D01*
X0176551Y0124571D02*
X0181551Y0124571D01*
X0182261Y0124865D02*
X0180019Y0123937D01*
X0178303Y0122221D01*
X0177374Y0119979D01*
X0177374Y0117552D01*
X0178303Y0115310D01*
X0180019Y0113594D01*
X0182261Y0112665D01*
X0184688Y0112665D01*
X0186930Y0113594D01*
X0188646Y0115310D01*
X0188662Y0115351D01*
X0188974Y0114922D01*
X0189631Y0114265D01*
X0190382Y0113719D01*
X0191209Y0113298D01*
X0192093Y0113011D01*
X0193010Y0112865D01*
X0193474Y0112865D01*
X0193474Y0118765D01*
X0193474Y0118765D01*
X0193474Y0112865D01*
X0193939Y0112865D01*
X0194856Y0113011D01*
X0195739Y0113298D01*
X0196567Y0113719D01*
X0197318Y0114265D01*
X0197975Y0114922D01*
X0198520Y0115673D01*
X0198942Y0116501D01*
X0199229Y0117384D01*
X0199374Y0118301D01*
X0199374Y0118765D01*
X0193474Y0118765D01*
X0193474Y0118765D01*
X0193474Y0118766D02*
X0193474Y0124665D01*
X0193010Y0124665D01*
X0192093Y0124520D01*
X0191209Y0124233D01*
X0190382Y0123812D01*
X0189631Y0123266D01*
X0188974Y0122609D01*
X0188662Y0122180D01*
X0188646Y0122221D01*
X0186930Y0123937D01*
X0184688Y0124865D01*
X0182261Y0124865D01*
X0185397Y0124571D02*
X0192417Y0124571D01*
X0193474Y0124571D02*
X0193474Y0124571D01*
X0193474Y0124665D02*
X0193939Y0124665D01*
X0194856Y0124520D01*
X0195739Y0124233D01*
X0196567Y0123812D01*
X0197318Y0123266D01*
X0197975Y0122609D01*
X0198520Y0121858D01*
X0198942Y0121030D01*
X0199229Y0120147D01*
X0199374Y0119230D01*
X0199374Y0118765D01*
X0193474Y0118765D01*
X0193474Y0118766D02*
X0193474Y0118766D01*
X0193474Y0124665D01*
X0194532Y0124571D02*
X0201375Y0124571D01*
X0198291Y0122173D02*
X0208134Y0122173D01*
X0208134Y0119774D02*
X0199288Y0119774D01*
X0199226Y0117376D02*
X0208134Y0117376D01*
X0208134Y0114977D02*
X0198015Y0114977D01*
X0193474Y0114977D02*
X0193474Y0114977D01*
X0193474Y0117376D02*
X0193474Y0117376D01*
X0193474Y0119774D02*
X0193474Y0119774D01*
X0193474Y0122173D02*
X0193474Y0122173D01*
X0188934Y0114977D02*
X0188313Y0114977D01*
X0178636Y0114977D02*
X0117927Y0114977D01*
X0117940Y0112579D02*
X0208134Y0112579D01*
X0208134Y0110180D02*
X0117952Y0110180D01*
X0117964Y0107782D02*
X0208134Y0107782D01*
X0208134Y0105383D02*
X0117962Y0105383D01*
X0117962Y0102985D02*
X0208134Y0102985D01*
X0208134Y0100586D02*
X0117962Y0100586D01*
X0117915Y0117376D02*
X0177447Y0117376D01*
X0177374Y0119774D02*
X0175834Y0119774D01*
X0176551Y0122173D02*
X0178283Y0122173D01*
X0168887Y0126970D02*
X0134214Y0126970D01*
X0133622Y0127562D02*
X0129480Y0127562D01*
X0126551Y0124633D01*
X0126551Y0120491D01*
X0129480Y0117562D01*
X0133622Y0117562D01*
X0136551Y0120491D01*
X0136551Y0124633D01*
X0133622Y0127562D01*
X0133247Y0129239D02*
X0136176Y0132168D01*
X0136176Y0136310D01*
X0133247Y0139239D01*
X0129105Y0139239D01*
X0126176Y0136310D01*
X0126176Y0132168D01*
X0129105Y0129239D01*
X0133247Y0129239D01*
X0133377Y0129368D02*
X0168976Y0129368D01*
X0166551Y0124571D02*
X0136551Y0124571D01*
X0136551Y0122173D02*
X0166551Y0122173D01*
X0167267Y0119774D02*
X0135834Y0119774D01*
X0127267Y0119774D02*
X0117903Y0119774D01*
X0117891Y0122173D02*
X0126551Y0122173D01*
X0126551Y0124571D02*
X0117878Y0124571D01*
X0117866Y0126970D02*
X0128887Y0126970D01*
X0128976Y0129368D02*
X0117854Y0129368D01*
X0116882Y0131767D02*
X0126577Y0131767D01*
X0126176Y0134166D02*
X0113585Y0134166D01*
X0126430Y0136564D02*
X0069215Y0136564D01*
X0069614Y0138963D02*
X0128828Y0138963D01*
X0127963Y0143760D02*
X0067373Y0143760D01*
X0068994Y0141361D02*
X0145133Y0141361D01*
X0142735Y0143760D02*
X0135267Y0143760D01*
X0136615Y0146158D02*
X0140336Y0146158D01*
X0137938Y0148557D02*
X0136615Y0148557D01*
X0135539Y0150955D02*
X0134909Y0150955D01*
X0133141Y0153354D02*
X0067714Y0153354D01*
X0063714Y0148727D02*
X0130066Y0148727D01*
X0131615Y0147179D01*
X0133524Y0138963D02*
X0147532Y0138963D01*
X0149930Y0136564D02*
X0135922Y0136564D01*
X0136176Y0134166D02*
X0152329Y0134166D01*
X0154727Y0131767D02*
X0135775Y0131767D01*
X0150518Y0146158D02*
X0166615Y0146158D01*
X0166615Y0145108D02*
X0169544Y0142179D01*
X0173686Y0142179D01*
X0176615Y0145108D01*
X0176615Y0149250D01*
X0173686Y0152179D01*
X0169544Y0152179D01*
X0166615Y0149250D01*
X0166615Y0145108D01*
X0167963Y0143760D02*
X0152917Y0143760D01*
X0155315Y0141361D02*
X0201449Y0141361D01*
X0201107Y0138963D02*
X0173524Y0138963D01*
X0175922Y0136564D02*
X0201107Y0136564D01*
X0205688Y0132877D02*
X0205688Y0132877D01*
X0208134Y0143760D02*
X0184759Y0143760D01*
X0184327Y0143580D02*
X0186569Y0144509D01*
X0188285Y0146225D01*
X0188302Y0146266D01*
X0188613Y0145837D01*
X0189270Y0145180D01*
X0190021Y0144634D01*
X0190849Y0144213D01*
X0191732Y0143926D01*
X0192649Y0143780D01*
X0193114Y0143780D01*
X0193578Y0143780D01*
X0194495Y0143926D01*
X0195378Y0144213D01*
X0196206Y0144634D01*
X0196957Y0145180D01*
X0197614Y0145837D01*
X0198160Y0146588D01*
X0198581Y0147416D01*
X0198868Y0148299D01*
X0199014Y0149216D01*
X0199014Y0149680D01*
X0193114Y0149680D01*
X0193114Y0143780D01*
X0193114Y0149680D01*
X0193114Y0149680D01*
X0193114Y0149681D01*
X0193114Y0149681D01*
X0193114Y0155580D01*
X0193578Y0155580D01*
X0194495Y0155435D01*
X0195378Y0155148D01*
X0196206Y0154727D01*
X0196957Y0154181D01*
X0197614Y0153524D01*
X0198160Y0152773D01*
X0198581Y0151945D01*
X0198868Y0151062D01*
X0199014Y0150145D01*
X0199014Y0149681D01*
X0193114Y0149681D01*
X0193114Y0155580D01*
X0192649Y0155580D01*
X0191732Y0155435D01*
X0190849Y0155148D01*
X0190021Y0154727D01*
X0189270Y0154181D01*
X0188613Y0153524D01*
X0188302Y0153095D01*
X0188285Y0153136D01*
X0186569Y0154852D01*
X0184327Y0155780D01*
X0181900Y0155780D01*
X0179658Y0154852D01*
X0177942Y0153136D01*
X0177014Y0150894D01*
X0177014Y0148467D01*
X0177942Y0146225D01*
X0179658Y0144509D01*
X0181900Y0143580D01*
X0184327Y0143580D01*
X0181468Y0143760D02*
X0175267Y0143760D01*
X0176615Y0146158D02*
X0178009Y0146158D01*
X0177014Y0148557D02*
X0176615Y0148557D01*
X0177039Y0150955D02*
X0174909Y0150955D01*
X0178160Y0153354D02*
X0143323Y0153354D01*
X0140924Y0155752D02*
X0181832Y0155752D01*
X0184396Y0155752D02*
X0208134Y0155752D01*
X0208134Y0153354D02*
X0197738Y0153354D01*
X0198885Y0150955D02*
X0208134Y0150955D01*
X0208134Y0148557D02*
X0198909Y0148557D01*
X0197847Y0146158D02*
X0208134Y0146158D01*
X0208134Y0158151D02*
X0138526Y0158151D01*
X0136127Y0160549D02*
X0208134Y0160549D01*
X0193114Y0153354D02*
X0193114Y0153354D01*
X0193114Y0150955D02*
X0193114Y0150955D01*
X0193114Y0148557D02*
X0193114Y0148557D01*
X0193114Y0146158D02*
X0193114Y0146158D01*
X0188380Y0146158D02*
X0188218Y0146158D01*
X0188067Y0153354D02*
X0188490Y0153354D01*
X0168320Y0150955D02*
X0145721Y0150955D01*
X0148120Y0148557D02*
X0166615Y0148557D01*
X0168828Y0138963D02*
X0157714Y0138963D01*
X0163293Y0098188D02*
X0166568Y0098188D01*
X0173293Y0098188D02*
X0208134Y0098188D01*
X0208134Y0095789D02*
X0175368Y0095789D01*
X0176030Y0093391D02*
X0208134Y0093391D01*
X0208134Y0090992D02*
X0175710Y0090992D01*
X0174173Y0088594D02*
X0208134Y0088594D01*
X0208134Y0086195D02*
X0175200Y0086195D01*
X0176030Y0083797D02*
X0208134Y0083797D01*
X0208134Y0081398D02*
X0175878Y0081398D01*
X0174579Y0079000D02*
X0208134Y0079000D01*
X0208134Y0076601D02*
X0174934Y0076601D01*
X0176025Y0074203D02*
X0208134Y0074203D01*
X0208134Y0071804D02*
X0176030Y0071804D01*
X0174985Y0069406D02*
X0208134Y0069406D01*
X0208134Y0067007D02*
X0171456Y0067007D01*
X0168405Y0067007D02*
X0161456Y0067007D01*
X0156652Y0064609D02*
X0208134Y0064609D01*
X0208134Y0062210D02*
X0154254Y0062210D01*
X0151855Y0059812D02*
X0208134Y0059812D01*
X0208134Y0057413D02*
X0149457Y0057413D01*
X0146877Y0059924D02*
X0159930Y0072978D01*
X0159930Y0082978D02*
X0154055Y0082978D01*
X0141002Y0069924D01*
X0134689Y0069924D01*
X0134689Y0059924D02*
X0146877Y0059924D01*
X0139960Y0052616D02*
X0208134Y0052616D01*
X0208134Y0050218D02*
X0140589Y0050218D01*
X0140203Y0047819D02*
X0208134Y0047819D01*
X0208134Y0045421D02*
X0138529Y0045421D01*
X0139792Y0043022D02*
X0208134Y0043022D01*
X0208134Y0040624D02*
X0140589Y0040624D01*
X0140371Y0038225D02*
X0208134Y0038225D01*
X0208134Y0035827D02*
X0138935Y0035827D01*
X0139529Y0033428D02*
X0192592Y0033428D01*
X0189531Y0031030D02*
X0140589Y0031030D01*
X0140539Y0028631D02*
X0187873Y0028631D01*
X0186961Y0026232D02*
X0139341Y0026232D01*
X0139123Y0023834D02*
X0186587Y0023834D01*
X0186687Y0021435D02*
X0140449Y0021435D01*
X0140589Y0019037D02*
X0187329Y0019037D01*
X0188667Y0016638D02*
X0139714Y0016638D01*
X0136382Y0014240D02*
X0190906Y0014240D01*
X0203580Y0033428D02*
X0208134Y0033428D01*
X0208134Y0031030D02*
X0206641Y0031030D01*
X0208134Y0055015D02*
X0138123Y0055015D01*
X0140589Y0086195D02*
X0141294Y0086195D01*
X0140589Y0088594D02*
X0143693Y0088594D01*
X0146091Y0090992D02*
X0140589Y0090992D01*
X0140589Y0093391D02*
X0148490Y0093391D01*
X0150888Y0095789D02*
X0138751Y0095789D01*
X0079848Y0033428D02*
X0073049Y0033428D01*
X0070651Y0031030D02*
X0078789Y0031030D01*
X0078838Y0028631D02*
X0068252Y0028631D01*
X0065854Y0026232D02*
X0080037Y0026232D01*
X0080537Y0023834D02*
X0063455Y0023834D01*
X0060499Y0021435D02*
X0079186Y0021435D01*
X0084689Y0019037D02*
X0084689Y0019037D01*
X0084689Y0016638D02*
X0084689Y0016638D01*
X0067696Y0067007D02*
X0066521Y0067007D01*
X0063714Y0138727D02*
X0063714Y0138727D01*
X0053714Y0138727D02*
X0053714Y0138727D01*
X0058120Y0162948D02*
X0059308Y0162948D01*
X0054598Y0181999D02*
X0050608Y0181999D01*
X0050608Y0187899D01*
X0050608Y0187899D01*
X0044708Y0187899D01*
X0044708Y0191889D01*
X0044858Y0192448D01*
X0045148Y0192950D01*
X0045558Y0193359D01*
X0046059Y0193649D01*
X0046195Y0193685D01*
X0045437Y0194444D01*
X0044508Y0196686D01*
X0044508Y0199112D01*
X0045437Y0201354D01*
X0046982Y0202899D01*
X0045437Y0204444D01*
X0044508Y0206686D01*
X0044508Y0209112D01*
X0045437Y0211354D01*
X0047153Y0213070D01*
X0049395Y0213999D01*
X0051822Y0213999D01*
X0054064Y0213070D01*
X0055780Y0211354D01*
X0056708Y0209112D01*
X0056708Y0206686D01*
X0055780Y0204444D01*
X0054235Y0202899D01*
X0055780Y0201354D01*
X0056708Y0199112D01*
X0056708Y0196686D01*
X0055780Y0194444D01*
X0055022Y0193685D01*
X0055158Y0193649D01*
X0055659Y0193359D01*
X0056069Y0192950D01*
X0056358Y0192448D01*
X0056508Y0191889D01*
X0056508Y0187899D01*
X0050609Y0187899D01*
X0050609Y0187899D01*
X0056508Y0187899D01*
X0056508Y0183909D01*
X0056358Y0183350D01*
X0056069Y0182848D01*
X0055659Y0182438D01*
X0055158Y0182149D01*
X0054598Y0181999D01*
X0055109Y0182136D02*
X0077964Y0182136D01*
X0076594Y0184534D02*
X0056508Y0184534D01*
X0056508Y0186933D02*
X0076594Y0186933D01*
X0078278Y0189331D02*
X0056508Y0189331D01*
X0056508Y0191730D02*
X0104011Y0191730D01*
X0102803Y0189331D02*
X0084911Y0189331D01*
X0086594Y0186933D02*
X0103083Y0186933D01*
X0107149Y0186933D02*
X0107149Y0186933D01*
X0107149Y0189331D02*
X0107149Y0189331D01*
X0107149Y0191730D02*
X0107149Y0191730D01*
X0110287Y0191730D02*
X0208134Y0191730D01*
X0208134Y0194128D02*
X0055464Y0194128D01*
X0056643Y0196527D02*
X0208134Y0196527D01*
X0208134Y0198925D02*
X0056708Y0198925D01*
X0055792Y0201324D02*
X0208134Y0201324D01*
X0208134Y0203722D02*
X0055059Y0203722D01*
X0056474Y0206121D02*
X0102758Y0206121D01*
X0102722Y0206157D02*
X0104016Y0204863D01*
X0105707Y0204163D01*
X0107537Y0204163D01*
X0109227Y0204863D01*
X0110521Y0206157D01*
X0111222Y0207848D01*
X0111222Y0209678D01*
X0110521Y0211369D01*
X0109227Y0212663D01*
X0107537Y0213363D01*
X0105707Y0213363D01*
X0104016Y0212663D01*
X0102722Y0211369D01*
X0102022Y0209678D01*
X0102022Y0207848D01*
X0102722Y0206157D01*
X0102022Y0208519D02*
X0056708Y0208519D01*
X0055961Y0210918D02*
X0102535Y0210918D01*
X0105594Y0213316D02*
X0053470Y0213316D01*
X0054664Y0216828D02*
X0050674Y0216828D01*
X0050674Y0222728D01*
X0050674Y0222728D01*
X0044774Y0222728D01*
X0044774Y0226718D01*
X0044924Y0227277D01*
X0045214Y0227779D01*
X0045623Y0228188D01*
X0046125Y0228478D01*
X0046261Y0228514D01*
X0045503Y0229273D01*
X0044574Y0231515D01*
X0044574Y0233941D01*
X0045503Y0236183D01*
X0047219Y0237899D01*
X0049461Y0238828D01*
X0051888Y0238828D01*
X0054130Y0237899D01*
X0055845Y0236183D01*
X0056774Y0233941D01*
X0056774Y0231515D01*
X0055845Y0229273D01*
X0055087Y0228514D01*
X0055223Y0228478D01*
X0055725Y0228188D01*
X0056135Y0227779D01*
X0056424Y0227277D01*
X0056574Y0226718D01*
X0056574Y0222728D01*
X0050674Y0222728D01*
X0044774Y0222728D01*
X0044774Y0218738D01*
X0044924Y0218179D01*
X0045214Y0217677D01*
X0045623Y0217267D01*
X0046125Y0216978D01*
X0046685Y0216828D01*
X0050674Y0216828D01*
X0050674Y0222728D01*
X0050674Y0222728D01*
X0050674Y0222728D01*
X0056574Y0222728D01*
X0056574Y0218738D01*
X0056424Y0218179D01*
X0056135Y0217677D01*
X0055725Y0217267D01*
X0055223Y0216978D01*
X0054664Y0216828D01*
X0056387Y0218113D02*
X0092022Y0218113D01*
X0092022Y0217848D02*
X0092722Y0216157D01*
X0094016Y0214863D01*
X0095707Y0214163D01*
X0097537Y0214163D01*
X0099227Y0214863D01*
X0100521Y0216157D01*
X0101222Y0217848D01*
X0101222Y0219678D01*
X0100521Y0221369D01*
X0099227Y0222663D01*
X0097537Y0223363D01*
X0095707Y0223363D01*
X0094016Y0222663D01*
X0092722Y0221369D01*
X0092022Y0219678D01*
X0092022Y0217848D01*
X0093164Y0215715D02*
X0042369Y0215715D01*
X0042369Y0218113D02*
X0044962Y0218113D01*
X0044774Y0220512D02*
X0042369Y0220512D01*
X0042369Y0222910D02*
X0044774Y0222910D01*
X0044774Y0225309D02*
X0042369Y0225309D01*
X0042369Y0227707D02*
X0045173Y0227707D01*
X0045158Y0230106D02*
X0042369Y0230106D01*
X0042369Y0232504D02*
X0044574Y0232504D01*
X0044973Y0234903D02*
X0042369Y0234903D01*
X0042369Y0237301D02*
X0046621Y0237301D01*
X0042369Y0239700D02*
X0042444Y0241045D01*
X0043043Y0243669D01*
X0044211Y0246093D01*
X0045888Y0248197D01*
X0047992Y0249875D01*
X0050416Y0251042D01*
X0053040Y0251641D01*
X0054385Y0251717D01*
X0192491Y0251717D01*
X0191025Y0250870D01*
X0188884Y0248729D01*
X0187371Y0246107D01*
X0186587Y0243182D01*
X0186587Y0240155D01*
X0186587Y0242099D02*
X0042685Y0242099D01*
X0043442Y0244497D02*
X0186939Y0244497D01*
X0187826Y0246896D02*
X0044850Y0246896D01*
X0047264Y0249294D02*
X0189449Y0249294D01*
X0192450Y0251693D02*
X0053958Y0251693D01*
X0054727Y0237301D02*
X0187351Y0237301D01*
X0188714Y0234903D02*
X0056376Y0234903D01*
X0056774Y0232504D02*
X0104286Y0232504D01*
X0104315Y0232526D02*
X0103755Y0232119D01*
X0103265Y0231629D01*
X0102858Y0231069D01*
X0102544Y0230452D01*
X0102330Y0229793D01*
X0102222Y0229109D01*
X0102222Y0228763D01*
X0102222Y0228417D01*
X0102330Y0227733D01*
X0102544Y0227074D01*
X0102858Y0226457D01*
X0103265Y0225897D01*
X0103755Y0225407D01*
X0104315Y0225000D01*
X0104933Y0224685D01*
X0105591Y0224471D01*
X0106275Y0224363D01*
X0106621Y0224363D01*
X0106621Y0228763D01*
X0102222Y0228763D01*
X0106621Y0228763D01*
X0106621Y0228763D01*
X0106621Y0233163D01*
X0106275Y0233163D01*
X0105591Y0233055D01*
X0104933Y0232841D01*
X0104315Y0232526D01*
X0106621Y0232504D02*
X0106622Y0232504D01*
X0106622Y0233163D02*
X0106622Y0228763D01*
X0111022Y0228763D01*
X0111022Y0229109D01*
X0110913Y0229793D01*
X0110699Y0230452D01*
X0110385Y0231069D01*
X0109978Y0231629D01*
X0109488Y0232119D01*
X0108928Y0232526D01*
X0108311Y0232841D01*
X0107652Y0233055D01*
X0106968Y0233163D01*
X0106622Y0233163D01*
X0108958Y0232504D02*
X0190988Y0232504D01*
X0205184Y0232504D02*
X0208134Y0232504D01*
X0208134Y0230106D02*
X0110812Y0230106D01*
X0111022Y0228763D02*
X0106622Y0228763D01*
X0106622Y0228763D01*
X0106621Y0228763D01*
X0106622Y0228763D01*
X0106622Y0224363D01*
X0106968Y0224363D01*
X0107652Y0224471D01*
X0108311Y0224685D01*
X0108928Y0225000D01*
X0109488Y0225407D01*
X0109978Y0225897D01*
X0110385Y0226457D01*
X0110699Y0227074D01*
X0110913Y0227733D01*
X0111022Y0228417D01*
X0111022Y0228763D01*
X0110905Y0227707D02*
X0208134Y0227707D01*
X0208134Y0225309D02*
X0109353Y0225309D01*
X0106622Y0225309D02*
X0106621Y0225309D01*
X0106621Y0227707D02*
X0106622Y0227707D01*
X0106621Y0230106D02*
X0106622Y0230106D01*
X0103890Y0225309D02*
X0086594Y0225309D01*
X0086594Y0223505D02*
X0086594Y0227647D01*
X0083666Y0230576D01*
X0079523Y0230576D01*
X0076594Y0227647D01*
X0076594Y0223505D01*
X0079523Y0220576D01*
X0083666Y0220576D01*
X0086594Y0223505D01*
X0086000Y0222910D02*
X0094614Y0222910D01*
X0092367Y0220512D02*
X0056574Y0220512D01*
X0056574Y0222910D02*
X0077189Y0222910D01*
X0076594Y0225309D02*
X0056574Y0225309D01*
X0056176Y0227707D02*
X0076655Y0227707D01*
X0079053Y0230106D02*
X0056191Y0230106D01*
X0050674Y0220512D02*
X0050674Y0220512D01*
X0050674Y0218113D02*
X0050674Y0218113D01*
X0047747Y0213316D02*
X0042369Y0213316D01*
X0042369Y0210918D02*
X0045256Y0210918D01*
X0044508Y0208519D02*
X0042369Y0208519D01*
X0042369Y0206121D02*
X0044742Y0206121D01*
X0046158Y0203722D02*
X0042369Y0203722D01*
X0042369Y0201324D02*
X0045424Y0201324D01*
X0044508Y0198925D02*
X0042369Y0198925D01*
X0042369Y0196527D02*
X0044574Y0196527D01*
X0045752Y0194128D02*
X0042369Y0194128D01*
X0042369Y0191730D02*
X0044708Y0191730D01*
X0044708Y0189331D02*
X0042369Y0189331D01*
X0042369Y0186933D02*
X0044708Y0186933D01*
X0044708Y0187899D02*
X0044708Y0183909D01*
X0044858Y0183350D01*
X0045148Y0182848D01*
X0045558Y0182438D01*
X0046059Y0182149D01*
X0046619Y0181999D01*
X0050608Y0181999D01*
X0050608Y0187899D01*
X0044708Y0187899D01*
X0044708Y0184534D02*
X0042369Y0184534D01*
X0042369Y0182136D02*
X0046108Y0182136D01*
X0050608Y0182136D02*
X0050608Y0182136D01*
X0050608Y0184534D02*
X0050608Y0184534D01*
X0050608Y0186933D02*
X0050608Y0186933D01*
X0050608Y0187899D02*
X0050608Y0187899D01*
X0086534Y0227707D02*
X0102338Y0227707D01*
X0102431Y0230106D02*
X0084136Y0230106D01*
X0098629Y0222910D02*
X0208134Y0222910D01*
X0208134Y0220512D02*
X0100876Y0220512D01*
X0101222Y0218113D02*
X0208134Y0218113D01*
X0208134Y0215715D02*
X0100079Y0215715D01*
X0107649Y0213316D02*
X0208134Y0213316D01*
X0208134Y0210918D02*
X0110708Y0210918D01*
X0111222Y0208519D02*
X0208134Y0208519D01*
X0208134Y0206121D02*
X0110485Y0206121D01*
X0111495Y0189331D02*
X0208134Y0189331D01*
X0208134Y0186933D02*
X0111215Y0186933D01*
X0207458Y0234903D02*
X0208134Y0234903D01*
D23*
X0111523Y0128163D02*
X0111625Y0108060D01*
X0111625Y0101785D01*
X0089765Y0079924D01*
X0084689Y0079924D01*
X0075562Y0079924D01*
X0075485Y0079848D01*
X0075485Y0079751D01*
X0070283Y0074548D01*
X0058597Y0074548D01*
X0056368Y0072319D01*
X0056368Y0087910D02*
X0058383Y0089924D01*
X0084689Y0089924D01*
X0097523Y0102759D01*
X0097523Y0128163D01*
D24*
X0084689Y0069924D02*
X0076836Y0069924D01*
X0062472Y0055560D01*
X0051135Y0055560D01*
X0051135Y0045560D02*
X0060373Y0045560D01*
X0074737Y0059924D01*
X0084689Y0059924D01*
X0084689Y0049924D02*
X0084549Y0049785D01*
X0073842Y0049785D01*
X0059618Y0035560D01*
X0051135Y0035560D01*
X0051135Y0025560D02*
X0058959Y0025560D01*
X0073259Y0039860D01*
X0084625Y0039860D01*
X0084689Y0039924D01*
M02*
