G75*
%MOIN*%
%OFA0B0*%
%FSLAX25Y25*%
%IPPOS*%
%LPD*%
%AMOC8*
5,1,8,0,0,1.08239X$1,22.5*
%
%ADD10C,0.00000*%
%ADD11C,0.01000*%
%ADD12C,0.07400*%
%ADD13R,0.04362X0.04362*%
%ADD14OC8,0.05200*%
%ADD15R,0.07400X0.07400*%
%ADD16C,0.04400*%
%ADD17C,0.10000*%
%ADD18R,0.07000X0.07000*%
%ADD19C,0.07000*%
%ADD20OC8,0.06300*%
%ADD21C,0.06300*%
%ADD22C,0.02400*%
D10*
X0191787Y0023322D02*
X0191789Y0023480D01*
X0191795Y0023638D01*
X0191805Y0023796D01*
X0191819Y0023954D01*
X0191837Y0024111D01*
X0191858Y0024268D01*
X0191884Y0024424D01*
X0191914Y0024580D01*
X0191947Y0024735D01*
X0191985Y0024888D01*
X0192026Y0025041D01*
X0192071Y0025193D01*
X0192120Y0025344D01*
X0192173Y0025493D01*
X0192229Y0025641D01*
X0192289Y0025787D01*
X0192353Y0025932D01*
X0192421Y0026075D01*
X0192492Y0026217D01*
X0192566Y0026357D01*
X0192644Y0026494D01*
X0192726Y0026630D01*
X0192810Y0026764D01*
X0192899Y0026895D01*
X0192990Y0027024D01*
X0193085Y0027151D01*
X0193182Y0027276D01*
X0193283Y0027398D01*
X0193387Y0027517D01*
X0193494Y0027634D01*
X0193604Y0027748D01*
X0193717Y0027859D01*
X0193832Y0027968D01*
X0193950Y0028073D01*
X0194071Y0028175D01*
X0194194Y0028275D01*
X0194320Y0028371D01*
X0194448Y0028464D01*
X0194578Y0028554D01*
X0194711Y0028640D01*
X0194846Y0028724D01*
X0194982Y0028803D01*
X0195121Y0028880D01*
X0195262Y0028952D01*
X0195404Y0029022D01*
X0195548Y0029087D01*
X0195694Y0029149D01*
X0195841Y0029207D01*
X0195990Y0029262D01*
X0196140Y0029313D01*
X0196291Y0029360D01*
X0196443Y0029403D01*
X0196596Y0029442D01*
X0196751Y0029478D01*
X0196906Y0029509D01*
X0197062Y0029537D01*
X0197218Y0029561D01*
X0197375Y0029581D01*
X0197533Y0029597D01*
X0197690Y0029609D01*
X0197849Y0029617D01*
X0198007Y0029621D01*
X0198165Y0029621D01*
X0198323Y0029617D01*
X0198482Y0029609D01*
X0198639Y0029597D01*
X0198797Y0029581D01*
X0198954Y0029561D01*
X0199110Y0029537D01*
X0199266Y0029509D01*
X0199421Y0029478D01*
X0199576Y0029442D01*
X0199729Y0029403D01*
X0199881Y0029360D01*
X0200032Y0029313D01*
X0200182Y0029262D01*
X0200331Y0029207D01*
X0200478Y0029149D01*
X0200624Y0029087D01*
X0200768Y0029022D01*
X0200910Y0028952D01*
X0201051Y0028880D01*
X0201190Y0028803D01*
X0201326Y0028724D01*
X0201461Y0028640D01*
X0201594Y0028554D01*
X0201724Y0028464D01*
X0201852Y0028371D01*
X0201978Y0028275D01*
X0202101Y0028175D01*
X0202222Y0028073D01*
X0202340Y0027968D01*
X0202455Y0027859D01*
X0202568Y0027748D01*
X0202678Y0027634D01*
X0202785Y0027517D01*
X0202889Y0027398D01*
X0202990Y0027276D01*
X0203087Y0027151D01*
X0203182Y0027024D01*
X0203273Y0026895D01*
X0203362Y0026764D01*
X0203446Y0026630D01*
X0203528Y0026494D01*
X0203606Y0026357D01*
X0203680Y0026217D01*
X0203751Y0026075D01*
X0203819Y0025932D01*
X0203883Y0025787D01*
X0203943Y0025641D01*
X0203999Y0025493D01*
X0204052Y0025344D01*
X0204101Y0025193D01*
X0204146Y0025041D01*
X0204187Y0024888D01*
X0204225Y0024735D01*
X0204258Y0024580D01*
X0204288Y0024424D01*
X0204314Y0024268D01*
X0204335Y0024111D01*
X0204353Y0023954D01*
X0204367Y0023796D01*
X0204377Y0023638D01*
X0204383Y0023480D01*
X0204385Y0023322D01*
X0204383Y0023164D01*
X0204377Y0023006D01*
X0204367Y0022848D01*
X0204353Y0022690D01*
X0204335Y0022533D01*
X0204314Y0022376D01*
X0204288Y0022220D01*
X0204258Y0022064D01*
X0204225Y0021909D01*
X0204187Y0021756D01*
X0204146Y0021603D01*
X0204101Y0021451D01*
X0204052Y0021300D01*
X0203999Y0021151D01*
X0203943Y0021003D01*
X0203883Y0020857D01*
X0203819Y0020712D01*
X0203751Y0020569D01*
X0203680Y0020427D01*
X0203606Y0020287D01*
X0203528Y0020150D01*
X0203446Y0020014D01*
X0203362Y0019880D01*
X0203273Y0019749D01*
X0203182Y0019620D01*
X0203087Y0019493D01*
X0202990Y0019368D01*
X0202889Y0019246D01*
X0202785Y0019127D01*
X0202678Y0019010D01*
X0202568Y0018896D01*
X0202455Y0018785D01*
X0202340Y0018676D01*
X0202222Y0018571D01*
X0202101Y0018469D01*
X0201978Y0018369D01*
X0201852Y0018273D01*
X0201724Y0018180D01*
X0201594Y0018090D01*
X0201461Y0018004D01*
X0201326Y0017920D01*
X0201190Y0017841D01*
X0201051Y0017764D01*
X0200910Y0017692D01*
X0200768Y0017622D01*
X0200624Y0017557D01*
X0200478Y0017495D01*
X0200331Y0017437D01*
X0200182Y0017382D01*
X0200032Y0017331D01*
X0199881Y0017284D01*
X0199729Y0017241D01*
X0199576Y0017202D01*
X0199421Y0017166D01*
X0199266Y0017135D01*
X0199110Y0017107D01*
X0198954Y0017083D01*
X0198797Y0017063D01*
X0198639Y0017047D01*
X0198482Y0017035D01*
X0198323Y0017027D01*
X0198165Y0017023D01*
X0198007Y0017023D01*
X0197849Y0017027D01*
X0197690Y0017035D01*
X0197533Y0017047D01*
X0197375Y0017063D01*
X0197218Y0017083D01*
X0197062Y0017107D01*
X0196906Y0017135D01*
X0196751Y0017166D01*
X0196596Y0017202D01*
X0196443Y0017241D01*
X0196291Y0017284D01*
X0196140Y0017331D01*
X0195990Y0017382D01*
X0195841Y0017437D01*
X0195694Y0017495D01*
X0195548Y0017557D01*
X0195404Y0017622D01*
X0195262Y0017692D01*
X0195121Y0017764D01*
X0194982Y0017841D01*
X0194846Y0017920D01*
X0194711Y0018004D01*
X0194578Y0018090D01*
X0194448Y0018180D01*
X0194320Y0018273D01*
X0194194Y0018369D01*
X0194071Y0018469D01*
X0193950Y0018571D01*
X0193832Y0018676D01*
X0193717Y0018785D01*
X0193604Y0018896D01*
X0193494Y0019010D01*
X0193387Y0019127D01*
X0193283Y0019246D01*
X0193182Y0019368D01*
X0193085Y0019493D01*
X0192990Y0019620D01*
X0192899Y0019749D01*
X0192810Y0019880D01*
X0192726Y0020014D01*
X0192644Y0020150D01*
X0192566Y0020287D01*
X0192492Y0020427D01*
X0192421Y0020569D01*
X0192353Y0020712D01*
X0192289Y0020857D01*
X0192229Y0021003D01*
X0192173Y0021151D01*
X0192120Y0021300D01*
X0192071Y0021451D01*
X0192026Y0021603D01*
X0191985Y0021756D01*
X0191947Y0021909D01*
X0191914Y0022064D01*
X0191884Y0022220D01*
X0191858Y0022376D01*
X0191837Y0022533D01*
X0191819Y0022690D01*
X0191805Y0022848D01*
X0191795Y0023006D01*
X0191789Y0023164D01*
X0191787Y0023322D01*
X0191787Y0241669D02*
X0191789Y0241827D01*
X0191795Y0241985D01*
X0191805Y0242143D01*
X0191819Y0242301D01*
X0191837Y0242458D01*
X0191858Y0242615D01*
X0191884Y0242771D01*
X0191914Y0242927D01*
X0191947Y0243082D01*
X0191985Y0243235D01*
X0192026Y0243388D01*
X0192071Y0243540D01*
X0192120Y0243691D01*
X0192173Y0243840D01*
X0192229Y0243988D01*
X0192289Y0244134D01*
X0192353Y0244279D01*
X0192421Y0244422D01*
X0192492Y0244564D01*
X0192566Y0244704D01*
X0192644Y0244841D01*
X0192726Y0244977D01*
X0192810Y0245111D01*
X0192899Y0245242D01*
X0192990Y0245371D01*
X0193085Y0245498D01*
X0193182Y0245623D01*
X0193283Y0245745D01*
X0193387Y0245864D01*
X0193494Y0245981D01*
X0193604Y0246095D01*
X0193717Y0246206D01*
X0193832Y0246315D01*
X0193950Y0246420D01*
X0194071Y0246522D01*
X0194194Y0246622D01*
X0194320Y0246718D01*
X0194448Y0246811D01*
X0194578Y0246901D01*
X0194711Y0246987D01*
X0194846Y0247071D01*
X0194982Y0247150D01*
X0195121Y0247227D01*
X0195262Y0247299D01*
X0195404Y0247369D01*
X0195548Y0247434D01*
X0195694Y0247496D01*
X0195841Y0247554D01*
X0195990Y0247609D01*
X0196140Y0247660D01*
X0196291Y0247707D01*
X0196443Y0247750D01*
X0196596Y0247789D01*
X0196751Y0247825D01*
X0196906Y0247856D01*
X0197062Y0247884D01*
X0197218Y0247908D01*
X0197375Y0247928D01*
X0197533Y0247944D01*
X0197690Y0247956D01*
X0197849Y0247964D01*
X0198007Y0247968D01*
X0198165Y0247968D01*
X0198323Y0247964D01*
X0198482Y0247956D01*
X0198639Y0247944D01*
X0198797Y0247928D01*
X0198954Y0247908D01*
X0199110Y0247884D01*
X0199266Y0247856D01*
X0199421Y0247825D01*
X0199576Y0247789D01*
X0199729Y0247750D01*
X0199881Y0247707D01*
X0200032Y0247660D01*
X0200182Y0247609D01*
X0200331Y0247554D01*
X0200478Y0247496D01*
X0200624Y0247434D01*
X0200768Y0247369D01*
X0200910Y0247299D01*
X0201051Y0247227D01*
X0201190Y0247150D01*
X0201326Y0247071D01*
X0201461Y0246987D01*
X0201594Y0246901D01*
X0201724Y0246811D01*
X0201852Y0246718D01*
X0201978Y0246622D01*
X0202101Y0246522D01*
X0202222Y0246420D01*
X0202340Y0246315D01*
X0202455Y0246206D01*
X0202568Y0246095D01*
X0202678Y0245981D01*
X0202785Y0245864D01*
X0202889Y0245745D01*
X0202990Y0245623D01*
X0203087Y0245498D01*
X0203182Y0245371D01*
X0203273Y0245242D01*
X0203362Y0245111D01*
X0203446Y0244977D01*
X0203528Y0244841D01*
X0203606Y0244704D01*
X0203680Y0244564D01*
X0203751Y0244422D01*
X0203819Y0244279D01*
X0203883Y0244134D01*
X0203943Y0243988D01*
X0203999Y0243840D01*
X0204052Y0243691D01*
X0204101Y0243540D01*
X0204146Y0243388D01*
X0204187Y0243235D01*
X0204225Y0243082D01*
X0204258Y0242927D01*
X0204288Y0242771D01*
X0204314Y0242615D01*
X0204335Y0242458D01*
X0204353Y0242301D01*
X0204367Y0242143D01*
X0204377Y0241985D01*
X0204383Y0241827D01*
X0204385Y0241669D01*
X0204383Y0241511D01*
X0204377Y0241353D01*
X0204367Y0241195D01*
X0204353Y0241037D01*
X0204335Y0240880D01*
X0204314Y0240723D01*
X0204288Y0240567D01*
X0204258Y0240411D01*
X0204225Y0240256D01*
X0204187Y0240103D01*
X0204146Y0239950D01*
X0204101Y0239798D01*
X0204052Y0239647D01*
X0203999Y0239498D01*
X0203943Y0239350D01*
X0203883Y0239204D01*
X0203819Y0239059D01*
X0203751Y0238916D01*
X0203680Y0238774D01*
X0203606Y0238634D01*
X0203528Y0238497D01*
X0203446Y0238361D01*
X0203362Y0238227D01*
X0203273Y0238096D01*
X0203182Y0237967D01*
X0203087Y0237840D01*
X0202990Y0237715D01*
X0202889Y0237593D01*
X0202785Y0237474D01*
X0202678Y0237357D01*
X0202568Y0237243D01*
X0202455Y0237132D01*
X0202340Y0237023D01*
X0202222Y0236918D01*
X0202101Y0236816D01*
X0201978Y0236716D01*
X0201852Y0236620D01*
X0201724Y0236527D01*
X0201594Y0236437D01*
X0201461Y0236351D01*
X0201326Y0236267D01*
X0201190Y0236188D01*
X0201051Y0236111D01*
X0200910Y0236039D01*
X0200768Y0235969D01*
X0200624Y0235904D01*
X0200478Y0235842D01*
X0200331Y0235784D01*
X0200182Y0235729D01*
X0200032Y0235678D01*
X0199881Y0235631D01*
X0199729Y0235588D01*
X0199576Y0235549D01*
X0199421Y0235513D01*
X0199266Y0235482D01*
X0199110Y0235454D01*
X0198954Y0235430D01*
X0198797Y0235410D01*
X0198639Y0235394D01*
X0198482Y0235382D01*
X0198323Y0235374D01*
X0198165Y0235370D01*
X0198007Y0235370D01*
X0197849Y0235374D01*
X0197690Y0235382D01*
X0197533Y0235394D01*
X0197375Y0235410D01*
X0197218Y0235430D01*
X0197062Y0235454D01*
X0196906Y0235482D01*
X0196751Y0235513D01*
X0196596Y0235549D01*
X0196443Y0235588D01*
X0196291Y0235631D01*
X0196140Y0235678D01*
X0195990Y0235729D01*
X0195841Y0235784D01*
X0195694Y0235842D01*
X0195548Y0235904D01*
X0195404Y0235969D01*
X0195262Y0236039D01*
X0195121Y0236111D01*
X0194982Y0236188D01*
X0194846Y0236267D01*
X0194711Y0236351D01*
X0194578Y0236437D01*
X0194448Y0236527D01*
X0194320Y0236620D01*
X0194194Y0236716D01*
X0194071Y0236816D01*
X0193950Y0236918D01*
X0193832Y0237023D01*
X0193717Y0237132D01*
X0193604Y0237243D01*
X0193494Y0237357D01*
X0193387Y0237474D01*
X0193283Y0237593D01*
X0193182Y0237715D01*
X0193085Y0237840D01*
X0192990Y0237967D01*
X0192899Y0238096D01*
X0192810Y0238227D01*
X0192726Y0238361D01*
X0192644Y0238497D01*
X0192566Y0238634D01*
X0192492Y0238774D01*
X0192421Y0238916D01*
X0192353Y0239059D01*
X0192289Y0239204D01*
X0192229Y0239350D01*
X0192173Y0239498D01*
X0192120Y0239647D01*
X0192071Y0239798D01*
X0192026Y0239950D01*
X0191985Y0240103D01*
X0191947Y0240256D01*
X0191914Y0240411D01*
X0191884Y0240567D01*
X0191858Y0240723D01*
X0191837Y0240880D01*
X0191819Y0241037D01*
X0191805Y0241195D01*
X0191795Y0241353D01*
X0191789Y0241511D01*
X0191787Y0241669D01*
D11*
X0036669Y0239700D02*
X0036669Y0025291D01*
X0036668Y0025291D02*
X0036673Y0024863D01*
X0036689Y0024435D01*
X0036715Y0024008D01*
X0036751Y0023581D01*
X0036797Y0023155D01*
X0036854Y0022731D01*
X0036921Y0022308D01*
X0036998Y0021887D01*
X0037085Y0021468D01*
X0037183Y0021051D01*
X0037290Y0020637D01*
X0037408Y0020225D01*
X0037535Y0019816D01*
X0037672Y0019411D01*
X0037819Y0019008D01*
X0037976Y0018610D01*
X0038142Y0018215D01*
X0038318Y0017825D01*
X0038503Y0017439D01*
X0038697Y0017057D01*
X0038901Y0016681D01*
X0039113Y0016309D01*
X0039335Y0015943D01*
X0039565Y0015582D01*
X0039804Y0015227D01*
X0040052Y0014877D01*
X0040307Y0014534D01*
X0040572Y0014197D01*
X0040844Y0013866D01*
X0041124Y0013542D01*
X0041411Y0013225D01*
X0041707Y0012915D01*
X0042009Y0012613D01*
X0042319Y0012317D01*
X0042636Y0012030D01*
X0042960Y0011750D01*
X0043291Y0011478D01*
X0043628Y0011213D01*
X0043971Y0010958D01*
X0044321Y0010710D01*
X0044676Y0010471D01*
X0045037Y0010241D01*
X0045403Y0010019D01*
X0045775Y0009807D01*
X0046151Y0009603D01*
X0046533Y0009409D01*
X0046919Y0009224D01*
X0047309Y0009048D01*
X0047704Y0008882D01*
X0048102Y0008725D01*
X0048505Y0008578D01*
X0048910Y0008441D01*
X0049319Y0008314D01*
X0049731Y0008196D01*
X0050145Y0008089D01*
X0050562Y0007991D01*
X0050981Y0007904D01*
X0051402Y0007827D01*
X0051825Y0007760D01*
X0052249Y0007703D01*
X0052675Y0007657D01*
X0053102Y0007621D01*
X0053529Y0007595D01*
X0053957Y0007579D01*
X0054385Y0007574D01*
X0196118Y0007574D01*
X0196546Y0007579D01*
X0196974Y0007595D01*
X0197401Y0007621D01*
X0197828Y0007657D01*
X0198254Y0007703D01*
X0198678Y0007760D01*
X0199101Y0007827D01*
X0199522Y0007904D01*
X0199941Y0007991D01*
X0200358Y0008089D01*
X0200772Y0008196D01*
X0201184Y0008314D01*
X0201593Y0008441D01*
X0201998Y0008578D01*
X0202401Y0008725D01*
X0202799Y0008882D01*
X0203194Y0009048D01*
X0203584Y0009224D01*
X0203970Y0009409D01*
X0204352Y0009603D01*
X0204728Y0009807D01*
X0205100Y0010019D01*
X0205466Y0010241D01*
X0205827Y0010471D01*
X0206182Y0010710D01*
X0206532Y0010958D01*
X0206875Y0011213D01*
X0207212Y0011478D01*
X0207543Y0011750D01*
X0207867Y0012030D01*
X0208184Y0012317D01*
X0208494Y0012613D01*
X0208796Y0012915D01*
X0209092Y0013225D01*
X0209379Y0013542D01*
X0209659Y0013866D01*
X0209931Y0014197D01*
X0210196Y0014534D01*
X0210451Y0014877D01*
X0210699Y0015227D01*
X0210938Y0015582D01*
X0211168Y0015943D01*
X0211390Y0016309D01*
X0211602Y0016681D01*
X0211806Y0017057D01*
X0212000Y0017439D01*
X0212185Y0017825D01*
X0212361Y0018215D01*
X0212527Y0018610D01*
X0212684Y0019008D01*
X0212831Y0019411D01*
X0212968Y0019816D01*
X0213095Y0020225D01*
X0213213Y0020637D01*
X0213320Y0021051D01*
X0213418Y0021468D01*
X0213505Y0021887D01*
X0213582Y0022308D01*
X0213649Y0022731D01*
X0213706Y0023155D01*
X0213752Y0023581D01*
X0213788Y0024008D01*
X0213814Y0024435D01*
X0213830Y0024863D01*
X0213835Y0025291D01*
X0213834Y0025291D02*
X0213834Y0239700D01*
X0213835Y0239700D02*
X0213830Y0240128D01*
X0213814Y0240556D01*
X0213788Y0240983D01*
X0213752Y0241410D01*
X0213706Y0241836D01*
X0213649Y0242260D01*
X0213582Y0242683D01*
X0213505Y0243104D01*
X0213418Y0243523D01*
X0213320Y0243940D01*
X0213213Y0244354D01*
X0213095Y0244766D01*
X0212968Y0245175D01*
X0212831Y0245580D01*
X0212684Y0245983D01*
X0212527Y0246381D01*
X0212361Y0246776D01*
X0212185Y0247166D01*
X0212000Y0247552D01*
X0211806Y0247934D01*
X0211602Y0248310D01*
X0211390Y0248682D01*
X0211168Y0249048D01*
X0210938Y0249409D01*
X0210699Y0249764D01*
X0210451Y0250114D01*
X0210196Y0250457D01*
X0209931Y0250794D01*
X0209659Y0251125D01*
X0209379Y0251449D01*
X0209092Y0251766D01*
X0208796Y0252076D01*
X0208494Y0252378D01*
X0208184Y0252674D01*
X0207867Y0252961D01*
X0207543Y0253241D01*
X0207212Y0253513D01*
X0206875Y0253778D01*
X0206532Y0254033D01*
X0206182Y0254281D01*
X0205827Y0254520D01*
X0205466Y0254750D01*
X0205100Y0254972D01*
X0204728Y0255184D01*
X0204352Y0255388D01*
X0203970Y0255582D01*
X0203584Y0255767D01*
X0203194Y0255943D01*
X0202799Y0256109D01*
X0202401Y0256266D01*
X0201998Y0256413D01*
X0201593Y0256550D01*
X0201184Y0256677D01*
X0200772Y0256795D01*
X0200358Y0256902D01*
X0199941Y0257000D01*
X0199522Y0257087D01*
X0199101Y0257164D01*
X0198678Y0257231D01*
X0198254Y0257288D01*
X0197828Y0257334D01*
X0197401Y0257370D01*
X0196974Y0257396D01*
X0196546Y0257412D01*
X0196118Y0257417D01*
X0054385Y0257417D01*
X0053957Y0257412D01*
X0053529Y0257396D01*
X0053102Y0257370D01*
X0052675Y0257334D01*
X0052249Y0257288D01*
X0051825Y0257231D01*
X0051402Y0257164D01*
X0050981Y0257087D01*
X0050562Y0257000D01*
X0050145Y0256902D01*
X0049731Y0256795D01*
X0049319Y0256677D01*
X0048910Y0256550D01*
X0048505Y0256413D01*
X0048102Y0256266D01*
X0047704Y0256109D01*
X0047309Y0255943D01*
X0046919Y0255767D01*
X0046533Y0255582D01*
X0046151Y0255388D01*
X0045775Y0255184D01*
X0045403Y0254972D01*
X0045037Y0254750D01*
X0044676Y0254520D01*
X0044321Y0254281D01*
X0043971Y0254033D01*
X0043628Y0253778D01*
X0043291Y0253513D01*
X0042960Y0253241D01*
X0042636Y0252961D01*
X0042319Y0252674D01*
X0042009Y0252378D01*
X0041707Y0252076D01*
X0041411Y0251766D01*
X0041124Y0251449D01*
X0040844Y0251125D01*
X0040572Y0250794D01*
X0040307Y0250457D01*
X0040052Y0250114D01*
X0039804Y0249764D01*
X0039565Y0249409D01*
X0039335Y0249048D01*
X0039113Y0248682D01*
X0038901Y0248310D01*
X0038697Y0247934D01*
X0038503Y0247552D01*
X0038318Y0247166D01*
X0038142Y0246776D01*
X0037976Y0246381D01*
X0037819Y0245983D01*
X0037672Y0245580D01*
X0037535Y0245175D01*
X0037408Y0244766D01*
X0037290Y0244354D01*
X0037183Y0243940D01*
X0037085Y0243523D01*
X0036998Y0243104D01*
X0036921Y0242683D01*
X0036854Y0242260D01*
X0036797Y0241836D01*
X0036751Y0241410D01*
X0036715Y0240983D01*
X0036689Y0240556D01*
X0036673Y0240128D01*
X0036668Y0239700D01*
D12*
X0050674Y0232728D03*
X0050608Y0207899D03*
X0050608Y0197899D03*
X0053714Y0158727D03*
X0053714Y0148727D03*
X0053714Y0138727D03*
X0053714Y0128727D03*
X0053714Y0118727D03*
X0063714Y0118727D03*
X0063714Y0128727D03*
X0063714Y0138727D03*
X0063714Y0148727D03*
X0063714Y0158727D03*
X0051135Y0055560D03*
X0051135Y0045560D03*
X0051135Y0035560D03*
X0159930Y0072978D03*
X0159930Y0082978D03*
X0159930Y0092978D03*
X0169930Y0092978D03*
X0169930Y0082978D03*
X0169930Y0072978D03*
X0183474Y0118765D03*
X0193474Y0118765D03*
X0193114Y0149680D03*
X0183114Y0149680D03*
D13*
X0205688Y0137877D03*
X0205688Y0132877D03*
X0205688Y0127877D03*
D14*
X0171551Y0122562D03*
X0171176Y0134239D03*
X0171615Y0147179D03*
X0131615Y0147179D03*
X0131176Y0134239D03*
X0131551Y0122562D03*
X0081594Y0185576D03*
X0081594Y0225576D03*
D15*
X0050674Y0222728D03*
X0050608Y0187899D03*
X0051135Y0025560D03*
D16*
X0107149Y0168645D03*
X0097149Y0178645D03*
X0107149Y0188645D03*
X0106622Y0208763D03*
X0096622Y0218763D03*
X0106622Y0228763D03*
D17*
X0061368Y0087910D02*
X0051368Y0087910D01*
X0051368Y0072319D02*
X0061368Y0072319D01*
D18*
X0134689Y0089924D03*
D19*
X0134689Y0079924D03*
X0134689Y0069924D03*
X0134689Y0059924D03*
X0134689Y0049924D03*
X0134689Y0039924D03*
X0134689Y0029924D03*
X0134689Y0019924D03*
X0084689Y0019924D03*
X0084689Y0029924D03*
X0084689Y0039924D03*
X0084689Y0049924D03*
X0084689Y0059924D03*
X0084689Y0069924D03*
X0084689Y0079924D03*
X0084689Y0089924D03*
D20*
X0111523Y0128163D03*
D21*
X0097523Y0128163D03*
D22*
X0088859Y0115500D02*
X0081885Y0115500D01*
X0068658Y0128727D01*
X0063714Y0128727D01*
X0053714Y0128727D02*
X0045912Y0128727D01*
X0042369Y0125183D01*
X0042369Y0112200D01*
X0049869Y0104700D01*
X0084385Y0104700D01*
X0094385Y0094700D01*
X0094385Y0049700D01*
X0124161Y0019924D01*
X0134689Y0019924D01*
X0134689Y0029924D02*
X0119252Y0029924D01*
X0097985Y0051191D01*
X0097985Y0096191D01*
X0085877Y0108300D01*
X0059385Y0108300D01*
X0053714Y0113971D01*
X0053714Y0118727D01*
X0063714Y0118727D02*
X0063714Y0115371D01*
X0067185Y0111900D01*
X0087368Y0111900D01*
X0101585Y0097682D01*
X0101585Y0052682D01*
X0114343Y0039924D01*
X0134689Y0039924D01*
X0134689Y0049924D02*
X0109434Y0049924D01*
X0105185Y0054174D01*
X0105185Y0099174D01*
X0088859Y0115500D01*
X0114484Y0141361D02*
X0201449Y0141361D01*
X0201473Y0141418D02*
X0201425Y0141303D01*
X0200523Y0140929D01*
X0197433Y0137839D01*
X0174647Y0137839D01*
X0173247Y0139239D01*
X0169105Y0139239D01*
X0166176Y0136310D01*
X0166176Y0132168D01*
X0169105Y0129239D01*
X0173247Y0129239D01*
X0174647Y0130639D01*
X0199641Y0130639D01*
X0200964Y0131187D01*
X0201107Y0131331D01*
X0201107Y0130219D01*
X0201307Y0129736D01*
X0201307Y0127877D01*
X0201307Y0125406D01*
X0201457Y0124847D01*
X0201747Y0124345D01*
X0202157Y0123936D01*
X0202658Y0123646D01*
X0203218Y0123496D01*
X0205688Y0123496D01*
X0205688Y0127877D01*
X0201307Y0127877D01*
X0205688Y0127877D01*
X0205688Y0127877D01*
X0205689Y0127877D01*
X0205689Y0123496D01*
X0208134Y0123496D01*
X0208134Y0062200D01*
X0140132Y0062200D01*
X0139690Y0063267D01*
X0138033Y0064924D01*
X0139690Y0066582D01*
X0140589Y0068751D01*
X0140589Y0071098D01*
X0139690Y0073267D01*
X0138033Y0074924D01*
X0139690Y0076582D01*
X0140589Y0078751D01*
X0140589Y0081098D01*
X0139690Y0083267D01*
X0138854Y0084103D01*
X0139548Y0084390D01*
X0140223Y0085065D01*
X0140589Y0085947D01*
X0140589Y0093902D01*
X0140223Y0094784D01*
X0139548Y0095459D01*
X0138666Y0095824D01*
X0130711Y0095824D01*
X0129829Y0095459D01*
X0129154Y0094784D01*
X0128789Y0093902D01*
X0128789Y0085947D01*
X0129154Y0085065D01*
X0129829Y0084390D01*
X0130523Y0084103D01*
X0129687Y0083267D01*
X0128789Y0081098D01*
X0128789Y0078751D01*
X0129687Y0076582D01*
X0131345Y0074924D01*
X0129687Y0073267D01*
X0128789Y0071098D01*
X0128789Y0068751D01*
X0129687Y0066582D01*
X0131345Y0064924D01*
X0129687Y0063267D01*
X0129245Y0062200D01*
X0121885Y0062200D01*
X0121885Y0134700D01*
X0086996Y0166100D01*
X0088920Y0166100D01*
X0090243Y0166648D01*
X0091256Y0167661D01*
X0097640Y0174045D01*
X0098064Y0174045D01*
X0099755Y0174745D01*
X0101049Y0176039D01*
X0101749Y0177730D01*
X0101749Y0179560D01*
X0101049Y0181251D01*
X0099755Y0182545D01*
X0098064Y0183245D01*
X0096234Y0183245D01*
X0094543Y0182545D01*
X0093249Y0181251D01*
X0092549Y0179560D01*
X0092549Y0179136D01*
X0086713Y0173300D01*
X0078996Y0173300D01*
X0071885Y0179700D01*
X0062650Y0179700D01*
X0097113Y0214163D01*
X0097537Y0214163D01*
X0099227Y0214863D01*
X0100521Y0216157D01*
X0101222Y0217848D01*
X0101222Y0219678D01*
X0100521Y0221369D01*
X0099227Y0222663D01*
X0097537Y0223363D01*
X0095707Y0223363D01*
X0094016Y0222663D01*
X0092722Y0221369D01*
X0092022Y0219678D01*
X0092022Y0219254D01*
X0056708Y0183941D01*
X0056708Y0192076D01*
X0056343Y0192958D01*
X0055668Y0193634D01*
X0054974Y0193921D01*
X0055109Y0194055D01*
X0055655Y0194807D01*
X0056076Y0195634D01*
X0056363Y0196517D01*
X0056508Y0197435D01*
X0056508Y0197899D01*
X0056508Y0198363D01*
X0056363Y0199280D01*
X0056076Y0200164D01*
X0055655Y0200991D01*
X0055109Y0201743D01*
X0054452Y0202399D01*
X0054023Y0202711D01*
X0054064Y0202728D01*
X0055635Y0204299D01*
X0075800Y0204299D01*
X0077123Y0204847D01*
X0083925Y0211648D01*
X0084937Y0212661D01*
X0085485Y0213984D01*
X0085485Y0215416D01*
X0085194Y0216118D01*
X0085194Y0222105D01*
X0086594Y0223505D01*
X0086594Y0227647D01*
X0083666Y0230576D01*
X0079523Y0230576D01*
X0076594Y0227647D01*
X0076594Y0223505D01*
X0077994Y0222105D01*
X0077994Y0215900D01*
X0073593Y0211499D01*
X0055635Y0211499D01*
X0054064Y0213070D01*
X0051822Y0213999D01*
X0049395Y0213999D01*
X0047153Y0213070D01*
X0045437Y0211354D01*
X0044508Y0209112D01*
X0044508Y0206686D01*
X0045437Y0204444D01*
X0047153Y0202728D01*
X0047194Y0202711D01*
X0046765Y0202399D01*
X0046108Y0201743D01*
X0045562Y0200991D01*
X0045141Y0200164D01*
X0044854Y0199280D01*
X0044708Y0198363D01*
X0044708Y0197899D01*
X0050608Y0197899D01*
X0050608Y0197899D01*
X0044708Y0197899D01*
X0044708Y0197435D01*
X0044854Y0196517D01*
X0045141Y0195634D01*
X0045562Y0194807D01*
X0046108Y0194055D01*
X0046243Y0193921D01*
X0045549Y0193634D01*
X0044874Y0192958D01*
X0044508Y0192076D01*
X0044508Y0183722D01*
X0044874Y0182839D01*
X0045549Y0182164D01*
X0046431Y0181799D01*
X0054566Y0181799D01*
X0052467Y0179700D01*
X0042369Y0179700D01*
X0042369Y0239700D01*
X0186709Y0239700D01*
X0186587Y0240155D02*
X0187371Y0237230D01*
X0188884Y0234608D01*
X0191025Y0232467D01*
X0193648Y0230953D01*
X0196572Y0230169D01*
X0199600Y0230169D01*
X0202525Y0230953D01*
X0205147Y0232467D01*
X0207288Y0234608D01*
X0208134Y0236074D01*
X0208134Y0142458D01*
X0203030Y0142458D01*
X0202148Y0142093D01*
X0201473Y0141418D01*
X0202562Y0137877D02*
X0198925Y0134239D01*
X0171176Y0134239D01*
X0166176Y0134166D02*
X0135976Y0134166D01*
X0135976Y0134239D02*
X0131176Y0134239D01*
X0126376Y0134239D01*
X0126376Y0132251D01*
X0129188Y0129439D01*
X0131176Y0129439D01*
X0131176Y0134239D01*
X0131176Y0134239D01*
X0131176Y0134239D01*
X0126376Y0134239D01*
X0126376Y0136227D01*
X0129188Y0139039D01*
X0131176Y0139039D01*
X0131176Y0134239D01*
X0131176Y0129439D01*
X0133164Y0129439D01*
X0135976Y0132251D01*
X0135976Y0134239D01*
X0135976Y0136227D01*
X0133164Y0139039D01*
X0131176Y0139039D01*
X0131176Y0134239D01*
X0131176Y0134239D01*
X0131176Y0134239D01*
X0135976Y0134239D01*
X0135640Y0136564D02*
X0166430Y0136564D01*
X0168828Y0138963D02*
X0133241Y0138963D01*
X0131176Y0138963D02*
X0131176Y0138963D01*
X0129111Y0138963D02*
X0117149Y0138963D01*
X0119814Y0136564D02*
X0126713Y0136564D01*
X0126376Y0134166D02*
X0121885Y0134166D01*
X0121885Y0131767D02*
X0126860Y0131767D01*
X0131176Y0131767D02*
X0131176Y0131767D01*
X0131176Y0134166D02*
X0131176Y0134166D01*
X0131176Y0136564D02*
X0131176Y0136564D01*
X0129544Y0142179D02*
X0133686Y0142179D01*
X0136615Y0145108D01*
X0136615Y0149250D01*
X0133686Y0152179D01*
X0129544Y0152179D01*
X0126615Y0149250D01*
X0126615Y0145108D01*
X0129544Y0142179D01*
X0127963Y0143760D02*
X0111819Y0143760D01*
X0109154Y0146158D02*
X0126615Y0146158D01*
X0126615Y0148557D02*
X0106489Y0148557D01*
X0103824Y0150955D02*
X0128320Y0150955D01*
X0134909Y0150955D02*
X0168320Y0150955D01*
X0169544Y0152179D02*
X0166615Y0149250D01*
X0166615Y0145108D01*
X0169544Y0142179D01*
X0173686Y0142179D01*
X0176615Y0145108D01*
X0176615Y0146080D01*
X0178087Y0146080D01*
X0179658Y0144509D01*
X0181900Y0143580D01*
X0184327Y0143580D01*
X0186569Y0144509D01*
X0188114Y0146054D01*
X0189658Y0144509D01*
X0191900Y0143580D01*
X0194327Y0143580D01*
X0196569Y0144509D01*
X0198285Y0146225D01*
X0199214Y0148467D01*
X0199214Y0150894D01*
X0198285Y0153136D01*
X0196569Y0154852D01*
X0194327Y0155780D01*
X0191900Y0155780D01*
X0189658Y0154852D01*
X0188114Y0153307D01*
X0186569Y0154852D01*
X0184327Y0155780D01*
X0181900Y0155780D01*
X0179658Y0154852D01*
X0178087Y0153280D01*
X0173401Y0153280D01*
X0172077Y0152732D01*
X0171524Y0152179D01*
X0169544Y0152179D01*
X0166615Y0148557D02*
X0136615Y0148557D01*
X0136615Y0146158D02*
X0166615Y0146158D01*
X0167963Y0143760D02*
X0135267Y0143760D01*
X0135492Y0131767D02*
X0166577Y0131767D01*
X0168976Y0129368D02*
X0121885Y0129368D01*
X0121885Y0126970D02*
X0129170Y0126970D01*
X0129562Y0127362D02*
X0126751Y0124550D01*
X0126751Y0122562D01*
X0126751Y0120574D01*
X0129562Y0117762D01*
X0131551Y0117762D01*
X0133539Y0117762D01*
X0136351Y0120574D01*
X0136351Y0122562D01*
X0131551Y0122562D01*
X0131551Y0122562D01*
X0131551Y0117762D01*
X0131551Y0122562D01*
X0131551Y0122562D01*
X0136351Y0122562D01*
X0136351Y0124550D01*
X0133539Y0127362D01*
X0131551Y0127362D01*
X0131551Y0122562D01*
X0131551Y0122562D01*
X0126751Y0122562D01*
X0131551Y0122562D01*
X0131551Y0122562D01*
X0131551Y0127362D01*
X0129562Y0127362D01*
X0131551Y0126970D02*
X0131551Y0126970D01*
X0133931Y0126970D02*
X0168887Y0126970D01*
X0169480Y0127562D02*
X0166551Y0124633D01*
X0166551Y0120491D01*
X0169480Y0117562D01*
X0171459Y0117562D01*
X0173308Y0115713D01*
X0174631Y0115165D01*
X0178448Y0115165D01*
X0180019Y0113594D01*
X0182261Y0112665D01*
X0184688Y0112665D01*
X0186930Y0113594D01*
X0188474Y0115139D01*
X0190019Y0113594D01*
X0192261Y0112665D01*
X0194688Y0112665D01*
X0196930Y0113594D01*
X0198646Y0115310D01*
X0199574Y0117552D01*
X0199574Y0119979D01*
X0198646Y0122221D01*
X0196930Y0123937D01*
X0194688Y0124865D01*
X0192261Y0124865D01*
X0190019Y0123937D01*
X0188474Y0122392D01*
X0186930Y0123937D01*
X0184688Y0124865D01*
X0182261Y0124865D01*
X0180019Y0123937D01*
X0178448Y0122365D01*
X0176839Y0122365D01*
X0176551Y0122653D01*
X0176551Y0124633D01*
X0173622Y0127562D01*
X0169480Y0127562D01*
X0166551Y0124571D02*
X0136330Y0124571D01*
X0136351Y0122173D02*
X0166551Y0122173D01*
X0167267Y0119774D02*
X0135551Y0119774D01*
X0131551Y0119774D02*
X0131551Y0119774D01*
X0131551Y0122173D02*
X0131551Y0122173D01*
X0131551Y0124571D02*
X0131551Y0124571D01*
X0126772Y0124571D02*
X0121885Y0124571D01*
X0121885Y0122173D02*
X0126751Y0122173D01*
X0127550Y0119774D02*
X0121885Y0119774D01*
X0121885Y0117376D02*
X0171646Y0117376D01*
X0175347Y0118765D02*
X0171551Y0122562D01*
X0174214Y0126970D02*
X0201307Y0126970D01*
X0201307Y0129368D02*
X0173377Y0129368D01*
X0176551Y0124571D02*
X0181551Y0124571D01*
X0185397Y0124571D02*
X0191551Y0124571D01*
X0195397Y0124571D02*
X0201616Y0124571D01*
X0205688Y0124571D02*
X0205689Y0124571D01*
X0205688Y0126970D02*
X0205689Y0126970D01*
X0208134Y0122173D02*
X0198665Y0122173D01*
X0199574Y0119774D02*
X0208134Y0119774D01*
X0208134Y0117376D02*
X0199501Y0117376D01*
X0198313Y0114977D02*
X0208134Y0114977D01*
X0208134Y0112579D02*
X0121885Y0112579D01*
X0121885Y0114977D02*
X0178636Y0114977D01*
X0175347Y0118765D02*
X0183474Y0118765D01*
X0188313Y0114977D02*
X0188636Y0114977D01*
X0173774Y0097478D02*
X0173022Y0098024D01*
X0172195Y0098446D01*
X0171312Y0098733D01*
X0170395Y0098878D01*
X0169930Y0098878D01*
X0169930Y0092978D01*
X0169930Y0092978D01*
X0169930Y0092978D01*
X0169930Y0088878D01*
X0169930Y0082978D01*
X0169930Y0082978D01*
X0169930Y0082978D01*
X0169930Y0078878D01*
X0169930Y0072978D01*
X0169930Y0072978D01*
X0169930Y0072978D01*
X0169930Y0067078D01*
X0169466Y0067078D01*
X0168549Y0067223D01*
X0167665Y0067510D01*
X0166838Y0067932D01*
X0166087Y0068478D01*
X0165430Y0069134D01*
X0165118Y0069563D01*
X0165102Y0069523D01*
X0163386Y0067807D01*
X0161144Y0066878D01*
X0158717Y0066878D01*
X0156475Y0067807D01*
X0154759Y0069523D01*
X0153830Y0071765D01*
X0153830Y0074191D01*
X0154759Y0076433D01*
X0156304Y0077978D01*
X0154759Y0079523D01*
X0153830Y0081765D01*
X0153830Y0084191D01*
X0154759Y0086433D01*
X0156304Y0087978D01*
X0154759Y0089523D01*
X0153830Y0091765D01*
X0153830Y0094191D01*
X0154759Y0096433D01*
X0156475Y0098149D01*
X0158717Y0099078D01*
X0161144Y0099078D01*
X0163386Y0098149D01*
X0165102Y0096433D01*
X0165118Y0096393D01*
X0165430Y0096822D01*
X0166087Y0097478D01*
X0166838Y0098024D01*
X0167665Y0098446D01*
X0168549Y0098733D01*
X0169466Y0098878D01*
X0169930Y0098878D01*
X0169930Y0092978D01*
X0169930Y0082978D01*
X0169930Y0072978D01*
X0169930Y0067078D01*
X0170395Y0067078D01*
X0171312Y0067223D01*
X0172195Y0067510D01*
X0173022Y0067932D01*
X0173774Y0068478D01*
X0174430Y0069134D01*
X0174976Y0069886D01*
X0175398Y0070713D01*
X0175685Y0071596D01*
X0175830Y0072514D01*
X0175830Y0072978D01*
X0175830Y0073442D01*
X0175685Y0074360D01*
X0175398Y0075243D01*
X0174976Y0076070D01*
X0174430Y0076822D01*
X0173774Y0077478D01*
X0173086Y0077978D01*
X0173774Y0078478D01*
X0174430Y0079134D01*
X0174976Y0079886D01*
X0175398Y0080713D01*
X0175685Y0081596D01*
X0175830Y0082514D01*
X0175830Y0082978D01*
X0175830Y0083442D01*
X0175685Y0084360D01*
X0175398Y0085243D01*
X0174976Y0086070D01*
X0174430Y0086822D01*
X0173774Y0087478D01*
X0173086Y0087978D01*
X0173774Y0088478D01*
X0174430Y0089134D01*
X0174976Y0089886D01*
X0175398Y0090713D01*
X0175685Y0091596D01*
X0175830Y0092514D01*
X0175830Y0092978D01*
X0175830Y0093442D01*
X0175685Y0094360D01*
X0175398Y0095243D01*
X0174976Y0096070D01*
X0174430Y0096822D01*
X0173774Y0097478D01*
X0172701Y0098188D02*
X0208134Y0098188D01*
X0208134Y0100586D02*
X0121885Y0100586D01*
X0121885Y0098188D02*
X0156568Y0098188D01*
X0154492Y0095789D02*
X0138751Y0095789D01*
X0140589Y0093391D02*
X0153830Y0093391D01*
X0154150Y0090992D02*
X0140589Y0090992D01*
X0140589Y0088594D02*
X0155688Y0088594D01*
X0154660Y0086195D02*
X0140589Y0086195D01*
X0139160Y0083797D02*
X0153830Y0083797D01*
X0153982Y0081398D02*
X0140464Y0081398D01*
X0140589Y0079000D02*
X0155282Y0079000D01*
X0154927Y0076601D02*
X0139698Y0076601D01*
X0138754Y0074203D02*
X0153835Y0074203D01*
X0153830Y0071804D02*
X0140296Y0071804D01*
X0140589Y0069406D02*
X0154876Y0069406D01*
X0158405Y0067007D02*
X0139866Y0067007D01*
X0138348Y0064609D02*
X0208134Y0064609D01*
X0208134Y0067007D02*
X0161456Y0067007D01*
X0164985Y0069406D02*
X0165233Y0069406D01*
X0169930Y0069406D02*
X0169930Y0069406D01*
X0169930Y0071804D02*
X0169930Y0071804D01*
X0169930Y0072978D02*
X0169930Y0072978D01*
X0175830Y0072978D01*
X0169930Y0072978D01*
X0169930Y0074203D02*
X0169930Y0074203D01*
X0169930Y0076601D02*
X0169930Y0076601D01*
X0169930Y0079000D02*
X0169930Y0079000D01*
X0169930Y0081398D02*
X0169930Y0081398D01*
X0169930Y0082978D02*
X0169930Y0082978D01*
X0175830Y0082978D01*
X0169930Y0082978D01*
X0169930Y0083797D02*
X0169930Y0083797D01*
X0169930Y0086195D02*
X0169930Y0086195D01*
X0169930Y0088594D02*
X0169930Y0088594D01*
X0169930Y0090992D02*
X0169930Y0090992D01*
X0169930Y0092978D02*
X0169930Y0092978D01*
X0175830Y0092978D01*
X0169930Y0092978D01*
X0169930Y0093391D02*
X0169930Y0093391D01*
X0169930Y0095789D02*
X0169930Y0095789D01*
X0169930Y0098188D02*
X0169930Y0098188D01*
X0167159Y0098188D02*
X0163293Y0098188D01*
X0173890Y0088594D02*
X0208134Y0088594D01*
X0208134Y0090992D02*
X0175489Y0090992D01*
X0175830Y0093391D02*
X0208134Y0093391D01*
X0208134Y0095789D02*
X0175119Y0095789D01*
X0174885Y0086195D02*
X0208134Y0086195D01*
X0208134Y0083797D02*
X0175774Y0083797D01*
X0175621Y0081398D02*
X0208134Y0081398D01*
X0208134Y0079000D02*
X0174296Y0079000D01*
X0174591Y0076601D02*
X0208134Y0076601D01*
X0208134Y0074203D02*
X0175710Y0074203D01*
X0175718Y0071804D02*
X0208134Y0071804D01*
X0208134Y0069406D02*
X0174628Y0069406D01*
X0208134Y0062210D02*
X0140128Y0062210D01*
X0131029Y0064609D02*
X0121885Y0064609D01*
X0121885Y0067007D02*
X0129511Y0067007D01*
X0128789Y0069406D02*
X0121885Y0069406D01*
X0121885Y0071804D02*
X0129081Y0071804D01*
X0130623Y0074203D02*
X0121885Y0074203D01*
X0121885Y0076601D02*
X0129679Y0076601D01*
X0128789Y0079000D02*
X0121885Y0079000D01*
X0121885Y0081398D02*
X0128913Y0081398D01*
X0130217Y0083797D02*
X0121885Y0083797D01*
X0121885Y0086195D02*
X0128789Y0086195D01*
X0128789Y0088594D02*
X0121885Y0088594D01*
X0121885Y0090992D02*
X0128789Y0090992D01*
X0128789Y0093391D02*
X0121885Y0093391D01*
X0121885Y0095789D02*
X0130626Y0095789D01*
X0121885Y0102985D02*
X0208134Y0102985D01*
X0208134Y0105383D02*
X0121885Y0105383D01*
X0121885Y0107782D02*
X0208134Y0107782D01*
X0208134Y0110180D02*
X0121885Y0110180D01*
X0101159Y0153354D02*
X0178160Y0153354D01*
X0181832Y0155752D02*
X0098494Y0155752D01*
X0095829Y0158151D02*
X0208134Y0158151D01*
X0208134Y0160549D02*
X0093164Y0160549D01*
X0090499Y0162948D02*
X0208134Y0162948D01*
X0208134Y0165346D02*
X0110073Y0165346D01*
X0110015Y0165289D02*
X0110505Y0165778D01*
X0110912Y0166339D01*
X0111227Y0166956D01*
X0111441Y0167615D01*
X0111549Y0168299D01*
X0111549Y0168645D01*
X0111549Y0168991D01*
X0111441Y0169675D01*
X0111227Y0170334D01*
X0110912Y0170951D01*
X0110505Y0171511D01*
X0110015Y0172001D01*
X0109455Y0172408D01*
X0108838Y0172723D01*
X0108179Y0172937D01*
X0107495Y0173045D01*
X0107149Y0173045D01*
X0106803Y0173045D01*
X0106119Y0172937D01*
X0105460Y0172723D01*
X0104843Y0172408D01*
X0104283Y0172001D01*
X0103793Y0171511D01*
X0103386Y0170951D01*
X0103071Y0170334D01*
X0102857Y0169675D01*
X0102749Y0168991D01*
X0102749Y0168645D01*
X0107149Y0168645D01*
X0107149Y0173045D01*
X0107149Y0168645D01*
X0107149Y0168645D01*
X0107149Y0168645D01*
X0102749Y0168645D01*
X0102749Y0168299D01*
X0102857Y0167615D01*
X0103071Y0166956D01*
X0103386Y0166339D01*
X0103793Y0165778D01*
X0104283Y0165289D01*
X0104843Y0164882D01*
X0105460Y0164567D01*
X0106119Y0164353D01*
X0106803Y0164245D01*
X0107149Y0164245D01*
X0107149Y0168645D01*
X0111549Y0168645D01*
X0107149Y0168645D01*
X0107149Y0168645D01*
X0107149Y0168645D01*
X0107149Y0164245D01*
X0107495Y0164245D01*
X0108179Y0164353D01*
X0108838Y0164567D01*
X0109455Y0164882D01*
X0110015Y0165289D01*
X0111461Y0167745D02*
X0208134Y0167745D01*
X0208134Y0170143D02*
X0111289Y0170143D01*
X0109193Y0172542D02*
X0208134Y0172542D01*
X0208134Y0174940D02*
X0099950Y0174940D01*
X0101587Y0177339D02*
X0208134Y0177339D01*
X0208134Y0179737D02*
X0101676Y0179737D01*
X0100164Y0182136D02*
X0208134Y0182136D01*
X0208134Y0184534D02*
X0109245Y0184534D01*
X0109755Y0184745D02*
X0111049Y0186039D01*
X0111749Y0187730D01*
X0111749Y0189560D01*
X0111049Y0191251D01*
X0109755Y0192545D01*
X0108064Y0193245D01*
X0106234Y0193245D01*
X0104543Y0192545D01*
X0103249Y0191251D01*
X0102549Y0189560D01*
X0102549Y0187730D01*
X0103249Y0186039D01*
X0104543Y0184745D01*
X0106234Y0184045D01*
X0108064Y0184045D01*
X0109755Y0184745D01*
X0111419Y0186933D02*
X0208134Y0186933D01*
X0208134Y0189331D02*
X0111749Y0189331D01*
X0110570Y0191730D02*
X0208134Y0191730D01*
X0208134Y0194128D02*
X0077078Y0194128D01*
X0074679Y0191730D02*
X0103729Y0191730D01*
X0102549Y0189331D02*
X0084628Y0189331D01*
X0083583Y0190376D02*
X0086394Y0187565D01*
X0086394Y0185576D01*
X0081595Y0185576D01*
X0081595Y0185576D01*
X0081595Y0180776D01*
X0083583Y0180776D01*
X0086394Y0183588D01*
X0086394Y0185576D01*
X0081595Y0185576D01*
X0081594Y0185576D01*
X0076794Y0185576D01*
X0076794Y0183588D01*
X0079606Y0180776D01*
X0081594Y0180776D01*
X0081594Y0185576D01*
X0081594Y0185576D01*
X0076794Y0185576D01*
X0076794Y0187565D01*
X0079606Y0190376D01*
X0081594Y0190376D01*
X0081594Y0185576D01*
X0081595Y0185576D01*
X0081595Y0190376D01*
X0083583Y0190376D01*
X0081595Y0189331D02*
X0081594Y0189331D01*
X0081594Y0186933D02*
X0081595Y0186933D01*
X0081594Y0184534D02*
X0081595Y0184534D01*
X0081594Y0182136D02*
X0081595Y0182136D01*
X0084942Y0182136D02*
X0094135Y0182136D01*
X0092623Y0179737D02*
X0062687Y0179737D01*
X0065085Y0182136D02*
X0078247Y0182136D01*
X0076794Y0184534D02*
X0067484Y0184534D01*
X0069882Y0186933D02*
X0076794Y0186933D01*
X0078561Y0189331D02*
X0072281Y0189331D01*
X0066896Y0194128D02*
X0055162Y0194128D01*
X0056365Y0196527D02*
X0069294Y0196527D01*
X0071693Y0198925D02*
X0056419Y0198925D01*
X0056508Y0197899D02*
X0050609Y0197899D01*
X0050609Y0197899D01*
X0056508Y0197899D01*
X0055413Y0201324D02*
X0074091Y0201324D01*
X0076490Y0203722D02*
X0055059Y0203722D01*
X0050608Y0207899D02*
X0075084Y0207899D01*
X0081885Y0214700D01*
X0081594Y0214991D01*
X0081594Y0225576D01*
X0086000Y0222910D02*
X0094614Y0222910D01*
X0092367Y0220512D02*
X0085194Y0220512D01*
X0085194Y0218113D02*
X0090881Y0218113D01*
X0088482Y0215715D02*
X0085362Y0215715D01*
X0085209Y0213316D02*
X0086084Y0213316D01*
X0083685Y0210918D02*
X0083194Y0210918D01*
X0081287Y0208519D02*
X0080796Y0208519D01*
X0078888Y0206121D02*
X0078397Y0206121D01*
X0084274Y0201324D02*
X0208134Y0201324D01*
X0208134Y0203722D02*
X0086672Y0203722D01*
X0089071Y0206121D02*
X0103102Y0206121D01*
X0103265Y0205897D02*
X0102858Y0206457D01*
X0102544Y0207074D01*
X0102330Y0207733D01*
X0102222Y0208417D01*
X0102222Y0208763D01*
X0106621Y0208763D01*
X0106621Y0208763D01*
X0102222Y0208763D01*
X0102222Y0209109D01*
X0102330Y0209793D01*
X0102544Y0210452D01*
X0102858Y0211069D01*
X0103265Y0211629D01*
X0103755Y0212119D01*
X0104315Y0212526D01*
X0104933Y0212841D01*
X0105591Y0213055D01*
X0106275Y0213163D01*
X0106621Y0213163D01*
X0106621Y0208763D01*
X0106622Y0208763D01*
X0111022Y0208763D01*
X0111022Y0209109D01*
X0110913Y0209793D01*
X0110699Y0210452D01*
X0110385Y0211069D01*
X0109978Y0211629D01*
X0109488Y0212119D01*
X0108928Y0212526D01*
X0108311Y0212841D01*
X0107652Y0213055D01*
X0106968Y0213163D01*
X0106622Y0213163D01*
X0106622Y0208763D01*
X0106622Y0208763D01*
X0111022Y0208763D01*
X0111022Y0208417D01*
X0110913Y0207733D01*
X0110699Y0207074D01*
X0110385Y0206457D01*
X0109978Y0205897D01*
X0109488Y0205407D01*
X0108928Y0205000D01*
X0108311Y0204685D01*
X0107652Y0204471D01*
X0106968Y0204363D01*
X0106622Y0204363D01*
X0106622Y0208763D01*
X0106621Y0208763D01*
X0106621Y0204363D01*
X0106275Y0204363D01*
X0105591Y0204471D01*
X0104933Y0204685D01*
X0104315Y0205000D01*
X0103755Y0205407D01*
X0103265Y0205897D01*
X0102222Y0208519D02*
X0091469Y0208519D01*
X0093868Y0210918D02*
X0102781Y0210918D01*
X0106621Y0210918D02*
X0106622Y0210918D01*
X0106621Y0208519D02*
X0106622Y0208519D01*
X0106621Y0206121D02*
X0106622Y0206121D01*
X0110141Y0206121D02*
X0208134Y0206121D01*
X0208134Y0208519D02*
X0111022Y0208519D01*
X0110462Y0210918D02*
X0208134Y0210918D01*
X0208134Y0213316D02*
X0096266Y0213316D01*
X0100079Y0215715D02*
X0208134Y0215715D01*
X0208134Y0218113D02*
X0101222Y0218113D01*
X0100876Y0220512D02*
X0208134Y0220512D01*
X0208134Y0222910D02*
X0098629Y0222910D01*
X0102722Y0226157D02*
X0104016Y0224863D01*
X0105707Y0224163D01*
X0107537Y0224163D01*
X0109227Y0224863D01*
X0110521Y0226157D01*
X0111222Y0227848D01*
X0111222Y0229678D01*
X0110521Y0231369D01*
X0109227Y0232663D01*
X0107537Y0233363D01*
X0105707Y0233363D01*
X0104016Y0232663D01*
X0102722Y0231369D01*
X0102022Y0229678D01*
X0102022Y0227848D01*
X0102722Y0226157D01*
X0103570Y0225309D02*
X0086594Y0225309D01*
X0086534Y0227707D02*
X0102080Y0227707D01*
X0102199Y0230106D02*
X0084136Y0230106D01*
X0079053Y0230106D02*
X0055960Y0230106D01*
X0056142Y0230463D02*
X0056429Y0231346D01*
X0056574Y0232264D01*
X0056574Y0232728D01*
X0056574Y0233192D01*
X0056429Y0234109D01*
X0056142Y0234993D01*
X0055720Y0235820D01*
X0055174Y0236571D01*
X0054518Y0237228D01*
X0053766Y0237774D01*
X0052939Y0238196D01*
X0052056Y0238483D01*
X0051138Y0238628D01*
X0050674Y0238628D01*
X0050210Y0238628D01*
X0049293Y0238483D01*
X0048409Y0238196D01*
X0047582Y0237774D01*
X0046831Y0237228D01*
X0046174Y0236571D01*
X0045628Y0235820D01*
X0045206Y0234993D01*
X0044919Y0234109D01*
X0044774Y0233192D01*
X0044774Y0232728D01*
X0050674Y0232728D01*
X0050674Y0232728D01*
X0050674Y0238628D01*
X0050674Y0232728D01*
X0050674Y0232728D01*
X0044774Y0232728D01*
X0044774Y0232264D01*
X0044919Y0231346D01*
X0045206Y0230463D01*
X0045628Y0229636D01*
X0046174Y0228884D01*
X0046308Y0228750D01*
X0045615Y0228462D01*
X0044940Y0227787D01*
X0044574Y0226905D01*
X0044574Y0218550D01*
X0044940Y0217668D01*
X0045615Y0216993D01*
X0046497Y0216628D01*
X0054852Y0216628D01*
X0055734Y0216993D01*
X0056409Y0217668D01*
X0056774Y0218550D01*
X0056774Y0226905D01*
X0056409Y0227787D01*
X0055734Y0228462D01*
X0055040Y0228750D01*
X0055174Y0228884D01*
X0055720Y0229636D01*
X0056142Y0230463D01*
X0056574Y0232504D02*
X0103858Y0232504D01*
X0109385Y0232504D02*
X0190988Y0232504D01*
X0188714Y0234903D02*
X0056171Y0234903D01*
X0056574Y0232728D02*
X0050674Y0232728D01*
X0050674Y0232728D01*
X0056574Y0232728D01*
X0056442Y0227707D02*
X0076655Y0227707D01*
X0076594Y0225309D02*
X0056774Y0225309D01*
X0056774Y0222910D02*
X0077189Y0222910D01*
X0077994Y0220512D02*
X0056774Y0220512D01*
X0056593Y0218113D02*
X0077994Y0218113D01*
X0077809Y0215715D02*
X0042369Y0215715D01*
X0042369Y0218113D02*
X0044755Y0218113D01*
X0044574Y0220512D02*
X0042369Y0220512D01*
X0042369Y0222910D02*
X0044574Y0222910D01*
X0044574Y0225309D02*
X0042369Y0225309D01*
X0042369Y0227707D02*
X0044906Y0227707D01*
X0045388Y0230106D02*
X0042369Y0230106D01*
X0042369Y0232504D02*
X0044774Y0232504D01*
X0045177Y0234903D02*
X0042369Y0234903D01*
X0042369Y0237301D02*
X0046932Y0237301D01*
X0050674Y0237301D02*
X0050674Y0237301D01*
X0050674Y0234903D02*
X0050674Y0234903D01*
X0054417Y0237301D02*
X0187351Y0237301D01*
X0186587Y0240155D02*
X0186587Y0243182D01*
X0187371Y0246107D01*
X0188884Y0248729D01*
X0191025Y0250870D01*
X0192491Y0251717D01*
X0054385Y0251717D01*
X0053040Y0251641D01*
X0050416Y0251042D01*
X0047992Y0249875D01*
X0045888Y0248197D01*
X0044211Y0246093D01*
X0043043Y0243669D01*
X0042444Y0241045D01*
X0042369Y0239700D01*
X0042685Y0242099D02*
X0186587Y0242099D01*
X0186939Y0244497D02*
X0043442Y0244497D01*
X0044850Y0246896D02*
X0187826Y0246896D01*
X0189449Y0249294D02*
X0047264Y0249294D01*
X0053958Y0251693D02*
X0192450Y0251693D01*
X0207458Y0234903D02*
X0208134Y0234903D01*
X0208134Y0232504D02*
X0205184Y0232504D01*
X0208134Y0230106D02*
X0111044Y0230106D01*
X0111163Y0227707D02*
X0208134Y0227707D01*
X0208134Y0225309D02*
X0109673Y0225309D01*
X0096622Y0218763D02*
X0044385Y0166527D01*
X0044385Y0152200D01*
X0047858Y0148727D01*
X0053714Y0148727D01*
X0053714Y0158727D02*
X0053714Y0164029D01*
X0059385Y0169700D01*
X0088204Y0169700D01*
X0097149Y0178645D01*
X0096137Y0172542D02*
X0105105Y0172542D01*
X0107149Y0172542D02*
X0107149Y0172542D01*
X0107149Y0170143D02*
X0107149Y0170143D01*
X0107149Y0167745D02*
X0107149Y0167745D01*
X0107149Y0165346D02*
X0107149Y0165346D01*
X0104225Y0165346D02*
X0087834Y0165346D01*
X0091340Y0167745D02*
X0102837Y0167745D01*
X0103009Y0170143D02*
X0093739Y0170143D01*
X0088353Y0174940D02*
X0077174Y0174940D01*
X0074509Y0177339D02*
X0090752Y0177339D01*
X0086394Y0184534D02*
X0105053Y0184534D01*
X0102879Y0186933D02*
X0086394Y0186933D01*
X0079476Y0196527D02*
X0208134Y0196527D01*
X0208134Y0198925D02*
X0081875Y0198925D01*
X0075411Y0213316D02*
X0053470Y0213316D01*
X0047747Y0213316D02*
X0042369Y0213316D01*
X0042369Y0210918D02*
X0045256Y0210918D01*
X0044508Y0208519D02*
X0042369Y0208519D01*
X0042369Y0206121D02*
X0044742Y0206121D01*
X0046158Y0203722D02*
X0042369Y0203722D01*
X0042369Y0201324D02*
X0045804Y0201324D01*
X0044797Y0198925D02*
X0042369Y0198925D01*
X0042369Y0196527D02*
X0044852Y0196527D01*
X0046055Y0194128D02*
X0042369Y0194128D01*
X0042369Y0191730D02*
X0044508Y0191730D01*
X0044508Y0189331D02*
X0042369Y0189331D01*
X0042369Y0186933D02*
X0044508Y0186933D01*
X0044508Y0184534D02*
X0042369Y0184534D01*
X0042369Y0182136D02*
X0045618Y0182136D01*
X0042369Y0179737D02*
X0052505Y0179737D01*
X0056708Y0184534D02*
X0057302Y0184534D01*
X0056708Y0186933D02*
X0059700Y0186933D01*
X0062099Y0189331D02*
X0056708Y0189331D01*
X0056708Y0191730D02*
X0064497Y0191730D01*
X0171615Y0147179D02*
X0174117Y0149680D01*
X0183114Y0149680D01*
X0188067Y0153354D02*
X0188160Y0153354D01*
X0191832Y0155752D02*
X0184396Y0155752D01*
X0194396Y0155752D02*
X0208134Y0155752D01*
X0208134Y0153354D02*
X0198067Y0153354D01*
X0199188Y0150955D02*
X0208134Y0150955D01*
X0208134Y0148557D02*
X0199214Y0148557D01*
X0198218Y0146158D02*
X0208134Y0146158D01*
X0208134Y0143760D02*
X0194759Y0143760D01*
X0198557Y0138963D02*
X0173524Y0138963D01*
X0175267Y0143760D02*
X0181468Y0143760D01*
X0184759Y0143760D02*
X0191468Y0143760D01*
X0202562Y0137877D02*
X0205688Y0137877D01*
X0129249Y0062210D02*
X0121885Y0062210D01*
M02*
