G75*
%MOIN*%
%OFA0B0*%
%FSLAX25Y25*%
%IPPOS*%
%LPD*%
%AMOC8*
5,1,8,0,0,1.08239X$1,22.5*
%
%ADD10C,0.00000*%
%ADD11C,0.01000*%
D10*
X0014099Y0081103D02*
X0014101Y0081261D01*
X0014107Y0081419D01*
X0014117Y0081577D01*
X0014131Y0081735D01*
X0014149Y0081892D01*
X0014170Y0082049D01*
X0014196Y0082205D01*
X0014226Y0082361D01*
X0014259Y0082516D01*
X0014297Y0082669D01*
X0014338Y0082822D01*
X0014383Y0082974D01*
X0014432Y0083125D01*
X0014485Y0083274D01*
X0014541Y0083422D01*
X0014601Y0083568D01*
X0014665Y0083713D01*
X0014733Y0083856D01*
X0014804Y0083998D01*
X0014878Y0084138D01*
X0014956Y0084275D01*
X0015038Y0084411D01*
X0015122Y0084545D01*
X0015211Y0084676D01*
X0015302Y0084805D01*
X0015397Y0084932D01*
X0015494Y0085057D01*
X0015595Y0085179D01*
X0015699Y0085298D01*
X0015806Y0085415D01*
X0015916Y0085529D01*
X0016029Y0085640D01*
X0016144Y0085749D01*
X0016262Y0085854D01*
X0016383Y0085956D01*
X0016506Y0086056D01*
X0016632Y0086152D01*
X0016760Y0086245D01*
X0016890Y0086335D01*
X0017023Y0086421D01*
X0017158Y0086505D01*
X0017294Y0086584D01*
X0017433Y0086661D01*
X0017574Y0086733D01*
X0017716Y0086803D01*
X0017860Y0086868D01*
X0018006Y0086930D01*
X0018153Y0086988D01*
X0018302Y0087043D01*
X0018452Y0087094D01*
X0018603Y0087141D01*
X0018755Y0087184D01*
X0018908Y0087223D01*
X0019063Y0087259D01*
X0019218Y0087290D01*
X0019374Y0087318D01*
X0019530Y0087342D01*
X0019687Y0087362D01*
X0019845Y0087378D01*
X0020002Y0087390D01*
X0020161Y0087398D01*
X0020319Y0087402D01*
X0020477Y0087402D01*
X0020635Y0087398D01*
X0020794Y0087390D01*
X0020951Y0087378D01*
X0021109Y0087362D01*
X0021266Y0087342D01*
X0021422Y0087318D01*
X0021578Y0087290D01*
X0021733Y0087259D01*
X0021888Y0087223D01*
X0022041Y0087184D01*
X0022193Y0087141D01*
X0022344Y0087094D01*
X0022494Y0087043D01*
X0022643Y0086988D01*
X0022790Y0086930D01*
X0022936Y0086868D01*
X0023080Y0086803D01*
X0023222Y0086733D01*
X0023363Y0086661D01*
X0023502Y0086584D01*
X0023638Y0086505D01*
X0023773Y0086421D01*
X0023906Y0086335D01*
X0024036Y0086245D01*
X0024164Y0086152D01*
X0024290Y0086056D01*
X0024413Y0085956D01*
X0024534Y0085854D01*
X0024652Y0085749D01*
X0024767Y0085640D01*
X0024880Y0085529D01*
X0024990Y0085415D01*
X0025097Y0085298D01*
X0025201Y0085179D01*
X0025302Y0085057D01*
X0025399Y0084932D01*
X0025494Y0084805D01*
X0025585Y0084676D01*
X0025674Y0084545D01*
X0025758Y0084411D01*
X0025840Y0084275D01*
X0025918Y0084138D01*
X0025992Y0083998D01*
X0026063Y0083856D01*
X0026131Y0083713D01*
X0026195Y0083568D01*
X0026255Y0083422D01*
X0026311Y0083274D01*
X0026364Y0083125D01*
X0026413Y0082974D01*
X0026458Y0082822D01*
X0026499Y0082669D01*
X0026537Y0082516D01*
X0026570Y0082361D01*
X0026600Y0082205D01*
X0026626Y0082049D01*
X0026647Y0081892D01*
X0026665Y0081735D01*
X0026679Y0081577D01*
X0026689Y0081419D01*
X0026695Y0081261D01*
X0026697Y0081103D01*
X0026695Y0080945D01*
X0026689Y0080787D01*
X0026679Y0080629D01*
X0026665Y0080471D01*
X0026647Y0080314D01*
X0026626Y0080157D01*
X0026600Y0080001D01*
X0026570Y0079845D01*
X0026537Y0079690D01*
X0026499Y0079537D01*
X0026458Y0079384D01*
X0026413Y0079232D01*
X0026364Y0079081D01*
X0026311Y0078932D01*
X0026255Y0078784D01*
X0026195Y0078638D01*
X0026131Y0078493D01*
X0026063Y0078350D01*
X0025992Y0078208D01*
X0025918Y0078068D01*
X0025840Y0077931D01*
X0025758Y0077795D01*
X0025674Y0077661D01*
X0025585Y0077530D01*
X0025494Y0077401D01*
X0025399Y0077274D01*
X0025302Y0077149D01*
X0025201Y0077027D01*
X0025097Y0076908D01*
X0024990Y0076791D01*
X0024880Y0076677D01*
X0024767Y0076566D01*
X0024652Y0076457D01*
X0024534Y0076352D01*
X0024413Y0076250D01*
X0024290Y0076150D01*
X0024164Y0076054D01*
X0024036Y0075961D01*
X0023906Y0075871D01*
X0023773Y0075785D01*
X0023638Y0075701D01*
X0023502Y0075622D01*
X0023363Y0075545D01*
X0023222Y0075473D01*
X0023080Y0075403D01*
X0022936Y0075338D01*
X0022790Y0075276D01*
X0022643Y0075218D01*
X0022494Y0075163D01*
X0022344Y0075112D01*
X0022193Y0075065D01*
X0022041Y0075022D01*
X0021888Y0074983D01*
X0021733Y0074947D01*
X0021578Y0074916D01*
X0021422Y0074888D01*
X0021266Y0074864D01*
X0021109Y0074844D01*
X0020951Y0074828D01*
X0020794Y0074816D01*
X0020635Y0074808D01*
X0020477Y0074804D01*
X0020319Y0074804D01*
X0020161Y0074808D01*
X0020002Y0074816D01*
X0019845Y0074828D01*
X0019687Y0074844D01*
X0019530Y0074864D01*
X0019374Y0074888D01*
X0019218Y0074916D01*
X0019063Y0074947D01*
X0018908Y0074983D01*
X0018755Y0075022D01*
X0018603Y0075065D01*
X0018452Y0075112D01*
X0018302Y0075163D01*
X0018153Y0075218D01*
X0018006Y0075276D01*
X0017860Y0075338D01*
X0017716Y0075403D01*
X0017574Y0075473D01*
X0017433Y0075545D01*
X0017294Y0075622D01*
X0017158Y0075701D01*
X0017023Y0075785D01*
X0016890Y0075871D01*
X0016760Y0075961D01*
X0016632Y0076054D01*
X0016506Y0076150D01*
X0016383Y0076250D01*
X0016262Y0076352D01*
X0016144Y0076457D01*
X0016029Y0076566D01*
X0015916Y0076677D01*
X0015806Y0076791D01*
X0015699Y0076908D01*
X0015595Y0077027D01*
X0015494Y0077149D01*
X0015397Y0077274D01*
X0015302Y0077401D01*
X0015211Y0077530D01*
X0015122Y0077661D01*
X0015038Y0077795D01*
X0014956Y0077931D01*
X0014878Y0078068D01*
X0014804Y0078208D01*
X0014733Y0078350D01*
X0014665Y0078493D01*
X0014601Y0078638D01*
X0014541Y0078784D01*
X0014485Y0078932D01*
X0014432Y0079081D01*
X0014383Y0079232D01*
X0014338Y0079384D01*
X0014297Y0079537D01*
X0014259Y0079690D01*
X0014226Y0079845D01*
X0014196Y0080001D01*
X0014170Y0080157D01*
X0014149Y0080314D01*
X0014131Y0080471D01*
X0014117Y0080629D01*
X0014107Y0080787D01*
X0014101Y0080945D01*
X0014099Y0081103D01*
X0091453Y0145300D02*
X0091455Y0145397D01*
X0091461Y0145494D01*
X0091471Y0145590D01*
X0091485Y0145686D01*
X0091503Y0145782D01*
X0091524Y0145876D01*
X0091550Y0145970D01*
X0091579Y0146062D01*
X0091613Y0146153D01*
X0091649Y0146243D01*
X0091690Y0146331D01*
X0091734Y0146417D01*
X0091782Y0146502D01*
X0091833Y0146584D01*
X0091887Y0146665D01*
X0091945Y0146743D01*
X0092006Y0146818D01*
X0092069Y0146891D01*
X0092136Y0146962D01*
X0092206Y0147029D01*
X0092278Y0147094D01*
X0092353Y0147155D01*
X0092431Y0147214D01*
X0092510Y0147269D01*
X0092592Y0147321D01*
X0092676Y0147369D01*
X0092762Y0147414D01*
X0092850Y0147456D01*
X0092939Y0147494D01*
X0093030Y0147528D01*
X0093122Y0147558D01*
X0093215Y0147585D01*
X0093310Y0147607D01*
X0093405Y0147626D01*
X0093501Y0147641D01*
X0093597Y0147652D01*
X0093694Y0147659D01*
X0093791Y0147662D01*
X0093888Y0147661D01*
X0093985Y0147656D01*
X0094081Y0147647D01*
X0094177Y0147634D01*
X0094273Y0147617D01*
X0094368Y0147596D01*
X0094461Y0147572D01*
X0094554Y0147543D01*
X0094646Y0147511D01*
X0094736Y0147475D01*
X0094824Y0147436D01*
X0094911Y0147392D01*
X0094996Y0147346D01*
X0095079Y0147295D01*
X0095160Y0147242D01*
X0095238Y0147185D01*
X0095315Y0147125D01*
X0095388Y0147062D01*
X0095459Y0146996D01*
X0095527Y0146927D01*
X0095593Y0146855D01*
X0095655Y0146781D01*
X0095714Y0146704D01*
X0095770Y0146625D01*
X0095823Y0146543D01*
X0095873Y0146460D01*
X0095918Y0146374D01*
X0095961Y0146287D01*
X0096000Y0146198D01*
X0096035Y0146108D01*
X0096066Y0146016D01*
X0096093Y0145923D01*
X0096117Y0145829D01*
X0096137Y0145734D01*
X0096153Y0145638D01*
X0096165Y0145542D01*
X0096173Y0145445D01*
X0096177Y0145348D01*
X0096177Y0145252D01*
X0096173Y0145155D01*
X0096165Y0145058D01*
X0096153Y0144962D01*
X0096137Y0144866D01*
X0096117Y0144771D01*
X0096093Y0144677D01*
X0096066Y0144584D01*
X0096035Y0144492D01*
X0096000Y0144402D01*
X0095961Y0144313D01*
X0095918Y0144226D01*
X0095873Y0144140D01*
X0095823Y0144057D01*
X0095770Y0143975D01*
X0095714Y0143896D01*
X0095655Y0143819D01*
X0095593Y0143745D01*
X0095527Y0143673D01*
X0095459Y0143604D01*
X0095388Y0143538D01*
X0095315Y0143475D01*
X0095238Y0143415D01*
X0095160Y0143358D01*
X0095079Y0143305D01*
X0094996Y0143254D01*
X0094911Y0143208D01*
X0094824Y0143164D01*
X0094736Y0143125D01*
X0094646Y0143089D01*
X0094554Y0143057D01*
X0094461Y0143028D01*
X0094368Y0143004D01*
X0094273Y0142983D01*
X0094177Y0142966D01*
X0094081Y0142953D01*
X0093985Y0142944D01*
X0093888Y0142939D01*
X0093791Y0142938D01*
X0093694Y0142941D01*
X0093597Y0142948D01*
X0093501Y0142959D01*
X0093405Y0142974D01*
X0093310Y0142993D01*
X0093215Y0143015D01*
X0093122Y0143042D01*
X0093030Y0143072D01*
X0092939Y0143106D01*
X0092850Y0143144D01*
X0092762Y0143186D01*
X0092676Y0143231D01*
X0092592Y0143279D01*
X0092510Y0143331D01*
X0092431Y0143386D01*
X0092353Y0143445D01*
X0092278Y0143506D01*
X0092206Y0143571D01*
X0092136Y0143638D01*
X0092069Y0143709D01*
X0092006Y0143782D01*
X0091945Y0143857D01*
X0091887Y0143935D01*
X0091833Y0144016D01*
X0091782Y0144098D01*
X0091734Y0144183D01*
X0091690Y0144269D01*
X0091649Y0144357D01*
X0091613Y0144447D01*
X0091579Y0144538D01*
X0091550Y0144630D01*
X0091524Y0144724D01*
X0091503Y0144818D01*
X0091485Y0144914D01*
X0091471Y0145010D01*
X0091461Y0145106D01*
X0091455Y0145203D01*
X0091453Y0145300D01*
X0091453Y0155143D02*
X0091455Y0155240D01*
X0091461Y0155337D01*
X0091471Y0155433D01*
X0091485Y0155529D01*
X0091503Y0155625D01*
X0091524Y0155719D01*
X0091550Y0155813D01*
X0091579Y0155905D01*
X0091613Y0155996D01*
X0091649Y0156086D01*
X0091690Y0156174D01*
X0091734Y0156260D01*
X0091782Y0156345D01*
X0091833Y0156427D01*
X0091887Y0156508D01*
X0091945Y0156586D01*
X0092006Y0156661D01*
X0092069Y0156734D01*
X0092136Y0156805D01*
X0092206Y0156872D01*
X0092278Y0156937D01*
X0092353Y0156998D01*
X0092431Y0157057D01*
X0092510Y0157112D01*
X0092592Y0157164D01*
X0092676Y0157212D01*
X0092762Y0157257D01*
X0092850Y0157299D01*
X0092939Y0157337D01*
X0093030Y0157371D01*
X0093122Y0157401D01*
X0093215Y0157428D01*
X0093310Y0157450D01*
X0093405Y0157469D01*
X0093501Y0157484D01*
X0093597Y0157495D01*
X0093694Y0157502D01*
X0093791Y0157505D01*
X0093888Y0157504D01*
X0093985Y0157499D01*
X0094081Y0157490D01*
X0094177Y0157477D01*
X0094273Y0157460D01*
X0094368Y0157439D01*
X0094461Y0157415D01*
X0094554Y0157386D01*
X0094646Y0157354D01*
X0094736Y0157318D01*
X0094824Y0157279D01*
X0094911Y0157235D01*
X0094996Y0157189D01*
X0095079Y0157138D01*
X0095160Y0157085D01*
X0095238Y0157028D01*
X0095315Y0156968D01*
X0095388Y0156905D01*
X0095459Y0156839D01*
X0095527Y0156770D01*
X0095593Y0156698D01*
X0095655Y0156624D01*
X0095714Y0156547D01*
X0095770Y0156468D01*
X0095823Y0156386D01*
X0095873Y0156303D01*
X0095918Y0156217D01*
X0095961Y0156130D01*
X0096000Y0156041D01*
X0096035Y0155951D01*
X0096066Y0155859D01*
X0096093Y0155766D01*
X0096117Y0155672D01*
X0096137Y0155577D01*
X0096153Y0155481D01*
X0096165Y0155385D01*
X0096173Y0155288D01*
X0096177Y0155191D01*
X0096177Y0155095D01*
X0096173Y0154998D01*
X0096165Y0154901D01*
X0096153Y0154805D01*
X0096137Y0154709D01*
X0096117Y0154614D01*
X0096093Y0154520D01*
X0096066Y0154427D01*
X0096035Y0154335D01*
X0096000Y0154245D01*
X0095961Y0154156D01*
X0095918Y0154069D01*
X0095873Y0153983D01*
X0095823Y0153900D01*
X0095770Y0153818D01*
X0095714Y0153739D01*
X0095655Y0153662D01*
X0095593Y0153588D01*
X0095527Y0153516D01*
X0095459Y0153447D01*
X0095388Y0153381D01*
X0095315Y0153318D01*
X0095238Y0153258D01*
X0095160Y0153201D01*
X0095079Y0153148D01*
X0094996Y0153097D01*
X0094911Y0153051D01*
X0094824Y0153007D01*
X0094736Y0152968D01*
X0094646Y0152932D01*
X0094554Y0152900D01*
X0094461Y0152871D01*
X0094368Y0152847D01*
X0094273Y0152826D01*
X0094177Y0152809D01*
X0094081Y0152796D01*
X0093985Y0152787D01*
X0093888Y0152782D01*
X0093791Y0152781D01*
X0093694Y0152784D01*
X0093597Y0152791D01*
X0093501Y0152802D01*
X0093405Y0152817D01*
X0093310Y0152836D01*
X0093215Y0152858D01*
X0093122Y0152885D01*
X0093030Y0152915D01*
X0092939Y0152949D01*
X0092850Y0152987D01*
X0092762Y0153029D01*
X0092676Y0153074D01*
X0092592Y0153122D01*
X0092510Y0153174D01*
X0092431Y0153229D01*
X0092353Y0153288D01*
X0092278Y0153349D01*
X0092206Y0153414D01*
X0092136Y0153481D01*
X0092069Y0153552D01*
X0092006Y0153625D01*
X0091945Y0153700D01*
X0091887Y0153778D01*
X0091833Y0153859D01*
X0091782Y0153941D01*
X0091734Y0154026D01*
X0091690Y0154112D01*
X0091649Y0154200D01*
X0091613Y0154290D01*
X0091579Y0154381D01*
X0091550Y0154473D01*
X0091524Y0154567D01*
X0091503Y0154661D01*
X0091485Y0154757D01*
X0091471Y0154853D01*
X0091461Y0154949D01*
X0091455Y0155046D01*
X0091453Y0155143D01*
X0111138Y0125615D02*
X0111140Y0125712D01*
X0111146Y0125809D01*
X0111156Y0125905D01*
X0111170Y0126001D01*
X0111188Y0126097D01*
X0111209Y0126191D01*
X0111235Y0126285D01*
X0111264Y0126377D01*
X0111298Y0126468D01*
X0111334Y0126558D01*
X0111375Y0126646D01*
X0111419Y0126732D01*
X0111467Y0126817D01*
X0111518Y0126899D01*
X0111572Y0126980D01*
X0111630Y0127058D01*
X0111691Y0127133D01*
X0111754Y0127206D01*
X0111821Y0127277D01*
X0111891Y0127344D01*
X0111963Y0127409D01*
X0112038Y0127470D01*
X0112116Y0127529D01*
X0112195Y0127584D01*
X0112277Y0127636D01*
X0112361Y0127684D01*
X0112447Y0127729D01*
X0112535Y0127771D01*
X0112624Y0127809D01*
X0112715Y0127843D01*
X0112807Y0127873D01*
X0112900Y0127900D01*
X0112995Y0127922D01*
X0113090Y0127941D01*
X0113186Y0127956D01*
X0113282Y0127967D01*
X0113379Y0127974D01*
X0113476Y0127977D01*
X0113573Y0127976D01*
X0113670Y0127971D01*
X0113766Y0127962D01*
X0113862Y0127949D01*
X0113958Y0127932D01*
X0114053Y0127911D01*
X0114146Y0127887D01*
X0114239Y0127858D01*
X0114331Y0127826D01*
X0114421Y0127790D01*
X0114509Y0127751D01*
X0114596Y0127707D01*
X0114681Y0127661D01*
X0114764Y0127610D01*
X0114845Y0127557D01*
X0114923Y0127500D01*
X0115000Y0127440D01*
X0115073Y0127377D01*
X0115144Y0127311D01*
X0115212Y0127242D01*
X0115278Y0127170D01*
X0115340Y0127096D01*
X0115399Y0127019D01*
X0115455Y0126940D01*
X0115508Y0126858D01*
X0115558Y0126775D01*
X0115603Y0126689D01*
X0115646Y0126602D01*
X0115685Y0126513D01*
X0115720Y0126423D01*
X0115751Y0126331D01*
X0115778Y0126238D01*
X0115802Y0126144D01*
X0115822Y0126049D01*
X0115838Y0125953D01*
X0115850Y0125857D01*
X0115858Y0125760D01*
X0115862Y0125663D01*
X0115862Y0125567D01*
X0115858Y0125470D01*
X0115850Y0125373D01*
X0115838Y0125277D01*
X0115822Y0125181D01*
X0115802Y0125086D01*
X0115778Y0124992D01*
X0115751Y0124899D01*
X0115720Y0124807D01*
X0115685Y0124717D01*
X0115646Y0124628D01*
X0115603Y0124541D01*
X0115558Y0124455D01*
X0115508Y0124372D01*
X0115455Y0124290D01*
X0115399Y0124211D01*
X0115340Y0124134D01*
X0115278Y0124060D01*
X0115212Y0123988D01*
X0115144Y0123919D01*
X0115073Y0123853D01*
X0115000Y0123790D01*
X0114923Y0123730D01*
X0114845Y0123673D01*
X0114764Y0123620D01*
X0114681Y0123569D01*
X0114596Y0123523D01*
X0114509Y0123479D01*
X0114421Y0123440D01*
X0114331Y0123404D01*
X0114239Y0123372D01*
X0114146Y0123343D01*
X0114053Y0123319D01*
X0113958Y0123298D01*
X0113862Y0123281D01*
X0113766Y0123268D01*
X0113670Y0123259D01*
X0113573Y0123254D01*
X0113476Y0123253D01*
X0113379Y0123256D01*
X0113282Y0123263D01*
X0113186Y0123274D01*
X0113090Y0123289D01*
X0112995Y0123308D01*
X0112900Y0123330D01*
X0112807Y0123357D01*
X0112715Y0123387D01*
X0112624Y0123421D01*
X0112535Y0123459D01*
X0112447Y0123501D01*
X0112361Y0123546D01*
X0112277Y0123594D01*
X0112195Y0123646D01*
X0112116Y0123701D01*
X0112038Y0123760D01*
X0111963Y0123821D01*
X0111891Y0123886D01*
X0111821Y0123953D01*
X0111754Y0124024D01*
X0111691Y0124097D01*
X0111630Y0124172D01*
X0111572Y0124250D01*
X0111518Y0124331D01*
X0111467Y0124413D01*
X0111419Y0124498D01*
X0111375Y0124584D01*
X0111334Y0124672D01*
X0111298Y0124762D01*
X0111264Y0124853D01*
X0111235Y0124945D01*
X0111209Y0125039D01*
X0111188Y0125133D01*
X0111170Y0125229D01*
X0111156Y0125325D01*
X0111146Y0125421D01*
X0111140Y0125518D01*
X0111138Y0125615D01*
X0130823Y0145300D02*
X0130825Y0145397D01*
X0130831Y0145494D01*
X0130841Y0145590D01*
X0130855Y0145686D01*
X0130873Y0145782D01*
X0130894Y0145876D01*
X0130920Y0145970D01*
X0130949Y0146062D01*
X0130983Y0146153D01*
X0131019Y0146243D01*
X0131060Y0146331D01*
X0131104Y0146417D01*
X0131152Y0146502D01*
X0131203Y0146584D01*
X0131257Y0146665D01*
X0131315Y0146743D01*
X0131376Y0146818D01*
X0131439Y0146891D01*
X0131506Y0146962D01*
X0131576Y0147029D01*
X0131648Y0147094D01*
X0131723Y0147155D01*
X0131801Y0147214D01*
X0131880Y0147269D01*
X0131962Y0147321D01*
X0132046Y0147369D01*
X0132132Y0147414D01*
X0132220Y0147456D01*
X0132309Y0147494D01*
X0132400Y0147528D01*
X0132492Y0147558D01*
X0132585Y0147585D01*
X0132680Y0147607D01*
X0132775Y0147626D01*
X0132871Y0147641D01*
X0132967Y0147652D01*
X0133064Y0147659D01*
X0133161Y0147662D01*
X0133258Y0147661D01*
X0133355Y0147656D01*
X0133451Y0147647D01*
X0133547Y0147634D01*
X0133643Y0147617D01*
X0133738Y0147596D01*
X0133831Y0147572D01*
X0133924Y0147543D01*
X0134016Y0147511D01*
X0134106Y0147475D01*
X0134194Y0147436D01*
X0134281Y0147392D01*
X0134366Y0147346D01*
X0134449Y0147295D01*
X0134530Y0147242D01*
X0134608Y0147185D01*
X0134685Y0147125D01*
X0134758Y0147062D01*
X0134829Y0146996D01*
X0134897Y0146927D01*
X0134963Y0146855D01*
X0135025Y0146781D01*
X0135084Y0146704D01*
X0135140Y0146625D01*
X0135193Y0146543D01*
X0135243Y0146460D01*
X0135288Y0146374D01*
X0135331Y0146287D01*
X0135370Y0146198D01*
X0135405Y0146108D01*
X0135436Y0146016D01*
X0135463Y0145923D01*
X0135487Y0145829D01*
X0135507Y0145734D01*
X0135523Y0145638D01*
X0135535Y0145542D01*
X0135543Y0145445D01*
X0135547Y0145348D01*
X0135547Y0145252D01*
X0135543Y0145155D01*
X0135535Y0145058D01*
X0135523Y0144962D01*
X0135507Y0144866D01*
X0135487Y0144771D01*
X0135463Y0144677D01*
X0135436Y0144584D01*
X0135405Y0144492D01*
X0135370Y0144402D01*
X0135331Y0144313D01*
X0135288Y0144226D01*
X0135243Y0144140D01*
X0135193Y0144057D01*
X0135140Y0143975D01*
X0135084Y0143896D01*
X0135025Y0143819D01*
X0134963Y0143745D01*
X0134897Y0143673D01*
X0134829Y0143604D01*
X0134758Y0143538D01*
X0134685Y0143475D01*
X0134608Y0143415D01*
X0134530Y0143358D01*
X0134449Y0143305D01*
X0134366Y0143254D01*
X0134281Y0143208D01*
X0134194Y0143164D01*
X0134106Y0143125D01*
X0134016Y0143089D01*
X0133924Y0143057D01*
X0133831Y0143028D01*
X0133738Y0143004D01*
X0133643Y0142983D01*
X0133547Y0142966D01*
X0133451Y0142953D01*
X0133355Y0142944D01*
X0133258Y0142939D01*
X0133161Y0142938D01*
X0133064Y0142941D01*
X0132967Y0142948D01*
X0132871Y0142959D01*
X0132775Y0142974D01*
X0132680Y0142993D01*
X0132585Y0143015D01*
X0132492Y0143042D01*
X0132400Y0143072D01*
X0132309Y0143106D01*
X0132220Y0143144D01*
X0132132Y0143186D01*
X0132046Y0143231D01*
X0131962Y0143279D01*
X0131880Y0143331D01*
X0131801Y0143386D01*
X0131723Y0143445D01*
X0131648Y0143506D01*
X0131576Y0143571D01*
X0131506Y0143638D01*
X0131439Y0143709D01*
X0131376Y0143782D01*
X0131315Y0143857D01*
X0131257Y0143935D01*
X0131203Y0144016D01*
X0131152Y0144098D01*
X0131104Y0144183D01*
X0131060Y0144269D01*
X0131019Y0144357D01*
X0130983Y0144447D01*
X0130949Y0144538D01*
X0130920Y0144630D01*
X0130894Y0144724D01*
X0130873Y0144818D01*
X0130855Y0144914D01*
X0130841Y0145010D01*
X0130831Y0145106D01*
X0130825Y0145203D01*
X0130823Y0145300D01*
X0130823Y0155143D02*
X0130825Y0155240D01*
X0130831Y0155337D01*
X0130841Y0155433D01*
X0130855Y0155529D01*
X0130873Y0155625D01*
X0130894Y0155719D01*
X0130920Y0155813D01*
X0130949Y0155905D01*
X0130983Y0155996D01*
X0131019Y0156086D01*
X0131060Y0156174D01*
X0131104Y0156260D01*
X0131152Y0156345D01*
X0131203Y0156427D01*
X0131257Y0156508D01*
X0131315Y0156586D01*
X0131376Y0156661D01*
X0131439Y0156734D01*
X0131506Y0156805D01*
X0131576Y0156872D01*
X0131648Y0156937D01*
X0131723Y0156998D01*
X0131801Y0157057D01*
X0131880Y0157112D01*
X0131962Y0157164D01*
X0132046Y0157212D01*
X0132132Y0157257D01*
X0132220Y0157299D01*
X0132309Y0157337D01*
X0132400Y0157371D01*
X0132492Y0157401D01*
X0132585Y0157428D01*
X0132680Y0157450D01*
X0132775Y0157469D01*
X0132871Y0157484D01*
X0132967Y0157495D01*
X0133064Y0157502D01*
X0133161Y0157505D01*
X0133258Y0157504D01*
X0133355Y0157499D01*
X0133451Y0157490D01*
X0133547Y0157477D01*
X0133643Y0157460D01*
X0133738Y0157439D01*
X0133831Y0157415D01*
X0133924Y0157386D01*
X0134016Y0157354D01*
X0134106Y0157318D01*
X0134194Y0157279D01*
X0134281Y0157235D01*
X0134366Y0157189D01*
X0134449Y0157138D01*
X0134530Y0157085D01*
X0134608Y0157028D01*
X0134685Y0156968D01*
X0134758Y0156905D01*
X0134829Y0156839D01*
X0134897Y0156770D01*
X0134963Y0156698D01*
X0135025Y0156624D01*
X0135084Y0156547D01*
X0135140Y0156468D01*
X0135193Y0156386D01*
X0135243Y0156303D01*
X0135288Y0156217D01*
X0135331Y0156130D01*
X0135370Y0156041D01*
X0135405Y0155951D01*
X0135436Y0155859D01*
X0135463Y0155766D01*
X0135487Y0155672D01*
X0135507Y0155577D01*
X0135523Y0155481D01*
X0135535Y0155385D01*
X0135543Y0155288D01*
X0135547Y0155191D01*
X0135547Y0155095D01*
X0135543Y0154998D01*
X0135535Y0154901D01*
X0135523Y0154805D01*
X0135507Y0154709D01*
X0135487Y0154614D01*
X0135463Y0154520D01*
X0135436Y0154427D01*
X0135405Y0154335D01*
X0135370Y0154245D01*
X0135331Y0154156D01*
X0135288Y0154069D01*
X0135243Y0153983D01*
X0135193Y0153900D01*
X0135140Y0153818D01*
X0135084Y0153739D01*
X0135025Y0153662D01*
X0134963Y0153588D01*
X0134897Y0153516D01*
X0134829Y0153447D01*
X0134758Y0153381D01*
X0134685Y0153318D01*
X0134608Y0153258D01*
X0134530Y0153201D01*
X0134449Y0153148D01*
X0134366Y0153097D01*
X0134281Y0153051D01*
X0134194Y0153007D01*
X0134106Y0152968D01*
X0134016Y0152932D01*
X0133924Y0152900D01*
X0133831Y0152871D01*
X0133738Y0152847D01*
X0133643Y0152826D01*
X0133547Y0152809D01*
X0133451Y0152796D01*
X0133355Y0152787D01*
X0133258Y0152782D01*
X0133161Y0152781D01*
X0133064Y0152784D01*
X0132967Y0152791D01*
X0132871Y0152802D01*
X0132775Y0152817D01*
X0132680Y0152836D01*
X0132585Y0152858D01*
X0132492Y0152885D01*
X0132400Y0152915D01*
X0132309Y0152949D01*
X0132220Y0152987D01*
X0132132Y0153029D01*
X0132046Y0153074D01*
X0131962Y0153122D01*
X0131880Y0153174D01*
X0131801Y0153229D01*
X0131723Y0153288D01*
X0131648Y0153349D01*
X0131576Y0153414D01*
X0131506Y0153481D01*
X0131439Y0153552D01*
X0131376Y0153625D01*
X0131315Y0153700D01*
X0131257Y0153778D01*
X0131203Y0153859D01*
X0131152Y0153941D01*
X0131104Y0154026D01*
X0131060Y0154112D01*
X0131019Y0154200D01*
X0130983Y0154290D01*
X0130949Y0154381D01*
X0130920Y0154473D01*
X0130894Y0154567D01*
X0130873Y0154661D01*
X0130855Y0154757D01*
X0130841Y0154853D01*
X0130831Y0154949D01*
X0130825Y0155046D01*
X0130823Y0155143D01*
X0160555Y0081103D02*
X0160557Y0081261D01*
X0160563Y0081419D01*
X0160573Y0081577D01*
X0160587Y0081735D01*
X0160605Y0081892D01*
X0160626Y0082049D01*
X0160652Y0082205D01*
X0160682Y0082361D01*
X0160715Y0082516D01*
X0160753Y0082669D01*
X0160794Y0082822D01*
X0160839Y0082974D01*
X0160888Y0083125D01*
X0160941Y0083274D01*
X0160997Y0083422D01*
X0161057Y0083568D01*
X0161121Y0083713D01*
X0161189Y0083856D01*
X0161260Y0083998D01*
X0161334Y0084138D01*
X0161412Y0084275D01*
X0161494Y0084411D01*
X0161578Y0084545D01*
X0161667Y0084676D01*
X0161758Y0084805D01*
X0161853Y0084932D01*
X0161950Y0085057D01*
X0162051Y0085179D01*
X0162155Y0085298D01*
X0162262Y0085415D01*
X0162372Y0085529D01*
X0162485Y0085640D01*
X0162600Y0085749D01*
X0162718Y0085854D01*
X0162839Y0085956D01*
X0162962Y0086056D01*
X0163088Y0086152D01*
X0163216Y0086245D01*
X0163346Y0086335D01*
X0163479Y0086421D01*
X0163614Y0086505D01*
X0163750Y0086584D01*
X0163889Y0086661D01*
X0164030Y0086733D01*
X0164172Y0086803D01*
X0164316Y0086868D01*
X0164462Y0086930D01*
X0164609Y0086988D01*
X0164758Y0087043D01*
X0164908Y0087094D01*
X0165059Y0087141D01*
X0165211Y0087184D01*
X0165364Y0087223D01*
X0165519Y0087259D01*
X0165674Y0087290D01*
X0165830Y0087318D01*
X0165986Y0087342D01*
X0166143Y0087362D01*
X0166301Y0087378D01*
X0166458Y0087390D01*
X0166617Y0087398D01*
X0166775Y0087402D01*
X0166933Y0087402D01*
X0167091Y0087398D01*
X0167250Y0087390D01*
X0167407Y0087378D01*
X0167565Y0087362D01*
X0167722Y0087342D01*
X0167878Y0087318D01*
X0168034Y0087290D01*
X0168189Y0087259D01*
X0168344Y0087223D01*
X0168497Y0087184D01*
X0168649Y0087141D01*
X0168800Y0087094D01*
X0168950Y0087043D01*
X0169099Y0086988D01*
X0169246Y0086930D01*
X0169392Y0086868D01*
X0169536Y0086803D01*
X0169678Y0086733D01*
X0169819Y0086661D01*
X0169958Y0086584D01*
X0170094Y0086505D01*
X0170229Y0086421D01*
X0170362Y0086335D01*
X0170492Y0086245D01*
X0170620Y0086152D01*
X0170746Y0086056D01*
X0170869Y0085956D01*
X0170990Y0085854D01*
X0171108Y0085749D01*
X0171223Y0085640D01*
X0171336Y0085529D01*
X0171446Y0085415D01*
X0171553Y0085298D01*
X0171657Y0085179D01*
X0171758Y0085057D01*
X0171855Y0084932D01*
X0171950Y0084805D01*
X0172041Y0084676D01*
X0172130Y0084545D01*
X0172214Y0084411D01*
X0172296Y0084275D01*
X0172374Y0084138D01*
X0172448Y0083998D01*
X0172519Y0083856D01*
X0172587Y0083713D01*
X0172651Y0083568D01*
X0172711Y0083422D01*
X0172767Y0083274D01*
X0172820Y0083125D01*
X0172869Y0082974D01*
X0172914Y0082822D01*
X0172955Y0082669D01*
X0172993Y0082516D01*
X0173026Y0082361D01*
X0173056Y0082205D01*
X0173082Y0082049D01*
X0173103Y0081892D01*
X0173121Y0081735D01*
X0173135Y0081577D01*
X0173145Y0081419D01*
X0173151Y0081261D01*
X0173153Y0081103D01*
X0173151Y0080945D01*
X0173145Y0080787D01*
X0173135Y0080629D01*
X0173121Y0080471D01*
X0173103Y0080314D01*
X0173082Y0080157D01*
X0173056Y0080001D01*
X0173026Y0079845D01*
X0172993Y0079690D01*
X0172955Y0079537D01*
X0172914Y0079384D01*
X0172869Y0079232D01*
X0172820Y0079081D01*
X0172767Y0078932D01*
X0172711Y0078784D01*
X0172651Y0078638D01*
X0172587Y0078493D01*
X0172519Y0078350D01*
X0172448Y0078208D01*
X0172374Y0078068D01*
X0172296Y0077931D01*
X0172214Y0077795D01*
X0172130Y0077661D01*
X0172041Y0077530D01*
X0171950Y0077401D01*
X0171855Y0077274D01*
X0171758Y0077149D01*
X0171657Y0077027D01*
X0171553Y0076908D01*
X0171446Y0076791D01*
X0171336Y0076677D01*
X0171223Y0076566D01*
X0171108Y0076457D01*
X0170990Y0076352D01*
X0170869Y0076250D01*
X0170746Y0076150D01*
X0170620Y0076054D01*
X0170492Y0075961D01*
X0170362Y0075871D01*
X0170229Y0075785D01*
X0170094Y0075701D01*
X0169958Y0075622D01*
X0169819Y0075545D01*
X0169678Y0075473D01*
X0169536Y0075403D01*
X0169392Y0075338D01*
X0169246Y0075276D01*
X0169099Y0075218D01*
X0168950Y0075163D01*
X0168800Y0075112D01*
X0168649Y0075065D01*
X0168497Y0075022D01*
X0168344Y0074983D01*
X0168189Y0074947D01*
X0168034Y0074916D01*
X0167878Y0074888D01*
X0167722Y0074864D01*
X0167565Y0074844D01*
X0167407Y0074828D01*
X0167250Y0074816D01*
X0167091Y0074808D01*
X0166933Y0074804D01*
X0166775Y0074804D01*
X0166617Y0074808D01*
X0166458Y0074816D01*
X0166301Y0074828D01*
X0166143Y0074844D01*
X0165986Y0074864D01*
X0165830Y0074888D01*
X0165674Y0074916D01*
X0165519Y0074947D01*
X0165364Y0074983D01*
X0165211Y0075022D01*
X0165059Y0075065D01*
X0164908Y0075112D01*
X0164758Y0075163D01*
X0164609Y0075218D01*
X0164462Y0075276D01*
X0164316Y0075338D01*
X0164172Y0075403D01*
X0164030Y0075473D01*
X0163889Y0075545D01*
X0163750Y0075622D01*
X0163614Y0075701D01*
X0163479Y0075785D01*
X0163346Y0075871D01*
X0163216Y0075961D01*
X0163088Y0076054D01*
X0162962Y0076150D01*
X0162839Y0076250D01*
X0162718Y0076352D01*
X0162600Y0076457D01*
X0162485Y0076566D01*
X0162372Y0076677D01*
X0162262Y0076791D01*
X0162155Y0076908D01*
X0162051Y0077027D01*
X0161950Y0077149D01*
X0161853Y0077274D01*
X0161758Y0077401D01*
X0161667Y0077530D01*
X0161578Y0077661D01*
X0161494Y0077795D01*
X0161412Y0077931D01*
X0161334Y0078068D01*
X0161260Y0078208D01*
X0161189Y0078350D01*
X0161121Y0078493D01*
X0161057Y0078638D01*
X0160997Y0078784D01*
X0160941Y0078932D01*
X0160888Y0079081D01*
X0160839Y0079232D01*
X0160794Y0079384D01*
X0160753Y0079537D01*
X0160715Y0079690D01*
X0160682Y0079845D01*
X0160652Y0080001D01*
X0160626Y0080157D01*
X0160605Y0080314D01*
X0160587Y0080471D01*
X0160573Y0080629D01*
X0160563Y0080787D01*
X0160557Y0080945D01*
X0160555Y0081103D01*
D11*
X0194413Y0006300D02*
X0009374Y0006300D01*
X0009184Y0006302D01*
X0008994Y0006309D01*
X0008804Y0006321D01*
X0008614Y0006337D01*
X0008425Y0006357D01*
X0008236Y0006383D01*
X0008048Y0006412D01*
X0007861Y0006447D01*
X0007675Y0006486D01*
X0007490Y0006529D01*
X0007305Y0006577D01*
X0007122Y0006629D01*
X0006941Y0006685D01*
X0006761Y0006746D01*
X0006582Y0006812D01*
X0006405Y0006881D01*
X0006229Y0006955D01*
X0006056Y0007033D01*
X0005884Y0007116D01*
X0005715Y0007202D01*
X0005547Y0007292D01*
X0005382Y0007387D01*
X0005219Y0007485D01*
X0005059Y0007588D01*
X0004901Y0007694D01*
X0004746Y0007804D01*
X0004593Y0007917D01*
X0004443Y0008035D01*
X0004297Y0008156D01*
X0004153Y0008280D01*
X0004012Y0008408D01*
X0003874Y0008539D01*
X0003739Y0008674D01*
X0003608Y0008812D01*
X0003480Y0008953D01*
X0003356Y0009097D01*
X0003235Y0009243D01*
X0003117Y0009393D01*
X0003004Y0009546D01*
X0002894Y0009701D01*
X0002788Y0009859D01*
X0002685Y0010019D01*
X0002587Y0010182D01*
X0002492Y0010347D01*
X0002402Y0010515D01*
X0002316Y0010684D01*
X0002233Y0010856D01*
X0002155Y0011029D01*
X0002081Y0011205D01*
X0002012Y0011382D01*
X0001946Y0011561D01*
X0001885Y0011741D01*
X0001829Y0011922D01*
X0001777Y0012105D01*
X0001729Y0012290D01*
X0001686Y0012475D01*
X0001647Y0012661D01*
X0001612Y0012848D01*
X0001583Y0013036D01*
X0001557Y0013225D01*
X0001537Y0013414D01*
X0001521Y0013604D01*
X0001509Y0013794D01*
X0001502Y0013984D01*
X0001500Y0014174D01*
X0001500Y0151969D01*
X0001502Y0152159D01*
X0001509Y0152349D01*
X0001521Y0152539D01*
X0001537Y0152729D01*
X0001557Y0152918D01*
X0001583Y0153107D01*
X0001612Y0153295D01*
X0001647Y0153482D01*
X0001686Y0153668D01*
X0001729Y0153853D01*
X0001777Y0154038D01*
X0001829Y0154221D01*
X0001885Y0154402D01*
X0001946Y0154582D01*
X0002012Y0154761D01*
X0002081Y0154938D01*
X0002155Y0155114D01*
X0002233Y0155287D01*
X0002316Y0155459D01*
X0002402Y0155628D01*
X0002492Y0155796D01*
X0002587Y0155961D01*
X0002685Y0156124D01*
X0002788Y0156284D01*
X0002894Y0156442D01*
X0003004Y0156597D01*
X0003117Y0156750D01*
X0003235Y0156900D01*
X0003356Y0157046D01*
X0003480Y0157190D01*
X0003608Y0157331D01*
X0003739Y0157469D01*
X0003874Y0157604D01*
X0004012Y0157735D01*
X0004153Y0157863D01*
X0004297Y0157987D01*
X0004443Y0158108D01*
X0004593Y0158226D01*
X0004746Y0158339D01*
X0004901Y0158449D01*
X0005059Y0158555D01*
X0005219Y0158658D01*
X0005382Y0158756D01*
X0005547Y0158851D01*
X0005715Y0158941D01*
X0005884Y0159027D01*
X0006056Y0159110D01*
X0006229Y0159188D01*
X0006405Y0159262D01*
X0006582Y0159331D01*
X0006761Y0159397D01*
X0006941Y0159458D01*
X0007122Y0159514D01*
X0007305Y0159566D01*
X0007490Y0159614D01*
X0007675Y0159657D01*
X0007861Y0159696D01*
X0008048Y0159731D01*
X0008236Y0159760D01*
X0008425Y0159786D01*
X0008614Y0159806D01*
X0008804Y0159822D01*
X0008994Y0159834D01*
X0009184Y0159841D01*
X0009374Y0159843D01*
X0194413Y0159843D01*
X0194603Y0159841D01*
X0194793Y0159834D01*
X0194983Y0159822D01*
X0195173Y0159806D01*
X0195362Y0159786D01*
X0195551Y0159760D01*
X0195739Y0159731D01*
X0195926Y0159696D01*
X0196112Y0159657D01*
X0196297Y0159614D01*
X0196482Y0159566D01*
X0196665Y0159514D01*
X0196846Y0159458D01*
X0197026Y0159397D01*
X0197205Y0159331D01*
X0197382Y0159262D01*
X0197558Y0159188D01*
X0197731Y0159110D01*
X0197903Y0159027D01*
X0198072Y0158941D01*
X0198240Y0158851D01*
X0198405Y0158756D01*
X0198568Y0158658D01*
X0198728Y0158555D01*
X0198886Y0158449D01*
X0199041Y0158339D01*
X0199194Y0158226D01*
X0199344Y0158108D01*
X0199490Y0157987D01*
X0199634Y0157863D01*
X0199775Y0157735D01*
X0199913Y0157604D01*
X0200048Y0157469D01*
X0200179Y0157331D01*
X0200307Y0157190D01*
X0200431Y0157046D01*
X0200552Y0156900D01*
X0200670Y0156750D01*
X0200783Y0156597D01*
X0200893Y0156442D01*
X0200999Y0156284D01*
X0201102Y0156124D01*
X0201200Y0155961D01*
X0201295Y0155796D01*
X0201385Y0155628D01*
X0201471Y0155459D01*
X0201554Y0155287D01*
X0201632Y0155114D01*
X0201706Y0154938D01*
X0201775Y0154761D01*
X0201841Y0154582D01*
X0201902Y0154402D01*
X0201958Y0154221D01*
X0202010Y0154038D01*
X0202058Y0153853D01*
X0202101Y0153668D01*
X0202140Y0153482D01*
X0202175Y0153295D01*
X0202204Y0153107D01*
X0202230Y0152918D01*
X0202250Y0152729D01*
X0202266Y0152539D01*
X0202278Y0152349D01*
X0202285Y0152159D01*
X0202287Y0151969D01*
X0202287Y0014174D01*
X0202285Y0013984D01*
X0202278Y0013794D01*
X0202266Y0013604D01*
X0202250Y0013414D01*
X0202230Y0013225D01*
X0202204Y0013036D01*
X0202175Y0012848D01*
X0202140Y0012661D01*
X0202101Y0012475D01*
X0202058Y0012290D01*
X0202010Y0012105D01*
X0201958Y0011922D01*
X0201902Y0011741D01*
X0201841Y0011561D01*
X0201775Y0011382D01*
X0201706Y0011205D01*
X0201632Y0011029D01*
X0201554Y0010856D01*
X0201471Y0010684D01*
X0201385Y0010515D01*
X0201295Y0010347D01*
X0201200Y0010182D01*
X0201102Y0010019D01*
X0200999Y0009859D01*
X0200893Y0009701D01*
X0200783Y0009546D01*
X0200670Y0009393D01*
X0200552Y0009243D01*
X0200431Y0009097D01*
X0200307Y0008953D01*
X0200179Y0008812D01*
X0200048Y0008674D01*
X0199913Y0008539D01*
X0199775Y0008408D01*
X0199634Y0008280D01*
X0199490Y0008156D01*
X0199344Y0008035D01*
X0199194Y0007917D01*
X0199041Y0007804D01*
X0198886Y0007694D01*
X0198728Y0007588D01*
X0198568Y0007485D01*
X0198405Y0007387D01*
X0198240Y0007292D01*
X0198072Y0007202D01*
X0197903Y0007116D01*
X0197731Y0007033D01*
X0197558Y0006955D01*
X0197382Y0006881D01*
X0197205Y0006812D01*
X0197026Y0006746D01*
X0196846Y0006685D01*
X0196665Y0006629D01*
X0196482Y0006577D01*
X0196297Y0006529D01*
X0196112Y0006486D01*
X0195926Y0006447D01*
X0195739Y0006412D01*
X0195551Y0006383D01*
X0195362Y0006357D01*
X0195173Y0006337D01*
X0194983Y0006321D01*
X0194793Y0006309D01*
X0194603Y0006302D01*
X0194413Y0006300D01*
M02*
