G75*
%MOIN*%
%OFA0B0*%
%FSLAX25Y25*%
%IPPOS*%
%LPD*%
%AMOC8*
5,1,8,0,0,1.08239X$1,22.5*
%
%ADD10C,0.00000*%
%ADD11C,0.01000*%
%ADD12C,0.07400*%
%ADD13R,0.07400X0.07400*%
%ADD14C,0.08600*%
%ADD15OC8,0.07000*%
%ADD16OC8,0.07600*%
%ADD17R,0.05346X0.05346*%
%ADD18OC8,0.05200*%
%ADD19C,0.00600*%
%ADD20C,0.03569*%
%ADD21C,0.02400*%
D10*
X0014099Y0081103D02*
X0014101Y0081261D01*
X0014107Y0081419D01*
X0014117Y0081577D01*
X0014131Y0081735D01*
X0014149Y0081892D01*
X0014170Y0082049D01*
X0014196Y0082205D01*
X0014226Y0082361D01*
X0014259Y0082516D01*
X0014297Y0082669D01*
X0014338Y0082822D01*
X0014383Y0082974D01*
X0014432Y0083125D01*
X0014485Y0083274D01*
X0014541Y0083422D01*
X0014601Y0083568D01*
X0014665Y0083713D01*
X0014733Y0083856D01*
X0014804Y0083998D01*
X0014878Y0084138D01*
X0014956Y0084275D01*
X0015038Y0084411D01*
X0015122Y0084545D01*
X0015211Y0084676D01*
X0015302Y0084805D01*
X0015397Y0084932D01*
X0015494Y0085057D01*
X0015595Y0085179D01*
X0015699Y0085298D01*
X0015806Y0085415D01*
X0015916Y0085529D01*
X0016029Y0085640D01*
X0016144Y0085749D01*
X0016262Y0085854D01*
X0016383Y0085956D01*
X0016506Y0086056D01*
X0016632Y0086152D01*
X0016760Y0086245D01*
X0016890Y0086335D01*
X0017023Y0086421D01*
X0017158Y0086505D01*
X0017294Y0086584D01*
X0017433Y0086661D01*
X0017574Y0086733D01*
X0017716Y0086803D01*
X0017860Y0086868D01*
X0018006Y0086930D01*
X0018153Y0086988D01*
X0018302Y0087043D01*
X0018452Y0087094D01*
X0018603Y0087141D01*
X0018755Y0087184D01*
X0018908Y0087223D01*
X0019063Y0087259D01*
X0019218Y0087290D01*
X0019374Y0087318D01*
X0019530Y0087342D01*
X0019687Y0087362D01*
X0019845Y0087378D01*
X0020002Y0087390D01*
X0020161Y0087398D01*
X0020319Y0087402D01*
X0020477Y0087402D01*
X0020635Y0087398D01*
X0020794Y0087390D01*
X0020951Y0087378D01*
X0021109Y0087362D01*
X0021266Y0087342D01*
X0021422Y0087318D01*
X0021578Y0087290D01*
X0021733Y0087259D01*
X0021888Y0087223D01*
X0022041Y0087184D01*
X0022193Y0087141D01*
X0022344Y0087094D01*
X0022494Y0087043D01*
X0022643Y0086988D01*
X0022790Y0086930D01*
X0022936Y0086868D01*
X0023080Y0086803D01*
X0023222Y0086733D01*
X0023363Y0086661D01*
X0023502Y0086584D01*
X0023638Y0086505D01*
X0023773Y0086421D01*
X0023906Y0086335D01*
X0024036Y0086245D01*
X0024164Y0086152D01*
X0024290Y0086056D01*
X0024413Y0085956D01*
X0024534Y0085854D01*
X0024652Y0085749D01*
X0024767Y0085640D01*
X0024880Y0085529D01*
X0024990Y0085415D01*
X0025097Y0085298D01*
X0025201Y0085179D01*
X0025302Y0085057D01*
X0025399Y0084932D01*
X0025494Y0084805D01*
X0025585Y0084676D01*
X0025674Y0084545D01*
X0025758Y0084411D01*
X0025840Y0084275D01*
X0025918Y0084138D01*
X0025992Y0083998D01*
X0026063Y0083856D01*
X0026131Y0083713D01*
X0026195Y0083568D01*
X0026255Y0083422D01*
X0026311Y0083274D01*
X0026364Y0083125D01*
X0026413Y0082974D01*
X0026458Y0082822D01*
X0026499Y0082669D01*
X0026537Y0082516D01*
X0026570Y0082361D01*
X0026600Y0082205D01*
X0026626Y0082049D01*
X0026647Y0081892D01*
X0026665Y0081735D01*
X0026679Y0081577D01*
X0026689Y0081419D01*
X0026695Y0081261D01*
X0026697Y0081103D01*
X0026695Y0080945D01*
X0026689Y0080787D01*
X0026679Y0080629D01*
X0026665Y0080471D01*
X0026647Y0080314D01*
X0026626Y0080157D01*
X0026600Y0080001D01*
X0026570Y0079845D01*
X0026537Y0079690D01*
X0026499Y0079537D01*
X0026458Y0079384D01*
X0026413Y0079232D01*
X0026364Y0079081D01*
X0026311Y0078932D01*
X0026255Y0078784D01*
X0026195Y0078638D01*
X0026131Y0078493D01*
X0026063Y0078350D01*
X0025992Y0078208D01*
X0025918Y0078068D01*
X0025840Y0077931D01*
X0025758Y0077795D01*
X0025674Y0077661D01*
X0025585Y0077530D01*
X0025494Y0077401D01*
X0025399Y0077274D01*
X0025302Y0077149D01*
X0025201Y0077027D01*
X0025097Y0076908D01*
X0024990Y0076791D01*
X0024880Y0076677D01*
X0024767Y0076566D01*
X0024652Y0076457D01*
X0024534Y0076352D01*
X0024413Y0076250D01*
X0024290Y0076150D01*
X0024164Y0076054D01*
X0024036Y0075961D01*
X0023906Y0075871D01*
X0023773Y0075785D01*
X0023638Y0075701D01*
X0023502Y0075622D01*
X0023363Y0075545D01*
X0023222Y0075473D01*
X0023080Y0075403D01*
X0022936Y0075338D01*
X0022790Y0075276D01*
X0022643Y0075218D01*
X0022494Y0075163D01*
X0022344Y0075112D01*
X0022193Y0075065D01*
X0022041Y0075022D01*
X0021888Y0074983D01*
X0021733Y0074947D01*
X0021578Y0074916D01*
X0021422Y0074888D01*
X0021266Y0074864D01*
X0021109Y0074844D01*
X0020951Y0074828D01*
X0020794Y0074816D01*
X0020635Y0074808D01*
X0020477Y0074804D01*
X0020319Y0074804D01*
X0020161Y0074808D01*
X0020002Y0074816D01*
X0019845Y0074828D01*
X0019687Y0074844D01*
X0019530Y0074864D01*
X0019374Y0074888D01*
X0019218Y0074916D01*
X0019063Y0074947D01*
X0018908Y0074983D01*
X0018755Y0075022D01*
X0018603Y0075065D01*
X0018452Y0075112D01*
X0018302Y0075163D01*
X0018153Y0075218D01*
X0018006Y0075276D01*
X0017860Y0075338D01*
X0017716Y0075403D01*
X0017574Y0075473D01*
X0017433Y0075545D01*
X0017294Y0075622D01*
X0017158Y0075701D01*
X0017023Y0075785D01*
X0016890Y0075871D01*
X0016760Y0075961D01*
X0016632Y0076054D01*
X0016506Y0076150D01*
X0016383Y0076250D01*
X0016262Y0076352D01*
X0016144Y0076457D01*
X0016029Y0076566D01*
X0015916Y0076677D01*
X0015806Y0076791D01*
X0015699Y0076908D01*
X0015595Y0077027D01*
X0015494Y0077149D01*
X0015397Y0077274D01*
X0015302Y0077401D01*
X0015211Y0077530D01*
X0015122Y0077661D01*
X0015038Y0077795D01*
X0014956Y0077931D01*
X0014878Y0078068D01*
X0014804Y0078208D01*
X0014733Y0078350D01*
X0014665Y0078493D01*
X0014601Y0078638D01*
X0014541Y0078784D01*
X0014485Y0078932D01*
X0014432Y0079081D01*
X0014383Y0079232D01*
X0014338Y0079384D01*
X0014297Y0079537D01*
X0014259Y0079690D01*
X0014226Y0079845D01*
X0014196Y0080001D01*
X0014170Y0080157D01*
X0014149Y0080314D01*
X0014131Y0080471D01*
X0014117Y0080629D01*
X0014107Y0080787D01*
X0014101Y0080945D01*
X0014099Y0081103D01*
X0091453Y0145300D02*
X0091455Y0145397D01*
X0091461Y0145494D01*
X0091471Y0145590D01*
X0091485Y0145686D01*
X0091503Y0145782D01*
X0091524Y0145876D01*
X0091550Y0145970D01*
X0091579Y0146062D01*
X0091613Y0146153D01*
X0091649Y0146243D01*
X0091690Y0146331D01*
X0091734Y0146417D01*
X0091782Y0146502D01*
X0091833Y0146584D01*
X0091887Y0146665D01*
X0091945Y0146743D01*
X0092006Y0146818D01*
X0092069Y0146891D01*
X0092136Y0146962D01*
X0092206Y0147029D01*
X0092278Y0147094D01*
X0092353Y0147155D01*
X0092431Y0147214D01*
X0092510Y0147269D01*
X0092592Y0147321D01*
X0092676Y0147369D01*
X0092762Y0147414D01*
X0092850Y0147456D01*
X0092939Y0147494D01*
X0093030Y0147528D01*
X0093122Y0147558D01*
X0093215Y0147585D01*
X0093310Y0147607D01*
X0093405Y0147626D01*
X0093501Y0147641D01*
X0093597Y0147652D01*
X0093694Y0147659D01*
X0093791Y0147662D01*
X0093888Y0147661D01*
X0093985Y0147656D01*
X0094081Y0147647D01*
X0094177Y0147634D01*
X0094273Y0147617D01*
X0094368Y0147596D01*
X0094461Y0147572D01*
X0094554Y0147543D01*
X0094646Y0147511D01*
X0094736Y0147475D01*
X0094824Y0147436D01*
X0094911Y0147392D01*
X0094996Y0147346D01*
X0095079Y0147295D01*
X0095160Y0147242D01*
X0095238Y0147185D01*
X0095315Y0147125D01*
X0095388Y0147062D01*
X0095459Y0146996D01*
X0095527Y0146927D01*
X0095593Y0146855D01*
X0095655Y0146781D01*
X0095714Y0146704D01*
X0095770Y0146625D01*
X0095823Y0146543D01*
X0095873Y0146460D01*
X0095918Y0146374D01*
X0095961Y0146287D01*
X0096000Y0146198D01*
X0096035Y0146108D01*
X0096066Y0146016D01*
X0096093Y0145923D01*
X0096117Y0145829D01*
X0096137Y0145734D01*
X0096153Y0145638D01*
X0096165Y0145542D01*
X0096173Y0145445D01*
X0096177Y0145348D01*
X0096177Y0145252D01*
X0096173Y0145155D01*
X0096165Y0145058D01*
X0096153Y0144962D01*
X0096137Y0144866D01*
X0096117Y0144771D01*
X0096093Y0144677D01*
X0096066Y0144584D01*
X0096035Y0144492D01*
X0096000Y0144402D01*
X0095961Y0144313D01*
X0095918Y0144226D01*
X0095873Y0144140D01*
X0095823Y0144057D01*
X0095770Y0143975D01*
X0095714Y0143896D01*
X0095655Y0143819D01*
X0095593Y0143745D01*
X0095527Y0143673D01*
X0095459Y0143604D01*
X0095388Y0143538D01*
X0095315Y0143475D01*
X0095238Y0143415D01*
X0095160Y0143358D01*
X0095079Y0143305D01*
X0094996Y0143254D01*
X0094911Y0143208D01*
X0094824Y0143164D01*
X0094736Y0143125D01*
X0094646Y0143089D01*
X0094554Y0143057D01*
X0094461Y0143028D01*
X0094368Y0143004D01*
X0094273Y0142983D01*
X0094177Y0142966D01*
X0094081Y0142953D01*
X0093985Y0142944D01*
X0093888Y0142939D01*
X0093791Y0142938D01*
X0093694Y0142941D01*
X0093597Y0142948D01*
X0093501Y0142959D01*
X0093405Y0142974D01*
X0093310Y0142993D01*
X0093215Y0143015D01*
X0093122Y0143042D01*
X0093030Y0143072D01*
X0092939Y0143106D01*
X0092850Y0143144D01*
X0092762Y0143186D01*
X0092676Y0143231D01*
X0092592Y0143279D01*
X0092510Y0143331D01*
X0092431Y0143386D01*
X0092353Y0143445D01*
X0092278Y0143506D01*
X0092206Y0143571D01*
X0092136Y0143638D01*
X0092069Y0143709D01*
X0092006Y0143782D01*
X0091945Y0143857D01*
X0091887Y0143935D01*
X0091833Y0144016D01*
X0091782Y0144098D01*
X0091734Y0144183D01*
X0091690Y0144269D01*
X0091649Y0144357D01*
X0091613Y0144447D01*
X0091579Y0144538D01*
X0091550Y0144630D01*
X0091524Y0144724D01*
X0091503Y0144818D01*
X0091485Y0144914D01*
X0091471Y0145010D01*
X0091461Y0145106D01*
X0091455Y0145203D01*
X0091453Y0145300D01*
X0091453Y0155143D02*
X0091455Y0155240D01*
X0091461Y0155337D01*
X0091471Y0155433D01*
X0091485Y0155529D01*
X0091503Y0155625D01*
X0091524Y0155719D01*
X0091550Y0155813D01*
X0091579Y0155905D01*
X0091613Y0155996D01*
X0091649Y0156086D01*
X0091690Y0156174D01*
X0091734Y0156260D01*
X0091782Y0156345D01*
X0091833Y0156427D01*
X0091887Y0156508D01*
X0091945Y0156586D01*
X0092006Y0156661D01*
X0092069Y0156734D01*
X0092136Y0156805D01*
X0092206Y0156872D01*
X0092278Y0156937D01*
X0092353Y0156998D01*
X0092431Y0157057D01*
X0092510Y0157112D01*
X0092592Y0157164D01*
X0092676Y0157212D01*
X0092762Y0157257D01*
X0092850Y0157299D01*
X0092939Y0157337D01*
X0093030Y0157371D01*
X0093122Y0157401D01*
X0093215Y0157428D01*
X0093310Y0157450D01*
X0093405Y0157469D01*
X0093501Y0157484D01*
X0093597Y0157495D01*
X0093694Y0157502D01*
X0093791Y0157505D01*
X0093888Y0157504D01*
X0093985Y0157499D01*
X0094081Y0157490D01*
X0094177Y0157477D01*
X0094273Y0157460D01*
X0094368Y0157439D01*
X0094461Y0157415D01*
X0094554Y0157386D01*
X0094646Y0157354D01*
X0094736Y0157318D01*
X0094824Y0157279D01*
X0094911Y0157235D01*
X0094996Y0157189D01*
X0095079Y0157138D01*
X0095160Y0157085D01*
X0095238Y0157028D01*
X0095315Y0156968D01*
X0095388Y0156905D01*
X0095459Y0156839D01*
X0095527Y0156770D01*
X0095593Y0156698D01*
X0095655Y0156624D01*
X0095714Y0156547D01*
X0095770Y0156468D01*
X0095823Y0156386D01*
X0095873Y0156303D01*
X0095918Y0156217D01*
X0095961Y0156130D01*
X0096000Y0156041D01*
X0096035Y0155951D01*
X0096066Y0155859D01*
X0096093Y0155766D01*
X0096117Y0155672D01*
X0096137Y0155577D01*
X0096153Y0155481D01*
X0096165Y0155385D01*
X0096173Y0155288D01*
X0096177Y0155191D01*
X0096177Y0155095D01*
X0096173Y0154998D01*
X0096165Y0154901D01*
X0096153Y0154805D01*
X0096137Y0154709D01*
X0096117Y0154614D01*
X0096093Y0154520D01*
X0096066Y0154427D01*
X0096035Y0154335D01*
X0096000Y0154245D01*
X0095961Y0154156D01*
X0095918Y0154069D01*
X0095873Y0153983D01*
X0095823Y0153900D01*
X0095770Y0153818D01*
X0095714Y0153739D01*
X0095655Y0153662D01*
X0095593Y0153588D01*
X0095527Y0153516D01*
X0095459Y0153447D01*
X0095388Y0153381D01*
X0095315Y0153318D01*
X0095238Y0153258D01*
X0095160Y0153201D01*
X0095079Y0153148D01*
X0094996Y0153097D01*
X0094911Y0153051D01*
X0094824Y0153007D01*
X0094736Y0152968D01*
X0094646Y0152932D01*
X0094554Y0152900D01*
X0094461Y0152871D01*
X0094368Y0152847D01*
X0094273Y0152826D01*
X0094177Y0152809D01*
X0094081Y0152796D01*
X0093985Y0152787D01*
X0093888Y0152782D01*
X0093791Y0152781D01*
X0093694Y0152784D01*
X0093597Y0152791D01*
X0093501Y0152802D01*
X0093405Y0152817D01*
X0093310Y0152836D01*
X0093215Y0152858D01*
X0093122Y0152885D01*
X0093030Y0152915D01*
X0092939Y0152949D01*
X0092850Y0152987D01*
X0092762Y0153029D01*
X0092676Y0153074D01*
X0092592Y0153122D01*
X0092510Y0153174D01*
X0092431Y0153229D01*
X0092353Y0153288D01*
X0092278Y0153349D01*
X0092206Y0153414D01*
X0092136Y0153481D01*
X0092069Y0153552D01*
X0092006Y0153625D01*
X0091945Y0153700D01*
X0091887Y0153778D01*
X0091833Y0153859D01*
X0091782Y0153941D01*
X0091734Y0154026D01*
X0091690Y0154112D01*
X0091649Y0154200D01*
X0091613Y0154290D01*
X0091579Y0154381D01*
X0091550Y0154473D01*
X0091524Y0154567D01*
X0091503Y0154661D01*
X0091485Y0154757D01*
X0091471Y0154853D01*
X0091461Y0154949D01*
X0091455Y0155046D01*
X0091453Y0155143D01*
X0111138Y0125615D02*
X0111140Y0125712D01*
X0111146Y0125809D01*
X0111156Y0125905D01*
X0111170Y0126001D01*
X0111188Y0126097D01*
X0111209Y0126191D01*
X0111235Y0126285D01*
X0111264Y0126377D01*
X0111298Y0126468D01*
X0111334Y0126558D01*
X0111375Y0126646D01*
X0111419Y0126732D01*
X0111467Y0126817D01*
X0111518Y0126899D01*
X0111572Y0126980D01*
X0111630Y0127058D01*
X0111691Y0127133D01*
X0111754Y0127206D01*
X0111821Y0127277D01*
X0111891Y0127344D01*
X0111963Y0127409D01*
X0112038Y0127470D01*
X0112116Y0127529D01*
X0112195Y0127584D01*
X0112277Y0127636D01*
X0112361Y0127684D01*
X0112447Y0127729D01*
X0112535Y0127771D01*
X0112624Y0127809D01*
X0112715Y0127843D01*
X0112807Y0127873D01*
X0112900Y0127900D01*
X0112995Y0127922D01*
X0113090Y0127941D01*
X0113186Y0127956D01*
X0113282Y0127967D01*
X0113379Y0127974D01*
X0113476Y0127977D01*
X0113573Y0127976D01*
X0113670Y0127971D01*
X0113766Y0127962D01*
X0113862Y0127949D01*
X0113958Y0127932D01*
X0114053Y0127911D01*
X0114146Y0127887D01*
X0114239Y0127858D01*
X0114331Y0127826D01*
X0114421Y0127790D01*
X0114509Y0127751D01*
X0114596Y0127707D01*
X0114681Y0127661D01*
X0114764Y0127610D01*
X0114845Y0127557D01*
X0114923Y0127500D01*
X0115000Y0127440D01*
X0115073Y0127377D01*
X0115144Y0127311D01*
X0115212Y0127242D01*
X0115278Y0127170D01*
X0115340Y0127096D01*
X0115399Y0127019D01*
X0115455Y0126940D01*
X0115508Y0126858D01*
X0115558Y0126775D01*
X0115603Y0126689D01*
X0115646Y0126602D01*
X0115685Y0126513D01*
X0115720Y0126423D01*
X0115751Y0126331D01*
X0115778Y0126238D01*
X0115802Y0126144D01*
X0115822Y0126049D01*
X0115838Y0125953D01*
X0115850Y0125857D01*
X0115858Y0125760D01*
X0115862Y0125663D01*
X0115862Y0125567D01*
X0115858Y0125470D01*
X0115850Y0125373D01*
X0115838Y0125277D01*
X0115822Y0125181D01*
X0115802Y0125086D01*
X0115778Y0124992D01*
X0115751Y0124899D01*
X0115720Y0124807D01*
X0115685Y0124717D01*
X0115646Y0124628D01*
X0115603Y0124541D01*
X0115558Y0124455D01*
X0115508Y0124372D01*
X0115455Y0124290D01*
X0115399Y0124211D01*
X0115340Y0124134D01*
X0115278Y0124060D01*
X0115212Y0123988D01*
X0115144Y0123919D01*
X0115073Y0123853D01*
X0115000Y0123790D01*
X0114923Y0123730D01*
X0114845Y0123673D01*
X0114764Y0123620D01*
X0114681Y0123569D01*
X0114596Y0123523D01*
X0114509Y0123479D01*
X0114421Y0123440D01*
X0114331Y0123404D01*
X0114239Y0123372D01*
X0114146Y0123343D01*
X0114053Y0123319D01*
X0113958Y0123298D01*
X0113862Y0123281D01*
X0113766Y0123268D01*
X0113670Y0123259D01*
X0113573Y0123254D01*
X0113476Y0123253D01*
X0113379Y0123256D01*
X0113282Y0123263D01*
X0113186Y0123274D01*
X0113090Y0123289D01*
X0112995Y0123308D01*
X0112900Y0123330D01*
X0112807Y0123357D01*
X0112715Y0123387D01*
X0112624Y0123421D01*
X0112535Y0123459D01*
X0112447Y0123501D01*
X0112361Y0123546D01*
X0112277Y0123594D01*
X0112195Y0123646D01*
X0112116Y0123701D01*
X0112038Y0123760D01*
X0111963Y0123821D01*
X0111891Y0123886D01*
X0111821Y0123953D01*
X0111754Y0124024D01*
X0111691Y0124097D01*
X0111630Y0124172D01*
X0111572Y0124250D01*
X0111518Y0124331D01*
X0111467Y0124413D01*
X0111419Y0124498D01*
X0111375Y0124584D01*
X0111334Y0124672D01*
X0111298Y0124762D01*
X0111264Y0124853D01*
X0111235Y0124945D01*
X0111209Y0125039D01*
X0111188Y0125133D01*
X0111170Y0125229D01*
X0111156Y0125325D01*
X0111146Y0125421D01*
X0111140Y0125518D01*
X0111138Y0125615D01*
X0130823Y0145300D02*
X0130825Y0145397D01*
X0130831Y0145494D01*
X0130841Y0145590D01*
X0130855Y0145686D01*
X0130873Y0145782D01*
X0130894Y0145876D01*
X0130920Y0145970D01*
X0130949Y0146062D01*
X0130983Y0146153D01*
X0131019Y0146243D01*
X0131060Y0146331D01*
X0131104Y0146417D01*
X0131152Y0146502D01*
X0131203Y0146584D01*
X0131257Y0146665D01*
X0131315Y0146743D01*
X0131376Y0146818D01*
X0131439Y0146891D01*
X0131506Y0146962D01*
X0131576Y0147029D01*
X0131648Y0147094D01*
X0131723Y0147155D01*
X0131801Y0147214D01*
X0131880Y0147269D01*
X0131962Y0147321D01*
X0132046Y0147369D01*
X0132132Y0147414D01*
X0132220Y0147456D01*
X0132309Y0147494D01*
X0132400Y0147528D01*
X0132492Y0147558D01*
X0132585Y0147585D01*
X0132680Y0147607D01*
X0132775Y0147626D01*
X0132871Y0147641D01*
X0132967Y0147652D01*
X0133064Y0147659D01*
X0133161Y0147662D01*
X0133258Y0147661D01*
X0133355Y0147656D01*
X0133451Y0147647D01*
X0133547Y0147634D01*
X0133643Y0147617D01*
X0133738Y0147596D01*
X0133831Y0147572D01*
X0133924Y0147543D01*
X0134016Y0147511D01*
X0134106Y0147475D01*
X0134194Y0147436D01*
X0134281Y0147392D01*
X0134366Y0147346D01*
X0134449Y0147295D01*
X0134530Y0147242D01*
X0134608Y0147185D01*
X0134685Y0147125D01*
X0134758Y0147062D01*
X0134829Y0146996D01*
X0134897Y0146927D01*
X0134963Y0146855D01*
X0135025Y0146781D01*
X0135084Y0146704D01*
X0135140Y0146625D01*
X0135193Y0146543D01*
X0135243Y0146460D01*
X0135288Y0146374D01*
X0135331Y0146287D01*
X0135370Y0146198D01*
X0135405Y0146108D01*
X0135436Y0146016D01*
X0135463Y0145923D01*
X0135487Y0145829D01*
X0135507Y0145734D01*
X0135523Y0145638D01*
X0135535Y0145542D01*
X0135543Y0145445D01*
X0135547Y0145348D01*
X0135547Y0145252D01*
X0135543Y0145155D01*
X0135535Y0145058D01*
X0135523Y0144962D01*
X0135507Y0144866D01*
X0135487Y0144771D01*
X0135463Y0144677D01*
X0135436Y0144584D01*
X0135405Y0144492D01*
X0135370Y0144402D01*
X0135331Y0144313D01*
X0135288Y0144226D01*
X0135243Y0144140D01*
X0135193Y0144057D01*
X0135140Y0143975D01*
X0135084Y0143896D01*
X0135025Y0143819D01*
X0134963Y0143745D01*
X0134897Y0143673D01*
X0134829Y0143604D01*
X0134758Y0143538D01*
X0134685Y0143475D01*
X0134608Y0143415D01*
X0134530Y0143358D01*
X0134449Y0143305D01*
X0134366Y0143254D01*
X0134281Y0143208D01*
X0134194Y0143164D01*
X0134106Y0143125D01*
X0134016Y0143089D01*
X0133924Y0143057D01*
X0133831Y0143028D01*
X0133738Y0143004D01*
X0133643Y0142983D01*
X0133547Y0142966D01*
X0133451Y0142953D01*
X0133355Y0142944D01*
X0133258Y0142939D01*
X0133161Y0142938D01*
X0133064Y0142941D01*
X0132967Y0142948D01*
X0132871Y0142959D01*
X0132775Y0142974D01*
X0132680Y0142993D01*
X0132585Y0143015D01*
X0132492Y0143042D01*
X0132400Y0143072D01*
X0132309Y0143106D01*
X0132220Y0143144D01*
X0132132Y0143186D01*
X0132046Y0143231D01*
X0131962Y0143279D01*
X0131880Y0143331D01*
X0131801Y0143386D01*
X0131723Y0143445D01*
X0131648Y0143506D01*
X0131576Y0143571D01*
X0131506Y0143638D01*
X0131439Y0143709D01*
X0131376Y0143782D01*
X0131315Y0143857D01*
X0131257Y0143935D01*
X0131203Y0144016D01*
X0131152Y0144098D01*
X0131104Y0144183D01*
X0131060Y0144269D01*
X0131019Y0144357D01*
X0130983Y0144447D01*
X0130949Y0144538D01*
X0130920Y0144630D01*
X0130894Y0144724D01*
X0130873Y0144818D01*
X0130855Y0144914D01*
X0130841Y0145010D01*
X0130831Y0145106D01*
X0130825Y0145203D01*
X0130823Y0145300D01*
X0130823Y0155143D02*
X0130825Y0155240D01*
X0130831Y0155337D01*
X0130841Y0155433D01*
X0130855Y0155529D01*
X0130873Y0155625D01*
X0130894Y0155719D01*
X0130920Y0155813D01*
X0130949Y0155905D01*
X0130983Y0155996D01*
X0131019Y0156086D01*
X0131060Y0156174D01*
X0131104Y0156260D01*
X0131152Y0156345D01*
X0131203Y0156427D01*
X0131257Y0156508D01*
X0131315Y0156586D01*
X0131376Y0156661D01*
X0131439Y0156734D01*
X0131506Y0156805D01*
X0131576Y0156872D01*
X0131648Y0156937D01*
X0131723Y0156998D01*
X0131801Y0157057D01*
X0131880Y0157112D01*
X0131962Y0157164D01*
X0132046Y0157212D01*
X0132132Y0157257D01*
X0132220Y0157299D01*
X0132309Y0157337D01*
X0132400Y0157371D01*
X0132492Y0157401D01*
X0132585Y0157428D01*
X0132680Y0157450D01*
X0132775Y0157469D01*
X0132871Y0157484D01*
X0132967Y0157495D01*
X0133064Y0157502D01*
X0133161Y0157505D01*
X0133258Y0157504D01*
X0133355Y0157499D01*
X0133451Y0157490D01*
X0133547Y0157477D01*
X0133643Y0157460D01*
X0133738Y0157439D01*
X0133831Y0157415D01*
X0133924Y0157386D01*
X0134016Y0157354D01*
X0134106Y0157318D01*
X0134194Y0157279D01*
X0134281Y0157235D01*
X0134366Y0157189D01*
X0134449Y0157138D01*
X0134530Y0157085D01*
X0134608Y0157028D01*
X0134685Y0156968D01*
X0134758Y0156905D01*
X0134829Y0156839D01*
X0134897Y0156770D01*
X0134963Y0156698D01*
X0135025Y0156624D01*
X0135084Y0156547D01*
X0135140Y0156468D01*
X0135193Y0156386D01*
X0135243Y0156303D01*
X0135288Y0156217D01*
X0135331Y0156130D01*
X0135370Y0156041D01*
X0135405Y0155951D01*
X0135436Y0155859D01*
X0135463Y0155766D01*
X0135487Y0155672D01*
X0135507Y0155577D01*
X0135523Y0155481D01*
X0135535Y0155385D01*
X0135543Y0155288D01*
X0135547Y0155191D01*
X0135547Y0155095D01*
X0135543Y0154998D01*
X0135535Y0154901D01*
X0135523Y0154805D01*
X0135507Y0154709D01*
X0135487Y0154614D01*
X0135463Y0154520D01*
X0135436Y0154427D01*
X0135405Y0154335D01*
X0135370Y0154245D01*
X0135331Y0154156D01*
X0135288Y0154069D01*
X0135243Y0153983D01*
X0135193Y0153900D01*
X0135140Y0153818D01*
X0135084Y0153739D01*
X0135025Y0153662D01*
X0134963Y0153588D01*
X0134897Y0153516D01*
X0134829Y0153447D01*
X0134758Y0153381D01*
X0134685Y0153318D01*
X0134608Y0153258D01*
X0134530Y0153201D01*
X0134449Y0153148D01*
X0134366Y0153097D01*
X0134281Y0153051D01*
X0134194Y0153007D01*
X0134106Y0152968D01*
X0134016Y0152932D01*
X0133924Y0152900D01*
X0133831Y0152871D01*
X0133738Y0152847D01*
X0133643Y0152826D01*
X0133547Y0152809D01*
X0133451Y0152796D01*
X0133355Y0152787D01*
X0133258Y0152782D01*
X0133161Y0152781D01*
X0133064Y0152784D01*
X0132967Y0152791D01*
X0132871Y0152802D01*
X0132775Y0152817D01*
X0132680Y0152836D01*
X0132585Y0152858D01*
X0132492Y0152885D01*
X0132400Y0152915D01*
X0132309Y0152949D01*
X0132220Y0152987D01*
X0132132Y0153029D01*
X0132046Y0153074D01*
X0131962Y0153122D01*
X0131880Y0153174D01*
X0131801Y0153229D01*
X0131723Y0153288D01*
X0131648Y0153349D01*
X0131576Y0153414D01*
X0131506Y0153481D01*
X0131439Y0153552D01*
X0131376Y0153625D01*
X0131315Y0153700D01*
X0131257Y0153778D01*
X0131203Y0153859D01*
X0131152Y0153941D01*
X0131104Y0154026D01*
X0131060Y0154112D01*
X0131019Y0154200D01*
X0130983Y0154290D01*
X0130949Y0154381D01*
X0130920Y0154473D01*
X0130894Y0154567D01*
X0130873Y0154661D01*
X0130855Y0154757D01*
X0130841Y0154853D01*
X0130831Y0154949D01*
X0130825Y0155046D01*
X0130823Y0155143D01*
X0160555Y0081103D02*
X0160557Y0081261D01*
X0160563Y0081419D01*
X0160573Y0081577D01*
X0160587Y0081735D01*
X0160605Y0081892D01*
X0160626Y0082049D01*
X0160652Y0082205D01*
X0160682Y0082361D01*
X0160715Y0082516D01*
X0160753Y0082669D01*
X0160794Y0082822D01*
X0160839Y0082974D01*
X0160888Y0083125D01*
X0160941Y0083274D01*
X0160997Y0083422D01*
X0161057Y0083568D01*
X0161121Y0083713D01*
X0161189Y0083856D01*
X0161260Y0083998D01*
X0161334Y0084138D01*
X0161412Y0084275D01*
X0161494Y0084411D01*
X0161578Y0084545D01*
X0161667Y0084676D01*
X0161758Y0084805D01*
X0161853Y0084932D01*
X0161950Y0085057D01*
X0162051Y0085179D01*
X0162155Y0085298D01*
X0162262Y0085415D01*
X0162372Y0085529D01*
X0162485Y0085640D01*
X0162600Y0085749D01*
X0162718Y0085854D01*
X0162839Y0085956D01*
X0162962Y0086056D01*
X0163088Y0086152D01*
X0163216Y0086245D01*
X0163346Y0086335D01*
X0163479Y0086421D01*
X0163614Y0086505D01*
X0163750Y0086584D01*
X0163889Y0086661D01*
X0164030Y0086733D01*
X0164172Y0086803D01*
X0164316Y0086868D01*
X0164462Y0086930D01*
X0164609Y0086988D01*
X0164758Y0087043D01*
X0164908Y0087094D01*
X0165059Y0087141D01*
X0165211Y0087184D01*
X0165364Y0087223D01*
X0165519Y0087259D01*
X0165674Y0087290D01*
X0165830Y0087318D01*
X0165986Y0087342D01*
X0166143Y0087362D01*
X0166301Y0087378D01*
X0166458Y0087390D01*
X0166617Y0087398D01*
X0166775Y0087402D01*
X0166933Y0087402D01*
X0167091Y0087398D01*
X0167250Y0087390D01*
X0167407Y0087378D01*
X0167565Y0087362D01*
X0167722Y0087342D01*
X0167878Y0087318D01*
X0168034Y0087290D01*
X0168189Y0087259D01*
X0168344Y0087223D01*
X0168497Y0087184D01*
X0168649Y0087141D01*
X0168800Y0087094D01*
X0168950Y0087043D01*
X0169099Y0086988D01*
X0169246Y0086930D01*
X0169392Y0086868D01*
X0169536Y0086803D01*
X0169678Y0086733D01*
X0169819Y0086661D01*
X0169958Y0086584D01*
X0170094Y0086505D01*
X0170229Y0086421D01*
X0170362Y0086335D01*
X0170492Y0086245D01*
X0170620Y0086152D01*
X0170746Y0086056D01*
X0170869Y0085956D01*
X0170990Y0085854D01*
X0171108Y0085749D01*
X0171223Y0085640D01*
X0171336Y0085529D01*
X0171446Y0085415D01*
X0171553Y0085298D01*
X0171657Y0085179D01*
X0171758Y0085057D01*
X0171855Y0084932D01*
X0171950Y0084805D01*
X0172041Y0084676D01*
X0172130Y0084545D01*
X0172214Y0084411D01*
X0172296Y0084275D01*
X0172374Y0084138D01*
X0172448Y0083998D01*
X0172519Y0083856D01*
X0172587Y0083713D01*
X0172651Y0083568D01*
X0172711Y0083422D01*
X0172767Y0083274D01*
X0172820Y0083125D01*
X0172869Y0082974D01*
X0172914Y0082822D01*
X0172955Y0082669D01*
X0172993Y0082516D01*
X0173026Y0082361D01*
X0173056Y0082205D01*
X0173082Y0082049D01*
X0173103Y0081892D01*
X0173121Y0081735D01*
X0173135Y0081577D01*
X0173145Y0081419D01*
X0173151Y0081261D01*
X0173153Y0081103D01*
X0173151Y0080945D01*
X0173145Y0080787D01*
X0173135Y0080629D01*
X0173121Y0080471D01*
X0173103Y0080314D01*
X0173082Y0080157D01*
X0173056Y0080001D01*
X0173026Y0079845D01*
X0172993Y0079690D01*
X0172955Y0079537D01*
X0172914Y0079384D01*
X0172869Y0079232D01*
X0172820Y0079081D01*
X0172767Y0078932D01*
X0172711Y0078784D01*
X0172651Y0078638D01*
X0172587Y0078493D01*
X0172519Y0078350D01*
X0172448Y0078208D01*
X0172374Y0078068D01*
X0172296Y0077931D01*
X0172214Y0077795D01*
X0172130Y0077661D01*
X0172041Y0077530D01*
X0171950Y0077401D01*
X0171855Y0077274D01*
X0171758Y0077149D01*
X0171657Y0077027D01*
X0171553Y0076908D01*
X0171446Y0076791D01*
X0171336Y0076677D01*
X0171223Y0076566D01*
X0171108Y0076457D01*
X0170990Y0076352D01*
X0170869Y0076250D01*
X0170746Y0076150D01*
X0170620Y0076054D01*
X0170492Y0075961D01*
X0170362Y0075871D01*
X0170229Y0075785D01*
X0170094Y0075701D01*
X0169958Y0075622D01*
X0169819Y0075545D01*
X0169678Y0075473D01*
X0169536Y0075403D01*
X0169392Y0075338D01*
X0169246Y0075276D01*
X0169099Y0075218D01*
X0168950Y0075163D01*
X0168800Y0075112D01*
X0168649Y0075065D01*
X0168497Y0075022D01*
X0168344Y0074983D01*
X0168189Y0074947D01*
X0168034Y0074916D01*
X0167878Y0074888D01*
X0167722Y0074864D01*
X0167565Y0074844D01*
X0167407Y0074828D01*
X0167250Y0074816D01*
X0167091Y0074808D01*
X0166933Y0074804D01*
X0166775Y0074804D01*
X0166617Y0074808D01*
X0166458Y0074816D01*
X0166301Y0074828D01*
X0166143Y0074844D01*
X0165986Y0074864D01*
X0165830Y0074888D01*
X0165674Y0074916D01*
X0165519Y0074947D01*
X0165364Y0074983D01*
X0165211Y0075022D01*
X0165059Y0075065D01*
X0164908Y0075112D01*
X0164758Y0075163D01*
X0164609Y0075218D01*
X0164462Y0075276D01*
X0164316Y0075338D01*
X0164172Y0075403D01*
X0164030Y0075473D01*
X0163889Y0075545D01*
X0163750Y0075622D01*
X0163614Y0075701D01*
X0163479Y0075785D01*
X0163346Y0075871D01*
X0163216Y0075961D01*
X0163088Y0076054D01*
X0162962Y0076150D01*
X0162839Y0076250D01*
X0162718Y0076352D01*
X0162600Y0076457D01*
X0162485Y0076566D01*
X0162372Y0076677D01*
X0162262Y0076791D01*
X0162155Y0076908D01*
X0162051Y0077027D01*
X0161950Y0077149D01*
X0161853Y0077274D01*
X0161758Y0077401D01*
X0161667Y0077530D01*
X0161578Y0077661D01*
X0161494Y0077795D01*
X0161412Y0077931D01*
X0161334Y0078068D01*
X0161260Y0078208D01*
X0161189Y0078350D01*
X0161121Y0078493D01*
X0161057Y0078638D01*
X0160997Y0078784D01*
X0160941Y0078932D01*
X0160888Y0079081D01*
X0160839Y0079232D01*
X0160794Y0079384D01*
X0160753Y0079537D01*
X0160715Y0079690D01*
X0160682Y0079845D01*
X0160652Y0080001D01*
X0160626Y0080157D01*
X0160605Y0080314D01*
X0160587Y0080471D01*
X0160573Y0080629D01*
X0160563Y0080787D01*
X0160557Y0080945D01*
X0160555Y0081103D01*
D11*
X0194413Y0006300D02*
X0009374Y0006300D01*
X0009184Y0006302D01*
X0008994Y0006309D01*
X0008804Y0006321D01*
X0008614Y0006337D01*
X0008425Y0006357D01*
X0008236Y0006383D01*
X0008048Y0006412D01*
X0007861Y0006447D01*
X0007675Y0006486D01*
X0007490Y0006529D01*
X0007305Y0006577D01*
X0007122Y0006629D01*
X0006941Y0006685D01*
X0006761Y0006746D01*
X0006582Y0006812D01*
X0006405Y0006881D01*
X0006229Y0006955D01*
X0006056Y0007033D01*
X0005884Y0007116D01*
X0005715Y0007202D01*
X0005547Y0007292D01*
X0005382Y0007387D01*
X0005219Y0007485D01*
X0005059Y0007588D01*
X0004901Y0007694D01*
X0004746Y0007804D01*
X0004593Y0007917D01*
X0004443Y0008035D01*
X0004297Y0008156D01*
X0004153Y0008280D01*
X0004012Y0008408D01*
X0003874Y0008539D01*
X0003739Y0008674D01*
X0003608Y0008812D01*
X0003480Y0008953D01*
X0003356Y0009097D01*
X0003235Y0009243D01*
X0003117Y0009393D01*
X0003004Y0009546D01*
X0002894Y0009701D01*
X0002788Y0009859D01*
X0002685Y0010019D01*
X0002587Y0010182D01*
X0002492Y0010347D01*
X0002402Y0010515D01*
X0002316Y0010684D01*
X0002233Y0010856D01*
X0002155Y0011029D01*
X0002081Y0011205D01*
X0002012Y0011382D01*
X0001946Y0011561D01*
X0001885Y0011741D01*
X0001829Y0011922D01*
X0001777Y0012105D01*
X0001729Y0012290D01*
X0001686Y0012475D01*
X0001647Y0012661D01*
X0001612Y0012848D01*
X0001583Y0013036D01*
X0001557Y0013225D01*
X0001537Y0013414D01*
X0001521Y0013604D01*
X0001509Y0013794D01*
X0001502Y0013984D01*
X0001500Y0014174D01*
X0001500Y0151969D01*
X0001502Y0152159D01*
X0001509Y0152349D01*
X0001521Y0152539D01*
X0001537Y0152729D01*
X0001557Y0152918D01*
X0001583Y0153107D01*
X0001612Y0153295D01*
X0001647Y0153482D01*
X0001686Y0153668D01*
X0001729Y0153853D01*
X0001777Y0154038D01*
X0001829Y0154221D01*
X0001885Y0154402D01*
X0001946Y0154582D01*
X0002012Y0154761D01*
X0002081Y0154938D01*
X0002155Y0155114D01*
X0002233Y0155287D01*
X0002316Y0155459D01*
X0002402Y0155628D01*
X0002492Y0155796D01*
X0002587Y0155961D01*
X0002685Y0156124D01*
X0002788Y0156284D01*
X0002894Y0156442D01*
X0003004Y0156597D01*
X0003117Y0156750D01*
X0003235Y0156900D01*
X0003356Y0157046D01*
X0003480Y0157190D01*
X0003608Y0157331D01*
X0003739Y0157469D01*
X0003874Y0157604D01*
X0004012Y0157735D01*
X0004153Y0157863D01*
X0004297Y0157987D01*
X0004443Y0158108D01*
X0004593Y0158226D01*
X0004746Y0158339D01*
X0004901Y0158449D01*
X0005059Y0158555D01*
X0005219Y0158658D01*
X0005382Y0158756D01*
X0005547Y0158851D01*
X0005715Y0158941D01*
X0005884Y0159027D01*
X0006056Y0159110D01*
X0006229Y0159188D01*
X0006405Y0159262D01*
X0006582Y0159331D01*
X0006761Y0159397D01*
X0006941Y0159458D01*
X0007122Y0159514D01*
X0007305Y0159566D01*
X0007490Y0159614D01*
X0007675Y0159657D01*
X0007861Y0159696D01*
X0008048Y0159731D01*
X0008236Y0159760D01*
X0008425Y0159786D01*
X0008614Y0159806D01*
X0008804Y0159822D01*
X0008994Y0159834D01*
X0009184Y0159841D01*
X0009374Y0159843D01*
X0194413Y0159843D01*
X0194603Y0159841D01*
X0194793Y0159834D01*
X0194983Y0159822D01*
X0195173Y0159806D01*
X0195362Y0159786D01*
X0195551Y0159760D01*
X0195739Y0159731D01*
X0195926Y0159696D01*
X0196112Y0159657D01*
X0196297Y0159614D01*
X0196482Y0159566D01*
X0196665Y0159514D01*
X0196846Y0159458D01*
X0197026Y0159397D01*
X0197205Y0159331D01*
X0197382Y0159262D01*
X0197558Y0159188D01*
X0197731Y0159110D01*
X0197903Y0159027D01*
X0198072Y0158941D01*
X0198240Y0158851D01*
X0198405Y0158756D01*
X0198568Y0158658D01*
X0198728Y0158555D01*
X0198886Y0158449D01*
X0199041Y0158339D01*
X0199194Y0158226D01*
X0199344Y0158108D01*
X0199490Y0157987D01*
X0199634Y0157863D01*
X0199775Y0157735D01*
X0199913Y0157604D01*
X0200048Y0157469D01*
X0200179Y0157331D01*
X0200307Y0157190D01*
X0200431Y0157046D01*
X0200552Y0156900D01*
X0200670Y0156750D01*
X0200783Y0156597D01*
X0200893Y0156442D01*
X0200999Y0156284D01*
X0201102Y0156124D01*
X0201200Y0155961D01*
X0201295Y0155796D01*
X0201385Y0155628D01*
X0201471Y0155459D01*
X0201554Y0155287D01*
X0201632Y0155114D01*
X0201706Y0154938D01*
X0201775Y0154761D01*
X0201841Y0154582D01*
X0201902Y0154402D01*
X0201958Y0154221D01*
X0202010Y0154038D01*
X0202058Y0153853D01*
X0202101Y0153668D01*
X0202140Y0153482D01*
X0202175Y0153295D01*
X0202204Y0153107D01*
X0202230Y0152918D01*
X0202250Y0152729D01*
X0202266Y0152539D01*
X0202278Y0152349D01*
X0202285Y0152159D01*
X0202287Y0151969D01*
X0202287Y0014174D01*
X0202285Y0013984D01*
X0202278Y0013794D01*
X0202266Y0013604D01*
X0202250Y0013414D01*
X0202230Y0013225D01*
X0202204Y0013036D01*
X0202175Y0012848D01*
X0202140Y0012661D01*
X0202101Y0012475D01*
X0202058Y0012290D01*
X0202010Y0012105D01*
X0201958Y0011922D01*
X0201902Y0011741D01*
X0201841Y0011561D01*
X0201775Y0011382D01*
X0201706Y0011205D01*
X0201632Y0011029D01*
X0201554Y0010856D01*
X0201471Y0010684D01*
X0201385Y0010515D01*
X0201295Y0010347D01*
X0201200Y0010182D01*
X0201102Y0010019D01*
X0200999Y0009859D01*
X0200893Y0009701D01*
X0200783Y0009546D01*
X0200670Y0009393D01*
X0200552Y0009243D01*
X0200431Y0009097D01*
X0200307Y0008953D01*
X0200179Y0008812D01*
X0200048Y0008674D01*
X0199913Y0008539D01*
X0199775Y0008408D01*
X0199634Y0008280D01*
X0199490Y0008156D01*
X0199344Y0008035D01*
X0199194Y0007917D01*
X0199041Y0007804D01*
X0198886Y0007694D01*
X0198728Y0007588D01*
X0198568Y0007485D01*
X0198405Y0007387D01*
X0198240Y0007292D01*
X0198072Y0007202D01*
X0197903Y0007116D01*
X0197731Y0007033D01*
X0197558Y0006955D01*
X0197382Y0006881D01*
X0197205Y0006812D01*
X0197026Y0006746D01*
X0196846Y0006685D01*
X0196665Y0006629D01*
X0196482Y0006577D01*
X0196297Y0006529D01*
X0196112Y0006486D01*
X0195926Y0006447D01*
X0195739Y0006412D01*
X0195551Y0006383D01*
X0195362Y0006357D01*
X0195173Y0006337D01*
X0194983Y0006321D01*
X0194793Y0006309D01*
X0194603Y0006302D01*
X0194413Y0006300D01*
D12*
X0091500Y0021300D03*
X0081500Y0021300D03*
X0071500Y0021300D03*
X0061500Y0021300D03*
X0051500Y0021300D03*
X0051500Y0031300D03*
X0061500Y0031300D03*
X0071500Y0031300D03*
X0081500Y0031300D03*
X0091500Y0031300D03*
X0021500Y0021300D03*
X0011500Y0041300D03*
X0011500Y0051300D03*
X0026500Y0121300D03*
X0036500Y0121300D03*
X0046500Y0121300D03*
X0056500Y0121300D03*
X0066500Y0121300D03*
X0066500Y0131300D03*
X0056500Y0131300D03*
X0046500Y0131300D03*
X0036500Y0131300D03*
X0026500Y0131300D03*
D13*
X0011500Y0021300D03*
D14*
X0093421Y0125615D03*
X0103657Y0125615D03*
X0123343Y0125615D03*
X0133579Y0125615D03*
X0113500Y0145300D03*
D15*
X0056500Y0101300D03*
X0046500Y0061300D03*
X0066500Y0061300D03*
D16*
X0155539Y0135800D03*
X0185461Y0135800D03*
D17*
X0191500Y0096300D03*
X0191500Y0086300D03*
X0191500Y0076300D03*
X0191500Y0066300D03*
X0191500Y0056300D03*
X0191500Y0046300D03*
X0191500Y0036300D03*
X0191500Y0026300D03*
X0121500Y0026300D03*
X0121500Y0036300D03*
X0121500Y0046300D03*
X0121500Y0056300D03*
X0121500Y0066300D03*
X0121500Y0076300D03*
X0121500Y0086300D03*
X0121500Y0096300D03*
D18*
X0141500Y0086300D03*
X0141500Y0046300D03*
X0066500Y0051300D03*
X0026500Y0051300D03*
X0021500Y0151300D03*
X0061500Y0151300D03*
D19*
X0059105Y0148746D02*
X0023895Y0148746D01*
X0023297Y0148147D02*
X0059703Y0148147D01*
X0060050Y0147800D02*
X0062950Y0147800D01*
X0065000Y0149850D01*
X0065000Y0152750D01*
X0062950Y0154800D01*
X0060050Y0154800D01*
X0058000Y0152750D01*
X0058000Y0149850D01*
X0060050Y0147800D01*
X0058506Y0149344D02*
X0024494Y0149344D01*
X0025000Y0149850D02*
X0022950Y0147800D01*
X0020050Y0147800D01*
X0018000Y0149850D01*
X0018000Y0152750D01*
X0020050Y0154800D01*
X0022950Y0154800D01*
X0025000Y0152750D01*
X0025000Y0149850D01*
X0025000Y0149943D02*
X0058000Y0149943D01*
X0058000Y0150541D02*
X0025000Y0150541D01*
X0025000Y0151140D02*
X0058000Y0151140D01*
X0058000Y0151738D02*
X0025000Y0151738D01*
X0025000Y0152337D02*
X0058000Y0152337D01*
X0058186Y0152935D02*
X0024814Y0152935D01*
X0024216Y0153534D02*
X0058784Y0153534D01*
X0059383Y0154132D02*
X0023617Y0154132D01*
X0023019Y0154731D02*
X0059981Y0154731D01*
X0063019Y0154731D02*
X0087153Y0154731D01*
X0087153Y0155043D02*
X0087153Y0153817D01*
X0088167Y0151369D01*
X0089314Y0150221D01*
X0088167Y0149074D01*
X0087153Y0146625D01*
X0087153Y0143975D01*
X0088167Y0141526D01*
X0090041Y0139652D01*
X0092490Y0138638D01*
X0095140Y0138638D01*
X0097589Y0139652D01*
X0099463Y0141526D01*
X0100477Y0143975D01*
X0100477Y0146625D01*
X0099463Y0149074D01*
X0098315Y0150221D01*
X0099463Y0151369D01*
X0100477Y0153817D01*
X0100477Y0155043D01*
X0126523Y0155043D01*
X0126523Y0153817D01*
X0127537Y0151369D01*
X0128685Y0150221D01*
X0127537Y0149074D01*
X0126523Y0146625D01*
X0126523Y0143975D01*
X0127537Y0141526D01*
X0129411Y0139652D01*
X0131860Y0138638D01*
X0134510Y0138638D01*
X0136959Y0139652D01*
X0138833Y0141526D01*
X0139847Y0143975D01*
X0139847Y0146625D01*
X0138833Y0149074D01*
X0137686Y0150221D01*
X0138833Y0151369D01*
X0139847Y0153817D01*
X0139847Y0155043D01*
X0194413Y0155043D01*
X0194894Y0155005D01*
X0195809Y0154708D01*
X0196587Y0154143D01*
X0197152Y0153365D01*
X0197450Y0152450D01*
X0197487Y0151969D01*
X0197487Y0014174D01*
X0197450Y0013693D01*
X0197152Y0012778D01*
X0196587Y0012000D01*
X0195809Y0011435D01*
X0194894Y0011138D01*
X0194413Y0011100D01*
X0080520Y0011100D01*
X0081100Y0011680D01*
X0083600Y0014180D01*
X0083600Y0017191D01*
X0084106Y0017400D01*
X0085400Y0018694D01*
X0086100Y0020385D01*
X0086100Y0022215D01*
X0085400Y0023906D01*
X0084106Y0025200D01*
X0082415Y0025900D01*
X0080585Y0025900D01*
X0078894Y0025200D01*
X0077600Y0023906D01*
X0076900Y0022215D01*
X0076900Y0020385D01*
X0077600Y0018694D01*
X0078894Y0017400D01*
X0079400Y0017191D01*
X0079400Y0015920D01*
X0078130Y0014650D01*
X0043620Y0014650D01*
X0037350Y0020920D01*
X0037350Y0097930D01*
X0047370Y0107950D01*
X0048600Y0109180D01*
X0048600Y0117191D01*
X0049106Y0117400D01*
X0050400Y0118694D01*
X0051100Y0120385D01*
X0051100Y0122215D01*
X0050400Y0123906D01*
X0049106Y0125200D01*
X0047415Y0125900D01*
X0045585Y0125900D01*
X0043894Y0125200D01*
X0042600Y0123906D01*
X0041900Y0122215D01*
X0041900Y0120385D01*
X0042600Y0118694D01*
X0043894Y0117400D01*
X0044400Y0117191D01*
X0044400Y0110920D01*
X0033150Y0099670D01*
X0033150Y0019180D01*
X0034380Y0017950D01*
X0041230Y0011100D01*
X0009374Y0011100D01*
X0008893Y0011138D01*
X0007978Y0011435D01*
X0007200Y0012000D01*
X0006635Y0012778D01*
X0006338Y0013693D01*
X0006300Y0014174D01*
X0006300Y0151969D01*
X0006338Y0152450D01*
X0006635Y0153365D01*
X0007200Y0154143D01*
X0007978Y0154708D01*
X0008893Y0155005D01*
X0009374Y0155043D01*
X0087153Y0155043D01*
X0087153Y0154132D02*
X0063617Y0154132D01*
X0064216Y0153534D02*
X0087270Y0153534D01*
X0087518Y0152935D02*
X0064814Y0152935D01*
X0065000Y0152337D02*
X0087766Y0152337D01*
X0088014Y0151738D02*
X0065000Y0151738D01*
X0065000Y0151140D02*
X0088396Y0151140D01*
X0088994Y0150541D02*
X0065000Y0150541D01*
X0065000Y0149943D02*
X0089036Y0149943D01*
X0088437Y0149344D02*
X0064494Y0149344D01*
X0063895Y0148746D02*
X0088031Y0148746D01*
X0087783Y0148147D02*
X0063297Y0148147D01*
X0065585Y0135900D02*
X0063894Y0135200D01*
X0062600Y0133906D01*
X0061900Y0132215D01*
X0061900Y0130385D01*
X0062600Y0128694D01*
X0063894Y0127400D01*
X0065585Y0126700D01*
X0067415Y0126700D01*
X0069106Y0127400D01*
X0070400Y0128694D01*
X0071100Y0130385D01*
X0071100Y0132215D01*
X0070400Y0133906D01*
X0069106Y0135200D01*
X0067415Y0135900D01*
X0065585Y0135900D01*
X0064809Y0135578D02*
X0058191Y0135578D01*
X0057415Y0135900D02*
X0055585Y0135900D01*
X0053894Y0135200D01*
X0052600Y0133906D01*
X0051900Y0132215D01*
X0051900Y0130385D01*
X0052600Y0128694D01*
X0053894Y0127400D01*
X0055585Y0126700D01*
X0057415Y0126700D01*
X0059106Y0127400D01*
X0060400Y0128694D01*
X0061100Y0130385D01*
X0061100Y0132215D01*
X0060400Y0133906D01*
X0059106Y0135200D01*
X0057415Y0135900D01*
X0059325Y0134980D02*
X0063675Y0134980D01*
X0063076Y0134381D02*
X0059924Y0134381D01*
X0060451Y0133783D02*
X0062549Y0133783D01*
X0062302Y0133184D02*
X0060698Y0133184D01*
X0060946Y0132586D02*
X0062054Y0132586D01*
X0061900Y0131987D02*
X0061100Y0131987D01*
X0061100Y0131389D02*
X0061900Y0131389D01*
X0061900Y0130790D02*
X0061100Y0130790D01*
X0061020Y0130192D02*
X0061980Y0130192D01*
X0062228Y0129593D02*
X0060772Y0129593D01*
X0060524Y0128995D02*
X0062476Y0128995D01*
X0062898Y0128396D02*
X0060102Y0128396D01*
X0059503Y0127798D02*
X0063497Y0127798D01*
X0064380Y0127199D02*
X0058620Y0127199D01*
X0057415Y0125900D02*
X0055585Y0125900D01*
X0053894Y0125200D01*
X0052600Y0123906D01*
X0051900Y0122215D01*
X0051900Y0120385D01*
X0052600Y0118694D01*
X0053894Y0117400D01*
X0055585Y0116700D01*
X0057415Y0116700D01*
X0059106Y0117400D01*
X0060400Y0118694D01*
X0061100Y0120385D01*
X0061100Y0122215D01*
X0060400Y0123906D01*
X0059106Y0125200D01*
X0057415Y0125900D01*
X0058613Y0125404D02*
X0063642Y0125404D01*
X0063879Y0125576D02*
X0063243Y0125114D01*
X0062686Y0124557D01*
X0062224Y0123921D01*
X0061866Y0123219D01*
X0061623Y0122471D01*
X0061500Y0121694D01*
X0061500Y0121600D01*
X0066200Y0121600D01*
X0066200Y0126300D01*
X0066106Y0126300D01*
X0065329Y0126177D01*
X0064581Y0125934D01*
X0063879Y0125576D01*
X0064792Y0126002D02*
X0038208Y0126002D01*
X0038419Y0125934D02*
X0037671Y0126177D01*
X0036894Y0126300D01*
X0036800Y0126300D01*
X0036800Y0121600D01*
X0041500Y0121600D01*
X0041500Y0121694D01*
X0041377Y0122471D01*
X0041134Y0123219D01*
X0040776Y0123921D01*
X0040314Y0124557D01*
X0039757Y0125114D01*
X0039121Y0125576D01*
X0038419Y0125934D01*
X0039358Y0125404D02*
X0044387Y0125404D01*
X0043500Y0124805D02*
X0040066Y0124805D01*
X0040568Y0124207D02*
X0042901Y0124207D01*
X0042477Y0123608D02*
X0040936Y0123608D01*
X0041202Y0123010D02*
X0042229Y0123010D01*
X0041981Y0122411D02*
X0041386Y0122411D01*
X0041481Y0121813D02*
X0041900Y0121813D01*
X0041900Y0121214D02*
X0036800Y0121214D01*
X0036800Y0121000D02*
X0036800Y0121600D01*
X0036200Y0121600D01*
X0036200Y0126300D01*
X0036106Y0126300D01*
X0035329Y0126177D01*
X0034581Y0125934D01*
X0033879Y0125576D01*
X0033243Y0125114D01*
X0032686Y0124557D01*
X0032224Y0123921D01*
X0031866Y0123219D01*
X0031623Y0122471D01*
X0031500Y0121694D01*
X0031500Y0121600D01*
X0036200Y0121600D01*
X0036200Y0121000D01*
X0036800Y0121000D01*
X0041500Y0121000D01*
X0041500Y0120906D01*
X0041377Y0120129D01*
X0041134Y0119381D01*
X0040776Y0118679D01*
X0040314Y0118043D01*
X0039757Y0117486D01*
X0039121Y0117024D01*
X0038419Y0116666D01*
X0037671Y0116423D01*
X0036894Y0116300D01*
X0036800Y0116300D01*
X0036800Y0121000D01*
X0036800Y0120616D02*
X0036200Y0120616D01*
X0036200Y0121000D02*
X0036200Y0116300D01*
X0036106Y0116300D01*
X0035329Y0116423D01*
X0034581Y0116666D01*
X0033879Y0117024D01*
X0033243Y0117486D01*
X0032686Y0118043D01*
X0032224Y0118679D01*
X0031866Y0119381D01*
X0031623Y0120129D01*
X0031500Y0120906D01*
X0031500Y0121000D01*
X0036200Y0121000D01*
X0036200Y0121214D02*
X0026800Y0121214D01*
X0026800Y0121000D02*
X0026800Y0121600D01*
X0031500Y0121600D01*
X0031500Y0121694D01*
X0031377Y0122471D01*
X0031134Y0123219D01*
X0030776Y0123921D01*
X0030314Y0124557D01*
X0029757Y0125114D01*
X0029121Y0125576D01*
X0028419Y0125934D01*
X0027671Y0126177D01*
X0026894Y0126300D01*
X0026800Y0126300D01*
X0026800Y0121600D01*
X0026200Y0121600D01*
X0026200Y0126300D01*
X0026106Y0126300D01*
X0025329Y0126177D01*
X0024581Y0125934D01*
X0023879Y0125576D01*
X0023243Y0125114D01*
X0022686Y0124557D01*
X0022224Y0123921D01*
X0021866Y0123219D01*
X0021623Y0122471D01*
X0021500Y0121694D01*
X0021500Y0121600D01*
X0026200Y0121600D01*
X0026200Y0121000D01*
X0026800Y0121000D01*
X0031500Y0121000D01*
X0031500Y0120906D01*
X0031377Y0120129D01*
X0031134Y0119381D01*
X0030776Y0118679D01*
X0030314Y0118043D01*
X0029757Y0117486D01*
X0029121Y0117024D01*
X0028419Y0116666D01*
X0027671Y0116423D01*
X0026894Y0116300D01*
X0026800Y0116300D01*
X0026800Y0121000D01*
X0026800Y0120616D02*
X0026200Y0120616D01*
X0026200Y0121000D02*
X0026200Y0116300D01*
X0026106Y0116300D01*
X0025329Y0116423D01*
X0024581Y0116666D01*
X0023879Y0117024D01*
X0023243Y0117486D01*
X0022686Y0118043D01*
X0022224Y0118679D01*
X0021866Y0119381D01*
X0021623Y0120129D01*
X0021500Y0120906D01*
X0021500Y0121000D01*
X0026200Y0121000D01*
X0026200Y0121214D02*
X0017350Y0121214D01*
X0017350Y0120616D02*
X0021546Y0120616D01*
X0021659Y0120017D02*
X0017350Y0120017D01*
X0017350Y0119419D02*
X0021854Y0119419D01*
X0022152Y0118820D02*
X0017350Y0118820D01*
X0017350Y0118222D02*
X0022556Y0118222D01*
X0023106Y0117623D02*
X0017350Y0117623D01*
X0017350Y0117025D02*
X0023878Y0117025D01*
X0025320Y0116426D02*
X0017350Y0116426D01*
X0017350Y0115828D02*
X0044400Y0115828D01*
X0044400Y0116426D02*
X0037680Y0116426D01*
X0036800Y0116426D02*
X0036200Y0116426D01*
X0036200Y0117025D02*
X0036800Y0117025D01*
X0036800Y0117623D02*
X0036200Y0117623D01*
X0036200Y0118222D02*
X0036800Y0118222D01*
X0036800Y0118820D02*
X0036200Y0118820D01*
X0036200Y0119419D02*
X0036800Y0119419D01*
X0036800Y0120017D02*
X0036200Y0120017D01*
X0036200Y0121813D02*
X0036800Y0121813D01*
X0036800Y0122411D02*
X0036200Y0122411D01*
X0036200Y0123010D02*
X0036800Y0123010D01*
X0036800Y0123608D02*
X0036200Y0123608D01*
X0036200Y0124207D02*
X0036800Y0124207D01*
X0036800Y0124805D02*
X0036200Y0124805D01*
X0036200Y0125404D02*
X0036800Y0125404D01*
X0036800Y0126002D02*
X0036200Y0126002D01*
X0035585Y0126700D02*
X0037415Y0126700D01*
X0039106Y0127400D01*
X0040400Y0128694D01*
X0041100Y0130385D01*
X0041100Y0132215D01*
X0040400Y0133906D01*
X0039106Y0135200D01*
X0038600Y0135409D01*
X0038600Y0138420D01*
X0037370Y0139650D01*
X0034870Y0142150D01*
X0016880Y0142150D01*
X0015650Y0140920D01*
X0015650Y0140920D01*
X0013150Y0138420D01*
X0013150Y0107930D01*
X0017566Y0103514D01*
X0017566Y0103266D01*
X0017974Y0102279D01*
X0018729Y0101524D01*
X0019716Y0101116D01*
X0020784Y0101116D01*
X0021770Y0101524D01*
X0022526Y0102279D01*
X0022934Y0103266D01*
X0022934Y0104334D01*
X0022526Y0105320D01*
X0021770Y0106076D01*
X0020784Y0106484D01*
X0020536Y0106484D01*
X0017350Y0109670D01*
X0017350Y0136680D01*
X0018620Y0137950D01*
X0033130Y0137950D01*
X0034400Y0136680D01*
X0034400Y0135409D01*
X0033894Y0135200D01*
X0032600Y0133906D01*
X0031900Y0132215D01*
X0031900Y0130385D01*
X0032600Y0128694D01*
X0033894Y0127400D01*
X0035585Y0126700D01*
X0034792Y0126002D02*
X0028208Y0126002D01*
X0027415Y0126700D02*
X0029106Y0127400D01*
X0030400Y0128694D01*
X0031100Y0130385D01*
X0031100Y0132215D01*
X0030400Y0133906D01*
X0029106Y0135200D01*
X0027415Y0135900D01*
X0025585Y0135900D01*
X0023894Y0135200D01*
X0022600Y0133906D01*
X0021900Y0132215D01*
X0021900Y0130385D01*
X0022600Y0128694D01*
X0023894Y0127400D01*
X0025585Y0126700D01*
X0027415Y0126700D01*
X0026800Y0126002D02*
X0026200Y0126002D01*
X0026200Y0125404D02*
X0026800Y0125404D01*
X0026800Y0124805D02*
X0026200Y0124805D01*
X0026200Y0124207D02*
X0026800Y0124207D01*
X0026800Y0123608D02*
X0026200Y0123608D01*
X0026200Y0123010D02*
X0026800Y0123010D01*
X0026800Y0122411D02*
X0026200Y0122411D01*
X0026200Y0121813D02*
X0026800Y0121813D01*
X0026800Y0120017D02*
X0026200Y0120017D01*
X0026200Y0119419D02*
X0026800Y0119419D01*
X0026800Y0118820D02*
X0026200Y0118820D01*
X0026200Y0118222D02*
X0026800Y0118222D01*
X0026800Y0117623D02*
X0026200Y0117623D01*
X0026200Y0117025D02*
X0026800Y0117025D01*
X0026800Y0116426D02*
X0026200Y0116426D01*
X0027680Y0116426D02*
X0035320Y0116426D01*
X0033878Y0117025D02*
X0029122Y0117025D01*
X0029894Y0117623D02*
X0033106Y0117623D01*
X0032556Y0118222D02*
X0030444Y0118222D01*
X0030848Y0118820D02*
X0032152Y0118820D01*
X0031854Y0119419D02*
X0031146Y0119419D01*
X0031340Y0120017D02*
X0031659Y0120017D01*
X0031546Y0120616D02*
X0031454Y0120616D01*
X0031481Y0121813D02*
X0031519Y0121813D01*
X0031614Y0122411D02*
X0031386Y0122411D01*
X0031202Y0123010D02*
X0031798Y0123010D01*
X0032064Y0123608D02*
X0030936Y0123608D01*
X0030568Y0124207D02*
X0032432Y0124207D01*
X0032934Y0124805D02*
X0030066Y0124805D01*
X0029358Y0125404D02*
X0033642Y0125404D01*
X0034380Y0127199D02*
X0028620Y0127199D01*
X0029503Y0127798D02*
X0033497Y0127798D01*
X0032898Y0128396D02*
X0030102Y0128396D01*
X0030524Y0128995D02*
X0032476Y0128995D01*
X0032228Y0129593D02*
X0030772Y0129593D01*
X0031020Y0130192D02*
X0031980Y0130192D01*
X0031900Y0130790D02*
X0031100Y0130790D01*
X0031100Y0131389D02*
X0031900Y0131389D01*
X0031900Y0131987D02*
X0031100Y0131987D01*
X0030946Y0132586D02*
X0032054Y0132586D01*
X0032302Y0133184D02*
X0030698Y0133184D01*
X0030451Y0133783D02*
X0032549Y0133783D01*
X0033076Y0134381D02*
X0029924Y0134381D01*
X0029325Y0134980D02*
X0033675Y0134980D01*
X0034400Y0135578D02*
X0028191Y0135578D01*
X0024809Y0135578D02*
X0017350Y0135578D01*
X0017350Y0134980D02*
X0023675Y0134980D01*
X0023076Y0134381D02*
X0017350Y0134381D01*
X0017350Y0133783D02*
X0022549Y0133783D01*
X0022302Y0133184D02*
X0017350Y0133184D01*
X0017350Y0132586D02*
X0022054Y0132586D01*
X0021900Y0131987D02*
X0017350Y0131987D01*
X0017350Y0131389D02*
X0021900Y0131389D01*
X0021900Y0130790D02*
X0017350Y0130790D01*
X0017350Y0130192D02*
X0021980Y0130192D01*
X0022228Y0129593D02*
X0017350Y0129593D01*
X0017350Y0128995D02*
X0022476Y0128995D01*
X0022898Y0128396D02*
X0017350Y0128396D01*
X0017350Y0127798D02*
X0023497Y0127798D01*
X0024380Y0127199D02*
X0017350Y0127199D01*
X0017350Y0126601D02*
X0088221Y0126601D01*
X0088221Y0126649D02*
X0088221Y0124581D01*
X0089013Y0122669D01*
X0090476Y0121207D01*
X0092387Y0120415D01*
X0094456Y0120415D01*
X0096367Y0121207D01*
X0097830Y0122669D01*
X0098539Y0124383D01*
X0099249Y0122669D01*
X0100712Y0121207D01*
X0102623Y0120415D01*
X0104692Y0120415D01*
X0106603Y0121207D01*
X0107672Y0122276D01*
X0107852Y0121841D01*
X0109726Y0119967D01*
X0112175Y0118953D01*
X0114825Y0118953D01*
X0117274Y0119967D01*
X0119148Y0121841D01*
X0119328Y0122276D01*
X0120397Y0121207D01*
X0122308Y0120415D01*
X0124377Y0120415D01*
X0126288Y0121207D01*
X0127751Y0122669D01*
X0128461Y0124383D01*
X0129170Y0122669D01*
X0130633Y0121207D01*
X0132544Y0120415D01*
X0134613Y0120415D01*
X0136524Y0121207D01*
X0137987Y0122669D01*
X0138779Y0124581D01*
X0138779Y0126649D01*
X0137987Y0128561D01*
X0136524Y0130023D01*
X0134613Y0130815D01*
X0132544Y0130815D01*
X0130633Y0130023D01*
X0129170Y0128561D01*
X0128461Y0126847D01*
X0127751Y0128561D01*
X0126288Y0130023D01*
X0124377Y0130815D01*
X0122308Y0130815D01*
X0120397Y0130023D01*
X0119328Y0128954D01*
X0119148Y0129389D01*
X0117274Y0131263D01*
X0114825Y0132277D01*
X0112175Y0132277D01*
X0109726Y0131263D01*
X0107852Y0129389D01*
X0107672Y0128954D01*
X0106603Y0130023D01*
X0104692Y0130815D01*
X0102623Y0130815D01*
X0100712Y0130023D01*
X0099249Y0128561D01*
X0098539Y0126847D01*
X0097830Y0128561D01*
X0096367Y0130023D01*
X0094456Y0130815D01*
X0092387Y0130815D01*
X0090476Y0130023D01*
X0089013Y0128561D01*
X0088221Y0126649D01*
X0088449Y0127199D02*
X0068620Y0127199D01*
X0069503Y0127798D02*
X0088697Y0127798D01*
X0088945Y0128396D02*
X0070102Y0128396D01*
X0070524Y0128995D02*
X0089447Y0128995D01*
X0090046Y0129593D02*
X0070772Y0129593D01*
X0071020Y0130192D02*
X0090883Y0130192D01*
X0092328Y0130790D02*
X0071100Y0130790D01*
X0071100Y0131389D02*
X0110030Y0131389D01*
X0109254Y0130790D02*
X0104751Y0130790D01*
X0106196Y0130192D02*
X0108655Y0130192D01*
X0108057Y0129593D02*
X0107033Y0129593D01*
X0107632Y0128995D02*
X0107689Y0128995D01*
X0111475Y0131987D02*
X0071100Y0131987D01*
X0070946Y0132586D02*
X0152107Y0132586D01*
X0152705Y0131987D02*
X0115525Y0131987D01*
X0116970Y0131389D02*
X0153304Y0131389D01*
X0153593Y0131100D02*
X0157486Y0131100D01*
X0160239Y0133853D01*
X0160239Y0137747D01*
X0157486Y0140500D01*
X0153593Y0140500D01*
X0150839Y0137747D01*
X0150839Y0133853D01*
X0153593Y0131100D01*
X0151508Y0133184D02*
X0070698Y0133184D01*
X0070451Y0133783D02*
X0150910Y0133783D01*
X0150839Y0134381D02*
X0069924Y0134381D01*
X0069325Y0134980D02*
X0150839Y0134980D01*
X0150839Y0135578D02*
X0068191Y0135578D01*
X0066894Y0126300D02*
X0066800Y0126300D01*
X0066800Y0121600D01*
X0071500Y0121600D01*
X0071500Y0121694D01*
X0071377Y0122471D01*
X0071134Y0123219D01*
X0070776Y0123921D01*
X0070314Y0124557D01*
X0069757Y0125114D01*
X0069121Y0125576D01*
X0068419Y0125934D01*
X0067671Y0126177D01*
X0066894Y0126300D01*
X0066800Y0126002D02*
X0066200Y0126002D01*
X0066200Y0125404D02*
X0066800Y0125404D01*
X0066800Y0124805D02*
X0066200Y0124805D01*
X0066200Y0124207D02*
X0066800Y0124207D01*
X0066800Y0123608D02*
X0066200Y0123608D01*
X0066200Y0123010D02*
X0066800Y0123010D01*
X0066800Y0122411D02*
X0066200Y0122411D01*
X0066200Y0121813D02*
X0066800Y0121813D01*
X0066800Y0121600D02*
X0066200Y0121600D01*
X0066200Y0121000D01*
X0066800Y0121000D01*
X0066800Y0121600D01*
X0066800Y0121214D02*
X0090468Y0121214D01*
X0089870Y0121813D02*
X0071481Y0121813D01*
X0071386Y0122411D02*
X0089271Y0122411D01*
X0088872Y0123010D02*
X0071202Y0123010D01*
X0070936Y0123608D02*
X0088624Y0123608D01*
X0088376Y0124207D02*
X0070568Y0124207D01*
X0070066Y0124805D02*
X0088221Y0124805D01*
X0088221Y0125404D02*
X0069358Y0125404D01*
X0068208Y0126002D02*
X0088221Y0126002D01*
X0091902Y0120616D02*
X0071454Y0120616D01*
X0071500Y0120906D02*
X0071500Y0121000D01*
X0066800Y0121000D01*
X0066800Y0116300D01*
X0066894Y0116300D01*
X0067671Y0116423D01*
X0068419Y0116666D01*
X0069121Y0117024D01*
X0069757Y0117486D01*
X0070314Y0118043D01*
X0070776Y0118679D01*
X0071134Y0119381D01*
X0071377Y0120129D01*
X0071500Y0120906D01*
X0071340Y0120017D02*
X0109676Y0120017D01*
X0109078Y0120616D02*
X0105176Y0120616D01*
X0106611Y0121214D02*
X0108479Y0121214D01*
X0107880Y0121813D02*
X0107209Y0121813D01*
X0111050Y0119419D02*
X0071146Y0119419D01*
X0070848Y0118820D02*
X0197487Y0118820D01*
X0197487Y0118222D02*
X0070444Y0118222D01*
X0069894Y0117623D02*
X0197487Y0117623D01*
X0197487Y0117025D02*
X0069122Y0117025D01*
X0067680Y0116426D02*
X0197487Y0116426D01*
X0197487Y0115828D02*
X0048600Y0115828D01*
X0048600Y0116426D02*
X0065320Y0116426D01*
X0065329Y0116423D02*
X0066106Y0116300D01*
X0066200Y0116300D01*
X0066200Y0121000D01*
X0061500Y0121000D01*
X0061500Y0120906D01*
X0061623Y0120129D01*
X0061866Y0119381D01*
X0062224Y0118679D01*
X0062686Y0118043D01*
X0063243Y0117486D01*
X0063879Y0117024D01*
X0064581Y0116666D01*
X0065329Y0116423D01*
X0066200Y0116426D02*
X0066800Y0116426D01*
X0066800Y0117025D02*
X0066200Y0117025D01*
X0066200Y0117623D02*
X0066800Y0117623D01*
X0066800Y0118222D02*
X0066200Y0118222D01*
X0066200Y0118820D02*
X0066800Y0118820D01*
X0066800Y0119419D02*
X0066200Y0119419D01*
X0066200Y0120017D02*
X0066800Y0120017D01*
X0066800Y0120616D02*
X0066200Y0120616D01*
X0066200Y0121214D02*
X0061100Y0121214D01*
X0061100Y0120616D02*
X0061546Y0120616D01*
X0061659Y0120017D02*
X0060948Y0120017D01*
X0060700Y0119419D02*
X0061854Y0119419D01*
X0062152Y0118820D02*
X0060452Y0118820D01*
X0059927Y0118222D02*
X0062556Y0118222D01*
X0063106Y0117623D02*
X0059328Y0117623D01*
X0058199Y0117025D02*
X0063878Y0117025D01*
X0061519Y0121813D02*
X0061100Y0121813D01*
X0061019Y0122411D02*
X0061614Y0122411D01*
X0061798Y0123010D02*
X0060771Y0123010D01*
X0060523Y0123608D02*
X0062064Y0123608D01*
X0062432Y0124207D02*
X0060099Y0124207D01*
X0059500Y0124805D02*
X0062934Y0124805D01*
X0054387Y0125404D02*
X0048613Y0125404D01*
X0049500Y0124805D02*
X0053500Y0124805D01*
X0052901Y0124207D02*
X0050099Y0124207D01*
X0050523Y0123608D02*
X0052477Y0123608D01*
X0052229Y0123010D02*
X0050771Y0123010D01*
X0051019Y0122411D02*
X0051981Y0122411D01*
X0051900Y0121813D02*
X0051100Y0121813D01*
X0051100Y0121214D02*
X0051900Y0121214D01*
X0051900Y0120616D02*
X0051100Y0120616D01*
X0050948Y0120017D02*
X0052052Y0120017D01*
X0052300Y0119419D02*
X0050700Y0119419D01*
X0050452Y0118820D02*
X0052548Y0118820D01*
X0053073Y0118222D02*
X0049927Y0118222D01*
X0049328Y0117623D02*
X0053672Y0117623D01*
X0054801Y0117025D02*
X0048600Y0117025D01*
X0048600Y0115229D02*
X0197487Y0115229D01*
X0197487Y0114631D02*
X0048600Y0114631D01*
X0048600Y0114032D02*
X0197487Y0114032D01*
X0197487Y0113434D02*
X0048600Y0113434D01*
X0048600Y0112835D02*
X0197487Y0112835D01*
X0197487Y0112237D02*
X0048600Y0112237D01*
X0048600Y0111638D02*
X0197487Y0111638D01*
X0197487Y0111039D02*
X0048600Y0111039D01*
X0048600Y0110441D02*
X0197487Y0110441D01*
X0197487Y0109842D02*
X0048600Y0109842D01*
X0048600Y0109244D02*
X0197487Y0109244D01*
X0197487Y0108645D02*
X0048065Y0108645D01*
X0047467Y0108047D02*
X0197487Y0108047D01*
X0197487Y0107448D02*
X0046868Y0107448D01*
X0046270Y0106850D02*
X0197487Y0106850D01*
X0197487Y0106251D02*
X0045671Y0106251D01*
X0045073Y0105653D02*
X0054630Y0105653D01*
X0054677Y0105700D02*
X0052100Y0103123D01*
X0052100Y0099477D01*
X0054677Y0096900D01*
X0058323Y0096900D01*
X0060900Y0099477D01*
X0060900Y0103123D01*
X0058323Y0105700D01*
X0054677Y0105700D01*
X0054032Y0105054D02*
X0044474Y0105054D01*
X0043876Y0104456D02*
X0053433Y0104456D01*
X0052835Y0103857D02*
X0043277Y0103857D01*
X0042679Y0103259D02*
X0052236Y0103259D01*
X0052100Y0102660D02*
X0042080Y0102660D01*
X0041482Y0102062D02*
X0052100Y0102062D01*
X0052100Y0101463D02*
X0040883Y0101463D01*
X0040285Y0100865D02*
X0052100Y0100865D01*
X0052100Y0100266D02*
X0039686Y0100266D01*
X0039088Y0099668D02*
X0052100Y0099668D01*
X0052508Y0099069D02*
X0038489Y0099069D01*
X0037891Y0098471D02*
X0053107Y0098471D01*
X0053705Y0097872D02*
X0037350Y0097872D01*
X0037350Y0097274D02*
X0054304Y0097274D01*
X0058696Y0097274D02*
X0117927Y0097274D01*
X0117927Y0097872D02*
X0059295Y0097872D01*
X0059893Y0098471D02*
X0117927Y0098471D01*
X0117927Y0099069D02*
X0060492Y0099069D01*
X0060900Y0099668D02*
X0118249Y0099668D01*
X0118454Y0099873D02*
X0117927Y0099346D01*
X0117927Y0093254D01*
X0118454Y0092727D01*
X0124546Y0092727D01*
X0125073Y0093254D01*
X0125073Y0099346D01*
X0124546Y0099873D01*
X0118454Y0099873D01*
X0117927Y0096675D02*
X0037350Y0096675D01*
X0037350Y0096077D02*
X0117927Y0096077D01*
X0117927Y0095478D02*
X0037350Y0095478D01*
X0037350Y0094880D02*
X0117927Y0094880D01*
X0117927Y0094281D02*
X0037350Y0094281D01*
X0037350Y0093683D02*
X0117927Y0093683D01*
X0118097Y0093084D02*
X0037350Y0093084D01*
X0037350Y0092486D02*
X0197487Y0092486D01*
X0197487Y0093084D02*
X0194903Y0093084D01*
X0195073Y0093254D02*
X0194546Y0092727D01*
X0188454Y0092727D01*
X0187927Y0093254D01*
X0187927Y0099346D01*
X0188454Y0099873D01*
X0194546Y0099873D01*
X0195073Y0099346D01*
X0195073Y0093254D01*
X0195073Y0093683D02*
X0197487Y0093683D01*
X0197487Y0094281D02*
X0195073Y0094281D01*
X0195073Y0094880D02*
X0197487Y0094880D01*
X0197487Y0095478D02*
X0195073Y0095478D01*
X0195073Y0096077D02*
X0197487Y0096077D01*
X0197487Y0096675D02*
X0195073Y0096675D01*
X0195073Y0097274D02*
X0197487Y0097274D01*
X0197487Y0097872D02*
X0195073Y0097872D01*
X0195073Y0098471D02*
X0197487Y0098471D01*
X0197487Y0099069D02*
X0195073Y0099069D01*
X0194751Y0099668D02*
X0197487Y0099668D01*
X0197487Y0100266D02*
X0060900Y0100266D01*
X0060900Y0100865D02*
X0197487Y0100865D01*
X0197487Y0101463D02*
X0060900Y0101463D01*
X0060900Y0102062D02*
X0197487Y0102062D01*
X0197487Y0102660D02*
X0060900Y0102660D01*
X0060764Y0103259D02*
X0197487Y0103259D01*
X0197487Y0103857D02*
X0060165Y0103857D01*
X0059567Y0104456D02*
X0197487Y0104456D01*
X0197487Y0105054D02*
X0058968Y0105054D01*
X0058370Y0105653D02*
X0197487Y0105653D01*
X0188249Y0099668D02*
X0124751Y0099668D01*
X0125073Y0099069D02*
X0187927Y0099069D01*
X0187927Y0098471D02*
X0125073Y0098471D01*
X0125073Y0097872D02*
X0187927Y0097872D01*
X0187927Y0097274D02*
X0125073Y0097274D01*
X0125073Y0096675D02*
X0187927Y0096675D01*
X0187927Y0096077D02*
X0125073Y0096077D01*
X0125073Y0095478D02*
X0187927Y0095478D01*
X0187927Y0094880D02*
X0125073Y0094880D01*
X0125073Y0094281D02*
X0187927Y0094281D01*
X0187927Y0093683D02*
X0125073Y0093683D01*
X0124903Y0093084D02*
X0188097Y0093084D01*
X0188454Y0089873D02*
X0187927Y0089346D01*
X0187927Y0083254D01*
X0188454Y0082727D01*
X0194546Y0082727D01*
X0195073Y0083254D01*
X0195073Y0089346D01*
X0194546Y0089873D01*
X0188454Y0089873D01*
X0188074Y0089493D02*
X0173454Y0089493D01*
X0173362Y0089585D02*
X0170945Y0090980D01*
X0168250Y0091702D01*
X0165459Y0091702D01*
X0162763Y0090980D01*
X0160346Y0089585D01*
X0158373Y0087611D01*
X0156977Y0085194D01*
X0156255Y0082499D01*
X0156255Y0079708D01*
X0156977Y0077012D01*
X0158373Y0074595D01*
X0160346Y0072622D01*
X0162763Y0071226D01*
X0165459Y0070504D01*
X0168250Y0070504D01*
X0170945Y0071226D01*
X0173362Y0072622D01*
X0175336Y0074595D01*
X0176731Y0077012D01*
X0177454Y0079708D01*
X0177454Y0082499D01*
X0176731Y0085194D01*
X0175336Y0087611D01*
X0173362Y0089585D01*
X0174052Y0088895D02*
X0187927Y0088895D01*
X0187927Y0088296D02*
X0174651Y0088296D01*
X0175249Y0087698D02*
X0187927Y0087698D01*
X0187927Y0087099D02*
X0175632Y0087099D01*
X0175977Y0086501D02*
X0187927Y0086501D01*
X0187927Y0085902D02*
X0176323Y0085902D01*
X0176668Y0085303D02*
X0187927Y0085303D01*
X0187927Y0084705D02*
X0176862Y0084705D01*
X0177023Y0084106D02*
X0187927Y0084106D01*
X0187927Y0083508D02*
X0177183Y0083508D01*
X0177343Y0082909D02*
X0188271Y0082909D01*
X0188454Y0079873D02*
X0187927Y0079346D01*
X0187927Y0073254D01*
X0188454Y0072727D01*
X0194546Y0072727D01*
X0195073Y0073254D01*
X0195073Y0079346D01*
X0194546Y0079873D01*
X0188454Y0079873D01*
X0187927Y0079318D02*
X0177349Y0079318D01*
X0177454Y0079917D02*
X0197487Y0079917D01*
X0197487Y0080515D02*
X0177454Y0080515D01*
X0177454Y0081114D02*
X0197487Y0081114D01*
X0197487Y0081712D02*
X0177454Y0081712D01*
X0177454Y0082311D02*
X0197487Y0082311D01*
X0197487Y0082909D02*
X0194729Y0082909D01*
X0195073Y0083508D02*
X0197487Y0083508D01*
X0197487Y0084106D02*
X0195073Y0084106D01*
X0195073Y0084705D02*
X0197487Y0084705D01*
X0197487Y0085303D02*
X0195073Y0085303D01*
X0195073Y0085902D02*
X0197487Y0085902D01*
X0197487Y0086501D02*
X0195073Y0086501D01*
X0195073Y0087099D02*
X0197487Y0087099D01*
X0197487Y0087698D02*
X0195073Y0087698D01*
X0195073Y0088296D02*
X0197487Y0088296D01*
X0197487Y0088895D02*
X0195073Y0088895D01*
X0194926Y0089493D02*
X0197487Y0089493D01*
X0197487Y0090092D02*
X0172484Y0090092D01*
X0171448Y0090690D02*
X0197487Y0090690D01*
X0197487Y0091289D02*
X0169794Y0091289D01*
X0163915Y0091289D02*
X0037350Y0091289D01*
X0037350Y0091887D02*
X0197487Y0091887D01*
X0197487Y0079318D02*
X0195073Y0079318D01*
X0195073Y0078720D02*
X0197487Y0078720D01*
X0197487Y0078121D02*
X0195073Y0078121D01*
X0195073Y0077523D02*
X0197487Y0077523D01*
X0197487Y0076924D02*
X0195073Y0076924D01*
X0195073Y0076326D02*
X0197487Y0076326D01*
X0197487Y0075727D02*
X0195073Y0075727D01*
X0195073Y0075129D02*
X0197487Y0075129D01*
X0197487Y0074530D02*
X0195073Y0074530D01*
X0195073Y0073932D02*
X0197487Y0073932D01*
X0197487Y0073333D02*
X0195073Y0073333D01*
X0194554Y0072735D02*
X0197487Y0072735D01*
X0197487Y0072136D02*
X0172522Y0072136D01*
X0173475Y0072735D02*
X0188446Y0072735D01*
X0187927Y0073333D02*
X0174074Y0073333D01*
X0174673Y0073932D02*
X0187927Y0073932D01*
X0187927Y0074530D02*
X0175271Y0074530D01*
X0175644Y0075129D02*
X0187927Y0075129D01*
X0187927Y0075727D02*
X0175989Y0075727D01*
X0176335Y0076326D02*
X0187927Y0076326D01*
X0187927Y0076924D02*
X0176681Y0076924D01*
X0176868Y0077523D02*
X0187927Y0077523D01*
X0187927Y0078121D02*
X0177028Y0078121D01*
X0177189Y0078720D02*
X0187927Y0078720D01*
X0197487Y0071538D02*
X0171485Y0071538D01*
X0169874Y0070939D02*
X0197487Y0070939D01*
X0197487Y0070341D02*
X0106011Y0070341D01*
X0106609Y0070939D02*
X0163834Y0070939D01*
X0162224Y0071538D02*
X0107208Y0071538D01*
X0107806Y0072136D02*
X0161187Y0072136D01*
X0160233Y0072735D02*
X0124554Y0072735D01*
X0124546Y0072727D02*
X0125073Y0073254D01*
X0125073Y0079346D01*
X0124546Y0079873D01*
X0118454Y0079873D01*
X0117927Y0079346D01*
X0117927Y0078400D01*
X0108130Y0078400D01*
X0106900Y0077170D01*
X0100650Y0070920D01*
X0100650Y0064670D01*
X0083130Y0047150D01*
X0058130Y0047150D01*
X0056900Y0045920D01*
X0049400Y0038420D01*
X0049400Y0035409D01*
X0048894Y0035200D01*
X0047600Y0033906D01*
X0046900Y0032215D01*
X0046900Y0030385D01*
X0047600Y0028694D01*
X0048894Y0027400D01*
X0050585Y0026700D01*
X0052415Y0026700D01*
X0054106Y0027400D01*
X0055400Y0028694D01*
X0056100Y0030385D01*
X0056100Y0032215D01*
X0055400Y0033906D01*
X0054106Y0035200D01*
X0053600Y0035409D01*
X0053600Y0036680D01*
X0059870Y0042950D01*
X0084870Y0042950D01*
X0103620Y0061700D01*
X0104850Y0062930D01*
X0104850Y0069180D01*
X0109870Y0074200D01*
X0117927Y0074200D01*
X0117927Y0073254D01*
X0118454Y0072727D01*
X0124546Y0072727D01*
X0125073Y0073333D02*
X0159635Y0073333D01*
X0159036Y0073932D02*
X0125073Y0073932D01*
X0125073Y0074530D02*
X0158438Y0074530D01*
X0158065Y0075129D02*
X0125073Y0075129D01*
X0125073Y0075727D02*
X0157719Y0075727D01*
X0157374Y0076326D02*
X0125073Y0076326D01*
X0125073Y0076924D02*
X0157028Y0076924D01*
X0156841Y0077523D02*
X0125073Y0077523D01*
X0125073Y0078121D02*
X0156680Y0078121D01*
X0156520Y0078720D02*
X0125073Y0078720D01*
X0125073Y0079318D02*
X0156359Y0079318D01*
X0156255Y0079917D02*
X0037350Y0079917D01*
X0037350Y0080515D02*
X0156255Y0080515D01*
X0156255Y0081114D02*
X0037350Y0081114D01*
X0037350Y0081712D02*
X0156255Y0081712D01*
X0156255Y0082311D02*
X0037350Y0082311D01*
X0037350Y0082909D02*
X0118271Y0082909D01*
X0118454Y0082727D02*
X0124546Y0082727D01*
X0125073Y0083254D01*
X0125073Y0089346D01*
X0124546Y0089873D01*
X0118454Y0089873D01*
X0117927Y0089346D01*
X0117927Y0083254D01*
X0118454Y0082727D01*
X0117927Y0083508D02*
X0037350Y0083508D01*
X0037350Y0084106D02*
X0117927Y0084106D01*
X0117927Y0084705D02*
X0037350Y0084705D01*
X0037350Y0085303D02*
X0117927Y0085303D01*
X0117927Y0085902D02*
X0037350Y0085902D01*
X0037350Y0086501D02*
X0117927Y0086501D01*
X0117927Y0087099D02*
X0037350Y0087099D01*
X0037350Y0087698D02*
X0117927Y0087698D01*
X0117927Y0088296D02*
X0037350Y0088296D01*
X0037350Y0088895D02*
X0117927Y0088895D01*
X0118074Y0089493D02*
X0037350Y0089493D01*
X0037350Y0090092D02*
X0161224Y0090092D01*
X0160255Y0089493D02*
X0143257Y0089493D01*
X0142950Y0089800D02*
X0140050Y0089800D01*
X0138000Y0087750D01*
X0138000Y0084850D01*
X0140050Y0082800D01*
X0142950Y0082800D01*
X0145000Y0084850D01*
X0145000Y0087750D01*
X0142950Y0089800D01*
X0143855Y0088895D02*
X0159656Y0088895D01*
X0159058Y0088296D02*
X0144454Y0088296D01*
X0145000Y0087698D02*
X0158459Y0087698D01*
X0158077Y0087099D02*
X0145000Y0087099D01*
X0145000Y0086501D02*
X0157732Y0086501D01*
X0157386Y0085902D02*
X0145000Y0085902D01*
X0145000Y0085303D02*
X0157040Y0085303D01*
X0156846Y0084705D02*
X0144855Y0084705D01*
X0144256Y0084106D02*
X0156686Y0084106D01*
X0156526Y0083508D02*
X0143658Y0083508D01*
X0143059Y0082909D02*
X0156365Y0082909D01*
X0162261Y0090690D02*
X0037350Y0090690D01*
X0033150Y0090690D02*
X0024991Y0090690D01*
X0024489Y0090980D02*
X0021793Y0091702D01*
X0019002Y0091702D01*
X0016306Y0090980D01*
X0013890Y0089585D01*
X0011916Y0087611D01*
X0010521Y0085194D01*
X0009798Y0082499D01*
X0009798Y0079708D01*
X0010521Y0077012D01*
X0011916Y0074595D01*
X0013890Y0072622D01*
X0016306Y0071226D01*
X0019002Y0070504D01*
X0021793Y0070504D01*
X0024489Y0071226D01*
X0026906Y0072622D01*
X0028879Y0074595D01*
X0030275Y0077012D01*
X0030997Y0079708D01*
X0030997Y0082499D01*
X0030275Y0085194D01*
X0028879Y0087611D01*
X0026906Y0089585D01*
X0024489Y0090980D01*
X0023337Y0091289D02*
X0033150Y0091289D01*
X0033150Y0091887D02*
X0006300Y0091887D01*
X0006300Y0091289D02*
X0017458Y0091289D01*
X0015804Y0090690D02*
X0006300Y0090690D01*
X0006300Y0090092D02*
X0014768Y0090092D01*
X0013798Y0089493D02*
X0006300Y0089493D01*
X0006300Y0088895D02*
X0013200Y0088895D01*
X0012601Y0088296D02*
X0006300Y0088296D01*
X0006300Y0087698D02*
X0012002Y0087698D01*
X0011620Y0087099D02*
X0006300Y0087099D01*
X0006300Y0086501D02*
X0011275Y0086501D01*
X0010929Y0085902D02*
X0006300Y0085902D01*
X0006300Y0085303D02*
X0010584Y0085303D01*
X0010390Y0084705D02*
X0006300Y0084705D01*
X0006300Y0084106D02*
X0010229Y0084106D01*
X0010069Y0083508D02*
X0006300Y0083508D01*
X0006300Y0082909D02*
X0009909Y0082909D01*
X0009798Y0082311D02*
X0006300Y0082311D01*
X0006300Y0081712D02*
X0009798Y0081712D01*
X0009798Y0081114D02*
X0006300Y0081114D01*
X0006300Y0080515D02*
X0009798Y0080515D01*
X0009798Y0079917D02*
X0006300Y0079917D01*
X0006300Y0079318D02*
X0009903Y0079318D01*
X0010063Y0078720D02*
X0006300Y0078720D01*
X0006300Y0078121D02*
X0010223Y0078121D01*
X0010384Y0077523D02*
X0006300Y0077523D01*
X0006300Y0076924D02*
X0010571Y0076924D01*
X0010917Y0076326D02*
X0006300Y0076326D01*
X0006300Y0075727D02*
X0011262Y0075727D01*
X0011608Y0075129D02*
X0006300Y0075129D01*
X0006300Y0074530D02*
X0011981Y0074530D01*
X0012579Y0073932D02*
X0006300Y0073932D01*
X0006300Y0073333D02*
X0013178Y0073333D01*
X0013776Y0072735D02*
X0006300Y0072735D01*
X0006300Y0072136D02*
X0014730Y0072136D01*
X0015767Y0071538D02*
X0006300Y0071538D01*
X0006300Y0070939D02*
X0017378Y0070939D01*
X0023418Y0070939D02*
X0033150Y0070939D01*
X0033150Y0070341D02*
X0006300Y0070341D01*
X0006300Y0069742D02*
X0033150Y0069742D01*
X0033150Y0069144D02*
X0006300Y0069144D01*
X0006300Y0068545D02*
X0033150Y0068545D01*
X0033150Y0067947D02*
X0006300Y0067947D01*
X0006300Y0067348D02*
X0033150Y0067348D01*
X0033150Y0066750D02*
X0006300Y0066750D01*
X0006300Y0066151D02*
X0033150Y0066151D01*
X0033150Y0065553D02*
X0006300Y0065553D01*
X0006300Y0064954D02*
X0033150Y0064954D01*
X0033150Y0064356D02*
X0006300Y0064356D01*
X0006300Y0063757D02*
X0033150Y0063757D01*
X0033150Y0063159D02*
X0006300Y0063159D01*
X0006300Y0062560D02*
X0033150Y0062560D01*
X0033150Y0061962D02*
X0006300Y0061962D01*
X0006300Y0061363D02*
X0033150Y0061363D01*
X0033150Y0060765D02*
X0006300Y0060765D01*
X0006300Y0060166D02*
X0033150Y0060166D01*
X0033150Y0059568D02*
X0006300Y0059568D01*
X0006300Y0058969D02*
X0033150Y0058969D01*
X0033150Y0058370D02*
X0006300Y0058370D01*
X0006300Y0057772D02*
X0033150Y0057772D01*
X0033150Y0057173D02*
X0006300Y0057173D01*
X0006300Y0056575D02*
X0033150Y0056575D01*
X0033150Y0055976D02*
X0006300Y0055976D01*
X0006300Y0055378D02*
X0009325Y0055378D01*
X0008894Y0055200D02*
X0007600Y0053906D01*
X0006900Y0052215D01*
X0006900Y0050385D01*
X0007600Y0048694D01*
X0008894Y0047400D01*
X0010585Y0046700D01*
X0012415Y0046700D01*
X0014106Y0047400D01*
X0015400Y0048694D01*
X0016100Y0050385D01*
X0016100Y0052215D01*
X0015400Y0053906D01*
X0014106Y0055200D01*
X0012415Y0055900D01*
X0010585Y0055900D01*
X0008894Y0055200D01*
X0008474Y0054779D02*
X0006300Y0054779D01*
X0006300Y0054181D02*
X0007876Y0054181D01*
X0007466Y0053582D02*
X0006300Y0053582D01*
X0006300Y0052984D02*
X0007218Y0052984D01*
X0006971Y0052385D02*
X0006300Y0052385D01*
X0006300Y0051787D02*
X0006900Y0051787D01*
X0006900Y0051188D02*
X0006300Y0051188D01*
X0006300Y0050590D02*
X0006900Y0050590D01*
X0007063Y0049991D02*
X0006300Y0049991D01*
X0006300Y0049393D02*
X0007311Y0049393D01*
X0007559Y0048794D02*
X0006300Y0048794D01*
X0006300Y0048196D02*
X0008099Y0048196D01*
X0008697Y0047597D02*
X0006300Y0047597D01*
X0006300Y0046999D02*
X0009864Y0046999D01*
X0010329Y0046177D02*
X0009581Y0045934D01*
X0008879Y0045576D01*
X0008243Y0045114D01*
X0007686Y0044557D01*
X0007224Y0043921D01*
X0006866Y0043219D01*
X0006623Y0042471D01*
X0006500Y0041694D01*
X0006500Y0041600D01*
X0011200Y0041600D01*
X0011200Y0046300D01*
X0011106Y0046300D01*
X0010329Y0046177D01*
X0011200Y0045802D02*
X0011800Y0045802D01*
X0011800Y0046300D02*
X0011800Y0041600D01*
X0011200Y0041600D01*
X0011200Y0041000D01*
X0006500Y0041000D01*
X0006500Y0040906D01*
X0006623Y0040129D01*
X0006866Y0039381D01*
X0007224Y0038679D01*
X0007686Y0038043D01*
X0008243Y0037486D01*
X0008879Y0037024D01*
X0009581Y0036666D01*
X0010329Y0036423D01*
X0011106Y0036300D01*
X0011200Y0036300D01*
X0011200Y0041000D01*
X0011800Y0041000D01*
X0011800Y0041600D01*
X0016500Y0041600D01*
X0016500Y0041694D01*
X0016377Y0042471D01*
X0016134Y0043219D01*
X0015776Y0043921D01*
X0015314Y0044557D01*
X0014757Y0045114D01*
X0014121Y0045576D01*
X0013419Y0045934D01*
X0012671Y0046177D01*
X0011894Y0046300D01*
X0011800Y0046300D01*
X0011800Y0045203D02*
X0011200Y0045203D01*
X0011200Y0044605D02*
X0011800Y0044605D01*
X0011800Y0044006D02*
X0011200Y0044006D01*
X0011200Y0043408D02*
X0011800Y0043408D01*
X0011800Y0042809D02*
X0011200Y0042809D01*
X0011200Y0042211D02*
X0011800Y0042211D01*
X0011800Y0041612D02*
X0011200Y0041612D01*
X0011200Y0041014D02*
X0006300Y0041014D01*
X0006300Y0041612D02*
X0006500Y0041612D01*
X0006582Y0042211D02*
X0006300Y0042211D01*
X0006300Y0042809D02*
X0006733Y0042809D01*
X0006962Y0043408D02*
X0006300Y0043408D01*
X0006300Y0044006D02*
X0007286Y0044006D01*
X0007734Y0044605D02*
X0006300Y0044605D01*
X0006300Y0045203D02*
X0008366Y0045203D01*
X0009322Y0045802D02*
X0006300Y0045802D01*
X0006300Y0046400D02*
X0033150Y0046400D01*
X0033150Y0045802D02*
X0013678Y0045802D01*
X0014634Y0045203D02*
X0033150Y0045203D01*
X0033150Y0044605D02*
X0015266Y0044605D01*
X0015714Y0044006D02*
X0033150Y0044006D01*
X0033150Y0043408D02*
X0016038Y0043408D01*
X0016267Y0042809D02*
X0033150Y0042809D01*
X0033150Y0042211D02*
X0016418Y0042211D01*
X0016500Y0041612D02*
X0033150Y0041612D01*
X0033150Y0041014D02*
X0011800Y0041014D01*
X0011800Y0041000D02*
X0016500Y0041000D01*
X0016500Y0040906D01*
X0016377Y0040129D01*
X0016134Y0039381D01*
X0015776Y0038679D01*
X0015314Y0038043D01*
X0014757Y0037486D01*
X0014121Y0037024D01*
X0013419Y0036666D01*
X0012671Y0036423D01*
X0011894Y0036300D01*
X0011800Y0036300D01*
X0011800Y0041000D01*
X0011800Y0040415D02*
X0011200Y0040415D01*
X0011200Y0039817D02*
X0011800Y0039817D01*
X0011800Y0039218D02*
X0011200Y0039218D01*
X0011200Y0038620D02*
X0011800Y0038620D01*
X0011800Y0038021D02*
X0011200Y0038021D01*
X0011200Y0037423D02*
X0011800Y0037423D01*
X0011800Y0036824D02*
X0011200Y0036824D01*
X0009271Y0036824D02*
X0006300Y0036824D01*
X0006300Y0036226D02*
X0033150Y0036226D01*
X0033150Y0036824D02*
X0013729Y0036824D01*
X0014670Y0037423D02*
X0033150Y0037423D01*
X0033150Y0038021D02*
X0015292Y0038021D01*
X0015733Y0038620D02*
X0033150Y0038620D01*
X0033150Y0039218D02*
X0016051Y0039218D01*
X0016275Y0039817D02*
X0033150Y0039817D01*
X0033150Y0040415D02*
X0016422Y0040415D01*
X0013136Y0046999D02*
X0033150Y0046999D01*
X0033150Y0047597D02*
X0014303Y0047597D01*
X0014901Y0048196D02*
X0024654Y0048196D01*
X0025050Y0047800D02*
X0027950Y0047800D01*
X0030000Y0049850D01*
X0030000Y0052750D01*
X0027950Y0054800D01*
X0025050Y0054800D01*
X0023000Y0052750D01*
X0023000Y0049850D01*
X0025050Y0047800D01*
X0024056Y0048794D02*
X0015441Y0048794D01*
X0015689Y0049393D02*
X0023457Y0049393D01*
X0023000Y0049991D02*
X0015937Y0049991D01*
X0016100Y0050590D02*
X0023000Y0050590D01*
X0023000Y0051188D02*
X0016100Y0051188D01*
X0016100Y0051787D02*
X0023000Y0051787D01*
X0023000Y0052385D02*
X0016029Y0052385D01*
X0015782Y0052984D02*
X0023234Y0052984D01*
X0023833Y0053582D02*
X0015534Y0053582D01*
X0015124Y0054181D02*
X0024431Y0054181D01*
X0025030Y0054779D02*
X0014526Y0054779D01*
X0013675Y0055378D02*
X0033150Y0055378D01*
X0033150Y0054779D02*
X0027970Y0054779D01*
X0028569Y0054181D02*
X0033150Y0054181D01*
X0033150Y0053582D02*
X0029167Y0053582D01*
X0029766Y0052984D02*
X0033150Y0052984D01*
X0033150Y0052385D02*
X0030000Y0052385D01*
X0030000Y0051787D02*
X0033150Y0051787D01*
X0033150Y0051188D02*
X0030000Y0051188D01*
X0030000Y0050590D02*
X0033150Y0050590D01*
X0033150Y0049991D02*
X0030000Y0049991D01*
X0029543Y0049393D02*
X0033150Y0049393D01*
X0033150Y0048794D02*
X0028944Y0048794D01*
X0028346Y0048196D02*
X0033150Y0048196D01*
X0037350Y0048196D02*
X0064654Y0048196D01*
X0065050Y0047800D02*
X0067950Y0047800D01*
X0070000Y0049850D01*
X0070000Y0052750D01*
X0067950Y0054800D01*
X0065050Y0054800D01*
X0063000Y0052750D01*
X0063000Y0049850D01*
X0065050Y0047800D01*
X0064056Y0048794D02*
X0037350Y0048794D01*
X0037350Y0049393D02*
X0063457Y0049393D01*
X0063000Y0049991D02*
X0037350Y0049991D01*
X0037350Y0050590D02*
X0063000Y0050590D01*
X0063000Y0051188D02*
X0037350Y0051188D01*
X0037350Y0051787D02*
X0063000Y0051787D01*
X0063000Y0052385D02*
X0037350Y0052385D01*
X0037350Y0052984D02*
X0063234Y0052984D01*
X0063833Y0053582D02*
X0037350Y0053582D01*
X0037350Y0054181D02*
X0064431Y0054181D01*
X0065030Y0054779D02*
X0037350Y0054779D01*
X0037350Y0055378D02*
X0091358Y0055378D01*
X0090760Y0054779D02*
X0067970Y0054779D01*
X0068569Y0054181D02*
X0090161Y0054181D01*
X0089563Y0053582D02*
X0069167Y0053582D01*
X0069766Y0052984D02*
X0088964Y0052984D01*
X0088366Y0052385D02*
X0070000Y0052385D01*
X0070000Y0051787D02*
X0087767Y0051787D01*
X0087169Y0051188D02*
X0070000Y0051188D01*
X0070000Y0050590D02*
X0086570Y0050590D01*
X0085971Y0049991D02*
X0070000Y0049991D01*
X0069543Y0049393D02*
X0085373Y0049393D01*
X0084774Y0048794D02*
X0068944Y0048794D01*
X0068346Y0048196D02*
X0084176Y0048196D01*
X0083577Y0047597D02*
X0037350Y0047597D01*
X0037350Y0046999D02*
X0057979Y0046999D01*
X0057380Y0046400D02*
X0037350Y0046400D01*
X0037350Y0045802D02*
X0056782Y0045802D01*
X0056183Y0045203D02*
X0037350Y0045203D01*
X0037350Y0044605D02*
X0055585Y0044605D01*
X0054986Y0044006D02*
X0037350Y0044006D01*
X0037350Y0043408D02*
X0054388Y0043408D01*
X0053789Y0042809D02*
X0037350Y0042809D01*
X0037350Y0042211D02*
X0053191Y0042211D01*
X0052592Y0041612D02*
X0037350Y0041612D01*
X0037350Y0041014D02*
X0051994Y0041014D01*
X0051395Y0040415D02*
X0037350Y0040415D01*
X0037350Y0039817D02*
X0050797Y0039817D01*
X0050198Y0039218D02*
X0037350Y0039218D01*
X0037350Y0038620D02*
X0049600Y0038620D01*
X0049400Y0038021D02*
X0037350Y0038021D01*
X0037350Y0037423D02*
X0049400Y0037423D01*
X0049400Y0036824D02*
X0037350Y0036824D01*
X0037350Y0036226D02*
X0049400Y0036226D01*
X0049400Y0035627D02*
X0037350Y0035627D01*
X0037350Y0035029D02*
X0048723Y0035029D01*
X0048125Y0034430D02*
X0037350Y0034430D01*
X0037350Y0033832D02*
X0047570Y0033832D01*
X0047322Y0033233D02*
X0037350Y0033233D01*
X0037350Y0032634D02*
X0047074Y0032634D01*
X0046900Y0032036D02*
X0037350Y0032036D01*
X0037350Y0031437D02*
X0046900Y0031437D01*
X0046900Y0030839D02*
X0037350Y0030839D01*
X0037350Y0030240D02*
X0046960Y0030240D01*
X0047208Y0029642D02*
X0037350Y0029642D01*
X0037350Y0029043D02*
X0047456Y0029043D01*
X0047850Y0028445D02*
X0037350Y0028445D01*
X0037350Y0027846D02*
X0048448Y0027846D01*
X0049262Y0027248D02*
X0037350Y0027248D01*
X0037350Y0026649D02*
X0069633Y0026649D01*
X0069581Y0026666D02*
X0070329Y0026423D01*
X0071106Y0026300D01*
X0071200Y0026300D01*
X0071200Y0031000D01*
X0071800Y0031000D01*
X0071800Y0031600D01*
X0076500Y0031600D01*
X0076500Y0031694D01*
X0076377Y0032471D01*
X0076134Y0033219D01*
X0075776Y0033921D01*
X0075314Y0034557D01*
X0074757Y0035114D01*
X0074121Y0035576D01*
X0073419Y0035934D01*
X0072671Y0036177D01*
X0071894Y0036300D01*
X0071800Y0036300D01*
X0071800Y0031600D01*
X0071200Y0031600D01*
X0071200Y0036300D01*
X0071106Y0036300D01*
X0070329Y0036177D01*
X0069581Y0035934D01*
X0068879Y0035576D01*
X0068243Y0035114D01*
X0067686Y0034557D01*
X0067224Y0033921D01*
X0066866Y0033219D01*
X0066623Y0032471D01*
X0066500Y0031694D01*
X0066500Y0031600D01*
X0071200Y0031600D01*
X0071200Y0031000D01*
X0066500Y0031000D01*
X0066500Y0030906D01*
X0066623Y0030129D01*
X0066866Y0029381D01*
X0067224Y0028679D01*
X0067686Y0028043D01*
X0068243Y0027486D01*
X0068879Y0027024D01*
X0069581Y0026666D01*
X0069941Y0026051D02*
X0037350Y0026051D01*
X0037350Y0025452D02*
X0049504Y0025452D01*
X0048894Y0025200D02*
X0047600Y0023906D01*
X0046900Y0022215D01*
X0046900Y0020385D01*
X0047600Y0018694D01*
X0048894Y0017400D01*
X0050585Y0016700D01*
X0052415Y0016700D01*
X0054106Y0017400D01*
X0055400Y0018694D01*
X0056100Y0020385D01*
X0056100Y0022215D01*
X0055400Y0023906D01*
X0054106Y0025200D01*
X0052415Y0025900D01*
X0050585Y0025900D01*
X0048894Y0025200D01*
X0048548Y0024854D02*
X0037350Y0024854D01*
X0037350Y0024255D02*
X0047950Y0024255D01*
X0047497Y0023657D02*
X0037350Y0023657D01*
X0037350Y0023058D02*
X0047249Y0023058D01*
X0047001Y0022460D02*
X0037350Y0022460D01*
X0037350Y0021861D02*
X0046900Y0021861D01*
X0046900Y0021263D02*
X0037350Y0021263D01*
X0037606Y0020664D02*
X0046900Y0020664D01*
X0047032Y0020066D02*
X0038204Y0020066D01*
X0038803Y0019467D02*
X0047280Y0019467D01*
X0047528Y0018869D02*
X0039401Y0018869D01*
X0040000Y0018270D02*
X0048024Y0018270D01*
X0048623Y0017672D02*
X0040598Y0017672D01*
X0041197Y0017073D02*
X0049684Y0017073D01*
X0053316Y0017073D02*
X0059684Y0017073D01*
X0058894Y0017400D02*
X0060585Y0016700D01*
X0062415Y0016700D01*
X0064106Y0017400D01*
X0065400Y0018694D01*
X0066100Y0020385D01*
X0066100Y0022215D01*
X0065400Y0023906D01*
X0064106Y0025200D01*
X0062415Y0025900D01*
X0060585Y0025900D01*
X0058894Y0025200D01*
X0057600Y0023906D01*
X0056900Y0022215D01*
X0056900Y0020385D01*
X0057600Y0018694D01*
X0058894Y0017400D01*
X0058623Y0017672D02*
X0054377Y0017672D01*
X0054976Y0018270D02*
X0058024Y0018270D01*
X0057528Y0018869D02*
X0055472Y0018869D01*
X0055720Y0019467D02*
X0057280Y0019467D01*
X0057032Y0020066D02*
X0055968Y0020066D01*
X0056100Y0020664D02*
X0056900Y0020664D01*
X0056900Y0021263D02*
X0056100Y0021263D01*
X0056100Y0021861D02*
X0056900Y0021861D01*
X0057001Y0022460D02*
X0055999Y0022460D01*
X0055751Y0023058D02*
X0057249Y0023058D01*
X0057497Y0023657D02*
X0055503Y0023657D01*
X0055050Y0024255D02*
X0057950Y0024255D01*
X0058548Y0024854D02*
X0054452Y0024854D01*
X0053496Y0025452D02*
X0059504Y0025452D01*
X0060585Y0026700D02*
X0058894Y0027400D01*
X0057600Y0028694D01*
X0056900Y0030385D01*
X0056900Y0032215D01*
X0057600Y0033906D01*
X0058894Y0035200D01*
X0060585Y0035900D01*
X0062415Y0035900D01*
X0064106Y0035200D01*
X0065400Y0033906D01*
X0066100Y0032215D01*
X0066100Y0030385D01*
X0065400Y0028694D01*
X0064106Y0027400D01*
X0062415Y0026700D01*
X0060585Y0026700D01*
X0059262Y0027248D02*
X0053738Y0027248D01*
X0054552Y0027846D02*
X0058448Y0027846D01*
X0057850Y0028445D02*
X0055150Y0028445D01*
X0055544Y0029043D02*
X0057456Y0029043D01*
X0057208Y0029642D02*
X0055792Y0029642D01*
X0056040Y0030240D02*
X0056960Y0030240D01*
X0056900Y0030839D02*
X0056100Y0030839D01*
X0056100Y0031437D02*
X0056900Y0031437D01*
X0056900Y0032036D02*
X0056100Y0032036D01*
X0055926Y0032634D02*
X0057074Y0032634D01*
X0057322Y0033233D02*
X0055678Y0033233D01*
X0055430Y0033832D02*
X0057570Y0033832D01*
X0058125Y0034430D02*
X0054875Y0034430D01*
X0054277Y0035029D02*
X0058723Y0035029D01*
X0059926Y0035627D02*
X0053600Y0035627D01*
X0053600Y0036226D02*
X0070637Y0036226D01*
X0071200Y0036226D02*
X0071800Y0036226D01*
X0072363Y0036226D02*
X0121200Y0036226D01*
X0121200Y0036000D02*
X0121200Y0036600D01*
X0121200Y0040273D01*
X0118656Y0040273D01*
X0118325Y0040185D01*
X0118029Y0040013D01*
X0117787Y0039771D01*
X0117615Y0039475D01*
X0117527Y0039144D01*
X0117527Y0036600D01*
X0121200Y0036600D01*
X0121800Y0036600D01*
X0125473Y0036600D01*
X0125473Y0039144D01*
X0125385Y0039475D01*
X0125213Y0039771D01*
X0124971Y0040013D01*
X0124675Y0040185D01*
X0124344Y0040273D01*
X0121800Y0040273D01*
X0121800Y0036600D01*
X0121800Y0036000D01*
X0125473Y0036000D01*
X0125473Y0033456D01*
X0125385Y0033125D01*
X0125213Y0032829D01*
X0124971Y0032587D01*
X0124675Y0032415D01*
X0124344Y0032327D01*
X0121800Y0032327D01*
X0121800Y0036000D01*
X0121200Y0036000D01*
X0121200Y0032327D01*
X0118656Y0032327D01*
X0118325Y0032415D01*
X0118029Y0032587D01*
X0117787Y0032829D01*
X0117615Y0033125D01*
X0117527Y0033456D01*
X0117527Y0036000D01*
X0121200Y0036000D01*
X0121200Y0035627D02*
X0121800Y0035627D01*
X0121800Y0035029D02*
X0121200Y0035029D01*
X0121200Y0034430D02*
X0121800Y0034430D01*
X0121800Y0033832D02*
X0121200Y0033832D01*
X0121200Y0033233D02*
X0121800Y0033233D01*
X0121800Y0032634D02*
X0121200Y0032634D01*
X0118454Y0029873D02*
X0117927Y0029346D01*
X0117927Y0023254D01*
X0118454Y0022727D01*
X0124546Y0022727D01*
X0125073Y0023254D01*
X0125073Y0029346D01*
X0124546Y0029873D01*
X0118454Y0029873D01*
X0118223Y0029642D02*
X0095792Y0029642D01*
X0095544Y0029043D02*
X0117927Y0029043D01*
X0117927Y0028445D02*
X0095150Y0028445D01*
X0095400Y0028694D02*
X0096100Y0030385D01*
X0096100Y0032215D01*
X0095400Y0033906D01*
X0094106Y0035200D01*
X0092415Y0035900D01*
X0090585Y0035900D01*
X0088894Y0035200D01*
X0087600Y0033906D01*
X0086900Y0032215D01*
X0086900Y0030385D01*
X0087600Y0028694D01*
X0088894Y0027400D01*
X0090585Y0026700D01*
X0092415Y0026700D01*
X0094106Y0027400D01*
X0095400Y0028694D01*
X0094552Y0027846D02*
X0117927Y0027846D01*
X0117927Y0027248D02*
X0093738Y0027248D01*
X0093496Y0025452D02*
X0117927Y0025452D01*
X0117927Y0024854D02*
X0094452Y0024854D01*
X0094106Y0025200D02*
X0092415Y0025900D01*
X0090585Y0025900D01*
X0088894Y0025200D01*
X0087600Y0023906D01*
X0086900Y0022215D01*
X0086900Y0020385D01*
X0087600Y0018694D01*
X0088894Y0017400D01*
X0090585Y0016700D01*
X0092415Y0016700D01*
X0094106Y0017400D01*
X0095400Y0018694D01*
X0096100Y0020385D01*
X0096100Y0022215D01*
X0095400Y0023906D01*
X0094106Y0025200D01*
X0095050Y0024255D02*
X0117927Y0024255D01*
X0117927Y0023657D02*
X0095503Y0023657D01*
X0095751Y0023058D02*
X0118122Y0023058D01*
X0117927Y0026051D02*
X0073059Y0026051D01*
X0073419Y0025934D02*
X0072671Y0026177D01*
X0071894Y0026300D01*
X0072671Y0026423D01*
X0073419Y0026666D01*
X0074121Y0027024D01*
X0074757Y0027486D01*
X0075314Y0028043D01*
X0075776Y0028679D01*
X0076134Y0029381D01*
X0076377Y0030129D01*
X0076500Y0030906D01*
X0076500Y0031000D01*
X0071800Y0031000D01*
X0071800Y0026300D01*
X0071894Y0026300D01*
X0071800Y0026300D01*
X0071800Y0021600D01*
X0076500Y0021600D01*
X0076500Y0021694D01*
X0076377Y0022471D01*
X0076134Y0023219D01*
X0075776Y0023921D01*
X0075314Y0024557D01*
X0074757Y0025114D01*
X0074121Y0025576D01*
X0073419Y0025934D01*
X0073367Y0026649D02*
X0117927Y0026649D01*
X0117981Y0032634D02*
X0095926Y0032634D01*
X0096100Y0032036D02*
X0197487Y0032036D01*
X0197487Y0032634D02*
X0195019Y0032634D01*
X0194971Y0032587D02*
X0195213Y0032829D01*
X0195385Y0033125D01*
X0195473Y0033456D01*
X0195473Y0036000D01*
X0191800Y0036000D01*
X0191800Y0036600D01*
X0195473Y0036600D01*
X0195473Y0039144D01*
X0195385Y0039475D01*
X0195213Y0039771D01*
X0194971Y0040013D01*
X0194675Y0040185D01*
X0194344Y0040273D01*
X0191800Y0040273D01*
X0191800Y0036600D01*
X0191200Y0036600D01*
X0191200Y0040273D01*
X0188656Y0040273D01*
X0188325Y0040185D01*
X0188029Y0040013D01*
X0187787Y0039771D01*
X0187615Y0039475D01*
X0187527Y0039144D01*
X0187527Y0036600D01*
X0191200Y0036600D01*
X0191200Y0036000D01*
X0191800Y0036000D01*
X0191800Y0032327D01*
X0194344Y0032327D01*
X0194675Y0032415D01*
X0194971Y0032587D01*
X0195414Y0033233D02*
X0197487Y0033233D01*
X0197487Y0033832D02*
X0195473Y0033832D01*
X0195473Y0034430D02*
X0197487Y0034430D01*
X0197487Y0035029D02*
X0195473Y0035029D01*
X0195473Y0035627D02*
X0197487Y0035627D01*
X0197487Y0036226D02*
X0191800Y0036226D01*
X0191800Y0036824D02*
X0191200Y0036824D01*
X0191200Y0036226D02*
X0121800Y0036226D01*
X0121800Y0036824D02*
X0121200Y0036824D01*
X0121200Y0037423D02*
X0121800Y0037423D01*
X0121800Y0038021D02*
X0121200Y0038021D01*
X0121200Y0038620D02*
X0121800Y0038620D01*
X0121800Y0039218D02*
X0121200Y0039218D01*
X0121200Y0039817D02*
X0121800Y0039817D01*
X0124546Y0042727D02*
X0118454Y0042727D01*
X0117927Y0043254D01*
X0117927Y0049346D01*
X0118454Y0049873D01*
X0124546Y0049873D01*
X0125073Y0049346D01*
X0125073Y0043254D01*
X0124546Y0042727D01*
X0124628Y0042809D02*
X0140041Y0042809D01*
X0140050Y0042800D02*
X0142950Y0042800D01*
X0145000Y0044850D01*
X0145000Y0047750D01*
X0142950Y0049800D01*
X0140050Y0049800D01*
X0138000Y0047750D01*
X0138000Y0044850D01*
X0140050Y0042800D01*
X0139443Y0043408D02*
X0125073Y0043408D01*
X0125073Y0044006D02*
X0138844Y0044006D01*
X0138246Y0044605D02*
X0125073Y0044605D01*
X0125073Y0045203D02*
X0138000Y0045203D01*
X0138000Y0045802D02*
X0125073Y0045802D01*
X0125073Y0046400D02*
X0138000Y0046400D01*
X0138000Y0046999D02*
X0125073Y0046999D01*
X0125073Y0047597D02*
X0138000Y0047597D01*
X0138446Y0048196D02*
X0125073Y0048196D01*
X0125073Y0048794D02*
X0139045Y0048794D01*
X0139643Y0049393D02*
X0125026Y0049393D01*
X0124546Y0052727D02*
X0125073Y0053254D01*
X0125073Y0059346D01*
X0124546Y0059873D01*
X0118454Y0059873D01*
X0117927Y0059346D01*
X0117927Y0053254D01*
X0118454Y0052727D01*
X0124546Y0052727D01*
X0124803Y0052984D02*
X0188197Y0052984D01*
X0188454Y0052727D02*
X0194546Y0052727D01*
X0195073Y0053254D01*
X0195073Y0059346D01*
X0194546Y0059873D01*
X0188454Y0059873D01*
X0187927Y0059346D01*
X0187927Y0053254D01*
X0188454Y0052727D01*
X0187927Y0053582D02*
X0125073Y0053582D01*
X0125073Y0054181D02*
X0187927Y0054181D01*
X0187927Y0054779D02*
X0125073Y0054779D01*
X0125073Y0055378D02*
X0187927Y0055378D01*
X0187927Y0055976D02*
X0125073Y0055976D01*
X0125073Y0056575D02*
X0187927Y0056575D01*
X0187927Y0057173D02*
X0125073Y0057173D01*
X0125073Y0057772D02*
X0187927Y0057772D01*
X0187927Y0058370D02*
X0125073Y0058370D01*
X0125073Y0058969D02*
X0187927Y0058969D01*
X0188148Y0059568D02*
X0124852Y0059568D01*
X0124546Y0062727D02*
X0125073Y0063254D01*
X0125073Y0069346D01*
X0124546Y0069873D01*
X0118454Y0069873D01*
X0117927Y0069346D01*
X0117927Y0063254D01*
X0118454Y0062727D01*
X0124546Y0062727D01*
X0124978Y0063159D02*
X0188022Y0063159D01*
X0187927Y0063254D02*
X0188454Y0062727D01*
X0194546Y0062727D01*
X0195073Y0063254D01*
X0195073Y0069346D01*
X0194546Y0069873D01*
X0188454Y0069873D01*
X0187927Y0069346D01*
X0187927Y0063254D01*
X0187927Y0063757D02*
X0125073Y0063757D01*
X0125073Y0064356D02*
X0187927Y0064356D01*
X0187927Y0064954D02*
X0125073Y0064954D01*
X0125073Y0065553D02*
X0187927Y0065553D01*
X0187927Y0066151D02*
X0125073Y0066151D01*
X0125073Y0066750D02*
X0187927Y0066750D01*
X0187927Y0067348D02*
X0125073Y0067348D01*
X0125073Y0067947D02*
X0187927Y0067947D01*
X0187927Y0068545D02*
X0125073Y0068545D01*
X0125073Y0069144D02*
X0187927Y0069144D01*
X0188323Y0069742D02*
X0124677Y0069742D01*
X0118323Y0069742D02*
X0105412Y0069742D01*
X0104850Y0069144D02*
X0117927Y0069144D01*
X0117927Y0068545D02*
X0104850Y0068545D01*
X0104850Y0067947D02*
X0117927Y0067947D01*
X0117927Y0067348D02*
X0104850Y0067348D01*
X0104850Y0066750D02*
X0117927Y0066750D01*
X0117927Y0066151D02*
X0104850Y0066151D01*
X0104850Y0065553D02*
X0117927Y0065553D01*
X0117927Y0064954D02*
X0104850Y0064954D01*
X0104850Y0064356D02*
X0117927Y0064356D01*
X0117927Y0063757D02*
X0104850Y0063757D01*
X0104850Y0063159D02*
X0118022Y0063159D01*
X0118148Y0059568D02*
X0101487Y0059568D01*
X0102086Y0060166D02*
X0197487Y0060166D01*
X0197487Y0059568D02*
X0194852Y0059568D01*
X0195073Y0058969D02*
X0197487Y0058969D01*
X0197487Y0058370D02*
X0195073Y0058370D01*
X0195073Y0057772D02*
X0197487Y0057772D01*
X0197487Y0057173D02*
X0195073Y0057173D01*
X0195073Y0056575D02*
X0197487Y0056575D01*
X0197487Y0055976D02*
X0195073Y0055976D01*
X0195073Y0055378D02*
X0197487Y0055378D01*
X0197487Y0054779D02*
X0195073Y0054779D01*
X0195073Y0054181D02*
X0197487Y0054181D01*
X0197487Y0053582D02*
X0195073Y0053582D01*
X0194803Y0052984D02*
X0197487Y0052984D01*
X0197487Y0052385D02*
X0094305Y0052385D01*
X0093707Y0051787D02*
X0197487Y0051787D01*
X0197487Y0051188D02*
X0093108Y0051188D01*
X0092510Y0050590D02*
X0197487Y0050590D01*
X0197487Y0049991D02*
X0091911Y0049991D01*
X0091313Y0049393D02*
X0117974Y0049393D01*
X0117927Y0048794D02*
X0090714Y0048794D01*
X0090116Y0048196D02*
X0117927Y0048196D01*
X0117927Y0047597D02*
X0089517Y0047597D01*
X0088919Y0046999D02*
X0117927Y0046999D01*
X0117927Y0046400D02*
X0088320Y0046400D01*
X0087722Y0045802D02*
X0117927Y0045802D01*
X0117927Y0045203D02*
X0087123Y0045203D01*
X0086525Y0044605D02*
X0117927Y0044605D01*
X0117927Y0044006D02*
X0085926Y0044006D01*
X0085328Y0043408D02*
X0117927Y0043408D01*
X0118372Y0042809D02*
X0059729Y0042809D01*
X0059131Y0042211D02*
X0197487Y0042211D01*
X0197487Y0042809D02*
X0194628Y0042809D01*
X0194546Y0042727D02*
X0195073Y0043254D01*
X0195073Y0049346D01*
X0194546Y0049873D01*
X0188454Y0049873D01*
X0187927Y0049346D01*
X0187927Y0043254D01*
X0188454Y0042727D01*
X0194546Y0042727D01*
X0195073Y0043408D02*
X0197487Y0043408D01*
X0197487Y0044006D02*
X0195073Y0044006D01*
X0195073Y0044605D02*
X0197487Y0044605D01*
X0197487Y0045203D02*
X0195073Y0045203D01*
X0195073Y0045802D02*
X0197487Y0045802D01*
X0197487Y0046400D02*
X0195073Y0046400D01*
X0195073Y0046999D02*
X0197487Y0046999D01*
X0197487Y0047597D02*
X0195073Y0047597D01*
X0195073Y0048196D02*
X0197487Y0048196D01*
X0197487Y0048794D02*
X0195073Y0048794D01*
X0195026Y0049393D02*
X0197487Y0049393D01*
X0197487Y0041612D02*
X0058532Y0041612D01*
X0057934Y0041014D02*
X0197487Y0041014D01*
X0197487Y0040415D02*
X0057335Y0040415D01*
X0056736Y0039817D02*
X0117832Y0039817D01*
X0117547Y0039218D02*
X0056138Y0039218D01*
X0055539Y0038620D02*
X0117527Y0038620D01*
X0117527Y0038021D02*
X0054941Y0038021D01*
X0054342Y0037423D02*
X0117527Y0037423D01*
X0117527Y0036824D02*
X0053744Y0036824D01*
X0063074Y0035627D02*
X0068979Y0035627D01*
X0068157Y0035029D02*
X0064277Y0035029D01*
X0064875Y0034430D02*
X0067594Y0034430D01*
X0067178Y0033832D02*
X0065430Y0033832D01*
X0065678Y0033233D02*
X0066873Y0033233D01*
X0066676Y0032634D02*
X0065926Y0032634D01*
X0066100Y0032036D02*
X0066554Y0032036D01*
X0066100Y0031437D02*
X0071200Y0031437D01*
X0071200Y0030839D02*
X0071800Y0030839D01*
X0071800Y0031437D02*
X0076900Y0031437D01*
X0076900Y0030839D02*
X0076489Y0030839D01*
X0076394Y0030240D02*
X0076960Y0030240D01*
X0076900Y0030385D02*
X0077600Y0028694D01*
X0078894Y0027400D01*
X0080585Y0026700D01*
X0082415Y0026700D01*
X0084106Y0027400D01*
X0085400Y0028694D01*
X0086100Y0030385D01*
X0086100Y0032215D01*
X0085400Y0033906D01*
X0084106Y0035200D01*
X0082415Y0035900D01*
X0080585Y0035900D01*
X0078894Y0035200D01*
X0077600Y0033906D01*
X0076900Y0032215D01*
X0076900Y0030385D01*
X0077208Y0029642D02*
X0076219Y0029642D01*
X0075962Y0029043D02*
X0077456Y0029043D01*
X0077850Y0028445D02*
X0075606Y0028445D01*
X0075117Y0027846D02*
X0078448Y0027846D01*
X0079262Y0027248D02*
X0074429Y0027248D01*
X0074291Y0025452D02*
X0079504Y0025452D01*
X0078548Y0024854D02*
X0075017Y0024854D01*
X0075533Y0024255D02*
X0077950Y0024255D01*
X0077497Y0023657D02*
X0075911Y0023657D01*
X0076186Y0023058D02*
X0077249Y0023058D01*
X0077001Y0022460D02*
X0076379Y0022460D01*
X0076473Y0021861D02*
X0076900Y0021861D01*
X0076900Y0021263D02*
X0071800Y0021263D01*
X0071800Y0021000D02*
X0071800Y0021600D01*
X0071200Y0021600D01*
X0071200Y0026300D01*
X0071106Y0026300D01*
X0070329Y0026177D01*
X0069581Y0025934D01*
X0068879Y0025576D01*
X0068243Y0025114D01*
X0067686Y0024557D01*
X0067224Y0023921D01*
X0066866Y0023219D01*
X0066623Y0022471D01*
X0066500Y0021694D01*
X0066500Y0021600D01*
X0071200Y0021600D01*
X0071200Y0021000D01*
X0071800Y0021000D01*
X0076500Y0021000D01*
X0076500Y0020906D01*
X0076377Y0020129D01*
X0076134Y0019381D01*
X0075776Y0018679D01*
X0075314Y0018043D01*
X0074757Y0017486D01*
X0074121Y0017024D01*
X0073419Y0016666D01*
X0072671Y0016423D01*
X0071894Y0016300D01*
X0071800Y0016300D01*
X0071800Y0021000D01*
X0071800Y0020664D02*
X0071200Y0020664D01*
X0071200Y0021000D02*
X0071200Y0016300D01*
X0071106Y0016300D01*
X0070329Y0016423D01*
X0069581Y0016666D01*
X0068879Y0017024D01*
X0068243Y0017486D01*
X0067686Y0018043D01*
X0067224Y0018679D01*
X0066866Y0019381D01*
X0066623Y0020129D01*
X0066500Y0020906D01*
X0066500Y0021000D01*
X0071200Y0021000D01*
X0071200Y0021263D02*
X0066100Y0021263D01*
X0066100Y0021861D02*
X0066527Y0021861D01*
X0066621Y0022460D02*
X0065999Y0022460D01*
X0065751Y0023058D02*
X0066814Y0023058D01*
X0067089Y0023657D02*
X0065503Y0023657D01*
X0065050Y0024255D02*
X0067467Y0024255D01*
X0067983Y0024854D02*
X0064452Y0024854D01*
X0063496Y0025452D02*
X0068709Y0025452D01*
X0068571Y0027248D02*
X0063738Y0027248D01*
X0064552Y0027846D02*
X0067883Y0027846D01*
X0067394Y0028445D02*
X0065150Y0028445D01*
X0065544Y0029043D02*
X0067038Y0029043D01*
X0066781Y0029642D02*
X0065792Y0029642D01*
X0066040Y0030240D02*
X0066605Y0030240D01*
X0066511Y0030839D02*
X0066100Y0030839D01*
X0071200Y0030240D02*
X0071800Y0030240D01*
X0071800Y0029642D02*
X0071200Y0029642D01*
X0071200Y0029043D02*
X0071800Y0029043D01*
X0071800Y0028445D02*
X0071200Y0028445D01*
X0071200Y0027846D02*
X0071800Y0027846D01*
X0071800Y0027248D02*
X0071200Y0027248D01*
X0071200Y0026649D02*
X0071800Y0026649D01*
X0071800Y0026051D02*
X0071200Y0026051D01*
X0071200Y0025452D02*
X0071800Y0025452D01*
X0071800Y0024854D02*
X0071200Y0024854D01*
X0071200Y0024255D02*
X0071800Y0024255D01*
X0071800Y0023657D02*
X0071200Y0023657D01*
X0071200Y0023058D02*
X0071800Y0023058D01*
X0071800Y0022460D02*
X0071200Y0022460D01*
X0071200Y0021861D02*
X0071800Y0021861D01*
X0071800Y0020066D02*
X0071200Y0020066D01*
X0071200Y0019467D02*
X0071800Y0019467D01*
X0071800Y0018869D02*
X0071200Y0018869D01*
X0071200Y0018270D02*
X0071800Y0018270D01*
X0071800Y0017672D02*
X0071200Y0017672D01*
X0071200Y0017073D02*
X0071800Y0017073D01*
X0071800Y0016475D02*
X0071200Y0016475D01*
X0070170Y0016475D02*
X0041795Y0016475D01*
X0042394Y0015876D02*
X0079356Y0015876D01*
X0079400Y0016475D02*
X0072830Y0016475D01*
X0074189Y0017073D02*
X0079400Y0017073D01*
X0078623Y0017672D02*
X0074943Y0017672D01*
X0075479Y0018270D02*
X0078024Y0018270D01*
X0077528Y0018869D02*
X0075873Y0018869D01*
X0076162Y0019467D02*
X0077280Y0019467D01*
X0077032Y0020066D02*
X0076356Y0020066D01*
X0076462Y0020664D02*
X0076900Y0020664D01*
X0078758Y0015278D02*
X0042992Y0015278D01*
X0043591Y0014679D02*
X0078159Y0014679D01*
X0081106Y0011687D02*
X0196155Y0011687D01*
X0196794Y0012285D02*
X0081705Y0012285D01*
X0082303Y0012884D02*
X0197187Y0012884D01*
X0197381Y0013482D02*
X0082902Y0013482D01*
X0083500Y0014081D02*
X0197480Y0014081D01*
X0197487Y0014679D02*
X0083600Y0014679D01*
X0083600Y0015278D02*
X0197487Y0015278D01*
X0197487Y0015876D02*
X0083600Y0015876D01*
X0083600Y0016475D02*
X0197487Y0016475D01*
X0197487Y0017073D02*
X0093316Y0017073D01*
X0094377Y0017672D02*
X0197487Y0017672D01*
X0197487Y0018270D02*
X0094976Y0018270D01*
X0095472Y0018869D02*
X0197487Y0018869D01*
X0197487Y0019467D02*
X0095720Y0019467D01*
X0095968Y0020066D02*
X0197487Y0020066D01*
X0197487Y0020664D02*
X0096100Y0020664D01*
X0096100Y0021263D02*
X0197487Y0021263D01*
X0197487Y0021861D02*
X0096100Y0021861D01*
X0095999Y0022460D02*
X0197487Y0022460D01*
X0197487Y0023058D02*
X0194878Y0023058D01*
X0195073Y0023254D02*
X0194546Y0022727D01*
X0188454Y0022727D01*
X0187927Y0023254D01*
X0187927Y0029346D01*
X0188454Y0029873D01*
X0194546Y0029873D01*
X0195073Y0029346D01*
X0195073Y0023254D01*
X0195073Y0023657D02*
X0197487Y0023657D01*
X0197487Y0024255D02*
X0195073Y0024255D01*
X0195073Y0024854D02*
X0197487Y0024854D01*
X0197487Y0025452D02*
X0195073Y0025452D01*
X0195073Y0026051D02*
X0197487Y0026051D01*
X0197487Y0026649D02*
X0195073Y0026649D01*
X0195073Y0027248D02*
X0197487Y0027248D01*
X0197487Y0027846D02*
X0195073Y0027846D01*
X0195073Y0028445D02*
X0197487Y0028445D01*
X0197487Y0029043D02*
X0195073Y0029043D01*
X0194777Y0029642D02*
X0197487Y0029642D01*
X0197487Y0030240D02*
X0096040Y0030240D01*
X0096100Y0030839D02*
X0197487Y0030839D01*
X0197487Y0031437D02*
X0096100Y0031437D01*
X0095678Y0033233D02*
X0117586Y0033233D01*
X0117527Y0033832D02*
X0095430Y0033832D01*
X0094875Y0034430D02*
X0117527Y0034430D01*
X0117527Y0035029D02*
X0094277Y0035029D01*
X0093074Y0035627D02*
X0117527Y0035627D01*
X0125473Y0035627D02*
X0187527Y0035627D01*
X0187527Y0036000D02*
X0187527Y0033456D01*
X0187615Y0033125D01*
X0187787Y0032829D01*
X0188029Y0032587D01*
X0188325Y0032415D01*
X0188656Y0032327D01*
X0191200Y0032327D01*
X0191200Y0036000D01*
X0187527Y0036000D01*
X0187527Y0036824D02*
X0125473Y0036824D01*
X0125473Y0037423D02*
X0187527Y0037423D01*
X0187527Y0038021D02*
X0125473Y0038021D01*
X0125473Y0038620D02*
X0187527Y0038620D01*
X0187547Y0039218D02*
X0125453Y0039218D01*
X0125168Y0039817D02*
X0187832Y0039817D01*
X0188372Y0042809D02*
X0142959Y0042809D01*
X0143557Y0043408D02*
X0187927Y0043408D01*
X0187927Y0044006D02*
X0144156Y0044006D01*
X0144754Y0044605D02*
X0187927Y0044605D01*
X0187927Y0045203D02*
X0145000Y0045203D01*
X0145000Y0045802D02*
X0187927Y0045802D01*
X0187927Y0046400D02*
X0145000Y0046400D01*
X0145000Y0046999D02*
X0187927Y0046999D01*
X0187927Y0047597D02*
X0145000Y0047597D01*
X0144554Y0048196D02*
X0187927Y0048196D01*
X0187927Y0048794D02*
X0143955Y0048794D01*
X0143357Y0049393D02*
X0187974Y0049393D01*
X0191200Y0039817D02*
X0191800Y0039817D01*
X0191800Y0039218D02*
X0191200Y0039218D01*
X0191200Y0038620D02*
X0191800Y0038620D01*
X0191800Y0038021D02*
X0191200Y0038021D01*
X0191200Y0037423D02*
X0191800Y0037423D01*
X0191800Y0035627D02*
X0191200Y0035627D01*
X0191200Y0035029D02*
X0191800Y0035029D01*
X0191800Y0034430D02*
X0191200Y0034430D01*
X0191200Y0033832D02*
X0191800Y0033832D01*
X0191800Y0033233D02*
X0191200Y0033233D01*
X0191200Y0032634D02*
X0191800Y0032634D01*
X0187981Y0032634D02*
X0125019Y0032634D01*
X0125414Y0033233D02*
X0187586Y0033233D01*
X0187527Y0033832D02*
X0125473Y0033832D01*
X0125473Y0034430D02*
X0187527Y0034430D01*
X0187527Y0035029D02*
X0125473Y0035029D01*
X0124777Y0029642D02*
X0188223Y0029642D01*
X0187927Y0029043D02*
X0125073Y0029043D01*
X0125073Y0028445D02*
X0187927Y0028445D01*
X0187927Y0027846D02*
X0125073Y0027846D01*
X0125073Y0027248D02*
X0187927Y0027248D01*
X0187927Y0026649D02*
X0125073Y0026649D01*
X0125073Y0026051D02*
X0187927Y0026051D01*
X0187927Y0025452D02*
X0125073Y0025452D01*
X0125073Y0024854D02*
X0187927Y0024854D01*
X0187927Y0024255D02*
X0125073Y0024255D01*
X0125073Y0023657D02*
X0187927Y0023657D01*
X0188122Y0023058D02*
X0124878Y0023058D01*
X0118197Y0052984D02*
X0094904Y0052984D01*
X0095502Y0053582D02*
X0117927Y0053582D01*
X0117927Y0054181D02*
X0096101Y0054181D01*
X0096699Y0054779D02*
X0117927Y0054779D01*
X0117927Y0055378D02*
X0097298Y0055378D01*
X0097896Y0055976D02*
X0117927Y0055976D01*
X0117927Y0056575D02*
X0098495Y0056575D01*
X0099093Y0057173D02*
X0117927Y0057173D01*
X0117927Y0057772D02*
X0099692Y0057772D01*
X0100290Y0058370D02*
X0117927Y0058370D01*
X0117927Y0058969D02*
X0100889Y0058969D01*
X0102684Y0060765D02*
X0197487Y0060765D01*
X0197487Y0061363D02*
X0103283Y0061363D01*
X0103881Y0061962D02*
X0197487Y0061962D01*
X0197487Y0062560D02*
X0104480Y0062560D01*
X0100336Y0064356D02*
X0069667Y0064356D01*
X0069068Y0064954D02*
X0100650Y0064954D01*
X0100650Y0065553D02*
X0068470Y0065553D01*
X0068323Y0065700D02*
X0064677Y0065700D01*
X0062100Y0063123D01*
X0062100Y0059477D01*
X0064677Y0056900D01*
X0068323Y0056900D01*
X0070900Y0059477D01*
X0070900Y0063123D01*
X0068323Y0065700D01*
X0070265Y0063757D02*
X0099737Y0063757D01*
X0099139Y0063159D02*
X0070864Y0063159D01*
X0070900Y0062560D02*
X0098540Y0062560D01*
X0097942Y0061962D02*
X0070900Y0061962D01*
X0070900Y0061363D02*
X0097343Y0061363D01*
X0096745Y0060765D02*
X0070900Y0060765D01*
X0070900Y0060166D02*
X0096146Y0060166D01*
X0095548Y0059568D02*
X0070900Y0059568D01*
X0070392Y0058969D02*
X0094949Y0058969D01*
X0094351Y0058370D02*
X0069793Y0058370D01*
X0069195Y0057772D02*
X0093752Y0057772D01*
X0093154Y0057173D02*
X0068596Y0057173D01*
X0064404Y0057173D02*
X0049162Y0057173D01*
X0048563Y0056575D02*
X0092555Y0056575D01*
X0091957Y0055976D02*
X0037350Y0055976D01*
X0037350Y0056575D02*
X0044437Y0056575D01*
X0044512Y0056500D02*
X0046200Y0056500D01*
X0046200Y0061000D01*
X0046800Y0061000D01*
X0046800Y0061600D01*
X0051300Y0061600D01*
X0051300Y0063288D01*
X0048488Y0066100D01*
X0046800Y0066100D01*
X0046800Y0061600D01*
X0046200Y0061600D01*
X0046200Y0066100D01*
X0044512Y0066100D01*
X0041700Y0063288D01*
X0041700Y0061600D01*
X0046200Y0061600D01*
X0046200Y0061000D01*
X0041700Y0061000D01*
X0041700Y0059312D01*
X0044512Y0056500D01*
X0043838Y0057173D02*
X0037350Y0057173D01*
X0037350Y0057772D02*
X0043240Y0057772D01*
X0042641Y0058370D02*
X0037350Y0058370D01*
X0037350Y0058969D02*
X0042043Y0058969D01*
X0041700Y0059568D02*
X0037350Y0059568D01*
X0037350Y0060166D02*
X0041700Y0060166D01*
X0041700Y0060765D02*
X0037350Y0060765D01*
X0037350Y0061363D02*
X0046200Y0061363D01*
X0046200Y0060765D02*
X0046800Y0060765D01*
X0046800Y0061000D02*
X0046800Y0056500D01*
X0048488Y0056500D01*
X0051300Y0059312D01*
X0051300Y0061000D01*
X0046800Y0061000D01*
X0046800Y0061363D02*
X0062100Y0061363D01*
X0062100Y0060765D02*
X0051300Y0060765D01*
X0051300Y0060166D02*
X0062100Y0060166D01*
X0062100Y0059568D02*
X0051300Y0059568D01*
X0050957Y0058969D02*
X0062608Y0058969D01*
X0063207Y0058370D02*
X0050359Y0058370D01*
X0049760Y0057772D02*
X0063805Y0057772D01*
X0062100Y0061962D02*
X0051300Y0061962D01*
X0051300Y0062560D02*
X0062100Y0062560D01*
X0062136Y0063159D02*
X0051300Y0063159D01*
X0050831Y0063757D02*
X0062735Y0063757D01*
X0063333Y0064356D02*
X0050233Y0064356D01*
X0049634Y0064954D02*
X0063932Y0064954D01*
X0064530Y0065553D02*
X0049036Y0065553D01*
X0046800Y0065553D02*
X0046200Y0065553D01*
X0046200Y0064954D02*
X0046800Y0064954D01*
X0046800Y0064356D02*
X0046200Y0064356D01*
X0046200Y0063757D02*
X0046800Y0063757D01*
X0046800Y0063159D02*
X0046200Y0063159D01*
X0046200Y0062560D02*
X0046800Y0062560D01*
X0046800Y0061962D02*
X0046200Y0061962D01*
X0046200Y0060166D02*
X0046800Y0060166D01*
X0046800Y0059568D02*
X0046200Y0059568D01*
X0046200Y0058969D02*
X0046800Y0058969D01*
X0046800Y0058370D02*
X0046200Y0058370D01*
X0046200Y0057772D02*
X0046800Y0057772D01*
X0046800Y0057173D02*
X0046200Y0057173D01*
X0046200Y0056575D02*
X0046800Y0056575D01*
X0041700Y0061962D02*
X0037350Y0061962D01*
X0037350Y0062560D02*
X0041700Y0062560D01*
X0041700Y0063159D02*
X0037350Y0063159D01*
X0037350Y0063757D02*
X0042169Y0063757D01*
X0042767Y0064356D02*
X0037350Y0064356D01*
X0037350Y0064954D02*
X0043366Y0064954D01*
X0043964Y0065553D02*
X0037350Y0065553D01*
X0037350Y0066151D02*
X0100650Y0066151D01*
X0100650Y0066750D02*
X0037350Y0066750D01*
X0037350Y0067348D02*
X0100650Y0067348D01*
X0100650Y0067947D02*
X0037350Y0067947D01*
X0037350Y0068545D02*
X0100650Y0068545D01*
X0100650Y0069144D02*
X0037350Y0069144D01*
X0037350Y0069742D02*
X0100650Y0069742D01*
X0100650Y0070341D02*
X0037350Y0070341D01*
X0037350Y0070939D02*
X0100669Y0070939D01*
X0101268Y0071538D02*
X0037350Y0071538D01*
X0037350Y0072136D02*
X0101866Y0072136D01*
X0102465Y0072735D02*
X0037350Y0072735D01*
X0037350Y0073333D02*
X0103063Y0073333D01*
X0103662Y0073932D02*
X0037350Y0073932D01*
X0037350Y0074530D02*
X0104260Y0074530D01*
X0104859Y0075129D02*
X0037350Y0075129D01*
X0037350Y0075727D02*
X0105457Y0075727D01*
X0106056Y0076326D02*
X0037350Y0076326D01*
X0037350Y0076924D02*
X0106654Y0076924D01*
X0107253Y0077523D02*
X0037350Y0077523D01*
X0037350Y0078121D02*
X0107852Y0078121D01*
X0109602Y0073932D02*
X0117927Y0073932D01*
X0117927Y0073333D02*
X0109003Y0073333D01*
X0108405Y0072735D02*
X0118446Y0072735D01*
X0117927Y0078720D02*
X0037350Y0078720D01*
X0037350Y0079318D02*
X0117927Y0079318D01*
X0124729Y0082909D02*
X0139941Y0082909D01*
X0139342Y0083508D02*
X0125073Y0083508D01*
X0125073Y0084106D02*
X0138744Y0084106D01*
X0138145Y0084705D02*
X0125073Y0084705D01*
X0125073Y0085303D02*
X0138000Y0085303D01*
X0138000Y0085902D02*
X0125073Y0085902D01*
X0125073Y0086501D02*
X0138000Y0086501D01*
X0138000Y0087099D02*
X0125073Y0087099D01*
X0125073Y0087698D02*
X0138000Y0087698D01*
X0138546Y0088296D02*
X0125073Y0088296D01*
X0125073Y0088895D02*
X0139145Y0088895D01*
X0139743Y0089493D02*
X0124926Y0089493D01*
X0115950Y0119419D02*
X0197487Y0119419D01*
X0197487Y0120017D02*
X0117324Y0120017D01*
X0117922Y0120616D02*
X0121824Y0120616D01*
X0120389Y0121214D02*
X0118521Y0121214D01*
X0119120Y0121813D02*
X0119791Y0121813D01*
X0124861Y0120616D02*
X0132060Y0120616D01*
X0130626Y0121214D02*
X0126296Y0121214D01*
X0126894Y0121813D02*
X0130027Y0121813D01*
X0129429Y0122411D02*
X0127493Y0122411D01*
X0127892Y0123010D02*
X0129029Y0123010D01*
X0128782Y0123608D02*
X0128140Y0123608D01*
X0128388Y0124207D02*
X0128534Y0124207D01*
X0128607Y0127199D02*
X0128315Y0127199D01*
X0128067Y0127798D02*
X0128854Y0127798D01*
X0129102Y0128396D02*
X0127819Y0128396D01*
X0127317Y0128995D02*
X0129605Y0128995D01*
X0130203Y0129593D02*
X0126718Y0129593D01*
X0125881Y0130192D02*
X0131040Y0130192D01*
X0132485Y0130790D02*
X0124436Y0130790D01*
X0122249Y0130790D02*
X0117746Y0130790D01*
X0118345Y0130192D02*
X0120804Y0130192D01*
X0119967Y0129593D02*
X0118943Y0129593D01*
X0119311Y0128995D02*
X0119368Y0128995D01*
X0130576Y0139170D02*
X0096424Y0139170D01*
X0097705Y0139768D02*
X0112630Y0139768D01*
X0113059Y0139700D02*
X0112189Y0139838D01*
X0111350Y0140110D01*
X0110565Y0140510D01*
X0109852Y0141029D01*
X0109229Y0141652D01*
X0108710Y0142365D01*
X0108310Y0143150D01*
X0108038Y0143989D01*
X0107900Y0144859D01*
X0107900Y0145000D01*
X0113200Y0145000D01*
X0113200Y0145600D01*
X0113200Y0150900D01*
X0113059Y0150900D01*
X0112189Y0150762D01*
X0111350Y0150490D01*
X0110565Y0150090D01*
X0109852Y0149571D01*
X0109229Y0148948D01*
X0108710Y0148235D01*
X0108310Y0147450D01*
X0108038Y0146611D01*
X0107900Y0145741D01*
X0107900Y0145600D01*
X0113200Y0145600D01*
X0113800Y0145600D01*
X0113800Y0150900D01*
X0113941Y0150900D01*
X0114811Y0150762D01*
X0115650Y0150490D01*
X0116435Y0150090D01*
X0117148Y0149571D01*
X0117771Y0148948D01*
X0118290Y0148235D01*
X0118690Y0147450D01*
X0118962Y0146611D01*
X0119100Y0145741D01*
X0119100Y0145600D01*
X0113800Y0145600D01*
X0113800Y0145000D01*
X0119100Y0145000D01*
X0119100Y0144859D01*
X0118962Y0143989D01*
X0118690Y0143150D01*
X0118290Y0142365D01*
X0117771Y0141652D01*
X0117148Y0141029D01*
X0116435Y0140510D01*
X0115650Y0140110D01*
X0114811Y0139838D01*
X0113941Y0139700D01*
X0113800Y0139700D01*
X0113800Y0145000D01*
X0113200Y0145000D01*
X0113200Y0139700D01*
X0113059Y0139700D01*
X0113200Y0139768D02*
X0113800Y0139768D01*
X0114370Y0139768D02*
X0129295Y0139768D01*
X0128697Y0140367D02*
X0116153Y0140367D01*
X0117061Y0140965D02*
X0128098Y0140965D01*
X0127522Y0141564D02*
X0117683Y0141564D01*
X0118142Y0142162D02*
X0127274Y0142162D01*
X0127026Y0142761D02*
X0118491Y0142761D01*
X0118758Y0143359D02*
X0126778Y0143359D01*
X0126530Y0143958D02*
X0118952Y0143958D01*
X0119052Y0144556D02*
X0126523Y0144556D01*
X0126523Y0145155D02*
X0113800Y0145155D01*
X0113800Y0145753D02*
X0113200Y0145753D01*
X0113200Y0145155D02*
X0100477Y0145155D01*
X0100477Y0145753D02*
X0107902Y0145753D01*
X0107997Y0146352D02*
X0100477Y0146352D01*
X0100343Y0146950D02*
X0108148Y0146950D01*
X0108361Y0147549D02*
X0100095Y0147549D01*
X0099847Y0148147D02*
X0108666Y0148147D01*
X0109081Y0148746D02*
X0099599Y0148746D01*
X0099193Y0149344D02*
X0109625Y0149344D01*
X0110363Y0149943D02*
X0098594Y0149943D01*
X0098635Y0150541D02*
X0111509Y0150541D01*
X0113200Y0150541D02*
X0113800Y0150541D01*
X0113800Y0149943D02*
X0113200Y0149943D01*
X0113200Y0149344D02*
X0113800Y0149344D01*
X0113800Y0148746D02*
X0113200Y0148746D01*
X0113200Y0148147D02*
X0113800Y0148147D01*
X0113800Y0147549D02*
X0113200Y0147549D01*
X0113200Y0146950D02*
X0113800Y0146950D01*
X0113800Y0146352D02*
X0113200Y0146352D01*
X0113200Y0144556D02*
X0113800Y0144556D01*
X0113800Y0143958D02*
X0113200Y0143958D01*
X0113200Y0143359D02*
X0113800Y0143359D01*
X0113800Y0142761D02*
X0113200Y0142761D01*
X0113200Y0142162D02*
X0113800Y0142162D01*
X0113800Y0141564D02*
X0113200Y0141564D01*
X0113200Y0140965D02*
X0113800Y0140965D01*
X0113800Y0140367D02*
X0113200Y0140367D01*
X0110847Y0140367D02*
X0098303Y0140367D01*
X0098902Y0140965D02*
X0109939Y0140965D01*
X0109317Y0141564D02*
X0099478Y0141564D01*
X0099726Y0142162D02*
X0108858Y0142162D01*
X0108509Y0142761D02*
X0099974Y0142761D01*
X0100222Y0143359D02*
X0108242Y0143359D01*
X0108048Y0143958D02*
X0100470Y0143958D01*
X0100477Y0144556D02*
X0107948Y0144556D01*
X0115491Y0150541D02*
X0128365Y0150541D01*
X0128406Y0149943D02*
X0116637Y0149943D01*
X0117375Y0149344D02*
X0127807Y0149344D01*
X0127401Y0148746D02*
X0117919Y0148746D01*
X0118334Y0148147D02*
X0127153Y0148147D01*
X0126905Y0147549D02*
X0118639Y0147549D01*
X0118852Y0146950D02*
X0126657Y0146950D01*
X0126523Y0146352D02*
X0119003Y0146352D01*
X0119098Y0145753D02*
X0126523Y0145753D01*
X0127766Y0151140D02*
X0099234Y0151140D01*
X0099616Y0151738D02*
X0127384Y0151738D01*
X0127136Y0152337D02*
X0099864Y0152337D01*
X0100112Y0152935D02*
X0126888Y0152935D01*
X0126640Y0153534D02*
X0100360Y0153534D01*
X0100477Y0154132D02*
X0126523Y0154132D01*
X0126523Y0154731D02*
X0100477Y0154731D01*
X0087535Y0147549D02*
X0006300Y0147549D01*
X0006300Y0148147D02*
X0019703Y0148147D01*
X0019105Y0148746D02*
X0006300Y0148746D01*
X0006300Y0149344D02*
X0018506Y0149344D01*
X0018000Y0149943D02*
X0006300Y0149943D01*
X0006300Y0150541D02*
X0018000Y0150541D01*
X0018000Y0151140D02*
X0006300Y0151140D01*
X0006300Y0151738D02*
X0018000Y0151738D01*
X0018000Y0152337D02*
X0006329Y0152337D01*
X0006495Y0152935D02*
X0018186Y0152935D01*
X0018784Y0153534D02*
X0006758Y0153534D01*
X0007193Y0154132D02*
X0019383Y0154132D01*
X0019981Y0154731D02*
X0008048Y0154731D01*
X0006300Y0146950D02*
X0087287Y0146950D01*
X0087153Y0146352D02*
X0006300Y0146352D01*
X0006300Y0145753D02*
X0087153Y0145753D01*
X0087153Y0145155D02*
X0006300Y0145155D01*
X0006300Y0144556D02*
X0087153Y0144556D01*
X0087160Y0143958D02*
X0006300Y0143958D01*
X0006300Y0143359D02*
X0087408Y0143359D01*
X0087656Y0142761D02*
X0006300Y0142761D01*
X0006300Y0142162D02*
X0087904Y0142162D01*
X0088152Y0141564D02*
X0035456Y0141564D01*
X0036055Y0140965D02*
X0088728Y0140965D01*
X0089327Y0140367D02*
X0036653Y0140367D01*
X0037252Y0139768D02*
X0089925Y0139768D01*
X0091206Y0139170D02*
X0037850Y0139170D01*
X0038449Y0138571D02*
X0151664Y0138571D01*
X0152262Y0139170D02*
X0135794Y0139170D01*
X0137075Y0139768D02*
X0152861Y0139768D01*
X0153459Y0140367D02*
X0137673Y0140367D01*
X0138272Y0140965D02*
X0197487Y0140965D01*
X0197487Y0140367D02*
X0187541Y0140367D01*
X0187407Y0140500D02*
X0183514Y0140500D01*
X0180761Y0137747D01*
X0180761Y0133853D01*
X0183514Y0131100D01*
X0187407Y0131100D01*
X0190161Y0133853D01*
X0190161Y0137747D01*
X0187407Y0140500D01*
X0188139Y0139768D02*
X0197487Y0139768D01*
X0197487Y0139170D02*
X0188738Y0139170D01*
X0189336Y0138571D02*
X0197487Y0138571D01*
X0197487Y0137972D02*
X0189935Y0137972D01*
X0190161Y0137374D02*
X0197487Y0137374D01*
X0197487Y0136775D02*
X0190161Y0136775D01*
X0190161Y0136177D02*
X0197487Y0136177D01*
X0197487Y0135578D02*
X0190161Y0135578D01*
X0190161Y0134980D02*
X0197487Y0134980D01*
X0197487Y0134381D02*
X0190161Y0134381D01*
X0190090Y0133783D02*
X0197487Y0133783D01*
X0197487Y0133184D02*
X0189492Y0133184D01*
X0188893Y0132586D02*
X0197487Y0132586D01*
X0197487Y0131987D02*
X0188295Y0131987D01*
X0187696Y0131389D02*
X0197487Y0131389D01*
X0197487Y0130790D02*
X0134672Y0130790D01*
X0136117Y0130192D02*
X0197487Y0130192D01*
X0197487Y0129593D02*
X0136954Y0129593D01*
X0137553Y0128995D02*
X0197487Y0128995D01*
X0197487Y0128396D02*
X0138055Y0128396D01*
X0138303Y0127798D02*
X0197487Y0127798D01*
X0197487Y0127199D02*
X0138551Y0127199D01*
X0138779Y0126601D02*
X0197487Y0126601D01*
X0197487Y0126002D02*
X0138779Y0126002D01*
X0138779Y0125404D02*
X0197487Y0125404D01*
X0197487Y0124805D02*
X0138779Y0124805D01*
X0138624Y0124207D02*
X0197487Y0124207D01*
X0197487Y0123608D02*
X0138376Y0123608D01*
X0138128Y0123010D02*
X0197487Y0123010D01*
X0197487Y0122411D02*
X0137729Y0122411D01*
X0137130Y0121813D02*
X0197487Y0121813D01*
X0197487Y0121214D02*
X0136532Y0121214D01*
X0135098Y0120616D02*
X0197487Y0120616D01*
X0183225Y0131389D02*
X0157775Y0131389D01*
X0158374Y0131987D02*
X0182626Y0131987D01*
X0182028Y0132586D02*
X0158972Y0132586D01*
X0159571Y0133184D02*
X0181429Y0133184D01*
X0180831Y0133783D02*
X0160169Y0133783D01*
X0160239Y0134381D02*
X0180761Y0134381D01*
X0180761Y0134980D02*
X0160239Y0134980D01*
X0160239Y0135578D02*
X0180761Y0135578D01*
X0180761Y0136177D02*
X0160239Y0136177D01*
X0160239Y0136775D02*
X0180761Y0136775D01*
X0180761Y0137374D02*
X0160239Y0137374D01*
X0160014Y0137972D02*
X0180986Y0137972D01*
X0181585Y0138571D02*
X0159415Y0138571D01*
X0158817Y0139170D02*
X0182183Y0139170D01*
X0182782Y0139768D02*
X0158218Y0139768D01*
X0157620Y0140367D02*
X0183380Y0140367D01*
X0197487Y0141564D02*
X0138848Y0141564D01*
X0139096Y0142162D02*
X0197487Y0142162D01*
X0197487Y0142761D02*
X0139344Y0142761D01*
X0139592Y0143359D02*
X0197487Y0143359D01*
X0197487Y0143958D02*
X0139840Y0143958D01*
X0139847Y0144556D02*
X0197487Y0144556D01*
X0197487Y0145155D02*
X0139847Y0145155D01*
X0139847Y0145753D02*
X0197487Y0145753D01*
X0197487Y0146352D02*
X0139847Y0146352D01*
X0139713Y0146950D02*
X0197487Y0146950D01*
X0197487Y0147549D02*
X0139465Y0147549D01*
X0139217Y0148147D02*
X0197487Y0148147D01*
X0197487Y0148746D02*
X0138969Y0148746D01*
X0138563Y0149344D02*
X0197487Y0149344D01*
X0197487Y0149943D02*
X0137964Y0149943D01*
X0138006Y0150541D02*
X0197487Y0150541D01*
X0197487Y0151140D02*
X0138604Y0151140D01*
X0138986Y0151738D02*
X0197487Y0151738D01*
X0197458Y0152337D02*
X0139234Y0152337D01*
X0139482Y0152935D02*
X0197292Y0152935D01*
X0197030Y0153534D02*
X0139730Y0153534D01*
X0139847Y0154132D02*
X0196595Y0154132D01*
X0195740Y0154731D02*
X0139847Y0154731D01*
X0151065Y0137972D02*
X0038600Y0137972D01*
X0038600Y0137374D02*
X0150839Y0137374D01*
X0150839Y0136775D02*
X0038600Y0136775D01*
X0038600Y0136177D02*
X0150839Y0136177D01*
X0102564Y0130790D02*
X0094515Y0130790D01*
X0095960Y0130192D02*
X0101119Y0130192D01*
X0100282Y0129593D02*
X0096797Y0129593D01*
X0097395Y0128995D02*
X0099683Y0128995D01*
X0099181Y0128396D02*
X0097898Y0128396D01*
X0098146Y0127798D02*
X0098933Y0127798D01*
X0098685Y0127199D02*
X0098393Y0127199D01*
X0098466Y0124207D02*
X0098612Y0124207D01*
X0098860Y0123608D02*
X0098218Y0123608D01*
X0097971Y0123010D02*
X0099108Y0123010D01*
X0099507Y0122411D02*
X0097571Y0122411D01*
X0096973Y0121813D02*
X0100106Y0121813D01*
X0100704Y0121214D02*
X0096374Y0121214D01*
X0094940Y0120616D02*
X0102139Y0120616D01*
X0054380Y0127199D02*
X0048620Y0127199D01*
X0049106Y0127400D02*
X0047415Y0126700D01*
X0045585Y0126700D01*
X0043894Y0127400D01*
X0042600Y0128694D01*
X0041900Y0130385D01*
X0041900Y0132215D01*
X0042600Y0133906D01*
X0043894Y0135200D01*
X0045585Y0135900D01*
X0047415Y0135900D01*
X0049106Y0135200D01*
X0050400Y0133906D01*
X0051100Y0132215D01*
X0051100Y0130385D01*
X0050400Y0128694D01*
X0049106Y0127400D01*
X0049503Y0127798D02*
X0053497Y0127798D01*
X0052898Y0128396D02*
X0050102Y0128396D01*
X0050524Y0128995D02*
X0052476Y0128995D01*
X0052228Y0129593D02*
X0050772Y0129593D01*
X0051020Y0130192D02*
X0051980Y0130192D01*
X0051900Y0130790D02*
X0051100Y0130790D01*
X0051100Y0131389D02*
X0051900Y0131389D01*
X0051900Y0131987D02*
X0051100Y0131987D01*
X0050946Y0132586D02*
X0052054Y0132586D01*
X0052302Y0133184D02*
X0050698Y0133184D01*
X0050451Y0133783D02*
X0052549Y0133783D01*
X0053076Y0134381D02*
X0049924Y0134381D01*
X0049325Y0134980D02*
X0053675Y0134980D01*
X0054809Y0135578D02*
X0048191Y0135578D01*
X0044809Y0135578D02*
X0038600Y0135578D01*
X0039325Y0134980D02*
X0043675Y0134980D01*
X0043076Y0134381D02*
X0039924Y0134381D01*
X0040451Y0133783D02*
X0042549Y0133783D01*
X0042302Y0133184D02*
X0040698Y0133184D01*
X0040946Y0132586D02*
X0042054Y0132586D01*
X0041900Y0131987D02*
X0041100Y0131987D01*
X0041100Y0131389D02*
X0041900Y0131389D01*
X0041900Y0130790D02*
X0041100Y0130790D01*
X0041020Y0130192D02*
X0041980Y0130192D01*
X0042228Y0129593D02*
X0040772Y0129593D01*
X0040524Y0128995D02*
X0042476Y0128995D01*
X0042898Y0128396D02*
X0040102Y0128396D01*
X0039503Y0127798D02*
X0043497Y0127798D01*
X0044380Y0127199D02*
X0038620Y0127199D01*
X0041454Y0120616D02*
X0041900Y0120616D01*
X0042052Y0120017D02*
X0041340Y0120017D01*
X0041146Y0119419D02*
X0042300Y0119419D01*
X0042548Y0118820D02*
X0040848Y0118820D01*
X0040444Y0118222D02*
X0043073Y0118222D01*
X0043672Y0117623D02*
X0039894Y0117623D01*
X0039122Y0117025D02*
X0044400Y0117025D01*
X0044400Y0115229D02*
X0017350Y0115229D01*
X0017350Y0114631D02*
X0044400Y0114631D01*
X0044400Y0114032D02*
X0017350Y0114032D01*
X0017350Y0113434D02*
X0044400Y0113434D01*
X0044400Y0112835D02*
X0017350Y0112835D01*
X0017350Y0112237D02*
X0044400Y0112237D01*
X0044400Y0111638D02*
X0017350Y0111638D01*
X0017350Y0111039D02*
X0044400Y0111039D01*
X0043921Y0110441D02*
X0017350Y0110441D01*
X0017350Y0109842D02*
X0043323Y0109842D01*
X0042724Y0109244D02*
X0017776Y0109244D01*
X0018374Y0108645D02*
X0042126Y0108645D01*
X0041527Y0108047D02*
X0018973Y0108047D01*
X0019571Y0107448D02*
X0040929Y0107448D01*
X0040330Y0106850D02*
X0020170Y0106850D01*
X0021346Y0106251D02*
X0039732Y0106251D01*
X0039133Y0105653D02*
X0022193Y0105653D01*
X0022636Y0105054D02*
X0038535Y0105054D01*
X0037936Y0104456D02*
X0022884Y0104456D01*
X0022934Y0103857D02*
X0037338Y0103857D01*
X0036739Y0103259D02*
X0022931Y0103259D01*
X0022683Y0102660D02*
X0036140Y0102660D01*
X0035542Y0102062D02*
X0022308Y0102062D01*
X0021623Y0101463D02*
X0034943Y0101463D01*
X0034345Y0100865D02*
X0006300Y0100865D01*
X0006300Y0101463D02*
X0018877Y0101463D01*
X0018192Y0102062D02*
X0006300Y0102062D01*
X0006300Y0102660D02*
X0017817Y0102660D01*
X0017569Y0103259D02*
X0006300Y0103259D01*
X0006300Y0103857D02*
X0017223Y0103857D01*
X0016624Y0104456D02*
X0006300Y0104456D01*
X0006300Y0105054D02*
X0016026Y0105054D01*
X0015427Y0105653D02*
X0006300Y0105653D01*
X0006300Y0106251D02*
X0014829Y0106251D01*
X0014230Y0106850D02*
X0006300Y0106850D01*
X0006300Y0107448D02*
X0013632Y0107448D01*
X0013150Y0108047D02*
X0006300Y0108047D01*
X0006300Y0108645D02*
X0013150Y0108645D01*
X0013150Y0109244D02*
X0006300Y0109244D01*
X0006300Y0109842D02*
X0013150Y0109842D01*
X0013150Y0110441D02*
X0006300Y0110441D01*
X0006300Y0111039D02*
X0013150Y0111039D01*
X0013150Y0111638D02*
X0006300Y0111638D01*
X0006300Y0112237D02*
X0013150Y0112237D01*
X0013150Y0112835D02*
X0006300Y0112835D01*
X0006300Y0113434D02*
X0013150Y0113434D01*
X0013150Y0114032D02*
X0006300Y0114032D01*
X0006300Y0114631D02*
X0013150Y0114631D01*
X0013150Y0115229D02*
X0006300Y0115229D01*
X0006300Y0115828D02*
X0013150Y0115828D01*
X0013150Y0116426D02*
X0006300Y0116426D01*
X0006300Y0117025D02*
X0013150Y0117025D01*
X0013150Y0117623D02*
X0006300Y0117623D01*
X0006300Y0118222D02*
X0013150Y0118222D01*
X0013150Y0118820D02*
X0006300Y0118820D01*
X0006300Y0119419D02*
X0013150Y0119419D01*
X0013150Y0120017D02*
X0006300Y0120017D01*
X0006300Y0120616D02*
X0013150Y0120616D01*
X0013150Y0121214D02*
X0006300Y0121214D01*
X0006300Y0121813D02*
X0013150Y0121813D01*
X0013150Y0122411D02*
X0006300Y0122411D01*
X0006300Y0123010D02*
X0013150Y0123010D01*
X0013150Y0123608D02*
X0006300Y0123608D01*
X0006300Y0124207D02*
X0013150Y0124207D01*
X0013150Y0124805D02*
X0006300Y0124805D01*
X0006300Y0125404D02*
X0013150Y0125404D01*
X0013150Y0126002D02*
X0006300Y0126002D01*
X0006300Y0126601D02*
X0013150Y0126601D01*
X0013150Y0127199D02*
X0006300Y0127199D01*
X0006300Y0127798D02*
X0013150Y0127798D01*
X0013150Y0128396D02*
X0006300Y0128396D01*
X0006300Y0128995D02*
X0013150Y0128995D01*
X0013150Y0129593D02*
X0006300Y0129593D01*
X0006300Y0130192D02*
X0013150Y0130192D01*
X0013150Y0130790D02*
X0006300Y0130790D01*
X0006300Y0131389D02*
X0013150Y0131389D01*
X0013150Y0131987D02*
X0006300Y0131987D01*
X0006300Y0132586D02*
X0013150Y0132586D01*
X0013150Y0133184D02*
X0006300Y0133184D01*
X0006300Y0133783D02*
X0013150Y0133783D01*
X0013150Y0134381D02*
X0006300Y0134381D01*
X0006300Y0134980D02*
X0013150Y0134980D01*
X0013150Y0135578D02*
X0006300Y0135578D01*
X0006300Y0136177D02*
X0013150Y0136177D01*
X0013150Y0136775D02*
X0006300Y0136775D01*
X0006300Y0137374D02*
X0013150Y0137374D01*
X0013150Y0137972D02*
X0006300Y0137972D01*
X0006300Y0138571D02*
X0013301Y0138571D01*
X0013900Y0139170D02*
X0006300Y0139170D01*
X0006300Y0139768D02*
X0014498Y0139768D01*
X0015097Y0140367D02*
X0006300Y0140367D01*
X0006300Y0140965D02*
X0015695Y0140965D01*
X0016294Y0141564D02*
X0006300Y0141564D01*
X0017445Y0136775D02*
X0034305Y0136775D01*
X0034400Y0136177D02*
X0017350Y0136177D01*
X0018044Y0137374D02*
X0033706Y0137374D01*
X0024792Y0126002D02*
X0017350Y0126002D01*
X0017350Y0125404D02*
X0023642Y0125404D01*
X0022934Y0124805D02*
X0017350Y0124805D01*
X0017350Y0124207D02*
X0022432Y0124207D01*
X0022064Y0123608D02*
X0017350Y0123608D01*
X0017350Y0123010D02*
X0021798Y0123010D01*
X0021614Y0122411D02*
X0017350Y0122411D01*
X0017350Y0121813D02*
X0021519Y0121813D01*
X0033746Y0100266D02*
X0006300Y0100266D01*
X0006300Y0099668D02*
X0033150Y0099668D01*
X0033150Y0099069D02*
X0006300Y0099069D01*
X0006300Y0098471D02*
X0033150Y0098471D01*
X0033150Y0097872D02*
X0006300Y0097872D01*
X0006300Y0097274D02*
X0033150Y0097274D01*
X0033150Y0096675D02*
X0006300Y0096675D01*
X0006300Y0096077D02*
X0033150Y0096077D01*
X0033150Y0095478D02*
X0006300Y0095478D01*
X0006300Y0094880D02*
X0033150Y0094880D01*
X0033150Y0094281D02*
X0006300Y0094281D01*
X0006300Y0093683D02*
X0033150Y0093683D01*
X0033150Y0093084D02*
X0006300Y0093084D01*
X0006300Y0092486D02*
X0033150Y0092486D01*
X0033150Y0090092D02*
X0026028Y0090092D01*
X0026997Y0089493D02*
X0033150Y0089493D01*
X0033150Y0088895D02*
X0027596Y0088895D01*
X0028194Y0088296D02*
X0033150Y0088296D01*
X0033150Y0087698D02*
X0028793Y0087698D01*
X0029175Y0087099D02*
X0033150Y0087099D01*
X0033150Y0086501D02*
X0029520Y0086501D01*
X0029866Y0085902D02*
X0033150Y0085902D01*
X0033150Y0085303D02*
X0030211Y0085303D01*
X0030406Y0084705D02*
X0033150Y0084705D01*
X0033150Y0084106D02*
X0030566Y0084106D01*
X0030726Y0083508D02*
X0033150Y0083508D01*
X0033150Y0082909D02*
X0030887Y0082909D01*
X0030997Y0082311D02*
X0033150Y0082311D01*
X0033150Y0081712D02*
X0030997Y0081712D01*
X0030997Y0081114D02*
X0033150Y0081114D01*
X0033150Y0080515D02*
X0030997Y0080515D01*
X0030997Y0079917D02*
X0033150Y0079917D01*
X0033150Y0079318D02*
X0030893Y0079318D01*
X0030732Y0078720D02*
X0033150Y0078720D01*
X0033150Y0078121D02*
X0030572Y0078121D01*
X0030411Y0077523D02*
X0033150Y0077523D01*
X0033150Y0076924D02*
X0030224Y0076924D01*
X0029878Y0076326D02*
X0033150Y0076326D01*
X0033150Y0075727D02*
X0029533Y0075727D01*
X0029187Y0075129D02*
X0033150Y0075129D01*
X0033150Y0074530D02*
X0028814Y0074530D01*
X0028216Y0073932D02*
X0033150Y0073932D01*
X0033150Y0073333D02*
X0027617Y0073333D01*
X0027019Y0072735D02*
X0033150Y0072735D01*
X0033150Y0072136D02*
X0026065Y0072136D01*
X0025028Y0071538D02*
X0033150Y0071538D01*
X0006578Y0040415D02*
X0006300Y0040415D01*
X0006300Y0039817D02*
X0006725Y0039817D01*
X0006949Y0039218D02*
X0006300Y0039218D01*
X0006300Y0038620D02*
X0007267Y0038620D01*
X0007708Y0038021D02*
X0006300Y0038021D01*
X0006300Y0037423D02*
X0008330Y0037423D01*
X0006300Y0035627D02*
X0033150Y0035627D01*
X0033150Y0035029D02*
X0006300Y0035029D01*
X0006300Y0034430D02*
X0033150Y0034430D01*
X0033150Y0033832D02*
X0006300Y0033832D01*
X0006300Y0033233D02*
X0033150Y0033233D01*
X0033150Y0032634D02*
X0006300Y0032634D01*
X0006300Y0032036D02*
X0033150Y0032036D01*
X0033150Y0031437D02*
X0006300Y0031437D01*
X0006300Y0030839D02*
X0033150Y0030839D01*
X0033150Y0030240D02*
X0006300Y0030240D01*
X0006300Y0029642D02*
X0033150Y0029642D01*
X0033150Y0029043D02*
X0006300Y0029043D01*
X0006300Y0028445D02*
X0033150Y0028445D01*
X0033150Y0027846D02*
X0006300Y0027846D01*
X0006300Y0027248D02*
X0033150Y0027248D01*
X0033150Y0026649D02*
X0006300Y0026649D01*
X0006300Y0026051D02*
X0007020Y0026051D01*
X0007002Y0026040D02*
X0006760Y0025798D01*
X0006589Y0025502D01*
X0006500Y0025171D01*
X0006500Y0021600D01*
X0011200Y0021600D01*
X0011200Y0026300D01*
X0007629Y0026300D01*
X0007298Y0026211D01*
X0007002Y0026040D01*
X0006575Y0025452D02*
X0006300Y0025452D01*
X0006300Y0024854D02*
X0006500Y0024854D01*
X0006500Y0024255D02*
X0006300Y0024255D01*
X0006300Y0023657D02*
X0006500Y0023657D01*
X0006500Y0023058D02*
X0006300Y0023058D01*
X0006300Y0022460D02*
X0006500Y0022460D01*
X0006500Y0021861D02*
X0006300Y0021861D01*
X0006300Y0021263D02*
X0011200Y0021263D01*
X0011200Y0021000D02*
X0006500Y0021000D01*
X0006500Y0017429D01*
X0006589Y0017098D01*
X0006760Y0016802D01*
X0007002Y0016560D01*
X0007298Y0016389D01*
X0007629Y0016300D01*
X0011200Y0016300D01*
X0011200Y0021000D01*
X0011800Y0021000D01*
X0011800Y0021600D01*
X0016500Y0021600D01*
X0016500Y0025171D01*
X0016411Y0025502D01*
X0016240Y0025798D01*
X0015998Y0026040D01*
X0015702Y0026211D01*
X0015371Y0026300D01*
X0011800Y0026300D01*
X0011800Y0021600D01*
X0011200Y0021600D01*
X0011200Y0021000D01*
X0011200Y0020664D02*
X0011800Y0020664D01*
X0011800Y0021000D02*
X0011800Y0016300D01*
X0015371Y0016300D01*
X0015702Y0016389D01*
X0015998Y0016560D01*
X0016240Y0016802D01*
X0016411Y0017098D01*
X0016500Y0017429D01*
X0016500Y0021000D01*
X0011800Y0021000D01*
X0011800Y0021263D02*
X0016900Y0021263D01*
X0016900Y0021861D02*
X0016500Y0021861D01*
X0016900Y0022215D02*
X0016900Y0020385D01*
X0017600Y0018694D01*
X0018894Y0017400D01*
X0020585Y0016700D01*
X0022415Y0016700D01*
X0024106Y0017400D01*
X0025400Y0018694D01*
X0026100Y0020385D01*
X0026100Y0022215D01*
X0025400Y0023906D01*
X0024106Y0025200D01*
X0022415Y0025900D01*
X0020585Y0025900D01*
X0018894Y0025200D01*
X0017600Y0023906D01*
X0016900Y0022215D01*
X0017001Y0022460D02*
X0016500Y0022460D01*
X0016500Y0023058D02*
X0017249Y0023058D01*
X0017497Y0023657D02*
X0016500Y0023657D01*
X0016500Y0024255D02*
X0017950Y0024255D01*
X0018548Y0024854D02*
X0016500Y0024854D01*
X0016425Y0025452D02*
X0019504Y0025452D01*
X0015980Y0026051D02*
X0033150Y0026051D01*
X0033150Y0025452D02*
X0023496Y0025452D01*
X0024452Y0024854D02*
X0033150Y0024854D01*
X0033150Y0024255D02*
X0025050Y0024255D01*
X0025503Y0023657D02*
X0033150Y0023657D01*
X0033150Y0023058D02*
X0025751Y0023058D01*
X0025999Y0022460D02*
X0033150Y0022460D01*
X0033150Y0021861D02*
X0026100Y0021861D01*
X0026100Y0021263D02*
X0033150Y0021263D01*
X0033150Y0020664D02*
X0026100Y0020664D01*
X0025968Y0020066D02*
X0033150Y0020066D01*
X0033150Y0019467D02*
X0025720Y0019467D01*
X0025472Y0018869D02*
X0033461Y0018869D01*
X0034060Y0018270D02*
X0024976Y0018270D01*
X0024377Y0017672D02*
X0034658Y0017672D01*
X0035257Y0017073D02*
X0023316Y0017073D01*
X0019684Y0017073D02*
X0016397Y0017073D01*
X0016500Y0017672D02*
X0018623Y0017672D01*
X0018024Y0018270D02*
X0016500Y0018270D01*
X0016500Y0018869D02*
X0017528Y0018869D01*
X0017280Y0019467D02*
X0016500Y0019467D01*
X0016500Y0020066D02*
X0017032Y0020066D01*
X0016900Y0020664D02*
X0016500Y0020664D01*
X0015851Y0016475D02*
X0035855Y0016475D01*
X0036454Y0015876D02*
X0006300Y0015876D01*
X0006300Y0015278D02*
X0037052Y0015278D01*
X0037651Y0014679D02*
X0006300Y0014679D01*
X0006307Y0014081D02*
X0038249Y0014081D01*
X0038848Y0013482D02*
X0006406Y0013482D01*
X0006601Y0012884D02*
X0039447Y0012884D01*
X0040045Y0012285D02*
X0006993Y0012285D01*
X0007632Y0011687D02*
X0040644Y0011687D01*
X0063316Y0017073D02*
X0068811Y0017073D01*
X0068057Y0017672D02*
X0064377Y0017672D01*
X0064976Y0018270D02*
X0067521Y0018270D01*
X0067127Y0018869D02*
X0065472Y0018869D01*
X0065720Y0019467D02*
X0066838Y0019467D01*
X0066644Y0020066D02*
X0065968Y0020066D01*
X0066100Y0020664D02*
X0066538Y0020664D01*
X0071200Y0032036D02*
X0071800Y0032036D01*
X0071800Y0032634D02*
X0071200Y0032634D01*
X0071200Y0033233D02*
X0071800Y0033233D01*
X0071800Y0033832D02*
X0071200Y0033832D01*
X0071200Y0034430D02*
X0071800Y0034430D01*
X0071800Y0035029D02*
X0071200Y0035029D01*
X0071200Y0035627D02*
X0071800Y0035627D01*
X0074021Y0035627D02*
X0079926Y0035627D01*
X0078723Y0035029D02*
X0074843Y0035029D01*
X0075406Y0034430D02*
X0078125Y0034430D01*
X0077570Y0033832D02*
X0075822Y0033832D01*
X0076127Y0033233D02*
X0077322Y0033233D01*
X0077074Y0032634D02*
X0076324Y0032634D01*
X0076446Y0032036D02*
X0076900Y0032036D01*
X0083074Y0035627D02*
X0089926Y0035627D01*
X0088723Y0035029D02*
X0084277Y0035029D01*
X0084875Y0034430D02*
X0088125Y0034430D01*
X0087570Y0033832D02*
X0085430Y0033832D01*
X0085678Y0033233D02*
X0087322Y0033233D01*
X0087074Y0032634D02*
X0085926Y0032634D01*
X0086100Y0032036D02*
X0086900Y0032036D01*
X0086900Y0031437D02*
X0086100Y0031437D01*
X0086100Y0030839D02*
X0086900Y0030839D01*
X0086960Y0030240D02*
X0086040Y0030240D01*
X0085792Y0029642D02*
X0087208Y0029642D01*
X0087456Y0029043D02*
X0085544Y0029043D01*
X0085150Y0028445D02*
X0087850Y0028445D01*
X0088448Y0027846D02*
X0084552Y0027846D01*
X0083738Y0027248D02*
X0089262Y0027248D01*
X0089504Y0025452D02*
X0083496Y0025452D01*
X0084452Y0024854D02*
X0088548Y0024854D01*
X0087950Y0024255D02*
X0085050Y0024255D01*
X0085503Y0023657D02*
X0087497Y0023657D01*
X0087249Y0023058D02*
X0085751Y0023058D01*
X0085999Y0022460D02*
X0087001Y0022460D01*
X0086900Y0021861D02*
X0086100Y0021861D01*
X0086100Y0021263D02*
X0086900Y0021263D01*
X0086900Y0020664D02*
X0086100Y0020664D01*
X0085968Y0020066D02*
X0087032Y0020066D01*
X0087280Y0019467D02*
X0085720Y0019467D01*
X0085472Y0018869D02*
X0087528Y0018869D01*
X0088024Y0018270D02*
X0084976Y0018270D01*
X0084377Y0017672D02*
X0088623Y0017672D01*
X0089684Y0017073D02*
X0083600Y0017073D01*
X0011800Y0017073D02*
X0011200Y0017073D01*
X0011200Y0016475D02*
X0011800Y0016475D01*
X0011800Y0017672D02*
X0011200Y0017672D01*
X0011200Y0018270D02*
X0011800Y0018270D01*
X0011800Y0018869D02*
X0011200Y0018869D01*
X0011200Y0019467D02*
X0011800Y0019467D01*
X0011800Y0020066D02*
X0011200Y0020066D01*
X0011200Y0021861D02*
X0011800Y0021861D01*
X0011800Y0022460D02*
X0011200Y0022460D01*
X0011200Y0023058D02*
X0011800Y0023058D01*
X0011800Y0023657D02*
X0011200Y0023657D01*
X0011200Y0024255D02*
X0011800Y0024255D01*
X0011800Y0024854D02*
X0011200Y0024854D01*
X0011200Y0025452D02*
X0011800Y0025452D01*
X0011800Y0026051D02*
X0011200Y0026051D01*
X0006500Y0020664D02*
X0006300Y0020664D01*
X0006300Y0020066D02*
X0006500Y0020066D01*
X0006500Y0019467D02*
X0006300Y0019467D01*
X0006300Y0018869D02*
X0006500Y0018869D01*
X0006500Y0018270D02*
X0006300Y0018270D01*
X0006300Y0017672D02*
X0006500Y0017672D01*
X0006603Y0017073D02*
X0006300Y0017073D01*
X0006300Y0016475D02*
X0007149Y0016475D01*
X0195473Y0036824D02*
X0197487Y0036824D01*
X0197487Y0037423D02*
X0195473Y0037423D01*
X0195473Y0038021D02*
X0197487Y0038021D01*
X0197487Y0038620D02*
X0195473Y0038620D01*
X0195453Y0039218D02*
X0197487Y0039218D01*
X0197487Y0039817D02*
X0195168Y0039817D01*
X0194978Y0063159D02*
X0197487Y0063159D01*
X0197487Y0063757D02*
X0195073Y0063757D01*
X0195073Y0064356D02*
X0197487Y0064356D01*
X0197487Y0064954D02*
X0195073Y0064954D01*
X0195073Y0065553D02*
X0197487Y0065553D01*
X0197487Y0066151D02*
X0195073Y0066151D01*
X0195073Y0066750D02*
X0197487Y0066750D01*
X0197487Y0067348D02*
X0195073Y0067348D01*
X0195073Y0067947D02*
X0197487Y0067947D01*
X0197487Y0068545D02*
X0195073Y0068545D01*
X0195073Y0069144D02*
X0197487Y0069144D01*
X0197487Y0069742D02*
X0194677Y0069742D01*
D20*
X0020250Y0103800D03*
D21*
X0015250Y0108800D01*
X0015250Y0137550D01*
X0017750Y0140050D01*
X0034000Y0140050D01*
X0036500Y0137550D01*
X0036500Y0131300D01*
X0046500Y0121300D02*
X0046500Y0110050D01*
X0035250Y0098800D01*
X0035250Y0020050D01*
X0042750Y0012550D01*
X0079000Y0012550D01*
X0081500Y0015050D01*
X0081500Y0021300D01*
X0084000Y0045050D02*
X0059000Y0045050D01*
X0051500Y0037550D01*
X0051500Y0031300D01*
X0084000Y0045050D02*
X0102750Y0063800D01*
X0102750Y0070050D01*
X0109000Y0076300D01*
X0121500Y0076300D01*
M02*
