%
M48
M72
T01C0.01969
T02C0.03200
T03C0.03346
T04C0.03543
T05C0.04000
T06C0.04724
T07C0.05118
T08C0.12598
%
T01
X20250Y103800
T02
X141500Y46300
X141500Y86300
X61500Y151300
X21500Y151300
X11500Y51300
X11500Y41300
X26500Y51300
X66500Y51300
T03
X191500Y26300
X191500Y36300
X191500Y46300
X191500Y56300
X191500Y66300
X191500Y76300
X191500Y86300
X191500Y96300
X121500Y76300
X121500Y66300
X121500Y56300
X121500Y46300
X121500Y36300
X121500Y26300
X121500Y86300
X121500Y96300
T04
X155539Y135800
X185461Y135800
T05
X66500Y131300
X56500Y131300
X46500Y131300
X36500Y131300
X26500Y131300
X26500Y121300
X36500Y121300
X46500Y121300
X56500Y121300
X66500Y121300
X56500Y101300
X46500Y61300
X66500Y61300
X61500Y31300
X51500Y31300
X51500Y21300
X61500Y21300
X71500Y21300
X81500Y21300
X91500Y21300
X91500Y31300
X81500Y31300
X71500Y31300
X21500Y21300
X11500Y21300
T06
X113500Y125615
X93815Y145300
X93815Y155143
X133185Y155143
X133185Y145300
T07
X133579Y125615
X123343Y125615
X103657Y125615
X93421Y125615
X113500Y145300
T08
X166854Y81103
X20398Y81103
M30
