G75*
%MOIN*%
%OFA0B0*%
%FSLAX25Y25*%
%IPPOS*%
%LPD*%
%AMOC8*
5,1,8,0,0,1.08239X$1,22.5*
%
%ADD10C,0.00000*%
%ADD11C,0.01000*%
%ADD12C,0.00100*%
%ADD13C,0.00500*%
%ADD14C,0.00800*%
%ADD15C,0.00200*%
%ADD16C,0.00400*%
%ADD17C,0.00600*%
%ADD18R,0.03400X0.02400*%
%ADD19R,0.02400X0.03400*%
D10*
X0014099Y0081103D02*
X0014101Y0081261D01*
X0014107Y0081419D01*
X0014117Y0081577D01*
X0014131Y0081735D01*
X0014149Y0081892D01*
X0014170Y0082049D01*
X0014196Y0082205D01*
X0014226Y0082361D01*
X0014259Y0082516D01*
X0014297Y0082669D01*
X0014338Y0082822D01*
X0014383Y0082974D01*
X0014432Y0083125D01*
X0014485Y0083274D01*
X0014541Y0083422D01*
X0014601Y0083568D01*
X0014665Y0083713D01*
X0014733Y0083856D01*
X0014804Y0083998D01*
X0014878Y0084138D01*
X0014956Y0084275D01*
X0015038Y0084411D01*
X0015122Y0084545D01*
X0015211Y0084676D01*
X0015302Y0084805D01*
X0015397Y0084932D01*
X0015494Y0085057D01*
X0015595Y0085179D01*
X0015699Y0085298D01*
X0015806Y0085415D01*
X0015916Y0085529D01*
X0016029Y0085640D01*
X0016144Y0085749D01*
X0016262Y0085854D01*
X0016383Y0085956D01*
X0016506Y0086056D01*
X0016632Y0086152D01*
X0016760Y0086245D01*
X0016890Y0086335D01*
X0017023Y0086421D01*
X0017158Y0086505D01*
X0017294Y0086584D01*
X0017433Y0086661D01*
X0017574Y0086733D01*
X0017716Y0086803D01*
X0017860Y0086868D01*
X0018006Y0086930D01*
X0018153Y0086988D01*
X0018302Y0087043D01*
X0018452Y0087094D01*
X0018603Y0087141D01*
X0018755Y0087184D01*
X0018908Y0087223D01*
X0019063Y0087259D01*
X0019218Y0087290D01*
X0019374Y0087318D01*
X0019530Y0087342D01*
X0019687Y0087362D01*
X0019845Y0087378D01*
X0020002Y0087390D01*
X0020161Y0087398D01*
X0020319Y0087402D01*
X0020477Y0087402D01*
X0020635Y0087398D01*
X0020794Y0087390D01*
X0020951Y0087378D01*
X0021109Y0087362D01*
X0021266Y0087342D01*
X0021422Y0087318D01*
X0021578Y0087290D01*
X0021733Y0087259D01*
X0021888Y0087223D01*
X0022041Y0087184D01*
X0022193Y0087141D01*
X0022344Y0087094D01*
X0022494Y0087043D01*
X0022643Y0086988D01*
X0022790Y0086930D01*
X0022936Y0086868D01*
X0023080Y0086803D01*
X0023222Y0086733D01*
X0023363Y0086661D01*
X0023502Y0086584D01*
X0023638Y0086505D01*
X0023773Y0086421D01*
X0023906Y0086335D01*
X0024036Y0086245D01*
X0024164Y0086152D01*
X0024290Y0086056D01*
X0024413Y0085956D01*
X0024534Y0085854D01*
X0024652Y0085749D01*
X0024767Y0085640D01*
X0024880Y0085529D01*
X0024990Y0085415D01*
X0025097Y0085298D01*
X0025201Y0085179D01*
X0025302Y0085057D01*
X0025399Y0084932D01*
X0025494Y0084805D01*
X0025585Y0084676D01*
X0025674Y0084545D01*
X0025758Y0084411D01*
X0025840Y0084275D01*
X0025918Y0084138D01*
X0025992Y0083998D01*
X0026063Y0083856D01*
X0026131Y0083713D01*
X0026195Y0083568D01*
X0026255Y0083422D01*
X0026311Y0083274D01*
X0026364Y0083125D01*
X0026413Y0082974D01*
X0026458Y0082822D01*
X0026499Y0082669D01*
X0026537Y0082516D01*
X0026570Y0082361D01*
X0026600Y0082205D01*
X0026626Y0082049D01*
X0026647Y0081892D01*
X0026665Y0081735D01*
X0026679Y0081577D01*
X0026689Y0081419D01*
X0026695Y0081261D01*
X0026697Y0081103D01*
X0026695Y0080945D01*
X0026689Y0080787D01*
X0026679Y0080629D01*
X0026665Y0080471D01*
X0026647Y0080314D01*
X0026626Y0080157D01*
X0026600Y0080001D01*
X0026570Y0079845D01*
X0026537Y0079690D01*
X0026499Y0079537D01*
X0026458Y0079384D01*
X0026413Y0079232D01*
X0026364Y0079081D01*
X0026311Y0078932D01*
X0026255Y0078784D01*
X0026195Y0078638D01*
X0026131Y0078493D01*
X0026063Y0078350D01*
X0025992Y0078208D01*
X0025918Y0078068D01*
X0025840Y0077931D01*
X0025758Y0077795D01*
X0025674Y0077661D01*
X0025585Y0077530D01*
X0025494Y0077401D01*
X0025399Y0077274D01*
X0025302Y0077149D01*
X0025201Y0077027D01*
X0025097Y0076908D01*
X0024990Y0076791D01*
X0024880Y0076677D01*
X0024767Y0076566D01*
X0024652Y0076457D01*
X0024534Y0076352D01*
X0024413Y0076250D01*
X0024290Y0076150D01*
X0024164Y0076054D01*
X0024036Y0075961D01*
X0023906Y0075871D01*
X0023773Y0075785D01*
X0023638Y0075701D01*
X0023502Y0075622D01*
X0023363Y0075545D01*
X0023222Y0075473D01*
X0023080Y0075403D01*
X0022936Y0075338D01*
X0022790Y0075276D01*
X0022643Y0075218D01*
X0022494Y0075163D01*
X0022344Y0075112D01*
X0022193Y0075065D01*
X0022041Y0075022D01*
X0021888Y0074983D01*
X0021733Y0074947D01*
X0021578Y0074916D01*
X0021422Y0074888D01*
X0021266Y0074864D01*
X0021109Y0074844D01*
X0020951Y0074828D01*
X0020794Y0074816D01*
X0020635Y0074808D01*
X0020477Y0074804D01*
X0020319Y0074804D01*
X0020161Y0074808D01*
X0020002Y0074816D01*
X0019845Y0074828D01*
X0019687Y0074844D01*
X0019530Y0074864D01*
X0019374Y0074888D01*
X0019218Y0074916D01*
X0019063Y0074947D01*
X0018908Y0074983D01*
X0018755Y0075022D01*
X0018603Y0075065D01*
X0018452Y0075112D01*
X0018302Y0075163D01*
X0018153Y0075218D01*
X0018006Y0075276D01*
X0017860Y0075338D01*
X0017716Y0075403D01*
X0017574Y0075473D01*
X0017433Y0075545D01*
X0017294Y0075622D01*
X0017158Y0075701D01*
X0017023Y0075785D01*
X0016890Y0075871D01*
X0016760Y0075961D01*
X0016632Y0076054D01*
X0016506Y0076150D01*
X0016383Y0076250D01*
X0016262Y0076352D01*
X0016144Y0076457D01*
X0016029Y0076566D01*
X0015916Y0076677D01*
X0015806Y0076791D01*
X0015699Y0076908D01*
X0015595Y0077027D01*
X0015494Y0077149D01*
X0015397Y0077274D01*
X0015302Y0077401D01*
X0015211Y0077530D01*
X0015122Y0077661D01*
X0015038Y0077795D01*
X0014956Y0077931D01*
X0014878Y0078068D01*
X0014804Y0078208D01*
X0014733Y0078350D01*
X0014665Y0078493D01*
X0014601Y0078638D01*
X0014541Y0078784D01*
X0014485Y0078932D01*
X0014432Y0079081D01*
X0014383Y0079232D01*
X0014338Y0079384D01*
X0014297Y0079537D01*
X0014259Y0079690D01*
X0014226Y0079845D01*
X0014196Y0080001D01*
X0014170Y0080157D01*
X0014149Y0080314D01*
X0014131Y0080471D01*
X0014117Y0080629D01*
X0014107Y0080787D01*
X0014101Y0080945D01*
X0014099Y0081103D01*
X0091453Y0145300D02*
X0091455Y0145397D01*
X0091461Y0145494D01*
X0091471Y0145590D01*
X0091485Y0145686D01*
X0091503Y0145782D01*
X0091524Y0145876D01*
X0091550Y0145970D01*
X0091579Y0146062D01*
X0091613Y0146153D01*
X0091649Y0146243D01*
X0091690Y0146331D01*
X0091734Y0146417D01*
X0091782Y0146502D01*
X0091833Y0146584D01*
X0091887Y0146665D01*
X0091945Y0146743D01*
X0092006Y0146818D01*
X0092069Y0146891D01*
X0092136Y0146962D01*
X0092206Y0147029D01*
X0092278Y0147094D01*
X0092353Y0147155D01*
X0092431Y0147214D01*
X0092510Y0147269D01*
X0092592Y0147321D01*
X0092676Y0147369D01*
X0092762Y0147414D01*
X0092850Y0147456D01*
X0092939Y0147494D01*
X0093030Y0147528D01*
X0093122Y0147558D01*
X0093215Y0147585D01*
X0093310Y0147607D01*
X0093405Y0147626D01*
X0093501Y0147641D01*
X0093597Y0147652D01*
X0093694Y0147659D01*
X0093791Y0147662D01*
X0093888Y0147661D01*
X0093985Y0147656D01*
X0094081Y0147647D01*
X0094177Y0147634D01*
X0094273Y0147617D01*
X0094368Y0147596D01*
X0094461Y0147572D01*
X0094554Y0147543D01*
X0094646Y0147511D01*
X0094736Y0147475D01*
X0094824Y0147436D01*
X0094911Y0147392D01*
X0094996Y0147346D01*
X0095079Y0147295D01*
X0095160Y0147242D01*
X0095238Y0147185D01*
X0095315Y0147125D01*
X0095388Y0147062D01*
X0095459Y0146996D01*
X0095527Y0146927D01*
X0095593Y0146855D01*
X0095655Y0146781D01*
X0095714Y0146704D01*
X0095770Y0146625D01*
X0095823Y0146543D01*
X0095873Y0146460D01*
X0095918Y0146374D01*
X0095961Y0146287D01*
X0096000Y0146198D01*
X0096035Y0146108D01*
X0096066Y0146016D01*
X0096093Y0145923D01*
X0096117Y0145829D01*
X0096137Y0145734D01*
X0096153Y0145638D01*
X0096165Y0145542D01*
X0096173Y0145445D01*
X0096177Y0145348D01*
X0096177Y0145252D01*
X0096173Y0145155D01*
X0096165Y0145058D01*
X0096153Y0144962D01*
X0096137Y0144866D01*
X0096117Y0144771D01*
X0096093Y0144677D01*
X0096066Y0144584D01*
X0096035Y0144492D01*
X0096000Y0144402D01*
X0095961Y0144313D01*
X0095918Y0144226D01*
X0095873Y0144140D01*
X0095823Y0144057D01*
X0095770Y0143975D01*
X0095714Y0143896D01*
X0095655Y0143819D01*
X0095593Y0143745D01*
X0095527Y0143673D01*
X0095459Y0143604D01*
X0095388Y0143538D01*
X0095315Y0143475D01*
X0095238Y0143415D01*
X0095160Y0143358D01*
X0095079Y0143305D01*
X0094996Y0143254D01*
X0094911Y0143208D01*
X0094824Y0143164D01*
X0094736Y0143125D01*
X0094646Y0143089D01*
X0094554Y0143057D01*
X0094461Y0143028D01*
X0094368Y0143004D01*
X0094273Y0142983D01*
X0094177Y0142966D01*
X0094081Y0142953D01*
X0093985Y0142944D01*
X0093888Y0142939D01*
X0093791Y0142938D01*
X0093694Y0142941D01*
X0093597Y0142948D01*
X0093501Y0142959D01*
X0093405Y0142974D01*
X0093310Y0142993D01*
X0093215Y0143015D01*
X0093122Y0143042D01*
X0093030Y0143072D01*
X0092939Y0143106D01*
X0092850Y0143144D01*
X0092762Y0143186D01*
X0092676Y0143231D01*
X0092592Y0143279D01*
X0092510Y0143331D01*
X0092431Y0143386D01*
X0092353Y0143445D01*
X0092278Y0143506D01*
X0092206Y0143571D01*
X0092136Y0143638D01*
X0092069Y0143709D01*
X0092006Y0143782D01*
X0091945Y0143857D01*
X0091887Y0143935D01*
X0091833Y0144016D01*
X0091782Y0144098D01*
X0091734Y0144183D01*
X0091690Y0144269D01*
X0091649Y0144357D01*
X0091613Y0144447D01*
X0091579Y0144538D01*
X0091550Y0144630D01*
X0091524Y0144724D01*
X0091503Y0144818D01*
X0091485Y0144914D01*
X0091471Y0145010D01*
X0091461Y0145106D01*
X0091455Y0145203D01*
X0091453Y0145300D01*
X0091453Y0155143D02*
X0091455Y0155240D01*
X0091461Y0155337D01*
X0091471Y0155433D01*
X0091485Y0155529D01*
X0091503Y0155625D01*
X0091524Y0155719D01*
X0091550Y0155813D01*
X0091579Y0155905D01*
X0091613Y0155996D01*
X0091649Y0156086D01*
X0091690Y0156174D01*
X0091734Y0156260D01*
X0091782Y0156345D01*
X0091833Y0156427D01*
X0091887Y0156508D01*
X0091945Y0156586D01*
X0092006Y0156661D01*
X0092069Y0156734D01*
X0092136Y0156805D01*
X0092206Y0156872D01*
X0092278Y0156937D01*
X0092353Y0156998D01*
X0092431Y0157057D01*
X0092510Y0157112D01*
X0092592Y0157164D01*
X0092676Y0157212D01*
X0092762Y0157257D01*
X0092850Y0157299D01*
X0092939Y0157337D01*
X0093030Y0157371D01*
X0093122Y0157401D01*
X0093215Y0157428D01*
X0093310Y0157450D01*
X0093405Y0157469D01*
X0093501Y0157484D01*
X0093597Y0157495D01*
X0093694Y0157502D01*
X0093791Y0157505D01*
X0093888Y0157504D01*
X0093985Y0157499D01*
X0094081Y0157490D01*
X0094177Y0157477D01*
X0094273Y0157460D01*
X0094368Y0157439D01*
X0094461Y0157415D01*
X0094554Y0157386D01*
X0094646Y0157354D01*
X0094736Y0157318D01*
X0094824Y0157279D01*
X0094911Y0157235D01*
X0094996Y0157189D01*
X0095079Y0157138D01*
X0095160Y0157085D01*
X0095238Y0157028D01*
X0095315Y0156968D01*
X0095388Y0156905D01*
X0095459Y0156839D01*
X0095527Y0156770D01*
X0095593Y0156698D01*
X0095655Y0156624D01*
X0095714Y0156547D01*
X0095770Y0156468D01*
X0095823Y0156386D01*
X0095873Y0156303D01*
X0095918Y0156217D01*
X0095961Y0156130D01*
X0096000Y0156041D01*
X0096035Y0155951D01*
X0096066Y0155859D01*
X0096093Y0155766D01*
X0096117Y0155672D01*
X0096137Y0155577D01*
X0096153Y0155481D01*
X0096165Y0155385D01*
X0096173Y0155288D01*
X0096177Y0155191D01*
X0096177Y0155095D01*
X0096173Y0154998D01*
X0096165Y0154901D01*
X0096153Y0154805D01*
X0096137Y0154709D01*
X0096117Y0154614D01*
X0096093Y0154520D01*
X0096066Y0154427D01*
X0096035Y0154335D01*
X0096000Y0154245D01*
X0095961Y0154156D01*
X0095918Y0154069D01*
X0095873Y0153983D01*
X0095823Y0153900D01*
X0095770Y0153818D01*
X0095714Y0153739D01*
X0095655Y0153662D01*
X0095593Y0153588D01*
X0095527Y0153516D01*
X0095459Y0153447D01*
X0095388Y0153381D01*
X0095315Y0153318D01*
X0095238Y0153258D01*
X0095160Y0153201D01*
X0095079Y0153148D01*
X0094996Y0153097D01*
X0094911Y0153051D01*
X0094824Y0153007D01*
X0094736Y0152968D01*
X0094646Y0152932D01*
X0094554Y0152900D01*
X0094461Y0152871D01*
X0094368Y0152847D01*
X0094273Y0152826D01*
X0094177Y0152809D01*
X0094081Y0152796D01*
X0093985Y0152787D01*
X0093888Y0152782D01*
X0093791Y0152781D01*
X0093694Y0152784D01*
X0093597Y0152791D01*
X0093501Y0152802D01*
X0093405Y0152817D01*
X0093310Y0152836D01*
X0093215Y0152858D01*
X0093122Y0152885D01*
X0093030Y0152915D01*
X0092939Y0152949D01*
X0092850Y0152987D01*
X0092762Y0153029D01*
X0092676Y0153074D01*
X0092592Y0153122D01*
X0092510Y0153174D01*
X0092431Y0153229D01*
X0092353Y0153288D01*
X0092278Y0153349D01*
X0092206Y0153414D01*
X0092136Y0153481D01*
X0092069Y0153552D01*
X0092006Y0153625D01*
X0091945Y0153700D01*
X0091887Y0153778D01*
X0091833Y0153859D01*
X0091782Y0153941D01*
X0091734Y0154026D01*
X0091690Y0154112D01*
X0091649Y0154200D01*
X0091613Y0154290D01*
X0091579Y0154381D01*
X0091550Y0154473D01*
X0091524Y0154567D01*
X0091503Y0154661D01*
X0091485Y0154757D01*
X0091471Y0154853D01*
X0091461Y0154949D01*
X0091455Y0155046D01*
X0091453Y0155143D01*
X0111138Y0125615D02*
X0111140Y0125712D01*
X0111146Y0125809D01*
X0111156Y0125905D01*
X0111170Y0126001D01*
X0111188Y0126097D01*
X0111209Y0126191D01*
X0111235Y0126285D01*
X0111264Y0126377D01*
X0111298Y0126468D01*
X0111334Y0126558D01*
X0111375Y0126646D01*
X0111419Y0126732D01*
X0111467Y0126817D01*
X0111518Y0126899D01*
X0111572Y0126980D01*
X0111630Y0127058D01*
X0111691Y0127133D01*
X0111754Y0127206D01*
X0111821Y0127277D01*
X0111891Y0127344D01*
X0111963Y0127409D01*
X0112038Y0127470D01*
X0112116Y0127529D01*
X0112195Y0127584D01*
X0112277Y0127636D01*
X0112361Y0127684D01*
X0112447Y0127729D01*
X0112535Y0127771D01*
X0112624Y0127809D01*
X0112715Y0127843D01*
X0112807Y0127873D01*
X0112900Y0127900D01*
X0112995Y0127922D01*
X0113090Y0127941D01*
X0113186Y0127956D01*
X0113282Y0127967D01*
X0113379Y0127974D01*
X0113476Y0127977D01*
X0113573Y0127976D01*
X0113670Y0127971D01*
X0113766Y0127962D01*
X0113862Y0127949D01*
X0113958Y0127932D01*
X0114053Y0127911D01*
X0114146Y0127887D01*
X0114239Y0127858D01*
X0114331Y0127826D01*
X0114421Y0127790D01*
X0114509Y0127751D01*
X0114596Y0127707D01*
X0114681Y0127661D01*
X0114764Y0127610D01*
X0114845Y0127557D01*
X0114923Y0127500D01*
X0115000Y0127440D01*
X0115073Y0127377D01*
X0115144Y0127311D01*
X0115212Y0127242D01*
X0115278Y0127170D01*
X0115340Y0127096D01*
X0115399Y0127019D01*
X0115455Y0126940D01*
X0115508Y0126858D01*
X0115558Y0126775D01*
X0115603Y0126689D01*
X0115646Y0126602D01*
X0115685Y0126513D01*
X0115720Y0126423D01*
X0115751Y0126331D01*
X0115778Y0126238D01*
X0115802Y0126144D01*
X0115822Y0126049D01*
X0115838Y0125953D01*
X0115850Y0125857D01*
X0115858Y0125760D01*
X0115862Y0125663D01*
X0115862Y0125567D01*
X0115858Y0125470D01*
X0115850Y0125373D01*
X0115838Y0125277D01*
X0115822Y0125181D01*
X0115802Y0125086D01*
X0115778Y0124992D01*
X0115751Y0124899D01*
X0115720Y0124807D01*
X0115685Y0124717D01*
X0115646Y0124628D01*
X0115603Y0124541D01*
X0115558Y0124455D01*
X0115508Y0124372D01*
X0115455Y0124290D01*
X0115399Y0124211D01*
X0115340Y0124134D01*
X0115278Y0124060D01*
X0115212Y0123988D01*
X0115144Y0123919D01*
X0115073Y0123853D01*
X0115000Y0123790D01*
X0114923Y0123730D01*
X0114845Y0123673D01*
X0114764Y0123620D01*
X0114681Y0123569D01*
X0114596Y0123523D01*
X0114509Y0123479D01*
X0114421Y0123440D01*
X0114331Y0123404D01*
X0114239Y0123372D01*
X0114146Y0123343D01*
X0114053Y0123319D01*
X0113958Y0123298D01*
X0113862Y0123281D01*
X0113766Y0123268D01*
X0113670Y0123259D01*
X0113573Y0123254D01*
X0113476Y0123253D01*
X0113379Y0123256D01*
X0113282Y0123263D01*
X0113186Y0123274D01*
X0113090Y0123289D01*
X0112995Y0123308D01*
X0112900Y0123330D01*
X0112807Y0123357D01*
X0112715Y0123387D01*
X0112624Y0123421D01*
X0112535Y0123459D01*
X0112447Y0123501D01*
X0112361Y0123546D01*
X0112277Y0123594D01*
X0112195Y0123646D01*
X0112116Y0123701D01*
X0112038Y0123760D01*
X0111963Y0123821D01*
X0111891Y0123886D01*
X0111821Y0123953D01*
X0111754Y0124024D01*
X0111691Y0124097D01*
X0111630Y0124172D01*
X0111572Y0124250D01*
X0111518Y0124331D01*
X0111467Y0124413D01*
X0111419Y0124498D01*
X0111375Y0124584D01*
X0111334Y0124672D01*
X0111298Y0124762D01*
X0111264Y0124853D01*
X0111235Y0124945D01*
X0111209Y0125039D01*
X0111188Y0125133D01*
X0111170Y0125229D01*
X0111156Y0125325D01*
X0111146Y0125421D01*
X0111140Y0125518D01*
X0111138Y0125615D01*
X0130823Y0145300D02*
X0130825Y0145397D01*
X0130831Y0145494D01*
X0130841Y0145590D01*
X0130855Y0145686D01*
X0130873Y0145782D01*
X0130894Y0145876D01*
X0130920Y0145970D01*
X0130949Y0146062D01*
X0130983Y0146153D01*
X0131019Y0146243D01*
X0131060Y0146331D01*
X0131104Y0146417D01*
X0131152Y0146502D01*
X0131203Y0146584D01*
X0131257Y0146665D01*
X0131315Y0146743D01*
X0131376Y0146818D01*
X0131439Y0146891D01*
X0131506Y0146962D01*
X0131576Y0147029D01*
X0131648Y0147094D01*
X0131723Y0147155D01*
X0131801Y0147214D01*
X0131880Y0147269D01*
X0131962Y0147321D01*
X0132046Y0147369D01*
X0132132Y0147414D01*
X0132220Y0147456D01*
X0132309Y0147494D01*
X0132400Y0147528D01*
X0132492Y0147558D01*
X0132585Y0147585D01*
X0132680Y0147607D01*
X0132775Y0147626D01*
X0132871Y0147641D01*
X0132967Y0147652D01*
X0133064Y0147659D01*
X0133161Y0147662D01*
X0133258Y0147661D01*
X0133355Y0147656D01*
X0133451Y0147647D01*
X0133547Y0147634D01*
X0133643Y0147617D01*
X0133738Y0147596D01*
X0133831Y0147572D01*
X0133924Y0147543D01*
X0134016Y0147511D01*
X0134106Y0147475D01*
X0134194Y0147436D01*
X0134281Y0147392D01*
X0134366Y0147346D01*
X0134449Y0147295D01*
X0134530Y0147242D01*
X0134608Y0147185D01*
X0134685Y0147125D01*
X0134758Y0147062D01*
X0134829Y0146996D01*
X0134897Y0146927D01*
X0134963Y0146855D01*
X0135025Y0146781D01*
X0135084Y0146704D01*
X0135140Y0146625D01*
X0135193Y0146543D01*
X0135243Y0146460D01*
X0135288Y0146374D01*
X0135331Y0146287D01*
X0135370Y0146198D01*
X0135405Y0146108D01*
X0135436Y0146016D01*
X0135463Y0145923D01*
X0135487Y0145829D01*
X0135507Y0145734D01*
X0135523Y0145638D01*
X0135535Y0145542D01*
X0135543Y0145445D01*
X0135547Y0145348D01*
X0135547Y0145252D01*
X0135543Y0145155D01*
X0135535Y0145058D01*
X0135523Y0144962D01*
X0135507Y0144866D01*
X0135487Y0144771D01*
X0135463Y0144677D01*
X0135436Y0144584D01*
X0135405Y0144492D01*
X0135370Y0144402D01*
X0135331Y0144313D01*
X0135288Y0144226D01*
X0135243Y0144140D01*
X0135193Y0144057D01*
X0135140Y0143975D01*
X0135084Y0143896D01*
X0135025Y0143819D01*
X0134963Y0143745D01*
X0134897Y0143673D01*
X0134829Y0143604D01*
X0134758Y0143538D01*
X0134685Y0143475D01*
X0134608Y0143415D01*
X0134530Y0143358D01*
X0134449Y0143305D01*
X0134366Y0143254D01*
X0134281Y0143208D01*
X0134194Y0143164D01*
X0134106Y0143125D01*
X0134016Y0143089D01*
X0133924Y0143057D01*
X0133831Y0143028D01*
X0133738Y0143004D01*
X0133643Y0142983D01*
X0133547Y0142966D01*
X0133451Y0142953D01*
X0133355Y0142944D01*
X0133258Y0142939D01*
X0133161Y0142938D01*
X0133064Y0142941D01*
X0132967Y0142948D01*
X0132871Y0142959D01*
X0132775Y0142974D01*
X0132680Y0142993D01*
X0132585Y0143015D01*
X0132492Y0143042D01*
X0132400Y0143072D01*
X0132309Y0143106D01*
X0132220Y0143144D01*
X0132132Y0143186D01*
X0132046Y0143231D01*
X0131962Y0143279D01*
X0131880Y0143331D01*
X0131801Y0143386D01*
X0131723Y0143445D01*
X0131648Y0143506D01*
X0131576Y0143571D01*
X0131506Y0143638D01*
X0131439Y0143709D01*
X0131376Y0143782D01*
X0131315Y0143857D01*
X0131257Y0143935D01*
X0131203Y0144016D01*
X0131152Y0144098D01*
X0131104Y0144183D01*
X0131060Y0144269D01*
X0131019Y0144357D01*
X0130983Y0144447D01*
X0130949Y0144538D01*
X0130920Y0144630D01*
X0130894Y0144724D01*
X0130873Y0144818D01*
X0130855Y0144914D01*
X0130841Y0145010D01*
X0130831Y0145106D01*
X0130825Y0145203D01*
X0130823Y0145300D01*
X0130823Y0155143D02*
X0130825Y0155240D01*
X0130831Y0155337D01*
X0130841Y0155433D01*
X0130855Y0155529D01*
X0130873Y0155625D01*
X0130894Y0155719D01*
X0130920Y0155813D01*
X0130949Y0155905D01*
X0130983Y0155996D01*
X0131019Y0156086D01*
X0131060Y0156174D01*
X0131104Y0156260D01*
X0131152Y0156345D01*
X0131203Y0156427D01*
X0131257Y0156508D01*
X0131315Y0156586D01*
X0131376Y0156661D01*
X0131439Y0156734D01*
X0131506Y0156805D01*
X0131576Y0156872D01*
X0131648Y0156937D01*
X0131723Y0156998D01*
X0131801Y0157057D01*
X0131880Y0157112D01*
X0131962Y0157164D01*
X0132046Y0157212D01*
X0132132Y0157257D01*
X0132220Y0157299D01*
X0132309Y0157337D01*
X0132400Y0157371D01*
X0132492Y0157401D01*
X0132585Y0157428D01*
X0132680Y0157450D01*
X0132775Y0157469D01*
X0132871Y0157484D01*
X0132967Y0157495D01*
X0133064Y0157502D01*
X0133161Y0157505D01*
X0133258Y0157504D01*
X0133355Y0157499D01*
X0133451Y0157490D01*
X0133547Y0157477D01*
X0133643Y0157460D01*
X0133738Y0157439D01*
X0133831Y0157415D01*
X0133924Y0157386D01*
X0134016Y0157354D01*
X0134106Y0157318D01*
X0134194Y0157279D01*
X0134281Y0157235D01*
X0134366Y0157189D01*
X0134449Y0157138D01*
X0134530Y0157085D01*
X0134608Y0157028D01*
X0134685Y0156968D01*
X0134758Y0156905D01*
X0134829Y0156839D01*
X0134897Y0156770D01*
X0134963Y0156698D01*
X0135025Y0156624D01*
X0135084Y0156547D01*
X0135140Y0156468D01*
X0135193Y0156386D01*
X0135243Y0156303D01*
X0135288Y0156217D01*
X0135331Y0156130D01*
X0135370Y0156041D01*
X0135405Y0155951D01*
X0135436Y0155859D01*
X0135463Y0155766D01*
X0135487Y0155672D01*
X0135507Y0155577D01*
X0135523Y0155481D01*
X0135535Y0155385D01*
X0135543Y0155288D01*
X0135547Y0155191D01*
X0135547Y0155095D01*
X0135543Y0154998D01*
X0135535Y0154901D01*
X0135523Y0154805D01*
X0135507Y0154709D01*
X0135487Y0154614D01*
X0135463Y0154520D01*
X0135436Y0154427D01*
X0135405Y0154335D01*
X0135370Y0154245D01*
X0135331Y0154156D01*
X0135288Y0154069D01*
X0135243Y0153983D01*
X0135193Y0153900D01*
X0135140Y0153818D01*
X0135084Y0153739D01*
X0135025Y0153662D01*
X0134963Y0153588D01*
X0134897Y0153516D01*
X0134829Y0153447D01*
X0134758Y0153381D01*
X0134685Y0153318D01*
X0134608Y0153258D01*
X0134530Y0153201D01*
X0134449Y0153148D01*
X0134366Y0153097D01*
X0134281Y0153051D01*
X0134194Y0153007D01*
X0134106Y0152968D01*
X0134016Y0152932D01*
X0133924Y0152900D01*
X0133831Y0152871D01*
X0133738Y0152847D01*
X0133643Y0152826D01*
X0133547Y0152809D01*
X0133451Y0152796D01*
X0133355Y0152787D01*
X0133258Y0152782D01*
X0133161Y0152781D01*
X0133064Y0152784D01*
X0132967Y0152791D01*
X0132871Y0152802D01*
X0132775Y0152817D01*
X0132680Y0152836D01*
X0132585Y0152858D01*
X0132492Y0152885D01*
X0132400Y0152915D01*
X0132309Y0152949D01*
X0132220Y0152987D01*
X0132132Y0153029D01*
X0132046Y0153074D01*
X0131962Y0153122D01*
X0131880Y0153174D01*
X0131801Y0153229D01*
X0131723Y0153288D01*
X0131648Y0153349D01*
X0131576Y0153414D01*
X0131506Y0153481D01*
X0131439Y0153552D01*
X0131376Y0153625D01*
X0131315Y0153700D01*
X0131257Y0153778D01*
X0131203Y0153859D01*
X0131152Y0153941D01*
X0131104Y0154026D01*
X0131060Y0154112D01*
X0131019Y0154200D01*
X0130983Y0154290D01*
X0130949Y0154381D01*
X0130920Y0154473D01*
X0130894Y0154567D01*
X0130873Y0154661D01*
X0130855Y0154757D01*
X0130841Y0154853D01*
X0130831Y0154949D01*
X0130825Y0155046D01*
X0130823Y0155143D01*
X0160555Y0081103D02*
X0160557Y0081261D01*
X0160563Y0081419D01*
X0160573Y0081577D01*
X0160587Y0081735D01*
X0160605Y0081892D01*
X0160626Y0082049D01*
X0160652Y0082205D01*
X0160682Y0082361D01*
X0160715Y0082516D01*
X0160753Y0082669D01*
X0160794Y0082822D01*
X0160839Y0082974D01*
X0160888Y0083125D01*
X0160941Y0083274D01*
X0160997Y0083422D01*
X0161057Y0083568D01*
X0161121Y0083713D01*
X0161189Y0083856D01*
X0161260Y0083998D01*
X0161334Y0084138D01*
X0161412Y0084275D01*
X0161494Y0084411D01*
X0161578Y0084545D01*
X0161667Y0084676D01*
X0161758Y0084805D01*
X0161853Y0084932D01*
X0161950Y0085057D01*
X0162051Y0085179D01*
X0162155Y0085298D01*
X0162262Y0085415D01*
X0162372Y0085529D01*
X0162485Y0085640D01*
X0162600Y0085749D01*
X0162718Y0085854D01*
X0162839Y0085956D01*
X0162962Y0086056D01*
X0163088Y0086152D01*
X0163216Y0086245D01*
X0163346Y0086335D01*
X0163479Y0086421D01*
X0163614Y0086505D01*
X0163750Y0086584D01*
X0163889Y0086661D01*
X0164030Y0086733D01*
X0164172Y0086803D01*
X0164316Y0086868D01*
X0164462Y0086930D01*
X0164609Y0086988D01*
X0164758Y0087043D01*
X0164908Y0087094D01*
X0165059Y0087141D01*
X0165211Y0087184D01*
X0165364Y0087223D01*
X0165519Y0087259D01*
X0165674Y0087290D01*
X0165830Y0087318D01*
X0165986Y0087342D01*
X0166143Y0087362D01*
X0166301Y0087378D01*
X0166458Y0087390D01*
X0166617Y0087398D01*
X0166775Y0087402D01*
X0166933Y0087402D01*
X0167091Y0087398D01*
X0167250Y0087390D01*
X0167407Y0087378D01*
X0167565Y0087362D01*
X0167722Y0087342D01*
X0167878Y0087318D01*
X0168034Y0087290D01*
X0168189Y0087259D01*
X0168344Y0087223D01*
X0168497Y0087184D01*
X0168649Y0087141D01*
X0168800Y0087094D01*
X0168950Y0087043D01*
X0169099Y0086988D01*
X0169246Y0086930D01*
X0169392Y0086868D01*
X0169536Y0086803D01*
X0169678Y0086733D01*
X0169819Y0086661D01*
X0169958Y0086584D01*
X0170094Y0086505D01*
X0170229Y0086421D01*
X0170362Y0086335D01*
X0170492Y0086245D01*
X0170620Y0086152D01*
X0170746Y0086056D01*
X0170869Y0085956D01*
X0170990Y0085854D01*
X0171108Y0085749D01*
X0171223Y0085640D01*
X0171336Y0085529D01*
X0171446Y0085415D01*
X0171553Y0085298D01*
X0171657Y0085179D01*
X0171758Y0085057D01*
X0171855Y0084932D01*
X0171950Y0084805D01*
X0172041Y0084676D01*
X0172130Y0084545D01*
X0172214Y0084411D01*
X0172296Y0084275D01*
X0172374Y0084138D01*
X0172448Y0083998D01*
X0172519Y0083856D01*
X0172587Y0083713D01*
X0172651Y0083568D01*
X0172711Y0083422D01*
X0172767Y0083274D01*
X0172820Y0083125D01*
X0172869Y0082974D01*
X0172914Y0082822D01*
X0172955Y0082669D01*
X0172993Y0082516D01*
X0173026Y0082361D01*
X0173056Y0082205D01*
X0173082Y0082049D01*
X0173103Y0081892D01*
X0173121Y0081735D01*
X0173135Y0081577D01*
X0173145Y0081419D01*
X0173151Y0081261D01*
X0173153Y0081103D01*
X0173151Y0080945D01*
X0173145Y0080787D01*
X0173135Y0080629D01*
X0173121Y0080471D01*
X0173103Y0080314D01*
X0173082Y0080157D01*
X0173056Y0080001D01*
X0173026Y0079845D01*
X0172993Y0079690D01*
X0172955Y0079537D01*
X0172914Y0079384D01*
X0172869Y0079232D01*
X0172820Y0079081D01*
X0172767Y0078932D01*
X0172711Y0078784D01*
X0172651Y0078638D01*
X0172587Y0078493D01*
X0172519Y0078350D01*
X0172448Y0078208D01*
X0172374Y0078068D01*
X0172296Y0077931D01*
X0172214Y0077795D01*
X0172130Y0077661D01*
X0172041Y0077530D01*
X0171950Y0077401D01*
X0171855Y0077274D01*
X0171758Y0077149D01*
X0171657Y0077027D01*
X0171553Y0076908D01*
X0171446Y0076791D01*
X0171336Y0076677D01*
X0171223Y0076566D01*
X0171108Y0076457D01*
X0170990Y0076352D01*
X0170869Y0076250D01*
X0170746Y0076150D01*
X0170620Y0076054D01*
X0170492Y0075961D01*
X0170362Y0075871D01*
X0170229Y0075785D01*
X0170094Y0075701D01*
X0169958Y0075622D01*
X0169819Y0075545D01*
X0169678Y0075473D01*
X0169536Y0075403D01*
X0169392Y0075338D01*
X0169246Y0075276D01*
X0169099Y0075218D01*
X0168950Y0075163D01*
X0168800Y0075112D01*
X0168649Y0075065D01*
X0168497Y0075022D01*
X0168344Y0074983D01*
X0168189Y0074947D01*
X0168034Y0074916D01*
X0167878Y0074888D01*
X0167722Y0074864D01*
X0167565Y0074844D01*
X0167407Y0074828D01*
X0167250Y0074816D01*
X0167091Y0074808D01*
X0166933Y0074804D01*
X0166775Y0074804D01*
X0166617Y0074808D01*
X0166458Y0074816D01*
X0166301Y0074828D01*
X0166143Y0074844D01*
X0165986Y0074864D01*
X0165830Y0074888D01*
X0165674Y0074916D01*
X0165519Y0074947D01*
X0165364Y0074983D01*
X0165211Y0075022D01*
X0165059Y0075065D01*
X0164908Y0075112D01*
X0164758Y0075163D01*
X0164609Y0075218D01*
X0164462Y0075276D01*
X0164316Y0075338D01*
X0164172Y0075403D01*
X0164030Y0075473D01*
X0163889Y0075545D01*
X0163750Y0075622D01*
X0163614Y0075701D01*
X0163479Y0075785D01*
X0163346Y0075871D01*
X0163216Y0075961D01*
X0163088Y0076054D01*
X0162962Y0076150D01*
X0162839Y0076250D01*
X0162718Y0076352D01*
X0162600Y0076457D01*
X0162485Y0076566D01*
X0162372Y0076677D01*
X0162262Y0076791D01*
X0162155Y0076908D01*
X0162051Y0077027D01*
X0161950Y0077149D01*
X0161853Y0077274D01*
X0161758Y0077401D01*
X0161667Y0077530D01*
X0161578Y0077661D01*
X0161494Y0077795D01*
X0161412Y0077931D01*
X0161334Y0078068D01*
X0161260Y0078208D01*
X0161189Y0078350D01*
X0161121Y0078493D01*
X0161057Y0078638D01*
X0160997Y0078784D01*
X0160941Y0078932D01*
X0160888Y0079081D01*
X0160839Y0079232D01*
X0160794Y0079384D01*
X0160753Y0079537D01*
X0160715Y0079690D01*
X0160682Y0079845D01*
X0160652Y0080001D01*
X0160626Y0080157D01*
X0160605Y0080314D01*
X0160587Y0080471D01*
X0160573Y0080629D01*
X0160563Y0080787D01*
X0160557Y0080945D01*
X0160555Y0081103D01*
D11*
X0194413Y0006300D02*
X0009374Y0006300D01*
X0009184Y0006302D01*
X0008994Y0006309D01*
X0008804Y0006321D01*
X0008614Y0006337D01*
X0008425Y0006357D01*
X0008236Y0006383D01*
X0008048Y0006412D01*
X0007861Y0006447D01*
X0007675Y0006486D01*
X0007490Y0006529D01*
X0007305Y0006577D01*
X0007122Y0006629D01*
X0006941Y0006685D01*
X0006761Y0006746D01*
X0006582Y0006812D01*
X0006405Y0006881D01*
X0006229Y0006955D01*
X0006056Y0007033D01*
X0005884Y0007116D01*
X0005715Y0007202D01*
X0005547Y0007292D01*
X0005382Y0007387D01*
X0005219Y0007485D01*
X0005059Y0007588D01*
X0004901Y0007694D01*
X0004746Y0007804D01*
X0004593Y0007917D01*
X0004443Y0008035D01*
X0004297Y0008156D01*
X0004153Y0008280D01*
X0004012Y0008408D01*
X0003874Y0008539D01*
X0003739Y0008674D01*
X0003608Y0008812D01*
X0003480Y0008953D01*
X0003356Y0009097D01*
X0003235Y0009243D01*
X0003117Y0009393D01*
X0003004Y0009546D01*
X0002894Y0009701D01*
X0002788Y0009859D01*
X0002685Y0010019D01*
X0002587Y0010182D01*
X0002492Y0010347D01*
X0002402Y0010515D01*
X0002316Y0010684D01*
X0002233Y0010856D01*
X0002155Y0011029D01*
X0002081Y0011205D01*
X0002012Y0011382D01*
X0001946Y0011561D01*
X0001885Y0011741D01*
X0001829Y0011922D01*
X0001777Y0012105D01*
X0001729Y0012290D01*
X0001686Y0012475D01*
X0001647Y0012661D01*
X0001612Y0012848D01*
X0001583Y0013036D01*
X0001557Y0013225D01*
X0001537Y0013414D01*
X0001521Y0013604D01*
X0001509Y0013794D01*
X0001502Y0013984D01*
X0001500Y0014174D01*
X0001500Y0151969D01*
X0001502Y0152159D01*
X0001509Y0152349D01*
X0001521Y0152539D01*
X0001537Y0152729D01*
X0001557Y0152918D01*
X0001583Y0153107D01*
X0001612Y0153295D01*
X0001647Y0153482D01*
X0001686Y0153668D01*
X0001729Y0153853D01*
X0001777Y0154038D01*
X0001829Y0154221D01*
X0001885Y0154402D01*
X0001946Y0154582D01*
X0002012Y0154761D01*
X0002081Y0154938D01*
X0002155Y0155114D01*
X0002233Y0155287D01*
X0002316Y0155459D01*
X0002402Y0155628D01*
X0002492Y0155796D01*
X0002587Y0155961D01*
X0002685Y0156124D01*
X0002788Y0156284D01*
X0002894Y0156442D01*
X0003004Y0156597D01*
X0003117Y0156750D01*
X0003235Y0156900D01*
X0003356Y0157046D01*
X0003480Y0157190D01*
X0003608Y0157331D01*
X0003739Y0157469D01*
X0003874Y0157604D01*
X0004012Y0157735D01*
X0004153Y0157863D01*
X0004297Y0157987D01*
X0004443Y0158108D01*
X0004593Y0158226D01*
X0004746Y0158339D01*
X0004901Y0158449D01*
X0005059Y0158555D01*
X0005219Y0158658D01*
X0005382Y0158756D01*
X0005547Y0158851D01*
X0005715Y0158941D01*
X0005884Y0159027D01*
X0006056Y0159110D01*
X0006229Y0159188D01*
X0006405Y0159262D01*
X0006582Y0159331D01*
X0006761Y0159397D01*
X0006941Y0159458D01*
X0007122Y0159514D01*
X0007305Y0159566D01*
X0007490Y0159614D01*
X0007675Y0159657D01*
X0007861Y0159696D01*
X0008048Y0159731D01*
X0008236Y0159760D01*
X0008425Y0159786D01*
X0008614Y0159806D01*
X0008804Y0159822D01*
X0008994Y0159834D01*
X0009184Y0159841D01*
X0009374Y0159843D01*
X0194413Y0159843D01*
X0194603Y0159841D01*
X0194793Y0159834D01*
X0194983Y0159822D01*
X0195173Y0159806D01*
X0195362Y0159786D01*
X0195551Y0159760D01*
X0195739Y0159731D01*
X0195926Y0159696D01*
X0196112Y0159657D01*
X0196297Y0159614D01*
X0196482Y0159566D01*
X0196665Y0159514D01*
X0196846Y0159458D01*
X0197026Y0159397D01*
X0197205Y0159331D01*
X0197382Y0159262D01*
X0197558Y0159188D01*
X0197731Y0159110D01*
X0197903Y0159027D01*
X0198072Y0158941D01*
X0198240Y0158851D01*
X0198405Y0158756D01*
X0198568Y0158658D01*
X0198728Y0158555D01*
X0198886Y0158449D01*
X0199041Y0158339D01*
X0199194Y0158226D01*
X0199344Y0158108D01*
X0199490Y0157987D01*
X0199634Y0157863D01*
X0199775Y0157735D01*
X0199913Y0157604D01*
X0200048Y0157469D01*
X0200179Y0157331D01*
X0200307Y0157190D01*
X0200431Y0157046D01*
X0200552Y0156900D01*
X0200670Y0156750D01*
X0200783Y0156597D01*
X0200893Y0156442D01*
X0200999Y0156284D01*
X0201102Y0156124D01*
X0201200Y0155961D01*
X0201295Y0155796D01*
X0201385Y0155628D01*
X0201471Y0155459D01*
X0201554Y0155287D01*
X0201632Y0155114D01*
X0201706Y0154938D01*
X0201775Y0154761D01*
X0201841Y0154582D01*
X0201902Y0154402D01*
X0201958Y0154221D01*
X0202010Y0154038D01*
X0202058Y0153853D01*
X0202101Y0153668D01*
X0202140Y0153482D01*
X0202175Y0153295D01*
X0202204Y0153107D01*
X0202230Y0152918D01*
X0202250Y0152729D01*
X0202266Y0152539D01*
X0202278Y0152349D01*
X0202285Y0152159D01*
X0202287Y0151969D01*
X0202287Y0014174D01*
X0202285Y0013984D01*
X0202278Y0013794D01*
X0202266Y0013604D01*
X0202250Y0013414D01*
X0202230Y0013225D01*
X0202204Y0013036D01*
X0202175Y0012848D01*
X0202140Y0012661D01*
X0202101Y0012475D01*
X0202058Y0012290D01*
X0202010Y0012105D01*
X0201958Y0011922D01*
X0201902Y0011741D01*
X0201841Y0011561D01*
X0201775Y0011382D01*
X0201706Y0011205D01*
X0201632Y0011029D01*
X0201554Y0010856D01*
X0201471Y0010684D01*
X0201385Y0010515D01*
X0201295Y0010347D01*
X0201200Y0010182D01*
X0201102Y0010019D01*
X0200999Y0009859D01*
X0200893Y0009701D01*
X0200783Y0009546D01*
X0200670Y0009393D01*
X0200552Y0009243D01*
X0200431Y0009097D01*
X0200307Y0008953D01*
X0200179Y0008812D01*
X0200048Y0008674D01*
X0199913Y0008539D01*
X0199775Y0008408D01*
X0199634Y0008280D01*
X0199490Y0008156D01*
X0199344Y0008035D01*
X0199194Y0007917D01*
X0199041Y0007804D01*
X0198886Y0007694D01*
X0198728Y0007588D01*
X0198568Y0007485D01*
X0198405Y0007387D01*
X0198240Y0007292D01*
X0198072Y0007202D01*
X0197903Y0007116D01*
X0197731Y0007033D01*
X0197558Y0006955D01*
X0197382Y0006881D01*
X0197205Y0006812D01*
X0197026Y0006746D01*
X0196846Y0006685D01*
X0196665Y0006629D01*
X0196482Y0006577D01*
X0196297Y0006529D01*
X0196112Y0006486D01*
X0195926Y0006447D01*
X0195739Y0006412D01*
X0195551Y0006383D01*
X0195362Y0006357D01*
X0195173Y0006337D01*
X0194983Y0006321D01*
X0194793Y0006309D01*
X0194603Y0006302D01*
X0194413Y0006300D01*
X0016600Y0040100D02*
X0014600Y0040100D01*
X0008200Y0040100D02*
X0006400Y0040100D01*
D12*
X0019949Y0046350D02*
X0019049Y0046350D01*
X0019050Y0046350D02*
X0019046Y0046533D01*
X0019039Y0046716D01*
X0019026Y0046899D01*
X0019009Y0047082D01*
X0018988Y0047264D01*
X0018963Y0047445D01*
X0018933Y0047626D01*
X0018898Y0047806D01*
X0018860Y0047985D01*
X0018817Y0048163D01*
X0018769Y0048340D01*
X0018718Y0048515D01*
X0018662Y0048690D01*
X0018602Y0048863D01*
X0018537Y0049034D01*
X0018469Y0049204D01*
X0018397Y0049373D01*
X0018320Y0049539D01*
X0018239Y0049703D01*
X0018155Y0049866D01*
X0018066Y0050026D01*
X0017974Y0050185D01*
X0017878Y0050341D01*
X0017778Y0050494D01*
X0017674Y0050645D01*
X0017567Y0050794D01*
X0017456Y0050940D01*
X0017342Y0051083D01*
X0017224Y0051223D01*
X0017103Y0051360D01*
X0016979Y0051495D01*
X0016851Y0051626D01*
X0016720Y0051755D01*
X0016586Y0051880D01*
X0016450Y0052001D01*
X0016310Y0052120D01*
X0016167Y0052235D01*
X0016022Y0052346D01*
X0015874Y0052454D01*
X0015723Y0052558D01*
X0015570Y0052659D01*
X0015415Y0052756D01*
X0015257Y0052849D01*
X0015097Y0052938D01*
X0015520Y0053732D01*
X0015700Y0053632D01*
X0015877Y0053528D01*
X0016051Y0053420D01*
X0016223Y0053307D01*
X0016391Y0053190D01*
X0016557Y0053069D01*
X0016720Y0052945D01*
X0016880Y0052816D01*
X0017037Y0052683D01*
X0017190Y0052547D01*
X0017340Y0052407D01*
X0017487Y0052263D01*
X0017630Y0052116D01*
X0017770Y0051965D01*
X0017905Y0051811D01*
X0018037Y0051654D01*
X0018165Y0051494D01*
X0018290Y0051330D01*
X0018410Y0051164D01*
X0018526Y0050994D01*
X0018638Y0050822D01*
X0018746Y0050648D01*
X0018849Y0050470D01*
X0018948Y0050291D01*
X0019043Y0050108D01*
X0019133Y0049924D01*
X0019219Y0049738D01*
X0019300Y0049549D01*
X0019377Y0049359D01*
X0019449Y0049166D01*
X0019516Y0048972D01*
X0019579Y0048777D01*
X0019637Y0048580D01*
X0019690Y0048382D01*
X0019738Y0048182D01*
X0019781Y0047981D01*
X0019819Y0047780D01*
X0019853Y0047577D01*
X0019881Y0047374D01*
X0019905Y0047170D01*
X0019924Y0046965D01*
X0019937Y0046761D01*
X0019946Y0046556D01*
X0019950Y0046350D01*
X0019856Y0046350D01*
X0019852Y0046553D01*
X0019844Y0046756D01*
X0019830Y0046959D01*
X0019812Y0047161D01*
X0019788Y0047362D01*
X0019760Y0047563D01*
X0019727Y0047764D01*
X0019689Y0047963D01*
X0019646Y0048161D01*
X0019598Y0048359D01*
X0019546Y0048555D01*
X0019489Y0048750D01*
X0019427Y0048943D01*
X0019360Y0049135D01*
X0019289Y0049325D01*
X0019214Y0049513D01*
X0019133Y0049699D01*
X0019048Y0049884D01*
X0018959Y0050066D01*
X0018865Y0050246D01*
X0018767Y0050424D01*
X0018665Y0050599D01*
X0018559Y0050772D01*
X0018448Y0050942D01*
X0018333Y0051110D01*
X0018214Y0051274D01*
X0018091Y0051436D01*
X0017965Y0051594D01*
X0017834Y0051750D01*
X0017700Y0051902D01*
X0017562Y0052051D01*
X0017421Y0052197D01*
X0017276Y0052339D01*
X0017127Y0052477D01*
X0016976Y0052612D01*
X0016821Y0052743D01*
X0016663Y0052870D01*
X0016501Y0052994D01*
X0016337Y0053113D01*
X0016170Y0053229D01*
X0016001Y0053340D01*
X0015828Y0053448D01*
X0015653Y0053551D01*
X0015476Y0053649D01*
X0015432Y0053566D01*
X0015607Y0053469D01*
X0015780Y0053367D01*
X0015950Y0053261D01*
X0016118Y0053151D01*
X0016283Y0053037D01*
X0016445Y0052918D01*
X0016605Y0052796D01*
X0016761Y0052670D01*
X0016914Y0052541D01*
X0017064Y0052407D01*
X0017211Y0052271D01*
X0017354Y0052130D01*
X0017494Y0051986D01*
X0017630Y0051839D01*
X0017763Y0051688D01*
X0017892Y0051535D01*
X0018017Y0051378D01*
X0018139Y0051218D01*
X0018256Y0051055D01*
X0018370Y0050890D01*
X0018479Y0050722D01*
X0018585Y0050551D01*
X0018686Y0050378D01*
X0018783Y0050202D01*
X0018875Y0050024D01*
X0018963Y0049844D01*
X0019047Y0049661D01*
X0019127Y0049477D01*
X0019202Y0049291D01*
X0019272Y0049103D01*
X0019338Y0048913D01*
X0019399Y0048722D01*
X0019455Y0048530D01*
X0019507Y0048336D01*
X0019554Y0048141D01*
X0019597Y0047945D01*
X0019634Y0047747D01*
X0019667Y0047549D01*
X0019695Y0047351D01*
X0019718Y0047151D01*
X0019736Y0046952D01*
X0019750Y0046751D01*
X0019758Y0046551D01*
X0019762Y0046350D01*
X0019668Y0046350D01*
X0019664Y0046549D01*
X0019656Y0046747D01*
X0019643Y0046945D01*
X0019624Y0047142D01*
X0019602Y0047339D01*
X0019574Y0047536D01*
X0019542Y0047731D01*
X0019504Y0047926D01*
X0019463Y0048120D01*
X0019416Y0048313D01*
X0019365Y0048505D01*
X0019309Y0048695D01*
X0019249Y0048884D01*
X0019184Y0049071D01*
X0019114Y0049257D01*
X0019040Y0049441D01*
X0018961Y0049623D01*
X0018878Y0049803D01*
X0018791Y0049982D01*
X0018700Y0050158D01*
X0018604Y0050331D01*
X0018504Y0050503D01*
X0018400Y0050671D01*
X0018292Y0050838D01*
X0018179Y0051001D01*
X0018063Y0051162D01*
X0017943Y0051320D01*
X0017819Y0051475D01*
X0017692Y0051627D01*
X0017561Y0051776D01*
X0017426Y0051921D01*
X0017288Y0052064D01*
X0017146Y0052202D01*
X0017001Y0052338D01*
X0016853Y0052470D01*
X0016701Y0052598D01*
X0016547Y0052722D01*
X0016390Y0052843D01*
X0016229Y0052960D01*
X0016066Y0053073D01*
X0015900Y0053181D01*
X0015732Y0053286D01*
X0015561Y0053387D01*
X0015388Y0053483D01*
X0015343Y0053401D01*
X0015515Y0053305D01*
X0015684Y0053206D01*
X0015850Y0053102D01*
X0016014Y0052994D01*
X0016175Y0052883D01*
X0016334Y0052767D01*
X0016489Y0052648D01*
X0016642Y0052525D01*
X0016791Y0052398D01*
X0016938Y0052268D01*
X0017081Y0052134D01*
X0017221Y0051997D01*
X0017358Y0051856D01*
X0017491Y0051713D01*
X0017621Y0051566D01*
X0017747Y0051415D01*
X0017869Y0051262D01*
X0017988Y0051106D01*
X0018103Y0050947D01*
X0018213Y0050785D01*
X0018320Y0050621D01*
X0018423Y0050454D01*
X0018522Y0050285D01*
X0018617Y0050113D01*
X0018707Y0049939D01*
X0018794Y0049763D01*
X0018875Y0049585D01*
X0018953Y0049405D01*
X0019026Y0049223D01*
X0019095Y0049040D01*
X0019159Y0048854D01*
X0019219Y0048668D01*
X0019274Y0048480D01*
X0019325Y0048290D01*
X0019371Y0048100D01*
X0019412Y0047908D01*
X0019449Y0047715D01*
X0019481Y0047522D01*
X0019508Y0047328D01*
X0019531Y0047133D01*
X0019549Y0046938D01*
X0019562Y0046742D01*
X0019570Y0046546D01*
X0019574Y0046350D01*
X0019480Y0046350D01*
X0019476Y0046544D01*
X0019468Y0046738D01*
X0019455Y0046931D01*
X0019437Y0047124D01*
X0019415Y0047316D01*
X0019388Y0047508D01*
X0019356Y0047699D01*
X0019320Y0047890D01*
X0019279Y0048079D01*
X0019234Y0048267D01*
X0019184Y0048454D01*
X0019129Y0048640D01*
X0019070Y0048825D01*
X0019007Y0049008D01*
X0018939Y0049189D01*
X0018866Y0049369D01*
X0018790Y0049547D01*
X0018709Y0049723D01*
X0018623Y0049897D01*
X0018534Y0050069D01*
X0018440Y0050239D01*
X0018343Y0050406D01*
X0018241Y0050571D01*
X0018135Y0050733D01*
X0018026Y0050893D01*
X0017912Y0051050D01*
X0017795Y0051204D01*
X0017674Y0051356D01*
X0017550Y0051504D01*
X0017422Y0051649D01*
X0017290Y0051792D01*
X0017155Y0051931D01*
X0017017Y0052066D01*
X0016875Y0052198D01*
X0016730Y0052327D01*
X0016582Y0052452D01*
X0016431Y0052574D01*
X0016278Y0052692D01*
X0016121Y0052806D01*
X0015962Y0052916D01*
X0015800Y0053022D01*
X0015635Y0053125D01*
X0015468Y0053223D01*
X0015299Y0053318D01*
X0015255Y0053235D01*
X0015422Y0053141D01*
X0015587Y0053044D01*
X0015750Y0052943D01*
X0015910Y0052838D01*
X0016067Y0052729D01*
X0016222Y0052616D01*
X0016374Y0052500D01*
X0016523Y0052380D01*
X0016669Y0052256D01*
X0016812Y0052129D01*
X0016952Y0051998D01*
X0017088Y0051864D01*
X0017222Y0051727D01*
X0017352Y0051586D01*
X0017479Y0051443D01*
X0017602Y0051296D01*
X0017721Y0051146D01*
X0017837Y0050994D01*
X0017949Y0050839D01*
X0018057Y0050681D01*
X0018162Y0050520D01*
X0018262Y0050357D01*
X0018359Y0050192D01*
X0018451Y0050025D01*
X0018539Y0049855D01*
X0018624Y0049683D01*
X0018704Y0049509D01*
X0018779Y0049333D01*
X0018851Y0049155D01*
X0018918Y0048976D01*
X0018981Y0048795D01*
X0019039Y0048613D01*
X0019093Y0048429D01*
X0019143Y0048244D01*
X0019187Y0048058D01*
X0019228Y0047871D01*
X0019264Y0047683D01*
X0019295Y0047494D01*
X0019322Y0047305D01*
X0019344Y0047115D01*
X0019361Y0046924D01*
X0019374Y0046733D01*
X0019382Y0046542D01*
X0019386Y0046350D01*
X0019292Y0046350D01*
X0019288Y0046539D01*
X0019280Y0046728D01*
X0019268Y0046917D01*
X0019250Y0047105D01*
X0019228Y0047293D01*
X0019202Y0047480D01*
X0019171Y0047667D01*
X0019136Y0047853D01*
X0019096Y0048038D01*
X0019051Y0048222D01*
X0019002Y0048404D01*
X0018949Y0048586D01*
X0018892Y0048766D01*
X0018830Y0048944D01*
X0018763Y0049122D01*
X0018693Y0049297D01*
X0018618Y0049471D01*
X0018539Y0049643D01*
X0018455Y0049812D01*
X0018368Y0049980D01*
X0018277Y0050146D01*
X0018181Y0050309D01*
X0018082Y0050470D01*
X0017979Y0050629D01*
X0017872Y0050785D01*
X0017761Y0050938D01*
X0017647Y0051089D01*
X0017529Y0051236D01*
X0017407Y0051381D01*
X0017282Y0051523D01*
X0017154Y0051662D01*
X0017022Y0051797D01*
X0016887Y0051930D01*
X0016749Y0052059D01*
X0016607Y0052185D01*
X0016463Y0052307D01*
X0016316Y0052426D01*
X0016166Y0052541D01*
X0016013Y0052652D01*
X0015857Y0052760D01*
X0015699Y0052864D01*
X0015539Y0052964D01*
X0015376Y0053060D01*
X0015211Y0053152D01*
X0015166Y0053069D01*
X0015330Y0052978D01*
X0015491Y0052883D01*
X0015649Y0052784D01*
X0015805Y0052682D01*
X0015959Y0052575D01*
X0016110Y0052465D01*
X0016258Y0052351D01*
X0016404Y0052234D01*
X0016546Y0052113D01*
X0016686Y0051989D01*
X0016822Y0051862D01*
X0016956Y0051731D01*
X0017086Y0051597D01*
X0017213Y0051460D01*
X0017336Y0051320D01*
X0017456Y0051177D01*
X0017573Y0051031D01*
X0017686Y0050882D01*
X0017795Y0050730D01*
X0017901Y0050576D01*
X0018003Y0050420D01*
X0018101Y0050261D01*
X0018195Y0050099D01*
X0018285Y0049936D01*
X0018372Y0049770D01*
X0018454Y0049602D01*
X0018532Y0049433D01*
X0018606Y0049261D01*
X0018675Y0049088D01*
X0018741Y0048913D01*
X0018802Y0048736D01*
X0018859Y0048558D01*
X0018912Y0048379D01*
X0018960Y0048199D01*
X0019004Y0048017D01*
X0019044Y0047834D01*
X0019079Y0047651D01*
X0019109Y0047467D01*
X0019135Y0047282D01*
X0019157Y0047096D01*
X0019174Y0046910D01*
X0019186Y0046724D01*
X0019194Y0046537D01*
X0019198Y0046350D01*
X0019104Y0046350D01*
X0019100Y0046535D01*
X0019092Y0046719D01*
X0019080Y0046903D01*
X0019063Y0047087D01*
X0019042Y0047270D01*
X0019016Y0047453D01*
X0018986Y0047635D01*
X0018951Y0047816D01*
X0018912Y0047996D01*
X0018869Y0048176D01*
X0018821Y0048354D01*
X0018769Y0048531D01*
X0018713Y0048707D01*
X0018653Y0048881D01*
X0018588Y0049054D01*
X0018519Y0049225D01*
X0018446Y0049394D01*
X0018369Y0049562D01*
X0018288Y0049728D01*
X0018202Y0049891D01*
X0018113Y0050053D01*
X0018020Y0050212D01*
X0017923Y0050369D01*
X0017823Y0050524D01*
X0017718Y0050676D01*
X0017610Y0050826D01*
X0017499Y0050973D01*
X0017384Y0051117D01*
X0017265Y0051258D01*
X0017143Y0051397D01*
X0017018Y0051532D01*
X0016889Y0051664D01*
X0016757Y0051794D01*
X0016623Y0051920D01*
X0016485Y0052042D01*
X0016344Y0052161D01*
X0016200Y0052277D01*
X0016054Y0052390D01*
X0015905Y0052498D01*
X0015753Y0052603D01*
X0015599Y0052705D01*
X0015442Y0052802D01*
X0015283Y0052896D01*
X0015122Y0052986D01*
X0007265Y0053611D02*
X0007711Y0052830D01*
X0007554Y0052737D01*
X0007400Y0052640D01*
X0007248Y0052539D01*
X0007099Y0052434D01*
X0006952Y0052326D01*
X0006807Y0052215D01*
X0006666Y0052100D01*
X0006527Y0051981D01*
X0006392Y0051859D01*
X0006259Y0051734D01*
X0006129Y0051606D01*
X0006003Y0051475D01*
X0005879Y0051341D01*
X0005759Y0051204D01*
X0005642Y0051064D01*
X0005529Y0050921D01*
X0005419Y0050775D01*
X0005313Y0050627D01*
X0005210Y0050476D01*
X0005111Y0050323D01*
X0005016Y0050168D01*
X0004925Y0050010D01*
X0004837Y0049850D01*
X0004753Y0049688D01*
X0004673Y0049525D01*
X0004597Y0049359D01*
X0004526Y0049191D01*
X0004458Y0049022D01*
X0004394Y0048851D01*
X0004335Y0048679D01*
X0004279Y0048505D01*
X0004228Y0048330D01*
X0004181Y0048154D01*
X0004139Y0047977D01*
X0004100Y0047798D01*
X0004066Y0047619D01*
X0004036Y0047439D01*
X0004011Y0047259D01*
X0003990Y0047078D01*
X0003974Y0046896D01*
X0003961Y0046714D01*
X0003954Y0046532D01*
X0003950Y0046350D01*
X0003051Y0046349D01*
X0003050Y0046350D01*
X0003054Y0046554D01*
X0003062Y0046758D01*
X0003076Y0046962D01*
X0003094Y0047166D01*
X0003118Y0047369D01*
X0003146Y0047571D01*
X0003179Y0047773D01*
X0003217Y0047973D01*
X0003260Y0048173D01*
X0003308Y0048372D01*
X0003360Y0048569D01*
X0003418Y0048765D01*
X0003480Y0048960D01*
X0003546Y0049153D01*
X0003618Y0049345D01*
X0003694Y0049534D01*
X0003774Y0049722D01*
X0003859Y0049908D01*
X0003949Y0050092D01*
X0004042Y0050273D01*
X0004141Y0050452D01*
X0004243Y0050629D01*
X0004350Y0050803D01*
X0004461Y0050975D01*
X0004576Y0051144D01*
X0004695Y0051310D01*
X0004818Y0051473D01*
X0004945Y0051633D01*
X0005076Y0051790D01*
X0005211Y0051944D01*
X0005349Y0052094D01*
X0005491Y0052241D01*
X0005636Y0052385D01*
X0005785Y0052525D01*
X0005937Y0052661D01*
X0006093Y0052794D01*
X0006251Y0052922D01*
X0006413Y0053047D01*
X0006578Y0053168D01*
X0006745Y0053285D01*
X0006916Y0053398D01*
X0007089Y0053507D01*
X0007264Y0053612D01*
X0007311Y0053530D01*
X0007137Y0053427D01*
X0006966Y0053319D01*
X0006798Y0053207D01*
X0006632Y0053092D01*
X0006469Y0052972D01*
X0006310Y0052848D01*
X0006153Y0052721D01*
X0005999Y0052590D01*
X0005849Y0052455D01*
X0005701Y0052317D01*
X0005558Y0052175D01*
X0005417Y0052029D01*
X0005281Y0051881D01*
X0005148Y0051729D01*
X0005018Y0051573D01*
X0004893Y0051415D01*
X0004771Y0051254D01*
X0004653Y0051090D01*
X0004539Y0050923D01*
X0004430Y0050753D01*
X0004324Y0050581D01*
X0004223Y0050406D01*
X0004125Y0050229D01*
X0004033Y0050050D01*
X0003944Y0049868D01*
X0003860Y0049684D01*
X0003780Y0049499D01*
X0003705Y0049311D01*
X0003635Y0049122D01*
X0003569Y0048931D01*
X0003508Y0048738D01*
X0003451Y0048544D01*
X0003399Y0048349D01*
X0003352Y0048153D01*
X0003310Y0047955D01*
X0003272Y0047757D01*
X0003239Y0047557D01*
X0003211Y0047357D01*
X0003188Y0047156D01*
X0003170Y0046955D01*
X0003156Y0046754D01*
X0003148Y0046552D01*
X0003144Y0046350D01*
X0003238Y0046350D01*
X0003242Y0046549D01*
X0003250Y0046749D01*
X0003263Y0046948D01*
X0003282Y0047147D01*
X0003304Y0047346D01*
X0003332Y0047543D01*
X0003365Y0047741D01*
X0003402Y0047937D01*
X0003444Y0048132D01*
X0003490Y0048326D01*
X0003542Y0048519D01*
X0003598Y0048711D01*
X0003658Y0048901D01*
X0003723Y0049090D01*
X0003793Y0049277D01*
X0003867Y0049463D01*
X0003946Y0049646D01*
X0004029Y0049828D01*
X0004117Y0050008D01*
X0004208Y0050185D01*
X0004304Y0050360D01*
X0004405Y0050533D01*
X0004509Y0050703D01*
X0004618Y0050871D01*
X0004730Y0051036D01*
X0004846Y0051198D01*
X0004967Y0051357D01*
X0005091Y0051514D01*
X0005219Y0051667D01*
X0005350Y0051818D01*
X0005486Y0051965D01*
X0005624Y0052108D01*
X0005766Y0052249D01*
X0005912Y0052386D01*
X0006061Y0052519D01*
X0006213Y0052649D01*
X0006368Y0052775D01*
X0006526Y0052897D01*
X0006687Y0053015D01*
X0006850Y0053129D01*
X0007017Y0053240D01*
X0007186Y0053346D01*
X0007357Y0053448D01*
X0007404Y0053367D01*
X0007234Y0053266D01*
X0007067Y0053161D01*
X0006903Y0053051D01*
X0006741Y0052938D01*
X0006582Y0052821D01*
X0006426Y0052701D01*
X0006272Y0052576D01*
X0006122Y0052448D01*
X0005975Y0052316D01*
X0005831Y0052181D01*
X0005691Y0052042D01*
X0005554Y0051900D01*
X0005420Y0051755D01*
X0005290Y0051606D01*
X0005164Y0051454D01*
X0005041Y0051300D01*
X0004922Y0051142D01*
X0004807Y0050982D01*
X0004696Y0050819D01*
X0004589Y0050653D01*
X0004485Y0050485D01*
X0004386Y0050314D01*
X0004291Y0050141D01*
X0004201Y0049965D01*
X0004114Y0049788D01*
X0004032Y0049608D01*
X0003954Y0049427D01*
X0003881Y0049244D01*
X0003812Y0049059D01*
X0003748Y0048872D01*
X0003688Y0048684D01*
X0003632Y0048494D01*
X0003582Y0048304D01*
X0003535Y0048112D01*
X0003494Y0047919D01*
X0003457Y0047725D01*
X0003425Y0047530D01*
X0003398Y0047334D01*
X0003375Y0047138D01*
X0003357Y0046941D01*
X0003344Y0046744D01*
X0003336Y0046547D01*
X0003332Y0046350D01*
X0003426Y0046350D01*
X0003430Y0046545D01*
X0003438Y0046740D01*
X0003451Y0046935D01*
X0003469Y0047129D01*
X0003491Y0047323D01*
X0003518Y0047516D01*
X0003550Y0047709D01*
X0003586Y0047900D01*
X0003627Y0048091D01*
X0003673Y0048281D01*
X0003723Y0048469D01*
X0003778Y0048657D01*
X0003837Y0048843D01*
X0003900Y0049027D01*
X0003969Y0049210D01*
X0004041Y0049391D01*
X0004118Y0049570D01*
X0004199Y0049748D01*
X0004285Y0049923D01*
X0004374Y0050097D01*
X0004468Y0050268D01*
X0004566Y0050436D01*
X0004668Y0050603D01*
X0004774Y0050767D01*
X0004884Y0050928D01*
X0004998Y0051086D01*
X0005115Y0051242D01*
X0005237Y0051395D01*
X0005362Y0051545D01*
X0005490Y0051692D01*
X0005622Y0051835D01*
X0005758Y0051976D01*
X0005897Y0052113D01*
X0006039Y0052247D01*
X0006184Y0052377D01*
X0006332Y0052504D01*
X0006484Y0052627D01*
X0006638Y0052746D01*
X0006795Y0052862D01*
X0006955Y0052973D01*
X0007118Y0053081D01*
X0007283Y0053185D01*
X0007451Y0053285D01*
X0007497Y0053204D01*
X0007332Y0053105D01*
X0007168Y0053002D01*
X0007008Y0052895D01*
X0006850Y0052785D01*
X0006694Y0052671D01*
X0006542Y0052553D01*
X0006392Y0052431D01*
X0006246Y0052306D01*
X0006102Y0052177D01*
X0005962Y0052045D01*
X0005824Y0051910D01*
X0005690Y0051771D01*
X0005560Y0051629D01*
X0005433Y0051484D01*
X0005309Y0051336D01*
X0005190Y0051185D01*
X0005073Y0051031D01*
X0004961Y0050874D01*
X0004852Y0050715D01*
X0004748Y0050553D01*
X0004647Y0050388D01*
X0004550Y0050222D01*
X0004457Y0050052D01*
X0004369Y0049881D01*
X0004284Y0049708D01*
X0004204Y0049532D01*
X0004128Y0049355D01*
X0004056Y0049176D01*
X0003989Y0048995D01*
X0003926Y0048813D01*
X0003868Y0048629D01*
X0003814Y0048444D01*
X0003764Y0048258D01*
X0003719Y0048070D01*
X0003678Y0047882D01*
X0003642Y0047693D01*
X0003611Y0047502D01*
X0003584Y0047311D01*
X0003562Y0047120D01*
X0003545Y0046928D01*
X0003532Y0046735D01*
X0003524Y0046543D01*
X0003520Y0046350D01*
X0003614Y0046350D01*
X0003618Y0046540D01*
X0003626Y0046731D01*
X0003638Y0046921D01*
X0003656Y0047111D01*
X0003678Y0047300D01*
X0003704Y0047488D01*
X0003735Y0047676D01*
X0003771Y0047864D01*
X0003811Y0048050D01*
X0003855Y0048235D01*
X0003904Y0048419D01*
X0003958Y0048602D01*
X0004015Y0048784D01*
X0004078Y0048964D01*
X0004144Y0049142D01*
X0004215Y0049319D01*
X0004290Y0049494D01*
X0004369Y0049668D01*
X0004453Y0049839D01*
X0004540Y0050008D01*
X0004632Y0050175D01*
X0004728Y0050340D01*
X0004827Y0050503D01*
X0004931Y0050663D01*
X0005038Y0050820D01*
X0005149Y0050975D01*
X0005264Y0051127D01*
X0005382Y0051276D01*
X0005504Y0051422D01*
X0005630Y0051566D01*
X0005759Y0051706D01*
X0005891Y0051843D01*
X0006027Y0051977D01*
X0006165Y0052108D01*
X0006307Y0052235D01*
X0006452Y0052359D01*
X0006600Y0052479D01*
X0006751Y0052595D01*
X0006904Y0052708D01*
X0007060Y0052817D01*
X0007219Y0052923D01*
X0007380Y0053024D01*
X0007544Y0053122D01*
X0007591Y0053040D01*
X0007429Y0052944D01*
X0007270Y0052844D01*
X0007113Y0052740D01*
X0006958Y0052632D01*
X0006807Y0052520D01*
X0006658Y0052405D01*
X0006512Y0052286D01*
X0006369Y0052164D01*
X0006229Y0052038D01*
X0006092Y0051909D01*
X0005958Y0051777D01*
X0005827Y0051641D01*
X0005700Y0051503D01*
X0005576Y0051361D01*
X0005455Y0051217D01*
X0005338Y0051069D01*
X0005225Y0050919D01*
X0005115Y0050766D01*
X0005009Y0050610D01*
X0004907Y0050452D01*
X0004808Y0050292D01*
X0004714Y0050129D01*
X0004623Y0049964D01*
X0004537Y0049797D01*
X0004454Y0049628D01*
X0004376Y0049457D01*
X0004302Y0049284D01*
X0004232Y0049109D01*
X0004166Y0048932D01*
X0004105Y0048754D01*
X0004048Y0048575D01*
X0003995Y0048394D01*
X0003946Y0048212D01*
X0003902Y0048029D01*
X0003863Y0047845D01*
X0003828Y0047660D01*
X0003797Y0047475D01*
X0003771Y0047288D01*
X0003749Y0047101D01*
X0003732Y0046914D01*
X0003720Y0046726D01*
X0003712Y0046538D01*
X0003708Y0046350D01*
X0003802Y0046350D01*
X0003806Y0046536D01*
X0003814Y0046721D01*
X0003826Y0046907D01*
X0003843Y0047092D01*
X0003864Y0047277D01*
X0003890Y0047461D01*
X0003920Y0047644D01*
X0003955Y0047827D01*
X0003994Y0048009D01*
X0004038Y0048190D01*
X0004085Y0048369D01*
X0004138Y0048548D01*
X0004194Y0048725D01*
X0004255Y0048901D01*
X0004320Y0049075D01*
X0004389Y0049248D01*
X0004462Y0049419D01*
X0004539Y0049588D01*
X0004621Y0049755D01*
X0004706Y0049920D01*
X0004796Y0050083D01*
X0004889Y0050244D01*
X0004986Y0050402D01*
X0005087Y0050558D01*
X0005192Y0050712D01*
X0005300Y0050863D01*
X0005412Y0051012D01*
X0005528Y0051157D01*
X0005647Y0051300D01*
X0005769Y0051440D01*
X0005895Y0051577D01*
X0006024Y0051711D01*
X0006157Y0051841D01*
X0006292Y0051969D01*
X0006430Y0052093D01*
X0006572Y0052214D01*
X0006716Y0052331D01*
X0006863Y0052445D01*
X0007013Y0052555D01*
X0007165Y0052662D01*
X0007320Y0052764D01*
X0007478Y0052863D01*
X0007637Y0052959D01*
X0007684Y0052877D01*
X0007526Y0052783D01*
X0007371Y0052685D01*
X0007218Y0052584D01*
X0007067Y0052478D01*
X0006919Y0052369D01*
X0006774Y0052257D01*
X0006632Y0052141D01*
X0006492Y0052022D01*
X0006355Y0051899D01*
X0006222Y0051773D01*
X0006091Y0051644D01*
X0005963Y0051512D01*
X0005839Y0051377D01*
X0005718Y0051239D01*
X0005601Y0051098D01*
X0005487Y0050954D01*
X0005376Y0050807D01*
X0005269Y0050658D01*
X0005165Y0050506D01*
X0005066Y0050352D01*
X0004970Y0050196D01*
X0004878Y0050037D01*
X0004789Y0049876D01*
X0004705Y0049713D01*
X0004624Y0049548D01*
X0004548Y0049381D01*
X0004476Y0049212D01*
X0004407Y0049041D01*
X0004343Y0048869D01*
X0004283Y0048696D01*
X0004227Y0048521D01*
X0004176Y0048344D01*
X0004129Y0048167D01*
X0004086Y0047988D01*
X0004047Y0047809D01*
X0004013Y0047628D01*
X0003983Y0047447D01*
X0003958Y0047265D01*
X0003936Y0047083D01*
X0003920Y0046900D01*
X0003907Y0046717D01*
X0003900Y0046533D01*
X0003896Y0046350D01*
X0003051Y0046251D02*
X0003951Y0046251D01*
X0003950Y0046250D02*
X0003954Y0046066D01*
X0003962Y0045881D01*
X0003974Y0045697D01*
X0003991Y0045514D01*
X0004013Y0045330D01*
X0004038Y0045148D01*
X0004069Y0044966D01*
X0004104Y0044785D01*
X0004143Y0044604D01*
X0004187Y0044425D01*
X0004235Y0044247D01*
X0004287Y0044070D01*
X0004344Y0043894D01*
X0004404Y0043720D01*
X0004470Y0043548D01*
X0004539Y0043377D01*
X0004612Y0043207D01*
X0004690Y0043040D01*
X0004772Y0042875D01*
X0004857Y0042711D01*
X0004947Y0042550D01*
X0005041Y0042391D01*
X0005138Y0042234D01*
X0005239Y0042080D01*
X0005344Y0041928D01*
X0005453Y0041779D01*
X0005565Y0041633D01*
X0005681Y0041489D01*
X0005800Y0041349D01*
X0005923Y0041211D01*
X0006049Y0041076D01*
X0006178Y0040944D01*
X0006311Y0040816D01*
X0006446Y0040691D01*
X0006585Y0040569D01*
X0006004Y0039882D01*
X0005848Y0040018D01*
X0005696Y0040159D01*
X0005547Y0040303D01*
X0005402Y0040450D01*
X0005261Y0040601D01*
X0005124Y0040755D01*
X0004990Y0040913D01*
X0004860Y0041074D01*
X0004734Y0041238D01*
X0004612Y0041405D01*
X0004494Y0041575D01*
X0004381Y0041748D01*
X0004272Y0041924D01*
X0004167Y0042102D01*
X0004066Y0042283D01*
X0003970Y0042466D01*
X0003878Y0042651D01*
X0003791Y0042839D01*
X0003709Y0043029D01*
X0003631Y0043220D01*
X0003558Y0043414D01*
X0003490Y0043609D01*
X0003426Y0043806D01*
X0003368Y0044004D01*
X0003314Y0044204D01*
X0003265Y0044405D01*
X0003221Y0044607D01*
X0003182Y0044810D01*
X0003148Y0045014D01*
X0003119Y0045219D01*
X0003095Y0045424D01*
X0003077Y0045630D01*
X0003063Y0045837D01*
X0003054Y0046043D01*
X0003050Y0046250D01*
X0003144Y0046250D01*
X0003148Y0046046D01*
X0003157Y0045841D01*
X0003170Y0045637D01*
X0003189Y0045434D01*
X0003213Y0045231D01*
X0003241Y0045028D01*
X0003275Y0044826D01*
X0003313Y0044626D01*
X0003357Y0044426D01*
X0003405Y0044227D01*
X0003458Y0044030D01*
X0003516Y0043833D01*
X0003579Y0043639D01*
X0003647Y0043446D01*
X0003719Y0043254D01*
X0003796Y0043065D01*
X0003877Y0042877D01*
X0003963Y0042692D01*
X0004054Y0042509D01*
X0004149Y0042327D01*
X0004248Y0042149D01*
X0004352Y0041973D01*
X0004460Y0041799D01*
X0004572Y0041628D01*
X0004689Y0041460D01*
X0004809Y0041295D01*
X0004934Y0041132D01*
X0005062Y0040973D01*
X0005194Y0040817D01*
X0005330Y0040665D01*
X0005470Y0040515D01*
X0005613Y0040370D01*
X0005760Y0040227D01*
X0005911Y0040089D01*
X0006064Y0039954D01*
X0006125Y0040025D01*
X0005973Y0040159D01*
X0005824Y0040296D01*
X0005679Y0040437D01*
X0005538Y0040581D01*
X0005399Y0040728D01*
X0005265Y0040879D01*
X0005134Y0041033D01*
X0005007Y0041191D01*
X0004884Y0041351D01*
X0004765Y0041515D01*
X0004650Y0041681D01*
X0004539Y0041850D01*
X0004432Y0042021D01*
X0004330Y0042196D01*
X0004231Y0042372D01*
X0004137Y0042551D01*
X0004048Y0042733D01*
X0003963Y0042916D01*
X0003882Y0043101D01*
X0003806Y0043289D01*
X0003735Y0043478D01*
X0003668Y0043669D01*
X0003606Y0043861D01*
X0003549Y0044055D01*
X0003496Y0044250D01*
X0003449Y0044447D01*
X0003406Y0044644D01*
X0003368Y0044843D01*
X0003334Y0045042D01*
X0003306Y0045242D01*
X0003283Y0045443D01*
X0003264Y0045644D01*
X0003250Y0045846D01*
X0003242Y0046048D01*
X0003238Y0046250D01*
X0003332Y0046250D01*
X0003336Y0046050D01*
X0003344Y0045851D01*
X0003358Y0045651D01*
X0003376Y0045452D01*
X0003399Y0045254D01*
X0003427Y0045056D01*
X0003460Y0044859D01*
X0003498Y0044663D01*
X0003540Y0044467D01*
X0003587Y0044273D01*
X0003639Y0044080D01*
X0003696Y0043889D01*
X0003757Y0043698D01*
X0003823Y0043510D01*
X0003894Y0043323D01*
X0003969Y0043138D01*
X0004049Y0042954D01*
X0004133Y0042773D01*
X0004221Y0042594D01*
X0004314Y0042417D01*
X0004411Y0042242D01*
X0004513Y0042070D01*
X0004618Y0041901D01*
X0004728Y0041733D01*
X0004842Y0041569D01*
X0004959Y0041408D01*
X0005081Y0041249D01*
X0005206Y0041094D01*
X0005336Y0040941D01*
X0005469Y0040792D01*
X0005605Y0040646D01*
X0005745Y0040504D01*
X0005889Y0040365D01*
X0006036Y0040229D01*
X0006186Y0040097D01*
X0006246Y0040169D01*
X0006098Y0040299D01*
X0005953Y0040433D01*
X0005811Y0040571D01*
X0005673Y0040712D01*
X0005538Y0040856D01*
X0005406Y0041003D01*
X0005279Y0041154D01*
X0005155Y0041308D01*
X0005034Y0041464D01*
X0004918Y0041624D01*
X0004806Y0041786D01*
X0004697Y0041951D01*
X0004593Y0042119D01*
X0004493Y0042289D01*
X0004397Y0042462D01*
X0004305Y0042637D01*
X0004217Y0042814D01*
X0004134Y0042993D01*
X0004056Y0043174D01*
X0003981Y0043357D01*
X0003912Y0043542D01*
X0003847Y0043728D01*
X0003786Y0043916D01*
X0003730Y0044106D01*
X0003679Y0044296D01*
X0003632Y0044488D01*
X0003590Y0044681D01*
X0003553Y0044875D01*
X0003520Y0045070D01*
X0003493Y0045266D01*
X0003470Y0045462D01*
X0003452Y0045658D01*
X0003438Y0045855D01*
X0003430Y0046053D01*
X0003426Y0046250D01*
X0003520Y0046250D01*
X0003524Y0046055D01*
X0003532Y0045860D01*
X0003545Y0045665D01*
X0003563Y0045471D01*
X0003586Y0045277D01*
X0003613Y0045084D01*
X0003645Y0044891D01*
X0003682Y0044700D01*
X0003724Y0044509D01*
X0003770Y0044319D01*
X0003820Y0044131D01*
X0003876Y0043944D01*
X0003936Y0043758D01*
X0004000Y0043574D01*
X0004069Y0043391D01*
X0004142Y0043210D01*
X0004220Y0043031D01*
X0004302Y0042854D01*
X0004389Y0042679D01*
X0004479Y0042507D01*
X0004574Y0042336D01*
X0004673Y0042168D01*
X0004776Y0042002D01*
X0004883Y0041839D01*
X0004994Y0041678D01*
X0005109Y0041521D01*
X0005228Y0041366D01*
X0005351Y0041214D01*
X0005477Y0041065D01*
X0005607Y0040919D01*
X0005740Y0040777D01*
X0005877Y0040638D01*
X0006017Y0040502D01*
X0006161Y0040370D01*
X0006307Y0040241D01*
X0006368Y0040313D01*
X0006223Y0040440D01*
X0006081Y0040571D01*
X0005943Y0040705D01*
X0005808Y0040842D01*
X0005676Y0040983D01*
X0005548Y0041127D01*
X0005423Y0041274D01*
X0005302Y0041424D01*
X0005185Y0041577D01*
X0005071Y0041733D01*
X0004961Y0041892D01*
X0004855Y0042053D01*
X0004754Y0042217D01*
X0004656Y0042383D01*
X0004562Y0042551D01*
X0004472Y0042722D01*
X0004387Y0042895D01*
X0004306Y0043070D01*
X0004229Y0043247D01*
X0004157Y0043425D01*
X0004088Y0043606D01*
X0004025Y0043788D01*
X0003966Y0043971D01*
X0003911Y0044156D01*
X0003861Y0044342D01*
X0003815Y0044530D01*
X0003774Y0044718D01*
X0003738Y0044908D01*
X0003706Y0045098D01*
X0003679Y0045289D01*
X0003657Y0045480D01*
X0003639Y0045672D01*
X0003626Y0045865D01*
X0003618Y0046057D01*
X0003614Y0046250D01*
X0003708Y0046250D01*
X0003712Y0046060D01*
X0003720Y0045869D01*
X0003733Y0045679D01*
X0003750Y0045490D01*
X0003772Y0045300D01*
X0003799Y0045112D01*
X0003830Y0044924D01*
X0003866Y0044737D01*
X0003907Y0044551D01*
X0003952Y0044366D01*
X0004001Y0044182D01*
X0004056Y0043999D01*
X0004114Y0043818D01*
X0004177Y0043638D01*
X0004244Y0043460D01*
X0004316Y0043283D01*
X0004392Y0043108D01*
X0004472Y0042936D01*
X0004556Y0042765D01*
X0004645Y0042596D01*
X0004737Y0042430D01*
X0004834Y0042265D01*
X0004934Y0042104D01*
X0005039Y0041944D01*
X0005147Y0041788D01*
X0005260Y0041634D01*
X0005376Y0041483D01*
X0005495Y0041334D01*
X0005618Y0041189D01*
X0005745Y0041047D01*
X0005875Y0040908D01*
X0006009Y0040772D01*
X0006145Y0040639D01*
X0006285Y0040510D01*
X0006429Y0040384D01*
X0006489Y0040456D01*
X0006348Y0040580D01*
X0006210Y0040708D01*
X0006075Y0040839D01*
X0005943Y0040973D01*
X0005814Y0041110D01*
X0005689Y0041251D01*
X0005567Y0041395D01*
X0005449Y0041541D01*
X0005335Y0041690D01*
X0005224Y0041842D01*
X0005117Y0041997D01*
X0005014Y0042154D01*
X0004914Y0042314D01*
X0004819Y0042476D01*
X0004727Y0042641D01*
X0004640Y0042807D01*
X0004557Y0042976D01*
X0004477Y0043147D01*
X0004402Y0043319D01*
X0004332Y0043494D01*
X0004265Y0043670D01*
X0004203Y0043847D01*
X0004145Y0044027D01*
X0004092Y0044207D01*
X0004043Y0044389D01*
X0003999Y0044571D01*
X0003959Y0044755D01*
X0003923Y0044940D01*
X0003892Y0045126D01*
X0003866Y0045312D01*
X0003844Y0045499D01*
X0003827Y0045686D01*
X0003814Y0045874D01*
X0003806Y0046062D01*
X0003802Y0046250D01*
X0003896Y0046250D01*
X0003900Y0046064D01*
X0003908Y0045879D01*
X0003920Y0045693D01*
X0003937Y0045508D01*
X0003959Y0045324D01*
X0003985Y0045140D01*
X0004016Y0044956D01*
X0004051Y0044774D01*
X0004090Y0044592D01*
X0004134Y0044412D01*
X0004183Y0044232D01*
X0004235Y0044054D01*
X0004292Y0043877D01*
X0004354Y0043702D01*
X0004419Y0043528D01*
X0004489Y0043356D01*
X0004563Y0043185D01*
X0004641Y0043017D01*
X0004724Y0042850D01*
X0004810Y0042686D01*
X0004900Y0042523D01*
X0004995Y0042363D01*
X0005093Y0042205D01*
X0005195Y0042050D01*
X0005300Y0041897D01*
X0005410Y0041747D01*
X0005523Y0041599D01*
X0005640Y0041455D01*
X0005760Y0041313D01*
X0005883Y0041174D01*
X0006010Y0041038D01*
X0006140Y0040906D01*
X0006274Y0040777D01*
X0006410Y0040650D01*
X0006550Y0040528D01*
X0016948Y0039841D02*
X0016371Y0040533D01*
X0016372Y0040532D02*
X0016509Y0040651D01*
X0016643Y0040772D01*
X0016774Y0040897D01*
X0016902Y0041025D01*
X0017026Y0041156D01*
X0017148Y0041290D01*
X0017267Y0041427D01*
X0017382Y0041566D01*
X0017493Y0041709D01*
X0017602Y0041854D01*
X0017707Y0042001D01*
X0017808Y0042151D01*
X0017905Y0042303D01*
X0017999Y0042458D01*
X0018090Y0042615D01*
X0018176Y0042774D01*
X0018259Y0042935D01*
X0018337Y0043098D01*
X0018412Y0043263D01*
X0018483Y0043429D01*
X0018550Y0043597D01*
X0018612Y0043767D01*
X0018671Y0043938D01*
X0018726Y0044111D01*
X0018776Y0044284D01*
X0018822Y0044459D01*
X0018864Y0044635D01*
X0018902Y0044812D01*
X0018935Y0044990D01*
X0018965Y0045169D01*
X0018990Y0045348D01*
X0019010Y0045528D01*
X0019027Y0045708D01*
X0019039Y0045888D01*
X0019046Y0046069D01*
X0019050Y0046250D01*
X0019949Y0046251D01*
X0019950Y0046250D01*
X0019946Y0046047D01*
X0019938Y0045845D01*
X0019924Y0045642D01*
X0019906Y0045440D01*
X0019883Y0045239D01*
X0019855Y0045038D01*
X0019822Y0044838D01*
X0019785Y0044638D01*
X0019743Y0044440D01*
X0019696Y0044242D01*
X0019644Y0044046D01*
X0019587Y0043852D01*
X0019526Y0043658D01*
X0019461Y0043466D01*
X0019390Y0043276D01*
X0019315Y0043087D01*
X0019236Y0042901D01*
X0019152Y0042716D01*
X0019064Y0042533D01*
X0018971Y0042353D01*
X0018875Y0042175D01*
X0018773Y0041999D01*
X0018668Y0041826D01*
X0018559Y0041655D01*
X0018445Y0041487D01*
X0018328Y0041321D01*
X0018206Y0041159D01*
X0018081Y0040999D01*
X0017952Y0040843D01*
X0017819Y0040690D01*
X0017682Y0040540D01*
X0017542Y0040393D01*
X0017399Y0040250D01*
X0017252Y0040110D01*
X0017102Y0039973D01*
X0016948Y0039841D01*
X0016888Y0039913D01*
X0017040Y0040044D01*
X0017188Y0040179D01*
X0017333Y0040317D01*
X0017475Y0040459D01*
X0017614Y0040604D01*
X0017749Y0040752D01*
X0017880Y0040904D01*
X0018008Y0041059D01*
X0018132Y0041216D01*
X0018252Y0041377D01*
X0018368Y0041540D01*
X0018480Y0041707D01*
X0018588Y0041875D01*
X0018693Y0042047D01*
X0018793Y0042221D01*
X0018888Y0042397D01*
X0018980Y0042575D01*
X0019067Y0042756D01*
X0019150Y0042939D01*
X0019229Y0043123D01*
X0019303Y0043309D01*
X0019372Y0043498D01*
X0019437Y0043687D01*
X0019497Y0043879D01*
X0019553Y0044071D01*
X0019604Y0044265D01*
X0019651Y0044460D01*
X0019693Y0044656D01*
X0019730Y0044853D01*
X0019762Y0045051D01*
X0019790Y0045250D01*
X0019813Y0045449D01*
X0019831Y0045649D01*
X0019844Y0045849D01*
X0019852Y0046050D01*
X0019856Y0046250D01*
X0019762Y0046250D01*
X0019758Y0046052D01*
X0019750Y0045854D01*
X0019737Y0045656D01*
X0019719Y0045458D01*
X0019696Y0045261D01*
X0019669Y0045065D01*
X0019637Y0044869D01*
X0019601Y0044675D01*
X0019559Y0044481D01*
X0019513Y0044288D01*
X0019463Y0044096D01*
X0019407Y0043906D01*
X0019348Y0043717D01*
X0019283Y0043529D01*
X0019215Y0043343D01*
X0019142Y0043159D01*
X0019064Y0042976D01*
X0018982Y0042796D01*
X0018896Y0042617D01*
X0018805Y0042441D01*
X0018711Y0042267D01*
X0018612Y0042095D01*
X0018509Y0041925D01*
X0018402Y0041758D01*
X0018291Y0041594D01*
X0018176Y0041433D01*
X0018057Y0041274D01*
X0017935Y0041118D01*
X0017809Y0040965D01*
X0017679Y0040815D01*
X0017545Y0040668D01*
X0017408Y0040525D01*
X0017268Y0040385D01*
X0017125Y0040248D01*
X0016978Y0040115D01*
X0016828Y0039985D01*
X0016768Y0040057D01*
X0016916Y0040186D01*
X0017061Y0040317D01*
X0017203Y0040452D01*
X0017341Y0040591D01*
X0017477Y0040733D01*
X0017609Y0040878D01*
X0017737Y0041026D01*
X0017862Y0041177D01*
X0017983Y0041331D01*
X0018100Y0041488D01*
X0018214Y0041648D01*
X0018323Y0041810D01*
X0018429Y0041975D01*
X0018531Y0042143D01*
X0018629Y0042313D01*
X0018722Y0042485D01*
X0018812Y0042659D01*
X0018897Y0042836D01*
X0018978Y0043014D01*
X0019055Y0043194D01*
X0019127Y0043377D01*
X0019195Y0043560D01*
X0019258Y0043746D01*
X0019317Y0043933D01*
X0019372Y0044121D01*
X0019422Y0044310D01*
X0019467Y0044501D01*
X0019508Y0044693D01*
X0019545Y0044885D01*
X0019576Y0045079D01*
X0019603Y0045273D01*
X0019625Y0045468D01*
X0019643Y0045663D01*
X0019656Y0045858D01*
X0019664Y0046054D01*
X0019668Y0046250D01*
X0019574Y0046250D01*
X0019570Y0046056D01*
X0019562Y0045863D01*
X0019549Y0045670D01*
X0019532Y0045477D01*
X0019510Y0045284D01*
X0019483Y0045092D01*
X0019452Y0044901D01*
X0019416Y0044711D01*
X0019376Y0044521D01*
X0019331Y0044333D01*
X0019281Y0044146D01*
X0019227Y0043960D01*
X0019169Y0043775D01*
X0019106Y0043592D01*
X0019039Y0043410D01*
X0018968Y0043230D01*
X0018892Y0043052D01*
X0018812Y0042875D01*
X0018728Y0042701D01*
X0018639Y0042529D01*
X0018547Y0042359D01*
X0018450Y0042191D01*
X0018349Y0042025D01*
X0018245Y0041862D01*
X0018137Y0041702D01*
X0018024Y0041544D01*
X0017908Y0041389D01*
X0017789Y0041236D01*
X0017665Y0041087D01*
X0017539Y0040940D01*
X0017408Y0040797D01*
X0017275Y0040657D01*
X0017138Y0040520D01*
X0016997Y0040387D01*
X0016854Y0040256D01*
X0016707Y0040130D01*
X0016647Y0040202D01*
X0016792Y0040327D01*
X0016934Y0040456D01*
X0017072Y0040588D01*
X0017208Y0040723D01*
X0017340Y0040862D01*
X0017469Y0041003D01*
X0017594Y0041148D01*
X0017716Y0041295D01*
X0017834Y0041446D01*
X0017949Y0041599D01*
X0018059Y0041755D01*
X0018167Y0041914D01*
X0018270Y0042075D01*
X0018369Y0042239D01*
X0018465Y0042405D01*
X0018556Y0042573D01*
X0018643Y0042743D01*
X0018727Y0042915D01*
X0018806Y0043090D01*
X0018881Y0043266D01*
X0018951Y0043444D01*
X0019018Y0043623D01*
X0019080Y0043804D01*
X0019137Y0043987D01*
X0019191Y0044171D01*
X0019240Y0044356D01*
X0019284Y0044542D01*
X0019324Y0044729D01*
X0019359Y0044917D01*
X0019390Y0045106D01*
X0019417Y0045296D01*
X0019438Y0045486D01*
X0019456Y0045676D01*
X0019468Y0045867D01*
X0019476Y0046059D01*
X0019480Y0046250D01*
X0019386Y0046250D01*
X0019382Y0046061D01*
X0019374Y0045872D01*
X0019362Y0045683D01*
X0019345Y0045495D01*
X0019323Y0045307D01*
X0019297Y0045120D01*
X0019267Y0044933D01*
X0019232Y0044747D01*
X0019192Y0044562D01*
X0019148Y0044378D01*
X0019100Y0044196D01*
X0019047Y0044014D01*
X0018990Y0043834D01*
X0018929Y0043655D01*
X0018863Y0043477D01*
X0018794Y0043301D01*
X0018720Y0043127D01*
X0018642Y0042955D01*
X0018559Y0042785D01*
X0018473Y0042617D01*
X0018383Y0042451D01*
X0018288Y0042287D01*
X0018190Y0042125D01*
X0018088Y0041966D01*
X0017982Y0041809D01*
X0017873Y0041655D01*
X0017759Y0041503D01*
X0017643Y0041355D01*
X0017522Y0041209D01*
X0017399Y0041066D01*
X0017271Y0040926D01*
X0017141Y0040789D01*
X0017007Y0040655D01*
X0016870Y0040525D01*
X0016730Y0040398D01*
X0016587Y0040274D01*
X0016527Y0040346D01*
X0016668Y0040469D01*
X0016806Y0040594D01*
X0016942Y0040723D01*
X0017074Y0040855D01*
X0017203Y0040990D01*
X0017328Y0041129D01*
X0017451Y0041270D01*
X0017570Y0041414D01*
X0017685Y0041561D01*
X0017797Y0041710D01*
X0017905Y0041863D01*
X0018010Y0042018D01*
X0018110Y0042175D01*
X0018207Y0042335D01*
X0018301Y0042496D01*
X0018390Y0042661D01*
X0018475Y0042827D01*
X0018556Y0042995D01*
X0018634Y0043165D01*
X0018707Y0043337D01*
X0018776Y0043511D01*
X0018840Y0043686D01*
X0018901Y0043863D01*
X0018957Y0044041D01*
X0019009Y0044220D01*
X0019057Y0044401D01*
X0019100Y0044583D01*
X0019139Y0044765D01*
X0019174Y0044949D01*
X0019204Y0045133D01*
X0019230Y0045318D01*
X0019251Y0045504D01*
X0019268Y0045690D01*
X0019280Y0045877D01*
X0019288Y0046063D01*
X0019292Y0046250D01*
X0019198Y0046250D01*
X0019194Y0046066D01*
X0019187Y0045881D01*
X0019174Y0045697D01*
X0019158Y0045513D01*
X0019137Y0045330D01*
X0019111Y0045147D01*
X0019081Y0044965D01*
X0019047Y0044784D01*
X0019009Y0044603D01*
X0018966Y0044424D01*
X0018919Y0044245D01*
X0018867Y0044068D01*
X0018812Y0043892D01*
X0018752Y0043717D01*
X0018688Y0043544D01*
X0018620Y0043373D01*
X0018548Y0043203D01*
X0018471Y0043035D01*
X0018391Y0042869D01*
X0018307Y0042705D01*
X0018219Y0042542D01*
X0018127Y0042382D01*
X0018031Y0042225D01*
X0017931Y0042069D01*
X0017828Y0041916D01*
X0017721Y0041766D01*
X0017611Y0041618D01*
X0017497Y0041473D01*
X0017379Y0041331D01*
X0017258Y0041191D01*
X0017134Y0041055D01*
X0017007Y0040921D01*
X0016876Y0040791D01*
X0016743Y0040663D01*
X0016606Y0040539D01*
X0016467Y0040419D01*
X0016406Y0040491D01*
X0016544Y0040610D01*
X0016679Y0040733D01*
X0016811Y0040858D01*
X0016940Y0040987D01*
X0017066Y0041119D01*
X0017188Y0041254D01*
X0017308Y0041392D01*
X0017424Y0041532D01*
X0017536Y0041676D01*
X0017645Y0041822D01*
X0017751Y0041970D01*
X0017853Y0042121D01*
X0017951Y0042275D01*
X0018046Y0042430D01*
X0018137Y0042588D01*
X0018224Y0042749D01*
X0018307Y0042911D01*
X0018386Y0043075D01*
X0018461Y0043241D01*
X0018533Y0043409D01*
X0018600Y0043578D01*
X0018663Y0043749D01*
X0018722Y0043921D01*
X0018777Y0044095D01*
X0018828Y0044270D01*
X0018875Y0044446D01*
X0018917Y0044624D01*
X0018955Y0044802D01*
X0018989Y0044981D01*
X0019018Y0045161D01*
X0019043Y0045341D01*
X0019064Y0045522D01*
X0019081Y0045704D01*
X0019093Y0045886D01*
X0019100Y0046068D01*
X0019104Y0046250D01*
X0156472Y0127650D02*
X0157239Y0129950D01*
X0158005Y0127650D01*
X0157814Y0128225D02*
X0156664Y0128225D01*
X0159007Y0128992D02*
X0159710Y0128608D01*
X0159454Y0127650D02*
X0159393Y0127652D01*
X0159332Y0127657D01*
X0159272Y0127665D01*
X0159212Y0127677D01*
X0159153Y0127693D01*
X0159095Y0127711D01*
X0159039Y0127733D01*
X0158983Y0127758D01*
X0158929Y0127786D01*
X0158877Y0127817D01*
X0158826Y0127851D01*
X0158778Y0127888D01*
X0158731Y0127928D01*
X0158687Y0127970D01*
X0159710Y0128608D02*
X0159747Y0128584D01*
X0159783Y0128556D01*
X0159815Y0128526D01*
X0159846Y0128492D01*
X0159873Y0128456D01*
X0159897Y0128418D01*
X0159917Y0128379D01*
X0159934Y0128337D01*
X0159948Y0128294D01*
X0159957Y0128250D01*
X0159963Y0128206D01*
X0159965Y0128161D01*
X0159963Y0128116D01*
X0159957Y0128072D01*
X0159948Y0128029D01*
X0159934Y0127986D01*
X0159917Y0127945D01*
X0159897Y0127906D01*
X0159873Y0127868D01*
X0159845Y0127833D01*
X0159815Y0127800D01*
X0159782Y0127770D01*
X0159747Y0127742D01*
X0159710Y0127718D01*
X0159670Y0127698D01*
X0159629Y0127681D01*
X0159586Y0127667D01*
X0159543Y0127658D01*
X0159499Y0127652D01*
X0159454Y0127650D01*
X0159838Y0129758D02*
X0159792Y0129791D01*
X0159744Y0129820D01*
X0159695Y0129847D01*
X0159644Y0129871D01*
X0159592Y0129892D01*
X0159539Y0129909D01*
X0159485Y0129924D01*
X0159430Y0129935D01*
X0159375Y0129943D01*
X0159319Y0129948D01*
X0159263Y0129950D01*
X0159221Y0129948D01*
X0159179Y0129943D01*
X0159138Y0129934D01*
X0159097Y0129922D01*
X0159058Y0129907D01*
X0159020Y0129888D01*
X0158984Y0129867D01*
X0158949Y0129842D01*
X0158917Y0129815D01*
X0158887Y0129785D01*
X0158860Y0129753D01*
X0158835Y0129718D01*
X0158814Y0129682D01*
X0158795Y0129644D01*
X0158780Y0129605D01*
X0158768Y0129564D01*
X0158759Y0129523D01*
X0158754Y0129481D01*
X0158752Y0129439D01*
X0158754Y0129394D01*
X0158760Y0129350D01*
X0158769Y0129306D01*
X0158783Y0129263D01*
X0158800Y0129221D01*
X0158820Y0129181D01*
X0158844Y0129144D01*
X0158871Y0129108D01*
X0158902Y0129074D01*
X0158934Y0129044D01*
X0158970Y0129016D01*
X0159008Y0128992D01*
X0160632Y0129950D02*
X0161910Y0129950D01*
X0161271Y0129950D02*
X0161271Y0127650D01*
X0162664Y0128544D02*
X0164197Y0128544D01*
X0166181Y0127970D02*
X0166217Y0128048D01*
X0166250Y0128127D01*
X0166278Y0128208D01*
X0166303Y0128291D01*
X0166324Y0128374D01*
X0166342Y0128458D01*
X0166355Y0128543D01*
X0166365Y0128628D01*
X0166371Y0128714D01*
X0166373Y0128800D01*
X0165096Y0128800D02*
X0165098Y0128886D01*
X0165104Y0128972D01*
X0165114Y0129057D01*
X0165127Y0129142D01*
X0165145Y0129226D01*
X0165166Y0129309D01*
X0165191Y0129392D01*
X0165219Y0129473D01*
X0165252Y0129552D01*
X0165288Y0129630D01*
X0165303Y0129669D01*
X0165322Y0129707D01*
X0165344Y0129743D01*
X0165369Y0129776D01*
X0165397Y0129807D01*
X0165427Y0129836D01*
X0165460Y0129862D01*
X0165495Y0129885D01*
X0165532Y0129904D01*
X0165571Y0129921D01*
X0165611Y0129933D01*
X0165652Y0129943D01*
X0165693Y0129948D01*
X0165735Y0129950D01*
X0165777Y0129948D01*
X0165818Y0129943D01*
X0165859Y0129933D01*
X0165899Y0129921D01*
X0165938Y0129904D01*
X0165975Y0129885D01*
X0166010Y0129862D01*
X0166043Y0129836D01*
X0166073Y0129807D01*
X0166101Y0129776D01*
X0166126Y0129743D01*
X0166148Y0129707D01*
X0166167Y0129669D01*
X0166182Y0129630D01*
X0166246Y0129439D02*
X0165224Y0128161D01*
X0165735Y0127650D02*
X0165777Y0127652D01*
X0165818Y0127657D01*
X0165859Y0127667D01*
X0165899Y0127679D01*
X0165938Y0127696D01*
X0165975Y0127715D01*
X0166010Y0127738D01*
X0166043Y0127764D01*
X0166073Y0127793D01*
X0166101Y0127824D01*
X0166126Y0127857D01*
X0166148Y0127893D01*
X0166167Y0127931D01*
X0166182Y0127970D01*
X0165735Y0127650D02*
X0165693Y0127652D01*
X0165652Y0127657D01*
X0165611Y0127667D01*
X0165571Y0127679D01*
X0165532Y0127696D01*
X0165495Y0127715D01*
X0165460Y0127738D01*
X0165427Y0127764D01*
X0165397Y0127793D01*
X0165369Y0127824D01*
X0165344Y0127857D01*
X0165322Y0127893D01*
X0165303Y0127931D01*
X0165288Y0127970D01*
X0166373Y0128800D02*
X0166371Y0128886D01*
X0166365Y0128972D01*
X0166355Y0129057D01*
X0166342Y0129142D01*
X0166324Y0129226D01*
X0166303Y0129309D01*
X0166278Y0129392D01*
X0166250Y0129473D01*
X0166217Y0129552D01*
X0166181Y0129630D01*
X0167256Y0129439D02*
X0167895Y0129950D01*
X0167895Y0127650D01*
X0167256Y0127650D02*
X0168534Y0127650D01*
X0169416Y0127650D02*
X0170182Y0127650D01*
X0170224Y0127652D01*
X0170266Y0127657D01*
X0170307Y0127666D01*
X0170348Y0127678D01*
X0170387Y0127693D01*
X0170425Y0127712D01*
X0170461Y0127733D01*
X0170496Y0127758D01*
X0170528Y0127785D01*
X0170558Y0127815D01*
X0170585Y0127847D01*
X0170610Y0127882D01*
X0170631Y0127918D01*
X0170650Y0127956D01*
X0170665Y0127995D01*
X0170677Y0128036D01*
X0170686Y0128077D01*
X0170691Y0128119D01*
X0170693Y0128161D01*
X0170693Y0128417D01*
X0172661Y0127970D02*
X0172697Y0128048D01*
X0172730Y0128127D01*
X0172758Y0128208D01*
X0172783Y0128291D01*
X0172804Y0128374D01*
X0172822Y0128458D01*
X0172835Y0128543D01*
X0172845Y0128628D01*
X0172851Y0128714D01*
X0172853Y0128800D01*
X0171576Y0128800D02*
X0171578Y0128886D01*
X0171584Y0128972D01*
X0171594Y0129057D01*
X0171607Y0129142D01*
X0171625Y0129226D01*
X0171646Y0129309D01*
X0171671Y0129392D01*
X0171699Y0129473D01*
X0171732Y0129552D01*
X0171768Y0129630D01*
X0172215Y0129950D02*
X0172257Y0129948D01*
X0172298Y0129943D01*
X0172339Y0129933D01*
X0172379Y0129921D01*
X0172418Y0129904D01*
X0172455Y0129885D01*
X0172490Y0129862D01*
X0172523Y0129836D01*
X0172553Y0129807D01*
X0172581Y0129776D01*
X0172606Y0129743D01*
X0172628Y0129707D01*
X0172647Y0129669D01*
X0172662Y0129630D01*
X0172726Y0129439D02*
X0171703Y0128161D01*
X0172215Y0127650D02*
X0172257Y0127652D01*
X0172298Y0127657D01*
X0172339Y0127667D01*
X0172379Y0127679D01*
X0172418Y0127696D01*
X0172455Y0127715D01*
X0172490Y0127738D01*
X0172523Y0127764D01*
X0172553Y0127793D01*
X0172581Y0127824D01*
X0172606Y0127857D01*
X0172628Y0127893D01*
X0172647Y0127931D01*
X0172662Y0127970D01*
X0172215Y0127650D02*
X0172173Y0127652D01*
X0172132Y0127657D01*
X0172091Y0127667D01*
X0172051Y0127679D01*
X0172012Y0127696D01*
X0171975Y0127715D01*
X0171940Y0127738D01*
X0171907Y0127764D01*
X0171877Y0127793D01*
X0171849Y0127824D01*
X0171824Y0127857D01*
X0171802Y0127893D01*
X0171783Y0127931D01*
X0171768Y0127970D01*
X0172853Y0128800D02*
X0172851Y0128886D01*
X0172845Y0128972D01*
X0172835Y0129057D01*
X0172822Y0129142D01*
X0172804Y0129226D01*
X0172783Y0129309D01*
X0172758Y0129392D01*
X0172730Y0129473D01*
X0172697Y0129552D01*
X0172661Y0129630D01*
X0172215Y0129950D02*
X0172173Y0129948D01*
X0172132Y0129943D01*
X0172091Y0129933D01*
X0172051Y0129921D01*
X0172012Y0129904D01*
X0171975Y0129885D01*
X0171940Y0129862D01*
X0171907Y0129836D01*
X0171877Y0129807D01*
X0171849Y0129776D01*
X0171824Y0129743D01*
X0171802Y0129707D01*
X0171783Y0129669D01*
X0171768Y0129630D01*
X0170693Y0129950D02*
X0169416Y0129950D01*
X0169416Y0128928D01*
X0170182Y0128928D01*
X0170224Y0128926D01*
X0170266Y0128921D01*
X0170307Y0128912D01*
X0170348Y0128900D01*
X0170387Y0128885D01*
X0170425Y0128866D01*
X0170461Y0128845D01*
X0170496Y0128820D01*
X0170528Y0128793D01*
X0170558Y0128763D01*
X0170585Y0128731D01*
X0170610Y0128696D01*
X0170631Y0128660D01*
X0170650Y0128622D01*
X0170665Y0128583D01*
X0170677Y0128542D01*
X0170686Y0128501D01*
X0170691Y0128459D01*
X0170693Y0128417D01*
X0171576Y0128800D02*
X0171578Y0128714D01*
X0171584Y0128628D01*
X0171594Y0128543D01*
X0171607Y0128458D01*
X0171625Y0128374D01*
X0171646Y0128291D01*
X0171671Y0128208D01*
X0171699Y0128127D01*
X0171732Y0128048D01*
X0171768Y0127970D01*
X0173736Y0128289D02*
X0173738Y0128240D01*
X0173743Y0128191D01*
X0173753Y0128143D01*
X0173766Y0128096D01*
X0173782Y0128050D01*
X0173802Y0128005D01*
X0173826Y0127962D01*
X0173852Y0127921D01*
X0173882Y0127882D01*
X0173915Y0127846D01*
X0173950Y0127812D01*
X0173988Y0127781D01*
X0174028Y0127753D01*
X0174070Y0127728D01*
X0174114Y0127706D01*
X0174159Y0127688D01*
X0174206Y0127673D01*
X0174253Y0127662D01*
X0174302Y0127654D01*
X0174351Y0127650D01*
X0174399Y0127650D01*
X0174448Y0127654D01*
X0174497Y0127662D01*
X0174544Y0127673D01*
X0174591Y0127688D01*
X0174636Y0127706D01*
X0174680Y0127728D01*
X0174722Y0127753D01*
X0174762Y0127781D01*
X0174800Y0127812D01*
X0174835Y0127846D01*
X0174868Y0127882D01*
X0174898Y0127921D01*
X0174924Y0127962D01*
X0174948Y0128005D01*
X0174968Y0128050D01*
X0174984Y0128096D01*
X0174997Y0128143D01*
X0175007Y0128191D01*
X0175012Y0128240D01*
X0175014Y0128289D01*
X0175012Y0128338D01*
X0175007Y0128387D01*
X0174997Y0128435D01*
X0174984Y0128482D01*
X0174968Y0128528D01*
X0174948Y0128573D01*
X0174924Y0128616D01*
X0174898Y0128657D01*
X0174868Y0128696D01*
X0174835Y0128732D01*
X0174800Y0128766D01*
X0174762Y0128797D01*
X0174722Y0128825D01*
X0174680Y0128850D01*
X0174636Y0128872D01*
X0174591Y0128890D01*
X0174544Y0128905D01*
X0174497Y0128916D01*
X0174448Y0128924D01*
X0174399Y0128928D01*
X0174351Y0128928D01*
X0174302Y0128924D01*
X0174253Y0128916D01*
X0174206Y0128905D01*
X0174159Y0128890D01*
X0174114Y0128872D01*
X0174070Y0128850D01*
X0174028Y0128825D01*
X0173988Y0128797D01*
X0173950Y0128766D01*
X0173915Y0128732D01*
X0173882Y0128696D01*
X0173852Y0128657D01*
X0173826Y0128616D01*
X0173802Y0128573D01*
X0173782Y0128528D01*
X0173766Y0128482D01*
X0173753Y0128435D01*
X0173743Y0128387D01*
X0173738Y0128338D01*
X0173736Y0128289D01*
X0173864Y0129439D02*
X0173866Y0129396D01*
X0173871Y0129353D01*
X0173880Y0129310D01*
X0173893Y0129269D01*
X0173909Y0129229D01*
X0173929Y0129190D01*
X0173952Y0129153D01*
X0173977Y0129118D01*
X0174006Y0129085D01*
X0174037Y0129055D01*
X0174071Y0129028D01*
X0174107Y0129004D01*
X0174145Y0128983D01*
X0174184Y0128965D01*
X0174225Y0128950D01*
X0174267Y0128939D01*
X0174310Y0128932D01*
X0174353Y0128928D01*
X0174397Y0128928D01*
X0174440Y0128932D01*
X0174483Y0128939D01*
X0174525Y0128950D01*
X0174566Y0128965D01*
X0174605Y0128983D01*
X0174643Y0129004D01*
X0174679Y0129028D01*
X0174713Y0129055D01*
X0174744Y0129085D01*
X0174773Y0129118D01*
X0174798Y0129153D01*
X0174821Y0129190D01*
X0174841Y0129229D01*
X0174857Y0129269D01*
X0174870Y0129310D01*
X0174879Y0129353D01*
X0174884Y0129396D01*
X0174886Y0129439D01*
X0174884Y0129482D01*
X0174879Y0129525D01*
X0174870Y0129568D01*
X0174857Y0129609D01*
X0174841Y0129649D01*
X0174821Y0129688D01*
X0174798Y0129725D01*
X0174773Y0129760D01*
X0174744Y0129793D01*
X0174713Y0129823D01*
X0174679Y0129850D01*
X0174643Y0129874D01*
X0174605Y0129895D01*
X0174566Y0129913D01*
X0174525Y0129928D01*
X0174483Y0129939D01*
X0174440Y0129946D01*
X0174397Y0129950D01*
X0174353Y0129950D01*
X0174310Y0129946D01*
X0174267Y0129939D01*
X0174225Y0129928D01*
X0174184Y0129913D01*
X0174145Y0129895D01*
X0174107Y0129874D01*
X0174071Y0129850D01*
X0174037Y0129823D01*
X0174006Y0129793D01*
X0173977Y0129760D01*
X0173952Y0129725D01*
X0173929Y0129688D01*
X0173909Y0129649D01*
X0173893Y0129609D01*
X0173880Y0129568D01*
X0173871Y0129525D01*
X0173866Y0129482D01*
X0173864Y0129439D01*
X0175984Y0129950D02*
X0176751Y0128672D01*
X0177517Y0129950D01*
X0177517Y0127650D01*
X0178570Y0127650D02*
X0178570Y0129950D01*
X0179209Y0129950D01*
X0179258Y0129948D01*
X0179307Y0129943D01*
X0179355Y0129933D01*
X0179402Y0129920D01*
X0179448Y0129904D01*
X0179493Y0129884D01*
X0179536Y0129860D01*
X0179577Y0129834D01*
X0179616Y0129804D01*
X0179652Y0129771D01*
X0179686Y0129736D01*
X0179717Y0129698D01*
X0179745Y0129658D01*
X0179770Y0129616D01*
X0179792Y0129572D01*
X0179810Y0129527D01*
X0179825Y0129480D01*
X0179836Y0129433D01*
X0179844Y0129384D01*
X0179848Y0129335D01*
X0179848Y0129287D01*
X0179844Y0129238D01*
X0179836Y0129189D01*
X0179825Y0129142D01*
X0179810Y0129095D01*
X0179792Y0129050D01*
X0179770Y0129006D01*
X0179745Y0128964D01*
X0179717Y0128924D01*
X0179686Y0128886D01*
X0179652Y0128851D01*
X0179616Y0128818D01*
X0179577Y0128788D01*
X0179536Y0128762D01*
X0179493Y0128738D01*
X0179448Y0128718D01*
X0179402Y0128702D01*
X0179355Y0128689D01*
X0179307Y0128679D01*
X0179258Y0128674D01*
X0179209Y0128672D01*
X0178570Y0128672D01*
X0179337Y0128672D02*
X0179848Y0127650D01*
X0180736Y0128544D02*
X0182269Y0128544D01*
X0183250Y0128672D02*
X0183889Y0128672D01*
X0184017Y0128672D02*
X0184528Y0127650D01*
X0183250Y0127650D02*
X0183250Y0129950D01*
X0183889Y0129950D01*
X0183938Y0129948D01*
X0183987Y0129943D01*
X0184035Y0129933D01*
X0184082Y0129920D01*
X0184128Y0129904D01*
X0184173Y0129884D01*
X0184216Y0129860D01*
X0184257Y0129834D01*
X0184296Y0129804D01*
X0184332Y0129771D01*
X0184366Y0129736D01*
X0184397Y0129698D01*
X0184425Y0129658D01*
X0184450Y0129616D01*
X0184472Y0129572D01*
X0184490Y0129527D01*
X0184505Y0129480D01*
X0184516Y0129433D01*
X0184524Y0129384D01*
X0184528Y0129335D01*
X0184528Y0129287D01*
X0184524Y0129238D01*
X0184516Y0129189D01*
X0184505Y0129142D01*
X0184490Y0129095D01*
X0184472Y0129050D01*
X0184450Y0129006D01*
X0184425Y0128964D01*
X0184397Y0128924D01*
X0184366Y0128886D01*
X0184332Y0128851D01*
X0184296Y0128818D01*
X0184257Y0128788D01*
X0184216Y0128762D01*
X0184173Y0128738D01*
X0184128Y0128718D01*
X0184082Y0128702D01*
X0184035Y0128689D01*
X0183987Y0128679D01*
X0183938Y0128674D01*
X0183889Y0128672D01*
X0175984Y0127650D02*
X0175984Y0129950D01*
X0165288Y0127970D02*
X0165252Y0128048D01*
X0165219Y0128127D01*
X0165191Y0128208D01*
X0165166Y0128291D01*
X0165145Y0128374D01*
X0165127Y0128458D01*
X0165114Y0128543D01*
X0165104Y0128628D01*
X0165098Y0128714D01*
X0165096Y0128800D01*
D13*
X0150500Y0125800D02*
X0150750Y0125314D01*
X0151013Y0124834D01*
X0151287Y0124361D01*
X0151572Y0123894D01*
X0151869Y0123435D01*
X0152177Y0122983D01*
X0152496Y0122539D01*
X0152825Y0122103D01*
X0153166Y0121674D01*
X0153516Y0121255D01*
X0153877Y0120844D01*
X0154248Y0120442D01*
X0154628Y0120049D01*
X0155018Y0119666D01*
X0155417Y0119292D01*
X0155825Y0118928D01*
X0156242Y0118574D01*
X0156668Y0118231D01*
X0157102Y0117898D01*
X0157543Y0117575D01*
X0157993Y0117264D01*
X0158450Y0116964D01*
X0158914Y0116675D01*
X0159385Y0116397D01*
X0159863Y0116131D01*
X0160347Y0115877D01*
X0160838Y0115634D01*
X0161334Y0115404D01*
X0161835Y0115186D01*
X0162342Y0114980D01*
X0162853Y0114787D01*
X0163369Y0114606D01*
X0163890Y0114438D01*
X0164414Y0114283D01*
X0164942Y0114141D01*
X0165473Y0114011D01*
X0166008Y0113895D01*
X0166545Y0113792D01*
X0167084Y0113701D01*
X0167626Y0113625D01*
X0168169Y0113561D01*
X0168713Y0113511D01*
X0169259Y0113473D01*
X0169805Y0113450D01*
X0170352Y0113439D01*
X0170899Y0113443D01*
X0171445Y0113459D01*
X0171991Y0113489D01*
X0172537Y0113532D01*
X0173080Y0113588D01*
X0173623Y0113658D01*
X0174163Y0113741D01*
X0174702Y0113837D01*
X0175237Y0113947D01*
X0175770Y0114069D01*
X0176300Y0114204D01*
X0176827Y0114353D01*
X0177349Y0114514D01*
X0177868Y0114688D01*
X0178382Y0114874D01*
X0178891Y0115073D01*
X0179395Y0115285D01*
X0179894Y0115508D01*
X0180388Y0115744D01*
X0180875Y0115992D01*
X0181357Y0116251D01*
X0181831Y0116523D01*
X0182299Y0116806D01*
X0182760Y0117100D01*
X0183214Y0117405D01*
X0183660Y0117722D01*
X0184098Y0118049D01*
X0184528Y0118387D01*
X0184950Y0118735D01*
X0185363Y0119093D01*
X0185767Y0119462D01*
X0186162Y0119840D01*
X0186547Y0120228D01*
X0186923Y0120625D01*
X0187290Y0121031D01*
X0187646Y0121446D01*
X0187992Y0121870D01*
X0188327Y0122302D01*
X0188652Y0122741D01*
X0188966Y0123189D01*
X0189269Y0123645D01*
X0189560Y0124107D01*
X0189840Y0124577D01*
X0190109Y0125053D01*
X0190366Y0125536D01*
X0190611Y0126025D01*
X0190844Y0126519D01*
X0191065Y0127020D01*
X0191274Y0127525D01*
X0191470Y0128036D01*
X0191653Y0128551D01*
X0191824Y0129070D01*
X0191982Y0129594D01*
X0192128Y0130121D01*
X0192260Y0130651D01*
X0192380Y0131185D01*
X0192486Y0131721D01*
X0192579Y0132260D01*
X0192659Y0132801D01*
X0192726Y0133344D01*
X0192779Y0133888D01*
X0192819Y0134434D01*
X0192846Y0134980D01*
X0192859Y0135527D01*
X0192859Y0136073D01*
X0192846Y0136620D01*
X0192819Y0137166D01*
X0192779Y0137712D01*
X0192726Y0138256D01*
X0192659Y0138799D01*
X0192579Y0139340D01*
X0192486Y0139879D01*
X0192380Y0140415D01*
X0192260Y0140949D01*
X0192128Y0141479D01*
X0191982Y0142006D01*
X0191824Y0142530D01*
X0191653Y0143049D01*
X0191470Y0143564D01*
X0191274Y0144075D01*
X0191065Y0144580D01*
X0190844Y0145081D01*
X0190611Y0145575D01*
X0190366Y0146064D01*
X0190109Y0146547D01*
X0189840Y0147023D01*
X0189560Y0147493D01*
X0189269Y0147955D01*
X0188966Y0148411D01*
X0188652Y0148859D01*
X0188327Y0149298D01*
X0187992Y0149730D01*
X0187646Y0150154D01*
X0187290Y0150569D01*
X0186923Y0150975D01*
X0186547Y0151372D01*
X0186162Y0151760D01*
X0185767Y0152138D01*
X0185363Y0152507D01*
X0184950Y0152865D01*
X0184528Y0153213D01*
X0184098Y0153551D01*
X0183660Y0153878D01*
X0183214Y0154195D01*
X0182760Y0154500D01*
X0182299Y0154794D01*
X0181831Y0155077D01*
X0181357Y0155349D01*
X0180875Y0155608D01*
X0180388Y0155856D01*
X0179894Y0156092D01*
X0179395Y0156315D01*
X0178891Y0156527D01*
X0178382Y0156726D01*
X0177868Y0156912D01*
X0177349Y0157086D01*
X0176827Y0157247D01*
X0176300Y0157396D01*
X0175770Y0157531D01*
X0175237Y0157653D01*
X0174702Y0157763D01*
X0174163Y0157859D01*
X0173623Y0157942D01*
X0173080Y0158012D01*
X0172537Y0158068D01*
X0171991Y0158111D01*
X0171445Y0158141D01*
X0170899Y0158157D01*
X0170352Y0158161D01*
X0169805Y0158150D01*
X0169259Y0158127D01*
X0168713Y0158089D01*
X0168169Y0158039D01*
X0167626Y0157975D01*
X0167084Y0157899D01*
X0166545Y0157808D01*
X0166008Y0157705D01*
X0165473Y0157589D01*
X0164942Y0157459D01*
X0164414Y0157317D01*
X0163890Y0157162D01*
X0163369Y0156994D01*
X0162853Y0156813D01*
X0162342Y0156620D01*
X0161835Y0156414D01*
X0161334Y0156196D01*
X0160838Y0155966D01*
X0160347Y0155723D01*
X0159863Y0155469D01*
X0159385Y0155203D01*
X0158914Y0154925D01*
X0158450Y0154636D01*
X0157993Y0154336D01*
X0157543Y0154025D01*
X0157102Y0153702D01*
X0156668Y0153369D01*
X0156242Y0153026D01*
X0155825Y0152672D01*
X0155417Y0152308D01*
X0155018Y0151934D01*
X0154628Y0151551D01*
X0154248Y0151158D01*
X0153877Y0150756D01*
X0153516Y0150345D01*
X0153166Y0149926D01*
X0152825Y0149497D01*
X0152496Y0149061D01*
X0152177Y0148617D01*
X0151869Y0148165D01*
X0151572Y0147706D01*
X0151287Y0147239D01*
X0151013Y0146766D01*
X0150750Y0146286D01*
X0150500Y0145800D01*
X0150256Y0145797D01*
X0150013Y0145788D01*
X0149770Y0145773D01*
X0149527Y0145753D01*
X0149285Y0145726D01*
X0149044Y0145693D01*
X0148804Y0145655D01*
X0148564Y0145611D01*
X0148326Y0145561D01*
X0148089Y0145505D01*
X0147853Y0145443D01*
X0147619Y0145376D01*
X0147387Y0145303D01*
X0147156Y0145224D01*
X0146928Y0145140D01*
X0146701Y0145050D01*
X0146477Y0144955D01*
X0146255Y0144854D01*
X0146036Y0144748D01*
X0145820Y0144637D01*
X0145606Y0144520D01*
X0145395Y0144399D01*
X0145187Y0144272D01*
X0144982Y0144140D01*
X0144781Y0144003D01*
X0144583Y0143861D01*
X0144388Y0143715D01*
X0144197Y0143564D01*
X0144010Y0143408D01*
X0143827Y0143248D01*
X0143647Y0143083D01*
X0143472Y0142914D01*
X0143301Y0142741D01*
X0143134Y0142563D01*
X0142972Y0142382D01*
X0142814Y0142197D01*
X0142660Y0142008D01*
X0142511Y0141815D01*
X0142367Y0141619D01*
X0142228Y0141419D01*
X0142093Y0141216D01*
X0141964Y0141009D01*
X0141840Y0140800D01*
X0141721Y0140588D01*
X0141607Y0140372D01*
X0141498Y0140155D01*
X0141395Y0139934D01*
X0141297Y0139711D01*
X0141204Y0139486D01*
X0141117Y0139258D01*
X0141036Y0139029D01*
X0140960Y0138797D01*
X0140890Y0138564D01*
X0140825Y0138329D01*
X0140766Y0138093D01*
X0140713Y0137855D01*
X0140666Y0137616D01*
X0140625Y0137376D01*
X0140590Y0137135D01*
X0140560Y0136894D01*
X0140536Y0136651D01*
X0140519Y0136408D01*
X0140507Y0136165D01*
X0140501Y0135922D01*
X0140501Y0135678D01*
X0140507Y0135435D01*
X0140519Y0135192D01*
X0140536Y0134949D01*
X0140560Y0134706D01*
X0140590Y0134465D01*
X0140625Y0134224D01*
X0140666Y0133984D01*
X0140713Y0133745D01*
X0140766Y0133507D01*
X0140825Y0133271D01*
X0140890Y0133036D01*
X0140960Y0132803D01*
X0141036Y0132571D01*
X0141117Y0132342D01*
X0141204Y0132114D01*
X0141297Y0131889D01*
X0141395Y0131666D01*
X0141498Y0131445D01*
X0141607Y0131228D01*
X0141721Y0131012D01*
X0141840Y0130800D01*
X0141964Y0130591D01*
X0142093Y0130384D01*
X0142228Y0130181D01*
X0142367Y0129981D01*
X0142511Y0129785D01*
X0142660Y0129592D01*
X0142814Y0129403D01*
X0142972Y0129218D01*
X0143134Y0129037D01*
X0143301Y0128859D01*
X0143472Y0128686D01*
X0143647Y0128517D01*
X0143827Y0128352D01*
X0144010Y0128192D01*
X0144197Y0128036D01*
X0144388Y0127885D01*
X0144583Y0127739D01*
X0144781Y0127597D01*
X0144982Y0127460D01*
X0145187Y0127328D01*
X0145395Y0127201D01*
X0145606Y0127080D01*
X0145820Y0126963D01*
X0146036Y0126852D01*
X0146255Y0126746D01*
X0146477Y0126645D01*
X0146701Y0126550D01*
X0146928Y0126460D01*
X0147156Y0126376D01*
X0147387Y0126297D01*
X0147619Y0126224D01*
X0147853Y0126157D01*
X0148089Y0126095D01*
X0148326Y0126039D01*
X0148564Y0125989D01*
X0148804Y0125945D01*
X0149044Y0125907D01*
X0149285Y0125874D01*
X0149527Y0125847D01*
X0149770Y0125827D01*
X0150013Y0125812D01*
X0150256Y0125803D01*
X0150500Y0125800D01*
X0140972Y0135800D02*
X0140981Y0136525D01*
X0141008Y0137249D01*
X0141052Y0137972D01*
X0141114Y0138694D01*
X0141194Y0139415D01*
X0141292Y0140133D01*
X0141407Y0140848D01*
X0141539Y0141561D01*
X0141689Y0142270D01*
X0141857Y0142975D01*
X0142042Y0143675D01*
X0142243Y0144372D01*
X0142462Y0145062D01*
X0142698Y0145748D01*
X0142951Y0146427D01*
X0143220Y0147100D01*
X0143505Y0147766D01*
X0143807Y0148425D01*
X0144125Y0149076D01*
X0144459Y0149719D01*
X0144808Y0150354D01*
X0145173Y0150980D01*
X0145553Y0151597D01*
X0145948Y0152205D01*
X0146358Y0152802D01*
X0146783Y0153390D01*
X0147222Y0153967D01*
X0147675Y0154532D01*
X0148141Y0155087D01*
X0148621Y0155630D01*
X0149114Y0156161D01*
X0149621Y0156679D01*
X0150139Y0157186D01*
X0150670Y0157679D01*
X0151213Y0158159D01*
X0151768Y0158625D01*
X0152333Y0159078D01*
X0152910Y0159517D01*
X0153498Y0159942D01*
X0154095Y0160352D01*
X0154703Y0160747D01*
X0155320Y0161127D01*
X0155946Y0161492D01*
X0156581Y0161841D01*
X0157224Y0162175D01*
X0157875Y0162493D01*
X0158534Y0162795D01*
X0159200Y0163080D01*
X0159873Y0163349D01*
X0160552Y0163602D01*
X0161238Y0163838D01*
X0161928Y0164057D01*
X0162625Y0164258D01*
X0163325Y0164443D01*
X0164030Y0164611D01*
X0164739Y0164761D01*
X0165452Y0164893D01*
X0166167Y0165008D01*
X0166885Y0165106D01*
X0167606Y0165186D01*
X0168328Y0165248D01*
X0169051Y0165292D01*
X0169775Y0165319D01*
X0170500Y0165328D01*
X0171225Y0165319D01*
X0171949Y0165292D01*
X0172672Y0165248D01*
X0173394Y0165186D01*
X0174115Y0165106D01*
X0174833Y0165008D01*
X0175548Y0164893D01*
X0176261Y0164761D01*
X0176970Y0164611D01*
X0177675Y0164443D01*
X0178375Y0164258D01*
X0179072Y0164057D01*
X0179762Y0163838D01*
X0180448Y0163602D01*
X0181127Y0163349D01*
X0181800Y0163080D01*
X0182466Y0162795D01*
X0183125Y0162493D01*
X0183776Y0162175D01*
X0184419Y0161841D01*
X0185054Y0161492D01*
X0185680Y0161127D01*
X0186297Y0160747D01*
X0186905Y0160352D01*
X0187502Y0159942D01*
X0188090Y0159517D01*
X0188667Y0159078D01*
X0189232Y0158625D01*
X0189787Y0158159D01*
X0190330Y0157679D01*
X0190861Y0157186D01*
X0191379Y0156679D01*
X0191886Y0156161D01*
X0192379Y0155630D01*
X0192859Y0155087D01*
X0193325Y0154532D01*
X0193778Y0153967D01*
X0194217Y0153390D01*
X0194642Y0152802D01*
X0195052Y0152205D01*
X0195447Y0151597D01*
X0195827Y0150980D01*
X0196192Y0150354D01*
X0196541Y0149719D01*
X0196875Y0149076D01*
X0197193Y0148425D01*
X0197495Y0147766D01*
X0197780Y0147100D01*
X0198049Y0146427D01*
X0198302Y0145748D01*
X0198538Y0145062D01*
X0198757Y0144372D01*
X0198958Y0143675D01*
X0199143Y0142975D01*
X0199311Y0142270D01*
X0199461Y0141561D01*
X0199593Y0140848D01*
X0199708Y0140133D01*
X0199806Y0139415D01*
X0199886Y0138694D01*
X0199948Y0137972D01*
X0199992Y0137249D01*
X0200019Y0136525D01*
X0200028Y0135800D01*
X0200019Y0135075D01*
X0199992Y0134351D01*
X0199948Y0133628D01*
X0199886Y0132906D01*
X0199806Y0132185D01*
X0199708Y0131467D01*
X0199593Y0130752D01*
X0199461Y0130039D01*
X0199311Y0129330D01*
X0199143Y0128625D01*
X0198958Y0127925D01*
X0198757Y0127228D01*
X0198538Y0126538D01*
X0198302Y0125852D01*
X0198049Y0125173D01*
X0197780Y0124500D01*
X0197495Y0123834D01*
X0197193Y0123175D01*
X0196875Y0122524D01*
X0196541Y0121881D01*
X0196192Y0121246D01*
X0195827Y0120620D01*
X0195447Y0120003D01*
X0195052Y0119395D01*
X0194642Y0118798D01*
X0194217Y0118210D01*
X0193778Y0117633D01*
X0193325Y0117068D01*
X0192859Y0116513D01*
X0192379Y0115970D01*
X0191886Y0115439D01*
X0191379Y0114921D01*
X0190861Y0114414D01*
X0190330Y0113921D01*
X0189787Y0113441D01*
X0189232Y0112975D01*
X0188667Y0112522D01*
X0188090Y0112083D01*
X0187502Y0111658D01*
X0186905Y0111248D01*
X0186297Y0110853D01*
X0185680Y0110473D01*
X0185054Y0110108D01*
X0184419Y0109759D01*
X0183776Y0109425D01*
X0183125Y0109107D01*
X0182466Y0108805D01*
X0181800Y0108520D01*
X0181127Y0108251D01*
X0180448Y0107998D01*
X0179762Y0107762D01*
X0179072Y0107543D01*
X0178375Y0107342D01*
X0177675Y0107157D01*
X0176970Y0106989D01*
X0176261Y0106839D01*
X0175548Y0106707D01*
X0174833Y0106592D01*
X0174115Y0106494D01*
X0173394Y0106414D01*
X0172672Y0106352D01*
X0171949Y0106308D01*
X0171225Y0106281D01*
X0170500Y0106272D01*
X0169775Y0106281D01*
X0169051Y0106308D01*
X0168328Y0106352D01*
X0167606Y0106414D01*
X0166885Y0106494D01*
X0166167Y0106592D01*
X0165452Y0106707D01*
X0164739Y0106839D01*
X0164030Y0106989D01*
X0163325Y0107157D01*
X0162625Y0107342D01*
X0161928Y0107543D01*
X0161238Y0107762D01*
X0160552Y0107998D01*
X0159873Y0108251D01*
X0159200Y0108520D01*
X0158534Y0108805D01*
X0157875Y0109107D01*
X0157224Y0109425D01*
X0156581Y0109759D01*
X0155946Y0110108D01*
X0155320Y0110473D01*
X0154703Y0110853D01*
X0154095Y0111248D01*
X0153498Y0111658D01*
X0152910Y0112083D01*
X0152333Y0112522D01*
X0151768Y0112975D01*
X0151213Y0113441D01*
X0150670Y0113921D01*
X0150139Y0114414D01*
X0149621Y0114921D01*
X0149114Y0115439D01*
X0148621Y0115970D01*
X0148141Y0116513D01*
X0147675Y0117068D01*
X0147222Y0117633D01*
X0146783Y0118210D01*
X0146358Y0118798D01*
X0145948Y0119395D01*
X0145553Y0120003D01*
X0145173Y0120620D01*
X0144808Y0121246D01*
X0144459Y0121881D01*
X0144125Y0122524D01*
X0143807Y0123175D01*
X0143505Y0123834D01*
X0143220Y0124500D01*
X0142951Y0125173D01*
X0142698Y0125852D01*
X0142462Y0126538D01*
X0142243Y0127228D01*
X0142042Y0127925D01*
X0141857Y0128625D01*
X0141689Y0129330D01*
X0141539Y0130039D01*
X0141407Y0130752D01*
X0141292Y0131467D01*
X0141194Y0132185D01*
X0141114Y0132906D01*
X0141052Y0133628D01*
X0141008Y0134351D01*
X0140981Y0135075D01*
X0140972Y0135800D01*
X0123650Y0147201D02*
X0123650Y0147412D01*
X0123648Y0147451D01*
X0123643Y0147490D01*
X0123634Y0147527D01*
X0123622Y0147564D01*
X0123606Y0147600D01*
X0123587Y0147634D01*
X0123565Y0147666D01*
X0123540Y0147696D01*
X0123512Y0147724D01*
X0123482Y0147749D01*
X0123450Y0147771D01*
X0123416Y0147790D01*
X0123380Y0147806D01*
X0123343Y0147818D01*
X0123306Y0147827D01*
X0123267Y0147832D01*
X0123228Y0147834D01*
X0121750Y0147834D01*
X0121750Y0148994D02*
X0121750Y0150050D01*
X0122594Y0149628D02*
X0122594Y0148994D01*
X0121750Y0148994D01*
X0122595Y0149628D02*
X0122597Y0149667D01*
X0122602Y0149706D01*
X0122611Y0149743D01*
X0122623Y0149780D01*
X0122639Y0149816D01*
X0122658Y0149850D01*
X0122680Y0149882D01*
X0122705Y0149912D01*
X0122733Y0149940D01*
X0122763Y0149965D01*
X0122795Y0149987D01*
X0122829Y0150006D01*
X0122865Y0150022D01*
X0122902Y0150034D01*
X0122939Y0150043D01*
X0122978Y0150048D01*
X0123017Y0150050D01*
X0123228Y0150050D01*
X0123267Y0150048D01*
X0123306Y0150043D01*
X0123343Y0150034D01*
X0123380Y0150022D01*
X0123416Y0150006D01*
X0123450Y0149987D01*
X0123482Y0149965D01*
X0123512Y0149940D01*
X0123540Y0149912D01*
X0123565Y0149882D01*
X0123587Y0149850D01*
X0123606Y0149816D01*
X0123622Y0149780D01*
X0123634Y0149743D01*
X0123643Y0149706D01*
X0123648Y0149667D01*
X0123650Y0149628D01*
X0123650Y0148994D01*
X0116500Y0101300D02*
X0116500Y0021300D01*
X0126500Y0021300D01*
X0126500Y0025783D01*
X0126500Y0021300D02*
X0156500Y0021300D01*
X0161500Y0016300D01*
X0186500Y0016300D01*
X0186500Y0021300D01*
X0186500Y0025783D01*
X0186500Y0021300D02*
X0196500Y0021300D01*
X0196500Y0101300D01*
X0116500Y0101300D01*
X0126500Y0076300D02*
X0130555Y0076300D01*
X0134492Y0076300D02*
X0138547Y0076300D01*
X0142484Y0076300D02*
X0146539Y0076300D01*
X0149750Y0075550D02*
X0151000Y0075550D01*
X0150476Y0076300D02*
X0154531Y0076300D01*
X0151000Y0075550D02*
X0151069Y0075552D01*
X0151138Y0075558D01*
X0151206Y0075567D01*
X0151273Y0075580D01*
X0151340Y0075597D01*
X0151406Y0075618D01*
X0151470Y0075642D01*
X0151533Y0075670D01*
X0151595Y0075701D01*
X0151655Y0075735D01*
X0151712Y0075773D01*
X0151768Y0075814D01*
X0151821Y0075857D01*
X0151872Y0075904D01*
X0151920Y0075953D01*
X0151965Y0076005D01*
X0152007Y0076060D01*
X0152046Y0076116D01*
X0152083Y0076175D01*
X0152115Y0076236D01*
X0152145Y0076298D01*
X0152171Y0076362D01*
X0152193Y0076427D01*
X0152212Y0076493D01*
X0152227Y0076560D01*
X0152238Y0076628D01*
X0152246Y0076697D01*
X0152250Y0076766D01*
X0152250Y0076834D01*
X0152246Y0076903D01*
X0152238Y0076972D01*
X0152227Y0077040D01*
X0152212Y0077107D01*
X0152193Y0077173D01*
X0152171Y0077238D01*
X0152145Y0077302D01*
X0152115Y0077364D01*
X0152083Y0077425D01*
X0152046Y0077484D01*
X0152007Y0077540D01*
X0151965Y0077595D01*
X0151920Y0077647D01*
X0151872Y0077696D01*
X0151821Y0077743D01*
X0151768Y0077786D01*
X0151712Y0077827D01*
X0151655Y0077865D01*
X0151595Y0077899D01*
X0151533Y0077930D01*
X0151470Y0077958D01*
X0151406Y0077982D01*
X0151340Y0078003D01*
X0151273Y0078020D01*
X0151206Y0078033D01*
X0151138Y0078042D01*
X0151069Y0078048D01*
X0151000Y0078050D01*
X0150750Y0078050D01*
X0150690Y0078048D01*
X0150629Y0078043D01*
X0150570Y0078034D01*
X0150511Y0078021D01*
X0150452Y0078005D01*
X0150395Y0077985D01*
X0150340Y0077962D01*
X0150285Y0077935D01*
X0150233Y0077906D01*
X0150182Y0077873D01*
X0150133Y0077837D01*
X0150087Y0077799D01*
X0150043Y0077757D01*
X0150001Y0077713D01*
X0149963Y0077667D01*
X0149927Y0077618D01*
X0149894Y0077567D01*
X0149865Y0077515D01*
X0149838Y0077460D01*
X0149815Y0077405D01*
X0149795Y0077348D01*
X0149779Y0077289D01*
X0149766Y0077230D01*
X0149757Y0077171D01*
X0149752Y0077110D01*
X0149750Y0077050D01*
X0149750Y0075550D01*
X0150250Y0072583D02*
X0152250Y0073583D01*
X0150250Y0072333D02*
X0150250Y0071083D01*
X0150250Y0072333D02*
X0150248Y0072402D01*
X0150242Y0072471D01*
X0150233Y0072539D01*
X0150220Y0072606D01*
X0150203Y0072673D01*
X0150182Y0072739D01*
X0150158Y0072803D01*
X0150130Y0072866D01*
X0150099Y0072928D01*
X0150065Y0072988D01*
X0150027Y0073045D01*
X0149986Y0073101D01*
X0149943Y0073154D01*
X0149896Y0073205D01*
X0149847Y0073253D01*
X0149795Y0073298D01*
X0149740Y0073340D01*
X0149684Y0073379D01*
X0149625Y0073416D01*
X0149564Y0073448D01*
X0149502Y0073478D01*
X0149438Y0073504D01*
X0149373Y0073526D01*
X0149307Y0073545D01*
X0149240Y0073560D01*
X0149172Y0073571D01*
X0149103Y0073579D01*
X0149034Y0073583D01*
X0148966Y0073583D01*
X0148897Y0073579D01*
X0148828Y0073571D01*
X0148760Y0073560D01*
X0148693Y0073545D01*
X0148627Y0073526D01*
X0148562Y0073504D01*
X0148498Y0073478D01*
X0148436Y0073448D01*
X0148375Y0073416D01*
X0148316Y0073379D01*
X0148260Y0073340D01*
X0148205Y0073298D01*
X0148153Y0073253D01*
X0148104Y0073205D01*
X0148057Y0073154D01*
X0148014Y0073101D01*
X0147973Y0073045D01*
X0147935Y0072988D01*
X0147901Y0072928D01*
X0147870Y0072866D01*
X0147842Y0072803D01*
X0147818Y0072739D01*
X0147797Y0072673D01*
X0147780Y0072606D01*
X0147767Y0072539D01*
X0147758Y0072471D01*
X0147752Y0072402D01*
X0147750Y0072333D01*
X0147750Y0071083D01*
X0152250Y0071083D01*
X0158469Y0076300D02*
X0162524Y0076300D01*
X0166461Y0076300D02*
X0170516Y0076300D01*
X0174453Y0076300D02*
X0178508Y0076300D01*
X0182445Y0076300D02*
X0186500Y0076300D01*
X0186500Y0071817D01*
X0186500Y0067880D02*
X0186500Y0063398D01*
X0186500Y0059461D02*
X0186500Y0054978D01*
X0186500Y0051041D02*
X0186500Y0046559D01*
X0186500Y0042622D02*
X0186500Y0038139D01*
X0186500Y0034202D02*
X0186500Y0029720D01*
X0149750Y0075550D02*
X0149663Y0075552D01*
X0149576Y0075558D01*
X0149489Y0075567D01*
X0149403Y0075580D01*
X0149317Y0075597D01*
X0149232Y0075618D01*
X0149149Y0075643D01*
X0149066Y0075671D01*
X0148985Y0075702D01*
X0148905Y0075737D01*
X0148827Y0075776D01*
X0148750Y0075818D01*
X0148675Y0075863D01*
X0148603Y0075912D01*
X0148532Y0075963D01*
X0148464Y0076018D01*
X0148399Y0076075D01*
X0148336Y0076136D01*
X0148275Y0076199D01*
X0148218Y0076264D01*
X0148163Y0076332D01*
X0148112Y0076403D01*
X0148063Y0076475D01*
X0148018Y0076550D01*
X0147976Y0076627D01*
X0147937Y0076705D01*
X0147902Y0076785D01*
X0147871Y0076866D01*
X0147843Y0076949D01*
X0147818Y0077032D01*
X0147797Y0077117D01*
X0147780Y0077203D01*
X0147767Y0077289D01*
X0147758Y0077376D01*
X0147752Y0077463D01*
X0147750Y0077550D01*
X0126500Y0076300D02*
X0126500Y0071817D01*
X0126500Y0067880D02*
X0126500Y0063398D01*
X0126500Y0059461D02*
X0126500Y0054978D01*
X0126500Y0051041D02*
X0126500Y0046559D01*
X0126500Y0042622D02*
X0126500Y0038139D01*
X0126500Y0034202D02*
X0126500Y0029720D01*
X0114650Y0040201D02*
X0114650Y0040412D01*
X0114648Y0040451D01*
X0114643Y0040490D01*
X0114634Y0040527D01*
X0114622Y0040564D01*
X0114606Y0040600D01*
X0114587Y0040634D01*
X0114565Y0040666D01*
X0114540Y0040696D01*
X0114512Y0040724D01*
X0114482Y0040749D01*
X0114450Y0040771D01*
X0114416Y0040790D01*
X0114380Y0040806D01*
X0114343Y0040818D01*
X0114306Y0040827D01*
X0114267Y0040832D01*
X0114228Y0040834D01*
X0112750Y0040834D01*
X0113172Y0041994D02*
X0112750Y0042522D01*
X0114650Y0042522D01*
X0114650Y0041994D02*
X0114650Y0043050D01*
X0067500Y0068800D02*
X0064000Y0071300D01*
X0059000Y0068800D01*
X0059000Y0063800D01*
X0061500Y0063800D01*
X0061500Y0058800D01*
X0054000Y0063800D02*
X0051500Y0063800D01*
X0051500Y0058800D01*
X0054000Y0063800D02*
X0054000Y0068800D01*
X0049000Y0071300D01*
X0045500Y0068800D01*
X0041717Y0062050D02*
X0039217Y0062050D01*
X0039217Y0061550D01*
X0041717Y0062050D02*
X0040467Y0057550D01*
X0037250Y0057550D02*
X0036250Y0059550D01*
X0036000Y0059550D02*
X0034750Y0059550D01*
X0036000Y0059550D02*
X0036069Y0059552D01*
X0036138Y0059558D01*
X0036206Y0059567D01*
X0036273Y0059580D01*
X0036340Y0059597D01*
X0036406Y0059618D01*
X0036470Y0059642D01*
X0036533Y0059670D01*
X0036595Y0059701D01*
X0036655Y0059735D01*
X0036712Y0059773D01*
X0036768Y0059814D01*
X0036821Y0059857D01*
X0036872Y0059904D01*
X0036920Y0059953D01*
X0036965Y0060005D01*
X0037007Y0060060D01*
X0037046Y0060116D01*
X0037083Y0060175D01*
X0037115Y0060236D01*
X0037145Y0060298D01*
X0037171Y0060362D01*
X0037193Y0060427D01*
X0037212Y0060493D01*
X0037227Y0060560D01*
X0037238Y0060628D01*
X0037246Y0060697D01*
X0037250Y0060766D01*
X0037250Y0060834D01*
X0037246Y0060903D01*
X0037238Y0060972D01*
X0037227Y0061040D01*
X0037212Y0061107D01*
X0037193Y0061173D01*
X0037171Y0061238D01*
X0037145Y0061302D01*
X0037115Y0061364D01*
X0037083Y0061425D01*
X0037046Y0061484D01*
X0037007Y0061540D01*
X0036965Y0061595D01*
X0036920Y0061647D01*
X0036872Y0061696D01*
X0036821Y0061743D01*
X0036768Y0061786D01*
X0036712Y0061827D01*
X0036655Y0061865D01*
X0036595Y0061899D01*
X0036533Y0061930D01*
X0036470Y0061958D01*
X0036406Y0061982D01*
X0036340Y0062003D01*
X0036273Y0062020D01*
X0036206Y0062033D01*
X0036138Y0062042D01*
X0036069Y0062048D01*
X0036000Y0062050D01*
X0034750Y0062050D01*
X0034750Y0057550D01*
X0022650Y0047944D02*
X0022650Y0046888D01*
X0022650Y0047416D02*
X0020750Y0047416D01*
X0021172Y0046888D01*
X0021278Y0045712D02*
X0022122Y0045712D01*
X0022166Y0045710D01*
X0022209Y0045705D01*
X0022252Y0045696D01*
X0022293Y0045683D01*
X0022334Y0045668D01*
X0022373Y0045648D01*
X0022411Y0045626D01*
X0022446Y0045601D01*
X0022480Y0045572D01*
X0022510Y0045542D01*
X0022539Y0045508D01*
X0022564Y0045473D01*
X0022586Y0045435D01*
X0022606Y0045396D01*
X0022621Y0045355D01*
X0022634Y0045314D01*
X0022643Y0045271D01*
X0022648Y0045228D01*
X0022650Y0045184D01*
X0022650Y0044656D01*
X0020750Y0044656D01*
X0020750Y0045184D01*
X0020752Y0045228D01*
X0020757Y0045271D01*
X0020766Y0045314D01*
X0020779Y0045355D01*
X0020794Y0045396D01*
X0020814Y0045435D01*
X0020836Y0045473D01*
X0020861Y0045508D01*
X0020890Y0045542D01*
X0020920Y0045572D01*
X0020954Y0045601D01*
X0020989Y0045626D01*
X0021027Y0045648D01*
X0021066Y0045668D01*
X0021107Y0045683D01*
X0021148Y0045696D01*
X0021191Y0045705D01*
X0021234Y0045710D01*
X0021278Y0045712D01*
X0009441Y0035606D02*
X0008544Y0034550D01*
X0009599Y0034550D01*
X0008544Y0036028D02*
X0008560Y0036073D01*
X0008580Y0036116D01*
X0008604Y0036158D01*
X0008630Y0036198D01*
X0008660Y0036236D01*
X0008692Y0036271D01*
X0008728Y0036304D01*
X0008765Y0036333D01*
X0008805Y0036360D01*
X0008847Y0036383D01*
X0008890Y0036403D01*
X0008935Y0036420D01*
X0008981Y0036433D01*
X0009029Y0036442D01*
X0009076Y0036448D01*
X0009124Y0036450D01*
X0009165Y0036448D01*
X0009206Y0036443D01*
X0009247Y0036434D01*
X0009286Y0036421D01*
X0009325Y0036405D01*
X0009362Y0036386D01*
X0009396Y0036364D01*
X0009429Y0036339D01*
X0009460Y0036311D01*
X0009488Y0036280D01*
X0009513Y0036247D01*
X0009535Y0036213D01*
X0009554Y0036176D01*
X0009570Y0036137D01*
X0009583Y0036098D01*
X0009592Y0036057D01*
X0009597Y0036016D01*
X0009599Y0035975D01*
X0009597Y0035934D01*
X0009592Y0035893D01*
X0009584Y0035852D01*
X0009572Y0035813D01*
X0009558Y0035774D01*
X0009540Y0035737D01*
X0009519Y0035701D01*
X0009496Y0035667D01*
X0009469Y0035635D01*
X0009441Y0035606D01*
X0007383Y0034972D02*
X0007383Y0036450D01*
X0007383Y0034972D02*
X0007381Y0034933D01*
X0007376Y0034894D01*
X0007367Y0034857D01*
X0007355Y0034820D01*
X0007339Y0034784D01*
X0007320Y0034750D01*
X0007298Y0034718D01*
X0007273Y0034688D01*
X0007245Y0034660D01*
X0007215Y0034635D01*
X0007183Y0034613D01*
X0007149Y0034594D01*
X0007113Y0034578D01*
X0007076Y0034566D01*
X0007039Y0034557D01*
X0007000Y0034552D01*
X0006961Y0034550D01*
X0006750Y0034550D01*
X0006500Y0033300D02*
X0026500Y0033300D01*
X0026500Y0011300D01*
X0021500Y0011300D01*
X0021500Y0016300D01*
X0011500Y0016300D01*
X0011500Y0011300D01*
X0006500Y0011300D01*
X0006500Y0033300D01*
X0011500Y0011300D02*
X0021500Y0011300D01*
X0053000Y0075800D02*
X0056500Y0079300D01*
X0059500Y0079300D01*
X0058000Y0080800D01*
X0062000Y0084800D01*
X0060000Y0086800D02*
X0056000Y0082800D01*
X0054500Y0084300D01*
X0054500Y0081300D01*
X0051000Y0077800D01*
X0049400Y0081300D02*
X0049402Y0081474D01*
X0049409Y0081648D01*
X0049419Y0081822D01*
X0049434Y0081996D01*
X0049453Y0082169D01*
X0049477Y0082342D01*
X0049505Y0082514D01*
X0049536Y0082685D01*
X0049573Y0082856D01*
X0049613Y0083025D01*
X0049657Y0083194D01*
X0049706Y0083361D01*
X0049758Y0083527D01*
X0049815Y0083692D01*
X0049876Y0083855D01*
X0049940Y0084017D01*
X0050009Y0084177D01*
X0050082Y0084336D01*
X0050158Y0084492D01*
X0050238Y0084647D01*
X0050322Y0084800D01*
X0050410Y0084950D01*
X0050502Y0085098D01*
X0050597Y0085245D01*
X0050695Y0085388D01*
X0050797Y0085529D01*
X0050903Y0085668D01*
X0051012Y0085804D01*
X0051124Y0085938D01*
X0051239Y0086068D01*
X0051358Y0086196D01*
X0051480Y0086320D01*
X0051604Y0086442D01*
X0051732Y0086561D01*
X0051862Y0086676D01*
X0051996Y0086788D01*
X0052132Y0086897D01*
X0052271Y0087003D01*
X0052412Y0087105D01*
X0052555Y0087203D01*
X0052702Y0087298D01*
X0052850Y0087390D01*
X0053000Y0087478D01*
X0053153Y0087562D01*
X0053308Y0087642D01*
X0053464Y0087718D01*
X0053623Y0087791D01*
X0053783Y0087860D01*
X0053945Y0087924D01*
X0054108Y0087985D01*
X0054273Y0088042D01*
X0054439Y0088094D01*
X0054606Y0088143D01*
X0054775Y0088187D01*
X0054944Y0088227D01*
X0055115Y0088264D01*
X0055286Y0088295D01*
X0055458Y0088323D01*
X0055631Y0088347D01*
X0055804Y0088366D01*
X0055978Y0088381D01*
X0056152Y0088391D01*
X0056326Y0088398D01*
X0056500Y0088400D01*
X0056674Y0088398D01*
X0056848Y0088391D01*
X0057022Y0088381D01*
X0057196Y0088366D01*
X0057369Y0088347D01*
X0057542Y0088323D01*
X0057714Y0088295D01*
X0057885Y0088264D01*
X0058056Y0088227D01*
X0058225Y0088187D01*
X0058394Y0088143D01*
X0058561Y0088094D01*
X0058727Y0088042D01*
X0058892Y0087985D01*
X0059055Y0087924D01*
X0059217Y0087860D01*
X0059377Y0087791D01*
X0059536Y0087718D01*
X0059692Y0087642D01*
X0059847Y0087562D01*
X0060000Y0087478D01*
X0060150Y0087390D01*
X0060298Y0087298D01*
X0060445Y0087203D01*
X0060588Y0087105D01*
X0060729Y0087003D01*
X0060868Y0086897D01*
X0061004Y0086788D01*
X0061138Y0086676D01*
X0061268Y0086561D01*
X0061396Y0086442D01*
X0061520Y0086320D01*
X0061642Y0086196D01*
X0061761Y0086068D01*
X0061876Y0085938D01*
X0061988Y0085804D01*
X0062097Y0085668D01*
X0062203Y0085529D01*
X0062305Y0085388D01*
X0062403Y0085245D01*
X0062498Y0085098D01*
X0062590Y0084950D01*
X0062678Y0084800D01*
X0062762Y0084647D01*
X0062842Y0084492D01*
X0062918Y0084336D01*
X0062991Y0084177D01*
X0063060Y0084017D01*
X0063124Y0083855D01*
X0063185Y0083692D01*
X0063242Y0083527D01*
X0063294Y0083361D01*
X0063343Y0083194D01*
X0063387Y0083025D01*
X0063427Y0082856D01*
X0063464Y0082685D01*
X0063495Y0082514D01*
X0063523Y0082342D01*
X0063547Y0082169D01*
X0063566Y0081996D01*
X0063581Y0081822D01*
X0063591Y0081648D01*
X0063598Y0081474D01*
X0063600Y0081300D01*
X0063598Y0081126D01*
X0063591Y0080952D01*
X0063581Y0080778D01*
X0063566Y0080604D01*
X0063547Y0080431D01*
X0063523Y0080258D01*
X0063495Y0080086D01*
X0063464Y0079915D01*
X0063427Y0079744D01*
X0063387Y0079575D01*
X0063343Y0079406D01*
X0063294Y0079239D01*
X0063242Y0079073D01*
X0063185Y0078908D01*
X0063124Y0078745D01*
X0063060Y0078583D01*
X0062991Y0078423D01*
X0062918Y0078264D01*
X0062842Y0078108D01*
X0062762Y0077953D01*
X0062678Y0077800D01*
X0062590Y0077650D01*
X0062498Y0077502D01*
X0062403Y0077355D01*
X0062305Y0077212D01*
X0062203Y0077071D01*
X0062097Y0076932D01*
X0061988Y0076796D01*
X0061876Y0076662D01*
X0061761Y0076532D01*
X0061642Y0076404D01*
X0061520Y0076280D01*
X0061396Y0076158D01*
X0061268Y0076039D01*
X0061138Y0075924D01*
X0061004Y0075812D01*
X0060868Y0075703D01*
X0060729Y0075597D01*
X0060588Y0075495D01*
X0060445Y0075397D01*
X0060298Y0075302D01*
X0060150Y0075210D01*
X0060000Y0075122D01*
X0059847Y0075038D01*
X0059692Y0074958D01*
X0059536Y0074882D01*
X0059377Y0074809D01*
X0059217Y0074740D01*
X0059055Y0074676D01*
X0058892Y0074615D01*
X0058727Y0074558D01*
X0058561Y0074506D01*
X0058394Y0074457D01*
X0058225Y0074413D01*
X0058056Y0074373D01*
X0057885Y0074336D01*
X0057714Y0074305D01*
X0057542Y0074277D01*
X0057369Y0074253D01*
X0057196Y0074234D01*
X0057022Y0074219D01*
X0056848Y0074209D01*
X0056674Y0074202D01*
X0056500Y0074200D01*
X0056326Y0074202D01*
X0056152Y0074209D01*
X0055978Y0074219D01*
X0055804Y0074234D01*
X0055631Y0074253D01*
X0055458Y0074277D01*
X0055286Y0074305D01*
X0055115Y0074336D01*
X0054944Y0074373D01*
X0054775Y0074413D01*
X0054606Y0074457D01*
X0054439Y0074506D01*
X0054273Y0074558D01*
X0054108Y0074615D01*
X0053945Y0074676D01*
X0053783Y0074740D01*
X0053623Y0074809D01*
X0053464Y0074882D01*
X0053308Y0074958D01*
X0053153Y0075038D01*
X0053000Y0075122D01*
X0052850Y0075210D01*
X0052702Y0075302D01*
X0052555Y0075397D01*
X0052412Y0075495D01*
X0052271Y0075597D01*
X0052132Y0075703D01*
X0051996Y0075812D01*
X0051862Y0075924D01*
X0051732Y0076039D01*
X0051604Y0076158D01*
X0051480Y0076280D01*
X0051358Y0076404D01*
X0051239Y0076532D01*
X0051124Y0076662D01*
X0051012Y0076796D01*
X0050903Y0076932D01*
X0050797Y0077071D01*
X0050695Y0077212D01*
X0050597Y0077355D01*
X0050502Y0077502D01*
X0050410Y0077650D01*
X0050322Y0077800D01*
X0050238Y0077953D01*
X0050158Y0078108D01*
X0050082Y0078264D01*
X0050009Y0078423D01*
X0049940Y0078583D01*
X0049876Y0078745D01*
X0049815Y0078908D01*
X0049758Y0079073D01*
X0049706Y0079239D01*
X0049657Y0079406D01*
X0049613Y0079575D01*
X0049573Y0079744D01*
X0049536Y0079915D01*
X0049505Y0080086D01*
X0049477Y0080258D01*
X0049453Y0080431D01*
X0049434Y0080604D01*
X0049419Y0080778D01*
X0049409Y0080952D01*
X0049402Y0081126D01*
X0049400Y0081300D01*
X0044000Y0065300D02*
X0043575Y0065611D01*
X0043158Y0065933D01*
X0042750Y0066264D01*
X0042349Y0066606D01*
X0041957Y0066957D01*
X0041573Y0067318D01*
X0041199Y0067688D01*
X0040834Y0068067D01*
X0040478Y0068455D01*
X0040131Y0068851D01*
X0039795Y0069256D01*
X0039468Y0069669D01*
X0039152Y0070090D01*
X0038846Y0070518D01*
X0038551Y0070954D01*
X0038266Y0071397D01*
X0037993Y0071846D01*
X0037730Y0072303D01*
X0037479Y0072765D01*
X0037239Y0073234D01*
X0037010Y0073708D01*
X0036794Y0074188D01*
X0036589Y0074673D01*
X0036396Y0075163D01*
X0036215Y0075657D01*
X0036046Y0076156D01*
X0035890Y0076658D01*
X0035745Y0077165D01*
X0035614Y0077674D01*
X0035495Y0078187D01*
X0035388Y0078703D01*
X0035294Y0079221D01*
X0035213Y0079741D01*
X0035144Y0080263D01*
X0035088Y0080786D01*
X0035046Y0081311D01*
X0035016Y0081836D01*
X0034998Y0082363D01*
X0034994Y0082889D01*
X0035003Y0083415D01*
X0035024Y0083941D01*
X0035059Y0084467D01*
X0035106Y0084991D01*
X0035166Y0085514D01*
X0035239Y0086035D01*
X0035324Y0086555D01*
X0035423Y0087072D01*
X0035533Y0087587D01*
X0035657Y0088098D01*
X0035793Y0088607D01*
X0035941Y0089112D01*
X0036102Y0089613D01*
X0036275Y0090111D01*
X0036460Y0090603D01*
X0036657Y0091092D01*
X0036866Y0091575D01*
X0037086Y0092053D01*
X0037319Y0092525D01*
X0037562Y0092992D01*
X0037817Y0093452D01*
X0038084Y0093906D01*
X0038361Y0094354D01*
X0038649Y0094794D01*
X0038948Y0095228D01*
X0039258Y0095653D01*
X0039578Y0096072D01*
X0039907Y0096482D01*
X0040247Y0096884D01*
X0040597Y0097278D01*
X0040956Y0097662D01*
X0041324Y0098038D01*
X0041702Y0098405D01*
X0042088Y0098763D01*
X0042483Y0099111D01*
X0042887Y0099449D01*
X0043298Y0099777D01*
X0043718Y0100095D01*
X0044145Y0100403D01*
X0044580Y0100700D01*
X0045021Y0100987D01*
X0045470Y0101262D01*
X0045925Y0101526D01*
X0046387Y0101780D01*
X0046854Y0102022D01*
X0047328Y0102252D01*
X0047806Y0102471D01*
X0048291Y0102677D01*
X0048780Y0102872D01*
X0049273Y0103055D01*
X0049771Y0103226D01*
X0050273Y0103385D01*
X0050779Y0103531D01*
X0051288Y0103665D01*
X0051800Y0103786D01*
X0052315Y0103895D01*
X0052833Y0103991D01*
X0053353Y0104074D01*
X0053874Y0104145D01*
X0054398Y0104203D01*
X0054922Y0104248D01*
X0055448Y0104280D01*
X0055974Y0104300D01*
X0056500Y0104306D01*
X0057026Y0104300D01*
X0057552Y0104280D01*
X0058078Y0104248D01*
X0058602Y0104203D01*
X0059126Y0104145D01*
X0059647Y0104074D01*
X0060167Y0103991D01*
X0060685Y0103895D01*
X0061200Y0103786D01*
X0061712Y0103665D01*
X0062221Y0103531D01*
X0062727Y0103385D01*
X0063229Y0103226D01*
X0063727Y0103055D01*
X0064220Y0102872D01*
X0064709Y0102677D01*
X0065194Y0102471D01*
X0065672Y0102252D01*
X0066146Y0102022D01*
X0066613Y0101780D01*
X0067075Y0101526D01*
X0067530Y0101262D01*
X0067979Y0100987D01*
X0068420Y0100700D01*
X0068855Y0100403D01*
X0069282Y0100095D01*
X0069702Y0099777D01*
X0070113Y0099449D01*
X0070517Y0099111D01*
X0070912Y0098763D01*
X0071298Y0098405D01*
X0071676Y0098038D01*
X0072044Y0097662D01*
X0072403Y0097278D01*
X0072753Y0096884D01*
X0073093Y0096482D01*
X0073422Y0096072D01*
X0073742Y0095653D01*
X0074052Y0095228D01*
X0074351Y0094794D01*
X0074639Y0094354D01*
X0074916Y0093906D01*
X0075183Y0093452D01*
X0075438Y0092992D01*
X0075681Y0092525D01*
X0075914Y0092053D01*
X0076134Y0091575D01*
X0076343Y0091092D01*
X0076540Y0090603D01*
X0076725Y0090111D01*
X0076898Y0089613D01*
X0077059Y0089112D01*
X0077207Y0088607D01*
X0077343Y0088098D01*
X0077467Y0087587D01*
X0077577Y0087072D01*
X0077676Y0086555D01*
X0077761Y0086035D01*
X0077834Y0085514D01*
X0077894Y0084991D01*
X0077941Y0084467D01*
X0077976Y0083941D01*
X0077997Y0083415D01*
X0078006Y0082889D01*
X0078002Y0082363D01*
X0077984Y0081836D01*
X0077954Y0081311D01*
X0077912Y0080786D01*
X0077856Y0080263D01*
X0077787Y0079741D01*
X0077706Y0079221D01*
X0077612Y0078703D01*
X0077505Y0078187D01*
X0077386Y0077674D01*
X0077255Y0077165D01*
X0077110Y0076658D01*
X0076954Y0076156D01*
X0076785Y0075657D01*
X0076604Y0075163D01*
X0076411Y0074673D01*
X0076206Y0074188D01*
X0075990Y0073708D01*
X0075761Y0073234D01*
X0075521Y0072765D01*
X0075270Y0072303D01*
X0075007Y0071846D01*
X0074734Y0071397D01*
X0074449Y0070954D01*
X0074154Y0070518D01*
X0073848Y0070090D01*
X0073532Y0069669D01*
X0073205Y0069256D01*
X0072869Y0068851D01*
X0072522Y0068455D01*
X0072166Y0068067D01*
X0071801Y0067688D01*
X0071427Y0067318D01*
X0071043Y0066957D01*
X0070651Y0066606D01*
X0070250Y0066264D01*
X0069842Y0065933D01*
X0069425Y0065611D01*
X0069000Y0065300D01*
X0051217Y0106550D02*
X0048717Y0106550D01*
X0050842Y0109050D01*
X0050092Y0111050D02*
X0050019Y0111048D01*
X0049947Y0111043D01*
X0049875Y0111034D01*
X0049803Y0111021D01*
X0049732Y0111005D01*
X0049662Y0110985D01*
X0049594Y0110961D01*
X0049526Y0110935D01*
X0049460Y0110904D01*
X0049395Y0110871D01*
X0049333Y0110834D01*
X0049272Y0110795D01*
X0049213Y0110752D01*
X0049156Y0110706D01*
X0049102Y0110658D01*
X0049051Y0110607D01*
X0049001Y0110553D01*
X0048955Y0110497D01*
X0048912Y0110439D01*
X0048871Y0110378D01*
X0048834Y0110316D01*
X0048800Y0110252D01*
X0048769Y0110186D01*
X0048741Y0110119D01*
X0048717Y0110050D01*
X0050842Y0109050D02*
X0050888Y0109096D01*
X0050932Y0109145D01*
X0050972Y0109196D01*
X0051010Y0109249D01*
X0051045Y0109304D01*
X0051077Y0109361D01*
X0051106Y0109419D01*
X0051132Y0109479D01*
X0051154Y0109541D01*
X0051173Y0109603D01*
X0051189Y0109666D01*
X0051201Y0109730D01*
X0051210Y0109795D01*
X0051215Y0109860D01*
X0051217Y0109925D01*
X0051215Y0109990D01*
X0051209Y0110056D01*
X0051200Y0110120D01*
X0051187Y0110184D01*
X0051170Y0110248D01*
X0051149Y0110310D01*
X0051125Y0110371D01*
X0051097Y0110430D01*
X0051066Y0110488D01*
X0051032Y0110543D01*
X0050994Y0110597D01*
X0050954Y0110648D01*
X0050910Y0110697D01*
X0050864Y0110743D01*
X0050815Y0110787D01*
X0050764Y0110827D01*
X0050710Y0110865D01*
X0050655Y0110899D01*
X0050597Y0110930D01*
X0050538Y0110958D01*
X0050477Y0110982D01*
X0050415Y0111003D01*
X0050351Y0111020D01*
X0050287Y0111033D01*
X0050223Y0111042D01*
X0050157Y0111048D01*
X0050092Y0111050D01*
X0045500Y0111050D02*
X0044250Y0111050D01*
X0044250Y0106550D01*
X0046750Y0106550D02*
X0045750Y0108550D01*
X0045500Y0108550D02*
X0044250Y0108550D01*
X0045500Y0108550D02*
X0045569Y0108552D01*
X0045638Y0108558D01*
X0045706Y0108567D01*
X0045773Y0108580D01*
X0045840Y0108597D01*
X0045906Y0108618D01*
X0045970Y0108642D01*
X0046033Y0108670D01*
X0046095Y0108701D01*
X0046155Y0108735D01*
X0046212Y0108773D01*
X0046268Y0108814D01*
X0046321Y0108857D01*
X0046372Y0108904D01*
X0046420Y0108953D01*
X0046465Y0109005D01*
X0046507Y0109060D01*
X0046546Y0109116D01*
X0046583Y0109175D01*
X0046615Y0109236D01*
X0046645Y0109298D01*
X0046671Y0109362D01*
X0046693Y0109427D01*
X0046712Y0109493D01*
X0046727Y0109560D01*
X0046738Y0109628D01*
X0046746Y0109697D01*
X0046750Y0109766D01*
X0046750Y0109834D01*
X0046746Y0109903D01*
X0046738Y0109972D01*
X0046727Y0110040D01*
X0046712Y0110107D01*
X0046693Y0110173D01*
X0046671Y0110238D01*
X0046645Y0110302D01*
X0046615Y0110364D01*
X0046583Y0110425D01*
X0046546Y0110484D01*
X0046507Y0110540D01*
X0046465Y0110595D01*
X0046420Y0110647D01*
X0046372Y0110696D01*
X0046321Y0110743D01*
X0046268Y0110786D01*
X0046212Y0110827D01*
X0046155Y0110865D01*
X0046095Y0110899D01*
X0046033Y0110930D01*
X0045970Y0110958D01*
X0045906Y0110982D01*
X0045840Y0111003D01*
X0045773Y0111020D01*
X0045706Y0111033D01*
X0045638Y0111042D01*
X0045569Y0111048D01*
X0045500Y0111050D01*
X0005250Y0111344D02*
X0005250Y0111872D01*
X0005248Y0111917D01*
X0005242Y0111961D01*
X0005233Y0112005D01*
X0005220Y0112048D01*
X0005203Y0112089D01*
X0005183Y0112130D01*
X0005159Y0112168D01*
X0005133Y0112204D01*
X0005103Y0112237D01*
X0005071Y0112268D01*
X0005036Y0112297D01*
X0004999Y0112322D01*
X0004960Y0112343D01*
X0004919Y0112362D01*
X0004877Y0112377D01*
X0004833Y0112388D01*
X0004789Y0112396D01*
X0004744Y0112400D01*
X0004700Y0112400D01*
X0004655Y0112396D01*
X0004611Y0112388D01*
X0004567Y0112377D01*
X0004525Y0112362D01*
X0004484Y0112343D01*
X0004445Y0112322D01*
X0004408Y0112297D01*
X0004373Y0112268D01*
X0004341Y0112237D01*
X0004311Y0112204D01*
X0004285Y0112168D01*
X0004261Y0112130D01*
X0004241Y0112089D01*
X0004224Y0112048D01*
X0004211Y0112005D01*
X0004202Y0111961D01*
X0004196Y0111917D01*
X0004194Y0111872D01*
X0004194Y0111977D02*
X0004194Y0111555D01*
X0004194Y0111977D02*
X0004192Y0112017D01*
X0004186Y0112057D01*
X0004177Y0112096D01*
X0004164Y0112134D01*
X0004147Y0112170D01*
X0004127Y0112205D01*
X0004104Y0112238D01*
X0004077Y0112268D01*
X0004048Y0112296D01*
X0004017Y0112321D01*
X0003983Y0112342D01*
X0003947Y0112361D01*
X0003910Y0112376D01*
X0003871Y0112387D01*
X0003832Y0112395D01*
X0003792Y0112399D01*
X0003752Y0112399D01*
X0003712Y0112395D01*
X0003673Y0112387D01*
X0003634Y0112376D01*
X0003597Y0112361D01*
X0003561Y0112342D01*
X0003527Y0112321D01*
X0003496Y0112296D01*
X0003467Y0112268D01*
X0003440Y0112238D01*
X0003417Y0112205D01*
X0003397Y0112170D01*
X0003380Y0112134D01*
X0003367Y0112096D01*
X0003358Y0112057D01*
X0003352Y0112017D01*
X0003350Y0111977D01*
X0003350Y0111344D01*
X0003350Y0110183D02*
X0004828Y0110183D01*
X0004867Y0110181D01*
X0004906Y0110176D01*
X0004943Y0110167D01*
X0004980Y0110155D01*
X0005016Y0110139D01*
X0005050Y0110120D01*
X0005082Y0110098D01*
X0005112Y0110073D01*
X0005140Y0110045D01*
X0005165Y0110015D01*
X0005187Y0109983D01*
X0005206Y0109949D01*
X0005222Y0109913D01*
X0005234Y0109876D01*
X0005243Y0109839D01*
X0005248Y0109800D01*
X0005250Y0109761D01*
X0005250Y0109550D01*
X0029750Y0157550D02*
X0029750Y0162050D01*
X0031000Y0162050D01*
X0031069Y0162048D01*
X0031138Y0162042D01*
X0031206Y0162033D01*
X0031273Y0162020D01*
X0031340Y0162003D01*
X0031406Y0161982D01*
X0031470Y0161958D01*
X0031533Y0161930D01*
X0031595Y0161899D01*
X0031655Y0161865D01*
X0031712Y0161827D01*
X0031768Y0161786D01*
X0031821Y0161743D01*
X0031872Y0161696D01*
X0031920Y0161647D01*
X0031965Y0161595D01*
X0032007Y0161540D01*
X0032046Y0161484D01*
X0032083Y0161425D01*
X0032115Y0161364D01*
X0032145Y0161302D01*
X0032171Y0161238D01*
X0032193Y0161173D01*
X0032212Y0161107D01*
X0032227Y0161040D01*
X0032238Y0160972D01*
X0032246Y0160903D01*
X0032250Y0160834D01*
X0032250Y0160766D01*
X0032246Y0160697D01*
X0032238Y0160628D01*
X0032227Y0160560D01*
X0032212Y0160493D01*
X0032193Y0160427D01*
X0032171Y0160362D01*
X0032145Y0160298D01*
X0032115Y0160236D01*
X0032083Y0160175D01*
X0032046Y0160116D01*
X0032007Y0160060D01*
X0031965Y0160005D01*
X0031920Y0159953D01*
X0031872Y0159904D01*
X0031821Y0159857D01*
X0031768Y0159814D01*
X0031712Y0159773D01*
X0031655Y0159735D01*
X0031595Y0159701D01*
X0031533Y0159670D01*
X0031470Y0159642D01*
X0031406Y0159618D01*
X0031340Y0159597D01*
X0031273Y0159580D01*
X0031206Y0159567D01*
X0031138Y0159558D01*
X0031069Y0159552D01*
X0031000Y0159550D01*
X0029750Y0159550D01*
X0031250Y0159550D02*
X0032250Y0157550D01*
X0034217Y0157550D02*
X0035717Y0157550D01*
X0035777Y0157552D01*
X0035838Y0157557D01*
X0035897Y0157566D01*
X0035956Y0157579D01*
X0036015Y0157595D01*
X0036072Y0157615D01*
X0036127Y0157638D01*
X0036182Y0157665D01*
X0036234Y0157694D01*
X0036285Y0157727D01*
X0036334Y0157763D01*
X0036380Y0157801D01*
X0036424Y0157843D01*
X0036466Y0157887D01*
X0036504Y0157933D01*
X0036540Y0157982D01*
X0036573Y0158033D01*
X0036602Y0158085D01*
X0036629Y0158140D01*
X0036652Y0158195D01*
X0036672Y0158252D01*
X0036688Y0158311D01*
X0036701Y0158370D01*
X0036710Y0158429D01*
X0036715Y0158490D01*
X0036717Y0158550D01*
X0036717Y0159050D01*
X0036715Y0159110D01*
X0036710Y0159171D01*
X0036701Y0159230D01*
X0036688Y0159289D01*
X0036672Y0159348D01*
X0036652Y0159405D01*
X0036629Y0159460D01*
X0036602Y0159515D01*
X0036573Y0159567D01*
X0036540Y0159618D01*
X0036504Y0159667D01*
X0036466Y0159713D01*
X0036424Y0159757D01*
X0036380Y0159799D01*
X0036334Y0159837D01*
X0036285Y0159873D01*
X0036234Y0159906D01*
X0036182Y0159935D01*
X0036127Y0159962D01*
X0036072Y0159985D01*
X0036015Y0160005D01*
X0035956Y0160021D01*
X0035897Y0160034D01*
X0035838Y0160043D01*
X0035777Y0160048D01*
X0035717Y0160050D01*
X0034217Y0160050D01*
X0034217Y0162050D01*
X0036717Y0162050D01*
D14*
X0006736Y0144017D02*
X0086264Y0144017D01*
X0086264Y0108583D01*
X0055161Y0108583D01*
X0055161Y0114489D01*
X0037839Y0114489D01*
X0037839Y0108583D01*
X0006736Y0108583D01*
X0006736Y0143623D01*
X0024000Y0115375D02*
X0029000Y0115375D01*
X0037839Y0108583D02*
X0055161Y0108583D01*
X0089878Y0115772D02*
X0089878Y0119709D01*
X0089878Y0115772D02*
X0137122Y0115772D01*
X0137122Y0119709D01*
X0137122Y0131520D02*
X0137122Y0159080D01*
X0089878Y0159080D01*
X0089878Y0131520D01*
X0080161Y0044017D02*
X0062839Y0044017D01*
X0062839Y0038111D01*
X0080161Y0038111D01*
X0080161Y0044017D01*
X0111264Y0044017D01*
X0111264Y0008977D01*
X0111264Y0008583D02*
X0031736Y0008583D01*
X0031736Y0044017D01*
X0062839Y0044017D01*
X0089000Y0037225D02*
X0094000Y0037225D01*
D15*
X0045500Y0081300D02*
X0045503Y0081570D01*
X0045513Y0081840D01*
X0045530Y0082109D01*
X0045553Y0082378D01*
X0045583Y0082647D01*
X0045619Y0082914D01*
X0045662Y0083181D01*
X0045711Y0083446D01*
X0045767Y0083710D01*
X0045830Y0083973D01*
X0045898Y0084234D01*
X0045974Y0084493D01*
X0046055Y0084750D01*
X0046143Y0085006D01*
X0046237Y0085259D01*
X0046337Y0085510D01*
X0046444Y0085758D01*
X0046556Y0086003D01*
X0046675Y0086246D01*
X0046799Y0086485D01*
X0046929Y0086722D01*
X0047065Y0086955D01*
X0047207Y0087185D01*
X0047354Y0087411D01*
X0047507Y0087634D01*
X0047665Y0087853D01*
X0047828Y0088068D01*
X0047997Y0088278D01*
X0048171Y0088485D01*
X0048350Y0088687D01*
X0048533Y0088885D01*
X0048722Y0089078D01*
X0048915Y0089267D01*
X0049113Y0089450D01*
X0049315Y0089629D01*
X0049522Y0089803D01*
X0049732Y0089972D01*
X0049947Y0090135D01*
X0050166Y0090293D01*
X0050389Y0090446D01*
X0050615Y0090593D01*
X0050845Y0090735D01*
X0051078Y0090871D01*
X0051315Y0091001D01*
X0051554Y0091125D01*
X0051797Y0091244D01*
X0052042Y0091356D01*
X0052290Y0091463D01*
X0052541Y0091563D01*
X0052794Y0091657D01*
X0053050Y0091745D01*
X0053307Y0091826D01*
X0053566Y0091902D01*
X0053827Y0091970D01*
X0054090Y0092033D01*
X0054354Y0092089D01*
X0054619Y0092138D01*
X0054886Y0092181D01*
X0055153Y0092217D01*
X0055422Y0092247D01*
X0055691Y0092270D01*
X0055960Y0092287D01*
X0056230Y0092297D01*
X0056500Y0092300D01*
X0056770Y0092297D01*
X0057040Y0092287D01*
X0057309Y0092270D01*
X0057578Y0092247D01*
X0057847Y0092217D01*
X0058114Y0092181D01*
X0058381Y0092138D01*
X0058646Y0092089D01*
X0058910Y0092033D01*
X0059173Y0091970D01*
X0059434Y0091902D01*
X0059693Y0091826D01*
X0059950Y0091745D01*
X0060206Y0091657D01*
X0060459Y0091563D01*
X0060710Y0091463D01*
X0060958Y0091356D01*
X0061203Y0091244D01*
X0061446Y0091125D01*
X0061685Y0091001D01*
X0061922Y0090871D01*
X0062155Y0090735D01*
X0062385Y0090593D01*
X0062611Y0090446D01*
X0062834Y0090293D01*
X0063053Y0090135D01*
X0063268Y0089972D01*
X0063478Y0089803D01*
X0063685Y0089629D01*
X0063887Y0089450D01*
X0064085Y0089267D01*
X0064278Y0089078D01*
X0064467Y0088885D01*
X0064650Y0088687D01*
X0064829Y0088485D01*
X0065003Y0088278D01*
X0065172Y0088068D01*
X0065335Y0087853D01*
X0065493Y0087634D01*
X0065646Y0087411D01*
X0065793Y0087185D01*
X0065935Y0086955D01*
X0066071Y0086722D01*
X0066201Y0086485D01*
X0066325Y0086246D01*
X0066444Y0086003D01*
X0066556Y0085758D01*
X0066663Y0085510D01*
X0066763Y0085259D01*
X0066857Y0085006D01*
X0066945Y0084750D01*
X0067026Y0084493D01*
X0067102Y0084234D01*
X0067170Y0083973D01*
X0067233Y0083710D01*
X0067289Y0083446D01*
X0067338Y0083181D01*
X0067381Y0082914D01*
X0067417Y0082647D01*
X0067447Y0082378D01*
X0067470Y0082109D01*
X0067487Y0081840D01*
X0067497Y0081570D01*
X0067500Y0081300D01*
X0067497Y0081030D01*
X0067487Y0080760D01*
X0067470Y0080491D01*
X0067447Y0080222D01*
X0067417Y0079953D01*
X0067381Y0079686D01*
X0067338Y0079419D01*
X0067289Y0079154D01*
X0067233Y0078890D01*
X0067170Y0078627D01*
X0067102Y0078366D01*
X0067026Y0078107D01*
X0066945Y0077850D01*
X0066857Y0077594D01*
X0066763Y0077341D01*
X0066663Y0077090D01*
X0066556Y0076842D01*
X0066444Y0076597D01*
X0066325Y0076354D01*
X0066201Y0076115D01*
X0066071Y0075878D01*
X0065935Y0075645D01*
X0065793Y0075415D01*
X0065646Y0075189D01*
X0065493Y0074966D01*
X0065335Y0074747D01*
X0065172Y0074532D01*
X0065003Y0074322D01*
X0064829Y0074115D01*
X0064650Y0073913D01*
X0064467Y0073715D01*
X0064278Y0073522D01*
X0064085Y0073333D01*
X0063887Y0073150D01*
X0063685Y0072971D01*
X0063478Y0072797D01*
X0063268Y0072628D01*
X0063053Y0072465D01*
X0062834Y0072307D01*
X0062611Y0072154D01*
X0062385Y0072007D01*
X0062155Y0071865D01*
X0061922Y0071729D01*
X0061685Y0071599D01*
X0061446Y0071475D01*
X0061203Y0071356D01*
X0060958Y0071244D01*
X0060710Y0071137D01*
X0060459Y0071037D01*
X0060206Y0070943D01*
X0059950Y0070855D01*
X0059693Y0070774D01*
X0059434Y0070698D01*
X0059173Y0070630D01*
X0058910Y0070567D01*
X0058646Y0070511D01*
X0058381Y0070462D01*
X0058114Y0070419D01*
X0057847Y0070383D01*
X0057578Y0070353D01*
X0057309Y0070330D01*
X0057040Y0070313D01*
X0056770Y0070303D01*
X0056500Y0070300D01*
X0056230Y0070303D01*
X0055960Y0070313D01*
X0055691Y0070330D01*
X0055422Y0070353D01*
X0055153Y0070383D01*
X0054886Y0070419D01*
X0054619Y0070462D01*
X0054354Y0070511D01*
X0054090Y0070567D01*
X0053827Y0070630D01*
X0053566Y0070698D01*
X0053307Y0070774D01*
X0053050Y0070855D01*
X0052794Y0070943D01*
X0052541Y0071037D01*
X0052290Y0071137D01*
X0052042Y0071244D01*
X0051797Y0071356D01*
X0051554Y0071475D01*
X0051315Y0071599D01*
X0051078Y0071729D01*
X0050845Y0071865D01*
X0050615Y0072007D01*
X0050389Y0072154D01*
X0050166Y0072307D01*
X0049947Y0072465D01*
X0049732Y0072628D01*
X0049522Y0072797D01*
X0049315Y0072971D01*
X0049113Y0073150D01*
X0048915Y0073333D01*
X0048722Y0073522D01*
X0048533Y0073715D01*
X0048350Y0073913D01*
X0048171Y0074115D01*
X0047997Y0074322D01*
X0047828Y0074532D01*
X0047665Y0074747D01*
X0047507Y0074966D01*
X0047354Y0075189D01*
X0047207Y0075415D01*
X0047065Y0075645D01*
X0046929Y0075878D01*
X0046799Y0076115D01*
X0046675Y0076354D01*
X0046556Y0076597D01*
X0046444Y0076842D01*
X0046337Y0077090D01*
X0046237Y0077341D01*
X0046143Y0077594D01*
X0046055Y0077850D01*
X0045974Y0078107D01*
X0045898Y0078366D01*
X0045830Y0078627D01*
X0045767Y0078890D01*
X0045711Y0079154D01*
X0045662Y0079419D01*
X0045619Y0079686D01*
X0045583Y0079953D01*
X0045553Y0080222D01*
X0045530Y0080491D01*
X0045513Y0080760D01*
X0045503Y0081030D01*
X0045500Y0081300D01*
D16*
X0130200Y0081500D02*
X0131478Y0081500D01*
X0131547Y0081502D01*
X0131616Y0081507D01*
X0131685Y0081517D01*
X0131753Y0081530D01*
X0131820Y0081547D01*
X0131886Y0081567D01*
X0131951Y0081591D01*
X0132015Y0081618D01*
X0132077Y0081649D01*
X0132137Y0081683D01*
X0132195Y0081720D01*
X0132251Y0081761D01*
X0132305Y0081804D01*
X0132357Y0081850D01*
X0132406Y0081899D01*
X0132452Y0081951D01*
X0132495Y0082005D01*
X0132536Y0082061D01*
X0132573Y0082119D01*
X0132607Y0082179D01*
X0132638Y0082241D01*
X0132665Y0082305D01*
X0132689Y0082370D01*
X0132709Y0082436D01*
X0132726Y0082503D01*
X0132739Y0082571D01*
X0132749Y0082640D01*
X0132754Y0082709D01*
X0132756Y0082778D01*
X0132756Y0084822D01*
X0132754Y0084891D01*
X0132749Y0084960D01*
X0132739Y0085029D01*
X0132726Y0085097D01*
X0132709Y0085164D01*
X0132689Y0085230D01*
X0132665Y0085295D01*
X0132638Y0085359D01*
X0132607Y0085421D01*
X0132573Y0085481D01*
X0132536Y0085539D01*
X0132495Y0085595D01*
X0132452Y0085649D01*
X0132406Y0085701D01*
X0132357Y0085750D01*
X0132305Y0085796D01*
X0132251Y0085839D01*
X0132195Y0085880D01*
X0132137Y0085917D01*
X0132077Y0085951D01*
X0132015Y0085982D01*
X0131951Y0086009D01*
X0131886Y0086033D01*
X0131820Y0086053D01*
X0131753Y0086070D01*
X0131685Y0086083D01*
X0131616Y0086093D01*
X0131547Y0086098D01*
X0131478Y0086100D01*
X0130200Y0086100D01*
X0130200Y0081500D01*
X0135009Y0081500D02*
X0135009Y0086100D01*
X0137053Y0086100D01*
X0138967Y0086100D02*
X0140244Y0086100D01*
X0138967Y0086100D02*
X0138967Y0081500D01*
X0138967Y0083544D02*
X0140244Y0083544D01*
X0140314Y0083546D01*
X0140385Y0083552D01*
X0140454Y0083561D01*
X0140523Y0083575D01*
X0140592Y0083592D01*
X0140659Y0083613D01*
X0140725Y0083638D01*
X0140789Y0083666D01*
X0140852Y0083698D01*
X0140913Y0083733D01*
X0140972Y0083772D01*
X0141029Y0083813D01*
X0141083Y0083858D01*
X0141135Y0083906D01*
X0141184Y0083956D01*
X0141231Y0084010D01*
X0141274Y0084065D01*
X0141314Y0084123D01*
X0141351Y0084183D01*
X0141384Y0084245D01*
X0141414Y0084309D01*
X0141441Y0084374D01*
X0141464Y0084440D01*
X0141483Y0084508D01*
X0141498Y0084577D01*
X0141510Y0084646D01*
X0141518Y0084716D01*
X0141522Y0084787D01*
X0141522Y0084857D01*
X0141518Y0084928D01*
X0141510Y0084998D01*
X0141498Y0085067D01*
X0141483Y0085136D01*
X0141464Y0085204D01*
X0141441Y0085270D01*
X0141414Y0085335D01*
X0141384Y0085399D01*
X0141351Y0085461D01*
X0141314Y0085521D01*
X0141274Y0085579D01*
X0141231Y0085634D01*
X0141184Y0085688D01*
X0141135Y0085738D01*
X0141083Y0085786D01*
X0141029Y0085831D01*
X0140972Y0085872D01*
X0140913Y0085911D01*
X0140852Y0085946D01*
X0140789Y0085978D01*
X0140725Y0086006D01*
X0140659Y0086031D01*
X0140592Y0086052D01*
X0140523Y0086069D01*
X0140454Y0086083D01*
X0140385Y0086092D01*
X0140314Y0086098D01*
X0140244Y0086100D01*
X0137053Y0084056D02*
X0135009Y0084056D01*
X0143264Y0082267D02*
X0143264Y0086100D01*
X0145838Y0084567D02*
X0146860Y0084567D01*
X0146915Y0084565D01*
X0146969Y0084559D01*
X0147023Y0084549D01*
X0147076Y0084536D01*
X0147128Y0084519D01*
X0147179Y0084498D01*
X0147228Y0084473D01*
X0147275Y0084445D01*
X0147320Y0084414D01*
X0147362Y0084380D01*
X0147402Y0084342D01*
X0147440Y0084302D01*
X0147474Y0084260D01*
X0147505Y0084215D01*
X0147533Y0084168D01*
X0147558Y0084119D01*
X0147579Y0084068D01*
X0147596Y0084016D01*
X0147609Y0083963D01*
X0147619Y0083909D01*
X0147625Y0083855D01*
X0147627Y0083800D01*
X0147627Y0081500D01*
X0146477Y0081500D01*
X0146419Y0081502D01*
X0146360Y0081508D01*
X0146303Y0081517D01*
X0146246Y0081530D01*
X0146190Y0081547D01*
X0146135Y0081568D01*
X0146082Y0081592D01*
X0146030Y0081620D01*
X0145980Y0081651D01*
X0145933Y0081685D01*
X0145888Y0081722D01*
X0145845Y0081762D01*
X0145805Y0081805D01*
X0145768Y0081850D01*
X0145734Y0081897D01*
X0145703Y0081947D01*
X0145675Y0081999D01*
X0145651Y0082052D01*
X0145630Y0082107D01*
X0145613Y0082163D01*
X0145600Y0082220D01*
X0145591Y0082277D01*
X0145585Y0082336D01*
X0145583Y0082394D01*
X0145585Y0082452D01*
X0145591Y0082511D01*
X0145600Y0082568D01*
X0145613Y0082625D01*
X0145630Y0082681D01*
X0145651Y0082736D01*
X0145675Y0082789D01*
X0145703Y0082841D01*
X0145734Y0082891D01*
X0145768Y0082938D01*
X0145805Y0082983D01*
X0145845Y0083026D01*
X0145888Y0083066D01*
X0145933Y0083103D01*
X0145980Y0083137D01*
X0146030Y0083168D01*
X0146082Y0083196D01*
X0146135Y0083220D01*
X0146190Y0083241D01*
X0146246Y0083258D01*
X0146303Y0083271D01*
X0146360Y0083280D01*
X0146419Y0083286D01*
X0146477Y0083288D01*
X0146477Y0083289D02*
X0147627Y0083289D01*
X0149506Y0084567D02*
X0150528Y0081500D01*
X0150017Y0079967D02*
X0151550Y0084567D01*
X0153256Y0083544D02*
X0153256Y0082267D01*
X0153255Y0082267D02*
X0153257Y0082212D01*
X0153263Y0082158D01*
X0153273Y0082104D01*
X0153286Y0082051D01*
X0153303Y0081999D01*
X0153324Y0081948D01*
X0153349Y0081899D01*
X0153377Y0081852D01*
X0153408Y0081807D01*
X0153442Y0081765D01*
X0153480Y0081725D01*
X0153520Y0081687D01*
X0153562Y0081653D01*
X0153607Y0081622D01*
X0153654Y0081594D01*
X0153703Y0081569D01*
X0153754Y0081548D01*
X0153806Y0081531D01*
X0153859Y0081518D01*
X0153913Y0081508D01*
X0153967Y0081502D01*
X0154022Y0081500D01*
X0155300Y0081500D01*
X0155300Y0083033D02*
X0153256Y0083033D01*
X0153256Y0083544D02*
X0153258Y0083607D01*
X0153264Y0083670D01*
X0153273Y0083732D01*
X0153287Y0083793D01*
X0153304Y0083854D01*
X0153325Y0083913D01*
X0153350Y0083971D01*
X0153378Y0084028D01*
X0153409Y0084082D01*
X0153444Y0084134D01*
X0153482Y0084185D01*
X0153523Y0084233D01*
X0153567Y0084278D01*
X0153613Y0084320D01*
X0153662Y0084360D01*
X0153713Y0084396D01*
X0153767Y0084429D01*
X0153822Y0084459D01*
X0153880Y0084485D01*
X0153938Y0084508D01*
X0153998Y0084527D01*
X0154059Y0084542D01*
X0154121Y0084554D01*
X0154184Y0084562D01*
X0154247Y0084566D01*
X0154309Y0084566D01*
X0154372Y0084562D01*
X0154435Y0084554D01*
X0154497Y0084542D01*
X0154558Y0084527D01*
X0154618Y0084508D01*
X0154676Y0084485D01*
X0154734Y0084459D01*
X0154789Y0084429D01*
X0154843Y0084396D01*
X0154894Y0084360D01*
X0154943Y0084320D01*
X0154989Y0084278D01*
X0155033Y0084233D01*
X0155074Y0084185D01*
X0155112Y0084134D01*
X0155147Y0084082D01*
X0155178Y0084028D01*
X0155206Y0083971D01*
X0155231Y0083913D01*
X0155252Y0083854D01*
X0155269Y0083793D01*
X0155283Y0083732D01*
X0155292Y0083670D01*
X0155298Y0083607D01*
X0155300Y0083544D01*
X0155300Y0083033D01*
X0157332Y0081500D02*
X0157332Y0084567D01*
X0158865Y0084567D01*
X0158865Y0084056D01*
X0162944Y0086100D02*
X0162944Y0081500D01*
X0164478Y0083544D02*
X0166011Y0086100D01*
X0166011Y0081500D01*
X0168078Y0081500D02*
X0168078Y0084567D01*
X0168205Y0085844D02*
X0167950Y0085844D01*
X0167950Y0086100D01*
X0168205Y0086100D01*
X0168205Y0085844D01*
X0170055Y0084567D02*
X0171333Y0084567D01*
X0171388Y0084565D01*
X0171442Y0084559D01*
X0171496Y0084549D01*
X0171549Y0084536D01*
X0171601Y0084519D01*
X0171652Y0084498D01*
X0171701Y0084473D01*
X0171748Y0084445D01*
X0171793Y0084414D01*
X0171835Y0084380D01*
X0171875Y0084342D01*
X0171913Y0084302D01*
X0171947Y0084260D01*
X0171978Y0084215D01*
X0172006Y0084168D01*
X0172031Y0084119D01*
X0172052Y0084068D01*
X0172069Y0084016D01*
X0172082Y0083963D01*
X0172092Y0083909D01*
X0172098Y0083855D01*
X0172100Y0083800D01*
X0172100Y0081500D01*
X0174078Y0081500D02*
X0174078Y0084567D01*
X0174205Y0085844D02*
X0173950Y0085844D01*
X0173950Y0086100D01*
X0174205Y0086100D01*
X0174205Y0085844D01*
X0170055Y0084567D02*
X0170055Y0081500D01*
X0164478Y0083544D02*
X0162944Y0086100D01*
X0150017Y0079967D02*
X0149506Y0079967D01*
X0144031Y0081500D02*
X0143976Y0081502D01*
X0143922Y0081508D01*
X0143868Y0081518D01*
X0143815Y0081531D01*
X0143763Y0081548D01*
X0143712Y0081569D01*
X0143663Y0081594D01*
X0143616Y0081622D01*
X0143571Y0081653D01*
X0143529Y0081687D01*
X0143489Y0081725D01*
X0143451Y0081765D01*
X0143417Y0081807D01*
X0143386Y0081852D01*
X0143358Y0081899D01*
X0143333Y0081948D01*
X0143312Y0081999D01*
X0143295Y0082051D01*
X0143282Y0082104D01*
X0143272Y0082158D01*
X0143266Y0082212D01*
X0143264Y0082267D01*
X0156200Y0061100D02*
X0157478Y0061100D01*
X0157547Y0061098D01*
X0157616Y0061093D01*
X0157685Y0061083D01*
X0157753Y0061070D01*
X0157820Y0061053D01*
X0157886Y0061033D01*
X0157951Y0061009D01*
X0158015Y0060982D01*
X0158077Y0060951D01*
X0158137Y0060917D01*
X0158195Y0060880D01*
X0158251Y0060839D01*
X0158305Y0060796D01*
X0158357Y0060750D01*
X0158406Y0060701D01*
X0158452Y0060649D01*
X0158495Y0060595D01*
X0158536Y0060539D01*
X0158573Y0060481D01*
X0158607Y0060421D01*
X0158638Y0060359D01*
X0158665Y0060295D01*
X0158689Y0060230D01*
X0158709Y0060164D01*
X0158726Y0060097D01*
X0158739Y0060029D01*
X0158749Y0059960D01*
X0158754Y0059891D01*
X0158756Y0059822D01*
X0158756Y0057778D01*
X0158754Y0057709D01*
X0158749Y0057640D01*
X0158739Y0057571D01*
X0158726Y0057503D01*
X0158709Y0057436D01*
X0158689Y0057370D01*
X0158665Y0057305D01*
X0158638Y0057241D01*
X0158607Y0057179D01*
X0158573Y0057119D01*
X0158536Y0057061D01*
X0158495Y0057005D01*
X0158452Y0056951D01*
X0158406Y0056899D01*
X0158357Y0056850D01*
X0158305Y0056804D01*
X0158251Y0056761D01*
X0158195Y0056720D01*
X0158137Y0056683D01*
X0158077Y0056649D01*
X0158015Y0056618D01*
X0157951Y0056591D01*
X0157886Y0056567D01*
X0157820Y0056547D01*
X0157753Y0056530D01*
X0157685Y0056517D01*
X0157616Y0056507D01*
X0157547Y0056502D01*
X0157478Y0056500D01*
X0156200Y0056500D01*
X0156200Y0061100D01*
X0152339Y0059184D02*
X0152285Y0059218D01*
X0152234Y0059255D01*
X0152185Y0059295D01*
X0152138Y0059338D01*
X0152095Y0059384D01*
X0152054Y0059432D01*
X0152016Y0059483D01*
X0151981Y0059536D01*
X0151949Y0059591D01*
X0151921Y0059648D01*
X0151897Y0059706D01*
X0151876Y0059766D01*
X0151859Y0059827D01*
X0151845Y0059889D01*
X0151836Y0059952D01*
X0151830Y0060015D01*
X0151828Y0060078D01*
X0151830Y0060140D01*
X0151835Y0060201D01*
X0151845Y0060262D01*
X0151858Y0060323D01*
X0151874Y0060382D01*
X0151894Y0060440D01*
X0151918Y0060497D01*
X0151945Y0060553D01*
X0151975Y0060607D01*
X0152009Y0060659D01*
X0152046Y0060708D01*
X0152085Y0060756D01*
X0152127Y0060801D01*
X0152172Y0060843D01*
X0152220Y0060883D01*
X0152269Y0060919D01*
X0152321Y0060953D01*
X0152375Y0060983D01*
X0152431Y0061010D01*
X0152488Y0061034D01*
X0152546Y0061054D01*
X0152605Y0061070D01*
X0152666Y0061083D01*
X0152727Y0061093D01*
X0152788Y0061098D01*
X0152850Y0061100D01*
X0152932Y0061098D01*
X0153014Y0061093D01*
X0153096Y0061084D01*
X0153177Y0061072D01*
X0153258Y0061056D01*
X0153338Y0061037D01*
X0153417Y0061014D01*
X0153495Y0060988D01*
X0153572Y0060959D01*
X0153647Y0060926D01*
X0153721Y0060890D01*
X0153794Y0060852D01*
X0153865Y0060810D01*
X0153933Y0060765D01*
X0154000Y0060717D01*
X0151700Y0057139D02*
X0151764Y0057076D01*
X0151832Y0057017D01*
X0151901Y0056960D01*
X0151973Y0056906D01*
X0152047Y0056855D01*
X0152123Y0056807D01*
X0152200Y0056763D01*
X0152280Y0056722D01*
X0152361Y0056684D01*
X0152444Y0056649D01*
X0152528Y0056618D01*
X0152614Y0056591D01*
X0152700Y0056567D01*
X0152788Y0056546D01*
X0152876Y0056530D01*
X0152965Y0056517D01*
X0153054Y0056507D01*
X0153143Y0056502D01*
X0153233Y0056500D01*
X0153295Y0056502D01*
X0153356Y0056507D01*
X0153417Y0056517D01*
X0153478Y0056530D01*
X0153537Y0056546D01*
X0153595Y0056566D01*
X0153652Y0056590D01*
X0153708Y0056617D01*
X0153762Y0056647D01*
X0153814Y0056681D01*
X0153863Y0056717D01*
X0153911Y0056757D01*
X0153956Y0056799D01*
X0153998Y0056844D01*
X0154038Y0056892D01*
X0154074Y0056941D01*
X0154108Y0056993D01*
X0154138Y0057047D01*
X0154165Y0057103D01*
X0154189Y0057160D01*
X0154209Y0057218D01*
X0154225Y0057277D01*
X0154238Y0057338D01*
X0154248Y0057399D01*
X0154253Y0057460D01*
X0154255Y0057522D01*
X0153744Y0058417D02*
X0152339Y0059183D01*
X0153744Y0058416D02*
X0153798Y0058382D01*
X0153849Y0058345D01*
X0153898Y0058305D01*
X0153945Y0058262D01*
X0153988Y0058216D01*
X0154029Y0058168D01*
X0154067Y0058117D01*
X0154102Y0058064D01*
X0154134Y0058009D01*
X0154162Y0057952D01*
X0154186Y0057894D01*
X0154207Y0057834D01*
X0154224Y0057773D01*
X0154238Y0057711D01*
X0154247Y0057648D01*
X0154253Y0057585D01*
X0154255Y0057522D01*
D17*
X0146000Y0056300D02*
X0146000Y0054800D01*
X0145998Y0054740D01*
X0145993Y0054679D01*
X0145984Y0054620D01*
X0145971Y0054561D01*
X0145955Y0054502D01*
X0145935Y0054445D01*
X0145912Y0054390D01*
X0145885Y0054335D01*
X0145856Y0054283D01*
X0145823Y0054232D01*
X0145787Y0054183D01*
X0145749Y0054137D01*
X0145707Y0054093D01*
X0145663Y0054051D01*
X0145617Y0054013D01*
X0145568Y0053977D01*
X0145517Y0053944D01*
X0145465Y0053915D01*
X0145410Y0053888D01*
X0145355Y0053865D01*
X0145298Y0053845D01*
X0145239Y0053829D01*
X0145180Y0053816D01*
X0145121Y0053807D01*
X0145060Y0053802D01*
X0145000Y0053800D01*
X0138000Y0053800D01*
X0137940Y0053802D01*
X0137879Y0053807D01*
X0137820Y0053816D01*
X0137761Y0053829D01*
X0137702Y0053845D01*
X0137645Y0053865D01*
X0137590Y0053888D01*
X0137535Y0053915D01*
X0137483Y0053944D01*
X0137432Y0053977D01*
X0137383Y0054013D01*
X0137337Y0054051D01*
X0137293Y0054093D01*
X0137251Y0054137D01*
X0137213Y0054183D01*
X0137177Y0054232D01*
X0137144Y0054283D01*
X0137115Y0054335D01*
X0137088Y0054390D01*
X0137065Y0054445D01*
X0137045Y0054502D01*
X0137029Y0054561D01*
X0137016Y0054620D01*
X0137007Y0054679D01*
X0137002Y0054740D01*
X0137000Y0054800D01*
X0137000Y0056300D01*
X0137500Y0056800D01*
X0137500Y0075800D01*
X0137000Y0076300D01*
X0137000Y0077800D01*
X0137002Y0077860D01*
X0137007Y0077921D01*
X0137016Y0077980D01*
X0137029Y0078039D01*
X0137045Y0078098D01*
X0137065Y0078155D01*
X0137088Y0078210D01*
X0137115Y0078265D01*
X0137144Y0078317D01*
X0137177Y0078368D01*
X0137213Y0078417D01*
X0137251Y0078463D01*
X0137293Y0078507D01*
X0137337Y0078549D01*
X0137383Y0078587D01*
X0137432Y0078623D01*
X0137483Y0078656D01*
X0137535Y0078685D01*
X0137590Y0078712D01*
X0137645Y0078735D01*
X0137702Y0078755D01*
X0137761Y0078771D01*
X0137820Y0078784D01*
X0137879Y0078793D01*
X0137940Y0078798D01*
X0138000Y0078800D01*
X0145000Y0078800D01*
X0145060Y0078798D01*
X0145121Y0078793D01*
X0145180Y0078784D01*
X0145239Y0078771D01*
X0145298Y0078755D01*
X0145355Y0078735D01*
X0145410Y0078712D01*
X0145465Y0078685D01*
X0145517Y0078656D01*
X0145568Y0078623D01*
X0145617Y0078587D01*
X0145663Y0078549D01*
X0145707Y0078507D01*
X0145749Y0078463D01*
X0145787Y0078417D01*
X0145823Y0078368D01*
X0145856Y0078317D01*
X0145885Y0078265D01*
X0145912Y0078210D01*
X0145935Y0078155D01*
X0145955Y0078098D01*
X0145971Y0078039D01*
X0145984Y0077980D01*
X0145993Y0077921D01*
X0145998Y0077860D01*
X0146000Y0077800D01*
X0146000Y0076300D01*
X0145500Y0075800D01*
X0145500Y0056800D01*
X0146000Y0056300D01*
X0059000Y0054800D02*
X0059000Y0047800D01*
X0058998Y0047740D01*
X0058993Y0047679D01*
X0058984Y0047620D01*
X0058971Y0047561D01*
X0058955Y0047502D01*
X0058935Y0047445D01*
X0058912Y0047390D01*
X0058885Y0047335D01*
X0058856Y0047283D01*
X0058823Y0047232D01*
X0058787Y0047183D01*
X0058749Y0047137D01*
X0058707Y0047093D01*
X0058663Y0047051D01*
X0058617Y0047013D01*
X0058568Y0046977D01*
X0058517Y0046944D01*
X0058465Y0046915D01*
X0058410Y0046888D01*
X0058355Y0046865D01*
X0058298Y0046845D01*
X0058239Y0046829D01*
X0058180Y0046816D01*
X0058121Y0046807D01*
X0058060Y0046802D01*
X0058000Y0046800D01*
X0056500Y0046800D01*
X0056000Y0047300D01*
X0037000Y0047300D01*
X0036500Y0046800D01*
X0035000Y0046800D01*
X0034940Y0046802D01*
X0034879Y0046807D01*
X0034820Y0046816D01*
X0034761Y0046829D01*
X0034702Y0046845D01*
X0034645Y0046865D01*
X0034590Y0046888D01*
X0034535Y0046915D01*
X0034483Y0046944D01*
X0034432Y0046977D01*
X0034383Y0047013D01*
X0034337Y0047051D01*
X0034293Y0047093D01*
X0034251Y0047137D01*
X0034213Y0047183D01*
X0034177Y0047232D01*
X0034144Y0047283D01*
X0034115Y0047335D01*
X0034088Y0047390D01*
X0034065Y0047445D01*
X0034045Y0047502D01*
X0034029Y0047561D01*
X0034016Y0047620D01*
X0034007Y0047679D01*
X0034002Y0047740D01*
X0034000Y0047800D01*
X0034000Y0054800D01*
X0034002Y0054860D01*
X0034007Y0054921D01*
X0034016Y0054980D01*
X0034029Y0055039D01*
X0034045Y0055098D01*
X0034065Y0055155D01*
X0034088Y0055210D01*
X0034115Y0055265D01*
X0034144Y0055317D01*
X0034177Y0055368D01*
X0034213Y0055417D01*
X0034251Y0055463D01*
X0034293Y0055507D01*
X0034337Y0055549D01*
X0034383Y0055587D01*
X0034432Y0055623D01*
X0034483Y0055656D01*
X0034535Y0055685D01*
X0034590Y0055712D01*
X0034645Y0055735D01*
X0034702Y0055755D01*
X0034761Y0055771D01*
X0034820Y0055784D01*
X0034879Y0055793D01*
X0034940Y0055798D01*
X0035000Y0055800D01*
X0036500Y0055800D01*
X0037000Y0055300D01*
X0056000Y0055300D01*
X0056500Y0055800D01*
X0058000Y0055800D01*
X0058060Y0055798D01*
X0058121Y0055793D01*
X0058180Y0055784D01*
X0058239Y0055771D01*
X0058298Y0055755D01*
X0058355Y0055735D01*
X0058410Y0055712D01*
X0058465Y0055685D01*
X0058517Y0055656D01*
X0058568Y0055623D01*
X0058617Y0055587D01*
X0058663Y0055549D01*
X0058707Y0055507D01*
X0058749Y0055463D01*
X0058787Y0055417D01*
X0058823Y0055368D01*
X0058856Y0055317D01*
X0058885Y0055265D01*
X0058912Y0055210D01*
X0058935Y0055155D01*
X0058955Y0055098D01*
X0058971Y0055039D01*
X0058984Y0054980D01*
X0058993Y0054921D01*
X0058998Y0054860D01*
X0059000Y0054800D01*
X0053000Y0146800D02*
X0051500Y0146800D01*
X0051000Y0147300D01*
X0032000Y0147300D01*
X0031500Y0146800D01*
X0030000Y0146800D01*
X0029940Y0146802D01*
X0029879Y0146807D01*
X0029820Y0146816D01*
X0029761Y0146829D01*
X0029702Y0146845D01*
X0029645Y0146865D01*
X0029590Y0146888D01*
X0029535Y0146915D01*
X0029483Y0146944D01*
X0029432Y0146977D01*
X0029383Y0147013D01*
X0029337Y0147051D01*
X0029293Y0147093D01*
X0029251Y0147137D01*
X0029213Y0147183D01*
X0029177Y0147232D01*
X0029144Y0147283D01*
X0029115Y0147335D01*
X0029088Y0147390D01*
X0029065Y0147445D01*
X0029045Y0147502D01*
X0029029Y0147561D01*
X0029016Y0147620D01*
X0029007Y0147679D01*
X0029002Y0147740D01*
X0029000Y0147800D01*
X0029000Y0154800D01*
X0029002Y0154860D01*
X0029007Y0154921D01*
X0029016Y0154980D01*
X0029029Y0155039D01*
X0029045Y0155098D01*
X0029065Y0155155D01*
X0029088Y0155210D01*
X0029115Y0155265D01*
X0029144Y0155317D01*
X0029177Y0155368D01*
X0029213Y0155417D01*
X0029251Y0155463D01*
X0029293Y0155507D01*
X0029337Y0155549D01*
X0029383Y0155587D01*
X0029432Y0155623D01*
X0029483Y0155656D01*
X0029535Y0155685D01*
X0029590Y0155712D01*
X0029645Y0155735D01*
X0029702Y0155755D01*
X0029761Y0155771D01*
X0029820Y0155784D01*
X0029879Y0155793D01*
X0029940Y0155798D01*
X0030000Y0155800D01*
X0031500Y0155800D01*
X0032000Y0155300D01*
X0051000Y0155300D01*
X0051500Y0155800D01*
X0053000Y0155800D01*
X0053060Y0155798D01*
X0053121Y0155793D01*
X0053180Y0155784D01*
X0053239Y0155771D01*
X0053298Y0155755D01*
X0053355Y0155735D01*
X0053410Y0155712D01*
X0053465Y0155685D01*
X0053517Y0155656D01*
X0053568Y0155623D01*
X0053617Y0155587D01*
X0053663Y0155549D01*
X0053707Y0155507D01*
X0053749Y0155463D01*
X0053787Y0155417D01*
X0053823Y0155368D01*
X0053856Y0155317D01*
X0053885Y0155265D01*
X0053912Y0155210D01*
X0053935Y0155155D01*
X0053955Y0155098D01*
X0053971Y0155039D01*
X0053984Y0154980D01*
X0053993Y0154921D01*
X0053998Y0154860D01*
X0054000Y0154800D01*
X0054000Y0147800D01*
X0053998Y0147740D01*
X0053993Y0147679D01*
X0053984Y0147620D01*
X0053971Y0147561D01*
X0053955Y0147502D01*
X0053935Y0147445D01*
X0053912Y0147390D01*
X0053885Y0147335D01*
X0053856Y0147283D01*
X0053823Y0147232D01*
X0053787Y0147183D01*
X0053749Y0147137D01*
X0053707Y0147093D01*
X0053663Y0147051D01*
X0053617Y0147013D01*
X0053568Y0146977D01*
X0053517Y0146944D01*
X0053465Y0146915D01*
X0053410Y0146888D01*
X0053355Y0146865D01*
X0053298Y0146845D01*
X0053239Y0146829D01*
X0053180Y0146816D01*
X0053121Y0146807D01*
X0053060Y0146802D01*
X0053000Y0146800D01*
D18*
X0055700Y0151300D03*
X0027300Y0151300D03*
X0032300Y0051300D03*
X0060700Y0051300D03*
D19*
X0141500Y0052100D03*
X0141500Y0080500D03*
M02*
