G75*
%MOIN*%
%OFA0B0*%
%FSLAX25Y25*%
%IPPOS*%
%LPD*%
%AMOC8*
5,1,8,0,0,1.08239X$1,22.5*
%
%ADD10C,0.00000*%
%ADD11C,0.01000*%
%ADD12C,0.00100*%
%ADD13C,0.00800*%
D10*
X0014099Y0081103D02*
X0014101Y0081261D01*
X0014107Y0081419D01*
X0014117Y0081577D01*
X0014131Y0081735D01*
X0014149Y0081892D01*
X0014170Y0082049D01*
X0014196Y0082205D01*
X0014226Y0082361D01*
X0014259Y0082516D01*
X0014297Y0082669D01*
X0014338Y0082822D01*
X0014383Y0082974D01*
X0014432Y0083125D01*
X0014485Y0083274D01*
X0014541Y0083422D01*
X0014601Y0083568D01*
X0014665Y0083713D01*
X0014733Y0083856D01*
X0014804Y0083998D01*
X0014878Y0084138D01*
X0014956Y0084275D01*
X0015038Y0084411D01*
X0015122Y0084545D01*
X0015211Y0084676D01*
X0015302Y0084805D01*
X0015397Y0084932D01*
X0015494Y0085057D01*
X0015595Y0085179D01*
X0015699Y0085298D01*
X0015806Y0085415D01*
X0015916Y0085529D01*
X0016029Y0085640D01*
X0016144Y0085749D01*
X0016262Y0085854D01*
X0016383Y0085956D01*
X0016506Y0086056D01*
X0016632Y0086152D01*
X0016760Y0086245D01*
X0016890Y0086335D01*
X0017023Y0086421D01*
X0017158Y0086505D01*
X0017294Y0086584D01*
X0017433Y0086661D01*
X0017574Y0086733D01*
X0017716Y0086803D01*
X0017860Y0086868D01*
X0018006Y0086930D01*
X0018153Y0086988D01*
X0018302Y0087043D01*
X0018452Y0087094D01*
X0018603Y0087141D01*
X0018755Y0087184D01*
X0018908Y0087223D01*
X0019063Y0087259D01*
X0019218Y0087290D01*
X0019374Y0087318D01*
X0019530Y0087342D01*
X0019687Y0087362D01*
X0019845Y0087378D01*
X0020002Y0087390D01*
X0020161Y0087398D01*
X0020319Y0087402D01*
X0020477Y0087402D01*
X0020635Y0087398D01*
X0020794Y0087390D01*
X0020951Y0087378D01*
X0021109Y0087362D01*
X0021266Y0087342D01*
X0021422Y0087318D01*
X0021578Y0087290D01*
X0021733Y0087259D01*
X0021888Y0087223D01*
X0022041Y0087184D01*
X0022193Y0087141D01*
X0022344Y0087094D01*
X0022494Y0087043D01*
X0022643Y0086988D01*
X0022790Y0086930D01*
X0022936Y0086868D01*
X0023080Y0086803D01*
X0023222Y0086733D01*
X0023363Y0086661D01*
X0023502Y0086584D01*
X0023638Y0086505D01*
X0023773Y0086421D01*
X0023906Y0086335D01*
X0024036Y0086245D01*
X0024164Y0086152D01*
X0024290Y0086056D01*
X0024413Y0085956D01*
X0024534Y0085854D01*
X0024652Y0085749D01*
X0024767Y0085640D01*
X0024880Y0085529D01*
X0024990Y0085415D01*
X0025097Y0085298D01*
X0025201Y0085179D01*
X0025302Y0085057D01*
X0025399Y0084932D01*
X0025494Y0084805D01*
X0025585Y0084676D01*
X0025674Y0084545D01*
X0025758Y0084411D01*
X0025840Y0084275D01*
X0025918Y0084138D01*
X0025992Y0083998D01*
X0026063Y0083856D01*
X0026131Y0083713D01*
X0026195Y0083568D01*
X0026255Y0083422D01*
X0026311Y0083274D01*
X0026364Y0083125D01*
X0026413Y0082974D01*
X0026458Y0082822D01*
X0026499Y0082669D01*
X0026537Y0082516D01*
X0026570Y0082361D01*
X0026600Y0082205D01*
X0026626Y0082049D01*
X0026647Y0081892D01*
X0026665Y0081735D01*
X0026679Y0081577D01*
X0026689Y0081419D01*
X0026695Y0081261D01*
X0026697Y0081103D01*
X0026695Y0080945D01*
X0026689Y0080787D01*
X0026679Y0080629D01*
X0026665Y0080471D01*
X0026647Y0080314D01*
X0026626Y0080157D01*
X0026600Y0080001D01*
X0026570Y0079845D01*
X0026537Y0079690D01*
X0026499Y0079537D01*
X0026458Y0079384D01*
X0026413Y0079232D01*
X0026364Y0079081D01*
X0026311Y0078932D01*
X0026255Y0078784D01*
X0026195Y0078638D01*
X0026131Y0078493D01*
X0026063Y0078350D01*
X0025992Y0078208D01*
X0025918Y0078068D01*
X0025840Y0077931D01*
X0025758Y0077795D01*
X0025674Y0077661D01*
X0025585Y0077530D01*
X0025494Y0077401D01*
X0025399Y0077274D01*
X0025302Y0077149D01*
X0025201Y0077027D01*
X0025097Y0076908D01*
X0024990Y0076791D01*
X0024880Y0076677D01*
X0024767Y0076566D01*
X0024652Y0076457D01*
X0024534Y0076352D01*
X0024413Y0076250D01*
X0024290Y0076150D01*
X0024164Y0076054D01*
X0024036Y0075961D01*
X0023906Y0075871D01*
X0023773Y0075785D01*
X0023638Y0075701D01*
X0023502Y0075622D01*
X0023363Y0075545D01*
X0023222Y0075473D01*
X0023080Y0075403D01*
X0022936Y0075338D01*
X0022790Y0075276D01*
X0022643Y0075218D01*
X0022494Y0075163D01*
X0022344Y0075112D01*
X0022193Y0075065D01*
X0022041Y0075022D01*
X0021888Y0074983D01*
X0021733Y0074947D01*
X0021578Y0074916D01*
X0021422Y0074888D01*
X0021266Y0074864D01*
X0021109Y0074844D01*
X0020951Y0074828D01*
X0020794Y0074816D01*
X0020635Y0074808D01*
X0020477Y0074804D01*
X0020319Y0074804D01*
X0020161Y0074808D01*
X0020002Y0074816D01*
X0019845Y0074828D01*
X0019687Y0074844D01*
X0019530Y0074864D01*
X0019374Y0074888D01*
X0019218Y0074916D01*
X0019063Y0074947D01*
X0018908Y0074983D01*
X0018755Y0075022D01*
X0018603Y0075065D01*
X0018452Y0075112D01*
X0018302Y0075163D01*
X0018153Y0075218D01*
X0018006Y0075276D01*
X0017860Y0075338D01*
X0017716Y0075403D01*
X0017574Y0075473D01*
X0017433Y0075545D01*
X0017294Y0075622D01*
X0017158Y0075701D01*
X0017023Y0075785D01*
X0016890Y0075871D01*
X0016760Y0075961D01*
X0016632Y0076054D01*
X0016506Y0076150D01*
X0016383Y0076250D01*
X0016262Y0076352D01*
X0016144Y0076457D01*
X0016029Y0076566D01*
X0015916Y0076677D01*
X0015806Y0076791D01*
X0015699Y0076908D01*
X0015595Y0077027D01*
X0015494Y0077149D01*
X0015397Y0077274D01*
X0015302Y0077401D01*
X0015211Y0077530D01*
X0015122Y0077661D01*
X0015038Y0077795D01*
X0014956Y0077931D01*
X0014878Y0078068D01*
X0014804Y0078208D01*
X0014733Y0078350D01*
X0014665Y0078493D01*
X0014601Y0078638D01*
X0014541Y0078784D01*
X0014485Y0078932D01*
X0014432Y0079081D01*
X0014383Y0079232D01*
X0014338Y0079384D01*
X0014297Y0079537D01*
X0014259Y0079690D01*
X0014226Y0079845D01*
X0014196Y0080001D01*
X0014170Y0080157D01*
X0014149Y0080314D01*
X0014131Y0080471D01*
X0014117Y0080629D01*
X0014107Y0080787D01*
X0014101Y0080945D01*
X0014099Y0081103D01*
X0091453Y0145300D02*
X0091455Y0145397D01*
X0091461Y0145494D01*
X0091471Y0145590D01*
X0091485Y0145686D01*
X0091503Y0145782D01*
X0091524Y0145876D01*
X0091550Y0145970D01*
X0091579Y0146062D01*
X0091613Y0146153D01*
X0091649Y0146243D01*
X0091690Y0146331D01*
X0091734Y0146417D01*
X0091782Y0146502D01*
X0091833Y0146584D01*
X0091887Y0146665D01*
X0091945Y0146743D01*
X0092006Y0146818D01*
X0092069Y0146891D01*
X0092136Y0146962D01*
X0092206Y0147029D01*
X0092278Y0147094D01*
X0092353Y0147155D01*
X0092431Y0147214D01*
X0092510Y0147269D01*
X0092592Y0147321D01*
X0092676Y0147369D01*
X0092762Y0147414D01*
X0092850Y0147456D01*
X0092939Y0147494D01*
X0093030Y0147528D01*
X0093122Y0147558D01*
X0093215Y0147585D01*
X0093310Y0147607D01*
X0093405Y0147626D01*
X0093501Y0147641D01*
X0093597Y0147652D01*
X0093694Y0147659D01*
X0093791Y0147662D01*
X0093888Y0147661D01*
X0093985Y0147656D01*
X0094081Y0147647D01*
X0094177Y0147634D01*
X0094273Y0147617D01*
X0094368Y0147596D01*
X0094461Y0147572D01*
X0094554Y0147543D01*
X0094646Y0147511D01*
X0094736Y0147475D01*
X0094824Y0147436D01*
X0094911Y0147392D01*
X0094996Y0147346D01*
X0095079Y0147295D01*
X0095160Y0147242D01*
X0095238Y0147185D01*
X0095315Y0147125D01*
X0095388Y0147062D01*
X0095459Y0146996D01*
X0095527Y0146927D01*
X0095593Y0146855D01*
X0095655Y0146781D01*
X0095714Y0146704D01*
X0095770Y0146625D01*
X0095823Y0146543D01*
X0095873Y0146460D01*
X0095918Y0146374D01*
X0095961Y0146287D01*
X0096000Y0146198D01*
X0096035Y0146108D01*
X0096066Y0146016D01*
X0096093Y0145923D01*
X0096117Y0145829D01*
X0096137Y0145734D01*
X0096153Y0145638D01*
X0096165Y0145542D01*
X0096173Y0145445D01*
X0096177Y0145348D01*
X0096177Y0145252D01*
X0096173Y0145155D01*
X0096165Y0145058D01*
X0096153Y0144962D01*
X0096137Y0144866D01*
X0096117Y0144771D01*
X0096093Y0144677D01*
X0096066Y0144584D01*
X0096035Y0144492D01*
X0096000Y0144402D01*
X0095961Y0144313D01*
X0095918Y0144226D01*
X0095873Y0144140D01*
X0095823Y0144057D01*
X0095770Y0143975D01*
X0095714Y0143896D01*
X0095655Y0143819D01*
X0095593Y0143745D01*
X0095527Y0143673D01*
X0095459Y0143604D01*
X0095388Y0143538D01*
X0095315Y0143475D01*
X0095238Y0143415D01*
X0095160Y0143358D01*
X0095079Y0143305D01*
X0094996Y0143254D01*
X0094911Y0143208D01*
X0094824Y0143164D01*
X0094736Y0143125D01*
X0094646Y0143089D01*
X0094554Y0143057D01*
X0094461Y0143028D01*
X0094368Y0143004D01*
X0094273Y0142983D01*
X0094177Y0142966D01*
X0094081Y0142953D01*
X0093985Y0142944D01*
X0093888Y0142939D01*
X0093791Y0142938D01*
X0093694Y0142941D01*
X0093597Y0142948D01*
X0093501Y0142959D01*
X0093405Y0142974D01*
X0093310Y0142993D01*
X0093215Y0143015D01*
X0093122Y0143042D01*
X0093030Y0143072D01*
X0092939Y0143106D01*
X0092850Y0143144D01*
X0092762Y0143186D01*
X0092676Y0143231D01*
X0092592Y0143279D01*
X0092510Y0143331D01*
X0092431Y0143386D01*
X0092353Y0143445D01*
X0092278Y0143506D01*
X0092206Y0143571D01*
X0092136Y0143638D01*
X0092069Y0143709D01*
X0092006Y0143782D01*
X0091945Y0143857D01*
X0091887Y0143935D01*
X0091833Y0144016D01*
X0091782Y0144098D01*
X0091734Y0144183D01*
X0091690Y0144269D01*
X0091649Y0144357D01*
X0091613Y0144447D01*
X0091579Y0144538D01*
X0091550Y0144630D01*
X0091524Y0144724D01*
X0091503Y0144818D01*
X0091485Y0144914D01*
X0091471Y0145010D01*
X0091461Y0145106D01*
X0091455Y0145203D01*
X0091453Y0145300D01*
X0091453Y0155143D02*
X0091455Y0155240D01*
X0091461Y0155337D01*
X0091471Y0155433D01*
X0091485Y0155529D01*
X0091503Y0155625D01*
X0091524Y0155719D01*
X0091550Y0155813D01*
X0091579Y0155905D01*
X0091613Y0155996D01*
X0091649Y0156086D01*
X0091690Y0156174D01*
X0091734Y0156260D01*
X0091782Y0156345D01*
X0091833Y0156427D01*
X0091887Y0156508D01*
X0091945Y0156586D01*
X0092006Y0156661D01*
X0092069Y0156734D01*
X0092136Y0156805D01*
X0092206Y0156872D01*
X0092278Y0156937D01*
X0092353Y0156998D01*
X0092431Y0157057D01*
X0092510Y0157112D01*
X0092592Y0157164D01*
X0092676Y0157212D01*
X0092762Y0157257D01*
X0092850Y0157299D01*
X0092939Y0157337D01*
X0093030Y0157371D01*
X0093122Y0157401D01*
X0093215Y0157428D01*
X0093310Y0157450D01*
X0093405Y0157469D01*
X0093501Y0157484D01*
X0093597Y0157495D01*
X0093694Y0157502D01*
X0093791Y0157505D01*
X0093888Y0157504D01*
X0093985Y0157499D01*
X0094081Y0157490D01*
X0094177Y0157477D01*
X0094273Y0157460D01*
X0094368Y0157439D01*
X0094461Y0157415D01*
X0094554Y0157386D01*
X0094646Y0157354D01*
X0094736Y0157318D01*
X0094824Y0157279D01*
X0094911Y0157235D01*
X0094996Y0157189D01*
X0095079Y0157138D01*
X0095160Y0157085D01*
X0095238Y0157028D01*
X0095315Y0156968D01*
X0095388Y0156905D01*
X0095459Y0156839D01*
X0095527Y0156770D01*
X0095593Y0156698D01*
X0095655Y0156624D01*
X0095714Y0156547D01*
X0095770Y0156468D01*
X0095823Y0156386D01*
X0095873Y0156303D01*
X0095918Y0156217D01*
X0095961Y0156130D01*
X0096000Y0156041D01*
X0096035Y0155951D01*
X0096066Y0155859D01*
X0096093Y0155766D01*
X0096117Y0155672D01*
X0096137Y0155577D01*
X0096153Y0155481D01*
X0096165Y0155385D01*
X0096173Y0155288D01*
X0096177Y0155191D01*
X0096177Y0155095D01*
X0096173Y0154998D01*
X0096165Y0154901D01*
X0096153Y0154805D01*
X0096137Y0154709D01*
X0096117Y0154614D01*
X0096093Y0154520D01*
X0096066Y0154427D01*
X0096035Y0154335D01*
X0096000Y0154245D01*
X0095961Y0154156D01*
X0095918Y0154069D01*
X0095873Y0153983D01*
X0095823Y0153900D01*
X0095770Y0153818D01*
X0095714Y0153739D01*
X0095655Y0153662D01*
X0095593Y0153588D01*
X0095527Y0153516D01*
X0095459Y0153447D01*
X0095388Y0153381D01*
X0095315Y0153318D01*
X0095238Y0153258D01*
X0095160Y0153201D01*
X0095079Y0153148D01*
X0094996Y0153097D01*
X0094911Y0153051D01*
X0094824Y0153007D01*
X0094736Y0152968D01*
X0094646Y0152932D01*
X0094554Y0152900D01*
X0094461Y0152871D01*
X0094368Y0152847D01*
X0094273Y0152826D01*
X0094177Y0152809D01*
X0094081Y0152796D01*
X0093985Y0152787D01*
X0093888Y0152782D01*
X0093791Y0152781D01*
X0093694Y0152784D01*
X0093597Y0152791D01*
X0093501Y0152802D01*
X0093405Y0152817D01*
X0093310Y0152836D01*
X0093215Y0152858D01*
X0093122Y0152885D01*
X0093030Y0152915D01*
X0092939Y0152949D01*
X0092850Y0152987D01*
X0092762Y0153029D01*
X0092676Y0153074D01*
X0092592Y0153122D01*
X0092510Y0153174D01*
X0092431Y0153229D01*
X0092353Y0153288D01*
X0092278Y0153349D01*
X0092206Y0153414D01*
X0092136Y0153481D01*
X0092069Y0153552D01*
X0092006Y0153625D01*
X0091945Y0153700D01*
X0091887Y0153778D01*
X0091833Y0153859D01*
X0091782Y0153941D01*
X0091734Y0154026D01*
X0091690Y0154112D01*
X0091649Y0154200D01*
X0091613Y0154290D01*
X0091579Y0154381D01*
X0091550Y0154473D01*
X0091524Y0154567D01*
X0091503Y0154661D01*
X0091485Y0154757D01*
X0091471Y0154853D01*
X0091461Y0154949D01*
X0091455Y0155046D01*
X0091453Y0155143D01*
X0111138Y0125615D02*
X0111140Y0125712D01*
X0111146Y0125809D01*
X0111156Y0125905D01*
X0111170Y0126001D01*
X0111188Y0126097D01*
X0111209Y0126191D01*
X0111235Y0126285D01*
X0111264Y0126377D01*
X0111298Y0126468D01*
X0111334Y0126558D01*
X0111375Y0126646D01*
X0111419Y0126732D01*
X0111467Y0126817D01*
X0111518Y0126899D01*
X0111572Y0126980D01*
X0111630Y0127058D01*
X0111691Y0127133D01*
X0111754Y0127206D01*
X0111821Y0127277D01*
X0111891Y0127344D01*
X0111963Y0127409D01*
X0112038Y0127470D01*
X0112116Y0127529D01*
X0112195Y0127584D01*
X0112277Y0127636D01*
X0112361Y0127684D01*
X0112447Y0127729D01*
X0112535Y0127771D01*
X0112624Y0127809D01*
X0112715Y0127843D01*
X0112807Y0127873D01*
X0112900Y0127900D01*
X0112995Y0127922D01*
X0113090Y0127941D01*
X0113186Y0127956D01*
X0113282Y0127967D01*
X0113379Y0127974D01*
X0113476Y0127977D01*
X0113573Y0127976D01*
X0113670Y0127971D01*
X0113766Y0127962D01*
X0113862Y0127949D01*
X0113958Y0127932D01*
X0114053Y0127911D01*
X0114146Y0127887D01*
X0114239Y0127858D01*
X0114331Y0127826D01*
X0114421Y0127790D01*
X0114509Y0127751D01*
X0114596Y0127707D01*
X0114681Y0127661D01*
X0114764Y0127610D01*
X0114845Y0127557D01*
X0114923Y0127500D01*
X0115000Y0127440D01*
X0115073Y0127377D01*
X0115144Y0127311D01*
X0115212Y0127242D01*
X0115278Y0127170D01*
X0115340Y0127096D01*
X0115399Y0127019D01*
X0115455Y0126940D01*
X0115508Y0126858D01*
X0115558Y0126775D01*
X0115603Y0126689D01*
X0115646Y0126602D01*
X0115685Y0126513D01*
X0115720Y0126423D01*
X0115751Y0126331D01*
X0115778Y0126238D01*
X0115802Y0126144D01*
X0115822Y0126049D01*
X0115838Y0125953D01*
X0115850Y0125857D01*
X0115858Y0125760D01*
X0115862Y0125663D01*
X0115862Y0125567D01*
X0115858Y0125470D01*
X0115850Y0125373D01*
X0115838Y0125277D01*
X0115822Y0125181D01*
X0115802Y0125086D01*
X0115778Y0124992D01*
X0115751Y0124899D01*
X0115720Y0124807D01*
X0115685Y0124717D01*
X0115646Y0124628D01*
X0115603Y0124541D01*
X0115558Y0124455D01*
X0115508Y0124372D01*
X0115455Y0124290D01*
X0115399Y0124211D01*
X0115340Y0124134D01*
X0115278Y0124060D01*
X0115212Y0123988D01*
X0115144Y0123919D01*
X0115073Y0123853D01*
X0115000Y0123790D01*
X0114923Y0123730D01*
X0114845Y0123673D01*
X0114764Y0123620D01*
X0114681Y0123569D01*
X0114596Y0123523D01*
X0114509Y0123479D01*
X0114421Y0123440D01*
X0114331Y0123404D01*
X0114239Y0123372D01*
X0114146Y0123343D01*
X0114053Y0123319D01*
X0113958Y0123298D01*
X0113862Y0123281D01*
X0113766Y0123268D01*
X0113670Y0123259D01*
X0113573Y0123254D01*
X0113476Y0123253D01*
X0113379Y0123256D01*
X0113282Y0123263D01*
X0113186Y0123274D01*
X0113090Y0123289D01*
X0112995Y0123308D01*
X0112900Y0123330D01*
X0112807Y0123357D01*
X0112715Y0123387D01*
X0112624Y0123421D01*
X0112535Y0123459D01*
X0112447Y0123501D01*
X0112361Y0123546D01*
X0112277Y0123594D01*
X0112195Y0123646D01*
X0112116Y0123701D01*
X0112038Y0123760D01*
X0111963Y0123821D01*
X0111891Y0123886D01*
X0111821Y0123953D01*
X0111754Y0124024D01*
X0111691Y0124097D01*
X0111630Y0124172D01*
X0111572Y0124250D01*
X0111518Y0124331D01*
X0111467Y0124413D01*
X0111419Y0124498D01*
X0111375Y0124584D01*
X0111334Y0124672D01*
X0111298Y0124762D01*
X0111264Y0124853D01*
X0111235Y0124945D01*
X0111209Y0125039D01*
X0111188Y0125133D01*
X0111170Y0125229D01*
X0111156Y0125325D01*
X0111146Y0125421D01*
X0111140Y0125518D01*
X0111138Y0125615D01*
X0130823Y0145300D02*
X0130825Y0145397D01*
X0130831Y0145494D01*
X0130841Y0145590D01*
X0130855Y0145686D01*
X0130873Y0145782D01*
X0130894Y0145876D01*
X0130920Y0145970D01*
X0130949Y0146062D01*
X0130983Y0146153D01*
X0131019Y0146243D01*
X0131060Y0146331D01*
X0131104Y0146417D01*
X0131152Y0146502D01*
X0131203Y0146584D01*
X0131257Y0146665D01*
X0131315Y0146743D01*
X0131376Y0146818D01*
X0131439Y0146891D01*
X0131506Y0146962D01*
X0131576Y0147029D01*
X0131648Y0147094D01*
X0131723Y0147155D01*
X0131801Y0147214D01*
X0131880Y0147269D01*
X0131962Y0147321D01*
X0132046Y0147369D01*
X0132132Y0147414D01*
X0132220Y0147456D01*
X0132309Y0147494D01*
X0132400Y0147528D01*
X0132492Y0147558D01*
X0132585Y0147585D01*
X0132680Y0147607D01*
X0132775Y0147626D01*
X0132871Y0147641D01*
X0132967Y0147652D01*
X0133064Y0147659D01*
X0133161Y0147662D01*
X0133258Y0147661D01*
X0133355Y0147656D01*
X0133451Y0147647D01*
X0133547Y0147634D01*
X0133643Y0147617D01*
X0133738Y0147596D01*
X0133831Y0147572D01*
X0133924Y0147543D01*
X0134016Y0147511D01*
X0134106Y0147475D01*
X0134194Y0147436D01*
X0134281Y0147392D01*
X0134366Y0147346D01*
X0134449Y0147295D01*
X0134530Y0147242D01*
X0134608Y0147185D01*
X0134685Y0147125D01*
X0134758Y0147062D01*
X0134829Y0146996D01*
X0134897Y0146927D01*
X0134963Y0146855D01*
X0135025Y0146781D01*
X0135084Y0146704D01*
X0135140Y0146625D01*
X0135193Y0146543D01*
X0135243Y0146460D01*
X0135288Y0146374D01*
X0135331Y0146287D01*
X0135370Y0146198D01*
X0135405Y0146108D01*
X0135436Y0146016D01*
X0135463Y0145923D01*
X0135487Y0145829D01*
X0135507Y0145734D01*
X0135523Y0145638D01*
X0135535Y0145542D01*
X0135543Y0145445D01*
X0135547Y0145348D01*
X0135547Y0145252D01*
X0135543Y0145155D01*
X0135535Y0145058D01*
X0135523Y0144962D01*
X0135507Y0144866D01*
X0135487Y0144771D01*
X0135463Y0144677D01*
X0135436Y0144584D01*
X0135405Y0144492D01*
X0135370Y0144402D01*
X0135331Y0144313D01*
X0135288Y0144226D01*
X0135243Y0144140D01*
X0135193Y0144057D01*
X0135140Y0143975D01*
X0135084Y0143896D01*
X0135025Y0143819D01*
X0134963Y0143745D01*
X0134897Y0143673D01*
X0134829Y0143604D01*
X0134758Y0143538D01*
X0134685Y0143475D01*
X0134608Y0143415D01*
X0134530Y0143358D01*
X0134449Y0143305D01*
X0134366Y0143254D01*
X0134281Y0143208D01*
X0134194Y0143164D01*
X0134106Y0143125D01*
X0134016Y0143089D01*
X0133924Y0143057D01*
X0133831Y0143028D01*
X0133738Y0143004D01*
X0133643Y0142983D01*
X0133547Y0142966D01*
X0133451Y0142953D01*
X0133355Y0142944D01*
X0133258Y0142939D01*
X0133161Y0142938D01*
X0133064Y0142941D01*
X0132967Y0142948D01*
X0132871Y0142959D01*
X0132775Y0142974D01*
X0132680Y0142993D01*
X0132585Y0143015D01*
X0132492Y0143042D01*
X0132400Y0143072D01*
X0132309Y0143106D01*
X0132220Y0143144D01*
X0132132Y0143186D01*
X0132046Y0143231D01*
X0131962Y0143279D01*
X0131880Y0143331D01*
X0131801Y0143386D01*
X0131723Y0143445D01*
X0131648Y0143506D01*
X0131576Y0143571D01*
X0131506Y0143638D01*
X0131439Y0143709D01*
X0131376Y0143782D01*
X0131315Y0143857D01*
X0131257Y0143935D01*
X0131203Y0144016D01*
X0131152Y0144098D01*
X0131104Y0144183D01*
X0131060Y0144269D01*
X0131019Y0144357D01*
X0130983Y0144447D01*
X0130949Y0144538D01*
X0130920Y0144630D01*
X0130894Y0144724D01*
X0130873Y0144818D01*
X0130855Y0144914D01*
X0130841Y0145010D01*
X0130831Y0145106D01*
X0130825Y0145203D01*
X0130823Y0145300D01*
X0130823Y0155143D02*
X0130825Y0155240D01*
X0130831Y0155337D01*
X0130841Y0155433D01*
X0130855Y0155529D01*
X0130873Y0155625D01*
X0130894Y0155719D01*
X0130920Y0155813D01*
X0130949Y0155905D01*
X0130983Y0155996D01*
X0131019Y0156086D01*
X0131060Y0156174D01*
X0131104Y0156260D01*
X0131152Y0156345D01*
X0131203Y0156427D01*
X0131257Y0156508D01*
X0131315Y0156586D01*
X0131376Y0156661D01*
X0131439Y0156734D01*
X0131506Y0156805D01*
X0131576Y0156872D01*
X0131648Y0156937D01*
X0131723Y0156998D01*
X0131801Y0157057D01*
X0131880Y0157112D01*
X0131962Y0157164D01*
X0132046Y0157212D01*
X0132132Y0157257D01*
X0132220Y0157299D01*
X0132309Y0157337D01*
X0132400Y0157371D01*
X0132492Y0157401D01*
X0132585Y0157428D01*
X0132680Y0157450D01*
X0132775Y0157469D01*
X0132871Y0157484D01*
X0132967Y0157495D01*
X0133064Y0157502D01*
X0133161Y0157505D01*
X0133258Y0157504D01*
X0133355Y0157499D01*
X0133451Y0157490D01*
X0133547Y0157477D01*
X0133643Y0157460D01*
X0133738Y0157439D01*
X0133831Y0157415D01*
X0133924Y0157386D01*
X0134016Y0157354D01*
X0134106Y0157318D01*
X0134194Y0157279D01*
X0134281Y0157235D01*
X0134366Y0157189D01*
X0134449Y0157138D01*
X0134530Y0157085D01*
X0134608Y0157028D01*
X0134685Y0156968D01*
X0134758Y0156905D01*
X0134829Y0156839D01*
X0134897Y0156770D01*
X0134963Y0156698D01*
X0135025Y0156624D01*
X0135084Y0156547D01*
X0135140Y0156468D01*
X0135193Y0156386D01*
X0135243Y0156303D01*
X0135288Y0156217D01*
X0135331Y0156130D01*
X0135370Y0156041D01*
X0135405Y0155951D01*
X0135436Y0155859D01*
X0135463Y0155766D01*
X0135487Y0155672D01*
X0135507Y0155577D01*
X0135523Y0155481D01*
X0135535Y0155385D01*
X0135543Y0155288D01*
X0135547Y0155191D01*
X0135547Y0155095D01*
X0135543Y0154998D01*
X0135535Y0154901D01*
X0135523Y0154805D01*
X0135507Y0154709D01*
X0135487Y0154614D01*
X0135463Y0154520D01*
X0135436Y0154427D01*
X0135405Y0154335D01*
X0135370Y0154245D01*
X0135331Y0154156D01*
X0135288Y0154069D01*
X0135243Y0153983D01*
X0135193Y0153900D01*
X0135140Y0153818D01*
X0135084Y0153739D01*
X0135025Y0153662D01*
X0134963Y0153588D01*
X0134897Y0153516D01*
X0134829Y0153447D01*
X0134758Y0153381D01*
X0134685Y0153318D01*
X0134608Y0153258D01*
X0134530Y0153201D01*
X0134449Y0153148D01*
X0134366Y0153097D01*
X0134281Y0153051D01*
X0134194Y0153007D01*
X0134106Y0152968D01*
X0134016Y0152932D01*
X0133924Y0152900D01*
X0133831Y0152871D01*
X0133738Y0152847D01*
X0133643Y0152826D01*
X0133547Y0152809D01*
X0133451Y0152796D01*
X0133355Y0152787D01*
X0133258Y0152782D01*
X0133161Y0152781D01*
X0133064Y0152784D01*
X0132967Y0152791D01*
X0132871Y0152802D01*
X0132775Y0152817D01*
X0132680Y0152836D01*
X0132585Y0152858D01*
X0132492Y0152885D01*
X0132400Y0152915D01*
X0132309Y0152949D01*
X0132220Y0152987D01*
X0132132Y0153029D01*
X0132046Y0153074D01*
X0131962Y0153122D01*
X0131880Y0153174D01*
X0131801Y0153229D01*
X0131723Y0153288D01*
X0131648Y0153349D01*
X0131576Y0153414D01*
X0131506Y0153481D01*
X0131439Y0153552D01*
X0131376Y0153625D01*
X0131315Y0153700D01*
X0131257Y0153778D01*
X0131203Y0153859D01*
X0131152Y0153941D01*
X0131104Y0154026D01*
X0131060Y0154112D01*
X0131019Y0154200D01*
X0130983Y0154290D01*
X0130949Y0154381D01*
X0130920Y0154473D01*
X0130894Y0154567D01*
X0130873Y0154661D01*
X0130855Y0154757D01*
X0130841Y0154853D01*
X0130831Y0154949D01*
X0130825Y0155046D01*
X0130823Y0155143D01*
X0160555Y0081103D02*
X0160557Y0081261D01*
X0160563Y0081419D01*
X0160573Y0081577D01*
X0160587Y0081735D01*
X0160605Y0081892D01*
X0160626Y0082049D01*
X0160652Y0082205D01*
X0160682Y0082361D01*
X0160715Y0082516D01*
X0160753Y0082669D01*
X0160794Y0082822D01*
X0160839Y0082974D01*
X0160888Y0083125D01*
X0160941Y0083274D01*
X0160997Y0083422D01*
X0161057Y0083568D01*
X0161121Y0083713D01*
X0161189Y0083856D01*
X0161260Y0083998D01*
X0161334Y0084138D01*
X0161412Y0084275D01*
X0161494Y0084411D01*
X0161578Y0084545D01*
X0161667Y0084676D01*
X0161758Y0084805D01*
X0161853Y0084932D01*
X0161950Y0085057D01*
X0162051Y0085179D01*
X0162155Y0085298D01*
X0162262Y0085415D01*
X0162372Y0085529D01*
X0162485Y0085640D01*
X0162600Y0085749D01*
X0162718Y0085854D01*
X0162839Y0085956D01*
X0162962Y0086056D01*
X0163088Y0086152D01*
X0163216Y0086245D01*
X0163346Y0086335D01*
X0163479Y0086421D01*
X0163614Y0086505D01*
X0163750Y0086584D01*
X0163889Y0086661D01*
X0164030Y0086733D01*
X0164172Y0086803D01*
X0164316Y0086868D01*
X0164462Y0086930D01*
X0164609Y0086988D01*
X0164758Y0087043D01*
X0164908Y0087094D01*
X0165059Y0087141D01*
X0165211Y0087184D01*
X0165364Y0087223D01*
X0165519Y0087259D01*
X0165674Y0087290D01*
X0165830Y0087318D01*
X0165986Y0087342D01*
X0166143Y0087362D01*
X0166301Y0087378D01*
X0166458Y0087390D01*
X0166617Y0087398D01*
X0166775Y0087402D01*
X0166933Y0087402D01*
X0167091Y0087398D01*
X0167250Y0087390D01*
X0167407Y0087378D01*
X0167565Y0087362D01*
X0167722Y0087342D01*
X0167878Y0087318D01*
X0168034Y0087290D01*
X0168189Y0087259D01*
X0168344Y0087223D01*
X0168497Y0087184D01*
X0168649Y0087141D01*
X0168800Y0087094D01*
X0168950Y0087043D01*
X0169099Y0086988D01*
X0169246Y0086930D01*
X0169392Y0086868D01*
X0169536Y0086803D01*
X0169678Y0086733D01*
X0169819Y0086661D01*
X0169958Y0086584D01*
X0170094Y0086505D01*
X0170229Y0086421D01*
X0170362Y0086335D01*
X0170492Y0086245D01*
X0170620Y0086152D01*
X0170746Y0086056D01*
X0170869Y0085956D01*
X0170990Y0085854D01*
X0171108Y0085749D01*
X0171223Y0085640D01*
X0171336Y0085529D01*
X0171446Y0085415D01*
X0171553Y0085298D01*
X0171657Y0085179D01*
X0171758Y0085057D01*
X0171855Y0084932D01*
X0171950Y0084805D01*
X0172041Y0084676D01*
X0172130Y0084545D01*
X0172214Y0084411D01*
X0172296Y0084275D01*
X0172374Y0084138D01*
X0172448Y0083998D01*
X0172519Y0083856D01*
X0172587Y0083713D01*
X0172651Y0083568D01*
X0172711Y0083422D01*
X0172767Y0083274D01*
X0172820Y0083125D01*
X0172869Y0082974D01*
X0172914Y0082822D01*
X0172955Y0082669D01*
X0172993Y0082516D01*
X0173026Y0082361D01*
X0173056Y0082205D01*
X0173082Y0082049D01*
X0173103Y0081892D01*
X0173121Y0081735D01*
X0173135Y0081577D01*
X0173145Y0081419D01*
X0173151Y0081261D01*
X0173153Y0081103D01*
X0173151Y0080945D01*
X0173145Y0080787D01*
X0173135Y0080629D01*
X0173121Y0080471D01*
X0173103Y0080314D01*
X0173082Y0080157D01*
X0173056Y0080001D01*
X0173026Y0079845D01*
X0172993Y0079690D01*
X0172955Y0079537D01*
X0172914Y0079384D01*
X0172869Y0079232D01*
X0172820Y0079081D01*
X0172767Y0078932D01*
X0172711Y0078784D01*
X0172651Y0078638D01*
X0172587Y0078493D01*
X0172519Y0078350D01*
X0172448Y0078208D01*
X0172374Y0078068D01*
X0172296Y0077931D01*
X0172214Y0077795D01*
X0172130Y0077661D01*
X0172041Y0077530D01*
X0171950Y0077401D01*
X0171855Y0077274D01*
X0171758Y0077149D01*
X0171657Y0077027D01*
X0171553Y0076908D01*
X0171446Y0076791D01*
X0171336Y0076677D01*
X0171223Y0076566D01*
X0171108Y0076457D01*
X0170990Y0076352D01*
X0170869Y0076250D01*
X0170746Y0076150D01*
X0170620Y0076054D01*
X0170492Y0075961D01*
X0170362Y0075871D01*
X0170229Y0075785D01*
X0170094Y0075701D01*
X0169958Y0075622D01*
X0169819Y0075545D01*
X0169678Y0075473D01*
X0169536Y0075403D01*
X0169392Y0075338D01*
X0169246Y0075276D01*
X0169099Y0075218D01*
X0168950Y0075163D01*
X0168800Y0075112D01*
X0168649Y0075065D01*
X0168497Y0075022D01*
X0168344Y0074983D01*
X0168189Y0074947D01*
X0168034Y0074916D01*
X0167878Y0074888D01*
X0167722Y0074864D01*
X0167565Y0074844D01*
X0167407Y0074828D01*
X0167250Y0074816D01*
X0167091Y0074808D01*
X0166933Y0074804D01*
X0166775Y0074804D01*
X0166617Y0074808D01*
X0166458Y0074816D01*
X0166301Y0074828D01*
X0166143Y0074844D01*
X0165986Y0074864D01*
X0165830Y0074888D01*
X0165674Y0074916D01*
X0165519Y0074947D01*
X0165364Y0074983D01*
X0165211Y0075022D01*
X0165059Y0075065D01*
X0164908Y0075112D01*
X0164758Y0075163D01*
X0164609Y0075218D01*
X0164462Y0075276D01*
X0164316Y0075338D01*
X0164172Y0075403D01*
X0164030Y0075473D01*
X0163889Y0075545D01*
X0163750Y0075622D01*
X0163614Y0075701D01*
X0163479Y0075785D01*
X0163346Y0075871D01*
X0163216Y0075961D01*
X0163088Y0076054D01*
X0162962Y0076150D01*
X0162839Y0076250D01*
X0162718Y0076352D01*
X0162600Y0076457D01*
X0162485Y0076566D01*
X0162372Y0076677D01*
X0162262Y0076791D01*
X0162155Y0076908D01*
X0162051Y0077027D01*
X0161950Y0077149D01*
X0161853Y0077274D01*
X0161758Y0077401D01*
X0161667Y0077530D01*
X0161578Y0077661D01*
X0161494Y0077795D01*
X0161412Y0077931D01*
X0161334Y0078068D01*
X0161260Y0078208D01*
X0161189Y0078350D01*
X0161121Y0078493D01*
X0161057Y0078638D01*
X0160997Y0078784D01*
X0160941Y0078932D01*
X0160888Y0079081D01*
X0160839Y0079232D01*
X0160794Y0079384D01*
X0160753Y0079537D01*
X0160715Y0079690D01*
X0160682Y0079845D01*
X0160652Y0080001D01*
X0160626Y0080157D01*
X0160605Y0080314D01*
X0160587Y0080471D01*
X0160573Y0080629D01*
X0160563Y0080787D01*
X0160557Y0080945D01*
X0160555Y0081103D01*
D11*
X0194413Y0006300D02*
X0009374Y0006300D01*
X0009184Y0006302D01*
X0008994Y0006309D01*
X0008804Y0006321D01*
X0008614Y0006337D01*
X0008425Y0006357D01*
X0008236Y0006383D01*
X0008048Y0006412D01*
X0007861Y0006447D01*
X0007675Y0006486D01*
X0007490Y0006529D01*
X0007305Y0006577D01*
X0007122Y0006629D01*
X0006941Y0006685D01*
X0006761Y0006746D01*
X0006582Y0006812D01*
X0006405Y0006881D01*
X0006229Y0006955D01*
X0006056Y0007033D01*
X0005884Y0007116D01*
X0005715Y0007202D01*
X0005547Y0007292D01*
X0005382Y0007387D01*
X0005219Y0007485D01*
X0005059Y0007588D01*
X0004901Y0007694D01*
X0004746Y0007804D01*
X0004593Y0007917D01*
X0004443Y0008035D01*
X0004297Y0008156D01*
X0004153Y0008280D01*
X0004012Y0008408D01*
X0003874Y0008539D01*
X0003739Y0008674D01*
X0003608Y0008812D01*
X0003480Y0008953D01*
X0003356Y0009097D01*
X0003235Y0009243D01*
X0003117Y0009393D01*
X0003004Y0009546D01*
X0002894Y0009701D01*
X0002788Y0009859D01*
X0002685Y0010019D01*
X0002587Y0010182D01*
X0002492Y0010347D01*
X0002402Y0010515D01*
X0002316Y0010684D01*
X0002233Y0010856D01*
X0002155Y0011029D01*
X0002081Y0011205D01*
X0002012Y0011382D01*
X0001946Y0011561D01*
X0001885Y0011741D01*
X0001829Y0011922D01*
X0001777Y0012105D01*
X0001729Y0012290D01*
X0001686Y0012475D01*
X0001647Y0012661D01*
X0001612Y0012848D01*
X0001583Y0013036D01*
X0001557Y0013225D01*
X0001537Y0013414D01*
X0001521Y0013604D01*
X0001509Y0013794D01*
X0001502Y0013984D01*
X0001500Y0014174D01*
X0001500Y0151969D01*
X0001502Y0152159D01*
X0001509Y0152349D01*
X0001521Y0152539D01*
X0001537Y0152729D01*
X0001557Y0152918D01*
X0001583Y0153107D01*
X0001612Y0153295D01*
X0001647Y0153482D01*
X0001686Y0153668D01*
X0001729Y0153853D01*
X0001777Y0154038D01*
X0001829Y0154221D01*
X0001885Y0154402D01*
X0001946Y0154582D01*
X0002012Y0154761D01*
X0002081Y0154938D01*
X0002155Y0155114D01*
X0002233Y0155287D01*
X0002316Y0155459D01*
X0002402Y0155628D01*
X0002492Y0155796D01*
X0002587Y0155961D01*
X0002685Y0156124D01*
X0002788Y0156284D01*
X0002894Y0156442D01*
X0003004Y0156597D01*
X0003117Y0156750D01*
X0003235Y0156900D01*
X0003356Y0157046D01*
X0003480Y0157190D01*
X0003608Y0157331D01*
X0003739Y0157469D01*
X0003874Y0157604D01*
X0004012Y0157735D01*
X0004153Y0157863D01*
X0004297Y0157987D01*
X0004443Y0158108D01*
X0004593Y0158226D01*
X0004746Y0158339D01*
X0004901Y0158449D01*
X0005059Y0158555D01*
X0005219Y0158658D01*
X0005382Y0158756D01*
X0005547Y0158851D01*
X0005715Y0158941D01*
X0005884Y0159027D01*
X0006056Y0159110D01*
X0006229Y0159188D01*
X0006405Y0159262D01*
X0006582Y0159331D01*
X0006761Y0159397D01*
X0006941Y0159458D01*
X0007122Y0159514D01*
X0007305Y0159566D01*
X0007490Y0159614D01*
X0007675Y0159657D01*
X0007861Y0159696D01*
X0008048Y0159731D01*
X0008236Y0159760D01*
X0008425Y0159786D01*
X0008614Y0159806D01*
X0008804Y0159822D01*
X0008994Y0159834D01*
X0009184Y0159841D01*
X0009374Y0159843D01*
X0194413Y0159843D01*
X0194603Y0159841D01*
X0194793Y0159834D01*
X0194983Y0159822D01*
X0195173Y0159806D01*
X0195362Y0159786D01*
X0195551Y0159760D01*
X0195739Y0159731D01*
X0195926Y0159696D01*
X0196112Y0159657D01*
X0196297Y0159614D01*
X0196482Y0159566D01*
X0196665Y0159514D01*
X0196846Y0159458D01*
X0197026Y0159397D01*
X0197205Y0159331D01*
X0197382Y0159262D01*
X0197558Y0159188D01*
X0197731Y0159110D01*
X0197903Y0159027D01*
X0198072Y0158941D01*
X0198240Y0158851D01*
X0198405Y0158756D01*
X0198568Y0158658D01*
X0198728Y0158555D01*
X0198886Y0158449D01*
X0199041Y0158339D01*
X0199194Y0158226D01*
X0199344Y0158108D01*
X0199490Y0157987D01*
X0199634Y0157863D01*
X0199775Y0157735D01*
X0199913Y0157604D01*
X0200048Y0157469D01*
X0200179Y0157331D01*
X0200307Y0157190D01*
X0200431Y0157046D01*
X0200552Y0156900D01*
X0200670Y0156750D01*
X0200783Y0156597D01*
X0200893Y0156442D01*
X0200999Y0156284D01*
X0201102Y0156124D01*
X0201200Y0155961D01*
X0201295Y0155796D01*
X0201385Y0155628D01*
X0201471Y0155459D01*
X0201554Y0155287D01*
X0201632Y0155114D01*
X0201706Y0154938D01*
X0201775Y0154761D01*
X0201841Y0154582D01*
X0201902Y0154402D01*
X0201958Y0154221D01*
X0202010Y0154038D01*
X0202058Y0153853D01*
X0202101Y0153668D01*
X0202140Y0153482D01*
X0202175Y0153295D01*
X0202204Y0153107D01*
X0202230Y0152918D01*
X0202250Y0152729D01*
X0202266Y0152539D01*
X0202278Y0152349D01*
X0202285Y0152159D01*
X0202287Y0151969D01*
X0202287Y0014174D01*
X0202285Y0013984D01*
X0202278Y0013794D01*
X0202266Y0013604D01*
X0202250Y0013414D01*
X0202230Y0013225D01*
X0202204Y0013036D01*
X0202175Y0012848D01*
X0202140Y0012661D01*
X0202101Y0012475D01*
X0202058Y0012290D01*
X0202010Y0012105D01*
X0201958Y0011922D01*
X0201902Y0011741D01*
X0201841Y0011561D01*
X0201775Y0011382D01*
X0201706Y0011205D01*
X0201632Y0011029D01*
X0201554Y0010856D01*
X0201471Y0010684D01*
X0201385Y0010515D01*
X0201295Y0010347D01*
X0201200Y0010182D01*
X0201102Y0010019D01*
X0200999Y0009859D01*
X0200893Y0009701D01*
X0200783Y0009546D01*
X0200670Y0009393D01*
X0200552Y0009243D01*
X0200431Y0009097D01*
X0200307Y0008953D01*
X0200179Y0008812D01*
X0200048Y0008674D01*
X0199913Y0008539D01*
X0199775Y0008408D01*
X0199634Y0008280D01*
X0199490Y0008156D01*
X0199344Y0008035D01*
X0199194Y0007917D01*
X0199041Y0007804D01*
X0198886Y0007694D01*
X0198728Y0007588D01*
X0198568Y0007485D01*
X0198405Y0007387D01*
X0198240Y0007292D01*
X0198072Y0007202D01*
X0197903Y0007116D01*
X0197731Y0007033D01*
X0197558Y0006955D01*
X0197382Y0006881D01*
X0197205Y0006812D01*
X0197026Y0006746D01*
X0196846Y0006685D01*
X0196665Y0006629D01*
X0196482Y0006577D01*
X0196297Y0006529D01*
X0196112Y0006486D01*
X0195926Y0006447D01*
X0195739Y0006412D01*
X0195551Y0006383D01*
X0195362Y0006357D01*
X0195173Y0006337D01*
X0194983Y0006321D01*
X0194793Y0006309D01*
X0194603Y0006302D01*
X0194413Y0006300D01*
X0016600Y0040100D02*
X0014600Y0040100D01*
X0008200Y0040100D02*
X0006400Y0040100D01*
D12*
X0019949Y0046350D02*
X0019049Y0046350D01*
X0019050Y0046350D02*
X0019046Y0046533D01*
X0019039Y0046716D01*
X0019026Y0046899D01*
X0019009Y0047082D01*
X0018988Y0047264D01*
X0018963Y0047445D01*
X0018933Y0047626D01*
X0018898Y0047806D01*
X0018860Y0047985D01*
X0018817Y0048163D01*
X0018769Y0048340D01*
X0018718Y0048515D01*
X0018662Y0048690D01*
X0018602Y0048863D01*
X0018537Y0049034D01*
X0018469Y0049204D01*
X0018397Y0049373D01*
X0018320Y0049539D01*
X0018239Y0049703D01*
X0018155Y0049866D01*
X0018066Y0050026D01*
X0017974Y0050185D01*
X0017878Y0050341D01*
X0017778Y0050494D01*
X0017674Y0050645D01*
X0017567Y0050794D01*
X0017456Y0050940D01*
X0017342Y0051083D01*
X0017224Y0051223D01*
X0017103Y0051360D01*
X0016979Y0051495D01*
X0016851Y0051626D01*
X0016720Y0051755D01*
X0016586Y0051880D01*
X0016450Y0052001D01*
X0016310Y0052120D01*
X0016167Y0052235D01*
X0016022Y0052346D01*
X0015874Y0052454D01*
X0015723Y0052558D01*
X0015570Y0052659D01*
X0015415Y0052756D01*
X0015257Y0052849D01*
X0015097Y0052938D01*
X0015520Y0053732D01*
X0015700Y0053632D01*
X0015877Y0053528D01*
X0016051Y0053420D01*
X0016223Y0053307D01*
X0016391Y0053190D01*
X0016557Y0053069D01*
X0016720Y0052945D01*
X0016880Y0052816D01*
X0017037Y0052683D01*
X0017190Y0052547D01*
X0017340Y0052407D01*
X0017487Y0052263D01*
X0017630Y0052116D01*
X0017770Y0051965D01*
X0017905Y0051811D01*
X0018037Y0051654D01*
X0018165Y0051494D01*
X0018290Y0051330D01*
X0018410Y0051164D01*
X0018526Y0050994D01*
X0018638Y0050822D01*
X0018746Y0050648D01*
X0018849Y0050470D01*
X0018948Y0050291D01*
X0019043Y0050108D01*
X0019133Y0049924D01*
X0019219Y0049738D01*
X0019300Y0049549D01*
X0019377Y0049359D01*
X0019449Y0049166D01*
X0019516Y0048972D01*
X0019579Y0048777D01*
X0019637Y0048580D01*
X0019690Y0048382D01*
X0019738Y0048182D01*
X0019781Y0047981D01*
X0019819Y0047780D01*
X0019853Y0047577D01*
X0019881Y0047374D01*
X0019905Y0047170D01*
X0019924Y0046965D01*
X0019937Y0046761D01*
X0019946Y0046556D01*
X0019950Y0046350D01*
X0019856Y0046350D01*
X0019852Y0046553D01*
X0019844Y0046756D01*
X0019830Y0046959D01*
X0019812Y0047161D01*
X0019788Y0047362D01*
X0019760Y0047563D01*
X0019727Y0047764D01*
X0019689Y0047963D01*
X0019646Y0048161D01*
X0019598Y0048359D01*
X0019546Y0048555D01*
X0019489Y0048750D01*
X0019427Y0048943D01*
X0019360Y0049135D01*
X0019289Y0049325D01*
X0019214Y0049513D01*
X0019133Y0049699D01*
X0019048Y0049884D01*
X0018959Y0050066D01*
X0018865Y0050246D01*
X0018767Y0050424D01*
X0018665Y0050599D01*
X0018559Y0050772D01*
X0018448Y0050942D01*
X0018333Y0051110D01*
X0018214Y0051274D01*
X0018091Y0051436D01*
X0017965Y0051594D01*
X0017834Y0051750D01*
X0017700Y0051902D01*
X0017562Y0052051D01*
X0017421Y0052197D01*
X0017276Y0052339D01*
X0017127Y0052477D01*
X0016976Y0052612D01*
X0016821Y0052743D01*
X0016663Y0052870D01*
X0016501Y0052994D01*
X0016337Y0053113D01*
X0016170Y0053229D01*
X0016001Y0053340D01*
X0015828Y0053448D01*
X0015653Y0053551D01*
X0015476Y0053649D01*
X0015432Y0053566D01*
X0015607Y0053469D01*
X0015780Y0053367D01*
X0015950Y0053261D01*
X0016118Y0053151D01*
X0016283Y0053037D01*
X0016445Y0052918D01*
X0016605Y0052796D01*
X0016761Y0052670D01*
X0016914Y0052541D01*
X0017064Y0052407D01*
X0017211Y0052271D01*
X0017354Y0052130D01*
X0017494Y0051986D01*
X0017630Y0051839D01*
X0017763Y0051688D01*
X0017892Y0051535D01*
X0018017Y0051378D01*
X0018139Y0051218D01*
X0018256Y0051055D01*
X0018370Y0050890D01*
X0018479Y0050722D01*
X0018585Y0050551D01*
X0018686Y0050378D01*
X0018783Y0050202D01*
X0018875Y0050024D01*
X0018963Y0049844D01*
X0019047Y0049661D01*
X0019127Y0049477D01*
X0019202Y0049291D01*
X0019272Y0049103D01*
X0019338Y0048913D01*
X0019399Y0048722D01*
X0019455Y0048530D01*
X0019507Y0048336D01*
X0019554Y0048141D01*
X0019597Y0047945D01*
X0019634Y0047747D01*
X0019667Y0047549D01*
X0019695Y0047351D01*
X0019718Y0047151D01*
X0019736Y0046952D01*
X0019750Y0046751D01*
X0019758Y0046551D01*
X0019762Y0046350D01*
X0019668Y0046350D01*
X0019664Y0046549D01*
X0019656Y0046747D01*
X0019643Y0046945D01*
X0019624Y0047142D01*
X0019602Y0047339D01*
X0019574Y0047536D01*
X0019542Y0047731D01*
X0019504Y0047926D01*
X0019463Y0048120D01*
X0019416Y0048313D01*
X0019365Y0048505D01*
X0019309Y0048695D01*
X0019249Y0048884D01*
X0019184Y0049071D01*
X0019114Y0049257D01*
X0019040Y0049441D01*
X0018961Y0049623D01*
X0018878Y0049803D01*
X0018791Y0049982D01*
X0018700Y0050158D01*
X0018604Y0050331D01*
X0018504Y0050503D01*
X0018400Y0050671D01*
X0018292Y0050838D01*
X0018179Y0051001D01*
X0018063Y0051162D01*
X0017943Y0051320D01*
X0017819Y0051475D01*
X0017692Y0051627D01*
X0017561Y0051776D01*
X0017426Y0051921D01*
X0017288Y0052064D01*
X0017146Y0052202D01*
X0017001Y0052338D01*
X0016853Y0052470D01*
X0016701Y0052598D01*
X0016547Y0052722D01*
X0016390Y0052843D01*
X0016229Y0052960D01*
X0016066Y0053073D01*
X0015900Y0053181D01*
X0015732Y0053286D01*
X0015561Y0053387D01*
X0015388Y0053483D01*
X0015343Y0053401D01*
X0015515Y0053305D01*
X0015684Y0053206D01*
X0015850Y0053102D01*
X0016014Y0052994D01*
X0016175Y0052883D01*
X0016334Y0052767D01*
X0016489Y0052648D01*
X0016642Y0052525D01*
X0016791Y0052398D01*
X0016938Y0052268D01*
X0017081Y0052134D01*
X0017221Y0051997D01*
X0017358Y0051856D01*
X0017491Y0051713D01*
X0017621Y0051566D01*
X0017747Y0051415D01*
X0017869Y0051262D01*
X0017988Y0051106D01*
X0018103Y0050947D01*
X0018213Y0050785D01*
X0018320Y0050621D01*
X0018423Y0050454D01*
X0018522Y0050285D01*
X0018617Y0050113D01*
X0018707Y0049939D01*
X0018794Y0049763D01*
X0018875Y0049585D01*
X0018953Y0049405D01*
X0019026Y0049223D01*
X0019095Y0049040D01*
X0019159Y0048854D01*
X0019219Y0048668D01*
X0019274Y0048480D01*
X0019325Y0048290D01*
X0019371Y0048100D01*
X0019412Y0047908D01*
X0019449Y0047715D01*
X0019481Y0047522D01*
X0019508Y0047328D01*
X0019531Y0047133D01*
X0019549Y0046938D01*
X0019562Y0046742D01*
X0019570Y0046546D01*
X0019574Y0046350D01*
X0019480Y0046350D01*
X0019476Y0046544D01*
X0019468Y0046738D01*
X0019455Y0046931D01*
X0019437Y0047124D01*
X0019415Y0047316D01*
X0019388Y0047508D01*
X0019356Y0047699D01*
X0019320Y0047890D01*
X0019279Y0048079D01*
X0019234Y0048267D01*
X0019184Y0048454D01*
X0019129Y0048640D01*
X0019070Y0048825D01*
X0019007Y0049008D01*
X0018939Y0049189D01*
X0018866Y0049369D01*
X0018790Y0049547D01*
X0018709Y0049723D01*
X0018623Y0049897D01*
X0018534Y0050069D01*
X0018440Y0050239D01*
X0018343Y0050406D01*
X0018241Y0050571D01*
X0018135Y0050733D01*
X0018026Y0050893D01*
X0017912Y0051050D01*
X0017795Y0051204D01*
X0017674Y0051356D01*
X0017550Y0051504D01*
X0017422Y0051649D01*
X0017290Y0051792D01*
X0017155Y0051931D01*
X0017017Y0052066D01*
X0016875Y0052198D01*
X0016730Y0052327D01*
X0016582Y0052452D01*
X0016431Y0052574D01*
X0016278Y0052692D01*
X0016121Y0052806D01*
X0015962Y0052916D01*
X0015800Y0053022D01*
X0015635Y0053125D01*
X0015468Y0053223D01*
X0015299Y0053318D01*
X0015255Y0053235D01*
X0015422Y0053141D01*
X0015587Y0053044D01*
X0015750Y0052943D01*
X0015910Y0052838D01*
X0016067Y0052729D01*
X0016222Y0052616D01*
X0016374Y0052500D01*
X0016523Y0052380D01*
X0016669Y0052256D01*
X0016812Y0052129D01*
X0016952Y0051998D01*
X0017088Y0051864D01*
X0017222Y0051727D01*
X0017352Y0051586D01*
X0017479Y0051443D01*
X0017602Y0051296D01*
X0017721Y0051146D01*
X0017837Y0050994D01*
X0017949Y0050839D01*
X0018057Y0050681D01*
X0018162Y0050520D01*
X0018262Y0050357D01*
X0018359Y0050192D01*
X0018451Y0050025D01*
X0018539Y0049855D01*
X0018624Y0049683D01*
X0018704Y0049509D01*
X0018779Y0049333D01*
X0018851Y0049155D01*
X0018918Y0048976D01*
X0018981Y0048795D01*
X0019039Y0048613D01*
X0019093Y0048429D01*
X0019143Y0048244D01*
X0019187Y0048058D01*
X0019228Y0047871D01*
X0019264Y0047683D01*
X0019295Y0047494D01*
X0019322Y0047305D01*
X0019344Y0047115D01*
X0019361Y0046924D01*
X0019374Y0046733D01*
X0019382Y0046542D01*
X0019386Y0046350D01*
X0019292Y0046350D01*
X0019288Y0046539D01*
X0019280Y0046728D01*
X0019268Y0046917D01*
X0019250Y0047105D01*
X0019228Y0047293D01*
X0019202Y0047480D01*
X0019171Y0047667D01*
X0019136Y0047853D01*
X0019096Y0048038D01*
X0019051Y0048222D01*
X0019002Y0048404D01*
X0018949Y0048586D01*
X0018892Y0048766D01*
X0018830Y0048944D01*
X0018763Y0049122D01*
X0018693Y0049297D01*
X0018618Y0049471D01*
X0018539Y0049643D01*
X0018455Y0049812D01*
X0018368Y0049980D01*
X0018277Y0050146D01*
X0018181Y0050309D01*
X0018082Y0050470D01*
X0017979Y0050629D01*
X0017872Y0050785D01*
X0017761Y0050938D01*
X0017647Y0051089D01*
X0017529Y0051236D01*
X0017407Y0051381D01*
X0017282Y0051523D01*
X0017154Y0051662D01*
X0017022Y0051797D01*
X0016887Y0051930D01*
X0016749Y0052059D01*
X0016607Y0052185D01*
X0016463Y0052307D01*
X0016316Y0052426D01*
X0016166Y0052541D01*
X0016013Y0052652D01*
X0015857Y0052760D01*
X0015699Y0052864D01*
X0015539Y0052964D01*
X0015376Y0053060D01*
X0015211Y0053152D01*
X0015166Y0053069D01*
X0015330Y0052978D01*
X0015491Y0052883D01*
X0015649Y0052784D01*
X0015805Y0052682D01*
X0015959Y0052575D01*
X0016110Y0052465D01*
X0016258Y0052351D01*
X0016404Y0052234D01*
X0016546Y0052113D01*
X0016686Y0051989D01*
X0016822Y0051862D01*
X0016956Y0051731D01*
X0017086Y0051597D01*
X0017213Y0051460D01*
X0017336Y0051320D01*
X0017456Y0051177D01*
X0017573Y0051031D01*
X0017686Y0050882D01*
X0017795Y0050730D01*
X0017901Y0050576D01*
X0018003Y0050420D01*
X0018101Y0050261D01*
X0018195Y0050099D01*
X0018285Y0049936D01*
X0018372Y0049770D01*
X0018454Y0049602D01*
X0018532Y0049433D01*
X0018606Y0049261D01*
X0018675Y0049088D01*
X0018741Y0048913D01*
X0018802Y0048736D01*
X0018859Y0048558D01*
X0018912Y0048379D01*
X0018960Y0048199D01*
X0019004Y0048017D01*
X0019044Y0047834D01*
X0019079Y0047651D01*
X0019109Y0047467D01*
X0019135Y0047282D01*
X0019157Y0047096D01*
X0019174Y0046910D01*
X0019186Y0046724D01*
X0019194Y0046537D01*
X0019198Y0046350D01*
X0019104Y0046350D01*
X0019100Y0046535D01*
X0019092Y0046719D01*
X0019080Y0046903D01*
X0019063Y0047087D01*
X0019042Y0047270D01*
X0019016Y0047453D01*
X0018986Y0047635D01*
X0018951Y0047816D01*
X0018912Y0047996D01*
X0018869Y0048176D01*
X0018821Y0048354D01*
X0018769Y0048531D01*
X0018713Y0048707D01*
X0018653Y0048881D01*
X0018588Y0049054D01*
X0018519Y0049225D01*
X0018446Y0049394D01*
X0018369Y0049562D01*
X0018288Y0049728D01*
X0018202Y0049891D01*
X0018113Y0050053D01*
X0018020Y0050212D01*
X0017923Y0050369D01*
X0017823Y0050524D01*
X0017718Y0050676D01*
X0017610Y0050826D01*
X0017499Y0050973D01*
X0017384Y0051117D01*
X0017265Y0051258D01*
X0017143Y0051397D01*
X0017018Y0051532D01*
X0016889Y0051664D01*
X0016757Y0051794D01*
X0016623Y0051920D01*
X0016485Y0052042D01*
X0016344Y0052161D01*
X0016200Y0052277D01*
X0016054Y0052390D01*
X0015905Y0052498D01*
X0015753Y0052603D01*
X0015599Y0052705D01*
X0015442Y0052802D01*
X0015283Y0052896D01*
X0015122Y0052986D01*
X0007265Y0053611D02*
X0007711Y0052830D01*
X0007554Y0052737D01*
X0007400Y0052640D01*
X0007248Y0052539D01*
X0007099Y0052434D01*
X0006952Y0052326D01*
X0006807Y0052215D01*
X0006666Y0052100D01*
X0006527Y0051981D01*
X0006392Y0051859D01*
X0006259Y0051734D01*
X0006129Y0051606D01*
X0006003Y0051475D01*
X0005879Y0051341D01*
X0005759Y0051204D01*
X0005642Y0051064D01*
X0005529Y0050921D01*
X0005419Y0050775D01*
X0005313Y0050627D01*
X0005210Y0050476D01*
X0005111Y0050323D01*
X0005016Y0050168D01*
X0004925Y0050010D01*
X0004837Y0049850D01*
X0004753Y0049688D01*
X0004673Y0049525D01*
X0004597Y0049359D01*
X0004526Y0049191D01*
X0004458Y0049022D01*
X0004394Y0048851D01*
X0004335Y0048679D01*
X0004279Y0048505D01*
X0004228Y0048330D01*
X0004181Y0048154D01*
X0004139Y0047977D01*
X0004100Y0047798D01*
X0004066Y0047619D01*
X0004036Y0047439D01*
X0004011Y0047259D01*
X0003990Y0047078D01*
X0003974Y0046896D01*
X0003961Y0046714D01*
X0003954Y0046532D01*
X0003950Y0046350D01*
X0003051Y0046349D01*
X0003050Y0046350D01*
X0003054Y0046554D01*
X0003062Y0046758D01*
X0003076Y0046962D01*
X0003094Y0047166D01*
X0003118Y0047369D01*
X0003146Y0047571D01*
X0003179Y0047773D01*
X0003217Y0047973D01*
X0003260Y0048173D01*
X0003308Y0048372D01*
X0003360Y0048569D01*
X0003418Y0048765D01*
X0003480Y0048960D01*
X0003546Y0049153D01*
X0003618Y0049345D01*
X0003694Y0049534D01*
X0003774Y0049722D01*
X0003859Y0049908D01*
X0003949Y0050092D01*
X0004042Y0050273D01*
X0004141Y0050452D01*
X0004243Y0050629D01*
X0004350Y0050803D01*
X0004461Y0050975D01*
X0004576Y0051144D01*
X0004695Y0051310D01*
X0004818Y0051473D01*
X0004945Y0051633D01*
X0005076Y0051790D01*
X0005211Y0051944D01*
X0005349Y0052094D01*
X0005491Y0052241D01*
X0005636Y0052385D01*
X0005785Y0052525D01*
X0005937Y0052661D01*
X0006093Y0052794D01*
X0006251Y0052922D01*
X0006413Y0053047D01*
X0006578Y0053168D01*
X0006745Y0053285D01*
X0006916Y0053398D01*
X0007089Y0053507D01*
X0007264Y0053612D01*
X0007311Y0053530D01*
X0007137Y0053427D01*
X0006966Y0053319D01*
X0006798Y0053207D01*
X0006632Y0053092D01*
X0006469Y0052972D01*
X0006310Y0052848D01*
X0006153Y0052721D01*
X0005999Y0052590D01*
X0005849Y0052455D01*
X0005701Y0052317D01*
X0005558Y0052175D01*
X0005417Y0052029D01*
X0005281Y0051881D01*
X0005148Y0051729D01*
X0005018Y0051573D01*
X0004893Y0051415D01*
X0004771Y0051254D01*
X0004653Y0051090D01*
X0004539Y0050923D01*
X0004430Y0050753D01*
X0004324Y0050581D01*
X0004223Y0050406D01*
X0004125Y0050229D01*
X0004033Y0050050D01*
X0003944Y0049868D01*
X0003860Y0049684D01*
X0003780Y0049499D01*
X0003705Y0049311D01*
X0003635Y0049122D01*
X0003569Y0048931D01*
X0003508Y0048738D01*
X0003451Y0048544D01*
X0003399Y0048349D01*
X0003352Y0048153D01*
X0003310Y0047955D01*
X0003272Y0047757D01*
X0003239Y0047557D01*
X0003211Y0047357D01*
X0003188Y0047156D01*
X0003170Y0046955D01*
X0003156Y0046754D01*
X0003148Y0046552D01*
X0003144Y0046350D01*
X0003238Y0046350D01*
X0003242Y0046549D01*
X0003250Y0046749D01*
X0003263Y0046948D01*
X0003282Y0047147D01*
X0003304Y0047346D01*
X0003332Y0047543D01*
X0003365Y0047741D01*
X0003402Y0047937D01*
X0003444Y0048132D01*
X0003490Y0048326D01*
X0003542Y0048519D01*
X0003598Y0048711D01*
X0003658Y0048901D01*
X0003723Y0049090D01*
X0003793Y0049277D01*
X0003867Y0049463D01*
X0003946Y0049646D01*
X0004029Y0049828D01*
X0004117Y0050008D01*
X0004208Y0050185D01*
X0004304Y0050360D01*
X0004405Y0050533D01*
X0004509Y0050703D01*
X0004618Y0050871D01*
X0004730Y0051036D01*
X0004846Y0051198D01*
X0004967Y0051357D01*
X0005091Y0051514D01*
X0005219Y0051667D01*
X0005350Y0051818D01*
X0005486Y0051965D01*
X0005624Y0052108D01*
X0005766Y0052249D01*
X0005912Y0052386D01*
X0006061Y0052519D01*
X0006213Y0052649D01*
X0006368Y0052775D01*
X0006526Y0052897D01*
X0006687Y0053015D01*
X0006850Y0053129D01*
X0007017Y0053240D01*
X0007186Y0053346D01*
X0007357Y0053448D01*
X0007404Y0053367D01*
X0007234Y0053266D01*
X0007067Y0053161D01*
X0006903Y0053051D01*
X0006741Y0052938D01*
X0006582Y0052821D01*
X0006426Y0052701D01*
X0006272Y0052576D01*
X0006122Y0052448D01*
X0005975Y0052316D01*
X0005831Y0052181D01*
X0005691Y0052042D01*
X0005554Y0051900D01*
X0005420Y0051755D01*
X0005290Y0051606D01*
X0005164Y0051454D01*
X0005041Y0051300D01*
X0004922Y0051142D01*
X0004807Y0050982D01*
X0004696Y0050819D01*
X0004589Y0050653D01*
X0004485Y0050485D01*
X0004386Y0050314D01*
X0004291Y0050141D01*
X0004201Y0049965D01*
X0004114Y0049788D01*
X0004032Y0049608D01*
X0003954Y0049427D01*
X0003881Y0049244D01*
X0003812Y0049059D01*
X0003748Y0048872D01*
X0003688Y0048684D01*
X0003632Y0048494D01*
X0003582Y0048304D01*
X0003535Y0048112D01*
X0003494Y0047919D01*
X0003457Y0047725D01*
X0003425Y0047530D01*
X0003398Y0047334D01*
X0003375Y0047138D01*
X0003357Y0046941D01*
X0003344Y0046744D01*
X0003336Y0046547D01*
X0003332Y0046350D01*
X0003426Y0046350D01*
X0003430Y0046545D01*
X0003438Y0046740D01*
X0003451Y0046935D01*
X0003469Y0047129D01*
X0003491Y0047323D01*
X0003518Y0047516D01*
X0003550Y0047709D01*
X0003586Y0047900D01*
X0003627Y0048091D01*
X0003673Y0048281D01*
X0003723Y0048469D01*
X0003778Y0048657D01*
X0003837Y0048843D01*
X0003900Y0049027D01*
X0003969Y0049210D01*
X0004041Y0049391D01*
X0004118Y0049570D01*
X0004199Y0049748D01*
X0004285Y0049923D01*
X0004374Y0050097D01*
X0004468Y0050268D01*
X0004566Y0050436D01*
X0004668Y0050603D01*
X0004774Y0050767D01*
X0004884Y0050928D01*
X0004998Y0051086D01*
X0005115Y0051242D01*
X0005237Y0051395D01*
X0005362Y0051545D01*
X0005490Y0051692D01*
X0005622Y0051835D01*
X0005758Y0051976D01*
X0005897Y0052113D01*
X0006039Y0052247D01*
X0006184Y0052377D01*
X0006332Y0052504D01*
X0006484Y0052627D01*
X0006638Y0052746D01*
X0006795Y0052862D01*
X0006955Y0052973D01*
X0007118Y0053081D01*
X0007283Y0053185D01*
X0007451Y0053285D01*
X0007497Y0053204D01*
X0007332Y0053105D01*
X0007168Y0053002D01*
X0007008Y0052895D01*
X0006850Y0052785D01*
X0006694Y0052671D01*
X0006542Y0052553D01*
X0006392Y0052431D01*
X0006246Y0052306D01*
X0006102Y0052177D01*
X0005962Y0052045D01*
X0005824Y0051910D01*
X0005690Y0051771D01*
X0005560Y0051629D01*
X0005433Y0051484D01*
X0005309Y0051336D01*
X0005190Y0051185D01*
X0005073Y0051031D01*
X0004961Y0050874D01*
X0004852Y0050715D01*
X0004748Y0050553D01*
X0004647Y0050388D01*
X0004550Y0050222D01*
X0004457Y0050052D01*
X0004369Y0049881D01*
X0004284Y0049708D01*
X0004204Y0049532D01*
X0004128Y0049355D01*
X0004056Y0049176D01*
X0003989Y0048995D01*
X0003926Y0048813D01*
X0003868Y0048629D01*
X0003814Y0048444D01*
X0003764Y0048258D01*
X0003719Y0048070D01*
X0003678Y0047882D01*
X0003642Y0047693D01*
X0003611Y0047502D01*
X0003584Y0047311D01*
X0003562Y0047120D01*
X0003545Y0046928D01*
X0003532Y0046735D01*
X0003524Y0046543D01*
X0003520Y0046350D01*
X0003614Y0046350D01*
X0003618Y0046540D01*
X0003626Y0046731D01*
X0003638Y0046921D01*
X0003656Y0047111D01*
X0003678Y0047300D01*
X0003704Y0047488D01*
X0003735Y0047676D01*
X0003771Y0047864D01*
X0003811Y0048050D01*
X0003855Y0048235D01*
X0003904Y0048419D01*
X0003958Y0048602D01*
X0004015Y0048784D01*
X0004078Y0048964D01*
X0004144Y0049142D01*
X0004215Y0049319D01*
X0004290Y0049494D01*
X0004369Y0049668D01*
X0004453Y0049839D01*
X0004540Y0050008D01*
X0004632Y0050175D01*
X0004728Y0050340D01*
X0004827Y0050503D01*
X0004931Y0050663D01*
X0005038Y0050820D01*
X0005149Y0050975D01*
X0005264Y0051127D01*
X0005382Y0051276D01*
X0005504Y0051422D01*
X0005630Y0051566D01*
X0005759Y0051706D01*
X0005891Y0051843D01*
X0006027Y0051977D01*
X0006165Y0052108D01*
X0006307Y0052235D01*
X0006452Y0052359D01*
X0006600Y0052479D01*
X0006751Y0052595D01*
X0006904Y0052708D01*
X0007060Y0052817D01*
X0007219Y0052923D01*
X0007380Y0053024D01*
X0007544Y0053122D01*
X0007591Y0053040D01*
X0007429Y0052944D01*
X0007270Y0052844D01*
X0007113Y0052740D01*
X0006958Y0052632D01*
X0006807Y0052520D01*
X0006658Y0052405D01*
X0006512Y0052286D01*
X0006369Y0052164D01*
X0006229Y0052038D01*
X0006092Y0051909D01*
X0005958Y0051777D01*
X0005827Y0051641D01*
X0005700Y0051503D01*
X0005576Y0051361D01*
X0005455Y0051217D01*
X0005338Y0051069D01*
X0005225Y0050919D01*
X0005115Y0050766D01*
X0005009Y0050610D01*
X0004907Y0050452D01*
X0004808Y0050292D01*
X0004714Y0050129D01*
X0004623Y0049964D01*
X0004537Y0049797D01*
X0004454Y0049628D01*
X0004376Y0049457D01*
X0004302Y0049284D01*
X0004232Y0049109D01*
X0004166Y0048932D01*
X0004105Y0048754D01*
X0004048Y0048575D01*
X0003995Y0048394D01*
X0003946Y0048212D01*
X0003902Y0048029D01*
X0003863Y0047845D01*
X0003828Y0047660D01*
X0003797Y0047475D01*
X0003771Y0047288D01*
X0003749Y0047101D01*
X0003732Y0046914D01*
X0003720Y0046726D01*
X0003712Y0046538D01*
X0003708Y0046350D01*
X0003802Y0046350D01*
X0003806Y0046536D01*
X0003814Y0046721D01*
X0003826Y0046907D01*
X0003843Y0047092D01*
X0003864Y0047277D01*
X0003890Y0047461D01*
X0003920Y0047644D01*
X0003955Y0047827D01*
X0003994Y0048009D01*
X0004038Y0048190D01*
X0004085Y0048369D01*
X0004138Y0048548D01*
X0004194Y0048725D01*
X0004255Y0048901D01*
X0004320Y0049075D01*
X0004389Y0049248D01*
X0004462Y0049419D01*
X0004539Y0049588D01*
X0004621Y0049755D01*
X0004706Y0049920D01*
X0004796Y0050083D01*
X0004889Y0050244D01*
X0004986Y0050402D01*
X0005087Y0050558D01*
X0005192Y0050712D01*
X0005300Y0050863D01*
X0005412Y0051012D01*
X0005528Y0051157D01*
X0005647Y0051300D01*
X0005769Y0051440D01*
X0005895Y0051577D01*
X0006024Y0051711D01*
X0006157Y0051841D01*
X0006292Y0051969D01*
X0006430Y0052093D01*
X0006572Y0052214D01*
X0006716Y0052331D01*
X0006863Y0052445D01*
X0007013Y0052555D01*
X0007165Y0052662D01*
X0007320Y0052764D01*
X0007478Y0052863D01*
X0007637Y0052959D01*
X0007684Y0052877D01*
X0007526Y0052783D01*
X0007371Y0052685D01*
X0007218Y0052584D01*
X0007067Y0052478D01*
X0006919Y0052369D01*
X0006774Y0052257D01*
X0006632Y0052141D01*
X0006492Y0052022D01*
X0006355Y0051899D01*
X0006222Y0051773D01*
X0006091Y0051644D01*
X0005963Y0051512D01*
X0005839Y0051377D01*
X0005718Y0051239D01*
X0005601Y0051098D01*
X0005487Y0050954D01*
X0005376Y0050807D01*
X0005269Y0050658D01*
X0005165Y0050506D01*
X0005066Y0050352D01*
X0004970Y0050196D01*
X0004878Y0050037D01*
X0004789Y0049876D01*
X0004705Y0049713D01*
X0004624Y0049548D01*
X0004548Y0049381D01*
X0004476Y0049212D01*
X0004407Y0049041D01*
X0004343Y0048869D01*
X0004283Y0048696D01*
X0004227Y0048521D01*
X0004176Y0048344D01*
X0004129Y0048167D01*
X0004086Y0047988D01*
X0004047Y0047809D01*
X0004013Y0047628D01*
X0003983Y0047447D01*
X0003958Y0047265D01*
X0003936Y0047083D01*
X0003920Y0046900D01*
X0003907Y0046717D01*
X0003900Y0046533D01*
X0003896Y0046350D01*
X0003051Y0046251D02*
X0003951Y0046251D01*
X0003950Y0046250D02*
X0003954Y0046066D01*
X0003962Y0045881D01*
X0003974Y0045697D01*
X0003991Y0045514D01*
X0004013Y0045330D01*
X0004038Y0045148D01*
X0004069Y0044966D01*
X0004104Y0044785D01*
X0004143Y0044604D01*
X0004187Y0044425D01*
X0004235Y0044247D01*
X0004287Y0044070D01*
X0004344Y0043894D01*
X0004404Y0043720D01*
X0004470Y0043548D01*
X0004539Y0043377D01*
X0004612Y0043207D01*
X0004690Y0043040D01*
X0004772Y0042875D01*
X0004857Y0042711D01*
X0004947Y0042550D01*
X0005041Y0042391D01*
X0005138Y0042234D01*
X0005239Y0042080D01*
X0005344Y0041928D01*
X0005453Y0041779D01*
X0005565Y0041633D01*
X0005681Y0041489D01*
X0005800Y0041349D01*
X0005923Y0041211D01*
X0006049Y0041076D01*
X0006178Y0040944D01*
X0006311Y0040816D01*
X0006446Y0040691D01*
X0006585Y0040569D01*
X0006004Y0039882D01*
X0005848Y0040018D01*
X0005696Y0040159D01*
X0005547Y0040303D01*
X0005402Y0040450D01*
X0005261Y0040601D01*
X0005124Y0040755D01*
X0004990Y0040913D01*
X0004860Y0041074D01*
X0004734Y0041238D01*
X0004612Y0041405D01*
X0004494Y0041575D01*
X0004381Y0041748D01*
X0004272Y0041924D01*
X0004167Y0042102D01*
X0004066Y0042283D01*
X0003970Y0042466D01*
X0003878Y0042651D01*
X0003791Y0042839D01*
X0003709Y0043029D01*
X0003631Y0043220D01*
X0003558Y0043414D01*
X0003490Y0043609D01*
X0003426Y0043806D01*
X0003368Y0044004D01*
X0003314Y0044204D01*
X0003265Y0044405D01*
X0003221Y0044607D01*
X0003182Y0044810D01*
X0003148Y0045014D01*
X0003119Y0045219D01*
X0003095Y0045424D01*
X0003077Y0045630D01*
X0003063Y0045837D01*
X0003054Y0046043D01*
X0003050Y0046250D01*
X0003144Y0046250D01*
X0003148Y0046046D01*
X0003157Y0045841D01*
X0003170Y0045637D01*
X0003189Y0045434D01*
X0003213Y0045231D01*
X0003241Y0045028D01*
X0003275Y0044826D01*
X0003313Y0044626D01*
X0003357Y0044426D01*
X0003405Y0044227D01*
X0003458Y0044030D01*
X0003516Y0043833D01*
X0003579Y0043639D01*
X0003647Y0043446D01*
X0003719Y0043254D01*
X0003796Y0043065D01*
X0003877Y0042877D01*
X0003963Y0042692D01*
X0004054Y0042509D01*
X0004149Y0042327D01*
X0004248Y0042149D01*
X0004352Y0041973D01*
X0004460Y0041799D01*
X0004572Y0041628D01*
X0004689Y0041460D01*
X0004809Y0041295D01*
X0004934Y0041132D01*
X0005062Y0040973D01*
X0005194Y0040817D01*
X0005330Y0040665D01*
X0005470Y0040515D01*
X0005613Y0040370D01*
X0005760Y0040227D01*
X0005911Y0040089D01*
X0006064Y0039954D01*
X0006125Y0040025D01*
X0005973Y0040159D01*
X0005824Y0040296D01*
X0005679Y0040437D01*
X0005538Y0040581D01*
X0005399Y0040728D01*
X0005265Y0040879D01*
X0005134Y0041033D01*
X0005007Y0041191D01*
X0004884Y0041351D01*
X0004765Y0041515D01*
X0004650Y0041681D01*
X0004539Y0041850D01*
X0004432Y0042021D01*
X0004330Y0042196D01*
X0004231Y0042372D01*
X0004137Y0042551D01*
X0004048Y0042733D01*
X0003963Y0042916D01*
X0003882Y0043101D01*
X0003806Y0043289D01*
X0003735Y0043478D01*
X0003668Y0043669D01*
X0003606Y0043861D01*
X0003549Y0044055D01*
X0003496Y0044250D01*
X0003449Y0044447D01*
X0003406Y0044644D01*
X0003368Y0044843D01*
X0003334Y0045042D01*
X0003306Y0045242D01*
X0003283Y0045443D01*
X0003264Y0045644D01*
X0003250Y0045846D01*
X0003242Y0046048D01*
X0003238Y0046250D01*
X0003332Y0046250D01*
X0003336Y0046050D01*
X0003344Y0045851D01*
X0003358Y0045651D01*
X0003376Y0045452D01*
X0003399Y0045254D01*
X0003427Y0045056D01*
X0003460Y0044859D01*
X0003498Y0044663D01*
X0003540Y0044467D01*
X0003587Y0044273D01*
X0003639Y0044080D01*
X0003696Y0043889D01*
X0003757Y0043698D01*
X0003823Y0043510D01*
X0003894Y0043323D01*
X0003969Y0043138D01*
X0004049Y0042954D01*
X0004133Y0042773D01*
X0004221Y0042594D01*
X0004314Y0042417D01*
X0004411Y0042242D01*
X0004513Y0042070D01*
X0004618Y0041901D01*
X0004728Y0041733D01*
X0004842Y0041569D01*
X0004959Y0041408D01*
X0005081Y0041249D01*
X0005206Y0041094D01*
X0005336Y0040941D01*
X0005469Y0040792D01*
X0005605Y0040646D01*
X0005745Y0040504D01*
X0005889Y0040365D01*
X0006036Y0040229D01*
X0006186Y0040097D01*
X0006246Y0040169D01*
X0006098Y0040299D01*
X0005953Y0040433D01*
X0005811Y0040571D01*
X0005673Y0040712D01*
X0005538Y0040856D01*
X0005406Y0041003D01*
X0005279Y0041154D01*
X0005155Y0041308D01*
X0005034Y0041464D01*
X0004918Y0041624D01*
X0004806Y0041786D01*
X0004697Y0041951D01*
X0004593Y0042119D01*
X0004493Y0042289D01*
X0004397Y0042462D01*
X0004305Y0042637D01*
X0004217Y0042814D01*
X0004134Y0042993D01*
X0004056Y0043174D01*
X0003981Y0043357D01*
X0003912Y0043542D01*
X0003847Y0043728D01*
X0003786Y0043916D01*
X0003730Y0044106D01*
X0003679Y0044296D01*
X0003632Y0044488D01*
X0003590Y0044681D01*
X0003553Y0044875D01*
X0003520Y0045070D01*
X0003493Y0045266D01*
X0003470Y0045462D01*
X0003452Y0045658D01*
X0003438Y0045855D01*
X0003430Y0046053D01*
X0003426Y0046250D01*
X0003520Y0046250D01*
X0003524Y0046055D01*
X0003532Y0045860D01*
X0003545Y0045665D01*
X0003563Y0045471D01*
X0003586Y0045277D01*
X0003613Y0045084D01*
X0003645Y0044891D01*
X0003682Y0044700D01*
X0003724Y0044509D01*
X0003770Y0044319D01*
X0003820Y0044131D01*
X0003876Y0043944D01*
X0003936Y0043758D01*
X0004000Y0043574D01*
X0004069Y0043391D01*
X0004142Y0043210D01*
X0004220Y0043031D01*
X0004302Y0042854D01*
X0004389Y0042679D01*
X0004479Y0042507D01*
X0004574Y0042336D01*
X0004673Y0042168D01*
X0004776Y0042002D01*
X0004883Y0041839D01*
X0004994Y0041678D01*
X0005109Y0041521D01*
X0005228Y0041366D01*
X0005351Y0041214D01*
X0005477Y0041065D01*
X0005607Y0040919D01*
X0005740Y0040777D01*
X0005877Y0040638D01*
X0006017Y0040502D01*
X0006161Y0040370D01*
X0006307Y0040241D01*
X0006368Y0040313D01*
X0006223Y0040440D01*
X0006081Y0040571D01*
X0005943Y0040705D01*
X0005808Y0040842D01*
X0005676Y0040983D01*
X0005548Y0041127D01*
X0005423Y0041274D01*
X0005302Y0041424D01*
X0005185Y0041577D01*
X0005071Y0041733D01*
X0004961Y0041892D01*
X0004855Y0042053D01*
X0004754Y0042217D01*
X0004656Y0042383D01*
X0004562Y0042551D01*
X0004472Y0042722D01*
X0004387Y0042895D01*
X0004306Y0043070D01*
X0004229Y0043247D01*
X0004157Y0043425D01*
X0004088Y0043606D01*
X0004025Y0043788D01*
X0003966Y0043971D01*
X0003911Y0044156D01*
X0003861Y0044342D01*
X0003815Y0044530D01*
X0003774Y0044718D01*
X0003738Y0044908D01*
X0003706Y0045098D01*
X0003679Y0045289D01*
X0003657Y0045480D01*
X0003639Y0045672D01*
X0003626Y0045865D01*
X0003618Y0046057D01*
X0003614Y0046250D01*
X0003708Y0046250D01*
X0003712Y0046060D01*
X0003720Y0045869D01*
X0003733Y0045679D01*
X0003750Y0045490D01*
X0003772Y0045300D01*
X0003799Y0045112D01*
X0003830Y0044924D01*
X0003866Y0044737D01*
X0003907Y0044551D01*
X0003952Y0044366D01*
X0004001Y0044182D01*
X0004056Y0043999D01*
X0004114Y0043818D01*
X0004177Y0043638D01*
X0004244Y0043460D01*
X0004316Y0043283D01*
X0004392Y0043108D01*
X0004472Y0042936D01*
X0004556Y0042765D01*
X0004645Y0042596D01*
X0004737Y0042430D01*
X0004834Y0042265D01*
X0004934Y0042104D01*
X0005039Y0041944D01*
X0005147Y0041788D01*
X0005260Y0041634D01*
X0005376Y0041483D01*
X0005495Y0041334D01*
X0005618Y0041189D01*
X0005745Y0041047D01*
X0005875Y0040908D01*
X0006009Y0040772D01*
X0006145Y0040639D01*
X0006285Y0040510D01*
X0006429Y0040384D01*
X0006489Y0040456D01*
X0006348Y0040580D01*
X0006210Y0040708D01*
X0006075Y0040839D01*
X0005943Y0040973D01*
X0005814Y0041110D01*
X0005689Y0041251D01*
X0005567Y0041395D01*
X0005449Y0041541D01*
X0005335Y0041690D01*
X0005224Y0041842D01*
X0005117Y0041997D01*
X0005014Y0042154D01*
X0004914Y0042314D01*
X0004819Y0042476D01*
X0004727Y0042641D01*
X0004640Y0042807D01*
X0004557Y0042976D01*
X0004477Y0043147D01*
X0004402Y0043319D01*
X0004332Y0043494D01*
X0004265Y0043670D01*
X0004203Y0043847D01*
X0004145Y0044027D01*
X0004092Y0044207D01*
X0004043Y0044389D01*
X0003999Y0044571D01*
X0003959Y0044755D01*
X0003923Y0044940D01*
X0003892Y0045126D01*
X0003866Y0045312D01*
X0003844Y0045499D01*
X0003827Y0045686D01*
X0003814Y0045874D01*
X0003806Y0046062D01*
X0003802Y0046250D01*
X0003896Y0046250D01*
X0003900Y0046064D01*
X0003908Y0045879D01*
X0003920Y0045693D01*
X0003937Y0045508D01*
X0003959Y0045324D01*
X0003985Y0045140D01*
X0004016Y0044956D01*
X0004051Y0044774D01*
X0004090Y0044592D01*
X0004134Y0044412D01*
X0004183Y0044232D01*
X0004235Y0044054D01*
X0004292Y0043877D01*
X0004354Y0043702D01*
X0004419Y0043528D01*
X0004489Y0043356D01*
X0004563Y0043185D01*
X0004641Y0043017D01*
X0004724Y0042850D01*
X0004810Y0042686D01*
X0004900Y0042523D01*
X0004995Y0042363D01*
X0005093Y0042205D01*
X0005195Y0042050D01*
X0005300Y0041897D01*
X0005410Y0041747D01*
X0005523Y0041599D01*
X0005640Y0041455D01*
X0005760Y0041313D01*
X0005883Y0041174D01*
X0006010Y0041038D01*
X0006140Y0040906D01*
X0006274Y0040777D01*
X0006410Y0040650D01*
X0006550Y0040528D01*
X0016948Y0039841D02*
X0016371Y0040533D01*
X0016372Y0040532D02*
X0016509Y0040651D01*
X0016643Y0040772D01*
X0016774Y0040897D01*
X0016902Y0041025D01*
X0017026Y0041156D01*
X0017148Y0041290D01*
X0017267Y0041427D01*
X0017382Y0041566D01*
X0017493Y0041709D01*
X0017602Y0041854D01*
X0017707Y0042001D01*
X0017808Y0042151D01*
X0017905Y0042303D01*
X0017999Y0042458D01*
X0018090Y0042615D01*
X0018176Y0042774D01*
X0018259Y0042935D01*
X0018337Y0043098D01*
X0018412Y0043263D01*
X0018483Y0043429D01*
X0018550Y0043597D01*
X0018612Y0043767D01*
X0018671Y0043938D01*
X0018726Y0044111D01*
X0018776Y0044284D01*
X0018822Y0044459D01*
X0018864Y0044635D01*
X0018902Y0044812D01*
X0018935Y0044990D01*
X0018965Y0045169D01*
X0018990Y0045348D01*
X0019010Y0045528D01*
X0019027Y0045708D01*
X0019039Y0045888D01*
X0019046Y0046069D01*
X0019050Y0046250D01*
X0019949Y0046251D01*
X0019950Y0046250D01*
X0019946Y0046047D01*
X0019938Y0045845D01*
X0019924Y0045642D01*
X0019906Y0045440D01*
X0019883Y0045239D01*
X0019855Y0045038D01*
X0019822Y0044838D01*
X0019785Y0044638D01*
X0019743Y0044440D01*
X0019696Y0044242D01*
X0019644Y0044046D01*
X0019587Y0043852D01*
X0019526Y0043658D01*
X0019461Y0043466D01*
X0019390Y0043276D01*
X0019315Y0043087D01*
X0019236Y0042901D01*
X0019152Y0042716D01*
X0019064Y0042533D01*
X0018971Y0042353D01*
X0018875Y0042175D01*
X0018773Y0041999D01*
X0018668Y0041826D01*
X0018559Y0041655D01*
X0018445Y0041487D01*
X0018328Y0041321D01*
X0018206Y0041159D01*
X0018081Y0040999D01*
X0017952Y0040843D01*
X0017819Y0040690D01*
X0017682Y0040540D01*
X0017542Y0040393D01*
X0017399Y0040250D01*
X0017252Y0040110D01*
X0017102Y0039973D01*
X0016948Y0039841D01*
X0016888Y0039913D01*
X0017040Y0040044D01*
X0017188Y0040179D01*
X0017333Y0040317D01*
X0017475Y0040459D01*
X0017614Y0040604D01*
X0017749Y0040752D01*
X0017880Y0040904D01*
X0018008Y0041059D01*
X0018132Y0041216D01*
X0018252Y0041377D01*
X0018368Y0041540D01*
X0018480Y0041707D01*
X0018588Y0041875D01*
X0018693Y0042047D01*
X0018793Y0042221D01*
X0018888Y0042397D01*
X0018980Y0042575D01*
X0019067Y0042756D01*
X0019150Y0042939D01*
X0019229Y0043123D01*
X0019303Y0043309D01*
X0019372Y0043498D01*
X0019437Y0043687D01*
X0019497Y0043879D01*
X0019553Y0044071D01*
X0019604Y0044265D01*
X0019651Y0044460D01*
X0019693Y0044656D01*
X0019730Y0044853D01*
X0019762Y0045051D01*
X0019790Y0045250D01*
X0019813Y0045449D01*
X0019831Y0045649D01*
X0019844Y0045849D01*
X0019852Y0046050D01*
X0019856Y0046250D01*
X0019762Y0046250D01*
X0019758Y0046052D01*
X0019750Y0045854D01*
X0019737Y0045656D01*
X0019719Y0045458D01*
X0019696Y0045261D01*
X0019669Y0045065D01*
X0019637Y0044869D01*
X0019601Y0044675D01*
X0019559Y0044481D01*
X0019513Y0044288D01*
X0019463Y0044096D01*
X0019407Y0043906D01*
X0019348Y0043717D01*
X0019283Y0043529D01*
X0019215Y0043343D01*
X0019142Y0043159D01*
X0019064Y0042976D01*
X0018982Y0042796D01*
X0018896Y0042617D01*
X0018805Y0042441D01*
X0018711Y0042267D01*
X0018612Y0042095D01*
X0018509Y0041925D01*
X0018402Y0041758D01*
X0018291Y0041594D01*
X0018176Y0041433D01*
X0018057Y0041274D01*
X0017935Y0041118D01*
X0017809Y0040965D01*
X0017679Y0040815D01*
X0017545Y0040668D01*
X0017408Y0040525D01*
X0017268Y0040385D01*
X0017125Y0040248D01*
X0016978Y0040115D01*
X0016828Y0039985D01*
X0016768Y0040057D01*
X0016916Y0040186D01*
X0017061Y0040317D01*
X0017203Y0040452D01*
X0017341Y0040591D01*
X0017477Y0040733D01*
X0017609Y0040878D01*
X0017737Y0041026D01*
X0017862Y0041177D01*
X0017983Y0041331D01*
X0018100Y0041488D01*
X0018214Y0041648D01*
X0018323Y0041810D01*
X0018429Y0041975D01*
X0018531Y0042143D01*
X0018629Y0042313D01*
X0018722Y0042485D01*
X0018812Y0042659D01*
X0018897Y0042836D01*
X0018978Y0043014D01*
X0019055Y0043194D01*
X0019127Y0043377D01*
X0019195Y0043560D01*
X0019258Y0043746D01*
X0019317Y0043933D01*
X0019372Y0044121D01*
X0019422Y0044310D01*
X0019467Y0044501D01*
X0019508Y0044693D01*
X0019545Y0044885D01*
X0019576Y0045079D01*
X0019603Y0045273D01*
X0019625Y0045468D01*
X0019643Y0045663D01*
X0019656Y0045858D01*
X0019664Y0046054D01*
X0019668Y0046250D01*
X0019574Y0046250D01*
X0019570Y0046056D01*
X0019562Y0045863D01*
X0019549Y0045670D01*
X0019532Y0045477D01*
X0019510Y0045284D01*
X0019483Y0045092D01*
X0019452Y0044901D01*
X0019416Y0044711D01*
X0019376Y0044521D01*
X0019331Y0044333D01*
X0019281Y0044146D01*
X0019227Y0043960D01*
X0019169Y0043775D01*
X0019106Y0043592D01*
X0019039Y0043410D01*
X0018968Y0043230D01*
X0018892Y0043052D01*
X0018812Y0042875D01*
X0018728Y0042701D01*
X0018639Y0042529D01*
X0018547Y0042359D01*
X0018450Y0042191D01*
X0018349Y0042025D01*
X0018245Y0041862D01*
X0018137Y0041702D01*
X0018024Y0041544D01*
X0017908Y0041389D01*
X0017789Y0041236D01*
X0017665Y0041087D01*
X0017539Y0040940D01*
X0017408Y0040797D01*
X0017275Y0040657D01*
X0017138Y0040520D01*
X0016997Y0040387D01*
X0016854Y0040256D01*
X0016707Y0040130D01*
X0016647Y0040202D01*
X0016792Y0040327D01*
X0016934Y0040456D01*
X0017072Y0040588D01*
X0017208Y0040723D01*
X0017340Y0040862D01*
X0017469Y0041003D01*
X0017594Y0041148D01*
X0017716Y0041295D01*
X0017834Y0041446D01*
X0017949Y0041599D01*
X0018059Y0041755D01*
X0018167Y0041914D01*
X0018270Y0042075D01*
X0018369Y0042239D01*
X0018465Y0042405D01*
X0018556Y0042573D01*
X0018643Y0042743D01*
X0018727Y0042915D01*
X0018806Y0043090D01*
X0018881Y0043266D01*
X0018951Y0043444D01*
X0019018Y0043623D01*
X0019080Y0043804D01*
X0019137Y0043987D01*
X0019191Y0044171D01*
X0019240Y0044356D01*
X0019284Y0044542D01*
X0019324Y0044729D01*
X0019359Y0044917D01*
X0019390Y0045106D01*
X0019417Y0045296D01*
X0019438Y0045486D01*
X0019456Y0045676D01*
X0019468Y0045867D01*
X0019476Y0046059D01*
X0019480Y0046250D01*
X0019386Y0046250D01*
X0019382Y0046061D01*
X0019374Y0045872D01*
X0019362Y0045683D01*
X0019345Y0045495D01*
X0019323Y0045307D01*
X0019297Y0045120D01*
X0019267Y0044933D01*
X0019232Y0044747D01*
X0019192Y0044562D01*
X0019148Y0044378D01*
X0019100Y0044196D01*
X0019047Y0044014D01*
X0018990Y0043834D01*
X0018929Y0043655D01*
X0018863Y0043477D01*
X0018794Y0043301D01*
X0018720Y0043127D01*
X0018642Y0042955D01*
X0018559Y0042785D01*
X0018473Y0042617D01*
X0018383Y0042451D01*
X0018288Y0042287D01*
X0018190Y0042125D01*
X0018088Y0041966D01*
X0017982Y0041809D01*
X0017873Y0041655D01*
X0017759Y0041503D01*
X0017643Y0041355D01*
X0017522Y0041209D01*
X0017399Y0041066D01*
X0017271Y0040926D01*
X0017141Y0040789D01*
X0017007Y0040655D01*
X0016870Y0040525D01*
X0016730Y0040398D01*
X0016587Y0040274D01*
X0016527Y0040346D01*
X0016668Y0040469D01*
X0016806Y0040594D01*
X0016942Y0040723D01*
X0017074Y0040855D01*
X0017203Y0040990D01*
X0017328Y0041129D01*
X0017451Y0041270D01*
X0017570Y0041414D01*
X0017685Y0041561D01*
X0017797Y0041710D01*
X0017905Y0041863D01*
X0018010Y0042018D01*
X0018110Y0042175D01*
X0018207Y0042335D01*
X0018301Y0042496D01*
X0018390Y0042661D01*
X0018475Y0042827D01*
X0018556Y0042995D01*
X0018634Y0043165D01*
X0018707Y0043337D01*
X0018776Y0043511D01*
X0018840Y0043686D01*
X0018901Y0043863D01*
X0018957Y0044041D01*
X0019009Y0044220D01*
X0019057Y0044401D01*
X0019100Y0044583D01*
X0019139Y0044765D01*
X0019174Y0044949D01*
X0019204Y0045133D01*
X0019230Y0045318D01*
X0019251Y0045504D01*
X0019268Y0045690D01*
X0019280Y0045877D01*
X0019288Y0046063D01*
X0019292Y0046250D01*
X0019198Y0046250D01*
X0019194Y0046066D01*
X0019187Y0045881D01*
X0019174Y0045697D01*
X0019158Y0045513D01*
X0019137Y0045330D01*
X0019111Y0045147D01*
X0019081Y0044965D01*
X0019047Y0044784D01*
X0019009Y0044603D01*
X0018966Y0044424D01*
X0018919Y0044245D01*
X0018867Y0044068D01*
X0018812Y0043892D01*
X0018752Y0043717D01*
X0018688Y0043544D01*
X0018620Y0043373D01*
X0018548Y0043203D01*
X0018471Y0043035D01*
X0018391Y0042869D01*
X0018307Y0042705D01*
X0018219Y0042542D01*
X0018127Y0042382D01*
X0018031Y0042225D01*
X0017931Y0042069D01*
X0017828Y0041916D01*
X0017721Y0041766D01*
X0017611Y0041618D01*
X0017497Y0041473D01*
X0017379Y0041331D01*
X0017258Y0041191D01*
X0017134Y0041055D01*
X0017007Y0040921D01*
X0016876Y0040791D01*
X0016743Y0040663D01*
X0016606Y0040539D01*
X0016467Y0040419D01*
X0016406Y0040491D01*
X0016544Y0040610D01*
X0016679Y0040733D01*
X0016811Y0040858D01*
X0016940Y0040987D01*
X0017066Y0041119D01*
X0017188Y0041254D01*
X0017308Y0041392D01*
X0017424Y0041532D01*
X0017536Y0041676D01*
X0017645Y0041822D01*
X0017751Y0041970D01*
X0017853Y0042121D01*
X0017951Y0042275D01*
X0018046Y0042430D01*
X0018137Y0042588D01*
X0018224Y0042749D01*
X0018307Y0042911D01*
X0018386Y0043075D01*
X0018461Y0043241D01*
X0018533Y0043409D01*
X0018600Y0043578D01*
X0018663Y0043749D01*
X0018722Y0043921D01*
X0018777Y0044095D01*
X0018828Y0044270D01*
X0018875Y0044446D01*
X0018917Y0044624D01*
X0018955Y0044802D01*
X0018989Y0044981D01*
X0019018Y0045161D01*
X0019043Y0045341D01*
X0019064Y0045522D01*
X0019081Y0045704D01*
X0019093Y0045886D01*
X0019100Y0046068D01*
X0019104Y0046250D01*
D13*
X0089000Y0037375D02*
X0094000Y0037375D01*
X0029000Y0115225D02*
X0024000Y0115225D01*
M02*
