%
M48
M72
T01C0.03200
T02C0.03800
T03C0.04000
T04C0.12598
%
T01
X144700Y54700
X154700Y54700
X167200Y54700
X177200Y54700
X174700Y69700
X174700Y79700
X174700Y89700
X174700Y99700
X177200Y119700
X167200Y119700
X167200Y139700
X177200Y139700
X172200Y154700
X172200Y164700
X154700Y139700
X144700Y139700
X144700Y99700
X144700Y89700
X144700Y79700
X144700Y69700
X104700Y202200
X94700Y202200
T02
X69700Y82200
X69700Y92200
X69700Y102200
X69700Y112200
X69700Y122200
X69700Y132200
X69700Y142200
X69700Y152200
X69700Y162200
X69700Y172200
X69700Y182200
X69700Y192200
X69700Y202200
X69700Y212200
X129700Y212200
X129700Y202200
X129700Y192200
X129700Y182200
X129700Y172200
X129700Y162200
X129700Y152200
X129700Y142200
X129700Y132200
X129700Y122200
X129700Y112200
X129700Y102200
X129700Y92200
X129700Y82200
T03
X57200Y24700
X57200Y34700
X67200Y34700
X67200Y24700
X77200Y24700
X77200Y34700
X87200Y34700
X87200Y24700
X97200Y24700
X97200Y34700
X142200Y34700
X142200Y24700
X152200Y24700
X152200Y34700
X162200Y34700
X162200Y24700
X34700Y72200
X34700Y82200
X34700Y92200
X34700Y102200
X34700Y112200
X24700Y112200
X24700Y102200
X24700Y92200
X24700Y82200
X24700Y72200
X24700Y157200
X24700Y167200
X24700Y177200
X24700Y187200
X24700Y197200
X34700Y197200
X34700Y187200
X34700Y177200
X34700Y167200
X34700Y157200
X174700Y182200
X174700Y192200
T04
X19011Y19011
X175310Y211590
M30
