G75*
%MOIN*%
%OFA0B0*%
%FSLAX25Y25*%
%IPPOS*%
%LPD*%
%AMOC8*
5,1,8,0,0,1.08239X$1,22.5*
%
%ADD10C,0.00000*%
%ADD11C,0.01000*%
%ADD12C,0.00800*%
%ADD13C,0.00100*%
%ADD14C,0.00500*%
%ADD15C,0.00600*%
%ADD16C,0.02400*%
D10*
X0012712Y0019011D02*
X0012714Y0019169D01*
X0012720Y0019327D01*
X0012730Y0019485D01*
X0012744Y0019643D01*
X0012762Y0019800D01*
X0012783Y0019957D01*
X0012809Y0020113D01*
X0012839Y0020269D01*
X0012872Y0020424D01*
X0012910Y0020577D01*
X0012951Y0020730D01*
X0012996Y0020882D01*
X0013045Y0021033D01*
X0013098Y0021182D01*
X0013154Y0021330D01*
X0013214Y0021476D01*
X0013278Y0021621D01*
X0013346Y0021764D01*
X0013417Y0021906D01*
X0013491Y0022046D01*
X0013569Y0022183D01*
X0013651Y0022319D01*
X0013735Y0022453D01*
X0013824Y0022584D01*
X0013915Y0022713D01*
X0014010Y0022840D01*
X0014107Y0022965D01*
X0014208Y0023087D01*
X0014312Y0023206D01*
X0014419Y0023323D01*
X0014529Y0023437D01*
X0014642Y0023548D01*
X0014757Y0023657D01*
X0014875Y0023762D01*
X0014996Y0023864D01*
X0015119Y0023964D01*
X0015245Y0024060D01*
X0015373Y0024153D01*
X0015503Y0024243D01*
X0015636Y0024329D01*
X0015771Y0024413D01*
X0015907Y0024492D01*
X0016046Y0024569D01*
X0016187Y0024641D01*
X0016329Y0024711D01*
X0016473Y0024776D01*
X0016619Y0024838D01*
X0016766Y0024896D01*
X0016915Y0024951D01*
X0017065Y0025002D01*
X0017216Y0025049D01*
X0017368Y0025092D01*
X0017521Y0025131D01*
X0017676Y0025167D01*
X0017831Y0025198D01*
X0017987Y0025226D01*
X0018143Y0025250D01*
X0018300Y0025270D01*
X0018458Y0025286D01*
X0018615Y0025298D01*
X0018774Y0025306D01*
X0018932Y0025310D01*
X0019090Y0025310D01*
X0019248Y0025306D01*
X0019407Y0025298D01*
X0019564Y0025286D01*
X0019722Y0025270D01*
X0019879Y0025250D01*
X0020035Y0025226D01*
X0020191Y0025198D01*
X0020346Y0025167D01*
X0020501Y0025131D01*
X0020654Y0025092D01*
X0020806Y0025049D01*
X0020957Y0025002D01*
X0021107Y0024951D01*
X0021256Y0024896D01*
X0021403Y0024838D01*
X0021549Y0024776D01*
X0021693Y0024711D01*
X0021835Y0024641D01*
X0021976Y0024569D01*
X0022115Y0024492D01*
X0022251Y0024413D01*
X0022386Y0024329D01*
X0022519Y0024243D01*
X0022649Y0024153D01*
X0022777Y0024060D01*
X0022903Y0023964D01*
X0023026Y0023864D01*
X0023147Y0023762D01*
X0023265Y0023657D01*
X0023380Y0023548D01*
X0023493Y0023437D01*
X0023603Y0023323D01*
X0023710Y0023206D01*
X0023814Y0023087D01*
X0023915Y0022965D01*
X0024012Y0022840D01*
X0024107Y0022713D01*
X0024198Y0022584D01*
X0024287Y0022453D01*
X0024371Y0022319D01*
X0024453Y0022183D01*
X0024531Y0022046D01*
X0024605Y0021906D01*
X0024676Y0021764D01*
X0024744Y0021621D01*
X0024808Y0021476D01*
X0024868Y0021330D01*
X0024924Y0021182D01*
X0024977Y0021033D01*
X0025026Y0020882D01*
X0025071Y0020730D01*
X0025112Y0020577D01*
X0025150Y0020424D01*
X0025183Y0020269D01*
X0025213Y0020113D01*
X0025239Y0019957D01*
X0025260Y0019800D01*
X0025278Y0019643D01*
X0025292Y0019485D01*
X0025302Y0019327D01*
X0025308Y0019169D01*
X0025310Y0019011D01*
X0025308Y0018853D01*
X0025302Y0018695D01*
X0025292Y0018537D01*
X0025278Y0018379D01*
X0025260Y0018222D01*
X0025239Y0018065D01*
X0025213Y0017909D01*
X0025183Y0017753D01*
X0025150Y0017598D01*
X0025112Y0017445D01*
X0025071Y0017292D01*
X0025026Y0017140D01*
X0024977Y0016989D01*
X0024924Y0016840D01*
X0024868Y0016692D01*
X0024808Y0016546D01*
X0024744Y0016401D01*
X0024676Y0016258D01*
X0024605Y0016116D01*
X0024531Y0015976D01*
X0024453Y0015839D01*
X0024371Y0015703D01*
X0024287Y0015569D01*
X0024198Y0015438D01*
X0024107Y0015309D01*
X0024012Y0015182D01*
X0023915Y0015057D01*
X0023814Y0014935D01*
X0023710Y0014816D01*
X0023603Y0014699D01*
X0023493Y0014585D01*
X0023380Y0014474D01*
X0023265Y0014365D01*
X0023147Y0014260D01*
X0023026Y0014158D01*
X0022903Y0014058D01*
X0022777Y0013962D01*
X0022649Y0013869D01*
X0022519Y0013779D01*
X0022386Y0013693D01*
X0022251Y0013609D01*
X0022115Y0013530D01*
X0021976Y0013453D01*
X0021835Y0013381D01*
X0021693Y0013311D01*
X0021549Y0013246D01*
X0021403Y0013184D01*
X0021256Y0013126D01*
X0021107Y0013071D01*
X0020957Y0013020D01*
X0020806Y0012973D01*
X0020654Y0012930D01*
X0020501Y0012891D01*
X0020346Y0012855D01*
X0020191Y0012824D01*
X0020035Y0012796D01*
X0019879Y0012772D01*
X0019722Y0012752D01*
X0019564Y0012736D01*
X0019407Y0012724D01*
X0019248Y0012716D01*
X0019090Y0012712D01*
X0018932Y0012712D01*
X0018774Y0012716D01*
X0018615Y0012724D01*
X0018458Y0012736D01*
X0018300Y0012752D01*
X0018143Y0012772D01*
X0017987Y0012796D01*
X0017831Y0012824D01*
X0017676Y0012855D01*
X0017521Y0012891D01*
X0017368Y0012930D01*
X0017216Y0012973D01*
X0017065Y0013020D01*
X0016915Y0013071D01*
X0016766Y0013126D01*
X0016619Y0013184D01*
X0016473Y0013246D01*
X0016329Y0013311D01*
X0016187Y0013381D01*
X0016046Y0013453D01*
X0015907Y0013530D01*
X0015771Y0013609D01*
X0015636Y0013693D01*
X0015503Y0013779D01*
X0015373Y0013869D01*
X0015245Y0013962D01*
X0015119Y0014058D01*
X0014996Y0014158D01*
X0014875Y0014260D01*
X0014757Y0014365D01*
X0014642Y0014474D01*
X0014529Y0014585D01*
X0014419Y0014699D01*
X0014312Y0014816D01*
X0014208Y0014935D01*
X0014107Y0015057D01*
X0014010Y0015182D01*
X0013915Y0015309D01*
X0013824Y0015438D01*
X0013735Y0015569D01*
X0013651Y0015703D01*
X0013569Y0015839D01*
X0013491Y0015976D01*
X0013417Y0016116D01*
X0013346Y0016258D01*
X0013278Y0016401D01*
X0013214Y0016546D01*
X0013154Y0016692D01*
X0013098Y0016840D01*
X0013045Y0016989D01*
X0012996Y0017140D01*
X0012951Y0017292D01*
X0012910Y0017445D01*
X0012872Y0017598D01*
X0012839Y0017753D01*
X0012809Y0017909D01*
X0012783Y0018065D01*
X0012762Y0018222D01*
X0012744Y0018379D01*
X0012730Y0018537D01*
X0012720Y0018695D01*
X0012714Y0018853D01*
X0012712Y0019011D01*
X0169011Y0211590D02*
X0169013Y0211748D01*
X0169019Y0211906D01*
X0169029Y0212064D01*
X0169043Y0212222D01*
X0169061Y0212379D01*
X0169082Y0212536D01*
X0169108Y0212692D01*
X0169138Y0212848D01*
X0169171Y0213003D01*
X0169209Y0213156D01*
X0169250Y0213309D01*
X0169295Y0213461D01*
X0169344Y0213612D01*
X0169397Y0213761D01*
X0169453Y0213909D01*
X0169513Y0214055D01*
X0169577Y0214200D01*
X0169645Y0214343D01*
X0169716Y0214485D01*
X0169790Y0214625D01*
X0169868Y0214762D01*
X0169950Y0214898D01*
X0170034Y0215032D01*
X0170123Y0215163D01*
X0170214Y0215292D01*
X0170309Y0215419D01*
X0170406Y0215544D01*
X0170507Y0215666D01*
X0170611Y0215785D01*
X0170718Y0215902D01*
X0170828Y0216016D01*
X0170941Y0216127D01*
X0171056Y0216236D01*
X0171174Y0216341D01*
X0171295Y0216443D01*
X0171418Y0216543D01*
X0171544Y0216639D01*
X0171672Y0216732D01*
X0171802Y0216822D01*
X0171935Y0216908D01*
X0172070Y0216992D01*
X0172206Y0217071D01*
X0172345Y0217148D01*
X0172486Y0217220D01*
X0172628Y0217290D01*
X0172772Y0217355D01*
X0172918Y0217417D01*
X0173065Y0217475D01*
X0173214Y0217530D01*
X0173364Y0217581D01*
X0173515Y0217628D01*
X0173667Y0217671D01*
X0173820Y0217710D01*
X0173975Y0217746D01*
X0174130Y0217777D01*
X0174286Y0217805D01*
X0174442Y0217829D01*
X0174599Y0217849D01*
X0174757Y0217865D01*
X0174914Y0217877D01*
X0175073Y0217885D01*
X0175231Y0217889D01*
X0175389Y0217889D01*
X0175547Y0217885D01*
X0175706Y0217877D01*
X0175863Y0217865D01*
X0176021Y0217849D01*
X0176178Y0217829D01*
X0176334Y0217805D01*
X0176490Y0217777D01*
X0176645Y0217746D01*
X0176800Y0217710D01*
X0176953Y0217671D01*
X0177105Y0217628D01*
X0177256Y0217581D01*
X0177406Y0217530D01*
X0177555Y0217475D01*
X0177702Y0217417D01*
X0177848Y0217355D01*
X0177992Y0217290D01*
X0178134Y0217220D01*
X0178275Y0217148D01*
X0178414Y0217071D01*
X0178550Y0216992D01*
X0178685Y0216908D01*
X0178818Y0216822D01*
X0178948Y0216732D01*
X0179076Y0216639D01*
X0179202Y0216543D01*
X0179325Y0216443D01*
X0179446Y0216341D01*
X0179564Y0216236D01*
X0179679Y0216127D01*
X0179792Y0216016D01*
X0179902Y0215902D01*
X0180009Y0215785D01*
X0180113Y0215666D01*
X0180214Y0215544D01*
X0180311Y0215419D01*
X0180406Y0215292D01*
X0180497Y0215163D01*
X0180586Y0215032D01*
X0180670Y0214898D01*
X0180752Y0214762D01*
X0180830Y0214625D01*
X0180904Y0214485D01*
X0180975Y0214343D01*
X0181043Y0214200D01*
X0181107Y0214055D01*
X0181167Y0213909D01*
X0181223Y0213761D01*
X0181276Y0213612D01*
X0181325Y0213461D01*
X0181370Y0213309D01*
X0181411Y0213156D01*
X0181449Y0213003D01*
X0181482Y0212848D01*
X0181512Y0212692D01*
X0181538Y0212536D01*
X0181559Y0212379D01*
X0181577Y0212222D01*
X0181591Y0212064D01*
X0181601Y0211906D01*
X0181607Y0211748D01*
X0181609Y0211590D01*
X0181607Y0211432D01*
X0181601Y0211274D01*
X0181591Y0211116D01*
X0181577Y0210958D01*
X0181559Y0210801D01*
X0181538Y0210644D01*
X0181512Y0210488D01*
X0181482Y0210332D01*
X0181449Y0210177D01*
X0181411Y0210024D01*
X0181370Y0209871D01*
X0181325Y0209719D01*
X0181276Y0209568D01*
X0181223Y0209419D01*
X0181167Y0209271D01*
X0181107Y0209125D01*
X0181043Y0208980D01*
X0180975Y0208837D01*
X0180904Y0208695D01*
X0180830Y0208555D01*
X0180752Y0208418D01*
X0180670Y0208282D01*
X0180586Y0208148D01*
X0180497Y0208017D01*
X0180406Y0207888D01*
X0180311Y0207761D01*
X0180214Y0207636D01*
X0180113Y0207514D01*
X0180009Y0207395D01*
X0179902Y0207278D01*
X0179792Y0207164D01*
X0179679Y0207053D01*
X0179564Y0206944D01*
X0179446Y0206839D01*
X0179325Y0206737D01*
X0179202Y0206637D01*
X0179076Y0206541D01*
X0178948Y0206448D01*
X0178818Y0206358D01*
X0178685Y0206272D01*
X0178550Y0206188D01*
X0178414Y0206109D01*
X0178275Y0206032D01*
X0178134Y0205960D01*
X0177992Y0205890D01*
X0177848Y0205825D01*
X0177702Y0205763D01*
X0177555Y0205705D01*
X0177406Y0205650D01*
X0177256Y0205599D01*
X0177105Y0205552D01*
X0176953Y0205509D01*
X0176800Y0205470D01*
X0176645Y0205434D01*
X0176490Y0205403D01*
X0176334Y0205375D01*
X0176178Y0205351D01*
X0176021Y0205331D01*
X0175863Y0205315D01*
X0175706Y0205303D01*
X0175547Y0205295D01*
X0175389Y0205291D01*
X0175231Y0205291D01*
X0175073Y0205295D01*
X0174914Y0205303D01*
X0174757Y0205315D01*
X0174599Y0205331D01*
X0174442Y0205351D01*
X0174286Y0205375D01*
X0174130Y0205403D01*
X0173975Y0205434D01*
X0173820Y0205470D01*
X0173667Y0205509D01*
X0173515Y0205552D01*
X0173364Y0205599D01*
X0173214Y0205650D01*
X0173065Y0205705D01*
X0172918Y0205763D01*
X0172772Y0205825D01*
X0172628Y0205890D01*
X0172486Y0205960D01*
X0172345Y0206032D01*
X0172206Y0206109D01*
X0172070Y0206188D01*
X0171935Y0206272D01*
X0171802Y0206358D01*
X0171672Y0206448D01*
X0171544Y0206541D01*
X0171418Y0206637D01*
X0171295Y0206737D01*
X0171174Y0206839D01*
X0171056Y0206944D01*
X0170941Y0207053D01*
X0170828Y0207164D01*
X0170718Y0207278D01*
X0170611Y0207395D01*
X0170507Y0207514D01*
X0170406Y0207636D01*
X0170309Y0207761D01*
X0170214Y0207888D01*
X0170123Y0208017D01*
X0170034Y0208148D01*
X0169950Y0208282D01*
X0169868Y0208418D01*
X0169790Y0208555D01*
X0169716Y0208695D01*
X0169645Y0208837D01*
X0169577Y0208980D01*
X0169513Y0209125D01*
X0169453Y0209271D01*
X0169397Y0209419D01*
X0169344Y0209568D01*
X0169295Y0209719D01*
X0169250Y0209871D01*
X0169209Y0210024D01*
X0169171Y0210177D01*
X0169138Y0210332D01*
X0169108Y0210488D01*
X0169082Y0210644D01*
X0169061Y0210801D01*
X0169043Y0210958D01*
X0169029Y0211116D01*
X0169019Y0211274D01*
X0169013Y0211432D01*
X0169011Y0211590D01*
D11*
X0007200Y0219464D02*
X0007200Y0011137D01*
X0007202Y0011013D01*
X0007208Y0010890D01*
X0007217Y0010766D01*
X0007231Y0010644D01*
X0007248Y0010521D01*
X0007270Y0010399D01*
X0007295Y0010278D01*
X0007324Y0010158D01*
X0007356Y0010039D01*
X0007393Y0009920D01*
X0007433Y0009803D01*
X0007476Y0009688D01*
X0007524Y0009573D01*
X0007575Y0009461D01*
X0007629Y0009350D01*
X0007687Y0009240D01*
X0007748Y0009133D01*
X0007813Y0009027D01*
X0007881Y0008924D01*
X0007952Y0008823D01*
X0008026Y0008724D01*
X0008103Y0008627D01*
X0008184Y0008533D01*
X0008267Y0008442D01*
X0008353Y0008353D01*
X0008442Y0008267D01*
X0008533Y0008184D01*
X0008627Y0008103D01*
X0008724Y0008026D01*
X0008823Y0007952D01*
X0008924Y0007881D01*
X0009027Y0007813D01*
X0009133Y0007748D01*
X0009240Y0007687D01*
X0009350Y0007629D01*
X0009461Y0007575D01*
X0009573Y0007524D01*
X0009688Y0007476D01*
X0009803Y0007433D01*
X0009920Y0007393D01*
X0010039Y0007356D01*
X0010158Y0007324D01*
X0010278Y0007295D01*
X0010399Y0007270D01*
X0010521Y0007248D01*
X0010644Y0007231D01*
X0010766Y0007217D01*
X0010890Y0007208D01*
X0011013Y0007202D01*
X0011137Y0007200D01*
X0183184Y0007200D01*
X0183308Y0007202D01*
X0183431Y0007208D01*
X0183555Y0007217D01*
X0183677Y0007231D01*
X0183800Y0007248D01*
X0183922Y0007270D01*
X0184043Y0007295D01*
X0184163Y0007324D01*
X0184282Y0007356D01*
X0184401Y0007393D01*
X0184518Y0007433D01*
X0184633Y0007476D01*
X0184748Y0007524D01*
X0184860Y0007575D01*
X0184971Y0007629D01*
X0185081Y0007687D01*
X0185188Y0007748D01*
X0185294Y0007813D01*
X0185397Y0007881D01*
X0185498Y0007952D01*
X0185597Y0008026D01*
X0185694Y0008103D01*
X0185788Y0008184D01*
X0185879Y0008267D01*
X0185968Y0008353D01*
X0186054Y0008442D01*
X0186137Y0008533D01*
X0186218Y0008627D01*
X0186295Y0008724D01*
X0186369Y0008823D01*
X0186440Y0008924D01*
X0186508Y0009027D01*
X0186573Y0009133D01*
X0186634Y0009240D01*
X0186692Y0009350D01*
X0186746Y0009461D01*
X0186797Y0009573D01*
X0186845Y0009688D01*
X0186888Y0009803D01*
X0186928Y0009920D01*
X0186965Y0010039D01*
X0186997Y0010158D01*
X0187026Y0010278D01*
X0187051Y0010399D01*
X0187073Y0010521D01*
X0187090Y0010644D01*
X0187104Y0010766D01*
X0187113Y0010890D01*
X0187119Y0011013D01*
X0187121Y0011137D01*
X0187121Y0219464D01*
X0187119Y0219588D01*
X0187113Y0219711D01*
X0187104Y0219835D01*
X0187090Y0219957D01*
X0187073Y0220080D01*
X0187051Y0220202D01*
X0187026Y0220323D01*
X0186997Y0220443D01*
X0186965Y0220562D01*
X0186928Y0220681D01*
X0186888Y0220798D01*
X0186845Y0220913D01*
X0186797Y0221028D01*
X0186746Y0221140D01*
X0186692Y0221251D01*
X0186634Y0221361D01*
X0186573Y0221468D01*
X0186508Y0221574D01*
X0186440Y0221677D01*
X0186369Y0221778D01*
X0186295Y0221877D01*
X0186218Y0221974D01*
X0186137Y0222068D01*
X0186054Y0222159D01*
X0185968Y0222248D01*
X0185879Y0222334D01*
X0185788Y0222417D01*
X0185694Y0222498D01*
X0185597Y0222575D01*
X0185498Y0222649D01*
X0185397Y0222720D01*
X0185294Y0222788D01*
X0185188Y0222853D01*
X0185081Y0222914D01*
X0184971Y0222972D01*
X0184860Y0223026D01*
X0184748Y0223077D01*
X0184633Y0223125D01*
X0184518Y0223168D01*
X0184401Y0223208D01*
X0184282Y0223245D01*
X0184163Y0223277D01*
X0184043Y0223306D01*
X0183922Y0223331D01*
X0183800Y0223353D01*
X0183677Y0223370D01*
X0183555Y0223384D01*
X0183431Y0223393D01*
X0183308Y0223399D01*
X0183184Y0223401D01*
X0011137Y0223401D01*
X0011013Y0223399D01*
X0010890Y0223393D01*
X0010766Y0223384D01*
X0010644Y0223370D01*
X0010521Y0223353D01*
X0010399Y0223331D01*
X0010278Y0223306D01*
X0010158Y0223277D01*
X0010039Y0223245D01*
X0009920Y0223208D01*
X0009803Y0223168D01*
X0009688Y0223125D01*
X0009573Y0223077D01*
X0009461Y0223026D01*
X0009350Y0222972D01*
X0009240Y0222914D01*
X0009133Y0222853D01*
X0009027Y0222788D01*
X0008924Y0222720D01*
X0008823Y0222649D01*
X0008724Y0222575D01*
X0008627Y0222498D01*
X0008533Y0222417D01*
X0008442Y0222334D01*
X0008353Y0222248D01*
X0008267Y0222159D01*
X0008184Y0222068D01*
X0008103Y0221974D01*
X0008026Y0221877D01*
X0007952Y0221778D01*
X0007881Y0221677D01*
X0007813Y0221574D01*
X0007748Y0221468D01*
X0007687Y0221361D01*
X0007629Y0221251D01*
X0007575Y0221140D01*
X0007524Y0221028D01*
X0007476Y0220913D01*
X0007433Y0220798D01*
X0007393Y0220681D01*
X0007356Y0220562D01*
X0007324Y0220443D01*
X0007295Y0220323D01*
X0007270Y0220202D01*
X0007248Y0220080D01*
X0007231Y0219957D01*
X0007217Y0219835D01*
X0007208Y0219711D01*
X0007202Y0219588D01*
X0007200Y0219464D01*
D12*
X0011983Y0216964D02*
X0047023Y0216964D01*
X0047417Y0216964D02*
X0047417Y0137436D01*
X0011983Y0137436D01*
X0011983Y0168539D01*
X0017889Y0168539D01*
X0017889Y0185861D01*
X0011983Y0185861D01*
X0011983Y0216964D01*
X0018775Y0199700D02*
X0018775Y0194700D01*
X0011983Y0185861D02*
X0011983Y0168539D01*
X0011983Y0131964D02*
X0047023Y0131964D01*
X0047417Y0131964D02*
X0047417Y0052436D01*
X0011983Y0052436D01*
X0011983Y0083539D01*
X0017889Y0083539D01*
X0017889Y0100861D01*
X0011983Y0100861D01*
X0011983Y0131964D01*
X0018775Y0114700D02*
X0018775Y0109700D01*
X0011983Y0100861D02*
X0011983Y0083539D01*
X0037436Y0047417D02*
X0116964Y0047417D01*
X0116964Y0011983D01*
X0085861Y0011983D01*
X0085861Y0017889D01*
X0068539Y0017889D01*
X0068539Y0011983D01*
X0037436Y0011983D01*
X0037436Y0047023D01*
X0054700Y0018775D02*
X0059700Y0018775D01*
X0068539Y0011983D02*
X0085861Y0011983D01*
X0122436Y0011983D02*
X0122436Y0047417D01*
X0143539Y0047417D01*
X0143539Y0041511D01*
X0160861Y0041511D01*
X0160861Y0047417D01*
X0181964Y0047417D01*
X0181964Y0012377D01*
X0181964Y0011983D02*
X0122436Y0011983D01*
X0143539Y0047417D02*
X0160861Y0047417D01*
X0159700Y0040125D02*
X0164700Y0040125D01*
X0134700Y0077200D02*
X0064700Y0077200D01*
X0064700Y0217200D01*
X0094700Y0217200D01*
X0094700Y0212200D01*
X0104700Y0212200D01*
X0104700Y0217200D01*
X0134700Y0217200D01*
X0134700Y0077200D01*
X0164700Y0169700D02*
X0179700Y0169700D01*
D13*
X0164391Y0170029D02*
X0164931Y0169309D01*
X0164930Y0169310D02*
X0164697Y0169129D01*
X0164469Y0168943D01*
X0164245Y0168751D01*
X0164026Y0168554D01*
X0163812Y0168352D01*
X0163603Y0168144D01*
X0163400Y0167931D01*
X0163201Y0167714D01*
X0163008Y0167491D01*
X0162820Y0167264D01*
X0162638Y0167033D01*
X0162461Y0166797D01*
X0162291Y0166556D01*
X0162126Y0166312D01*
X0161968Y0166064D01*
X0161815Y0165812D01*
X0161669Y0165556D01*
X0161529Y0165297D01*
X0161395Y0165034D01*
X0161268Y0164769D01*
X0161147Y0164500D01*
X0161033Y0164228D01*
X0160926Y0163954D01*
X0160825Y0163677D01*
X0160731Y0163398D01*
X0160644Y0163116D01*
X0160564Y0162833D01*
X0160491Y0162547D01*
X0160425Y0162260D01*
X0160366Y0161971D01*
X0160314Y0161681D01*
X0160269Y0161390D01*
X0160231Y0161098D01*
X0160201Y0160805D01*
X0160177Y0160511D01*
X0160161Y0160217D01*
X0160152Y0159923D01*
X0160150Y0159628D01*
X0160156Y0159333D01*
X0160168Y0159039D01*
X0160188Y0158745D01*
X0160215Y0158452D01*
X0160249Y0158159D01*
X0160290Y0157867D01*
X0160339Y0157577D01*
X0160394Y0157287D01*
X0160456Y0157000D01*
X0160526Y0156713D01*
X0160603Y0156429D01*
X0160686Y0156146D01*
X0160776Y0155866D01*
X0160873Y0155588D01*
X0160977Y0155312D01*
X0161088Y0155039D01*
X0161205Y0154769D01*
X0161329Y0154501D01*
X0161459Y0154237D01*
X0161596Y0153976D01*
X0161739Y0153719D01*
X0161889Y0153465D01*
X0162044Y0153214D01*
X0162206Y0152968D01*
X0162373Y0152726D01*
X0162547Y0152488D01*
X0162726Y0152254D01*
X0162911Y0152024D01*
X0163101Y0151800D01*
X0163297Y0151579D01*
X0163498Y0151364D01*
X0163705Y0151154D01*
X0163916Y0150949D01*
X0164133Y0150749D01*
X0164354Y0150554D01*
X0164580Y0150365D01*
X0164810Y0150182D01*
X0165045Y0150004D01*
X0165285Y0149832D01*
X0165528Y0149666D01*
X0165775Y0149506D01*
X0166026Y0149352D01*
X0166281Y0149204D01*
X0166540Y0149062D01*
X0166801Y0148927D01*
X0167066Y0148798D01*
X0167334Y0148676D01*
X0167605Y0148560D01*
X0167879Y0148451D01*
X0168155Y0148349D01*
X0168434Y0148254D01*
X0168715Y0148165D01*
X0168998Y0148083D01*
X0169283Y0148008D01*
X0169570Y0147941D01*
X0169858Y0147880D01*
X0170148Y0147826D01*
X0170439Y0147779D01*
X0170731Y0147740D01*
X0171023Y0147708D01*
X0171317Y0147682D01*
X0171611Y0147664D01*
X0171905Y0147654D01*
X0172200Y0147650D01*
X0172495Y0147654D01*
X0172789Y0147664D01*
X0173083Y0147682D01*
X0173377Y0147708D01*
X0173669Y0147740D01*
X0173961Y0147779D01*
X0174252Y0147826D01*
X0174542Y0147880D01*
X0174830Y0147941D01*
X0175117Y0148008D01*
X0175402Y0148083D01*
X0175685Y0148165D01*
X0175966Y0148254D01*
X0176245Y0148349D01*
X0176521Y0148451D01*
X0176795Y0148560D01*
X0177066Y0148676D01*
X0177334Y0148798D01*
X0177599Y0148927D01*
X0177860Y0149062D01*
X0178119Y0149204D01*
X0178374Y0149352D01*
X0178625Y0149506D01*
X0178872Y0149666D01*
X0179115Y0149832D01*
X0179355Y0150004D01*
X0179590Y0150182D01*
X0179820Y0150365D01*
X0180046Y0150554D01*
X0180267Y0150749D01*
X0180484Y0150949D01*
X0180695Y0151154D01*
X0180902Y0151364D01*
X0181103Y0151579D01*
X0181299Y0151800D01*
X0181489Y0152024D01*
X0181674Y0152254D01*
X0181853Y0152488D01*
X0182027Y0152726D01*
X0182194Y0152968D01*
X0182356Y0153214D01*
X0182511Y0153465D01*
X0182661Y0153719D01*
X0182804Y0153976D01*
X0182941Y0154237D01*
X0183071Y0154501D01*
X0183195Y0154769D01*
X0183312Y0155039D01*
X0183423Y0155312D01*
X0183527Y0155588D01*
X0183624Y0155866D01*
X0183714Y0156146D01*
X0183797Y0156429D01*
X0183874Y0156713D01*
X0183944Y0157000D01*
X0184006Y0157287D01*
X0184061Y0157577D01*
X0184110Y0157867D01*
X0184151Y0158159D01*
X0184185Y0158452D01*
X0184212Y0158745D01*
X0184232Y0159039D01*
X0184244Y0159333D01*
X0184250Y0159628D01*
X0184248Y0159923D01*
X0184239Y0160217D01*
X0184223Y0160511D01*
X0184199Y0160805D01*
X0184169Y0161098D01*
X0184131Y0161390D01*
X0184086Y0161681D01*
X0184034Y0161971D01*
X0183975Y0162260D01*
X0183909Y0162547D01*
X0183836Y0162833D01*
X0183756Y0163116D01*
X0183669Y0163398D01*
X0183575Y0163677D01*
X0183474Y0163954D01*
X0183367Y0164228D01*
X0183253Y0164500D01*
X0183132Y0164769D01*
X0183005Y0165034D01*
X0182871Y0165297D01*
X0182731Y0165556D01*
X0182585Y0165812D01*
X0182432Y0166064D01*
X0182274Y0166312D01*
X0182109Y0166556D01*
X0181939Y0166797D01*
X0181762Y0167033D01*
X0181580Y0167264D01*
X0181392Y0167491D01*
X0181199Y0167714D01*
X0181000Y0167931D01*
X0180797Y0168144D01*
X0180588Y0168352D01*
X0180374Y0168554D01*
X0180155Y0168751D01*
X0179931Y0168943D01*
X0179703Y0169129D01*
X0179470Y0169310D01*
X0180009Y0170029D01*
X0180010Y0170030D01*
X0180260Y0169836D01*
X0180506Y0169636D01*
X0180746Y0169430D01*
X0180981Y0169218D01*
X0181211Y0169000D01*
X0181436Y0168777D01*
X0181655Y0168549D01*
X0181869Y0168315D01*
X0182077Y0168076D01*
X0182279Y0167832D01*
X0182474Y0167583D01*
X0182664Y0167329D01*
X0182847Y0167071D01*
X0183024Y0166809D01*
X0183195Y0166542D01*
X0183359Y0166271D01*
X0183516Y0165996D01*
X0183667Y0165718D01*
X0183811Y0165435D01*
X0183947Y0165150D01*
X0184077Y0164861D01*
X0184200Y0164569D01*
X0184315Y0164274D01*
X0184423Y0163977D01*
X0184524Y0163676D01*
X0184618Y0163374D01*
X0184704Y0163069D01*
X0184783Y0162762D01*
X0184854Y0162454D01*
X0184917Y0162144D01*
X0184973Y0161832D01*
X0185022Y0161519D01*
X0185062Y0161205D01*
X0185095Y0160890D01*
X0185120Y0160574D01*
X0185138Y0160258D01*
X0185148Y0159942D01*
X0185150Y0159625D01*
X0185144Y0159308D01*
X0185131Y0158992D01*
X0185109Y0158676D01*
X0185081Y0158361D01*
X0185044Y0158046D01*
X0185000Y0157733D01*
X0184948Y0157420D01*
X0184888Y0157109D01*
X0184821Y0156800D01*
X0184746Y0156492D01*
X0184664Y0156186D01*
X0184575Y0155883D01*
X0184478Y0155581D01*
X0184373Y0155282D01*
X0184261Y0154986D01*
X0184143Y0154692D01*
X0184017Y0154402D01*
X0183884Y0154115D01*
X0183743Y0153830D01*
X0183596Y0153550D01*
X0183443Y0153273D01*
X0183282Y0153000D01*
X0183115Y0152731D01*
X0182941Y0152466D01*
X0182761Y0152206D01*
X0182575Y0151950D01*
X0182382Y0151699D01*
X0182184Y0151452D01*
X0181979Y0151210D01*
X0181769Y0150974D01*
X0181552Y0150742D01*
X0181330Y0150517D01*
X0181103Y0150296D01*
X0180871Y0150081D01*
X0180633Y0149872D01*
X0180390Y0149669D01*
X0180142Y0149471D01*
X0179890Y0149280D01*
X0179633Y0149095D01*
X0179371Y0148917D01*
X0179105Y0148745D01*
X0178836Y0148579D01*
X0178562Y0148420D01*
X0178284Y0148268D01*
X0178003Y0148123D01*
X0177718Y0147984D01*
X0177430Y0147853D01*
X0177138Y0147729D01*
X0176844Y0147611D01*
X0176547Y0147501D01*
X0176248Y0147399D01*
X0175946Y0147304D01*
X0175642Y0147216D01*
X0175335Y0147135D01*
X0175027Y0147062D01*
X0174717Y0146997D01*
X0174406Y0146939D01*
X0174093Y0146889D01*
X0173779Y0146847D01*
X0173465Y0146812D01*
X0173149Y0146785D01*
X0172833Y0146765D01*
X0172517Y0146754D01*
X0172200Y0146750D01*
X0171883Y0146754D01*
X0171567Y0146765D01*
X0171251Y0146785D01*
X0170935Y0146812D01*
X0170621Y0146847D01*
X0170307Y0146889D01*
X0169994Y0146939D01*
X0169683Y0146997D01*
X0169373Y0147062D01*
X0169065Y0147135D01*
X0168758Y0147216D01*
X0168454Y0147304D01*
X0168152Y0147399D01*
X0167853Y0147501D01*
X0167556Y0147611D01*
X0167262Y0147729D01*
X0166970Y0147853D01*
X0166682Y0147984D01*
X0166397Y0148123D01*
X0166116Y0148268D01*
X0165838Y0148420D01*
X0165564Y0148579D01*
X0165295Y0148745D01*
X0165029Y0148917D01*
X0164767Y0149095D01*
X0164510Y0149280D01*
X0164258Y0149471D01*
X0164010Y0149669D01*
X0163767Y0149872D01*
X0163529Y0150081D01*
X0163297Y0150296D01*
X0163070Y0150517D01*
X0162848Y0150742D01*
X0162631Y0150974D01*
X0162421Y0151210D01*
X0162216Y0151452D01*
X0162018Y0151699D01*
X0161825Y0151950D01*
X0161639Y0152206D01*
X0161459Y0152466D01*
X0161285Y0152731D01*
X0161118Y0153000D01*
X0160957Y0153273D01*
X0160804Y0153550D01*
X0160657Y0153830D01*
X0160516Y0154115D01*
X0160383Y0154402D01*
X0160257Y0154692D01*
X0160139Y0154986D01*
X0160027Y0155282D01*
X0159922Y0155581D01*
X0159825Y0155883D01*
X0159736Y0156186D01*
X0159654Y0156492D01*
X0159579Y0156800D01*
X0159512Y0157109D01*
X0159452Y0157420D01*
X0159400Y0157733D01*
X0159356Y0158046D01*
X0159319Y0158361D01*
X0159291Y0158676D01*
X0159269Y0158992D01*
X0159256Y0159308D01*
X0159250Y0159625D01*
X0159252Y0159942D01*
X0159262Y0160258D01*
X0159280Y0160574D01*
X0159305Y0160890D01*
X0159338Y0161205D01*
X0159378Y0161519D01*
X0159427Y0161832D01*
X0159483Y0162144D01*
X0159546Y0162454D01*
X0159617Y0162762D01*
X0159696Y0163069D01*
X0159782Y0163374D01*
X0159876Y0163676D01*
X0159977Y0163977D01*
X0160085Y0164274D01*
X0160200Y0164569D01*
X0160323Y0164861D01*
X0160453Y0165150D01*
X0160589Y0165435D01*
X0160733Y0165718D01*
X0160884Y0165996D01*
X0161041Y0166271D01*
X0161205Y0166542D01*
X0161376Y0166809D01*
X0161553Y0167071D01*
X0161736Y0167329D01*
X0161926Y0167583D01*
X0162121Y0167832D01*
X0162323Y0168076D01*
X0162531Y0168315D01*
X0162745Y0168549D01*
X0162964Y0168777D01*
X0163189Y0169000D01*
X0163419Y0169218D01*
X0163654Y0169430D01*
X0163894Y0169636D01*
X0164140Y0169836D01*
X0164390Y0170030D01*
X0164446Y0169955D01*
X0164198Y0169762D01*
X0163954Y0169563D01*
X0163716Y0169359D01*
X0163482Y0169149D01*
X0163254Y0168933D01*
X0163031Y0168711D01*
X0162813Y0168484D01*
X0162601Y0168252D01*
X0162395Y0168015D01*
X0162194Y0167773D01*
X0162000Y0167525D01*
X0161812Y0167274D01*
X0161630Y0167017D01*
X0161454Y0166757D01*
X0161285Y0166492D01*
X0161122Y0166223D01*
X0160966Y0165950D01*
X0160816Y0165674D01*
X0160674Y0165394D01*
X0160538Y0165110D01*
X0160409Y0164823D01*
X0160287Y0164533D01*
X0160173Y0164241D01*
X0160065Y0163945D01*
X0159965Y0163647D01*
X0159872Y0163347D01*
X0159787Y0163044D01*
X0159709Y0162740D01*
X0159638Y0162434D01*
X0159575Y0162126D01*
X0159519Y0161816D01*
X0159471Y0161506D01*
X0159431Y0161194D01*
X0159398Y0160881D01*
X0159373Y0160568D01*
X0159356Y0160254D01*
X0159346Y0159940D01*
X0159344Y0159625D01*
X0159350Y0159311D01*
X0159363Y0158997D01*
X0159384Y0158683D01*
X0159413Y0158370D01*
X0159449Y0158058D01*
X0159493Y0157747D01*
X0159545Y0157437D01*
X0159604Y0157128D01*
X0159671Y0156821D01*
X0159745Y0156515D01*
X0159826Y0156212D01*
X0159915Y0155910D01*
X0160012Y0155611D01*
X0160115Y0155314D01*
X0160226Y0155020D01*
X0160344Y0154729D01*
X0160469Y0154440D01*
X0160601Y0154155D01*
X0160740Y0153873D01*
X0160886Y0153595D01*
X0161039Y0153320D01*
X0161198Y0153049D01*
X0161364Y0152782D01*
X0161537Y0152519D01*
X0161715Y0152260D01*
X0161900Y0152006D01*
X0162092Y0151757D01*
X0162289Y0151512D01*
X0162492Y0151272D01*
X0162701Y0151037D01*
X0162916Y0150807D01*
X0163136Y0150583D01*
X0163361Y0150364D01*
X0163592Y0150151D01*
X0163828Y0149943D01*
X0164070Y0149741D01*
X0164315Y0149546D01*
X0164566Y0149356D01*
X0164821Y0149172D01*
X0165081Y0148995D01*
X0165345Y0148824D01*
X0165613Y0148660D01*
X0165885Y0148502D01*
X0166160Y0148351D01*
X0166440Y0148207D01*
X0166722Y0148069D01*
X0167008Y0147939D01*
X0167297Y0147815D01*
X0167590Y0147699D01*
X0167884Y0147590D01*
X0168182Y0147488D01*
X0168481Y0147394D01*
X0168784Y0147306D01*
X0169088Y0147226D01*
X0169393Y0147154D01*
X0169701Y0147089D01*
X0170010Y0147032D01*
X0170321Y0146982D01*
X0170632Y0146940D01*
X0170945Y0146905D01*
X0171258Y0146879D01*
X0171572Y0146859D01*
X0171886Y0146848D01*
X0172200Y0146844D01*
X0172514Y0146848D01*
X0172828Y0146859D01*
X0173142Y0146879D01*
X0173455Y0146905D01*
X0173768Y0146940D01*
X0174079Y0146982D01*
X0174390Y0147032D01*
X0174699Y0147089D01*
X0175007Y0147154D01*
X0175312Y0147226D01*
X0175616Y0147306D01*
X0175919Y0147394D01*
X0176218Y0147488D01*
X0176516Y0147590D01*
X0176810Y0147699D01*
X0177103Y0147815D01*
X0177392Y0147939D01*
X0177678Y0148069D01*
X0177960Y0148207D01*
X0178240Y0148351D01*
X0178515Y0148502D01*
X0178787Y0148660D01*
X0179055Y0148824D01*
X0179319Y0148995D01*
X0179579Y0149172D01*
X0179834Y0149356D01*
X0180085Y0149546D01*
X0180330Y0149741D01*
X0180572Y0149943D01*
X0180808Y0150151D01*
X0181039Y0150364D01*
X0181264Y0150583D01*
X0181484Y0150807D01*
X0181699Y0151037D01*
X0181908Y0151272D01*
X0182111Y0151512D01*
X0182308Y0151757D01*
X0182500Y0152006D01*
X0182685Y0152260D01*
X0182863Y0152519D01*
X0183036Y0152782D01*
X0183202Y0153049D01*
X0183361Y0153320D01*
X0183514Y0153595D01*
X0183660Y0153873D01*
X0183799Y0154155D01*
X0183931Y0154440D01*
X0184056Y0154729D01*
X0184174Y0155020D01*
X0184285Y0155314D01*
X0184388Y0155611D01*
X0184485Y0155910D01*
X0184574Y0156212D01*
X0184655Y0156515D01*
X0184729Y0156821D01*
X0184796Y0157128D01*
X0184855Y0157437D01*
X0184907Y0157747D01*
X0184951Y0158058D01*
X0184987Y0158370D01*
X0185016Y0158683D01*
X0185037Y0158997D01*
X0185050Y0159311D01*
X0185056Y0159625D01*
X0185054Y0159940D01*
X0185044Y0160254D01*
X0185027Y0160568D01*
X0185002Y0160881D01*
X0184969Y0161194D01*
X0184929Y0161506D01*
X0184881Y0161816D01*
X0184825Y0162126D01*
X0184762Y0162434D01*
X0184691Y0162740D01*
X0184613Y0163044D01*
X0184528Y0163347D01*
X0184435Y0163647D01*
X0184335Y0163945D01*
X0184227Y0164241D01*
X0184113Y0164533D01*
X0183991Y0164823D01*
X0183862Y0165110D01*
X0183726Y0165394D01*
X0183584Y0165674D01*
X0183434Y0165950D01*
X0183278Y0166223D01*
X0183115Y0166492D01*
X0182946Y0166757D01*
X0182770Y0167017D01*
X0182588Y0167274D01*
X0182400Y0167525D01*
X0182206Y0167773D01*
X0182005Y0168015D01*
X0181799Y0168252D01*
X0181587Y0168484D01*
X0181369Y0168711D01*
X0181146Y0168933D01*
X0180918Y0169149D01*
X0180684Y0169359D01*
X0180446Y0169563D01*
X0180202Y0169762D01*
X0179954Y0169955D01*
X0179897Y0169880D01*
X0180144Y0169688D01*
X0180386Y0169491D01*
X0180623Y0169288D01*
X0180854Y0169079D01*
X0181081Y0168865D01*
X0181303Y0168645D01*
X0181519Y0168420D01*
X0181729Y0168189D01*
X0181934Y0167954D01*
X0182133Y0167713D01*
X0182326Y0167468D01*
X0182512Y0167218D01*
X0182693Y0166964D01*
X0182868Y0166705D01*
X0183036Y0166442D01*
X0183197Y0166175D01*
X0183352Y0165904D01*
X0183501Y0165630D01*
X0183642Y0165352D01*
X0183777Y0165070D01*
X0183905Y0164786D01*
X0184026Y0164498D01*
X0184140Y0164207D01*
X0184246Y0163914D01*
X0184346Y0163618D01*
X0184438Y0163320D01*
X0184523Y0163020D01*
X0184600Y0162717D01*
X0184670Y0162413D01*
X0184733Y0162108D01*
X0184788Y0161801D01*
X0184836Y0161492D01*
X0184876Y0161183D01*
X0184908Y0160872D01*
X0184933Y0160561D01*
X0184950Y0160250D01*
X0184960Y0159938D01*
X0184962Y0159626D01*
X0184956Y0159314D01*
X0184943Y0159002D01*
X0184922Y0158691D01*
X0184894Y0158380D01*
X0184857Y0158070D01*
X0184814Y0157761D01*
X0184763Y0157453D01*
X0184704Y0157146D01*
X0184638Y0156842D01*
X0184564Y0156538D01*
X0184483Y0156237D01*
X0184395Y0155938D01*
X0184299Y0155641D01*
X0184196Y0155346D01*
X0184086Y0155054D01*
X0183969Y0154765D01*
X0183845Y0154478D01*
X0183714Y0154195D01*
X0183576Y0153915D01*
X0183431Y0153639D01*
X0183279Y0153366D01*
X0183121Y0153097D01*
X0182956Y0152832D01*
X0182785Y0152571D01*
X0182608Y0152315D01*
X0182424Y0152062D01*
X0182234Y0151815D01*
X0182039Y0151572D01*
X0181837Y0151333D01*
X0181629Y0151100D01*
X0181416Y0150872D01*
X0181198Y0150650D01*
X0180974Y0150432D01*
X0180745Y0150221D01*
X0180510Y0150015D01*
X0180271Y0149814D01*
X0180027Y0149620D01*
X0179778Y0149432D01*
X0179525Y0149249D01*
X0179267Y0149073D01*
X0179005Y0148904D01*
X0178739Y0148741D01*
X0178469Y0148584D01*
X0178195Y0148434D01*
X0177918Y0148291D01*
X0177638Y0148154D01*
X0177354Y0148025D01*
X0177067Y0147902D01*
X0176777Y0147787D01*
X0176484Y0147679D01*
X0176189Y0147577D01*
X0175891Y0147483D01*
X0175591Y0147397D01*
X0175290Y0147318D01*
X0174986Y0147246D01*
X0174681Y0147181D01*
X0174374Y0147124D01*
X0174066Y0147075D01*
X0173756Y0147033D01*
X0173446Y0146999D01*
X0173135Y0146972D01*
X0172824Y0146953D01*
X0172512Y0146942D01*
X0172200Y0146938D01*
X0171888Y0146942D01*
X0171576Y0146953D01*
X0171265Y0146972D01*
X0170954Y0146999D01*
X0170644Y0147033D01*
X0170334Y0147075D01*
X0170026Y0147124D01*
X0169719Y0147181D01*
X0169414Y0147246D01*
X0169110Y0147318D01*
X0168809Y0147397D01*
X0168509Y0147483D01*
X0168211Y0147577D01*
X0167916Y0147679D01*
X0167623Y0147787D01*
X0167333Y0147902D01*
X0167046Y0148025D01*
X0166762Y0148154D01*
X0166482Y0148291D01*
X0166205Y0148434D01*
X0165931Y0148584D01*
X0165661Y0148741D01*
X0165395Y0148904D01*
X0165133Y0149073D01*
X0164875Y0149249D01*
X0164622Y0149432D01*
X0164373Y0149620D01*
X0164129Y0149814D01*
X0163890Y0150015D01*
X0163655Y0150221D01*
X0163426Y0150432D01*
X0163202Y0150650D01*
X0162984Y0150872D01*
X0162771Y0151100D01*
X0162563Y0151333D01*
X0162361Y0151572D01*
X0162166Y0151815D01*
X0161976Y0152062D01*
X0161792Y0152315D01*
X0161615Y0152571D01*
X0161444Y0152832D01*
X0161279Y0153097D01*
X0161121Y0153366D01*
X0160969Y0153639D01*
X0160824Y0153915D01*
X0160686Y0154195D01*
X0160555Y0154478D01*
X0160431Y0154765D01*
X0160314Y0155054D01*
X0160204Y0155346D01*
X0160101Y0155641D01*
X0160005Y0155938D01*
X0159917Y0156237D01*
X0159836Y0156538D01*
X0159762Y0156842D01*
X0159696Y0157146D01*
X0159637Y0157453D01*
X0159586Y0157761D01*
X0159543Y0158070D01*
X0159506Y0158380D01*
X0159478Y0158691D01*
X0159457Y0159002D01*
X0159444Y0159314D01*
X0159438Y0159626D01*
X0159440Y0159938D01*
X0159450Y0160250D01*
X0159467Y0160561D01*
X0159492Y0160872D01*
X0159524Y0161183D01*
X0159564Y0161492D01*
X0159612Y0161801D01*
X0159667Y0162108D01*
X0159730Y0162413D01*
X0159800Y0162717D01*
X0159877Y0163020D01*
X0159962Y0163320D01*
X0160054Y0163618D01*
X0160154Y0163914D01*
X0160260Y0164207D01*
X0160374Y0164498D01*
X0160495Y0164786D01*
X0160623Y0165070D01*
X0160758Y0165352D01*
X0160899Y0165630D01*
X0161048Y0165904D01*
X0161203Y0166175D01*
X0161364Y0166442D01*
X0161532Y0166705D01*
X0161707Y0166964D01*
X0161888Y0167218D01*
X0162074Y0167468D01*
X0162267Y0167713D01*
X0162466Y0167954D01*
X0162671Y0168189D01*
X0162881Y0168420D01*
X0163097Y0168645D01*
X0163319Y0168865D01*
X0163546Y0169079D01*
X0163777Y0169288D01*
X0164014Y0169491D01*
X0164256Y0169688D01*
X0164503Y0169880D01*
X0164559Y0169804D01*
X0164314Y0169614D01*
X0164074Y0169419D01*
X0163839Y0169217D01*
X0163609Y0169010D01*
X0163384Y0168797D01*
X0163164Y0168579D01*
X0162950Y0168355D01*
X0162741Y0168126D01*
X0162538Y0167893D01*
X0162340Y0167654D01*
X0162149Y0167411D01*
X0161963Y0167162D01*
X0161784Y0166910D01*
X0161611Y0166653D01*
X0161444Y0166392D01*
X0161283Y0166127D01*
X0161130Y0165858D01*
X0160982Y0165586D01*
X0160842Y0165310D01*
X0160708Y0165030D01*
X0160581Y0164748D01*
X0160461Y0164462D01*
X0160348Y0164174D01*
X0160242Y0163883D01*
X0160144Y0163589D01*
X0160052Y0163293D01*
X0159968Y0162995D01*
X0159891Y0162695D01*
X0159822Y0162393D01*
X0159759Y0162090D01*
X0159705Y0161785D01*
X0159657Y0161479D01*
X0159618Y0161171D01*
X0159586Y0160863D01*
X0159561Y0160555D01*
X0159544Y0160245D01*
X0159534Y0159936D01*
X0159532Y0159626D01*
X0159538Y0159316D01*
X0159551Y0159007D01*
X0159572Y0158698D01*
X0159600Y0158389D01*
X0159636Y0158082D01*
X0159679Y0157775D01*
X0159730Y0157469D01*
X0159788Y0157165D01*
X0159854Y0156862D01*
X0159927Y0156561D01*
X0160007Y0156262D01*
X0160095Y0155965D01*
X0160190Y0155670D01*
X0160292Y0155378D01*
X0160401Y0155088D01*
X0160518Y0154801D01*
X0160641Y0154517D01*
X0160771Y0154236D01*
X0160908Y0153958D01*
X0161052Y0153684D01*
X0161202Y0153413D01*
X0161359Y0153146D01*
X0161523Y0152883D01*
X0161693Y0152624D01*
X0161869Y0152369D01*
X0162051Y0152118D01*
X0162240Y0151873D01*
X0162434Y0151631D01*
X0162634Y0151395D01*
X0162840Y0151164D01*
X0163052Y0150937D01*
X0163269Y0150716D01*
X0163491Y0150501D01*
X0163718Y0150290D01*
X0163951Y0150086D01*
X0164189Y0149887D01*
X0164431Y0149694D01*
X0164678Y0149507D01*
X0164929Y0149326D01*
X0165185Y0149152D01*
X0165445Y0148983D01*
X0165709Y0148821D01*
X0165977Y0148666D01*
X0166249Y0148517D01*
X0166524Y0148375D01*
X0166803Y0148239D01*
X0167084Y0148111D01*
X0167369Y0147989D01*
X0167657Y0147875D01*
X0167948Y0147767D01*
X0168241Y0147667D01*
X0168536Y0147573D01*
X0168834Y0147487D01*
X0169133Y0147409D01*
X0169435Y0147338D01*
X0169738Y0147274D01*
X0170042Y0147217D01*
X0170348Y0147168D01*
X0170655Y0147127D01*
X0170963Y0147093D01*
X0171272Y0147066D01*
X0171581Y0147047D01*
X0171890Y0147036D01*
X0172200Y0147032D01*
X0172510Y0147036D01*
X0172819Y0147047D01*
X0173128Y0147066D01*
X0173437Y0147093D01*
X0173745Y0147127D01*
X0174052Y0147168D01*
X0174358Y0147217D01*
X0174662Y0147274D01*
X0174965Y0147338D01*
X0175267Y0147409D01*
X0175566Y0147487D01*
X0175864Y0147573D01*
X0176159Y0147667D01*
X0176452Y0147767D01*
X0176743Y0147875D01*
X0177031Y0147989D01*
X0177316Y0148111D01*
X0177597Y0148239D01*
X0177876Y0148375D01*
X0178151Y0148517D01*
X0178423Y0148666D01*
X0178691Y0148821D01*
X0178955Y0148983D01*
X0179215Y0149152D01*
X0179471Y0149326D01*
X0179722Y0149507D01*
X0179969Y0149694D01*
X0180211Y0149887D01*
X0180449Y0150086D01*
X0180682Y0150290D01*
X0180909Y0150501D01*
X0181131Y0150716D01*
X0181348Y0150937D01*
X0181560Y0151164D01*
X0181766Y0151395D01*
X0181966Y0151631D01*
X0182160Y0151873D01*
X0182349Y0152118D01*
X0182531Y0152369D01*
X0182707Y0152624D01*
X0182877Y0152883D01*
X0183041Y0153146D01*
X0183198Y0153413D01*
X0183348Y0153684D01*
X0183492Y0153958D01*
X0183629Y0154236D01*
X0183759Y0154517D01*
X0183882Y0154801D01*
X0183999Y0155088D01*
X0184108Y0155378D01*
X0184210Y0155670D01*
X0184305Y0155965D01*
X0184393Y0156262D01*
X0184473Y0156561D01*
X0184546Y0156862D01*
X0184612Y0157165D01*
X0184670Y0157469D01*
X0184721Y0157775D01*
X0184764Y0158082D01*
X0184800Y0158389D01*
X0184828Y0158698D01*
X0184849Y0159007D01*
X0184862Y0159316D01*
X0184868Y0159626D01*
X0184866Y0159936D01*
X0184856Y0160245D01*
X0184839Y0160555D01*
X0184814Y0160863D01*
X0184782Y0161171D01*
X0184743Y0161479D01*
X0184695Y0161785D01*
X0184641Y0162090D01*
X0184578Y0162393D01*
X0184509Y0162695D01*
X0184432Y0162995D01*
X0184348Y0163293D01*
X0184256Y0163589D01*
X0184158Y0163883D01*
X0184052Y0164174D01*
X0183939Y0164462D01*
X0183819Y0164748D01*
X0183692Y0165030D01*
X0183558Y0165310D01*
X0183418Y0165586D01*
X0183270Y0165858D01*
X0183117Y0166127D01*
X0182956Y0166392D01*
X0182789Y0166653D01*
X0182616Y0166910D01*
X0182437Y0167162D01*
X0182251Y0167411D01*
X0182060Y0167654D01*
X0181862Y0167893D01*
X0181659Y0168126D01*
X0181450Y0168355D01*
X0181236Y0168579D01*
X0181016Y0168797D01*
X0180791Y0169010D01*
X0180561Y0169217D01*
X0180326Y0169419D01*
X0180086Y0169614D01*
X0179841Y0169804D01*
X0179784Y0169729D01*
X0180027Y0169541D01*
X0180266Y0169346D01*
X0180499Y0169146D01*
X0180727Y0168941D01*
X0180951Y0168729D01*
X0181169Y0168513D01*
X0181382Y0168291D01*
X0181589Y0168064D01*
X0181791Y0167832D01*
X0181987Y0167595D01*
X0182177Y0167353D01*
X0182361Y0167107D01*
X0182539Y0166856D01*
X0182711Y0166601D01*
X0182876Y0166342D01*
X0183036Y0166079D01*
X0183188Y0165812D01*
X0183335Y0165542D01*
X0183474Y0165268D01*
X0183607Y0164991D01*
X0183733Y0164710D01*
X0183852Y0164427D01*
X0183964Y0164140D01*
X0184069Y0163851D01*
X0184167Y0163560D01*
X0184258Y0163266D01*
X0184341Y0162970D01*
X0184418Y0162673D01*
X0184487Y0162373D01*
X0184548Y0162072D01*
X0184603Y0161769D01*
X0184649Y0161465D01*
X0184689Y0161160D01*
X0184721Y0160855D01*
X0184745Y0160548D01*
X0184762Y0160241D01*
X0184772Y0159934D01*
X0184774Y0159626D01*
X0184768Y0159319D01*
X0184755Y0159012D01*
X0184735Y0158705D01*
X0184706Y0158399D01*
X0184671Y0158093D01*
X0184628Y0157789D01*
X0184577Y0157486D01*
X0184520Y0157184D01*
X0184454Y0156883D01*
X0184382Y0156584D01*
X0184302Y0156288D01*
X0184215Y0155993D01*
X0184121Y0155700D01*
X0184019Y0155410D01*
X0183911Y0155122D01*
X0183796Y0154837D01*
X0183673Y0154555D01*
X0183544Y0154276D01*
X0183408Y0154000D01*
X0183265Y0153728D01*
X0183116Y0153459D01*
X0182960Y0153194D01*
X0182798Y0152933D01*
X0182629Y0152676D01*
X0182454Y0152423D01*
X0182273Y0152175D01*
X0182086Y0151931D01*
X0181893Y0151691D01*
X0181695Y0151457D01*
X0181490Y0151227D01*
X0181280Y0151002D01*
X0181065Y0150783D01*
X0180844Y0150569D01*
X0180619Y0150360D01*
X0180388Y0150157D01*
X0180152Y0149960D01*
X0179911Y0149768D01*
X0179666Y0149583D01*
X0179417Y0149403D01*
X0179163Y0149230D01*
X0178905Y0149063D01*
X0178643Y0148902D01*
X0178377Y0148748D01*
X0178107Y0148600D01*
X0177834Y0148459D01*
X0177557Y0148324D01*
X0177278Y0148197D01*
X0176995Y0148076D01*
X0176709Y0147962D01*
X0176421Y0147856D01*
X0176130Y0147756D01*
X0175837Y0147663D01*
X0175541Y0147578D01*
X0175244Y0147500D01*
X0174945Y0147429D01*
X0174644Y0147366D01*
X0174342Y0147310D01*
X0174038Y0147261D01*
X0173733Y0147220D01*
X0173428Y0147186D01*
X0173122Y0147160D01*
X0172815Y0147141D01*
X0172507Y0147130D01*
X0172200Y0147126D01*
X0171893Y0147130D01*
X0171585Y0147141D01*
X0171278Y0147160D01*
X0170972Y0147186D01*
X0170667Y0147220D01*
X0170362Y0147261D01*
X0170058Y0147310D01*
X0169756Y0147366D01*
X0169455Y0147429D01*
X0169156Y0147500D01*
X0168859Y0147578D01*
X0168563Y0147663D01*
X0168270Y0147756D01*
X0167979Y0147856D01*
X0167691Y0147962D01*
X0167405Y0148076D01*
X0167122Y0148197D01*
X0166843Y0148324D01*
X0166566Y0148459D01*
X0166293Y0148600D01*
X0166023Y0148748D01*
X0165757Y0148902D01*
X0165495Y0149063D01*
X0165237Y0149230D01*
X0164983Y0149403D01*
X0164734Y0149583D01*
X0164489Y0149768D01*
X0164248Y0149960D01*
X0164012Y0150157D01*
X0163781Y0150360D01*
X0163556Y0150569D01*
X0163335Y0150783D01*
X0163120Y0151002D01*
X0162910Y0151227D01*
X0162705Y0151457D01*
X0162507Y0151691D01*
X0162314Y0151931D01*
X0162127Y0152175D01*
X0161946Y0152423D01*
X0161771Y0152676D01*
X0161602Y0152933D01*
X0161440Y0153194D01*
X0161284Y0153459D01*
X0161135Y0153728D01*
X0160992Y0154000D01*
X0160856Y0154276D01*
X0160727Y0154555D01*
X0160604Y0154837D01*
X0160489Y0155122D01*
X0160381Y0155410D01*
X0160279Y0155700D01*
X0160185Y0155993D01*
X0160098Y0156288D01*
X0160018Y0156584D01*
X0159946Y0156883D01*
X0159880Y0157184D01*
X0159823Y0157486D01*
X0159772Y0157789D01*
X0159729Y0158093D01*
X0159694Y0158399D01*
X0159665Y0158705D01*
X0159645Y0159012D01*
X0159632Y0159319D01*
X0159626Y0159626D01*
X0159628Y0159934D01*
X0159638Y0160241D01*
X0159655Y0160548D01*
X0159679Y0160855D01*
X0159711Y0161160D01*
X0159751Y0161465D01*
X0159797Y0161769D01*
X0159852Y0162072D01*
X0159913Y0162373D01*
X0159982Y0162673D01*
X0160059Y0162970D01*
X0160142Y0163266D01*
X0160233Y0163560D01*
X0160331Y0163851D01*
X0160436Y0164140D01*
X0160548Y0164427D01*
X0160667Y0164710D01*
X0160793Y0164991D01*
X0160926Y0165268D01*
X0161065Y0165542D01*
X0161212Y0165812D01*
X0161364Y0166079D01*
X0161524Y0166342D01*
X0161689Y0166601D01*
X0161861Y0166856D01*
X0162039Y0167107D01*
X0162223Y0167353D01*
X0162413Y0167595D01*
X0162609Y0167832D01*
X0162811Y0168064D01*
X0163018Y0168291D01*
X0163231Y0168513D01*
X0163449Y0168729D01*
X0163673Y0168941D01*
X0163901Y0169146D01*
X0164134Y0169346D01*
X0164373Y0169541D01*
X0164616Y0169729D01*
X0164672Y0169654D01*
X0164431Y0169467D01*
X0164194Y0169274D01*
X0163963Y0169075D01*
X0163736Y0168871D01*
X0163514Y0168662D01*
X0163298Y0168447D01*
X0163087Y0168226D01*
X0162881Y0168001D01*
X0162681Y0167771D01*
X0162486Y0167535D01*
X0162298Y0167296D01*
X0162115Y0167051D01*
X0161938Y0166802D01*
X0161768Y0166549D01*
X0161603Y0166292D01*
X0161445Y0166031D01*
X0161294Y0165766D01*
X0161149Y0165498D01*
X0161010Y0165226D01*
X0160878Y0164951D01*
X0160753Y0164672D01*
X0160635Y0164391D01*
X0160524Y0164107D01*
X0160420Y0163820D01*
X0160322Y0163531D01*
X0160232Y0163239D01*
X0160149Y0162946D01*
X0160074Y0162650D01*
X0160005Y0162353D01*
X0159944Y0162054D01*
X0159890Y0161753D01*
X0159844Y0161452D01*
X0159804Y0161149D01*
X0159773Y0160846D01*
X0159748Y0160541D01*
X0159732Y0160237D01*
X0159722Y0159932D01*
X0159720Y0159627D01*
X0159726Y0159322D01*
X0159739Y0159017D01*
X0159759Y0158712D01*
X0159787Y0158408D01*
X0159822Y0158105D01*
X0159865Y0157803D01*
X0159915Y0157502D01*
X0159972Y0157202D01*
X0160037Y0156904D01*
X0160109Y0156608D01*
X0160188Y0156313D01*
X0160275Y0156020D01*
X0160368Y0155730D01*
X0160469Y0155442D01*
X0160577Y0155156D01*
X0160691Y0154873D01*
X0160813Y0154593D01*
X0160941Y0154316D01*
X0161076Y0154043D01*
X0161217Y0153773D01*
X0161366Y0153506D01*
X0161520Y0153243D01*
X0161681Y0152984D01*
X0161849Y0152728D01*
X0162022Y0152477D01*
X0162202Y0152231D01*
X0162388Y0151989D01*
X0162579Y0151751D01*
X0162776Y0151518D01*
X0162979Y0151290D01*
X0163188Y0151067D01*
X0163401Y0150849D01*
X0163620Y0150637D01*
X0163844Y0150430D01*
X0164074Y0150228D01*
X0164308Y0150032D01*
X0164546Y0149842D01*
X0164790Y0149658D01*
X0165037Y0149480D01*
X0165289Y0149308D01*
X0165546Y0149142D01*
X0165806Y0148983D01*
X0166070Y0148829D01*
X0166337Y0148683D01*
X0166608Y0148543D01*
X0166883Y0148409D01*
X0167160Y0148283D01*
X0167441Y0148163D01*
X0167725Y0148050D01*
X0168011Y0147944D01*
X0168299Y0147845D01*
X0168590Y0147753D01*
X0168884Y0147669D01*
X0169179Y0147591D01*
X0169476Y0147521D01*
X0169774Y0147458D01*
X0170074Y0147402D01*
X0170376Y0147354D01*
X0170678Y0147313D01*
X0170981Y0147280D01*
X0171285Y0147254D01*
X0171590Y0147235D01*
X0171895Y0147224D01*
X0172200Y0147220D01*
X0172505Y0147224D01*
X0172810Y0147235D01*
X0173115Y0147254D01*
X0173419Y0147280D01*
X0173722Y0147313D01*
X0174024Y0147354D01*
X0174326Y0147402D01*
X0174626Y0147458D01*
X0174924Y0147521D01*
X0175221Y0147591D01*
X0175516Y0147669D01*
X0175810Y0147753D01*
X0176101Y0147845D01*
X0176389Y0147944D01*
X0176675Y0148050D01*
X0176959Y0148163D01*
X0177240Y0148283D01*
X0177517Y0148409D01*
X0177792Y0148543D01*
X0178063Y0148683D01*
X0178330Y0148829D01*
X0178594Y0148983D01*
X0178854Y0149142D01*
X0179111Y0149308D01*
X0179363Y0149480D01*
X0179610Y0149658D01*
X0179854Y0149842D01*
X0180092Y0150032D01*
X0180326Y0150228D01*
X0180556Y0150430D01*
X0180780Y0150637D01*
X0180999Y0150849D01*
X0181212Y0151067D01*
X0181421Y0151290D01*
X0181624Y0151518D01*
X0181821Y0151751D01*
X0182012Y0151989D01*
X0182198Y0152231D01*
X0182378Y0152477D01*
X0182551Y0152728D01*
X0182719Y0152984D01*
X0182880Y0153243D01*
X0183034Y0153506D01*
X0183183Y0153773D01*
X0183324Y0154043D01*
X0183459Y0154316D01*
X0183587Y0154593D01*
X0183709Y0154873D01*
X0183823Y0155156D01*
X0183931Y0155442D01*
X0184032Y0155730D01*
X0184125Y0156020D01*
X0184212Y0156313D01*
X0184291Y0156608D01*
X0184363Y0156904D01*
X0184428Y0157202D01*
X0184485Y0157502D01*
X0184535Y0157803D01*
X0184578Y0158105D01*
X0184613Y0158408D01*
X0184641Y0158712D01*
X0184661Y0159017D01*
X0184674Y0159322D01*
X0184680Y0159627D01*
X0184678Y0159932D01*
X0184668Y0160237D01*
X0184652Y0160541D01*
X0184627Y0160846D01*
X0184596Y0161149D01*
X0184556Y0161452D01*
X0184510Y0161753D01*
X0184456Y0162054D01*
X0184395Y0162353D01*
X0184326Y0162650D01*
X0184251Y0162946D01*
X0184168Y0163239D01*
X0184078Y0163531D01*
X0183980Y0163820D01*
X0183876Y0164107D01*
X0183765Y0164391D01*
X0183647Y0164672D01*
X0183522Y0164951D01*
X0183390Y0165226D01*
X0183251Y0165498D01*
X0183106Y0165766D01*
X0182955Y0166031D01*
X0182797Y0166292D01*
X0182632Y0166549D01*
X0182462Y0166802D01*
X0182285Y0167051D01*
X0182102Y0167296D01*
X0181914Y0167535D01*
X0181719Y0167771D01*
X0181519Y0168001D01*
X0181313Y0168226D01*
X0181102Y0168447D01*
X0180886Y0168662D01*
X0180664Y0168871D01*
X0180437Y0169075D01*
X0180206Y0169274D01*
X0179969Y0169467D01*
X0179728Y0169654D01*
X0179672Y0169579D01*
X0179911Y0169393D01*
X0180146Y0169202D01*
X0180375Y0169005D01*
X0180600Y0168802D01*
X0180821Y0168594D01*
X0181035Y0168380D01*
X0181245Y0168162D01*
X0181449Y0167938D01*
X0181648Y0167710D01*
X0181841Y0167476D01*
X0182028Y0167238D01*
X0182209Y0166996D01*
X0182385Y0166749D01*
X0182554Y0166498D01*
X0182717Y0166242D01*
X0182874Y0165983D01*
X0183024Y0165720D01*
X0183168Y0165454D01*
X0183306Y0165184D01*
X0183437Y0164911D01*
X0183561Y0164635D01*
X0183678Y0164355D01*
X0183788Y0164073D01*
X0183892Y0163789D01*
X0183988Y0163502D01*
X0184078Y0163212D01*
X0184160Y0162921D01*
X0184235Y0162628D01*
X0184303Y0162332D01*
X0184364Y0162036D01*
X0184417Y0161738D01*
X0184463Y0161438D01*
X0184502Y0161138D01*
X0184534Y0160837D01*
X0184558Y0160535D01*
X0184575Y0160232D01*
X0184584Y0159930D01*
X0184586Y0159627D01*
X0184580Y0159324D01*
X0184567Y0159022D01*
X0184547Y0158719D01*
X0184519Y0158418D01*
X0184484Y0158117D01*
X0184442Y0157817D01*
X0184392Y0157518D01*
X0184335Y0157221D01*
X0184271Y0156925D01*
X0184200Y0156631D01*
X0184121Y0156338D01*
X0184035Y0156048D01*
X0183942Y0155759D01*
X0183843Y0155474D01*
X0183736Y0155190D01*
X0183622Y0154910D01*
X0183502Y0154632D01*
X0183374Y0154357D01*
X0183240Y0154085D01*
X0183100Y0153817D01*
X0182953Y0153552D01*
X0182799Y0153291D01*
X0182639Y0153034D01*
X0182473Y0152781D01*
X0182301Y0152532D01*
X0182123Y0152287D01*
X0181938Y0152046D01*
X0181748Y0151811D01*
X0181553Y0151580D01*
X0181351Y0151353D01*
X0181145Y0151132D01*
X0180932Y0150916D01*
X0180715Y0150705D01*
X0180493Y0150500D01*
X0180265Y0150300D01*
X0180033Y0150105D01*
X0179796Y0149917D01*
X0179554Y0149734D01*
X0179309Y0149557D01*
X0179058Y0149386D01*
X0178804Y0149222D01*
X0178546Y0149063D01*
X0178284Y0148911D01*
X0178019Y0148766D01*
X0177750Y0148627D01*
X0177477Y0148494D01*
X0177202Y0148369D01*
X0176923Y0148250D01*
X0176642Y0148138D01*
X0176358Y0148033D01*
X0176071Y0147934D01*
X0175782Y0147843D01*
X0175491Y0147759D01*
X0175198Y0147682D01*
X0174904Y0147613D01*
X0174607Y0147550D01*
X0174310Y0147495D01*
X0174011Y0147447D01*
X0173711Y0147406D01*
X0173409Y0147373D01*
X0173108Y0147347D01*
X0172805Y0147329D01*
X0172503Y0147318D01*
X0172200Y0147314D01*
X0171897Y0147318D01*
X0171595Y0147329D01*
X0171292Y0147347D01*
X0170991Y0147373D01*
X0170689Y0147406D01*
X0170389Y0147447D01*
X0170090Y0147495D01*
X0169793Y0147550D01*
X0169496Y0147613D01*
X0169202Y0147682D01*
X0168909Y0147759D01*
X0168618Y0147843D01*
X0168329Y0147934D01*
X0168042Y0148033D01*
X0167758Y0148138D01*
X0167477Y0148250D01*
X0167198Y0148369D01*
X0166923Y0148494D01*
X0166650Y0148627D01*
X0166381Y0148766D01*
X0166116Y0148911D01*
X0165854Y0149063D01*
X0165596Y0149222D01*
X0165342Y0149386D01*
X0165091Y0149557D01*
X0164846Y0149734D01*
X0164604Y0149917D01*
X0164367Y0150105D01*
X0164135Y0150300D01*
X0163907Y0150500D01*
X0163685Y0150705D01*
X0163468Y0150916D01*
X0163255Y0151132D01*
X0163049Y0151353D01*
X0162847Y0151580D01*
X0162652Y0151811D01*
X0162462Y0152046D01*
X0162277Y0152287D01*
X0162099Y0152532D01*
X0161927Y0152781D01*
X0161761Y0153034D01*
X0161601Y0153291D01*
X0161447Y0153552D01*
X0161300Y0153817D01*
X0161160Y0154085D01*
X0161026Y0154357D01*
X0160898Y0154632D01*
X0160778Y0154910D01*
X0160664Y0155190D01*
X0160557Y0155474D01*
X0160458Y0155759D01*
X0160365Y0156048D01*
X0160279Y0156338D01*
X0160200Y0156631D01*
X0160129Y0156925D01*
X0160065Y0157221D01*
X0160008Y0157518D01*
X0159958Y0157817D01*
X0159916Y0158117D01*
X0159881Y0158418D01*
X0159853Y0158719D01*
X0159833Y0159022D01*
X0159820Y0159324D01*
X0159814Y0159627D01*
X0159816Y0159930D01*
X0159825Y0160232D01*
X0159842Y0160535D01*
X0159866Y0160837D01*
X0159898Y0161138D01*
X0159937Y0161438D01*
X0159983Y0161738D01*
X0160036Y0162036D01*
X0160097Y0162332D01*
X0160165Y0162628D01*
X0160240Y0162921D01*
X0160322Y0163212D01*
X0160412Y0163502D01*
X0160508Y0163789D01*
X0160612Y0164073D01*
X0160722Y0164355D01*
X0160839Y0164635D01*
X0160963Y0164911D01*
X0161094Y0165184D01*
X0161232Y0165454D01*
X0161376Y0165720D01*
X0161526Y0165983D01*
X0161683Y0166242D01*
X0161846Y0166498D01*
X0162015Y0166749D01*
X0162191Y0166996D01*
X0162372Y0167238D01*
X0162559Y0167476D01*
X0162752Y0167710D01*
X0162951Y0167938D01*
X0163155Y0168162D01*
X0163365Y0168380D01*
X0163579Y0168594D01*
X0163800Y0168802D01*
X0164025Y0169005D01*
X0164254Y0169202D01*
X0164489Y0169393D01*
X0164728Y0169579D01*
X0164785Y0169504D01*
X0164547Y0169319D01*
X0164315Y0169129D01*
X0164086Y0168934D01*
X0163863Y0168733D01*
X0163645Y0168526D01*
X0163431Y0168314D01*
X0163223Y0168097D01*
X0163021Y0167875D01*
X0162824Y0167648D01*
X0162632Y0167417D01*
X0162446Y0167181D01*
X0162266Y0166940D01*
X0162092Y0166695D01*
X0161924Y0166446D01*
X0161762Y0166192D01*
X0161607Y0165935D01*
X0161458Y0165674D01*
X0161315Y0165410D01*
X0161178Y0165142D01*
X0161049Y0164871D01*
X0160926Y0164597D01*
X0160809Y0164320D01*
X0160700Y0164040D01*
X0160597Y0163757D01*
X0160501Y0163473D01*
X0160413Y0163185D01*
X0160331Y0162896D01*
X0160256Y0162605D01*
X0160189Y0162312D01*
X0160128Y0162018D01*
X0160075Y0161722D01*
X0160030Y0161425D01*
X0159991Y0161127D01*
X0159960Y0160828D01*
X0159936Y0160528D01*
X0159919Y0160228D01*
X0159910Y0159928D01*
X0159908Y0159627D01*
X0159914Y0159327D01*
X0159926Y0159026D01*
X0159947Y0158727D01*
X0159974Y0158427D01*
X0160009Y0158129D01*
X0160051Y0157831D01*
X0160100Y0157535D01*
X0160157Y0157240D01*
X0160221Y0156946D01*
X0160291Y0156654D01*
X0160369Y0156364D01*
X0160455Y0156075D01*
X0160547Y0155789D01*
X0160646Y0155505D01*
X0160752Y0155224D01*
X0160865Y0154946D01*
X0160984Y0154670D01*
X0161111Y0154397D01*
X0161244Y0154128D01*
X0161383Y0153862D01*
X0161529Y0153599D01*
X0161681Y0153340D01*
X0161840Y0153084D01*
X0162005Y0152833D01*
X0162176Y0152586D01*
X0162353Y0152343D01*
X0162536Y0152104D01*
X0162724Y0151870D01*
X0162918Y0151641D01*
X0163118Y0151417D01*
X0163323Y0151197D01*
X0163534Y0150983D01*
X0163750Y0150773D01*
X0163970Y0150569D01*
X0164196Y0150371D01*
X0164427Y0150178D01*
X0164662Y0149991D01*
X0164901Y0149809D01*
X0165145Y0149634D01*
X0165394Y0149464D01*
X0165646Y0149301D01*
X0165902Y0149144D01*
X0166162Y0148993D01*
X0166426Y0148849D01*
X0166693Y0148711D01*
X0166963Y0148579D01*
X0167236Y0148455D01*
X0167513Y0148337D01*
X0167792Y0148226D01*
X0168074Y0148121D01*
X0168358Y0148024D01*
X0168645Y0147933D01*
X0168934Y0147850D01*
X0169224Y0147774D01*
X0169517Y0147704D01*
X0169811Y0147642D01*
X0170106Y0147588D01*
X0170403Y0147540D01*
X0170701Y0147500D01*
X0171000Y0147467D01*
X0171299Y0147441D01*
X0171599Y0147423D01*
X0171899Y0147412D01*
X0172200Y0147408D01*
X0172501Y0147412D01*
X0172801Y0147423D01*
X0173101Y0147441D01*
X0173400Y0147467D01*
X0173699Y0147500D01*
X0173997Y0147540D01*
X0174294Y0147588D01*
X0174589Y0147642D01*
X0174883Y0147704D01*
X0175176Y0147774D01*
X0175466Y0147850D01*
X0175755Y0147933D01*
X0176042Y0148024D01*
X0176326Y0148121D01*
X0176608Y0148226D01*
X0176887Y0148337D01*
X0177164Y0148455D01*
X0177437Y0148579D01*
X0177707Y0148711D01*
X0177974Y0148849D01*
X0178238Y0148993D01*
X0178498Y0149144D01*
X0178754Y0149301D01*
X0179006Y0149464D01*
X0179255Y0149634D01*
X0179499Y0149809D01*
X0179738Y0149991D01*
X0179973Y0150178D01*
X0180204Y0150371D01*
X0180430Y0150569D01*
X0180650Y0150773D01*
X0180866Y0150983D01*
X0181077Y0151197D01*
X0181282Y0151417D01*
X0181482Y0151641D01*
X0181676Y0151870D01*
X0181864Y0152104D01*
X0182047Y0152343D01*
X0182224Y0152586D01*
X0182395Y0152833D01*
X0182560Y0153084D01*
X0182719Y0153340D01*
X0182871Y0153599D01*
X0183017Y0153862D01*
X0183156Y0154128D01*
X0183289Y0154397D01*
X0183416Y0154670D01*
X0183535Y0154946D01*
X0183648Y0155224D01*
X0183754Y0155505D01*
X0183853Y0155789D01*
X0183945Y0156075D01*
X0184031Y0156364D01*
X0184109Y0156654D01*
X0184179Y0156946D01*
X0184243Y0157240D01*
X0184300Y0157535D01*
X0184349Y0157831D01*
X0184391Y0158129D01*
X0184426Y0158427D01*
X0184453Y0158727D01*
X0184474Y0159026D01*
X0184486Y0159327D01*
X0184492Y0159627D01*
X0184490Y0159928D01*
X0184481Y0160228D01*
X0184464Y0160528D01*
X0184440Y0160828D01*
X0184409Y0161127D01*
X0184370Y0161425D01*
X0184325Y0161722D01*
X0184272Y0162018D01*
X0184211Y0162312D01*
X0184144Y0162605D01*
X0184069Y0162896D01*
X0183987Y0163185D01*
X0183899Y0163473D01*
X0183803Y0163757D01*
X0183700Y0164040D01*
X0183591Y0164320D01*
X0183474Y0164597D01*
X0183351Y0164871D01*
X0183222Y0165142D01*
X0183085Y0165410D01*
X0182942Y0165674D01*
X0182793Y0165935D01*
X0182638Y0166192D01*
X0182476Y0166446D01*
X0182308Y0166695D01*
X0182134Y0166940D01*
X0181954Y0167181D01*
X0181768Y0167417D01*
X0181576Y0167648D01*
X0181379Y0167875D01*
X0181177Y0168097D01*
X0180969Y0168314D01*
X0180755Y0168526D01*
X0180537Y0168733D01*
X0180314Y0168934D01*
X0180085Y0169129D01*
X0179853Y0169319D01*
X0179615Y0169504D01*
X0179559Y0169428D01*
X0179794Y0169246D01*
X0180025Y0169057D01*
X0180252Y0168863D01*
X0180474Y0168663D01*
X0180690Y0168458D01*
X0180902Y0168248D01*
X0181108Y0168033D01*
X0181309Y0167813D01*
X0181505Y0167587D01*
X0181695Y0167358D01*
X0181879Y0167123D01*
X0182058Y0166884D01*
X0182231Y0166641D01*
X0182397Y0166394D01*
X0182558Y0166142D01*
X0182712Y0165887D01*
X0182860Y0165628D01*
X0183002Y0165366D01*
X0183137Y0165100D01*
X0183266Y0164831D01*
X0183388Y0164559D01*
X0183504Y0164284D01*
X0183613Y0164006D01*
X0183714Y0163726D01*
X0183809Y0163443D01*
X0183897Y0163158D01*
X0183978Y0162871D01*
X0184053Y0162583D01*
X0184119Y0162292D01*
X0184179Y0162000D01*
X0184232Y0161706D01*
X0184277Y0161411D01*
X0184316Y0161116D01*
X0184347Y0160819D01*
X0184370Y0160522D01*
X0184387Y0160224D01*
X0184396Y0159926D01*
X0184398Y0159628D01*
X0184392Y0159329D01*
X0184380Y0159031D01*
X0184360Y0158734D01*
X0184332Y0158437D01*
X0184298Y0158141D01*
X0184256Y0157845D01*
X0184207Y0157551D01*
X0184151Y0157258D01*
X0184088Y0156967D01*
X0184017Y0156677D01*
X0183940Y0156389D01*
X0183856Y0156103D01*
X0183764Y0155819D01*
X0183666Y0155537D01*
X0183561Y0155258D01*
X0183449Y0154982D01*
X0183330Y0154708D01*
X0183205Y0154438D01*
X0183073Y0154170D01*
X0182934Y0153906D01*
X0182789Y0153645D01*
X0182638Y0153388D01*
X0182481Y0153135D01*
X0182317Y0152886D01*
X0182147Y0152640D01*
X0181972Y0152399D01*
X0181790Y0152162D01*
X0181603Y0151930D01*
X0181411Y0151703D01*
X0181212Y0151480D01*
X0181009Y0151262D01*
X0180800Y0151049D01*
X0180586Y0150841D01*
X0180366Y0150639D01*
X0180143Y0150442D01*
X0179914Y0150251D01*
X0179680Y0150065D01*
X0179443Y0149885D01*
X0179201Y0149711D01*
X0178954Y0149543D01*
X0178704Y0149381D01*
X0178450Y0149225D01*
X0178192Y0149075D01*
X0177930Y0148932D01*
X0177665Y0148795D01*
X0177397Y0148664D01*
X0177126Y0148541D01*
X0176851Y0148424D01*
X0176574Y0148313D01*
X0176294Y0148210D01*
X0176012Y0148113D01*
X0175728Y0148023D01*
X0175441Y0147941D01*
X0175153Y0147865D01*
X0174863Y0147796D01*
X0174571Y0147735D01*
X0174278Y0147680D01*
X0173983Y0147633D01*
X0173688Y0147593D01*
X0173391Y0147560D01*
X0173094Y0147535D01*
X0172796Y0147517D01*
X0172498Y0147506D01*
X0172200Y0147502D01*
X0171902Y0147506D01*
X0171604Y0147517D01*
X0171306Y0147535D01*
X0171009Y0147560D01*
X0170712Y0147593D01*
X0170417Y0147633D01*
X0170122Y0147680D01*
X0169829Y0147735D01*
X0169537Y0147796D01*
X0169247Y0147865D01*
X0168959Y0147941D01*
X0168672Y0148023D01*
X0168388Y0148113D01*
X0168106Y0148210D01*
X0167826Y0148313D01*
X0167549Y0148424D01*
X0167274Y0148541D01*
X0167003Y0148664D01*
X0166735Y0148795D01*
X0166470Y0148932D01*
X0166208Y0149075D01*
X0165950Y0149225D01*
X0165696Y0149381D01*
X0165446Y0149543D01*
X0165199Y0149711D01*
X0164957Y0149885D01*
X0164720Y0150065D01*
X0164486Y0150251D01*
X0164257Y0150442D01*
X0164034Y0150639D01*
X0163814Y0150841D01*
X0163600Y0151049D01*
X0163391Y0151262D01*
X0163188Y0151480D01*
X0162989Y0151703D01*
X0162797Y0151930D01*
X0162610Y0152162D01*
X0162428Y0152399D01*
X0162253Y0152640D01*
X0162083Y0152886D01*
X0161919Y0153135D01*
X0161762Y0153388D01*
X0161611Y0153645D01*
X0161466Y0153906D01*
X0161327Y0154170D01*
X0161195Y0154438D01*
X0161070Y0154708D01*
X0160951Y0154982D01*
X0160839Y0155258D01*
X0160734Y0155537D01*
X0160636Y0155819D01*
X0160544Y0156103D01*
X0160460Y0156389D01*
X0160383Y0156677D01*
X0160312Y0156967D01*
X0160249Y0157258D01*
X0160193Y0157551D01*
X0160144Y0157845D01*
X0160102Y0158141D01*
X0160068Y0158437D01*
X0160040Y0158734D01*
X0160020Y0159031D01*
X0160008Y0159329D01*
X0160002Y0159628D01*
X0160004Y0159926D01*
X0160013Y0160224D01*
X0160030Y0160522D01*
X0160053Y0160819D01*
X0160084Y0161116D01*
X0160123Y0161411D01*
X0160168Y0161706D01*
X0160221Y0162000D01*
X0160281Y0162292D01*
X0160347Y0162583D01*
X0160422Y0162871D01*
X0160503Y0163158D01*
X0160591Y0163443D01*
X0160686Y0163726D01*
X0160787Y0164006D01*
X0160896Y0164284D01*
X0161012Y0164559D01*
X0161134Y0164831D01*
X0161263Y0165100D01*
X0161398Y0165366D01*
X0161540Y0165628D01*
X0161688Y0165887D01*
X0161842Y0166142D01*
X0162003Y0166394D01*
X0162169Y0166641D01*
X0162342Y0166884D01*
X0162521Y0167123D01*
X0162705Y0167358D01*
X0162895Y0167587D01*
X0163091Y0167813D01*
X0163292Y0168033D01*
X0163498Y0168248D01*
X0163710Y0168458D01*
X0163926Y0168663D01*
X0164148Y0168863D01*
X0164375Y0169057D01*
X0164606Y0169246D01*
X0164841Y0169428D01*
X0164898Y0169353D01*
X0164664Y0169172D01*
X0164435Y0168985D01*
X0164210Y0168792D01*
X0163990Y0168594D01*
X0163775Y0168391D01*
X0163565Y0168182D01*
X0163360Y0167968D01*
X0163161Y0167750D01*
X0162967Y0167526D01*
X0162778Y0167298D01*
X0162595Y0167066D01*
X0162418Y0166829D01*
X0162247Y0166587D01*
X0162081Y0166342D01*
X0161922Y0166093D01*
X0161769Y0165839D01*
X0161622Y0165583D01*
X0161481Y0165322D01*
X0161347Y0165058D01*
X0161219Y0164791D01*
X0161098Y0164521D01*
X0160983Y0164249D01*
X0160875Y0163973D01*
X0160774Y0163695D01*
X0160680Y0163414D01*
X0160593Y0163132D01*
X0160512Y0162847D01*
X0160439Y0162560D01*
X0160372Y0162272D01*
X0160313Y0161982D01*
X0160261Y0161690D01*
X0160216Y0161398D01*
X0160178Y0161104D01*
X0160147Y0160810D01*
X0160123Y0160515D01*
X0160107Y0160220D01*
X0160098Y0159924D01*
X0160096Y0159628D01*
X0160102Y0159332D01*
X0160114Y0159036D01*
X0160134Y0158741D01*
X0160161Y0158446D01*
X0160195Y0158152D01*
X0160237Y0157859D01*
X0160285Y0157567D01*
X0160341Y0157277D01*
X0160404Y0156988D01*
X0160474Y0156700D01*
X0160551Y0156414D01*
X0160634Y0156130D01*
X0160725Y0155849D01*
X0160823Y0155569D01*
X0160927Y0155292D01*
X0161038Y0155018D01*
X0161156Y0154747D01*
X0161280Y0154478D01*
X0161411Y0154213D01*
X0161549Y0153951D01*
X0161692Y0153692D01*
X0161842Y0153437D01*
X0161999Y0153185D01*
X0162161Y0152938D01*
X0162329Y0152695D01*
X0162504Y0152455D01*
X0162684Y0152220D01*
X0162869Y0151990D01*
X0163061Y0151764D01*
X0163257Y0151543D01*
X0163459Y0151327D01*
X0163667Y0151116D01*
X0163879Y0150910D01*
X0164097Y0150709D01*
X0164319Y0150513D01*
X0164546Y0150323D01*
X0164777Y0150139D01*
X0165013Y0149961D01*
X0165253Y0149788D01*
X0165498Y0149621D01*
X0165746Y0149460D01*
X0165999Y0149305D01*
X0166255Y0149157D01*
X0166514Y0149015D01*
X0166777Y0148879D01*
X0167043Y0148749D01*
X0167312Y0148627D01*
X0167585Y0148510D01*
X0167860Y0148401D01*
X0168137Y0148298D01*
X0168417Y0148202D01*
X0168699Y0148113D01*
X0168984Y0148031D01*
X0169270Y0147956D01*
X0169558Y0147888D01*
X0169847Y0147827D01*
X0170138Y0147773D01*
X0170431Y0147726D01*
X0170724Y0147686D01*
X0171018Y0147654D01*
X0171313Y0147629D01*
X0171608Y0147610D01*
X0171904Y0147600D01*
X0172200Y0147596D01*
X0172496Y0147600D01*
X0172792Y0147610D01*
X0173087Y0147629D01*
X0173382Y0147654D01*
X0173676Y0147686D01*
X0173969Y0147726D01*
X0174262Y0147773D01*
X0174553Y0147827D01*
X0174842Y0147888D01*
X0175130Y0147956D01*
X0175416Y0148031D01*
X0175701Y0148113D01*
X0175983Y0148202D01*
X0176263Y0148298D01*
X0176540Y0148401D01*
X0176815Y0148510D01*
X0177088Y0148627D01*
X0177357Y0148749D01*
X0177623Y0148879D01*
X0177886Y0149015D01*
X0178145Y0149157D01*
X0178401Y0149305D01*
X0178654Y0149460D01*
X0178902Y0149621D01*
X0179147Y0149788D01*
X0179387Y0149961D01*
X0179623Y0150139D01*
X0179854Y0150323D01*
X0180081Y0150513D01*
X0180303Y0150709D01*
X0180521Y0150910D01*
X0180733Y0151116D01*
X0180941Y0151327D01*
X0181143Y0151543D01*
X0181339Y0151764D01*
X0181531Y0151990D01*
X0181716Y0152220D01*
X0181896Y0152455D01*
X0182071Y0152695D01*
X0182239Y0152938D01*
X0182401Y0153185D01*
X0182558Y0153437D01*
X0182708Y0153692D01*
X0182851Y0153951D01*
X0182989Y0154213D01*
X0183120Y0154478D01*
X0183244Y0154747D01*
X0183362Y0155018D01*
X0183473Y0155292D01*
X0183577Y0155569D01*
X0183675Y0155849D01*
X0183766Y0156130D01*
X0183849Y0156414D01*
X0183926Y0156700D01*
X0183996Y0156988D01*
X0184059Y0157277D01*
X0184115Y0157567D01*
X0184163Y0157859D01*
X0184205Y0158152D01*
X0184239Y0158446D01*
X0184266Y0158741D01*
X0184286Y0159036D01*
X0184298Y0159332D01*
X0184304Y0159628D01*
X0184302Y0159924D01*
X0184293Y0160220D01*
X0184277Y0160515D01*
X0184253Y0160810D01*
X0184222Y0161104D01*
X0184184Y0161398D01*
X0184139Y0161690D01*
X0184087Y0161982D01*
X0184028Y0162272D01*
X0183961Y0162560D01*
X0183888Y0162847D01*
X0183807Y0163132D01*
X0183720Y0163414D01*
X0183626Y0163695D01*
X0183525Y0163973D01*
X0183417Y0164249D01*
X0183302Y0164521D01*
X0183181Y0164791D01*
X0183053Y0165058D01*
X0182919Y0165322D01*
X0182778Y0165583D01*
X0182631Y0165839D01*
X0182478Y0166093D01*
X0182319Y0166342D01*
X0182153Y0166587D01*
X0181982Y0166829D01*
X0181805Y0167066D01*
X0181622Y0167298D01*
X0181433Y0167526D01*
X0181239Y0167750D01*
X0181040Y0167968D01*
X0180835Y0168182D01*
X0180625Y0168391D01*
X0180410Y0168594D01*
X0180190Y0168792D01*
X0179965Y0168985D01*
X0179736Y0169172D01*
X0179502Y0169353D01*
D14*
X0184700Y0177200D02*
X0184700Y0182200D01*
X0179700Y0182200D01*
X0179700Y0192200D01*
X0184700Y0192200D01*
X0184700Y0182200D01*
X0184700Y0177200D02*
X0162700Y0177200D01*
X0162700Y0197200D01*
X0184700Y0197200D01*
X0184700Y0192200D01*
X0161450Y0179772D02*
X0161450Y0179244D01*
X0161450Y0179772D02*
X0161448Y0179817D01*
X0161442Y0179861D01*
X0161433Y0179905D01*
X0161420Y0179948D01*
X0161403Y0179989D01*
X0161383Y0180030D01*
X0161359Y0180068D01*
X0161333Y0180104D01*
X0161303Y0180137D01*
X0161271Y0180168D01*
X0161236Y0180197D01*
X0161199Y0180222D01*
X0161160Y0180243D01*
X0161119Y0180262D01*
X0161077Y0180277D01*
X0161033Y0180288D01*
X0160989Y0180296D01*
X0160944Y0180300D01*
X0160900Y0180300D01*
X0160855Y0180296D01*
X0160811Y0180288D01*
X0160767Y0180277D01*
X0160725Y0180262D01*
X0160684Y0180243D01*
X0160645Y0180222D01*
X0160608Y0180197D01*
X0160573Y0180168D01*
X0160541Y0180137D01*
X0160511Y0180104D01*
X0160485Y0180068D01*
X0160461Y0180030D01*
X0160441Y0179989D01*
X0160424Y0179948D01*
X0160411Y0179905D01*
X0160402Y0179861D01*
X0160396Y0179817D01*
X0160394Y0179772D01*
X0160394Y0179877D02*
X0160394Y0179455D01*
X0160394Y0179877D02*
X0160392Y0179917D01*
X0160386Y0179957D01*
X0160377Y0179996D01*
X0160364Y0180034D01*
X0160347Y0180070D01*
X0160327Y0180105D01*
X0160304Y0180138D01*
X0160277Y0180168D01*
X0160248Y0180196D01*
X0160217Y0180221D01*
X0160183Y0180242D01*
X0160147Y0180261D01*
X0160110Y0180276D01*
X0160071Y0180287D01*
X0160032Y0180295D01*
X0159992Y0180299D01*
X0159952Y0180299D01*
X0159912Y0180295D01*
X0159873Y0180287D01*
X0159834Y0180276D01*
X0159797Y0180261D01*
X0159761Y0180242D01*
X0159727Y0180221D01*
X0159696Y0180196D01*
X0159667Y0180168D01*
X0159640Y0180138D01*
X0159617Y0180105D01*
X0159597Y0180070D01*
X0159580Y0180034D01*
X0159567Y0179996D01*
X0159558Y0179957D01*
X0159552Y0179917D01*
X0159550Y0179877D01*
X0159550Y0179244D01*
X0159550Y0178083D02*
X0161028Y0178083D01*
X0161067Y0178081D01*
X0161106Y0178076D01*
X0161143Y0178067D01*
X0161180Y0178055D01*
X0161216Y0178039D01*
X0161250Y0178020D01*
X0161282Y0177998D01*
X0161312Y0177973D01*
X0161340Y0177945D01*
X0161365Y0177915D01*
X0161387Y0177883D01*
X0161406Y0177849D01*
X0161422Y0177813D01*
X0161434Y0177776D01*
X0161443Y0177739D01*
X0161448Y0177700D01*
X0161450Y0177661D01*
X0161450Y0177450D01*
X0158600Y0161344D02*
X0158600Y0160288D01*
X0158600Y0160816D02*
X0156700Y0160816D01*
X0157122Y0160288D01*
X0157228Y0159112D02*
X0158072Y0159112D01*
X0158116Y0159110D01*
X0158159Y0159105D01*
X0158202Y0159096D01*
X0158243Y0159083D01*
X0158284Y0159068D01*
X0158323Y0159048D01*
X0158361Y0159026D01*
X0158396Y0159001D01*
X0158430Y0158972D01*
X0158460Y0158942D01*
X0158489Y0158908D01*
X0158514Y0158873D01*
X0158536Y0158835D01*
X0158556Y0158796D01*
X0158571Y0158755D01*
X0158584Y0158714D01*
X0158593Y0158671D01*
X0158598Y0158628D01*
X0158600Y0158584D01*
X0158600Y0158056D01*
X0156700Y0158056D01*
X0156700Y0158584D01*
X0156702Y0158628D01*
X0156707Y0158671D01*
X0156716Y0158714D01*
X0156729Y0158755D01*
X0156744Y0158796D01*
X0156764Y0158835D01*
X0156786Y0158873D01*
X0156811Y0158908D01*
X0156840Y0158942D01*
X0156870Y0158972D01*
X0156904Y0159001D01*
X0156939Y0159026D01*
X0156977Y0159048D01*
X0157016Y0159068D01*
X0157057Y0159083D01*
X0157098Y0159096D01*
X0157141Y0159105D01*
X0157184Y0159110D01*
X0157228Y0159112D01*
X0151592Y0151450D02*
X0151657Y0151448D01*
X0151723Y0151442D01*
X0151787Y0151433D01*
X0151851Y0151420D01*
X0151915Y0151403D01*
X0151977Y0151382D01*
X0152038Y0151358D01*
X0152097Y0151330D01*
X0152155Y0151299D01*
X0152210Y0151265D01*
X0152264Y0151227D01*
X0152315Y0151187D01*
X0152364Y0151143D01*
X0152410Y0151097D01*
X0152454Y0151048D01*
X0152494Y0150997D01*
X0152532Y0150943D01*
X0152566Y0150888D01*
X0152597Y0150830D01*
X0152625Y0150771D01*
X0152649Y0150710D01*
X0152670Y0150648D01*
X0152687Y0150584D01*
X0152700Y0150520D01*
X0152709Y0150456D01*
X0152715Y0150390D01*
X0152717Y0150325D01*
X0152342Y0149450D02*
X0150217Y0146950D01*
X0152717Y0146950D01*
X0150217Y0150450D02*
X0150241Y0150519D01*
X0150269Y0150586D01*
X0150300Y0150652D01*
X0150334Y0150716D01*
X0150371Y0150778D01*
X0150412Y0150839D01*
X0150455Y0150897D01*
X0150501Y0150953D01*
X0150551Y0151007D01*
X0150602Y0151058D01*
X0150656Y0151106D01*
X0150713Y0151152D01*
X0150772Y0151195D01*
X0150833Y0151234D01*
X0150895Y0151271D01*
X0150960Y0151304D01*
X0151026Y0151335D01*
X0151094Y0151361D01*
X0151162Y0151385D01*
X0151232Y0151405D01*
X0151303Y0151421D01*
X0151375Y0151434D01*
X0151447Y0151443D01*
X0151519Y0151448D01*
X0151592Y0151450D01*
X0152717Y0150325D02*
X0152715Y0150260D01*
X0152710Y0150195D01*
X0152701Y0150130D01*
X0152689Y0150066D01*
X0152673Y0150003D01*
X0152654Y0149941D01*
X0152632Y0149879D01*
X0152606Y0149819D01*
X0152577Y0149761D01*
X0152545Y0149704D01*
X0152510Y0149649D01*
X0152472Y0149596D01*
X0152432Y0149545D01*
X0152388Y0149496D01*
X0152342Y0149450D01*
X0148250Y0146950D02*
X0147250Y0148950D01*
X0147000Y0148950D02*
X0145750Y0148950D01*
X0147000Y0148950D02*
X0147069Y0148952D01*
X0147138Y0148958D01*
X0147206Y0148967D01*
X0147273Y0148980D01*
X0147340Y0148997D01*
X0147406Y0149018D01*
X0147470Y0149042D01*
X0147533Y0149070D01*
X0147595Y0149101D01*
X0147655Y0149135D01*
X0147712Y0149173D01*
X0147768Y0149214D01*
X0147821Y0149257D01*
X0147872Y0149304D01*
X0147920Y0149353D01*
X0147965Y0149405D01*
X0148007Y0149460D01*
X0148046Y0149516D01*
X0148083Y0149575D01*
X0148115Y0149636D01*
X0148145Y0149698D01*
X0148171Y0149762D01*
X0148193Y0149827D01*
X0148212Y0149893D01*
X0148227Y0149960D01*
X0148238Y0150028D01*
X0148246Y0150097D01*
X0148250Y0150166D01*
X0148250Y0150234D01*
X0148246Y0150303D01*
X0148238Y0150372D01*
X0148227Y0150440D01*
X0148212Y0150507D01*
X0148193Y0150573D01*
X0148171Y0150638D01*
X0148145Y0150702D01*
X0148115Y0150764D01*
X0148083Y0150825D01*
X0148046Y0150884D01*
X0148007Y0150940D01*
X0147965Y0150995D01*
X0147920Y0151047D01*
X0147872Y0151096D01*
X0147821Y0151143D01*
X0147768Y0151186D01*
X0147712Y0151227D01*
X0147655Y0151265D01*
X0147595Y0151299D01*
X0147533Y0151330D01*
X0147470Y0151358D01*
X0147406Y0151382D01*
X0147340Y0151403D01*
X0147273Y0151420D01*
X0147206Y0151433D01*
X0147138Y0151442D01*
X0147069Y0151448D01*
X0147000Y0151450D01*
X0145750Y0151450D01*
X0145750Y0146950D01*
X0153750Y0121950D02*
X0155000Y0121950D01*
X0153750Y0121950D02*
X0153750Y0117450D01*
X0153750Y0119450D02*
X0155000Y0119450D01*
X0155250Y0119450D02*
X0156250Y0117450D01*
X0158217Y0117450D02*
X0159467Y0117450D01*
X0159536Y0117452D01*
X0159605Y0117458D01*
X0159673Y0117467D01*
X0159740Y0117480D01*
X0159807Y0117497D01*
X0159873Y0117518D01*
X0159937Y0117542D01*
X0160000Y0117570D01*
X0160062Y0117601D01*
X0160122Y0117635D01*
X0160179Y0117673D01*
X0160235Y0117714D01*
X0160288Y0117757D01*
X0160339Y0117804D01*
X0160387Y0117853D01*
X0160432Y0117905D01*
X0160474Y0117960D01*
X0160513Y0118016D01*
X0160550Y0118075D01*
X0160582Y0118136D01*
X0160612Y0118198D01*
X0160638Y0118262D01*
X0160660Y0118327D01*
X0160679Y0118393D01*
X0160694Y0118460D01*
X0160705Y0118528D01*
X0160713Y0118597D01*
X0160717Y0118666D01*
X0160717Y0118734D01*
X0160713Y0118803D01*
X0160705Y0118872D01*
X0160694Y0118940D01*
X0160679Y0119007D01*
X0160660Y0119073D01*
X0160638Y0119138D01*
X0160612Y0119202D01*
X0160582Y0119264D01*
X0160550Y0119325D01*
X0160513Y0119384D01*
X0160474Y0119440D01*
X0160432Y0119495D01*
X0160387Y0119547D01*
X0160339Y0119596D01*
X0160288Y0119643D01*
X0160235Y0119686D01*
X0160179Y0119727D01*
X0160122Y0119765D01*
X0160062Y0119799D01*
X0160000Y0119830D01*
X0159937Y0119858D01*
X0159873Y0119882D01*
X0159807Y0119903D01*
X0159740Y0119920D01*
X0159673Y0119933D01*
X0159605Y0119942D01*
X0159536Y0119948D01*
X0159467Y0119950D01*
X0159717Y0119950D02*
X0158717Y0119950D01*
X0159717Y0119950D02*
X0159779Y0119952D01*
X0159840Y0119958D01*
X0159901Y0119967D01*
X0159961Y0119980D01*
X0160020Y0119997D01*
X0160078Y0120018D01*
X0160135Y0120042D01*
X0160190Y0120069D01*
X0160243Y0120100D01*
X0160295Y0120134D01*
X0160344Y0120171D01*
X0160391Y0120211D01*
X0160435Y0120254D01*
X0160476Y0120299D01*
X0160515Y0120347D01*
X0160551Y0120398D01*
X0160583Y0120450D01*
X0160612Y0120504D01*
X0160638Y0120560D01*
X0160660Y0120618D01*
X0160679Y0120676D01*
X0160694Y0120736D01*
X0160705Y0120797D01*
X0160713Y0120858D01*
X0160717Y0120919D01*
X0160717Y0120981D01*
X0160713Y0121042D01*
X0160705Y0121103D01*
X0160694Y0121164D01*
X0160679Y0121224D01*
X0160660Y0121282D01*
X0160638Y0121340D01*
X0160612Y0121396D01*
X0160583Y0121450D01*
X0160551Y0121502D01*
X0160515Y0121553D01*
X0160476Y0121601D01*
X0160435Y0121646D01*
X0160391Y0121689D01*
X0160344Y0121729D01*
X0160295Y0121766D01*
X0160243Y0121800D01*
X0160190Y0121831D01*
X0160135Y0121858D01*
X0160078Y0121882D01*
X0160020Y0121903D01*
X0159961Y0121920D01*
X0159901Y0121933D01*
X0159840Y0121942D01*
X0159779Y0121948D01*
X0159717Y0121950D01*
X0158217Y0121950D01*
X0155000Y0121950D02*
X0155069Y0121948D01*
X0155138Y0121942D01*
X0155206Y0121933D01*
X0155273Y0121920D01*
X0155340Y0121903D01*
X0155406Y0121882D01*
X0155470Y0121858D01*
X0155533Y0121830D01*
X0155595Y0121799D01*
X0155655Y0121765D01*
X0155712Y0121727D01*
X0155768Y0121686D01*
X0155821Y0121643D01*
X0155872Y0121596D01*
X0155920Y0121547D01*
X0155965Y0121495D01*
X0156007Y0121440D01*
X0156046Y0121384D01*
X0156083Y0121325D01*
X0156115Y0121264D01*
X0156145Y0121202D01*
X0156171Y0121138D01*
X0156193Y0121073D01*
X0156212Y0121007D01*
X0156227Y0120940D01*
X0156238Y0120872D01*
X0156246Y0120803D01*
X0156250Y0120734D01*
X0156250Y0120666D01*
X0156246Y0120597D01*
X0156238Y0120528D01*
X0156227Y0120460D01*
X0156212Y0120393D01*
X0156193Y0120327D01*
X0156171Y0120262D01*
X0156145Y0120198D01*
X0156115Y0120136D01*
X0156083Y0120075D01*
X0156046Y0120016D01*
X0156007Y0119960D01*
X0155965Y0119905D01*
X0155920Y0119853D01*
X0155872Y0119804D01*
X0155821Y0119757D01*
X0155768Y0119714D01*
X0155712Y0119673D01*
X0155655Y0119635D01*
X0155595Y0119601D01*
X0155533Y0119570D01*
X0155470Y0119542D01*
X0155406Y0119518D01*
X0155340Y0119497D01*
X0155273Y0119480D01*
X0155206Y0119467D01*
X0155138Y0119458D01*
X0155069Y0119452D01*
X0155000Y0119450D01*
X0178750Y0143950D02*
X0178750Y0148450D01*
X0180000Y0148450D01*
X0180069Y0148448D01*
X0180138Y0148442D01*
X0180206Y0148433D01*
X0180273Y0148420D01*
X0180340Y0148403D01*
X0180406Y0148382D01*
X0180470Y0148358D01*
X0180533Y0148330D01*
X0180595Y0148299D01*
X0180655Y0148265D01*
X0180712Y0148227D01*
X0180768Y0148186D01*
X0180821Y0148143D01*
X0180872Y0148096D01*
X0180920Y0148047D01*
X0180965Y0147995D01*
X0181007Y0147940D01*
X0181046Y0147884D01*
X0181083Y0147825D01*
X0181115Y0147764D01*
X0181145Y0147702D01*
X0181171Y0147638D01*
X0181193Y0147573D01*
X0181212Y0147507D01*
X0181227Y0147440D01*
X0181238Y0147372D01*
X0181246Y0147303D01*
X0181250Y0147234D01*
X0181250Y0147166D01*
X0181246Y0147097D01*
X0181238Y0147028D01*
X0181227Y0146960D01*
X0181212Y0146893D01*
X0181193Y0146827D01*
X0181171Y0146762D01*
X0181145Y0146698D01*
X0181115Y0146636D01*
X0181083Y0146575D01*
X0181046Y0146516D01*
X0181007Y0146460D01*
X0180965Y0146405D01*
X0180920Y0146353D01*
X0180872Y0146304D01*
X0180821Y0146257D01*
X0180768Y0146214D01*
X0180712Y0146173D01*
X0180655Y0146135D01*
X0180595Y0146101D01*
X0180533Y0146070D01*
X0180470Y0146042D01*
X0180406Y0146018D01*
X0180340Y0145997D01*
X0180273Y0145980D01*
X0180206Y0145967D01*
X0180138Y0145958D01*
X0180069Y0145952D01*
X0180000Y0145950D01*
X0178750Y0145950D01*
X0180250Y0145950D02*
X0181250Y0143950D01*
X0183217Y0144950D02*
X0185717Y0144950D01*
X0184967Y0145950D02*
X0184967Y0143950D01*
X0183217Y0144950D02*
X0184217Y0148450D01*
X0118950Y0198950D02*
X0116450Y0198950D01*
X0117700Y0198950D02*
X0117700Y0203450D01*
X0116450Y0202450D01*
X0114685Y0203450D02*
X0113685Y0203450D01*
X0113625Y0203448D01*
X0113564Y0203443D01*
X0113505Y0203434D01*
X0113446Y0203421D01*
X0113387Y0203405D01*
X0113330Y0203385D01*
X0113275Y0203362D01*
X0113220Y0203335D01*
X0113168Y0203306D01*
X0113117Y0203273D01*
X0113068Y0203237D01*
X0113022Y0203199D01*
X0112978Y0203157D01*
X0112936Y0203113D01*
X0112898Y0203067D01*
X0112862Y0203018D01*
X0112829Y0202967D01*
X0112800Y0202915D01*
X0112773Y0202860D01*
X0112750Y0202805D01*
X0112730Y0202748D01*
X0112714Y0202689D01*
X0112701Y0202630D01*
X0112692Y0202571D01*
X0112687Y0202510D01*
X0112685Y0202450D01*
X0112685Y0199950D01*
X0112687Y0199890D01*
X0112692Y0199829D01*
X0112701Y0199770D01*
X0112714Y0199711D01*
X0112730Y0199652D01*
X0112750Y0199595D01*
X0112773Y0199540D01*
X0112800Y0199485D01*
X0112829Y0199433D01*
X0112862Y0199382D01*
X0112898Y0199333D01*
X0112936Y0199287D01*
X0112978Y0199243D01*
X0113022Y0199201D01*
X0113068Y0199163D01*
X0113117Y0199127D01*
X0113168Y0199094D01*
X0113220Y0199065D01*
X0113275Y0199038D01*
X0113330Y0199015D01*
X0113387Y0198995D01*
X0113446Y0198979D01*
X0113505Y0198966D01*
X0113564Y0198957D01*
X0113625Y0198952D01*
X0113685Y0198950D01*
X0114685Y0198950D01*
X0015799Y0218450D02*
X0014744Y0218450D01*
X0015272Y0218450D02*
X0015272Y0220350D01*
X0014744Y0219928D01*
X0013583Y0220350D02*
X0013583Y0218872D01*
X0013581Y0218833D01*
X0013576Y0218794D01*
X0013567Y0218757D01*
X0013555Y0218720D01*
X0013539Y0218684D01*
X0013520Y0218650D01*
X0013498Y0218618D01*
X0013473Y0218588D01*
X0013445Y0218560D01*
X0013415Y0218535D01*
X0013383Y0218513D01*
X0013349Y0218494D01*
X0013313Y0218478D01*
X0013276Y0218466D01*
X0013239Y0218457D01*
X0013200Y0218452D01*
X0013161Y0218450D01*
X0012950Y0218450D01*
X0013583Y0135350D02*
X0013583Y0133872D01*
X0013581Y0133833D01*
X0013576Y0133794D01*
X0013567Y0133757D01*
X0013555Y0133720D01*
X0013539Y0133684D01*
X0013520Y0133650D01*
X0013498Y0133618D01*
X0013473Y0133588D01*
X0013445Y0133560D01*
X0013415Y0133535D01*
X0013383Y0133513D01*
X0013349Y0133494D01*
X0013313Y0133478D01*
X0013276Y0133466D01*
X0013239Y0133457D01*
X0013200Y0133452D01*
X0013161Y0133450D01*
X0012950Y0133450D01*
X0014744Y0133450D02*
X0015799Y0133450D01*
X0014744Y0133450D02*
X0015641Y0134506D01*
X0015324Y0135350D02*
X0015276Y0135348D01*
X0015229Y0135342D01*
X0015181Y0135333D01*
X0015135Y0135320D01*
X0015090Y0135303D01*
X0015047Y0135283D01*
X0015005Y0135260D01*
X0014965Y0135233D01*
X0014928Y0135204D01*
X0014892Y0135171D01*
X0014860Y0135136D01*
X0014830Y0135098D01*
X0014804Y0135058D01*
X0014780Y0135016D01*
X0014760Y0134973D01*
X0014744Y0134928D01*
X0015641Y0134506D02*
X0015669Y0134535D01*
X0015696Y0134567D01*
X0015719Y0134601D01*
X0015740Y0134637D01*
X0015758Y0134674D01*
X0015772Y0134713D01*
X0015784Y0134752D01*
X0015792Y0134793D01*
X0015797Y0134834D01*
X0015799Y0134875D01*
X0015797Y0134916D01*
X0015792Y0134957D01*
X0015783Y0134998D01*
X0015770Y0135037D01*
X0015754Y0135076D01*
X0015735Y0135113D01*
X0015713Y0135147D01*
X0015688Y0135180D01*
X0015660Y0135211D01*
X0015629Y0135239D01*
X0015596Y0135264D01*
X0015562Y0135286D01*
X0015525Y0135305D01*
X0015486Y0135321D01*
X0015447Y0135334D01*
X0015406Y0135343D01*
X0015365Y0135348D01*
X0015324Y0135350D01*
X0035528Y0015799D02*
X0035528Y0014744D01*
X0034050Y0015166D01*
X0035106Y0015483D02*
X0035950Y0015483D01*
X0035528Y0013583D02*
X0034050Y0013583D01*
X0035528Y0013583D02*
X0035567Y0013581D01*
X0035606Y0013576D01*
X0035643Y0013567D01*
X0035680Y0013555D01*
X0035716Y0013539D01*
X0035750Y0013520D01*
X0035782Y0013498D01*
X0035812Y0013473D01*
X0035840Y0013445D01*
X0035865Y0013415D01*
X0035887Y0013383D01*
X0035906Y0013349D01*
X0035922Y0013313D01*
X0035934Y0013276D01*
X0035943Y0013239D01*
X0035948Y0013200D01*
X0035950Y0013161D01*
X0035950Y0012950D01*
X0117683Y0058450D02*
X0117683Y0062950D01*
X0118933Y0062950D01*
X0119002Y0062948D01*
X0119071Y0062942D01*
X0119139Y0062933D01*
X0119206Y0062920D01*
X0119273Y0062903D01*
X0119339Y0062882D01*
X0119403Y0062858D01*
X0119466Y0062830D01*
X0119528Y0062799D01*
X0119588Y0062765D01*
X0119645Y0062727D01*
X0119701Y0062686D01*
X0119754Y0062643D01*
X0119805Y0062596D01*
X0119853Y0062547D01*
X0119898Y0062495D01*
X0119940Y0062440D01*
X0119979Y0062384D01*
X0120016Y0062325D01*
X0120048Y0062264D01*
X0120078Y0062202D01*
X0120104Y0062138D01*
X0120126Y0062073D01*
X0120145Y0062007D01*
X0120160Y0061940D01*
X0120171Y0061872D01*
X0120179Y0061803D01*
X0120183Y0061734D01*
X0120183Y0061666D01*
X0120179Y0061597D01*
X0120171Y0061528D01*
X0120160Y0061460D01*
X0120145Y0061393D01*
X0120126Y0061327D01*
X0120104Y0061262D01*
X0120078Y0061198D01*
X0120048Y0061136D01*
X0120016Y0061075D01*
X0119979Y0061016D01*
X0119940Y0060960D01*
X0119898Y0060905D01*
X0119853Y0060853D01*
X0119805Y0060804D01*
X0119754Y0060757D01*
X0119701Y0060714D01*
X0119645Y0060673D01*
X0119588Y0060635D01*
X0119528Y0060601D01*
X0119466Y0060570D01*
X0119403Y0060542D01*
X0119339Y0060518D01*
X0119273Y0060497D01*
X0119206Y0060480D01*
X0119139Y0060467D01*
X0119071Y0060458D01*
X0119002Y0060452D01*
X0118933Y0060450D01*
X0117683Y0060450D01*
X0119183Y0060450D02*
X0120183Y0058450D01*
X0122150Y0058450D02*
X0123650Y0058450D01*
X0123710Y0058452D01*
X0123771Y0058457D01*
X0123830Y0058466D01*
X0123889Y0058479D01*
X0123948Y0058495D01*
X0124005Y0058515D01*
X0124060Y0058538D01*
X0124115Y0058565D01*
X0124167Y0058594D01*
X0124218Y0058627D01*
X0124267Y0058663D01*
X0124313Y0058701D01*
X0124357Y0058743D01*
X0124399Y0058787D01*
X0124437Y0058833D01*
X0124473Y0058882D01*
X0124506Y0058933D01*
X0124535Y0058985D01*
X0124562Y0059040D01*
X0124585Y0059095D01*
X0124605Y0059152D01*
X0124621Y0059211D01*
X0124634Y0059270D01*
X0124643Y0059329D01*
X0124648Y0059390D01*
X0124650Y0059450D01*
X0124650Y0059950D01*
X0124648Y0060010D01*
X0124643Y0060071D01*
X0124634Y0060130D01*
X0124621Y0060189D01*
X0124605Y0060248D01*
X0124585Y0060305D01*
X0124562Y0060360D01*
X0124535Y0060415D01*
X0124506Y0060467D01*
X0124473Y0060518D01*
X0124437Y0060567D01*
X0124399Y0060613D01*
X0124357Y0060657D01*
X0124313Y0060699D01*
X0124267Y0060737D01*
X0124218Y0060773D01*
X0124167Y0060806D01*
X0124115Y0060835D01*
X0124060Y0060862D01*
X0124005Y0060885D01*
X0123948Y0060905D01*
X0123889Y0060921D01*
X0123830Y0060934D01*
X0123771Y0060943D01*
X0123710Y0060948D01*
X0123650Y0060950D01*
X0122150Y0060950D01*
X0122150Y0062950D01*
X0124650Y0062950D01*
X0130183Y0062950D02*
X0130183Y0058450D01*
X0130183Y0060450D02*
X0131433Y0060450D01*
X0131683Y0060450D02*
X0132683Y0058450D01*
X0134650Y0058450D02*
X0137150Y0058450D01*
X0135900Y0058450D02*
X0135900Y0062950D01*
X0134650Y0061950D01*
X0131433Y0062950D02*
X0131502Y0062948D01*
X0131571Y0062942D01*
X0131639Y0062933D01*
X0131706Y0062920D01*
X0131773Y0062903D01*
X0131839Y0062882D01*
X0131903Y0062858D01*
X0131966Y0062830D01*
X0132028Y0062799D01*
X0132088Y0062765D01*
X0132145Y0062727D01*
X0132201Y0062686D01*
X0132254Y0062643D01*
X0132305Y0062596D01*
X0132353Y0062547D01*
X0132398Y0062495D01*
X0132440Y0062440D01*
X0132479Y0062384D01*
X0132516Y0062325D01*
X0132548Y0062264D01*
X0132578Y0062202D01*
X0132604Y0062138D01*
X0132626Y0062073D01*
X0132645Y0062007D01*
X0132660Y0061940D01*
X0132671Y0061872D01*
X0132679Y0061803D01*
X0132683Y0061734D01*
X0132683Y0061666D01*
X0132679Y0061597D01*
X0132671Y0061528D01*
X0132660Y0061460D01*
X0132645Y0061393D01*
X0132626Y0061327D01*
X0132604Y0061262D01*
X0132578Y0061198D01*
X0132548Y0061136D01*
X0132516Y0061075D01*
X0132479Y0061016D01*
X0132440Y0060960D01*
X0132398Y0060905D01*
X0132353Y0060853D01*
X0132305Y0060804D01*
X0132254Y0060757D01*
X0132201Y0060714D01*
X0132145Y0060673D01*
X0132088Y0060635D01*
X0132028Y0060601D01*
X0131966Y0060570D01*
X0131903Y0060542D01*
X0131839Y0060518D01*
X0131773Y0060497D01*
X0131706Y0060480D01*
X0131639Y0060467D01*
X0131571Y0060458D01*
X0131502Y0060452D01*
X0131433Y0060450D01*
X0131433Y0062950D02*
X0130183Y0062950D01*
X0183450Y0044450D02*
X0183450Y0043394D01*
X0183661Y0043394D01*
X0183450Y0044450D02*
X0185350Y0043922D01*
X0184928Y0042234D02*
X0183450Y0042234D01*
X0184928Y0042234D02*
X0184967Y0042232D01*
X0185006Y0042227D01*
X0185043Y0042218D01*
X0185080Y0042206D01*
X0185116Y0042190D01*
X0185150Y0042171D01*
X0185182Y0042149D01*
X0185212Y0042124D01*
X0185240Y0042096D01*
X0185265Y0042066D01*
X0185287Y0042034D01*
X0185306Y0042000D01*
X0185322Y0041964D01*
X0185334Y0041927D01*
X0185343Y0041890D01*
X0185348Y0041851D01*
X0185350Y0041812D01*
X0185350Y0041601D01*
D15*
X0162200Y0054700D02*
X0162202Y0054841D01*
X0162208Y0054982D01*
X0162218Y0055122D01*
X0162232Y0055262D01*
X0162250Y0055402D01*
X0162271Y0055541D01*
X0162297Y0055680D01*
X0162326Y0055818D01*
X0162360Y0055954D01*
X0162397Y0056090D01*
X0162438Y0056225D01*
X0162483Y0056359D01*
X0162532Y0056491D01*
X0162584Y0056622D01*
X0162640Y0056751D01*
X0162700Y0056878D01*
X0162763Y0057004D01*
X0162829Y0057128D01*
X0162900Y0057251D01*
X0162973Y0057371D01*
X0163050Y0057489D01*
X0163130Y0057605D01*
X0163214Y0057718D01*
X0163300Y0057829D01*
X0163390Y0057938D01*
X0163483Y0058044D01*
X0163578Y0058147D01*
X0163677Y0058248D01*
X0163778Y0058346D01*
X0163882Y0058441D01*
X0163989Y0058533D01*
X0164098Y0058622D01*
X0164210Y0058707D01*
X0164324Y0058790D01*
X0164440Y0058870D01*
X0164559Y0058946D01*
X0164680Y0059018D01*
X0164802Y0059088D01*
X0164927Y0059153D01*
X0165053Y0059216D01*
X0165181Y0059274D01*
X0165311Y0059329D01*
X0165442Y0059381D01*
X0165575Y0059428D01*
X0165709Y0059472D01*
X0165844Y0059513D01*
X0165980Y0059549D01*
X0166117Y0059581D01*
X0166255Y0059610D01*
X0166393Y0059635D01*
X0166533Y0059655D01*
X0166673Y0059672D01*
X0166813Y0059685D01*
X0166954Y0059694D01*
X0167094Y0059699D01*
X0167235Y0059700D01*
X0167376Y0059697D01*
X0167517Y0059690D01*
X0167657Y0059679D01*
X0167797Y0059664D01*
X0167937Y0059645D01*
X0168076Y0059623D01*
X0168214Y0059596D01*
X0168352Y0059566D01*
X0168488Y0059531D01*
X0168624Y0059493D01*
X0168758Y0059451D01*
X0168892Y0059405D01*
X0169024Y0059356D01*
X0169154Y0059302D01*
X0169283Y0059245D01*
X0169410Y0059185D01*
X0169536Y0059121D01*
X0169659Y0059053D01*
X0169781Y0058982D01*
X0169901Y0058908D01*
X0170018Y0058830D01*
X0170133Y0058749D01*
X0170246Y0058665D01*
X0170357Y0058578D01*
X0170465Y0058487D01*
X0170570Y0058394D01*
X0170673Y0058297D01*
X0170773Y0058198D01*
X0170870Y0058096D01*
X0170964Y0057991D01*
X0171055Y0057884D01*
X0171143Y0057774D01*
X0171228Y0057662D01*
X0171310Y0057547D01*
X0171389Y0057430D01*
X0171464Y0057311D01*
X0171536Y0057190D01*
X0171604Y0057067D01*
X0171669Y0056942D01*
X0171731Y0056815D01*
X0171788Y0056686D01*
X0171843Y0056556D01*
X0171893Y0056425D01*
X0171940Y0056292D01*
X0171983Y0056158D01*
X0172022Y0056022D01*
X0172057Y0055886D01*
X0172089Y0055749D01*
X0172116Y0055611D01*
X0172140Y0055472D01*
X0172160Y0055332D01*
X0172176Y0055192D01*
X0172188Y0055052D01*
X0172196Y0054911D01*
X0172200Y0054770D01*
X0172200Y0054630D01*
X0172196Y0054489D01*
X0172188Y0054348D01*
X0172176Y0054208D01*
X0172160Y0054068D01*
X0172140Y0053928D01*
X0172116Y0053789D01*
X0172089Y0053651D01*
X0172057Y0053514D01*
X0172022Y0053378D01*
X0171983Y0053242D01*
X0171940Y0053108D01*
X0171893Y0052975D01*
X0171843Y0052844D01*
X0171788Y0052714D01*
X0171731Y0052585D01*
X0171669Y0052458D01*
X0171604Y0052333D01*
X0171536Y0052210D01*
X0171464Y0052089D01*
X0171389Y0051970D01*
X0171310Y0051853D01*
X0171228Y0051738D01*
X0171143Y0051626D01*
X0171055Y0051516D01*
X0170964Y0051409D01*
X0170870Y0051304D01*
X0170773Y0051202D01*
X0170673Y0051103D01*
X0170570Y0051006D01*
X0170465Y0050913D01*
X0170357Y0050822D01*
X0170246Y0050735D01*
X0170133Y0050651D01*
X0170018Y0050570D01*
X0169901Y0050492D01*
X0169781Y0050418D01*
X0169659Y0050347D01*
X0169536Y0050279D01*
X0169410Y0050215D01*
X0169283Y0050155D01*
X0169154Y0050098D01*
X0169024Y0050044D01*
X0168892Y0049995D01*
X0168758Y0049949D01*
X0168624Y0049907D01*
X0168488Y0049869D01*
X0168352Y0049834D01*
X0168214Y0049804D01*
X0168076Y0049777D01*
X0167937Y0049755D01*
X0167797Y0049736D01*
X0167657Y0049721D01*
X0167517Y0049710D01*
X0167376Y0049703D01*
X0167235Y0049700D01*
X0167094Y0049701D01*
X0166954Y0049706D01*
X0166813Y0049715D01*
X0166673Y0049728D01*
X0166533Y0049745D01*
X0166393Y0049765D01*
X0166255Y0049790D01*
X0166117Y0049819D01*
X0165980Y0049851D01*
X0165844Y0049887D01*
X0165709Y0049928D01*
X0165575Y0049972D01*
X0165442Y0050019D01*
X0165311Y0050071D01*
X0165181Y0050126D01*
X0165053Y0050184D01*
X0164927Y0050247D01*
X0164802Y0050312D01*
X0164680Y0050382D01*
X0164559Y0050454D01*
X0164440Y0050530D01*
X0164324Y0050610D01*
X0164210Y0050693D01*
X0164098Y0050778D01*
X0163989Y0050867D01*
X0163882Y0050959D01*
X0163778Y0051054D01*
X0163677Y0051152D01*
X0163578Y0051253D01*
X0163483Y0051356D01*
X0163390Y0051462D01*
X0163300Y0051571D01*
X0163214Y0051682D01*
X0163130Y0051795D01*
X0163050Y0051911D01*
X0162973Y0052029D01*
X0162900Y0052149D01*
X0162829Y0052272D01*
X0162763Y0052396D01*
X0162700Y0052522D01*
X0162640Y0052649D01*
X0162584Y0052778D01*
X0162532Y0052909D01*
X0162483Y0053041D01*
X0162438Y0053175D01*
X0162397Y0053310D01*
X0162360Y0053446D01*
X0162326Y0053582D01*
X0162297Y0053720D01*
X0162271Y0053859D01*
X0162250Y0053998D01*
X0162232Y0054138D01*
X0162218Y0054278D01*
X0162208Y0054418D01*
X0162202Y0054559D01*
X0162200Y0054700D01*
X0149700Y0054700D02*
X0149702Y0054841D01*
X0149708Y0054982D01*
X0149718Y0055122D01*
X0149732Y0055262D01*
X0149750Y0055402D01*
X0149771Y0055541D01*
X0149797Y0055680D01*
X0149826Y0055818D01*
X0149860Y0055954D01*
X0149897Y0056090D01*
X0149938Y0056225D01*
X0149983Y0056359D01*
X0150032Y0056491D01*
X0150084Y0056622D01*
X0150140Y0056751D01*
X0150200Y0056878D01*
X0150263Y0057004D01*
X0150329Y0057128D01*
X0150400Y0057251D01*
X0150473Y0057371D01*
X0150550Y0057489D01*
X0150630Y0057605D01*
X0150714Y0057718D01*
X0150800Y0057829D01*
X0150890Y0057938D01*
X0150983Y0058044D01*
X0151078Y0058147D01*
X0151177Y0058248D01*
X0151278Y0058346D01*
X0151382Y0058441D01*
X0151489Y0058533D01*
X0151598Y0058622D01*
X0151710Y0058707D01*
X0151824Y0058790D01*
X0151940Y0058870D01*
X0152059Y0058946D01*
X0152180Y0059018D01*
X0152302Y0059088D01*
X0152427Y0059153D01*
X0152553Y0059216D01*
X0152681Y0059274D01*
X0152811Y0059329D01*
X0152942Y0059381D01*
X0153075Y0059428D01*
X0153209Y0059472D01*
X0153344Y0059513D01*
X0153480Y0059549D01*
X0153617Y0059581D01*
X0153755Y0059610D01*
X0153893Y0059635D01*
X0154033Y0059655D01*
X0154173Y0059672D01*
X0154313Y0059685D01*
X0154454Y0059694D01*
X0154594Y0059699D01*
X0154735Y0059700D01*
X0154876Y0059697D01*
X0155017Y0059690D01*
X0155157Y0059679D01*
X0155297Y0059664D01*
X0155437Y0059645D01*
X0155576Y0059623D01*
X0155714Y0059596D01*
X0155852Y0059566D01*
X0155988Y0059531D01*
X0156124Y0059493D01*
X0156258Y0059451D01*
X0156392Y0059405D01*
X0156524Y0059356D01*
X0156654Y0059302D01*
X0156783Y0059245D01*
X0156910Y0059185D01*
X0157036Y0059121D01*
X0157159Y0059053D01*
X0157281Y0058982D01*
X0157401Y0058908D01*
X0157518Y0058830D01*
X0157633Y0058749D01*
X0157746Y0058665D01*
X0157857Y0058578D01*
X0157965Y0058487D01*
X0158070Y0058394D01*
X0158173Y0058297D01*
X0158273Y0058198D01*
X0158370Y0058096D01*
X0158464Y0057991D01*
X0158555Y0057884D01*
X0158643Y0057774D01*
X0158728Y0057662D01*
X0158810Y0057547D01*
X0158889Y0057430D01*
X0158964Y0057311D01*
X0159036Y0057190D01*
X0159104Y0057067D01*
X0159169Y0056942D01*
X0159231Y0056815D01*
X0159288Y0056686D01*
X0159343Y0056556D01*
X0159393Y0056425D01*
X0159440Y0056292D01*
X0159483Y0056158D01*
X0159522Y0056022D01*
X0159557Y0055886D01*
X0159589Y0055749D01*
X0159616Y0055611D01*
X0159640Y0055472D01*
X0159660Y0055332D01*
X0159676Y0055192D01*
X0159688Y0055052D01*
X0159696Y0054911D01*
X0159700Y0054770D01*
X0159700Y0054630D01*
X0159696Y0054489D01*
X0159688Y0054348D01*
X0159676Y0054208D01*
X0159660Y0054068D01*
X0159640Y0053928D01*
X0159616Y0053789D01*
X0159589Y0053651D01*
X0159557Y0053514D01*
X0159522Y0053378D01*
X0159483Y0053242D01*
X0159440Y0053108D01*
X0159393Y0052975D01*
X0159343Y0052844D01*
X0159288Y0052714D01*
X0159231Y0052585D01*
X0159169Y0052458D01*
X0159104Y0052333D01*
X0159036Y0052210D01*
X0158964Y0052089D01*
X0158889Y0051970D01*
X0158810Y0051853D01*
X0158728Y0051738D01*
X0158643Y0051626D01*
X0158555Y0051516D01*
X0158464Y0051409D01*
X0158370Y0051304D01*
X0158273Y0051202D01*
X0158173Y0051103D01*
X0158070Y0051006D01*
X0157965Y0050913D01*
X0157857Y0050822D01*
X0157746Y0050735D01*
X0157633Y0050651D01*
X0157518Y0050570D01*
X0157401Y0050492D01*
X0157281Y0050418D01*
X0157159Y0050347D01*
X0157036Y0050279D01*
X0156910Y0050215D01*
X0156783Y0050155D01*
X0156654Y0050098D01*
X0156524Y0050044D01*
X0156392Y0049995D01*
X0156258Y0049949D01*
X0156124Y0049907D01*
X0155988Y0049869D01*
X0155852Y0049834D01*
X0155714Y0049804D01*
X0155576Y0049777D01*
X0155437Y0049755D01*
X0155297Y0049736D01*
X0155157Y0049721D01*
X0155017Y0049710D01*
X0154876Y0049703D01*
X0154735Y0049700D01*
X0154594Y0049701D01*
X0154454Y0049706D01*
X0154313Y0049715D01*
X0154173Y0049728D01*
X0154033Y0049745D01*
X0153893Y0049765D01*
X0153755Y0049790D01*
X0153617Y0049819D01*
X0153480Y0049851D01*
X0153344Y0049887D01*
X0153209Y0049928D01*
X0153075Y0049972D01*
X0152942Y0050019D01*
X0152811Y0050071D01*
X0152681Y0050126D01*
X0152553Y0050184D01*
X0152427Y0050247D01*
X0152302Y0050312D01*
X0152180Y0050382D01*
X0152059Y0050454D01*
X0151940Y0050530D01*
X0151824Y0050610D01*
X0151710Y0050693D01*
X0151598Y0050778D01*
X0151489Y0050867D01*
X0151382Y0050959D01*
X0151278Y0051054D01*
X0151177Y0051152D01*
X0151078Y0051253D01*
X0150983Y0051356D01*
X0150890Y0051462D01*
X0150800Y0051571D01*
X0150714Y0051682D01*
X0150630Y0051795D01*
X0150550Y0051911D01*
X0150473Y0052029D01*
X0150400Y0052149D01*
X0150329Y0052272D01*
X0150263Y0052396D01*
X0150200Y0052522D01*
X0150140Y0052649D01*
X0150084Y0052778D01*
X0150032Y0052909D01*
X0149983Y0053041D01*
X0149938Y0053175D01*
X0149897Y0053310D01*
X0149860Y0053446D01*
X0149826Y0053582D01*
X0149797Y0053720D01*
X0149771Y0053859D01*
X0149750Y0053998D01*
X0149732Y0054138D01*
X0149718Y0054278D01*
X0149708Y0054418D01*
X0149702Y0054559D01*
X0149700Y0054700D01*
X0149700Y0064700D02*
X0155700Y0064700D01*
X0155702Y0064826D01*
X0155708Y0064951D01*
X0155718Y0065076D01*
X0155732Y0065201D01*
X0155749Y0065326D01*
X0155771Y0065450D01*
X0155796Y0065573D01*
X0155826Y0065695D01*
X0155859Y0065816D01*
X0155896Y0065936D01*
X0155936Y0066055D01*
X0155981Y0066172D01*
X0156029Y0066289D01*
X0156081Y0066403D01*
X0156136Y0066516D01*
X0156195Y0066627D01*
X0156257Y0066736D01*
X0156323Y0066843D01*
X0156392Y0066948D01*
X0156464Y0067051D01*
X0156539Y0067152D01*
X0156618Y0067250D01*
X0156700Y0067345D01*
X0156784Y0067438D01*
X0156872Y0067528D01*
X0156962Y0067616D01*
X0157055Y0067700D01*
X0157150Y0067782D01*
X0157248Y0067861D01*
X0157349Y0067936D01*
X0157452Y0068008D01*
X0157557Y0068077D01*
X0157664Y0068143D01*
X0157773Y0068205D01*
X0157884Y0068264D01*
X0157997Y0068319D01*
X0158111Y0068371D01*
X0158228Y0068419D01*
X0158345Y0068464D01*
X0158464Y0068504D01*
X0158584Y0068541D01*
X0158705Y0068574D01*
X0158827Y0068604D01*
X0158950Y0068629D01*
X0159074Y0068651D01*
X0159199Y0068668D01*
X0159324Y0068682D01*
X0159449Y0068692D01*
X0159574Y0068698D01*
X0159700Y0068700D01*
X0159826Y0068698D01*
X0159951Y0068692D01*
X0160076Y0068682D01*
X0160201Y0068668D01*
X0160326Y0068651D01*
X0160450Y0068629D01*
X0160573Y0068604D01*
X0160695Y0068574D01*
X0160816Y0068541D01*
X0160936Y0068504D01*
X0161055Y0068464D01*
X0161172Y0068419D01*
X0161289Y0068371D01*
X0161403Y0068319D01*
X0161516Y0068264D01*
X0161627Y0068205D01*
X0161736Y0068143D01*
X0161843Y0068077D01*
X0161948Y0068008D01*
X0162051Y0067936D01*
X0162152Y0067861D01*
X0162250Y0067782D01*
X0162345Y0067700D01*
X0162438Y0067616D01*
X0162528Y0067528D01*
X0162616Y0067438D01*
X0162700Y0067345D01*
X0162782Y0067250D01*
X0162861Y0067152D01*
X0162936Y0067051D01*
X0163008Y0066948D01*
X0163077Y0066843D01*
X0163143Y0066736D01*
X0163205Y0066627D01*
X0163264Y0066516D01*
X0163319Y0066403D01*
X0163371Y0066289D01*
X0163419Y0066172D01*
X0163464Y0066055D01*
X0163504Y0065936D01*
X0163541Y0065816D01*
X0163574Y0065695D01*
X0163604Y0065573D01*
X0163629Y0065450D01*
X0163651Y0065326D01*
X0163668Y0065201D01*
X0163682Y0065076D01*
X0163692Y0064951D01*
X0163698Y0064826D01*
X0163700Y0064700D01*
X0169700Y0064700D01*
X0169700Y0104700D01*
X0179700Y0104700D01*
X0179700Y0064700D01*
X0169700Y0064700D01*
X0149700Y0064700D02*
X0149700Y0104700D01*
X0169700Y0104700D01*
X0162200Y0119700D02*
X0162202Y0119841D01*
X0162208Y0119982D01*
X0162218Y0120122D01*
X0162232Y0120262D01*
X0162250Y0120402D01*
X0162271Y0120541D01*
X0162297Y0120680D01*
X0162326Y0120818D01*
X0162360Y0120954D01*
X0162397Y0121090D01*
X0162438Y0121225D01*
X0162483Y0121359D01*
X0162532Y0121491D01*
X0162584Y0121622D01*
X0162640Y0121751D01*
X0162700Y0121878D01*
X0162763Y0122004D01*
X0162829Y0122128D01*
X0162900Y0122251D01*
X0162973Y0122371D01*
X0163050Y0122489D01*
X0163130Y0122605D01*
X0163214Y0122718D01*
X0163300Y0122829D01*
X0163390Y0122938D01*
X0163483Y0123044D01*
X0163578Y0123147D01*
X0163677Y0123248D01*
X0163778Y0123346D01*
X0163882Y0123441D01*
X0163989Y0123533D01*
X0164098Y0123622D01*
X0164210Y0123707D01*
X0164324Y0123790D01*
X0164440Y0123870D01*
X0164559Y0123946D01*
X0164680Y0124018D01*
X0164802Y0124088D01*
X0164927Y0124153D01*
X0165053Y0124216D01*
X0165181Y0124274D01*
X0165311Y0124329D01*
X0165442Y0124381D01*
X0165575Y0124428D01*
X0165709Y0124472D01*
X0165844Y0124513D01*
X0165980Y0124549D01*
X0166117Y0124581D01*
X0166255Y0124610D01*
X0166393Y0124635D01*
X0166533Y0124655D01*
X0166673Y0124672D01*
X0166813Y0124685D01*
X0166954Y0124694D01*
X0167094Y0124699D01*
X0167235Y0124700D01*
X0167376Y0124697D01*
X0167517Y0124690D01*
X0167657Y0124679D01*
X0167797Y0124664D01*
X0167937Y0124645D01*
X0168076Y0124623D01*
X0168214Y0124596D01*
X0168352Y0124566D01*
X0168488Y0124531D01*
X0168624Y0124493D01*
X0168758Y0124451D01*
X0168892Y0124405D01*
X0169024Y0124356D01*
X0169154Y0124302D01*
X0169283Y0124245D01*
X0169410Y0124185D01*
X0169536Y0124121D01*
X0169659Y0124053D01*
X0169781Y0123982D01*
X0169901Y0123908D01*
X0170018Y0123830D01*
X0170133Y0123749D01*
X0170246Y0123665D01*
X0170357Y0123578D01*
X0170465Y0123487D01*
X0170570Y0123394D01*
X0170673Y0123297D01*
X0170773Y0123198D01*
X0170870Y0123096D01*
X0170964Y0122991D01*
X0171055Y0122884D01*
X0171143Y0122774D01*
X0171228Y0122662D01*
X0171310Y0122547D01*
X0171389Y0122430D01*
X0171464Y0122311D01*
X0171536Y0122190D01*
X0171604Y0122067D01*
X0171669Y0121942D01*
X0171731Y0121815D01*
X0171788Y0121686D01*
X0171843Y0121556D01*
X0171893Y0121425D01*
X0171940Y0121292D01*
X0171983Y0121158D01*
X0172022Y0121022D01*
X0172057Y0120886D01*
X0172089Y0120749D01*
X0172116Y0120611D01*
X0172140Y0120472D01*
X0172160Y0120332D01*
X0172176Y0120192D01*
X0172188Y0120052D01*
X0172196Y0119911D01*
X0172200Y0119770D01*
X0172200Y0119630D01*
X0172196Y0119489D01*
X0172188Y0119348D01*
X0172176Y0119208D01*
X0172160Y0119068D01*
X0172140Y0118928D01*
X0172116Y0118789D01*
X0172089Y0118651D01*
X0172057Y0118514D01*
X0172022Y0118378D01*
X0171983Y0118242D01*
X0171940Y0118108D01*
X0171893Y0117975D01*
X0171843Y0117844D01*
X0171788Y0117714D01*
X0171731Y0117585D01*
X0171669Y0117458D01*
X0171604Y0117333D01*
X0171536Y0117210D01*
X0171464Y0117089D01*
X0171389Y0116970D01*
X0171310Y0116853D01*
X0171228Y0116738D01*
X0171143Y0116626D01*
X0171055Y0116516D01*
X0170964Y0116409D01*
X0170870Y0116304D01*
X0170773Y0116202D01*
X0170673Y0116103D01*
X0170570Y0116006D01*
X0170465Y0115913D01*
X0170357Y0115822D01*
X0170246Y0115735D01*
X0170133Y0115651D01*
X0170018Y0115570D01*
X0169901Y0115492D01*
X0169781Y0115418D01*
X0169659Y0115347D01*
X0169536Y0115279D01*
X0169410Y0115215D01*
X0169283Y0115155D01*
X0169154Y0115098D01*
X0169024Y0115044D01*
X0168892Y0114995D01*
X0168758Y0114949D01*
X0168624Y0114907D01*
X0168488Y0114869D01*
X0168352Y0114834D01*
X0168214Y0114804D01*
X0168076Y0114777D01*
X0167937Y0114755D01*
X0167797Y0114736D01*
X0167657Y0114721D01*
X0167517Y0114710D01*
X0167376Y0114703D01*
X0167235Y0114700D01*
X0167094Y0114701D01*
X0166954Y0114706D01*
X0166813Y0114715D01*
X0166673Y0114728D01*
X0166533Y0114745D01*
X0166393Y0114765D01*
X0166255Y0114790D01*
X0166117Y0114819D01*
X0165980Y0114851D01*
X0165844Y0114887D01*
X0165709Y0114928D01*
X0165575Y0114972D01*
X0165442Y0115019D01*
X0165311Y0115071D01*
X0165181Y0115126D01*
X0165053Y0115184D01*
X0164927Y0115247D01*
X0164802Y0115312D01*
X0164680Y0115382D01*
X0164559Y0115454D01*
X0164440Y0115530D01*
X0164324Y0115610D01*
X0164210Y0115693D01*
X0164098Y0115778D01*
X0163989Y0115867D01*
X0163882Y0115959D01*
X0163778Y0116054D01*
X0163677Y0116152D01*
X0163578Y0116253D01*
X0163483Y0116356D01*
X0163390Y0116462D01*
X0163300Y0116571D01*
X0163214Y0116682D01*
X0163130Y0116795D01*
X0163050Y0116911D01*
X0162973Y0117029D01*
X0162900Y0117149D01*
X0162829Y0117272D01*
X0162763Y0117396D01*
X0162700Y0117522D01*
X0162640Y0117649D01*
X0162584Y0117778D01*
X0162532Y0117909D01*
X0162483Y0118041D01*
X0162438Y0118175D01*
X0162397Y0118310D01*
X0162360Y0118446D01*
X0162326Y0118582D01*
X0162297Y0118720D01*
X0162271Y0118859D01*
X0162250Y0118998D01*
X0162232Y0119138D01*
X0162218Y0119278D01*
X0162208Y0119418D01*
X0162202Y0119559D01*
X0162200Y0119700D01*
X0149700Y0104700D02*
X0139700Y0104700D01*
X0139700Y0064700D01*
X0149700Y0064700D01*
X0139700Y0139700D02*
X0139702Y0139841D01*
X0139708Y0139982D01*
X0139718Y0140122D01*
X0139732Y0140262D01*
X0139750Y0140402D01*
X0139771Y0140541D01*
X0139797Y0140680D01*
X0139826Y0140818D01*
X0139860Y0140954D01*
X0139897Y0141090D01*
X0139938Y0141225D01*
X0139983Y0141359D01*
X0140032Y0141491D01*
X0140084Y0141622D01*
X0140140Y0141751D01*
X0140200Y0141878D01*
X0140263Y0142004D01*
X0140329Y0142128D01*
X0140400Y0142251D01*
X0140473Y0142371D01*
X0140550Y0142489D01*
X0140630Y0142605D01*
X0140714Y0142718D01*
X0140800Y0142829D01*
X0140890Y0142938D01*
X0140983Y0143044D01*
X0141078Y0143147D01*
X0141177Y0143248D01*
X0141278Y0143346D01*
X0141382Y0143441D01*
X0141489Y0143533D01*
X0141598Y0143622D01*
X0141710Y0143707D01*
X0141824Y0143790D01*
X0141940Y0143870D01*
X0142059Y0143946D01*
X0142180Y0144018D01*
X0142302Y0144088D01*
X0142427Y0144153D01*
X0142553Y0144216D01*
X0142681Y0144274D01*
X0142811Y0144329D01*
X0142942Y0144381D01*
X0143075Y0144428D01*
X0143209Y0144472D01*
X0143344Y0144513D01*
X0143480Y0144549D01*
X0143617Y0144581D01*
X0143755Y0144610D01*
X0143893Y0144635D01*
X0144033Y0144655D01*
X0144173Y0144672D01*
X0144313Y0144685D01*
X0144454Y0144694D01*
X0144594Y0144699D01*
X0144735Y0144700D01*
X0144876Y0144697D01*
X0145017Y0144690D01*
X0145157Y0144679D01*
X0145297Y0144664D01*
X0145437Y0144645D01*
X0145576Y0144623D01*
X0145714Y0144596D01*
X0145852Y0144566D01*
X0145988Y0144531D01*
X0146124Y0144493D01*
X0146258Y0144451D01*
X0146392Y0144405D01*
X0146524Y0144356D01*
X0146654Y0144302D01*
X0146783Y0144245D01*
X0146910Y0144185D01*
X0147036Y0144121D01*
X0147159Y0144053D01*
X0147281Y0143982D01*
X0147401Y0143908D01*
X0147518Y0143830D01*
X0147633Y0143749D01*
X0147746Y0143665D01*
X0147857Y0143578D01*
X0147965Y0143487D01*
X0148070Y0143394D01*
X0148173Y0143297D01*
X0148273Y0143198D01*
X0148370Y0143096D01*
X0148464Y0142991D01*
X0148555Y0142884D01*
X0148643Y0142774D01*
X0148728Y0142662D01*
X0148810Y0142547D01*
X0148889Y0142430D01*
X0148964Y0142311D01*
X0149036Y0142190D01*
X0149104Y0142067D01*
X0149169Y0141942D01*
X0149231Y0141815D01*
X0149288Y0141686D01*
X0149343Y0141556D01*
X0149393Y0141425D01*
X0149440Y0141292D01*
X0149483Y0141158D01*
X0149522Y0141022D01*
X0149557Y0140886D01*
X0149589Y0140749D01*
X0149616Y0140611D01*
X0149640Y0140472D01*
X0149660Y0140332D01*
X0149676Y0140192D01*
X0149688Y0140052D01*
X0149696Y0139911D01*
X0149700Y0139770D01*
X0149700Y0139630D01*
X0149696Y0139489D01*
X0149688Y0139348D01*
X0149676Y0139208D01*
X0149660Y0139068D01*
X0149640Y0138928D01*
X0149616Y0138789D01*
X0149589Y0138651D01*
X0149557Y0138514D01*
X0149522Y0138378D01*
X0149483Y0138242D01*
X0149440Y0138108D01*
X0149393Y0137975D01*
X0149343Y0137844D01*
X0149288Y0137714D01*
X0149231Y0137585D01*
X0149169Y0137458D01*
X0149104Y0137333D01*
X0149036Y0137210D01*
X0148964Y0137089D01*
X0148889Y0136970D01*
X0148810Y0136853D01*
X0148728Y0136738D01*
X0148643Y0136626D01*
X0148555Y0136516D01*
X0148464Y0136409D01*
X0148370Y0136304D01*
X0148273Y0136202D01*
X0148173Y0136103D01*
X0148070Y0136006D01*
X0147965Y0135913D01*
X0147857Y0135822D01*
X0147746Y0135735D01*
X0147633Y0135651D01*
X0147518Y0135570D01*
X0147401Y0135492D01*
X0147281Y0135418D01*
X0147159Y0135347D01*
X0147036Y0135279D01*
X0146910Y0135215D01*
X0146783Y0135155D01*
X0146654Y0135098D01*
X0146524Y0135044D01*
X0146392Y0134995D01*
X0146258Y0134949D01*
X0146124Y0134907D01*
X0145988Y0134869D01*
X0145852Y0134834D01*
X0145714Y0134804D01*
X0145576Y0134777D01*
X0145437Y0134755D01*
X0145297Y0134736D01*
X0145157Y0134721D01*
X0145017Y0134710D01*
X0144876Y0134703D01*
X0144735Y0134700D01*
X0144594Y0134701D01*
X0144454Y0134706D01*
X0144313Y0134715D01*
X0144173Y0134728D01*
X0144033Y0134745D01*
X0143893Y0134765D01*
X0143755Y0134790D01*
X0143617Y0134819D01*
X0143480Y0134851D01*
X0143344Y0134887D01*
X0143209Y0134928D01*
X0143075Y0134972D01*
X0142942Y0135019D01*
X0142811Y0135071D01*
X0142681Y0135126D01*
X0142553Y0135184D01*
X0142427Y0135247D01*
X0142302Y0135312D01*
X0142180Y0135382D01*
X0142059Y0135454D01*
X0141940Y0135530D01*
X0141824Y0135610D01*
X0141710Y0135693D01*
X0141598Y0135778D01*
X0141489Y0135867D01*
X0141382Y0135959D01*
X0141278Y0136054D01*
X0141177Y0136152D01*
X0141078Y0136253D01*
X0140983Y0136356D01*
X0140890Y0136462D01*
X0140800Y0136571D01*
X0140714Y0136682D01*
X0140630Y0136795D01*
X0140550Y0136911D01*
X0140473Y0137029D01*
X0140400Y0137149D01*
X0140329Y0137272D01*
X0140263Y0137396D01*
X0140200Y0137522D01*
X0140140Y0137649D01*
X0140084Y0137778D01*
X0140032Y0137909D01*
X0139983Y0138041D01*
X0139938Y0138175D01*
X0139897Y0138310D01*
X0139860Y0138446D01*
X0139826Y0138582D01*
X0139797Y0138720D01*
X0139771Y0138859D01*
X0139750Y0138998D01*
X0139732Y0139138D01*
X0139718Y0139278D01*
X0139708Y0139418D01*
X0139702Y0139559D01*
X0139700Y0139700D01*
X0162200Y0139700D02*
X0162202Y0139841D01*
X0162208Y0139982D01*
X0162218Y0140122D01*
X0162232Y0140262D01*
X0162250Y0140402D01*
X0162271Y0140541D01*
X0162297Y0140680D01*
X0162326Y0140818D01*
X0162360Y0140954D01*
X0162397Y0141090D01*
X0162438Y0141225D01*
X0162483Y0141359D01*
X0162532Y0141491D01*
X0162584Y0141622D01*
X0162640Y0141751D01*
X0162700Y0141878D01*
X0162763Y0142004D01*
X0162829Y0142128D01*
X0162900Y0142251D01*
X0162973Y0142371D01*
X0163050Y0142489D01*
X0163130Y0142605D01*
X0163214Y0142718D01*
X0163300Y0142829D01*
X0163390Y0142938D01*
X0163483Y0143044D01*
X0163578Y0143147D01*
X0163677Y0143248D01*
X0163778Y0143346D01*
X0163882Y0143441D01*
X0163989Y0143533D01*
X0164098Y0143622D01*
X0164210Y0143707D01*
X0164324Y0143790D01*
X0164440Y0143870D01*
X0164559Y0143946D01*
X0164680Y0144018D01*
X0164802Y0144088D01*
X0164927Y0144153D01*
X0165053Y0144216D01*
X0165181Y0144274D01*
X0165311Y0144329D01*
X0165442Y0144381D01*
X0165575Y0144428D01*
X0165709Y0144472D01*
X0165844Y0144513D01*
X0165980Y0144549D01*
X0166117Y0144581D01*
X0166255Y0144610D01*
X0166393Y0144635D01*
X0166533Y0144655D01*
X0166673Y0144672D01*
X0166813Y0144685D01*
X0166954Y0144694D01*
X0167094Y0144699D01*
X0167235Y0144700D01*
X0167376Y0144697D01*
X0167517Y0144690D01*
X0167657Y0144679D01*
X0167797Y0144664D01*
X0167937Y0144645D01*
X0168076Y0144623D01*
X0168214Y0144596D01*
X0168352Y0144566D01*
X0168488Y0144531D01*
X0168624Y0144493D01*
X0168758Y0144451D01*
X0168892Y0144405D01*
X0169024Y0144356D01*
X0169154Y0144302D01*
X0169283Y0144245D01*
X0169410Y0144185D01*
X0169536Y0144121D01*
X0169659Y0144053D01*
X0169781Y0143982D01*
X0169901Y0143908D01*
X0170018Y0143830D01*
X0170133Y0143749D01*
X0170246Y0143665D01*
X0170357Y0143578D01*
X0170465Y0143487D01*
X0170570Y0143394D01*
X0170673Y0143297D01*
X0170773Y0143198D01*
X0170870Y0143096D01*
X0170964Y0142991D01*
X0171055Y0142884D01*
X0171143Y0142774D01*
X0171228Y0142662D01*
X0171310Y0142547D01*
X0171389Y0142430D01*
X0171464Y0142311D01*
X0171536Y0142190D01*
X0171604Y0142067D01*
X0171669Y0141942D01*
X0171731Y0141815D01*
X0171788Y0141686D01*
X0171843Y0141556D01*
X0171893Y0141425D01*
X0171940Y0141292D01*
X0171983Y0141158D01*
X0172022Y0141022D01*
X0172057Y0140886D01*
X0172089Y0140749D01*
X0172116Y0140611D01*
X0172140Y0140472D01*
X0172160Y0140332D01*
X0172176Y0140192D01*
X0172188Y0140052D01*
X0172196Y0139911D01*
X0172200Y0139770D01*
X0172200Y0139630D01*
X0172196Y0139489D01*
X0172188Y0139348D01*
X0172176Y0139208D01*
X0172160Y0139068D01*
X0172140Y0138928D01*
X0172116Y0138789D01*
X0172089Y0138651D01*
X0172057Y0138514D01*
X0172022Y0138378D01*
X0171983Y0138242D01*
X0171940Y0138108D01*
X0171893Y0137975D01*
X0171843Y0137844D01*
X0171788Y0137714D01*
X0171731Y0137585D01*
X0171669Y0137458D01*
X0171604Y0137333D01*
X0171536Y0137210D01*
X0171464Y0137089D01*
X0171389Y0136970D01*
X0171310Y0136853D01*
X0171228Y0136738D01*
X0171143Y0136626D01*
X0171055Y0136516D01*
X0170964Y0136409D01*
X0170870Y0136304D01*
X0170773Y0136202D01*
X0170673Y0136103D01*
X0170570Y0136006D01*
X0170465Y0135913D01*
X0170357Y0135822D01*
X0170246Y0135735D01*
X0170133Y0135651D01*
X0170018Y0135570D01*
X0169901Y0135492D01*
X0169781Y0135418D01*
X0169659Y0135347D01*
X0169536Y0135279D01*
X0169410Y0135215D01*
X0169283Y0135155D01*
X0169154Y0135098D01*
X0169024Y0135044D01*
X0168892Y0134995D01*
X0168758Y0134949D01*
X0168624Y0134907D01*
X0168488Y0134869D01*
X0168352Y0134834D01*
X0168214Y0134804D01*
X0168076Y0134777D01*
X0167937Y0134755D01*
X0167797Y0134736D01*
X0167657Y0134721D01*
X0167517Y0134710D01*
X0167376Y0134703D01*
X0167235Y0134700D01*
X0167094Y0134701D01*
X0166954Y0134706D01*
X0166813Y0134715D01*
X0166673Y0134728D01*
X0166533Y0134745D01*
X0166393Y0134765D01*
X0166255Y0134790D01*
X0166117Y0134819D01*
X0165980Y0134851D01*
X0165844Y0134887D01*
X0165709Y0134928D01*
X0165575Y0134972D01*
X0165442Y0135019D01*
X0165311Y0135071D01*
X0165181Y0135126D01*
X0165053Y0135184D01*
X0164927Y0135247D01*
X0164802Y0135312D01*
X0164680Y0135382D01*
X0164559Y0135454D01*
X0164440Y0135530D01*
X0164324Y0135610D01*
X0164210Y0135693D01*
X0164098Y0135778D01*
X0163989Y0135867D01*
X0163882Y0135959D01*
X0163778Y0136054D01*
X0163677Y0136152D01*
X0163578Y0136253D01*
X0163483Y0136356D01*
X0163390Y0136462D01*
X0163300Y0136571D01*
X0163214Y0136682D01*
X0163130Y0136795D01*
X0163050Y0136911D01*
X0162973Y0137029D01*
X0162900Y0137149D01*
X0162829Y0137272D01*
X0162763Y0137396D01*
X0162700Y0137522D01*
X0162640Y0137649D01*
X0162584Y0137778D01*
X0162532Y0137909D01*
X0162483Y0138041D01*
X0162438Y0138175D01*
X0162397Y0138310D01*
X0162360Y0138446D01*
X0162326Y0138582D01*
X0162297Y0138720D01*
X0162271Y0138859D01*
X0162250Y0138998D01*
X0162232Y0139138D01*
X0162218Y0139278D01*
X0162208Y0139418D01*
X0162202Y0139559D01*
X0162200Y0139700D01*
X0162200Y0159700D02*
X0162203Y0159945D01*
X0162212Y0160191D01*
X0162227Y0160436D01*
X0162248Y0160680D01*
X0162275Y0160924D01*
X0162308Y0161167D01*
X0162347Y0161410D01*
X0162392Y0161651D01*
X0162443Y0161891D01*
X0162500Y0162130D01*
X0162562Y0162367D01*
X0162631Y0162603D01*
X0162705Y0162837D01*
X0162785Y0163069D01*
X0162870Y0163299D01*
X0162961Y0163527D01*
X0163058Y0163752D01*
X0163160Y0163976D01*
X0163268Y0164196D01*
X0163381Y0164414D01*
X0163499Y0164629D01*
X0163623Y0164841D01*
X0163751Y0165050D01*
X0163885Y0165256D01*
X0164024Y0165458D01*
X0164168Y0165657D01*
X0164317Y0165852D01*
X0164470Y0166044D01*
X0164628Y0166232D01*
X0164790Y0166416D01*
X0164958Y0166595D01*
X0165129Y0166771D01*
X0165305Y0166942D01*
X0165484Y0167110D01*
X0165668Y0167272D01*
X0165856Y0167430D01*
X0166048Y0167583D01*
X0166243Y0167732D01*
X0166442Y0167876D01*
X0166644Y0168015D01*
X0166850Y0168149D01*
X0167059Y0168277D01*
X0167271Y0168401D01*
X0167486Y0168519D01*
X0167704Y0168632D01*
X0167924Y0168740D01*
X0168148Y0168842D01*
X0168373Y0168939D01*
X0168601Y0169030D01*
X0168831Y0169115D01*
X0169063Y0169195D01*
X0169297Y0169269D01*
X0169533Y0169338D01*
X0169770Y0169400D01*
X0170009Y0169457D01*
X0170249Y0169508D01*
X0170490Y0169553D01*
X0170733Y0169592D01*
X0170976Y0169625D01*
X0171220Y0169652D01*
X0171464Y0169673D01*
X0171709Y0169688D01*
X0171955Y0169697D01*
X0172200Y0169700D01*
X0172445Y0169697D01*
X0172691Y0169688D01*
X0172936Y0169673D01*
X0173180Y0169652D01*
X0173424Y0169625D01*
X0173667Y0169592D01*
X0173910Y0169553D01*
X0174151Y0169508D01*
X0174391Y0169457D01*
X0174630Y0169400D01*
X0174867Y0169338D01*
X0175103Y0169269D01*
X0175337Y0169195D01*
X0175569Y0169115D01*
X0175799Y0169030D01*
X0176027Y0168939D01*
X0176252Y0168842D01*
X0176476Y0168740D01*
X0176696Y0168632D01*
X0176914Y0168519D01*
X0177129Y0168401D01*
X0177341Y0168277D01*
X0177550Y0168149D01*
X0177756Y0168015D01*
X0177958Y0167876D01*
X0178157Y0167732D01*
X0178352Y0167583D01*
X0178544Y0167430D01*
X0178732Y0167272D01*
X0178916Y0167110D01*
X0179095Y0166942D01*
X0179271Y0166771D01*
X0179442Y0166595D01*
X0179610Y0166416D01*
X0179772Y0166232D01*
X0179930Y0166044D01*
X0180083Y0165852D01*
X0180232Y0165657D01*
X0180376Y0165458D01*
X0180515Y0165256D01*
X0180649Y0165050D01*
X0180777Y0164841D01*
X0180901Y0164629D01*
X0181019Y0164414D01*
X0181132Y0164196D01*
X0181240Y0163976D01*
X0181342Y0163752D01*
X0181439Y0163527D01*
X0181530Y0163299D01*
X0181615Y0163069D01*
X0181695Y0162837D01*
X0181769Y0162603D01*
X0181838Y0162367D01*
X0181900Y0162130D01*
X0181957Y0161891D01*
X0182008Y0161651D01*
X0182053Y0161410D01*
X0182092Y0161167D01*
X0182125Y0160924D01*
X0182152Y0160680D01*
X0182173Y0160436D01*
X0182188Y0160191D01*
X0182197Y0159945D01*
X0182200Y0159700D01*
X0182197Y0159455D01*
X0182188Y0159209D01*
X0182173Y0158964D01*
X0182152Y0158720D01*
X0182125Y0158476D01*
X0182092Y0158233D01*
X0182053Y0157990D01*
X0182008Y0157749D01*
X0181957Y0157509D01*
X0181900Y0157270D01*
X0181838Y0157033D01*
X0181769Y0156797D01*
X0181695Y0156563D01*
X0181615Y0156331D01*
X0181530Y0156101D01*
X0181439Y0155873D01*
X0181342Y0155648D01*
X0181240Y0155424D01*
X0181132Y0155204D01*
X0181019Y0154986D01*
X0180901Y0154771D01*
X0180777Y0154559D01*
X0180649Y0154350D01*
X0180515Y0154144D01*
X0180376Y0153942D01*
X0180232Y0153743D01*
X0180083Y0153548D01*
X0179930Y0153356D01*
X0179772Y0153168D01*
X0179610Y0152984D01*
X0179442Y0152805D01*
X0179271Y0152629D01*
X0179095Y0152458D01*
X0178916Y0152290D01*
X0178732Y0152128D01*
X0178544Y0151970D01*
X0178352Y0151817D01*
X0178157Y0151668D01*
X0177958Y0151524D01*
X0177756Y0151385D01*
X0177550Y0151251D01*
X0177341Y0151123D01*
X0177129Y0150999D01*
X0176914Y0150881D01*
X0176696Y0150768D01*
X0176476Y0150660D01*
X0176252Y0150558D01*
X0176027Y0150461D01*
X0175799Y0150370D01*
X0175569Y0150285D01*
X0175337Y0150205D01*
X0175103Y0150131D01*
X0174867Y0150062D01*
X0174630Y0150000D01*
X0174391Y0149943D01*
X0174151Y0149892D01*
X0173910Y0149847D01*
X0173667Y0149808D01*
X0173424Y0149775D01*
X0173180Y0149748D01*
X0172936Y0149727D01*
X0172691Y0149712D01*
X0172445Y0149703D01*
X0172200Y0149700D01*
X0171955Y0149703D01*
X0171709Y0149712D01*
X0171464Y0149727D01*
X0171220Y0149748D01*
X0170976Y0149775D01*
X0170733Y0149808D01*
X0170490Y0149847D01*
X0170249Y0149892D01*
X0170009Y0149943D01*
X0169770Y0150000D01*
X0169533Y0150062D01*
X0169297Y0150131D01*
X0169063Y0150205D01*
X0168831Y0150285D01*
X0168601Y0150370D01*
X0168373Y0150461D01*
X0168148Y0150558D01*
X0167924Y0150660D01*
X0167704Y0150768D01*
X0167486Y0150881D01*
X0167271Y0150999D01*
X0167059Y0151123D01*
X0166850Y0151251D01*
X0166644Y0151385D01*
X0166442Y0151524D01*
X0166243Y0151668D01*
X0166048Y0151817D01*
X0165856Y0151970D01*
X0165668Y0152128D01*
X0165484Y0152290D01*
X0165305Y0152458D01*
X0165129Y0152629D01*
X0164958Y0152805D01*
X0164790Y0152984D01*
X0164628Y0153168D01*
X0164470Y0153356D01*
X0164317Y0153548D01*
X0164168Y0153743D01*
X0164024Y0153942D01*
X0163885Y0154144D01*
X0163751Y0154350D01*
X0163623Y0154559D01*
X0163499Y0154771D01*
X0163381Y0154986D01*
X0163268Y0155204D01*
X0163160Y0155424D01*
X0163058Y0155648D01*
X0162961Y0155873D01*
X0162870Y0156101D01*
X0162785Y0156331D01*
X0162705Y0156563D01*
X0162631Y0156797D01*
X0162562Y0157033D01*
X0162500Y0157270D01*
X0162443Y0157509D01*
X0162392Y0157749D01*
X0162347Y0157990D01*
X0162308Y0158233D01*
X0162275Y0158476D01*
X0162248Y0158720D01*
X0162227Y0158964D01*
X0162212Y0159209D01*
X0162203Y0159455D01*
X0162200Y0159700D01*
X0107700Y0197200D02*
X0106200Y0197200D01*
X0106200Y0195700D01*
X0106200Y0197200D02*
X0104700Y0197200D01*
X0106200Y0197200D02*
X0106200Y0198700D01*
X0088700Y0202200D02*
X0088703Y0202470D01*
X0088713Y0202740D01*
X0088730Y0203009D01*
X0088753Y0203278D01*
X0088783Y0203547D01*
X0088819Y0203814D01*
X0088862Y0204081D01*
X0088911Y0204346D01*
X0088967Y0204610D01*
X0089030Y0204873D01*
X0089098Y0205134D01*
X0089174Y0205393D01*
X0089255Y0205650D01*
X0089343Y0205906D01*
X0089437Y0206159D01*
X0089537Y0206410D01*
X0089644Y0206658D01*
X0089756Y0206903D01*
X0089875Y0207146D01*
X0089999Y0207385D01*
X0090129Y0207622D01*
X0090265Y0207855D01*
X0090407Y0208085D01*
X0090554Y0208311D01*
X0090707Y0208534D01*
X0090865Y0208753D01*
X0091028Y0208968D01*
X0091197Y0209178D01*
X0091371Y0209385D01*
X0091550Y0209587D01*
X0091733Y0209785D01*
X0091922Y0209978D01*
X0092115Y0210167D01*
X0092313Y0210350D01*
X0092515Y0210529D01*
X0092722Y0210703D01*
X0092932Y0210872D01*
X0093147Y0211035D01*
X0093366Y0211193D01*
X0093589Y0211346D01*
X0093815Y0211493D01*
X0094045Y0211635D01*
X0094278Y0211771D01*
X0094515Y0211901D01*
X0094754Y0212025D01*
X0094997Y0212144D01*
X0095242Y0212256D01*
X0095490Y0212363D01*
X0095741Y0212463D01*
X0095994Y0212557D01*
X0096250Y0212645D01*
X0096507Y0212726D01*
X0096766Y0212802D01*
X0097027Y0212870D01*
X0097290Y0212933D01*
X0097554Y0212989D01*
X0097819Y0213038D01*
X0098086Y0213081D01*
X0098353Y0213117D01*
X0098622Y0213147D01*
X0098891Y0213170D01*
X0099160Y0213187D01*
X0099430Y0213197D01*
X0099700Y0213200D01*
X0099970Y0213197D01*
X0100240Y0213187D01*
X0100509Y0213170D01*
X0100778Y0213147D01*
X0101047Y0213117D01*
X0101314Y0213081D01*
X0101581Y0213038D01*
X0101846Y0212989D01*
X0102110Y0212933D01*
X0102373Y0212870D01*
X0102634Y0212802D01*
X0102893Y0212726D01*
X0103150Y0212645D01*
X0103406Y0212557D01*
X0103659Y0212463D01*
X0103910Y0212363D01*
X0104158Y0212256D01*
X0104403Y0212144D01*
X0104646Y0212025D01*
X0104885Y0211901D01*
X0105122Y0211771D01*
X0105355Y0211635D01*
X0105585Y0211493D01*
X0105811Y0211346D01*
X0106034Y0211193D01*
X0106253Y0211035D01*
X0106468Y0210872D01*
X0106678Y0210703D01*
X0106885Y0210529D01*
X0107087Y0210350D01*
X0107285Y0210167D01*
X0107478Y0209978D01*
X0107667Y0209785D01*
X0107850Y0209587D01*
X0108029Y0209385D01*
X0108203Y0209178D01*
X0108372Y0208968D01*
X0108535Y0208753D01*
X0108693Y0208534D01*
X0108846Y0208311D01*
X0108993Y0208085D01*
X0109135Y0207855D01*
X0109271Y0207622D01*
X0109401Y0207385D01*
X0109525Y0207146D01*
X0109644Y0206903D01*
X0109756Y0206658D01*
X0109863Y0206410D01*
X0109963Y0206159D01*
X0110057Y0205906D01*
X0110145Y0205650D01*
X0110226Y0205393D01*
X0110302Y0205134D01*
X0110370Y0204873D01*
X0110433Y0204610D01*
X0110489Y0204346D01*
X0110538Y0204081D01*
X0110581Y0203814D01*
X0110617Y0203547D01*
X0110647Y0203278D01*
X0110670Y0203009D01*
X0110687Y0202740D01*
X0110697Y0202470D01*
X0110700Y0202200D01*
X0110697Y0201930D01*
X0110687Y0201660D01*
X0110670Y0201391D01*
X0110647Y0201122D01*
X0110617Y0200853D01*
X0110581Y0200586D01*
X0110538Y0200319D01*
X0110489Y0200054D01*
X0110433Y0199790D01*
X0110370Y0199527D01*
X0110302Y0199266D01*
X0110226Y0199007D01*
X0110145Y0198750D01*
X0110057Y0198494D01*
X0109963Y0198241D01*
X0109863Y0197990D01*
X0109756Y0197742D01*
X0109644Y0197497D01*
X0109525Y0197254D01*
X0109401Y0197015D01*
X0109271Y0196778D01*
X0109135Y0196545D01*
X0108993Y0196315D01*
X0108846Y0196089D01*
X0108693Y0195866D01*
X0108535Y0195647D01*
X0108372Y0195432D01*
X0108203Y0195222D01*
X0108029Y0195015D01*
X0107850Y0194813D01*
X0107667Y0194615D01*
X0107478Y0194422D01*
X0107285Y0194233D01*
X0107087Y0194050D01*
X0106885Y0193871D01*
X0106678Y0193697D01*
X0106468Y0193528D01*
X0106253Y0193365D01*
X0106034Y0193207D01*
X0105811Y0193054D01*
X0105585Y0192907D01*
X0105355Y0192765D01*
X0105122Y0192629D01*
X0104885Y0192499D01*
X0104646Y0192375D01*
X0104403Y0192256D01*
X0104158Y0192144D01*
X0103910Y0192037D01*
X0103659Y0191937D01*
X0103406Y0191843D01*
X0103150Y0191755D01*
X0102893Y0191674D01*
X0102634Y0191598D01*
X0102373Y0191530D01*
X0102110Y0191467D01*
X0101846Y0191411D01*
X0101581Y0191362D01*
X0101314Y0191319D01*
X0101047Y0191283D01*
X0100778Y0191253D01*
X0100509Y0191230D01*
X0100240Y0191213D01*
X0099970Y0191203D01*
X0099700Y0191200D01*
X0099430Y0191203D01*
X0099160Y0191213D01*
X0098891Y0191230D01*
X0098622Y0191253D01*
X0098353Y0191283D01*
X0098086Y0191319D01*
X0097819Y0191362D01*
X0097554Y0191411D01*
X0097290Y0191467D01*
X0097027Y0191530D01*
X0096766Y0191598D01*
X0096507Y0191674D01*
X0096250Y0191755D01*
X0095994Y0191843D01*
X0095741Y0191937D01*
X0095490Y0192037D01*
X0095242Y0192144D01*
X0094997Y0192256D01*
X0094754Y0192375D01*
X0094515Y0192499D01*
X0094278Y0192629D01*
X0094045Y0192765D01*
X0093815Y0192907D01*
X0093589Y0193054D01*
X0093366Y0193207D01*
X0093147Y0193365D01*
X0092932Y0193528D01*
X0092722Y0193697D01*
X0092515Y0193871D01*
X0092313Y0194050D01*
X0092115Y0194233D01*
X0091922Y0194422D01*
X0091733Y0194615D01*
X0091550Y0194813D01*
X0091371Y0195015D01*
X0091197Y0195222D01*
X0091028Y0195432D01*
X0090865Y0195647D01*
X0090707Y0195866D01*
X0090554Y0196089D01*
X0090407Y0196315D01*
X0090265Y0196545D01*
X0090129Y0196778D01*
X0089999Y0197015D01*
X0089875Y0197254D01*
X0089756Y0197497D01*
X0089644Y0197742D01*
X0089537Y0197990D01*
X0089437Y0198241D01*
X0089343Y0198494D01*
X0089255Y0198750D01*
X0089174Y0199007D01*
X0089098Y0199266D01*
X0089030Y0199527D01*
X0088967Y0199790D01*
X0088911Y0200054D01*
X0088862Y0200319D01*
X0088819Y0200586D01*
X0088783Y0200853D01*
X0088753Y0201122D01*
X0088730Y0201391D01*
X0088713Y0201660D01*
X0088703Y0201930D01*
X0088700Y0202200D01*
D16*
X0148700Y0139700D02*
X0150700Y0139700D01*
X0171200Y0139700D02*
X0173200Y0139700D01*
X0173200Y0119700D02*
X0171200Y0119700D01*
X0171200Y0054700D02*
X0173200Y0054700D01*
X0150700Y0054700D02*
X0148700Y0054700D01*
M02*
